G75*
%MOIN*%
%OFA0B0*%
%FSLAX25Y25*%
%IPPOS*%
%LPD*%
%AMOC8*
5,1,8,0,0,1.08239X$1,22.5*
%
%ADD10C,0.16598*%
%ADD11C,0.02200*%
%ADD12C,0.00600*%
D10*
X0034580Y0261400D03*
X0034580Y0331400D03*
X0164580Y0331400D03*
X0164580Y0261400D03*
D11*
X0143330Y0263775D03*
X0143330Y0266650D03*
X0143330Y0276275D03*
X0145230Y0277700D03*
X0137780Y0275250D03*
X0136030Y0276750D03*
X0130830Y0276150D03*
X0130830Y0279025D03*
X0127930Y0277700D03*
X0125380Y0279050D03*
X0125380Y0276250D03*
X0118330Y0276275D03*
X0118330Y0279150D03*
X0118330Y0288775D03*
X0118330Y0291650D03*
X0118330Y0301275D03*
X0118330Y0304150D03*
X0118330Y0313775D03*
X0118330Y0316650D03*
X0112393Y0316088D03*
X0105830Y0316650D03*
X0105830Y0313775D03*
X0105830Y0304150D03*
X0105830Y0301275D03*
X0105830Y0291650D03*
X0105830Y0288775D03*
X0105830Y0279150D03*
X0105830Y0276275D03*
X0105830Y0266650D03*
X0105830Y0263775D03*
X0093330Y0263775D03*
X0093330Y0266650D03*
X0093330Y0276275D03*
X0093330Y0279150D03*
X0093330Y0288775D03*
X0093330Y0291588D03*
X0080830Y0291650D03*
X0080830Y0288775D03*
X0073955Y0288900D03*
X0068330Y0288775D03*
X0068330Y0291650D03*
X0068330Y0301275D03*
X0068330Y0304150D03*
X0068330Y0313775D03*
X0068330Y0316650D03*
X0068330Y0326275D03*
X0068330Y0329150D03*
X0073330Y0327250D03*
X0075630Y0328450D03*
X0073880Y0330100D03*
X0078080Y0327950D03*
X0080830Y0329150D03*
X0080830Y0326275D03*
X0083930Y0327600D03*
X0086380Y0325250D03*
X0087680Y0327500D03*
X0087730Y0330050D03*
X0093330Y0329150D03*
X0093330Y0326275D03*
X0093330Y0316650D03*
X0093330Y0313775D03*
X0080830Y0313775D03*
X0080830Y0316650D03*
X0075180Y0325200D03*
X0075130Y0337750D03*
X0073580Y0340000D03*
X0073880Y0342550D03*
X0078330Y0340250D03*
X0080830Y0338900D03*
X0087230Y0337850D03*
X0068330Y0338650D03*
X0068330Y0341525D03*
X0055830Y0341525D03*
X0055830Y0338650D03*
X0055830Y0329150D03*
X0055830Y0326275D03*
X0055830Y0316525D03*
X0080830Y0304150D03*
X0080830Y0301275D03*
X0093330Y0301275D03*
X0093330Y0304150D03*
X0105830Y0326275D03*
X0105830Y0329150D03*
X0111930Y0337800D03*
X0118330Y0341525D03*
X0120980Y0340150D03*
X0123580Y0339650D03*
X0125380Y0341450D03*
X0127730Y0340050D03*
X0130830Y0338650D03*
X0130830Y0341650D03*
X0137080Y0338900D03*
X0143330Y0341550D03*
X0146455Y0341525D03*
X0146455Y0338713D03*
X0145080Y0327650D03*
X0141580Y0327650D03*
X0137630Y0325250D03*
X0130830Y0326400D03*
X0130830Y0329275D03*
X0123980Y0329050D03*
X0121780Y0327700D03*
X0118330Y0326275D03*
X0118330Y0329150D03*
X0125230Y0337700D03*
X0130830Y0316650D03*
X0130830Y0313775D03*
X0128080Y0315300D03*
X0136680Y0317500D03*
X0136780Y0312700D03*
X0143330Y0316400D03*
X0130830Y0304150D03*
X0130830Y0301275D03*
X0130830Y0291650D03*
X0130830Y0288775D03*
X0130830Y0266650D03*
X0130830Y0263775D03*
X0130830Y0254150D03*
X0130830Y0251275D03*
X0118330Y0254025D03*
X0118330Y0263775D03*
X0118330Y0266650D03*
X0143330Y0254025D03*
X0080830Y0251275D03*
X0078880Y0252550D03*
X0075680Y0252700D03*
X0073930Y0254300D03*
X0073430Y0251800D03*
X0075180Y0250150D03*
X0068330Y0251275D03*
X0068330Y0254150D03*
X0073880Y0262750D03*
X0075780Y0264650D03*
X0075230Y0266950D03*
X0073280Y0265400D03*
X0078180Y0265200D03*
X0080830Y0263775D03*
X0080830Y0266650D03*
X0080830Y0276275D03*
X0080830Y0279150D03*
X0073630Y0276750D03*
X0068330Y0276275D03*
X0068330Y0279150D03*
X0062080Y0279900D03*
X0062030Y0275450D03*
X0055830Y0276275D03*
X0053480Y0277650D03*
X0055830Y0266650D03*
X0055830Y0263775D03*
X0052705Y0254087D03*
X0052705Y0251212D03*
X0055830Y0251275D03*
X0068330Y0263775D03*
D12*
X0032779Y0247718D02*
X0029299Y0248650D01*
X0026179Y0250452D01*
X0023632Y0252999D01*
X0021830Y0256119D01*
X0020898Y0259599D01*
X0020780Y0261400D01*
X0020898Y0263201D01*
X0021830Y0266681D01*
X0023632Y0269801D01*
X0026179Y0272348D01*
X0029299Y0274150D01*
X0032779Y0275082D01*
X0034580Y0275200D01*
X0046239Y0275200D01*
X0047189Y0274250D01*
X0048971Y0274250D01*
X0049921Y0275200D01*
X0050077Y0275200D01*
X0050780Y0275903D01*
X0050780Y0316897D01*
X0050077Y0317600D01*
X0049921Y0317600D01*
X0048971Y0318550D01*
X0047189Y0318550D01*
X0046239Y0317600D01*
X0034580Y0317600D01*
X0032779Y0317718D01*
X0029299Y0318650D01*
X0026179Y0320452D01*
X0023632Y0322999D01*
X0021830Y0326119D01*
X0020898Y0329599D01*
X0020780Y0331400D01*
X0020780Y0331400D01*
X0020898Y0333201D01*
X0021830Y0336681D01*
X0021830Y0336681D01*
X0023632Y0339801D01*
X0026179Y0342348D01*
X0029299Y0344150D01*
X0032779Y0345082D01*
X0034580Y0345200D01*
X0046239Y0345200D01*
X0047189Y0344250D01*
X0048971Y0344250D01*
X0049921Y0345200D01*
X0148739Y0345200D01*
X0149689Y0344250D01*
X0151471Y0344250D01*
X0152421Y0345200D01*
X0164580Y0345200D01*
X0166381Y0345082D01*
X0169861Y0344150D01*
X0172981Y0342348D01*
X0175528Y0339801D01*
X0177330Y0336681D01*
X0178262Y0333201D01*
X0178380Y0331400D01*
X0178380Y0331400D01*
X0178262Y0329599D01*
X0177330Y0326119D01*
X0175528Y0322999D01*
X0172981Y0320452D01*
X0169861Y0318650D01*
X0166381Y0317718D01*
X0164580Y0317600D01*
X0152421Y0317600D01*
X0151471Y0318550D01*
X0149689Y0318550D01*
X0148430Y0317291D01*
X0148430Y0316947D01*
X0148380Y0316897D01*
X0148380Y0275903D01*
X0149083Y0275200D01*
X0149239Y0275200D01*
X0150189Y0274250D01*
X0151971Y0274250D01*
X0152921Y0275200D01*
X0164083Y0275200D01*
X0164580Y0275200D01*
X0166381Y0275082D01*
X0169861Y0274150D01*
X0172981Y0272348D01*
X0175528Y0269801D01*
X0177330Y0266681D01*
X0178262Y0263201D01*
X0178380Y0261400D01*
X0178262Y0259599D01*
X0177330Y0256119D01*
X0175528Y0252999D01*
X0172981Y0250452D01*
X0169861Y0248650D01*
X0166381Y0247718D01*
X0164580Y0247600D01*
X0152921Y0247600D01*
X0151971Y0248550D01*
X0150189Y0248550D01*
X0149239Y0247600D01*
X0049921Y0247600D01*
X0048971Y0248550D01*
X0047189Y0248550D01*
X0046239Y0247600D01*
X0034580Y0247600D01*
X0032779Y0247718D01*
X0030997Y0248196D02*
X0046835Y0248196D01*
X0047189Y0249250D02*
X0048971Y0249250D01*
X0050230Y0250509D01*
X0050230Y0252291D01*
X0048971Y0253550D01*
X0047189Y0253550D01*
X0045930Y0252291D01*
X0045930Y0250509D01*
X0047189Y0249250D01*
X0047047Y0249393D02*
X0028014Y0249393D01*
X0029050Y0248794D02*
X0170110Y0248794D01*
X0171146Y0249393D02*
X0152113Y0249393D01*
X0151971Y0249250D02*
X0153230Y0250509D01*
X0153230Y0252291D01*
X0151971Y0253550D01*
X0150189Y0253550D01*
X0148930Y0252291D01*
X0148930Y0250509D01*
X0150189Y0249250D01*
X0151971Y0249250D01*
X0152712Y0249991D02*
X0172183Y0249991D01*
X0173119Y0250590D02*
X0153230Y0250590D01*
X0153230Y0251188D02*
X0173717Y0251188D01*
X0174316Y0251787D02*
X0153230Y0251787D01*
X0153135Y0252385D02*
X0162305Y0252385D01*
X0162750Y0252201D02*
X0166410Y0252201D01*
X0169791Y0253601D01*
X0172379Y0256189D01*
X0173779Y0259570D01*
X0173779Y0263230D01*
X0172379Y0266611D01*
X0169791Y0269199D01*
X0166410Y0270599D01*
X0162750Y0270599D01*
X0159369Y0269199D01*
X0156781Y0266611D01*
X0155381Y0263230D01*
X0155381Y0259570D01*
X0156781Y0256189D01*
X0159369Y0253601D01*
X0162750Y0252201D01*
X0160860Y0252984D02*
X0152537Y0252984D01*
X0151971Y0254250D02*
X0153230Y0255509D01*
X0153230Y0257291D01*
X0151971Y0258550D01*
X0150189Y0258550D01*
X0148930Y0257291D01*
X0148930Y0255509D01*
X0150189Y0254250D01*
X0151971Y0254250D01*
X0152500Y0254779D02*
X0158191Y0254779D01*
X0157593Y0255378D02*
X0153098Y0255378D01*
X0153230Y0255976D02*
X0156994Y0255976D01*
X0156622Y0256575D02*
X0153230Y0256575D01*
X0153230Y0257173D02*
X0156374Y0257173D01*
X0156126Y0257772D02*
X0152749Y0257772D01*
X0152150Y0258370D02*
X0155878Y0258370D01*
X0155630Y0258969D02*
X0059283Y0258969D01*
X0058685Y0258370D02*
X0150010Y0258370D01*
X0149411Y0257772D02*
X0058086Y0257772D01*
X0057488Y0257173D02*
X0148930Y0257173D01*
X0148930Y0256575D02*
X0056889Y0256575D01*
X0056291Y0255976D02*
X0067328Y0255976D01*
X0067502Y0256150D02*
X0066330Y0254978D01*
X0066330Y0253322D01*
X0067502Y0252150D01*
X0069158Y0252150D01*
X0070330Y0253322D01*
X0070330Y0254978D01*
X0069158Y0256150D01*
X0067502Y0256150D01*
X0066729Y0255378D02*
X0055692Y0255378D01*
X0055094Y0254779D02*
X0066330Y0254779D01*
X0066330Y0254181D02*
X0054705Y0254181D01*
X0054705Y0254390D02*
X0071952Y0271638D01*
X0072655Y0272340D01*
X0072655Y0285903D01*
X0073652Y0286900D01*
X0074783Y0286900D01*
X0075955Y0288072D01*
X0075955Y0289728D01*
X0074783Y0290900D01*
X0073127Y0290900D01*
X0071955Y0289728D01*
X0071955Y0288597D01*
X0070958Y0287600D01*
X0070255Y0286897D01*
X0070255Y0280053D01*
X0069158Y0281150D01*
X0067502Y0281150D01*
X0066330Y0279978D01*
X0066330Y0278322D01*
X0067502Y0277150D01*
X0069158Y0277150D01*
X0070255Y0278247D01*
X0070255Y0273335D01*
X0053008Y0256087D01*
X0051877Y0256087D01*
X0050705Y0254916D01*
X0050705Y0253259D01*
X0051314Y0252650D01*
X0050705Y0252041D01*
X0050705Y0250384D01*
X0051877Y0249212D01*
X0053533Y0249212D01*
X0054705Y0250384D01*
X0054705Y0252041D01*
X0054096Y0252650D01*
X0054705Y0253259D01*
X0054705Y0254390D01*
X0054705Y0253582D02*
X0066330Y0253582D01*
X0066668Y0252984D02*
X0054430Y0252984D01*
X0054361Y0252385D02*
X0067266Y0252385D01*
X0069394Y0252385D02*
X0117141Y0252385D01*
X0117502Y0252025D02*
X0119158Y0252025D01*
X0120330Y0253197D01*
X0120330Y0254853D01*
X0119158Y0256025D01*
X0117502Y0256025D01*
X0116330Y0254853D01*
X0116330Y0253197D01*
X0117502Y0252025D01*
X0116543Y0252984D02*
X0069992Y0252984D01*
X0070330Y0253582D02*
X0116330Y0253582D01*
X0116330Y0254181D02*
X0070330Y0254181D01*
X0070330Y0254779D02*
X0116330Y0254779D01*
X0116854Y0255378D02*
X0069931Y0255378D01*
X0069332Y0255976D02*
X0117453Y0255976D01*
X0119207Y0255976D02*
X0129828Y0255976D01*
X0130002Y0256150D02*
X0128830Y0254978D01*
X0128830Y0253322D01*
X0130002Y0252150D01*
X0131658Y0252150D01*
X0132830Y0253322D01*
X0132830Y0254978D01*
X0131658Y0256150D01*
X0130002Y0256150D01*
X0129229Y0255378D02*
X0119806Y0255378D01*
X0120330Y0254779D02*
X0128830Y0254779D01*
X0128830Y0254181D02*
X0120330Y0254181D01*
X0120330Y0253582D02*
X0128830Y0253582D01*
X0129168Y0252984D02*
X0120117Y0252984D01*
X0119519Y0252385D02*
X0129766Y0252385D01*
X0131894Y0252385D02*
X0142141Y0252385D01*
X0142502Y0252025D02*
X0144158Y0252025D01*
X0145330Y0253197D01*
X0145330Y0254853D01*
X0144158Y0256025D01*
X0142502Y0256025D01*
X0141330Y0254853D01*
X0141330Y0253197D01*
X0142502Y0252025D01*
X0141543Y0252984D02*
X0132492Y0252984D01*
X0132830Y0253582D02*
X0141330Y0253582D01*
X0141330Y0254181D02*
X0132830Y0254181D01*
X0132830Y0254779D02*
X0141330Y0254779D01*
X0141854Y0255378D02*
X0132431Y0255378D01*
X0131832Y0255976D02*
X0142453Y0255976D01*
X0144207Y0255976D02*
X0148930Y0255976D01*
X0149062Y0255378D02*
X0144806Y0255378D01*
X0145330Y0254779D02*
X0149660Y0254779D01*
X0149623Y0252984D02*
X0145117Y0252984D01*
X0145330Y0253582D02*
X0159415Y0253582D01*
X0158790Y0254181D02*
X0145330Y0254181D01*
X0144519Y0252385D02*
X0149025Y0252385D01*
X0148930Y0251787D02*
X0054705Y0251787D01*
X0054705Y0251188D02*
X0148930Y0251188D01*
X0148930Y0250590D02*
X0054705Y0250590D01*
X0054312Y0249991D02*
X0149448Y0249991D01*
X0150047Y0249393D02*
X0053713Y0249393D01*
X0051697Y0249393D02*
X0049113Y0249393D01*
X0049712Y0249991D02*
X0051098Y0249991D01*
X0050705Y0250590D02*
X0050230Y0250590D01*
X0050230Y0251188D02*
X0050705Y0251188D01*
X0050705Y0251787D02*
X0050230Y0251787D01*
X0050135Y0252385D02*
X0051049Y0252385D01*
X0050980Y0252984D02*
X0049537Y0252984D01*
X0050705Y0253582D02*
X0039745Y0253582D01*
X0039791Y0253601D02*
X0042379Y0256189D01*
X0043779Y0259570D01*
X0043779Y0263230D01*
X0042379Y0266611D01*
X0039791Y0269199D01*
X0036410Y0270599D01*
X0032750Y0270599D01*
X0029369Y0269199D01*
X0026781Y0266611D01*
X0025381Y0263230D01*
X0025381Y0259570D01*
X0026781Y0256189D01*
X0029369Y0253601D01*
X0032750Y0252201D01*
X0036410Y0252201D01*
X0039791Y0253601D01*
X0040370Y0254181D02*
X0050705Y0254181D01*
X0050705Y0254779D02*
X0049500Y0254779D01*
X0048971Y0254250D02*
X0050230Y0255509D01*
X0050230Y0257291D01*
X0048971Y0258550D01*
X0047189Y0258550D01*
X0045930Y0257291D01*
X0045930Y0255509D01*
X0047189Y0254250D01*
X0048971Y0254250D01*
X0050098Y0255378D02*
X0051167Y0255378D01*
X0051765Y0255976D02*
X0050230Y0255976D01*
X0050230Y0256575D02*
X0053495Y0256575D01*
X0054094Y0257173D02*
X0050230Y0257173D01*
X0049749Y0257772D02*
X0054692Y0257772D01*
X0055291Y0258370D02*
X0049150Y0258370D01*
X0048971Y0259250D02*
X0050230Y0260509D01*
X0050230Y0262291D01*
X0048971Y0263550D01*
X0047189Y0263550D01*
X0045930Y0262291D01*
X0045930Y0260509D01*
X0047189Y0259250D01*
X0048971Y0259250D01*
X0049288Y0259567D02*
X0056488Y0259567D01*
X0057086Y0260166D02*
X0049886Y0260166D01*
X0050230Y0260764D02*
X0057685Y0260764D01*
X0058283Y0261363D02*
X0050230Y0261363D01*
X0050230Y0261961D02*
X0058882Y0261961D01*
X0059480Y0262560D02*
X0049961Y0262560D01*
X0049362Y0263158D02*
X0060079Y0263158D01*
X0060677Y0263757D02*
X0043561Y0263757D01*
X0043779Y0263158D02*
X0046798Y0263158D01*
X0046199Y0262560D02*
X0043779Y0262560D01*
X0043779Y0261961D02*
X0045930Y0261961D01*
X0045930Y0261363D02*
X0043779Y0261363D01*
X0043779Y0260764D02*
X0045930Y0260764D01*
X0046274Y0260166D02*
X0043779Y0260166D01*
X0043778Y0259567D02*
X0046872Y0259567D01*
X0047010Y0258370D02*
X0043282Y0258370D01*
X0043034Y0257772D02*
X0046411Y0257772D01*
X0045930Y0257173D02*
X0042786Y0257173D01*
X0042538Y0256575D02*
X0045930Y0256575D01*
X0045930Y0255976D02*
X0042166Y0255976D01*
X0041567Y0255378D02*
X0046062Y0255378D01*
X0046660Y0254779D02*
X0040969Y0254779D01*
X0038300Y0252984D02*
X0046623Y0252984D01*
X0046025Y0252385D02*
X0036855Y0252385D01*
X0032305Y0252385D02*
X0024246Y0252385D01*
X0024844Y0251787D02*
X0045930Y0251787D01*
X0045930Y0251188D02*
X0025443Y0251188D01*
X0026041Y0250590D02*
X0045930Y0250590D01*
X0046448Y0249991D02*
X0026977Y0249991D01*
X0029415Y0253582D02*
X0023295Y0253582D01*
X0022950Y0254181D02*
X0028790Y0254181D01*
X0028191Y0254779D02*
X0022604Y0254779D01*
X0022258Y0255378D02*
X0027593Y0255378D01*
X0026994Y0255976D02*
X0021913Y0255976D01*
X0021708Y0256575D02*
X0026622Y0256575D01*
X0026374Y0257173D02*
X0021548Y0257173D01*
X0021388Y0257772D02*
X0026126Y0257772D01*
X0025878Y0258370D02*
X0021227Y0258370D01*
X0021067Y0258969D02*
X0025630Y0258969D01*
X0025382Y0259567D02*
X0020906Y0259567D01*
X0020861Y0260166D02*
X0025381Y0260166D01*
X0025381Y0260764D02*
X0020822Y0260764D01*
X0020782Y0261363D02*
X0025381Y0261363D01*
X0025381Y0261961D02*
X0020817Y0261961D01*
X0020780Y0261400D02*
X0020780Y0261400D01*
X0020856Y0262560D02*
X0025381Y0262560D01*
X0025381Y0263158D02*
X0020895Y0263158D01*
X0021047Y0263757D02*
X0025599Y0263757D01*
X0025847Y0264355D02*
X0021207Y0264355D01*
X0021368Y0264954D02*
X0026095Y0264954D01*
X0026343Y0265552D02*
X0021528Y0265552D01*
X0021688Y0266151D02*
X0026591Y0266151D01*
X0026920Y0266749D02*
X0021870Y0266749D01*
X0022215Y0267348D02*
X0027518Y0267348D01*
X0028117Y0267946D02*
X0022561Y0267946D01*
X0022907Y0268545D02*
X0028715Y0268545D01*
X0029314Y0269143D02*
X0023252Y0269143D01*
X0023598Y0269742D02*
X0030681Y0269742D01*
X0032125Y0270340D02*
X0024171Y0270340D01*
X0024770Y0270939D02*
X0045930Y0270939D01*
X0045930Y0270509D02*
X0047189Y0269250D01*
X0048971Y0269250D01*
X0050230Y0270509D01*
X0050230Y0272291D01*
X0048971Y0273550D01*
X0047189Y0273550D01*
X0045930Y0272291D01*
X0045930Y0270509D01*
X0046099Y0270340D02*
X0037035Y0270340D01*
X0038479Y0269742D02*
X0046698Y0269742D01*
X0047189Y0268550D02*
X0045930Y0267291D01*
X0045930Y0265509D01*
X0047189Y0264250D01*
X0048971Y0264250D01*
X0050230Y0265509D01*
X0050230Y0267291D01*
X0048971Y0268550D01*
X0047189Y0268550D01*
X0047184Y0268545D02*
X0040445Y0268545D01*
X0041043Y0267946D02*
X0046586Y0267946D01*
X0045987Y0267348D02*
X0041642Y0267348D01*
X0042240Y0266749D02*
X0045930Y0266749D01*
X0045930Y0266151D02*
X0042569Y0266151D01*
X0042817Y0265552D02*
X0045930Y0265552D01*
X0046486Y0264954D02*
X0043065Y0264954D01*
X0043313Y0264355D02*
X0047084Y0264355D01*
X0049076Y0264355D02*
X0061276Y0264355D01*
X0061874Y0264954D02*
X0056962Y0264954D01*
X0056658Y0264650D02*
X0057830Y0265822D01*
X0057830Y0267478D01*
X0056658Y0268650D01*
X0055002Y0268650D01*
X0053830Y0267478D01*
X0053830Y0265822D01*
X0055002Y0264650D01*
X0056658Y0264650D01*
X0057561Y0265552D02*
X0062473Y0265552D01*
X0063071Y0266151D02*
X0057830Y0266151D01*
X0057830Y0266749D02*
X0063670Y0266749D01*
X0064268Y0267348D02*
X0057830Y0267348D01*
X0057362Y0267946D02*
X0064867Y0267946D01*
X0065465Y0268545D02*
X0056763Y0268545D01*
X0054897Y0268545D02*
X0048976Y0268545D01*
X0049574Y0267946D02*
X0054298Y0267946D01*
X0053830Y0267348D02*
X0050173Y0267348D01*
X0050230Y0266749D02*
X0053830Y0266749D01*
X0053830Y0266151D02*
X0050230Y0266151D01*
X0050230Y0265552D02*
X0054099Y0265552D01*
X0054698Y0264954D02*
X0049674Y0264954D01*
X0049462Y0269742D02*
X0066662Y0269742D01*
X0066064Y0269143D02*
X0039846Y0269143D01*
X0045930Y0271537D02*
X0025368Y0271537D01*
X0025967Y0272136D02*
X0045930Y0272136D01*
X0046374Y0272734D02*
X0026848Y0272734D01*
X0027885Y0273333D02*
X0046972Y0273333D01*
X0046909Y0274530D02*
X0030719Y0274530D01*
X0028921Y0273932D02*
X0070255Y0273932D01*
X0070255Y0274530D02*
X0049251Y0274530D01*
X0049849Y0275129D02*
X0070255Y0275129D01*
X0070255Y0275727D02*
X0050604Y0275727D01*
X0050780Y0276326D02*
X0070255Y0276326D01*
X0070255Y0276924D02*
X0050780Y0276924D01*
X0050780Y0277523D02*
X0067129Y0277523D01*
X0066530Y0278121D02*
X0050780Y0278121D01*
X0050780Y0278720D02*
X0066330Y0278720D01*
X0066330Y0279318D02*
X0050780Y0279318D01*
X0050780Y0279917D02*
X0066330Y0279917D01*
X0066867Y0280515D02*
X0050780Y0280515D01*
X0050780Y0281114D02*
X0067465Y0281114D01*
X0069195Y0281114D02*
X0070255Y0281114D01*
X0070255Y0281712D02*
X0050780Y0281712D01*
X0050780Y0282311D02*
X0070255Y0282311D01*
X0070255Y0282909D02*
X0050780Y0282909D01*
X0050780Y0283508D02*
X0070255Y0283508D01*
X0070255Y0284106D02*
X0050780Y0284106D01*
X0050780Y0284705D02*
X0070255Y0284705D01*
X0070255Y0285303D02*
X0050780Y0285303D01*
X0050780Y0285902D02*
X0070255Y0285902D01*
X0070255Y0286500D02*
X0050780Y0286500D01*
X0050780Y0287099D02*
X0070457Y0287099D01*
X0071055Y0287697D02*
X0050780Y0287697D01*
X0050780Y0288296D02*
X0071654Y0288296D01*
X0071955Y0288894D02*
X0050780Y0288894D01*
X0050780Y0289493D02*
X0071955Y0289493D01*
X0072318Y0290091D02*
X0069600Y0290091D01*
X0069158Y0289650D02*
X0070330Y0290822D01*
X0070330Y0292478D01*
X0069158Y0293650D01*
X0067502Y0293650D01*
X0066330Y0292478D01*
X0066330Y0290822D01*
X0067502Y0289650D01*
X0069158Y0289650D01*
X0070198Y0290690D02*
X0072916Y0290690D01*
X0073955Y0288900D02*
X0071455Y0286400D01*
X0071455Y0272838D01*
X0052705Y0254087D01*
X0055889Y0258969D02*
X0043530Y0258969D01*
X0049325Y0248196D02*
X0149835Y0248196D01*
X0152325Y0248196D02*
X0168163Y0248196D01*
X0166855Y0252385D02*
X0174914Y0252385D01*
X0175513Y0252984D02*
X0168300Y0252984D01*
X0169745Y0253582D02*
X0175865Y0253582D01*
X0176210Y0254181D02*
X0170370Y0254181D01*
X0170969Y0254779D02*
X0176556Y0254779D01*
X0176902Y0255378D02*
X0171567Y0255378D01*
X0172166Y0255976D02*
X0177247Y0255976D01*
X0177452Y0256575D02*
X0172538Y0256575D01*
X0172786Y0257173D02*
X0177612Y0257173D01*
X0177772Y0257772D02*
X0173034Y0257772D01*
X0173282Y0258370D02*
X0177933Y0258370D01*
X0178093Y0258969D02*
X0173530Y0258969D01*
X0173778Y0259567D02*
X0178254Y0259567D01*
X0178299Y0260166D02*
X0173779Y0260166D01*
X0173779Y0260764D02*
X0178338Y0260764D01*
X0178378Y0261363D02*
X0173779Y0261363D01*
X0173779Y0261961D02*
X0178343Y0261961D01*
X0178380Y0261400D02*
X0178380Y0261400D01*
X0178304Y0262560D02*
X0173779Y0262560D01*
X0173779Y0263158D02*
X0178265Y0263158D01*
X0178113Y0263757D02*
X0173561Y0263757D01*
X0173313Y0264355D02*
X0177953Y0264355D01*
X0177792Y0264954D02*
X0173065Y0264954D01*
X0172817Y0265552D02*
X0177632Y0265552D01*
X0177472Y0266151D02*
X0172569Y0266151D01*
X0172240Y0266749D02*
X0177290Y0266749D01*
X0176945Y0267348D02*
X0171642Y0267348D01*
X0171043Y0267946D02*
X0176599Y0267946D01*
X0176253Y0268545D02*
X0170445Y0268545D01*
X0169846Y0269143D02*
X0175908Y0269143D01*
X0175562Y0269742D02*
X0168479Y0269742D01*
X0167035Y0270340D02*
X0174989Y0270340D01*
X0174390Y0270939D02*
X0153230Y0270939D01*
X0153230Y0270509D02*
X0151971Y0269250D01*
X0150189Y0269250D01*
X0148930Y0270509D01*
X0148930Y0272291D01*
X0150189Y0273550D01*
X0151971Y0273550D01*
X0153230Y0272291D01*
X0153230Y0270509D01*
X0153061Y0270340D02*
X0162125Y0270340D01*
X0160681Y0269742D02*
X0152463Y0269742D01*
X0151971Y0268550D02*
X0150189Y0268550D01*
X0148930Y0267291D01*
X0148930Y0265509D01*
X0150189Y0264250D01*
X0151971Y0264250D01*
X0153230Y0265509D01*
X0153230Y0267291D01*
X0151971Y0268550D01*
X0151976Y0268545D02*
X0158715Y0268545D01*
X0158117Y0267946D02*
X0152574Y0267946D01*
X0153173Y0267348D02*
X0157518Y0267348D01*
X0156920Y0266749D02*
X0153230Y0266749D01*
X0153230Y0266151D02*
X0156591Y0266151D01*
X0156343Y0265552D02*
X0153230Y0265552D01*
X0152674Y0264954D02*
X0156095Y0264954D01*
X0155847Y0264355D02*
X0152076Y0264355D01*
X0151971Y0263550D02*
X0150189Y0263550D01*
X0148930Y0262291D01*
X0148930Y0260509D01*
X0150189Y0259250D01*
X0151971Y0259250D01*
X0153230Y0260509D01*
X0153230Y0262291D01*
X0151971Y0263550D01*
X0152362Y0263158D02*
X0155381Y0263158D01*
X0155381Y0262560D02*
X0152961Y0262560D01*
X0153230Y0261961D02*
X0155381Y0261961D01*
X0155381Y0261363D02*
X0153230Y0261363D01*
X0153230Y0260764D02*
X0155381Y0260764D01*
X0155381Y0260166D02*
X0152886Y0260166D01*
X0152288Y0259567D02*
X0155382Y0259567D01*
X0155599Y0263757D02*
X0064071Y0263757D01*
X0063473Y0263158D02*
X0149798Y0263158D01*
X0149199Y0262560D02*
X0062874Y0262560D01*
X0062276Y0261961D02*
X0148930Y0261961D01*
X0148930Y0261363D02*
X0061677Y0261363D01*
X0061079Y0260764D02*
X0148930Y0260764D01*
X0149274Y0260166D02*
X0060480Y0260166D01*
X0059882Y0259567D02*
X0149872Y0259567D01*
X0150084Y0264355D02*
X0064670Y0264355D01*
X0065268Y0264954D02*
X0079698Y0264954D01*
X0080002Y0264650D02*
X0081658Y0264650D01*
X0082830Y0265822D01*
X0082830Y0267478D01*
X0081658Y0268650D01*
X0080002Y0268650D01*
X0078830Y0267478D01*
X0078830Y0265822D01*
X0080002Y0264650D01*
X0079099Y0265552D02*
X0065867Y0265552D01*
X0066465Y0266151D02*
X0078830Y0266151D01*
X0078830Y0266749D02*
X0067064Y0266749D01*
X0067662Y0267348D02*
X0078830Y0267348D01*
X0079298Y0267946D02*
X0068261Y0267946D01*
X0068859Y0268545D02*
X0079897Y0268545D01*
X0081763Y0268545D02*
X0092397Y0268545D01*
X0092502Y0268650D02*
X0091330Y0267478D01*
X0091330Y0265822D01*
X0092502Y0264650D01*
X0094158Y0264650D01*
X0095330Y0265822D01*
X0095330Y0267478D01*
X0094158Y0268650D01*
X0092502Y0268650D01*
X0091798Y0267946D02*
X0082362Y0267946D01*
X0082830Y0267348D02*
X0091330Y0267348D01*
X0091330Y0266749D02*
X0082830Y0266749D01*
X0082830Y0266151D02*
X0091330Y0266151D01*
X0091599Y0265552D02*
X0082561Y0265552D01*
X0081962Y0264954D02*
X0092198Y0264954D01*
X0094462Y0264954D02*
X0104698Y0264954D01*
X0105002Y0264650D02*
X0106658Y0264650D01*
X0107830Y0265822D01*
X0107830Y0267478D01*
X0106658Y0268650D01*
X0105002Y0268650D01*
X0103830Y0267478D01*
X0103830Y0265822D01*
X0105002Y0264650D01*
X0104099Y0265552D02*
X0095061Y0265552D01*
X0095330Y0266151D02*
X0103830Y0266151D01*
X0103830Y0266749D02*
X0095330Y0266749D01*
X0095330Y0267348D02*
X0103830Y0267348D01*
X0104298Y0267946D02*
X0094862Y0267946D01*
X0094263Y0268545D02*
X0104897Y0268545D01*
X0106763Y0268545D02*
X0117397Y0268545D01*
X0117502Y0268650D02*
X0116330Y0267478D01*
X0116330Y0265822D01*
X0117502Y0264650D01*
X0119158Y0264650D01*
X0120330Y0265822D01*
X0120330Y0267478D01*
X0119158Y0268650D01*
X0117502Y0268650D01*
X0116798Y0267946D02*
X0107362Y0267946D01*
X0107830Y0267348D02*
X0116330Y0267348D01*
X0116330Y0266749D02*
X0107830Y0266749D01*
X0107830Y0266151D02*
X0116330Y0266151D01*
X0116599Y0265552D02*
X0107561Y0265552D01*
X0106962Y0264954D02*
X0117198Y0264954D01*
X0119462Y0264954D02*
X0129698Y0264954D01*
X0130002Y0264650D02*
X0131658Y0264650D01*
X0132830Y0265822D01*
X0132830Y0267478D01*
X0131658Y0268650D01*
X0130002Y0268650D01*
X0128830Y0267478D01*
X0128830Y0265822D01*
X0130002Y0264650D01*
X0129099Y0265552D02*
X0120061Y0265552D01*
X0120330Y0266151D02*
X0128830Y0266151D01*
X0128830Y0266749D02*
X0120330Y0266749D01*
X0120330Y0267348D02*
X0128830Y0267348D01*
X0129298Y0267946D02*
X0119862Y0267946D01*
X0119263Y0268545D02*
X0129897Y0268545D01*
X0131763Y0268545D02*
X0142397Y0268545D01*
X0142502Y0268650D02*
X0141330Y0267478D01*
X0141330Y0265822D01*
X0142502Y0264650D01*
X0144158Y0264650D01*
X0145330Y0265822D01*
X0145330Y0267478D01*
X0144158Y0268650D01*
X0142502Y0268650D01*
X0141798Y0267946D02*
X0132362Y0267946D01*
X0132830Y0267348D02*
X0141330Y0267348D01*
X0141330Y0266749D02*
X0132830Y0266749D01*
X0132830Y0266151D02*
X0141330Y0266151D01*
X0141599Y0265552D02*
X0132561Y0265552D01*
X0131962Y0264954D02*
X0142198Y0264954D01*
X0144462Y0264954D02*
X0149486Y0264954D01*
X0148930Y0265552D02*
X0145061Y0265552D01*
X0145330Y0266151D02*
X0148930Y0266151D01*
X0148930Y0266749D02*
X0145330Y0266749D01*
X0145330Y0267348D02*
X0148987Y0267348D01*
X0149586Y0267946D02*
X0144862Y0267946D01*
X0144263Y0268545D02*
X0150184Y0268545D01*
X0149698Y0269742D02*
X0070056Y0269742D01*
X0069458Y0269143D02*
X0159314Y0269143D01*
X0153230Y0271537D02*
X0173792Y0271537D01*
X0173193Y0272136D02*
X0153230Y0272136D01*
X0152786Y0272734D02*
X0172312Y0272734D01*
X0171275Y0273333D02*
X0152188Y0273333D01*
X0152251Y0274530D02*
X0168441Y0274530D01*
X0170239Y0273932D02*
X0072655Y0273932D01*
X0072655Y0274530D02*
X0149909Y0274530D01*
X0149311Y0275129D02*
X0072655Y0275129D01*
X0072655Y0275727D02*
X0148556Y0275727D01*
X0148380Y0276326D02*
X0072655Y0276326D01*
X0072655Y0276924D02*
X0148380Y0276924D01*
X0148380Y0277523D02*
X0132156Y0277523D01*
X0131658Y0277025D02*
X0132830Y0278197D01*
X0132830Y0279853D01*
X0131658Y0281025D01*
X0130002Y0281025D01*
X0128830Y0279853D01*
X0128830Y0278197D01*
X0130002Y0277025D01*
X0131658Y0277025D01*
X0132755Y0278121D02*
X0148380Y0278121D01*
X0148380Y0278720D02*
X0132830Y0278720D01*
X0132830Y0279318D02*
X0148380Y0279318D01*
X0148380Y0279917D02*
X0132767Y0279917D01*
X0132168Y0280515D02*
X0148380Y0280515D01*
X0148380Y0281114D02*
X0119195Y0281114D01*
X0119158Y0281150D02*
X0117502Y0281150D01*
X0116330Y0279978D01*
X0116330Y0278322D01*
X0117502Y0277150D01*
X0119158Y0277150D01*
X0120330Y0278322D01*
X0120330Y0279978D01*
X0119158Y0281150D01*
X0119793Y0280515D02*
X0129492Y0280515D01*
X0128893Y0279917D02*
X0120330Y0279917D01*
X0120330Y0279318D02*
X0128830Y0279318D01*
X0128830Y0278720D02*
X0120330Y0278720D01*
X0120130Y0278121D02*
X0128905Y0278121D01*
X0129504Y0277523D02*
X0119531Y0277523D01*
X0117129Y0277523D02*
X0107031Y0277523D01*
X0106658Y0277150D02*
X0107830Y0278322D01*
X0107830Y0279978D01*
X0106658Y0281150D01*
X0105002Y0281150D01*
X0103830Y0279978D01*
X0103830Y0278322D01*
X0105002Y0277150D01*
X0106658Y0277150D01*
X0107630Y0278121D02*
X0116530Y0278121D01*
X0116330Y0278720D02*
X0107830Y0278720D01*
X0107830Y0279318D02*
X0116330Y0279318D01*
X0116330Y0279917D02*
X0107830Y0279917D01*
X0107293Y0280515D02*
X0116867Y0280515D01*
X0117465Y0281114D02*
X0106695Y0281114D01*
X0104965Y0281114D02*
X0094195Y0281114D01*
X0094158Y0281150D02*
X0092502Y0281150D01*
X0091330Y0279978D01*
X0091330Y0278322D01*
X0092502Y0277150D01*
X0094158Y0277150D01*
X0095330Y0278322D01*
X0095330Y0279978D01*
X0094158Y0281150D01*
X0094793Y0280515D02*
X0104367Y0280515D01*
X0103830Y0279917D02*
X0095330Y0279917D01*
X0095330Y0279318D02*
X0103830Y0279318D01*
X0103830Y0278720D02*
X0095330Y0278720D01*
X0095130Y0278121D02*
X0104030Y0278121D01*
X0104629Y0277523D02*
X0094531Y0277523D01*
X0092129Y0277523D02*
X0082031Y0277523D01*
X0081658Y0277150D02*
X0082830Y0278322D01*
X0082830Y0279978D01*
X0081658Y0281150D01*
X0080002Y0281150D01*
X0078830Y0279978D01*
X0078830Y0278322D01*
X0080002Y0277150D01*
X0081658Y0277150D01*
X0082630Y0278121D02*
X0091530Y0278121D01*
X0091330Y0278720D02*
X0082830Y0278720D01*
X0082830Y0279318D02*
X0091330Y0279318D01*
X0091330Y0279917D02*
X0082830Y0279917D01*
X0082293Y0280515D02*
X0091867Y0280515D01*
X0092465Y0281114D02*
X0081695Y0281114D01*
X0079965Y0281114D02*
X0072655Y0281114D01*
X0072655Y0281712D02*
X0148380Y0281712D01*
X0148380Y0282311D02*
X0072655Y0282311D01*
X0072655Y0282909D02*
X0148380Y0282909D01*
X0148380Y0283508D02*
X0072655Y0283508D01*
X0072655Y0284106D02*
X0148380Y0284106D01*
X0148380Y0284705D02*
X0072655Y0284705D01*
X0072655Y0285303D02*
X0148380Y0285303D01*
X0148380Y0285902D02*
X0072655Y0285902D01*
X0073252Y0286500D02*
X0148380Y0286500D01*
X0148380Y0287099D02*
X0074982Y0287099D01*
X0075581Y0287697D02*
X0148380Y0287697D01*
X0148380Y0288296D02*
X0075955Y0288296D01*
X0075955Y0288894D02*
X0148380Y0288894D01*
X0148380Y0289493D02*
X0075955Y0289493D01*
X0075592Y0290091D02*
X0079560Y0290091D01*
X0080002Y0289650D02*
X0081658Y0289650D01*
X0082830Y0290822D01*
X0082830Y0292478D01*
X0081658Y0293650D01*
X0080002Y0293650D01*
X0078830Y0292478D01*
X0078830Y0290822D01*
X0080002Y0289650D01*
X0078962Y0290690D02*
X0074994Y0290690D01*
X0078830Y0291288D02*
X0070330Y0291288D01*
X0070330Y0291887D02*
X0078830Y0291887D01*
X0078837Y0292485D02*
X0070323Y0292485D01*
X0069725Y0293084D02*
X0079435Y0293084D01*
X0082225Y0293084D02*
X0091998Y0293084D01*
X0092502Y0293587D02*
X0091330Y0292416D01*
X0091330Y0290759D01*
X0092502Y0289588D01*
X0094158Y0289588D01*
X0095330Y0290759D01*
X0095330Y0292416D01*
X0094158Y0293587D01*
X0092502Y0293587D01*
X0091399Y0292485D02*
X0082823Y0292485D01*
X0082830Y0291887D02*
X0091330Y0291887D01*
X0091330Y0291288D02*
X0082830Y0291288D01*
X0082698Y0290690D02*
X0091399Y0290690D01*
X0091998Y0290091D02*
X0082100Y0290091D01*
X0079367Y0280515D02*
X0072655Y0280515D01*
X0072655Y0279917D02*
X0078830Y0279917D01*
X0078830Y0279318D02*
X0072655Y0279318D01*
X0072655Y0278720D02*
X0078830Y0278720D01*
X0079030Y0278121D02*
X0072655Y0278121D01*
X0072655Y0277523D02*
X0079629Y0277523D01*
X0072655Y0273333D02*
X0149972Y0273333D01*
X0149374Y0272734D02*
X0072655Y0272734D01*
X0072451Y0272136D02*
X0148930Y0272136D01*
X0148930Y0271537D02*
X0071852Y0271537D01*
X0071254Y0270939D02*
X0148930Y0270939D01*
X0149099Y0270340D02*
X0070655Y0270340D01*
X0069056Y0272136D02*
X0050230Y0272136D01*
X0050230Y0271537D02*
X0068458Y0271537D01*
X0067859Y0270939D02*
X0050230Y0270939D01*
X0050061Y0270340D02*
X0067261Y0270340D01*
X0069655Y0272734D02*
X0049786Y0272734D01*
X0049188Y0273333D02*
X0070253Y0273333D01*
X0070255Y0277523D02*
X0069531Y0277523D01*
X0070130Y0278121D02*
X0070255Y0278121D01*
X0070255Y0280515D02*
X0069793Y0280515D01*
X0067060Y0290091D02*
X0050780Y0290091D01*
X0050780Y0290690D02*
X0066462Y0290690D01*
X0066330Y0291288D02*
X0050780Y0291288D01*
X0050780Y0291887D02*
X0066330Y0291887D01*
X0066337Y0292485D02*
X0050780Y0292485D01*
X0050780Y0293084D02*
X0066935Y0293084D01*
X0067502Y0302150D02*
X0066330Y0303322D01*
X0066330Y0304978D01*
X0067502Y0306150D01*
X0069158Y0306150D01*
X0070330Y0304978D01*
X0070330Y0303322D01*
X0069158Y0302150D01*
X0067502Y0302150D01*
X0066992Y0302660D02*
X0050780Y0302660D01*
X0050780Y0302062D02*
X0148380Y0302062D01*
X0148380Y0302660D02*
X0132168Y0302660D01*
X0131658Y0302150D02*
X0132830Y0303322D01*
X0132830Y0304978D01*
X0131658Y0306150D01*
X0130002Y0306150D01*
X0128830Y0304978D01*
X0128830Y0303322D01*
X0130002Y0302150D01*
X0131658Y0302150D01*
X0132767Y0303259D02*
X0148380Y0303259D01*
X0148380Y0303857D02*
X0132830Y0303857D01*
X0132830Y0304456D02*
X0148380Y0304456D01*
X0148380Y0305054D02*
X0132754Y0305054D01*
X0132156Y0305653D02*
X0148380Y0305653D01*
X0148380Y0306251D02*
X0050780Y0306251D01*
X0050780Y0305653D02*
X0067004Y0305653D01*
X0066406Y0305054D02*
X0050780Y0305054D01*
X0050780Y0304456D02*
X0066330Y0304456D01*
X0066330Y0303857D02*
X0050780Y0303857D01*
X0050780Y0303259D02*
X0066393Y0303259D01*
X0069668Y0302660D02*
X0079492Y0302660D01*
X0080002Y0302150D02*
X0081658Y0302150D01*
X0082830Y0303322D01*
X0082830Y0304978D01*
X0081658Y0306150D01*
X0080002Y0306150D01*
X0078830Y0304978D01*
X0078830Y0303322D01*
X0080002Y0302150D01*
X0078893Y0303259D02*
X0070267Y0303259D01*
X0070330Y0303857D02*
X0078830Y0303857D01*
X0078830Y0304456D02*
X0070330Y0304456D01*
X0070254Y0305054D02*
X0078906Y0305054D01*
X0079504Y0305653D02*
X0069656Y0305653D01*
X0069158Y0314650D02*
X0070330Y0315822D01*
X0070330Y0317478D01*
X0069158Y0318650D01*
X0067502Y0318650D01*
X0066330Y0317478D01*
X0066330Y0315822D01*
X0067502Y0314650D01*
X0069158Y0314650D01*
X0069737Y0315229D02*
X0079423Y0315229D01*
X0080002Y0314650D02*
X0081658Y0314650D01*
X0082830Y0315822D01*
X0082830Y0317478D01*
X0081658Y0318650D01*
X0080002Y0318650D01*
X0078830Y0317478D01*
X0078830Y0315822D01*
X0080002Y0314650D01*
X0078830Y0315827D02*
X0070330Y0315827D01*
X0070330Y0316426D02*
X0078830Y0316426D01*
X0078830Y0317024D02*
X0070330Y0317024D01*
X0070186Y0317623D02*
X0078974Y0317623D01*
X0079573Y0318221D02*
X0069587Y0318221D01*
X0067073Y0318221D02*
X0056962Y0318221D01*
X0056658Y0318525D02*
X0055002Y0318525D01*
X0053830Y0317353D01*
X0053830Y0315697D01*
X0055002Y0314525D01*
X0056658Y0314525D01*
X0057830Y0315697D01*
X0057830Y0317353D01*
X0056658Y0318525D01*
X0057561Y0317623D02*
X0066474Y0317623D01*
X0066330Y0317024D02*
X0057830Y0317024D01*
X0057830Y0316426D02*
X0066330Y0316426D01*
X0066330Y0315827D02*
X0057830Y0315827D01*
X0057362Y0315229D02*
X0066923Y0315229D01*
X0056764Y0314630D02*
X0111021Y0314630D01*
X0111564Y0314088D02*
X0110393Y0315259D01*
X0110393Y0316916D01*
X0111564Y0318087D01*
X0112695Y0318087D01*
X0114770Y0320162D01*
X0126208Y0320162D01*
X0144455Y0338410D01*
X0144455Y0339541D01*
X0145033Y0340119D01*
X0144880Y0340272D01*
X0144158Y0339550D01*
X0142502Y0339550D01*
X0141330Y0340722D01*
X0141330Y0342378D01*
X0142502Y0343550D01*
X0144158Y0343550D01*
X0144905Y0342803D01*
X0145627Y0343525D01*
X0147283Y0343525D01*
X0148455Y0342353D01*
X0148455Y0342316D01*
X0149689Y0343550D01*
X0151471Y0343550D01*
X0152730Y0342291D01*
X0152730Y0340509D01*
X0151471Y0339250D01*
X0149689Y0339250D01*
X0148430Y0340509D01*
X0148430Y0340672D01*
X0147877Y0340119D01*
X0148455Y0339541D01*
X0148455Y0337884D01*
X0147283Y0336713D01*
X0146152Y0336713D01*
X0127905Y0318465D01*
X0127905Y0318465D01*
X0127202Y0317763D01*
X0120046Y0317763D01*
X0120330Y0317478D01*
X0120330Y0315822D01*
X0119158Y0314650D01*
X0117502Y0314650D01*
X0116330Y0315822D01*
X0116330Y0317478D01*
X0116614Y0317763D01*
X0115765Y0317763D01*
X0114392Y0316390D01*
X0114392Y0315259D01*
X0113221Y0314088D01*
X0111564Y0314088D01*
X0110423Y0315229D02*
X0107237Y0315229D01*
X0106658Y0314650D02*
X0107830Y0315822D01*
X0107830Y0317478D01*
X0106658Y0318650D01*
X0105002Y0318650D01*
X0103830Y0317478D01*
X0103830Y0315822D01*
X0105002Y0314650D01*
X0106658Y0314650D01*
X0107830Y0315827D02*
X0110393Y0315827D01*
X0110393Y0316426D02*
X0107830Y0316426D01*
X0107830Y0317024D02*
X0110501Y0317024D01*
X0111099Y0317623D02*
X0107686Y0317623D01*
X0107087Y0318221D02*
X0112829Y0318221D01*
X0113428Y0318820D02*
X0029006Y0318820D01*
X0027969Y0319418D02*
X0047021Y0319418D01*
X0047189Y0319250D02*
X0048971Y0319250D01*
X0050230Y0320509D01*
X0050230Y0322291D01*
X0048971Y0323550D01*
X0047189Y0323550D01*
X0045930Y0322291D01*
X0045930Y0320509D01*
X0047189Y0319250D01*
X0046861Y0318221D02*
X0030900Y0318221D01*
X0034231Y0317623D02*
X0046262Y0317623D01*
X0046423Y0320017D02*
X0026932Y0320017D01*
X0026015Y0320615D02*
X0045930Y0320615D01*
X0045930Y0321214D02*
X0025417Y0321214D01*
X0024818Y0321812D02*
X0045930Y0321812D01*
X0046050Y0322411D02*
X0036917Y0322411D01*
X0036410Y0322201D02*
X0039791Y0323601D01*
X0042379Y0326189D01*
X0043779Y0329570D01*
X0043779Y0333230D01*
X0042379Y0336611D01*
X0039791Y0339199D01*
X0036410Y0340599D01*
X0032750Y0340599D01*
X0029369Y0339199D01*
X0026781Y0336611D01*
X0025381Y0333230D01*
X0025381Y0329570D01*
X0026781Y0326189D01*
X0029369Y0323601D01*
X0032750Y0322201D01*
X0036410Y0322201D01*
X0038362Y0323009D02*
X0046649Y0323009D01*
X0047189Y0324250D02*
X0048971Y0324250D01*
X0050230Y0325509D01*
X0050230Y0327291D01*
X0048971Y0328550D01*
X0047189Y0328550D01*
X0045930Y0327291D01*
X0045930Y0325509D01*
X0047189Y0324250D01*
X0046634Y0324805D02*
X0040995Y0324805D01*
X0041593Y0325403D02*
X0046036Y0325403D01*
X0045930Y0326002D02*
X0042192Y0326002D01*
X0042549Y0326601D02*
X0045930Y0326601D01*
X0045930Y0327199D02*
X0042797Y0327199D01*
X0043045Y0327798D02*
X0046437Y0327798D01*
X0047036Y0328396D02*
X0043293Y0328396D01*
X0043541Y0328995D02*
X0053830Y0328995D01*
X0053830Y0329593D02*
X0049314Y0329593D01*
X0048971Y0329250D02*
X0050230Y0330509D01*
X0050230Y0332291D01*
X0048971Y0333550D01*
X0047189Y0333550D01*
X0045930Y0332291D01*
X0045930Y0330509D01*
X0047189Y0329250D01*
X0048971Y0329250D01*
X0049124Y0328396D02*
X0053830Y0328396D01*
X0053830Y0328322D02*
X0055002Y0327150D01*
X0056658Y0327150D01*
X0057830Y0328322D01*
X0057830Y0329978D01*
X0056658Y0331150D01*
X0055002Y0331150D01*
X0053830Y0329978D01*
X0053830Y0328322D01*
X0054354Y0327798D02*
X0049723Y0327798D01*
X0050230Y0327199D02*
X0054953Y0327199D01*
X0056707Y0327199D02*
X0067453Y0327199D01*
X0067502Y0327150D02*
X0069158Y0327150D01*
X0070330Y0328322D01*
X0070330Y0329978D01*
X0069158Y0331150D01*
X0067502Y0331150D01*
X0066330Y0329978D01*
X0066330Y0328322D01*
X0067502Y0327150D01*
X0066854Y0327798D02*
X0057306Y0327798D01*
X0057830Y0328396D02*
X0066330Y0328396D01*
X0066330Y0328995D02*
X0057830Y0328995D01*
X0057830Y0329593D02*
X0066330Y0329593D01*
X0066543Y0330192D02*
X0057617Y0330192D01*
X0057018Y0330790D02*
X0067142Y0330790D01*
X0069518Y0330790D02*
X0079642Y0330790D01*
X0080002Y0331150D02*
X0078830Y0329978D01*
X0078830Y0328322D01*
X0080002Y0327150D01*
X0081658Y0327150D01*
X0082830Y0328322D01*
X0082830Y0329978D01*
X0081658Y0331150D01*
X0080002Y0331150D01*
X0079043Y0330192D02*
X0070117Y0330192D01*
X0070330Y0329593D02*
X0078830Y0329593D01*
X0078830Y0328995D02*
X0070330Y0328995D01*
X0070330Y0328396D02*
X0078830Y0328396D01*
X0079354Y0327798D02*
X0069806Y0327798D01*
X0069207Y0327199D02*
X0079953Y0327199D01*
X0081707Y0327199D02*
X0092453Y0327199D01*
X0092502Y0327150D02*
X0094158Y0327150D01*
X0095330Y0328322D01*
X0095330Y0329978D01*
X0094158Y0331150D01*
X0092502Y0331150D01*
X0091330Y0329978D01*
X0091330Y0328322D01*
X0092502Y0327150D01*
X0091854Y0327798D02*
X0082306Y0327798D01*
X0082830Y0328396D02*
X0091330Y0328396D01*
X0091330Y0328995D02*
X0082830Y0328995D01*
X0082830Y0329593D02*
X0091330Y0329593D01*
X0091543Y0330192D02*
X0082617Y0330192D01*
X0082018Y0330790D02*
X0092142Y0330790D01*
X0094518Y0330790D02*
X0104642Y0330790D01*
X0105002Y0331150D02*
X0103830Y0329978D01*
X0103830Y0328322D01*
X0105002Y0327150D01*
X0106658Y0327150D01*
X0107830Y0328322D01*
X0107830Y0329978D01*
X0106658Y0331150D01*
X0105002Y0331150D01*
X0104043Y0330192D02*
X0095117Y0330192D01*
X0095330Y0329593D02*
X0103830Y0329593D01*
X0103830Y0328995D02*
X0095330Y0328995D01*
X0095330Y0328396D02*
X0103830Y0328396D01*
X0104354Y0327798D02*
X0094806Y0327798D01*
X0094207Y0327199D02*
X0104953Y0327199D01*
X0106707Y0327199D02*
X0117453Y0327199D01*
X0117502Y0327150D02*
X0119158Y0327150D01*
X0119780Y0327772D01*
X0119780Y0326872D01*
X0120952Y0325700D01*
X0122608Y0325700D01*
X0123780Y0326872D01*
X0123780Y0327050D01*
X0124808Y0327050D01*
X0125980Y0328222D01*
X0125980Y0329878D01*
X0124808Y0331050D01*
X0123152Y0331050D01*
X0121980Y0329878D01*
X0121980Y0329700D01*
X0120952Y0329700D01*
X0120330Y0329078D01*
X0120330Y0329978D01*
X0119158Y0331150D01*
X0117502Y0331150D01*
X0116330Y0329978D01*
X0116330Y0328322D01*
X0117502Y0327150D01*
X0116854Y0327798D02*
X0107306Y0327798D01*
X0107830Y0328396D02*
X0116330Y0328396D01*
X0116330Y0328995D02*
X0107830Y0328995D01*
X0107830Y0329593D02*
X0116330Y0329593D01*
X0116543Y0330192D02*
X0107617Y0330192D01*
X0107018Y0330790D02*
X0117142Y0330790D01*
X0119518Y0330790D02*
X0122892Y0330790D01*
X0122293Y0330192D02*
X0120117Y0330192D01*
X0120330Y0329593D02*
X0120845Y0329593D01*
X0119780Y0327199D02*
X0119207Y0327199D01*
X0120051Y0326601D02*
X0050230Y0326601D01*
X0050230Y0326002D02*
X0120650Y0326002D01*
X0122910Y0326002D02*
X0132047Y0326002D01*
X0131449Y0325403D02*
X0050124Y0325403D01*
X0049526Y0324805D02*
X0130850Y0324805D01*
X0130252Y0324206D02*
X0040396Y0324206D01*
X0039798Y0323608D02*
X0129653Y0323608D01*
X0129055Y0323009D02*
X0049511Y0323009D01*
X0050110Y0322411D02*
X0128456Y0322411D01*
X0127858Y0321812D02*
X0050230Y0321812D01*
X0050230Y0321214D02*
X0127259Y0321214D01*
X0126661Y0320615D02*
X0050230Y0320615D01*
X0049737Y0320017D02*
X0114625Y0320017D01*
X0114026Y0319418D02*
X0049139Y0319418D01*
X0049299Y0318221D02*
X0054698Y0318221D01*
X0054099Y0317623D02*
X0049898Y0317623D01*
X0050653Y0317024D02*
X0053830Y0317024D01*
X0053830Y0316426D02*
X0050780Y0316426D01*
X0050780Y0315827D02*
X0053830Y0315827D01*
X0054298Y0315229D02*
X0050780Y0315229D01*
X0050780Y0314630D02*
X0054896Y0314630D01*
X0050780Y0314032D02*
X0126520Y0314032D01*
X0126080Y0314472D02*
X0127252Y0313300D01*
X0128908Y0313300D01*
X0130080Y0314472D01*
X0130080Y0314650D01*
X0131658Y0314650D01*
X0132830Y0315822D01*
X0132830Y0317478D01*
X0131658Y0318650D01*
X0130002Y0318650D01*
X0128830Y0317478D01*
X0128830Y0317300D01*
X0127252Y0317300D01*
X0126080Y0316128D01*
X0126080Y0314472D01*
X0126080Y0314630D02*
X0113764Y0314630D01*
X0114362Y0315229D02*
X0116923Y0315229D01*
X0116330Y0315827D02*
X0114392Y0315827D01*
X0114428Y0316426D02*
X0116330Y0316426D01*
X0116330Y0317024D02*
X0115026Y0317024D01*
X0115625Y0317623D02*
X0116474Y0317623D01*
X0115268Y0318963D02*
X0112393Y0316088D01*
X0115268Y0318963D02*
X0126705Y0318963D01*
X0146455Y0338713D01*
X0147945Y0337374D02*
X0148513Y0337374D01*
X0148430Y0337291D02*
X0148430Y0335509D01*
X0149689Y0334250D01*
X0151471Y0334250D01*
X0152730Y0335509D01*
X0152730Y0337291D01*
X0151471Y0338550D01*
X0149689Y0338550D01*
X0148430Y0337291D01*
X0148430Y0336775D02*
X0147346Y0336775D01*
X0148430Y0336177D02*
X0145616Y0336177D01*
X0145018Y0335578D02*
X0148430Y0335578D01*
X0148960Y0334980D02*
X0144419Y0334980D01*
X0143821Y0334381D02*
X0149558Y0334381D01*
X0149689Y0333550D02*
X0148430Y0332291D01*
X0148430Y0330509D01*
X0149689Y0329250D01*
X0151471Y0329250D01*
X0152730Y0330509D01*
X0152730Y0332291D01*
X0151471Y0333550D01*
X0149689Y0333550D01*
X0149324Y0333184D02*
X0142624Y0333184D01*
X0143222Y0333783D02*
X0155610Y0333783D01*
X0155381Y0333230D02*
X0155381Y0329570D01*
X0156781Y0326189D01*
X0159369Y0323601D01*
X0162750Y0322201D01*
X0166410Y0322201D01*
X0169791Y0323601D01*
X0172379Y0326189D01*
X0173779Y0329570D01*
X0173779Y0333230D01*
X0172379Y0336611D01*
X0169791Y0339199D01*
X0166410Y0340599D01*
X0162750Y0340599D01*
X0159369Y0339199D01*
X0156781Y0336611D01*
X0155381Y0333230D01*
X0155381Y0333184D02*
X0151836Y0333184D01*
X0152435Y0332586D02*
X0155381Y0332586D01*
X0155381Y0331987D02*
X0152730Y0331987D01*
X0152730Y0331389D02*
X0155381Y0331389D01*
X0155381Y0330790D02*
X0152730Y0330790D01*
X0152412Y0330192D02*
X0155381Y0330192D01*
X0155381Y0329593D02*
X0151814Y0329593D01*
X0151471Y0328550D02*
X0152730Y0327291D01*
X0152730Y0325509D01*
X0151471Y0324250D01*
X0149689Y0324250D01*
X0148430Y0325509D01*
X0148430Y0327291D01*
X0149689Y0328550D01*
X0151471Y0328550D01*
X0151624Y0328396D02*
X0155867Y0328396D01*
X0155619Y0328995D02*
X0146564Y0328995D01*
X0147080Y0328478D02*
X0145908Y0329650D01*
X0144252Y0329650D01*
X0143080Y0328478D01*
X0143080Y0326822D01*
X0144252Y0325650D01*
X0145908Y0325650D01*
X0147080Y0326822D01*
X0147080Y0328478D01*
X0147080Y0328396D02*
X0149536Y0328396D01*
X0148937Y0327798D02*
X0147080Y0327798D01*
X0147080Y0327199D02*
X0148430Y0327199D01*
X0148430Y0326601D02*
X0146859Y0326601D01*
X0146260Y0326002D02*
X0148430Y0326002D01*
X0148536Y0325403D02*
X0139630Y0325403D01*
X0139630Y0324805D02*
X0149134Y0324805D01*
X0149689Y0323550D02*
X0148430Y0322291D01*
X0148430Y0320509D01*
X0149689Y0319250D01*
X0151471Y0319250D01*
X0152730Y0320509D01*
X0152730Y0322291D01*
X0151471Y0323550D01*
X0149689Y0323550D01*
X0149149Y0323009D02*
X0132449Y0323009D01*
X0131850Y0322411D02*
X0148550Y0322411D01*
X0148430Y0321812D02*
X0131252Y0321812D01*
X0130653Y0321214D02*
X0148430Y0321214D01*
X0148430Y0320615D02*
X0130055Y0320615D01*
X0129456Y0320017D02*
X0148923Y0320017D01*
X0149521Y0319418D02*
X0137590Y0319418D01*
X0137508Y0319500D02*
X0135852Y0319500D01*
X0134680Y0318328D01*
X0134680Y0316672D01*
X0135852Y0315500D01*
X0137508Y0315500D01*
X0138680Y0316672D01*
X0138680Y0318328D01*
X0137508Y0319500D01*
X0138189Y0318820D02*
X0170154Y0318820D01*
X0171191Y0319418D02*
X0151639Y0319418D01*
X0152237Y0320017D02*
X0172228Y0320017D01*
X0173145Y0320615D02*
X0152730Y0320615D01*
X0152730Y0321214D02*
X0173743Y0321214D01*
X0174342Y0321812D02*
X0152730Y0321812D01*
X0152610Y0322411D02*
X0162243Y0322411D01*
X0160798Y0323009D02*
X0152011Y0323009D01*
X0152026Y0324805D02*
X0158165Y0324805D01*
X0157567Y0325403D02*
X0152624Y0325403D01*
X0152730Y0326002D02*
X0156968Y0326002D01*
X0156611Y0326601D02*
X0152730Y0326601D01*
X0152730Y0327199D02*
X0156363Y0327199D01*
X0156115Y0327798D02*
X0152223Y0327798D01*
X0149346Y0329593D02*
X0145965Y0329593D01*
X0144195Y0329593D02*
X0139033Y0329593D01*
X0139631Y0330192D02*
X0148748Y0330192D01*
X0148430Y0330790D02*
X0140230Y0330790D01*
X0140828Y0331389D02*
X0148430Y0331389D01*
X0148430Y0331987D02*
X0141427Y0331987D01*
X0142025Y0332586D02*
X0148725Y0332586D01*
X0151602Y0334381D02*
X0155858Y0334381D01*
X0156106Y0334980D02*
X0152200Y0334980D01*
X0152730Y0335578D02*
X0156354Y0335578D01*
X0156601Y0336177D02*
X0152730Y0336177D01*
X0152730Y0336775D02*
X0156946Y0336775D01*
X0157544Y0337374D02*
X0152647Y0337374D01*
X0152048Y0337972D02*
X0158143Y0337972D01*
X0158741Y0338571D02*
X0148455Y0338571D01*
X0148455Y0339169D02*
X0159340Y0339169D01*
X0160743Y0339768D02*
X0151988Y0339768D01*
X0152587Y0340366D02*
X0162188Y0340366D01*
X0166972Y0340366D02*
X0174963Y0340366D01*
X0175547Y0339768D02*
X0168417Y0339768D01*
X0169820Y0339169D02*
X0175893Y0339169D01*
X0176239Y0338571D02*
X0170419Y0338571D01*
X0171017Y0337972D02*
X0176584Y0337972D01*
X0176930Y0337374D02*
X0171616Y0337374D01*
X0172214Y0336775D02*
X0177275Y0336775D01*
X0177465Y0336177D02*
X0172559Y0336177D01*
X0172806Y0335578D02*
X0177625Y0335578D01*
X0177785Y0334980D02*
X0173054Y0334980D01*
X0173302Y0334381D02*
X0177946Y0334381D01*
X0178106Y0333783D02*
X0173550Y0333783D01*
X0173779Y0333184D02*
X0178263Y0333184D01*
X0178302Y0332586D02*
X0173779Y0332586D01*
X0173779Y0331987D02*
X0178342Y0331987D01*
X0178379Y0331389D02*
X0173779Y0331389D01*
X0173779Y0330790D02*
X0178340Y0330790D01*
X0178301Y0330192D02*
X0173779Y0330192D01*
X0173779Y0329593D02*
X0178260Y0329593D01*
X0178100Y0328995D02*
X0173541Y0328995D01*
X0173293Y0328396D02*
X0177940Y0328396D01*
X0177779Y0327798D02*
X0173045Y0327798D01*
X0172797Y0327199D02*
X0177619Y0327199D01*
X0177459Y0326601D02*
X0172549Y0326601D01*
X0172192Y0326002D02*
X0177262Y0326002D01*
X0176916Y0325403D02*
X0171593Y0325403D01*
X0170995Y0324805D02*
X0176571Y0324805D01*
X0176225Y0324206D02*
X0170396Y0324206D01*
X0169798Y0323608D02*
X0175880Y0323608D01*
X0175534Y0323009D02*
X0168362Y0323009D01*
X0166917Y0322411D02*
X0174940Y0322411D01*
X0175528Y0322999D02*
X0175528Y0322999D01*
X0168260Y0318221D02*
X0151799Y0318221D01*
X0152398Y0317623D02*
X0164929Y0317623D01*
X0159362Y0323608D02*
X0138816Y0323608D01*
X0138458Y0323250D02*
X0139630Y0324422D01*
X0139630Y0326078D01*
X0138458Y0327250D01*
X0136802Y0327250D01*
X0135630Y0326078D01*
X0135630Y0324422D01*
X0136802Y0323250D01*
X0138458Y0323250D01*
X0139415Y0324206D02*
X0158764Y0324206D01*
X0149361Y0318221D02*
X0144337Y0318221D01*
X0144158Y0318400D02*
X0142502Y0318400D01*
X0141330Y0317228D01*
X0141330Y0315572D01*
X0142502Y0314400D01*
X0144158Y0314400D01*
X0145330Y0315572D01*
X0145330Y0317228D01*
X0144158Y0318400D01*
X0144936Y0317623D02*
X0148762Y0317623D01*
X0148430Y0317024D02*
X0145330Y0317024D01*
X0145330Y0316426D02*
X0148380Y0316426D01*
X0148380Y0315827D02*
X0145330Y0315827D01*
X0144987Y0315229D02*
X0148380Y0315229D01*
X0148380Y0314630D02*
X0144389Y0314630D01*
X0142271Y0314630D02*
X0137678Y0314630D01*
X0137608Y0314700D02*
X0135952Y0314700D01*
X0134780Y0313528D01*
X0134780Y0311872D01*
X0135952Y0310700D01*
X0137608Y0310700D01*
X0138780Y0311872D01*
X0138780Y0313528D01*
X0137608Y0314700D01*
X0138277Y0314032D02*
X0148380Y0314032D01*
X0148380Y0313433D02*
X0138780Y0313433D01*
X0138780Y0312835D02*
X0148380Y0312835D01*
X0148380Y0312236D02*
X0138780Y0312236D01*
X0138546Y0311638D02*
X0148380Y0311638D01*
X0148380Y0311039D02*
X0137948Y0311039D01*
X0135612Y0311039D02*
X0050780Y0311039D01*
X0050780Y0310441D02*
X0148380Y0310441D01*
X0148380Y0309842D02*
X0050780Y0309842D01*
X0050780Y0309244D02*
X0148380Y0309244D01*
X0148380Y0308645D02*
X0050780Y0308645D01*
X0050780Y0308047D02*
X0148380Y0308047D01*
X0148380Y0307448D02*
X0050780Y0307448D01*
X0050780Y0306850D02*
X0148380Y0306850D01*
X0148380Y0301463D02*
X0050780Y0301463D01*
X0050780Y0300865D02*
X0148380Y0300865D01*
X0148380Y0300266D02*
X0050780Y0300266D01*
X0050780Y0299668D02*
X0148380Y0299668D01*
X0148380Y0299069D02*
X0050780Y0299069D01*
X0050780Y0298470D02*
X0148380Y0298470D01*
X0148380Y0297872D02*
X0050780Y0297872D01*
X0050780Y0297273D02*
X0148380Y0297273D01*
X0148380Y0296675D02*
X0050780Y0296675D01*
X0050780Y0296076D02*
X0148380Y0296076D01*
X0148380Y0295478D02*
X0050780Y0295478D01*
X0050780Y0294879D02*
X0148380Y0294879D01*
X0148380Y0294281D02*
X0050780Y0294281D01*
X0050780Y0293682D02*
X0148380Y0293682D01*
X0148380Y0293084D02*
X0132225Y0293084D01*
X0131658Y0293650D02*
X0132830Y0292478D01*
X0132830Y0290822D01*
X0131658Y0289650D01*
X0130002Y0289650D01*
X0128830Y0290822D01*
X0128830Y0292478D01*
X0130002Y0293650D01*
X0131658Y0293650D01*
X0132823Y0292485D02*
X0148380Y0292485D01*
X0148380Y0291887D02*
X0132830Y0291887D01*
X0132830Y0291288D02*
X0148380Y0291288D01*
X0148380Y0290690D02*
X0132698Y0290690D01*
X0132100Y0290091D02*
X0148380Y0290091D01*
X0152849Y0275129D02*
X0165670Y0275129D01*
X0129560Y0290091D02*
X0119600Y0290091D01*
X0119158Y0289650D02*
X0120330Y0290822D01*
X0120330Y0292478D01*
X0119158Y0293650D01*
X0117502Y0293650D01*
X0116330Y0292478D01*
X0116330Y0290822D01*
X0117502Y0289650D01*
X0119158Y0289650D01*
X0120198Y0290690D02*
X0128962Y0290690D01*
X0128830Y0291288D02*
X0120330Y0291288D01*
X0120330Y0291887D02*
X0128830Y0291887D01*
X0128837Y0292485D02*
X0120323Y0292485D01*
X0119725Y0293084D02*
X0129435Y0293084D01*
X0129492Y0302660D02*
X0119668Y0302660D01*
X0119158Y0302150D02*
X0120330Y0303322D01*
X0120330Y0304978D01*
X0119158Y0306150D01*
X0117502Y0306150D01*
X0116330Y0304978D01*
X0116330Y0303322D01*
X0117502Y0302150D01*
X0119158Y0302150D01*
X0120267Y0303259D02*
X0128893Y0303259D01*
X0128830Y0303857D02*
X0120330Y0303857D01*
X0120330Y0304456D02*
X0128830Y0304456D01*
X0128906Y0305054D02*
X0120254Y0305054D01*
X0119656Y0305653D02*
X0129504Y0305653D01*
X0135014Y0311638D02*
X0050780Y0311638D01*
X0050780Y0312236D02*
X0134780Y0312236D01*
X0134780Y0312835D02*
X0050780Y0312835D01*
X0050780Y0313433D02*
X0127118Y0313433D01*
X0129042Y0313433D02*
X0134780Y0313433D01*
X0135283Y0314032D02*
X0129640Y0314032D01*
X0130080Y0314630D02*
X0135882Y0314630D01*
X0135524Y0315827D02*
X0132830Y0315827D01*
X0132830Y0316426D02*
X0134926Y0316426D01*
X0134680Y0317024D02*
X0132830Y0317024D01*
X0132686Y0317623D02*
X0134680Y0317623D01*
X0134680Y0318221D02*
X0132087Y0318221D01*
X0129573Y0318221D02*
X0127661Y0318221D01*
X0128259Y0318820D02*
X0135171Y0318820D01*
X0135770Y0319418D02*
X0128858Y0319418D01*
X0128974Y0317623D02*
X0120186Y0317623D01*
X0120330Y0317024D02*
X0126976Y0317024D01*
X0126377Y0316426D02*
X0120330Y0316426D01*
X0120330Y0315827D02*
X0126080Y0315827D01*
X0126080Y0315229D02*
X0119737Y0315229D01*
X0117004Y0305653D02*
X0107156Y0305653D01*
X0106658Y0306150D02*
X0107830Y0304978D01*
X0107830Y0303322D01*
X0106658Y0302150D01*
X0105002Y0302150D01*
X0103830Y0303322D01*
X0103830Y0304978D01*
X0105002Y0306150D01*
X0106658Y0306150D01*
X0107754Y0305054D02*
X0116406Y0305054D01*
X0116330Y0304456D02*
X0107830Y0304456D01*
X0107830Y0303857D02*
X0116330Y0303857D01*
X0116393Y0303259D02*
X0107767Y0303259D01*
X0107168Y0302660D02*
X0116992Y0302660D01*
X0116935Y0293084D02*
X0107225Y0293084D01*
X0106658Y0293650D02*
X0107830Y0292478D01*
X0107830Y0290822D01*
X0106658Y0289650D01*
X0105002Y0289650D01*
X0103830Y0290822D01*
X0103830Y0292478D01*
X0105002Y0293650D01*
X0106658Y0293650D01*
X0107823Y0292485D02*
X0116337Y0292485D01*
X0116330Y0291887D02*
X0107830Y0291887D01*
X0107830Y0291288D02*
X0116330Y0291288D01*
X0116462Y0290690D02*
X0107698Y0290690D01*
X0107100Y0290091D02*
X0117060Y0290091D01*
X0104560Y0290091D02*
X0094662Y0290091D01*
X0095261Y0290690D02*
X0103962Y0290690D01*
X0103830Y0291288D02*
X0095330Y0291288D01*
X0095330Y0291887D02*
X0103830Y0291887D01*
X0103837Y0292485D02*
X0095261Y0292485D01*
X0094662Y0293084D02*
X0104435Y0293084D01*
X0104492Y0302660D02*
X0094668Y0302660D01*
X0094158Y0302150D02*
X0095330Y0303322D01*
X0095330Y0304978D01*
X0094158Y0306150D01*
X0092502Y0306150D01*
X0091330Y0304978D01*
X0091330Y0303322D01*
X0092502Y0302150D01*
X0094158Y0302150D01*
X0095267Y0303259D02*
X0103893Y0303259D01*
X0103830Y0303857D02*
X0095330Y0303857D01*
X0095330Y0304456D02*
X0103830Y0304456D01*
X0103906Y0305054D02*
X0095254Y0305054D01*
X0094656Y0305653D02*
X0104504Y0305653D01*
X0104423Y0315229D02*
X0094737Y0315229D01*
X0094158Y0314650D02*
X0095330Y0315822D01*
X0095330Y0317478D01*
X0094158Y0318650D01*
X0092502Y0318650D01*
X0091330Y0317478D01*
X0091330Y0315822D01*
X0092502Y0314650D01*
X0094158Y0314650D01*
X0095330Y0315827D02*
X0103830Y0315827D01*
X0103830Y0316426D02*
X0095330Y0316426D01*
X0095330Y0317024D02*
X0103830Y0317024D01*
X0103974Y0317623D02*
X0095186Y0317623D01*
X0094587Y0318221D02*
X0104573Y0318221D01*
X0092073Y0318221D02*
X0082087Y0318221D01*
X0082686Y0317623D02*
X0091474Y0317623D01*
X0091330Y0317024D02*
X0082830Y0317024D01*
X0082830Y0316426D02*
X0091330Y0316426D01*
X0091330Y0315827D02*
X0082830Y0315827D01*
X0082237Y0315229D02*
X0091923Y0315229D01*
X0092004Y0305653D02*
X0082156Y0305653D01*
X0082754Y0305054D02*
X0091406Y0305054D01*
X0091330Y0304456D02*
X0082830Y0304456D01*
X0082830Y0303857D02*
X0091330Y0303857D01*
X0091393Y0303259D02*
X0082767Y0303259D01*
X0082168Y0302660D02*
X0091992Y0302660D01*
X0123509Y0326601D02*
X0132646Y0326601D01*
X0133245Y0327199D02*
X0124957Y0327199D01*
X0125556Y0327798D02*
X0129479Y0327798D01*
X0130002Y0327275D02*
X0131658Y0327275D01*
X0132830Y0328447D01*
X0132830Y0330103D01*
X0131658Y0331275D01*
X0130002Y0331275D01*
X0128830Y0330103D01*
X0128830Y0328447D01*
X0130002Y0327275D01*
X0128881Y0328396D02*
X0125980Y0328396D01*
X0125980Y0328995D02*
X0128830Y0328995D01*
X0128830Y0329593D02*
X0125980Y0329593D01*
X0125667Y0330192D02*
X0128918Y0330192D01*
X0129517Y0330790D02*
X0125068Y0330790D01*
X0132143Y0330790D02*
X0136836Y0330790D01*
X0137434Y0331389D02*
X0050230Y0331389D01*
X0050230Y0331987D02*
X0138033Y0331987D01*
X0138631Y0332586D02*
X0049935Y0332586D01*
X0049336Y0333184D02*
X0139230Y0333184D01*
X0139828Y0333783D02*
X0043550Y0333783D01*
X0043779Y0333184D02*
X0046824Y0333184D01*
X0046225Y0332586D02*
X0043779Y0332586D01*
X0043779Y0331987D02*
X0045930Y0331987D01*
X0045930Y0331389D02*
X0043779Y0331389D01*
X0043779Y0330790D02*
X0045930Y0330790D01*
X0046248Y0330192D02*
X0043779Y0330192D01*
X0043779Y0329593D02*
X0046846Y0329593D01*
X0049912Y0330192D02*
X0054043Y0330192D01*
X0054642Y0330790D02*
X0050230Y0330790D01*
X0048971Y0334250D02*
X0050230Y0335509D01*
X0050230Y0337291D01*
X0048971Y0338550D01*
X0047189Y0338550D01*
X0045930Y0337291D01*
X0045930Y0335509D01*
X0047189Y0334250D01*
X0048971Y0334250D01*
X0049102Y0334381D02*
X0140427Y0334381D01*
X0141025Y0334980D02*
X0049700Y0334980D01*
X0050230Y0335578D02*
X0141624Y0335578D01*
X0142222Y0336177D02*
X0126535Y0336177D01*
X0126058Y0335700D02*
X0127230Y0336872D01*
X0127230Y0338050D01*
X0128558Y0338050D01*
X0129730Y0339222D01*
X0129730Y0339922D01*
X0130002Y0339650D01*
X0131658Y0339650D01*
X0132830Y0340822D01*
X0132830Y0342478D01*
X0131658Y0343650D01*
X0130002Y0343650D01*
X0128830Y0342478D01*
X0128830Y0341778D01*
X0128558Y0342050D01*
X0127380Y0342050D01*
X0127380Y0342278D01*
X0126208Y0343450D01*
X0124552Y0343450D01*
X0123380Y0342278D01*
X0123380Y0341650D01*
X0122752Y0341650D01*
X0122530Y0341428D01*
X0121808Y0342150D01*
X0120330Y0342150D01*
X0120330Y0342353D01*
X0119158Y0343525D01*
X0117502Y0343525D01*
X0116330Y0342353D01*
X0116330Y0340697D01*
X0117502Y0339525D01*
X0118980Y0339525D01*
X0118980Y0339322D01*
X0120152Y0338150D01*
X0121808Y0338150D01*
X0122030Y0338372D01*
X0122752Y0337650D01*
X0123230Y0337650D01*
X0123230Y0336872D01*
X0124402Y0335700D01*
X0126058Y0335700D01*
X0127134Y0336775D02*
X0142821Y0336775D01*
X0143419Y0337374D02*
X0127230Y0337374D01*
X0127230Y0337972D02*
X0144018Y0337972D01*
X0144455Y0338571D02*
X0129079Y0338571D01*
X0129678Y0339169D02*
X0144455Y0339169D01*
X0144376Y0339768D02*
X0144682Y0339768D01*
X0142284Y0339768D02*
X0131776Y0339768D01*
X0132375Y0340366D02*
X0141685Y0340366D01*
X0141330Y0340965D02*
X0132830Y0340965D01*
X0132830Y0341563D02*
X0141330Y0341563D01*
X0141330Y0342162D02*
X0132830Y0342162D01*
X0132548Y0342760D02*
X0141712Y0342760D01*
X0142310Y0343359D02*
X0131950Y0343359D01*
X0129710Y0343359D02*
X0126300Y0343359D01*
X0126898Y0342760D02*
X0129112Y0342760D01*
X0128830Y0342162D02*
X0127380Y0342162D01*
X0124460Y0343359D02*
X0119325Y0343359D01*
X0119923Y0342760D02*
X0123862Y0342760D01*
X0123380Y0342162D02*
X0120330Y0342162D01*
X0122395Y0341563D02*
X0122665Y0341563D01*
X0122429Y0337972D02*
X0113930Y0337972D01*
X0113930Y0337374D02*
X0123230Y0337374D01*
X0123326Y0336775D02*
X0113734Y0336775D01*
X0113930Y0336972D02*
X0112758Y0335800D01*
X0111102Y0335800D01*
X0109930Y0336972D01*
X0109930Y0338628D01*
X0111102Y0339800D01*
X0112758Y0339800D01*
X0113930Y0338628D01*
X0113930Y0336972D01*
X0113135Y0336177D02*
X0123925Y0336177D01*
X0119731Y0338571D02*
X0113930Y0338571D01*
X0113389Y0339169D02*
X0119132Y0339169D01*
X0117259Y0339768D02*
X0112791Y0339768D01*
X0111069Y0339768D02*
X0069401Y0339768D01*
X0069158Y0339525D02*
X0070330Y0340697D01*
X0070330Y0342353D01*
X0069158Y0343525D01*
X0067502Y0343525D01*
X0066330Y0342353D01*
X0066330Y0340697D01*
X0067502Y0339525D01*
X0069158Y0339525D01*
X0070000Y0340366D02*
X0116660Y0340366D01*
X0116330Y0340965D02*
X0070330Y0340965D01*
X0070330Y0341563D02*
X0116330Y0341563D01*
X0116330Y0342162D02*
X0070330Y0342162D01*
X0069923Y0342760D02*
X0116737Y0342760D01*
X0117335Y0343359D02*
X0069325Y0343359D01*
X0067335Y0343359D02*
X0056825Y0343359D01*
X0056658Y0343525D02*
X0055002Y0343525D01*
X0053830Y0342353D01*
X0053830Y0340697D01*
X0055002Y0339525D01*
X0056658Y0339525D01*
X0057830Y0340697D01*
X0057830Y0342353D01*
X0056658Y0343525D01*
X0057423Y0342760D02*
X0066737Y0342760D01*
X0066330Y0342162D02*
X0057830Y0342162D01*
X0057830Y0341563D02*
X0066330Y0341563D01*
X0066330Y0340965D02*
X0057830Y0340965D01*
X0057500Y0340366D02*
X0066660Y0340366D01*
X0067259Y0339768D02*
X0056901Y0339768D01*
X0054759Y0339768D02*
X0049488Y0339768D01*
X0048971Y0339250D02*
X0050230Y0340509D01*
X0050230Y0342291D01*
X0048971Y0343550D01*
X0047189Y0343550D01*
X0045930Y0342291D01*
X0045930Y0340509D01*
X0047189Y0339250D01*
X0048971Y0339250D01*
X0049548Y0337972D02*
X0109930Y0337972D01*
X0109930Y0337374D02*
X0050147Y0337374D01*
X0050230Y0336775D02*
X0110126Y0336775D01*
X0110725Y0336177D02*
X0050230Y0336177D01*
X0047058Y0334381D02*
X0043302Y0334381D01*
X0043054Y0334980D02*
X0046460Y0334980D01*
X0045930Y0335578D02*
X0042806Y0335578D01*
X0042559Y0336177D02*
X0045930Y0336177D01*
X0045930Y0336775D02*
X0042214Y0336775D01*
X0041616Y0337374D02*
X0046013Y0337374D01*
X0046612Y0337972D02*
X0041017Y0337972D01*
X0040419Y0338571D02*
X0109930Y0338571D01*
X0110471Y0339169D02*
X0039820Y0339169D01*
X0038417Y0339768D02*
X0046672Y0339768D01*
X0046073Y0340366D02*
X0036972Y0340366D01*
X0032188Y0340366D02*
X0024197Y0340366D01*
X0023613Y0339768D02*
X0030743Y0339768D01*
X0029340Y0339169D02*
X0023267Y0339169D01*
X0022921Y0338571D02*
X0028741Y0338571D01*
X0028143Y0337972D02*
X0022576Y0337972D01*
X0022230Y0337374D02*
X0027544Y0337374D01*
X0026946Y0336775D02*
X0021885Y0336775D01*
X0021695Y0336177D02*
X0026601Y0336177D01*
X0026354Y0335578D02*
X0021535Y0335578D01*
X0021375Y0334980D02*
X0026106Y0334980D01*
X0025858Y0334381D02*
X0021214Y0334381D01*
X0021054Y0333783D02*
X0025610Y0333783D01*
X0025381Y0333184D02*
X0020897Y0333184D01*
X0020858Y0332586D02*
X0025381Y0332586D01*
X0025381Y0331987D02*
X0020818Y0331987D01*
X0020781Y0331389D02*
X0025381Y0331389D01*
X0025381Y0330790D02*
X0020820Y0330790D01*
X0020859Y0330192D02*
X0025381Y0330192D01*
X0025381Y0329593D02*
X0020900Y0329593D01*
X0021060Y0328995D02*
X0025619Y0328995D01*
X0025867Y0328396D02*
X0021220Y0328396D01*
X0021381Y0327798D02*
X0026115Y0327798D01*
X0026363Y0327199D02*
X0021541Y0327199D01*
X0021701Y0326601D02*
X0026611Y0326601D01*
X0026968Y0326002D02*
X0021898Y0326002D01*
X0022244Y0325403D02*
X0027567Y0325403D01*
X0028165Y0324805D02*
X0022589Y0324805D01*
X0022935Y0324206D02*
X0028764Y0324206D01*
X0029362Y0323608D02*
X0023280Y0323608D01*
X0023626Y0323009D02*
X0030798Y0323009D01*
X0032243Y0322411D02*
X0024220Y0322411D01*
X0024796Y0340965D02*
X0045930Y0340965D01*
X0045930Y0341563D02*
X0025394Y0341563D01*
X0025993Y0342162D02*
X0045930Y0342162D01*
X0046400Y0342760D02*
X0026893Y0342760D01*
X0027929Y0343359D02*
X0046998Y0343359D01*
X0046884Y0344556D02*
X0030815Y0344556D01*
X0028966Y0343957D02*
X0170194Y0343957D01*
X0171231Y0343359D02*
X0151662Y0343359D01*
X0152260Y0342760D02*
X0172267Y0342760D01*
X0173167Y0342162D02*
X0152730Y0342162D01*
X0152730Y0341563D02*
X0173766Y0341563D01*
X0174364Y0340965D02*
X0152730Y0340965D01*
X0151776Y0344556D02*
X0168345Y0344556D01*
X0165276Y0345154D02*
X0152375Y0345154D01*
X0149384Y0344556D02*
X0049276Y0344556D01*
X0049875Y0345154D02*
X0148785Y0345154D01*
X0149498Y0343359D02*
X0147450Y0343359D01*
X0148048Y0342760D02*
X0148900Y0342760D01*
X0148573Y0340366D02*
X0148125Y0340366D01*
X0148228Y0339768D02*
X0149172Y0339768D01*
X0149112Y0337972D02*
X0148455Y0337972D01*
X0145460Y0343359D02*
X0144350Y0343359D01*
X0129884Y0339768D02*
X0129730Y0339768D01*
X0132742Y0330192D02*
X0136237Y0330192D01*
X0135639Y0329593D02*
X0132830Y0329593D01*
X0132830Y0328995D02*
X0135040Y0328995D01*
X0134442Y0328396D02*
X0132779Y0328396D01*
X0132181Y0327798D02*
X0133843Y0327798D01*
X0135442Y0326002D02*
X0135630Y0326002D01*
X0135630Y0325403D02*
X0134843Y0325403D01*
X0134245Y0324805D02*
X0135630Y0324805D01*
X0135845Y0324206D02*
X0133646Y0324206D01*
X0133048Y0323608D02*
X0136444Y0323608D01*
X0136152Y0326601D02*
X0136040Y0326601D01*
X0136639Y0327199D02*
X0136751Y0327199D01*
X0137237Y0327798D02*
X0143080Y0327798D01*
X0143080Y0328396D02*
X0137836Y0328396D01*
X0138434Y0328995D02*
X0143596Y0328995D01*
X0143080Y0327199D02*
X0138509Y0327199D01*
X0139108Y0326601D02*
X0143301Y0326601D01*
X0143900Y0326002D02*
X0139630Y0326002D01*
X0138680Y0318221D02*
X0142323Y0318221D01*
X0141724Y0317623D02*
X0138680Y0317623D01*
X0138680Y0317024D02*
X0141330Y0317024D01*
X0141330Y0316426D02*
X0138434Y0316426D01*
X0137836Y0315827D02*
X0141330Y0315827D01*
X0141673Y0315229D02*
X0132237Y0315229D01*
X0054160Y0340366D02*
X0050087Y0340366D01*
X0050230Y0340965D02*
X0053830Y0340965D01*
X0053830Y0341563D02*
X0050230Y0341563D01*
X0050230Y0342162D02*
X0053830Y0342162D01*
X0054237Y0342760D02*
X0049760Y0342760D01*
X0049162Y0343359D02*
X0054835Y0343359D01*
X0046285Y0345154D02*
X0033884Y0345154D01*
X0033490Y0275129D02*
X0046311Y0275129D01*
X0030860Y0252984D02*
X0023647Y0252984D01*
M02*
