G75*
%MOIN*%
%OFA0B0*%
%FSLAX25Y25*%
%IPPOS*%
%LPD*%
%AMOC8*
5,1,8,0,0,1.08239X$1,22.5*
%
%ADD10R,0.02756X0.01575*%
%ADD11C,0.25000*%
%ADD12C,0.02500*%
%ADD13C,0.00800*%
%ADD14C,0.02378*%
%ADD15C,0.00600*%
%ADD16C,0.00700*%
D10*
X0052484Y0249500D03*
X0052484Y0252650D03*
X0052484Y0255800D03*
X0052484Y0262000D03*
X0052484Y0265150D03*
X0052484Y0268300D03*
X0052484Y0274500D03*
X0052484Y0277650D03*
X0052484Y0280800D03*
X0052484Y0287000D03*
X0052484Y0290150D03*
X0052484Y0293300D03*
X0052484Y0299500D03*
X0052484Y0302650D03*
X0052484Y0305800D03*
X0052484Y0312000D03*
X0052484Y0315150D03*
X0052484Y0318300D03*
X0052484Y0324500D03*
X0052484Y0327650D03*
X0052484Y0330800D03*
X0052484Y0337000D03*
X0052484Y0340150D03*
X0052484Y0343300D03*
X0059176Y0343300D03*
X0059176Y0340150D03*
X0059176Y0337000D03*
X0064984Y0337000D03*
X0064984Y0340150D03*
X0064984Y0343300D03*
X0071676Y0343300D03*
X0071676Y0340150D03*
X0071676Y0337000D03*
X0077484Y0337000D03*
X0077484Y0340150D03*
X0077484Y0343300D03*
X0084176Y0343300D03*
X0084176Y0340150D03*
X0084176Y0337000D03*
X0089984Y0337000D03*
X0089984Y0340150D03*
X0089984Y0343300D03*
X0096676Y0343300D03*
X0096676Y0340150D03*
X0096676Y0337000D03*
X0102484Y0337000D03*
X0102484Y0340150D03*
X0102484Y0343300D03*
X0109176Y0343300D03*
X0109176Y0340150D03*
X0109176Y0337000D03*
X0114984Y0337000D03*
X0114984Y0340150D03*
X0114984Y0343300D03*
X0121676Y0343300D03*
X0121676Y0340150D03*
X0121676Y0337000D03*
X0127484Y0337000D03*
X0127484Y0340150D03*
X0127484Y0343300D03*
X0134176Y0343300D03*
X0134176Y0340150D03*
X0134176Y0337000D03*
X0139984Y0337000D03*
X0139984Y0340150D03*
X0139984Y0343300D03*
X0146676Y0343300D03*
X0146676Y0340150D03*
X0146676Y0337000D03*
X0146676Y0330800D03*
X0146676Y0327650D03*
X0146676Y0324500D03*
X0139984Y0324500D03*
X0139984Y0327650D03*
X0139984Y0330800D03*
X0134176Y0330800D03*
X0134176Y0327650D03*
X0134176Y0324500D03*
X0134176Y0318300D03*
X0134176Y0315150D03*
X0134176Y0312000D03*
X0139984Y0312000D03*
X0139984Y0315150D03*
X0139984Y0318300D03*
X0146676Y0318300D03*
X0146676Y0315150D03*
X0146676Y0312000D03*
X0146676Y0305800D03*
X0146676Y0302650D03*
X0146676Y0299500D03*
X0146676Y0293300D03*
X0146676Y0290150D03*
X0146676Y0287000D03*
X0139984Y0287000D03*
X0139984Y0290150D03*
X0139984Y0293300D03*
X0134176Y0293300D03*
X0134176Y0290150D03*
X0134176Y0287000D03*
X0134176Y0280800D03*
X0134176Y0277650D03*
X0134176Y0274500D03*
X0139984Y0274500D03*
X0139984Y0277650D03*
X0139984Y0280800D03*
X0146676Y0280800D03*
X0146676Y0277650D03*
X0146676Y0274500D03*
X0146676Y0268300D03*
X0146676Y0265150D03*
X0146676Y0262000D03*
X0146676Y0255800D03*
X0146676Y0252650D03*
X0146676Y0249500D03*
X0139984Y0249500D03*
X0139984Y0252650D03*
X0139984Y0255800D03*
X0134176Y0255800D03*
X0134176Y0252650D03*
X0134176Y0249500D03*
X0127484Y0249500D03*
X0127484Y0252650D03*
X0127484Y0255800D03*
X0121676Y0255800D03*
X0121676Y0252650D03*
X0121676Y0249500D03*
X0114984Y0249500D03*
X0114984Y0252650D03*
X0114984Y0255800D03*
X0109176Y0255800D03*
X0109176Y0252650D03*
X0109176Y0249500D03*
X0102484Y0249500D03*
X0102484Y0252650D03*
X0102484Y0255800D03*
X0096676Y0255800D03*
X0096676Y0252650D03*
X0096676Y0249500D03*
X0089984Y0249500D03*
X0089984Y0252650D03*
X0089984Y0255800D03*
X0089984Y0262000D03*
X0089984Y0265150D03*
X0089984Y0268300D03*
X0096676Y0268300D03*
X0096676Y0265150D03*
X0096676Y0262000D03*
X0102484Y0262000D03*
X0102484Y0265150D03*
X0102484Y0268300D03*
X0102484Y0274500D03*
X0102484Y0277650D03*
X0102484Y0280800D03*
X0096676Y0280800D03*
X0096676Y0277650D03*
X0096676Y0274500D03*
X0089984Y0274500D03*
X0089984Y0277650D03*
X0089984Y0280800D03*
X0084176Y0280800D03*
X0084176Y0277650D03*
X0084176Y0274500D03*
X0077484Y0274500D03*
X0077484Y0277650D03*
X0077484Y0280800D03*
X0071676Y0280800D03*
X0071676Y0277650D03*
X0071676Y0274500D03*
X0071676Y0268300D03*
X0071676Y0265150D03*
X0071676Y0262000D03*
X0077484Y0262000D03*
X0077484Y0265150D03*
X0077484Y0268300D03*
X0084176Y0268300D03*
X0084176Y0265150D03*
X0084176Y0262000D03*
X0084176Y0255800D03*
X0084176Y0252650D03*
X0084176Y0249500D03*
X0077484Y0249500D03*
X0077484Y0252650D03*
X0077484Y0255800D03*
X0071676Y0255800D03*
X0071676Y0252650D03*
X0071676Y0249500D03*
X0064984Y0249500D03*
X0064984Y0252650D03*
X0064984Y0255800D03*
X0059176Y0255800D03*
X0059176Y0252650D03*
X0059176Y0249500D03*
X0059176Y0262000D03*
X0059176Y0265150D03*
X0059176Y0268300D03*
X0064984Y0268300D03*
X0064984Y0265150D03*
X0064984Y0262000D03*
X0064984Y0274500D03*
X0064984Y0277650D03*
X0064984Y0280800D03*
X0059176Y0280800D03*
X0059176Y0277650D03*
X0059176Y0274500D03*
X0059176Y0287000D03*
X0059176Y0290150D03*
X0059176Y0293300D03*
X0064984Y0293300D03*
X0064984Y0290150D03*
X0064984Y0287000D03*
X0071676Y0287000D03*
X0071676Y0290150D03*
X0071676Y0293300D03*
X0077484Y0293300D03*
X0077484Y0290150D03*
X0077484Y0287000D03*
X0084176Y0287000D03*
X0084176Y0290150D03*
X0084176Y0293300D03*
X0084176Y0299500D03*
X0084176Y0302650D03*
X0084176Y0305800D03*
X0084176Y0312000D03*
X0084176Y0315150D03*
X0084176Y0318300D03*
X0077484Y0318300D03*
X0077484Y0315150D03*
X0077484Y0312000D03*
X0071676Y0312000D03*
X0071676Y0315150D03*
X0071676Y0318300D03*
X0071676Y0324500D03*
X0071676Y0327650D03*
X0071676Y0330800D03*
X0077484Y0330800D03*
X0077484Y0327650D03*
X0077484Y0324500D03*
X0084176Y0324500D03*
X0084176Y0327650D03*
X0084176Y0330800D03*
X0089984Y0330800D03*
X0089984Y0327650D03*
X0089984Y0324500D03*
X0096676Y0324500D03*
X0096676Y0327650D03*
X0096676Y0330800D03*
X0102484Y0330800D03*
X0102484Y0327650D03*
X0102484Y0324500D03*
X0102484Y0318300D03*
X0102484Y0315150D03*
X0102484Y0312000D03*
X0096676Y0312000D03*
X0096676Y0315150D03*
X0096676Y0318300D03*
X0089984Y0318300D03*
X0089984Y0315150D03*
X0089984Y0312000D03*
X0089984Y0305800D03*
X0089984Y0302650D03*
X0089984Y0299500D03*
X0089984Y0293300D03*
X0089984Y0290150D03*
X0089984Y0287000D03*
X0096676Y0287000D03*
X0096676Y0290150D03*
X0096676Y0293300D03*
X0102484Y0293300D03*
X0102484Y0290150D03*
X0102484Y0287000D03*
X0109176Y0287000D03*
X0109176Y0290150D03*
X0109176Y0293300D03*
X0114984Y0293300D03*
X0114984Y0290150D03*
X0114984Y0287000D03*
X0114984Y0280800D03*
X0114984Y0277650D03*
X0114984Y0274500D03*
X0109176Y0274500D03*
X0109176Y0277650D03*
X0109176Y0280800D03*
X0109176Y0268300D03*
X0109176Y0265150D03*
X0109176Y0262000D03*
X0114984Y0262000D03*
X0114984Y0265150D03*
X0114984Y0268300D03*
X0121676Y0268300D03*
X0121676Y0265150D03*
X0121676Y0262000D03*
X0127484Y0262000D03*
X0127484Y0265150D03*
X0127484Y0268300D03*
X0127484Y0274500D03*
X0127484Y0277650D03*
X0127484Y0280800D03*
X0121676Y0280800D03*
X0121676Y0277650D03*
X0121676Y0274500D03*
X0121676Y0287000D03*
X0121676Y0290150D03*
X0121676Y0293300D03*
X0127484Y0293300D03*
X0127484Y0290150D03*
X0127484Y0287000D03*
X0127484Y0299500D03*
X0127484Y0302650D03*
X0127484Y0305800D03*
X0121676Y0305800D03*
X0121676Y0302650D03*
X0121676Y0299500D03*
X0114984Y0299500D03*
X0114984Y0302650D03*
X0114984Y0305800D03*
X0109176Y0305800D03*
X0109176Y0302650D03*
X0109176Y0299500D03*
X0102484Y0299500D03*
X0102484Y0302650D03*
X0102484Y0305800D03*
X0096676Y0305800D03*
X0096676Y0302650D03*
X0096676Y0299500D03*
X0109176Y0312000D03*
X0109176Y0315150D03*
X0109176Y0318300D03*
X0114984Y0318300D03*
X0114984Y0315150D03*
X0114984Y0312000D03*
X0121676Y0312000D03*
X0121676Y0315150D03*
X0121676Y0318300D03*
X0127484Y0318300D03*
X0127484Y0315150D03*
X0127484Y0312000D03*
X0134176Y0305800D03*
X0134176Y0302650D03*
X0134176Y0299500D03*
X0139984Y0299500D03*
X0139984Y0302650D03*
X0139984Y0305800D03*
X0127484Y0324500D03*
X0127484Y0327650D03*
X0127484Y0330800D03*
X0121676Y0330800D03*
X0121676Y0327650D03*
X0121676Y0324500D03*
X0114984Y0324500D03*
X0114984Y0327650D03*
X0114984Y0330800D03*
X0109176Y0330800D03*
X0109176Y0327650D03*
X0109176Y0324500D03*
X0077484Y0305800D03*
X0077484Y0302650D03*
X0077484Y0299500D03*
X0071676Y0299500D03*
X0071676Y0302650D03*
X0071676Y0305800D03*
X0064984Y0305800D03*
X0064984Y0302650D03*
X0064984Y0299500D03*
X0059176Y0299500D03*
X0059176Y0302650D03*
X0059176Y0305800D03*
X0059176Y0312000D03*
X0059176Y0315150D03*
X0059176Y0318300D03*
X0064984Y0318300D03*
X0064984Y0315150D03*
X0064984Y0312000D03*
X0064984Y0324500D03*
X0064984Y0327650D03*
X0064984Y0330800D03*
X0059176Y0330800D03*
X0059176Y0327650D03*
X0059176Y0324500D03*
X0134176Y0268300D03*
X0134176Y0265150D03*
X0134176Y0262000D03*
X0139984Y0262000D03*
X0139984Y0265150D03*
X0139984Y0268300D03*
D11*
X0164580Y0261400D03*
X0164580Y0331400D03*
X0034580Y0331400D03*
X0034580Y0261400D03*
D12*
X0044580Y0249150D03*
X0061830Y0249400D03*
X0062080Y0259650D03*
X0062080Y0272150D03*
X0062080Y0284650D03*
X0074580Y0284650D03*
X0074580Y0272150D03*
X0074580Y0259650D03*
X0073830Y0249400D03*
X0086830Y0249400D03*
X0087080Y0259650D03*
X0087080Y0272150D03*
X0087080Y0284650D03*
X0099580Y0284650D03*
X0099580Y0272150D03*
X0099580Y0259650D03*
X0099330Y0249400D03*
X0111830Y0249400D03*
X0124330Y0249400D03*
X0124580Y0259650D03*
X0112080Y0259650D03*
X0112080Y0272150D03*
X0124580Y0272150D03*
X0124580Y0284650D03*
X0112080Y0284650D03*
X0112080Y0297150D03*
X0124580Y0297150D03*
X0124580Y0309650D03*
X0112080Y0309650D03*
X0099580Y0309650D03*
X0087080Y0309650D03*
X0074580Y0309650D03*
X0062080Y0309650D03*
X0052330Y0308900D03*
X0062080Y0297150D03*
X0074580Y0297150D03*
X0087080Y0297150D03*
X0099580Y0297150D03*
X0099580Y0322150D03*
X0087080Y0322150D03*
X0087330Y0334400D03*
X0099580Y0334650D03*
X0112080Y0334650D03*
X0118330Y0334900D03*
X0124580Y0334650D03*
X0124580Y0322150D03*
X0112080Y0322150D03*
X0137080Y0322150D03*
X0146580Y0321400D03*
X0146580Y0333900D03*
X0137080Y0334650D03*
X0154580Y0343650D03*
X0146830Y0308900D03*
X0137080Y0309650D03*
X0137080Y0297150D03*
X0146580Y0296400D03*
X0146330Y0283900D03*
X0137080Y0284650D03*
X0137080Y0272150D03*
X0146580Y0271400D03*
X0137080Y0259650D03*
X0143512Y0252650D03*
X0146676Y0249500D03*
X0146580Y0258900D03*
X0136330Y0249150D03*
X0074580Y0322150D03*
X0062080Y0322150D03*
X0062080Y0334650D03*
X0074580Y0334650D03*
D13*
X0032779Y0247718D02*
X0029299Y0248650D01*
X0026179Y0250452D01*
X0023632Y0252999D01*
X0021830Y0256119D01*
X0020898Y0259599D01*
X0020780Y0261400D01*
X0020898Y0263201D01*
X0021830Y0266681D01*
X0023632Y0269801D01*
X0026179Y0272348D01*
X0029299Y0274150D01*
X0032779Y0275082D01*
X0034580Y0275200D01*
X0046381Y0275200D01*
X0047231Y0274350D01*
X0048929Y0274350D01*
X0049580Y0275001D01*
X0049580Y0272799D01*
X0048929Y0273450D01*
X0047231Y0273450D01*
X0046030Y0272249D01*
X0046030Y0270551D01*
X0047231Y0269350D01*
X0048929Y0269350D01*
X0049580Y0270001D01*
X0049580Y0267799D01*
X0048929Y0268450D01*
X0047231Y0268450D01*
X0046030Y0267249D01*
X0046030Y0265551D01*
X0047231Y0264350D01*
X0048929Y0264350D01*
X0049580Y0265001D01*
X0049580Y0262799D01*
X0048929Y0263450D01*
X0047231Y0263450D01*
X0046030Y0262249D01*
X0046030Y0260551D01*
X0047231Y0259350D01*
X0048929Y0259350D01*
X0049580Y0260001D01*
X0049580Y0257799D01*
X0048929Y0258450D01*
X0047231Y0258450D01*
X0046030Y0257249D01*
X0046030Y0255551D01*
X0047231Y0254350D01*
X0048929Y0254350D01*
X0049580Y0255001D01*
X0049580Y0252799D01*
X0048929Y0253450D01*
X0047231Y0253450D01*
X0046030Y0252249D01*
X0046030Y0250741D01*
X0045471Y0251300D01*
X0043689Y0251300D01*
X0042430Y0250041D01*
X0042430Y0248259D01*
X0043089Y0247600D01*
X0034580Y0247600D01*
X0032779Y0247718D01*
X0031738Y0247997D02*
X0042692Y0247997D01*
X0042430Y0248796D02*
X0029048Y0248796D01*
X0027665Y0249594D02*
X0042430Y0249594D01*
X0042782Y0250393D02*
X0026282Y0250393D01*
X0025440Y0251191D02*
X0043581Y0251191D01*
X0045579Y0251191D02*
X0046030Y0251191D01*
X0046030Y0251990D02*
X0024641Y0251990D01*
X0023843Y0252788D02*
X0046569Y0252788D01*
X0047196Y0254385D02*
X0022832Y0254385D01*
X0023293Y0253587D02*
X0049580Y0253587D01*
X0050206Y0253587D01*
X0050206Y0253810D02*
X0050206Y0251490D01*
X0050272Y0251423D01*
X0050246Y0251408D01*
X0050130Y0251292D01*
X0050130Y0252249D01*
X0049580Y0252799D01*
X0049580Y0255001D01*
X0050130Y0255551D01*
X0050130Y0257249D01*
X0049580Y0257799D01*
X0049580Y0260001D01*
X0049966Y0260387D01*
X0049985Y0260353D01*
X0050246Y0260093D01*
X0050565Y0259908D01*
X0050921Y0259813D01*
X0052483Y0259813D01*
X0052483Y0262000D01*
X0052484Y0262000D01*
X0052484Y0262000D01*
X0055261Y0262000D01*
X0055261Y0261029D01*
X0055166Y0260673D01*
X0054982Y0260353D01*
X0054721Y0260093D01*
X0054402Y0259908D01*
X0054046Y0259813D01*
X0052484Y0259813D01*
X0052484Y0262000D01*
X0055261Y0262000D01*
X0055261Y0262972D01*
X0055238Y0263061D01*
X0056695Y0263061D01*
X0057261Y0263627D01*
X0057313Y0263575D01*
X0056899Y0263161D01*
X0056899Y0260840D01*
X0057426Y0260313D01*
X0059579Y0260313D01*
X0059930Y0259962D01*
X0059930Y0258759D01*
X0061189Y0257500D01*
X0062971Y0257500D01*
X0064230Y0258759D01*
X0064230Y0259813D01*
X0064983Y0259813D01*
X0064983Y0262000D01*
X0062206Y0262000D01*
X0062206Y0261800D01*
X0061768Y0261800D01*
X0061454Y0262114D01*
X0061454Y0263161D01*
X0061040Y0263575D01*
X0061315Y0263850D01*
X0062688Y0263850D01*
X0062485Y0263647D01*
X0062301Y0263328D01*
X0062206Y0262972D01*
X0062206Y0262000D01*
X0064983Y0262000D01*
X0064983Y0262000D01*
X0064984Y0262000D01*
X0064984Y0262000D01*
X0067761Y0262000D01*
X0067761Y0261029D01*
X0067666Y0260673D01*
X0067482Y0260353D01*
X0067221Y0260093D01*
X0066902Y0259908D01*
X0066546Y0259813D01*
X0064984Y0259813D01*
X0064984Y0262000D01*
X0067761Y0262000D01*
X0067761Y0262972D01*
X0067666Y0263328D01*
X0067482Y0263647D01*
X0067221Y0263908D01*
X0067195Y0263923D01*
X0067261Y0263990D01*
X0067261Y0266310D01*
X0066847Y0266725D01*
X0067261Y0267139D01*
X0067261Y0269460D01*
X0066734Y0269987D01*
X0063233Y0269987D01*
X0062845Y0269600D01*
X0061315Y0269600D01*
X0060927Y0269987D01*
X0057426Y0269987D01*
X0057311Y0269873D01*
X0056695Y0270489D01*
X0054965Y0270489D01*
X0054349Y0269873D01*
X0054234Y0269987D01*
X0050733Y0269987D01*
X0050206Y0269460D01*
X0050206Y0267139D01*
X0050620Y0266725D01*
X0050206Y0266310D01*
X0050206Y0263990D01*
X0050272Y0263923D01*
X0050246Y0263908D01*
X0049985Y0263647D01*
X0049801Y0263328D01*
X0049706Y0262972D01*
X0049706Y0262674D01*
X0049580Y0262799D01*
X0049580Y0265001D01*
X0050130Y0265551D01*
X0050130Y0267249D01*
X0049580Y0267799D01*
X0049580Y0270001D01*
X0050130Y0270551D01*
X0050130Y0272249D01*
X0049580Y0272799D01*
X0049580Y0275001D01*
X0049706Y0275126D01*
X0049706Y0274500D01*
X0049706Y0273529D01*
X0049801Y0273173D01*
X0049985Y0272853D01*
X0050246Y0272593D01*
X0050565Y0272408D01*
X0050921Y0272313D01*
X0052483Y0272313D01*
X0052483Y0274500D01*
X0049706Y0274500D01*
X0052483Y0274500D01*
X0052483Y0274500D01*
X0052484Y0274500D01*
X0052484Y0274500D01*
X0055261Y0274500D01*
X0055261Y0273529D01*
X0055166Y0273173D01*
X0054982Y0272853D01*
X0054721Y0272593D01*
X0054402Y0272408D01*
X0054046Y0272313D01*
X0052484Y0272313D01*
X0052484Y0274500D01*
X0055261Y0274500D01*
X0055261Y0275472D01*
X0055238Y0275561D01*
X0056695Y0275561D01*
X0057261Y0276127D01*
X0057313Y0276075D01*
X0056899Y0275661D01*
X0056899Y0273340D01*
X0057426Y0272813D01*
X0059579Y0272813D01*
X0059930Y0272462D01*
X0059930Y0271259D01*
X0061189Y0270000D01*
X0062971Y0270000D01*
X0064230Y0271259D01*
X0064230Y0272313D01*
X0064983Y0272313D01*
X0064983Y0274500D01*
X0062206Y0274500D01*
X0062206Y0274300D01*
X0061768Y0274300D01*
X0061454Y0274614D01*
X0061454Y0275661D01*
X0061040Y0276075D01*
X0061315Y0276350D01*
X0062688Y0276350D01*
X0062485Y0276147D01*
X0062301Y0275828D01*
X0062206Y0275472D01*
X0062206Y0274500D01*
X0064983Y0274500D01*
X0064983Y0274500D01*
X0064984Y0274500D01*
X0064984Y0274500D01*
X0067761Y0274500D01*
X0067761Y0273529D01*
X0067666Y0273173D01*
X0067482Y0272853D01*
X0067221Y0272593D01*
X0066902Y0272408D01*
X0066546Y0272313D01*
X0064984Y0272313D01*
X0064984Y0274500D01*
X0067761Y0274500D01*
X0067761Y0275472D01*
X0067666Y0275828D01*
X0067482Y0276147D01*
X0067221Y0276408D01*
X0067195Y0276423D01*
X0067261Y0276490D01*
X0067261Y0278810D01*
X0066847Y0279225D01*
X0067261Y0279639D01*
X0067261Y0281960D01*
X0066734Y0282487D01*
X0063233Y0282487D01*
X0062845Y0282100D01*
X0061315Y0282100D01*
X0060927Y0282487D01*
X0057426Y0282487D01*
X0057311Y0282373D01*
X0056695Y0282989D01*
X0054965Y0282989D01*
X0054349Y0282373D01*
X0054234Y0282487D01*
X0050780Y0282487D01*
X0050780Y0284851D01*
X0050921Y0284813D01*
X0052483Y0284813D01*
X0052483Y0287000D01*
X0052484Y0287000D01*
X0052484Y0287000D01*
X0055261Y0287000D01*
X0055261Y0286029D01*
X0055166Y0285673D01*
X0054982Y0285353D01*
X0054721Y0285093D01*
X0054402Y0284908D01*
X0054046Y0284813D01*
X0052484Y0284813D01*
X0052484Y0287000D01*
X0055261Y0287000D01*
X0055261Y0287972D01*
X0055238Y0288061D01*
X0056695Y0288061D01*
X0057261Y0288627D01*
X0057313Y0288575D01*
X0056899Y0288161D01*
X0056899Y0285840D01*
X0057426Y0285313D01*
X0059579Y0285313D01*
X0059930Y0284962D01*
X0059930Y0283759D01*
X0061189Y0282500D01*
X0062971Y0282500D01*
X0064230Y0283759D01*
X0064230Y0284813D01*
X0064983Y0284813D01*
X0064983Y0287000D01*
X0062206Y0287000D01*
X0062206Y0286800D01*
X0061768Y0286800D01*
X0061454Y0287114D01*
X0061454Y0288161D01*
X0061040Y0288575D01*
X0061315Y0288850D01*
X0062688Y0288850D01*
X0062485Y0288647D01*
X0062301Y0288328D01*
X0062206Y0287972D01*
X0062206Y0287000D01*
X0064983Y0287000D01*
X0064983Y0287000D01*
X0064984Y0287000D01*
X0064984Y0287000D01*
X0067761Y0287000D01*
X0067761Y0286029D01*
X0067666Y0285673D01*
X0067482Y0285353D01*
X0067221Y0285093D01*
X0066902Y0284908D01*
X0066546Y0284813D01*
X0064984Y0284813D01*
X0064984Y0287000D01*
X0067761Y0287000D01*
X0067761Y0287972D01*
X0067666Y0288328D01*
X0067482Y0288647D01*
X0067221Y0288908D01*
X0067195Y0288923D01*
X0067261Y0288990D01*
X0067261Y0291310D01*
X0066847Y0291725D01*
X0067261Y0292139D01*
X0067261Y0294460D01*
X0066734Y0294987D01*
X0063233Y0294987D01*
X0062845Y0294600D01*
X0061315Y0294600D01*
X0060927Y0294987D01*
X0057426Y0294987D01*
X0057311Y0294873D01*
X0056695Y0295489D01*
X0054965Y0295489D01*
X0054349Y0294873D01*
X0054234Y0294987D01*
X0050780Y0294987D01*
X0050780Y0297351D01*
X0050921Y0297313D01*
X0052483Y0297313D01*
X0052483Y0299500D01*
X0052484Y0299500D01*
X0052484Y0299500D01*
X0055261Y0299500D01*
X0055261Y0298529D01*
X0055166Y0298173D01*
X0054982Y0297853D01*
X0054721Y0297593D01*
X0054402Y0297408D01*
X0054046Y0297313D01*
X0052484Y0297313D01*
X0052484Y0299500D01*
X0055261Y0299500D01*
X0055261Y0300472D01*
X0055238Y0300561D01*
X0056695Y0300561D01*
X0057261Y0301127D01*
X0057313Y0301075D01*
X0056899Y0300661D01*
X0056899Y0298340D01*
X0057426Y0297813D01*
X0059579Y0297813D01*
X0059930Y0297462D01*
X0059930Y0296259D01*
X0061189Y0295000D01*
X0062971Y0295000D01*
X0064230Y0296259D01*
X0064230Y0297313D01*
X0064983Y0297313D01*
X0064983Y0299500D01*
X0062206Y0299500D01*
X0062206Y0299300D01*
X0061768Y0299300D01*
X0061454Y0299614D01*
X0061454Y0300661D01*
X0061040Y0301075D01*
X0061315Y0301350D01*
X0062688Y0301350D01*
X0062485Y0301147D01*
X0062301Y0300828D01*
X0062206Y0300472D01*
X0062206Y0299500D01*
X0064983Y0299500D01*
X0064983Y0299500D01*
X0064984Y0299500D01*
X0064984Y0299500D01*
X0067761Y0299500D01*
X0067761Y0298529D01*
X0067666Y0298173D01*
X0067482Y0297853D01*
X0067221Y0297593D01*
X0066902Y0297408D01*
X0066546Y0297313D01*
X0064984Y0297313D01*
X0064984Y0299500D01*
X0067761Y0299500D01*
X0067761Y0300472D01*
X0067666Y0300828D01*
X0067482Y0301147D01*
X0067221Y0301408D01*
X0067195Y0301423D01*
X0067261Y0301490D01*
X0067261Y0303810D01*
X0066847Y0304225D01*
X0067261Y0304639D01*
X0067261Y0306960D01*
X0066734Y0307487D01*
X0063233Y0307487D01*
X0062845Y0307100D01*
X0061315Y0307100D01*
X0060927Y0307487D01*
X0057426Y0307487D01*
X0057311Y0307373D01*
X0056695Y0307989D01*
X0054965Y0307989D01*
X0054349Y0307373D01*
X0054234Y0307487D01*
X0050780Y0307487D01*
X0050780Y0309851D01*
X0050921Y0309813D01*
X0052483Y0309813D01*
X0052483Y0312000D01*
X0052484Y0312000D01*
X0052484Y0312000D01*
X0055261Y0312000D01*
X0055261Y0311029D01*
X0055166Y0310673D01*
X0054982Y0310353D01*
X0054721Y0310093D01*
X0054402Y0309908D01*
X0054046Y0309813D01*
X0052484Y0309813D01*
X0052484Y0312000D01*
X0055261Y0312000D01*
X0055261Y0312972D01*
X0055238Y0313061D01*
X0056695Y0313061D01*
X0057261Y0313627D01*
X0057313Y0313575D01*
X0056899Y0313161D01*
X0056899Y0310840D01*
X0057426Y0310313D01*
X0059579Y0310313D01*
X0059930Y0309962D01*
X0059930Y0308759D01*
X0061189Y0307500D01*
X0062971Y0307500D01*
X0064230Y0308759D01*
X0064230Y0309813D01*
X0064983Y0309813D01*
X0064983Y0312000D01*
X0062206Y0312000D01*
X0062206Y0311800D01*
X0061768Y0311800D01*
X0061454Y0312114D01*
X0061454Y0313161D01*
X0061040Y0313575D01*
X0061315Y0313850D01*
X0062688Y0313850D01*
X0062485Y0313647D01*
X0062301Y0313328D01*
X0062206Y0312972D01*
X0062206Y0312000D01*
X0064983Y0312000D01*
X0064983Y0312000D01*
X0064984Y0312000D01*
X0064984Y0312000D01*
X0067761Y0312000D01*
X0067761Y0311029D01*
X0067666Y0310673D01*
X0067482Y0310353D01*
X0067221Y0310093D01*
X0066902Y0309908D01*
X0066546Y0309813D01*
X0064984Y0309813D01*
X0064984Y0312000D01*
X0067761Y0312000D01*
X0067761Y0312972D01*
X0067666Y0313328D01*
X0067482Y0313647D01*
X0067221Y0313908D01*
X0067195Y0313923D01*
X0067261Y0313990D01*
X0067261Y0316310D01*
X0066847Y0316725D01*
X0067261Y0317139D01*
X0067261Y0319460D01*
X0066734Y0319987D01*
X0063233Y0319987D01*
X0062845Y0319600D01*
X0061315Y0319600D01*
X0060927Y0319987D01*
X0057426Y0319987D01*
X0057311Y0319873D01*
X0056695Y0320489D01*
X0054965Y0320489D01*
X0054349Y0319873D01*
X0054234Y0319987D01*
X0050733Y0319987D01*
X0050206Y0319460D01*
X0050206Y0317471D01*
X0050077Y0317600D01*
X0049779Y0317600D01*
X0049580Y0317799D01*
X0049580Y0320001D01*
X0050130Y0320551D01*
X0050130Y0322249D01*
X0049580Y0322799D01*
X0049580Y0325001D01*
X0049706Y0325126D01*
X0049706Y0324500D01*
X0049706Y0323529D01*
X0049801Y0323173D01*
X0049985Y0322853D01*
X0050246Y0322593D01*
X0050565Y0322408D01*
X0050921Y0322313D01*
X0052483Y0322313D01*
X0052483Y0324500D01*
X0049706Y0324500D01*
X0052483Y0324500D01*
X0052483Y0324500D01*
X0052484Y0324500D01*
X0052484Y0324500D01*
X0055261Y0324500D01*
X0055261Y0323529D01*
X0055166Y0323173D01*
X0054982Y0322853D01*
X0054721Y0322593D01*
X0054402Y0322408D01*
X0054046Y0322313D01*
X0052484Y0322313D01*
X0052484Y0324500D01*
X0055261Y0324500D01*
X0055261Y0325472D01*
X0055238Y0325561D01*
X0056695Y0325561D01*
X0057261Y0326127D01*
X0057313Y0326075D01*
X0056899Y0325661D01*
X0056899Y0323340D01*
X0057426Y0322813D01*
X0059579Y0322813D01*
X0059930Y0322462D01*
X0059930Y0321259D01*
X0061189Y0320000D01*
X0062971Y0320000D01*
X0064230Y0321259D01*
X0064230Y0322313D01*
X0064983Y0322313D01*
X0064983Y0324500D01*
X0062206Y0324500D01*
X0062206Y0324300D01*
X0061768Y0324300D01*
X0061454Y0324614D01*
X0061454Y0325661D01*
X0061040Y0326075D01*
X0061315Y0326350D01*
X0062688Y0326350D01*
X0062485Y0326147D01*
X0062301Y0325828D01*
X0062206Y0325472D01*
X0062206Y0324500D01*
X0064983Y0324500D01*
X0064983Y0324500D01*
X0064984Y0324500D01*
X0064984Y0324500D01*
X0067761Y0324500D01*
X0067761Y0323529D01*
X0067666Y0323173D01*
X0067482Y0322853D01*
X0067221Y0322593D01*
X0066902Y0322408D01*
X0066546Y0322313D01*
X0064984Y0322313D01*
X0064984Y0324500D01*
X0067761Y0324500D01*
X0067761Y0325472D01*
X0067666Y0325828D01*
X0067482Y0326147D01*
X0067221Y0326408D01*
X0067195Y0326423D01*
X0067261Y0326490D01*
X0067261Y0328810D01*
X0066847Y0329225D01*
X0067261Y0329639D01*
X0067261Y0331960D01*
X0066734Y0332487D01*
X0063233Y0332487D01*
X0062845Y0332100D01*
X0061315Y0332100D01*
X0060927Y0332487D01*
X0057426Y0332487D01*
X0057311Y0332373D01*
X0056695Y0332989D01*
X0054965Y0332989D01*
X0054349Y0332373D01*
X0054234Y0332487D01*
X0050733Y0332487D01*
X0050206Y0331960D01*
X0050206Y0329639D01*
X0050620Y0329225D01*
X0050206Y0328810D01*
X0050206Y0326490D01*
X0050272Y0326423D01*
X0050246Y0326408D01*
X0050130Y0326292D01*
X0050130Y0327249D01*
X0049580Y0327799D01*
X0049580Y0330001D01*
X0050130Y0330551D01*
X0050130Y0332249D01*
X0049580Y0332799D01*
X0049580Y0335001D01*
X0049966Y0335387D01*
X0049985Y0335353D01*
X0050246Y0335093D01*
X0050565Y0334908D01*
X0050921Y0334813D01*
X0052483Y0334813D01*
X0052483Y0337000D01*
X0052484Y0337000D01*
X0052484Y0337000D01*
X0055261Y0337000D01*
X0055261Y0336029D01*
X0055166Y0335673D01*
X0054982Y0335353D01*
X0054721Y0335093D01*
X0054402Y0334908D01*
X0054046Y0334813D01*
X0052484Y0334813D01*
X0052484Y0337000D01*
X0055261Y0337000D01*
X0055261Y0337972D01*
X0055238Y0338061D01*
X0056695Y0338061D01*
X0057261Y0338627D01*
X0057313Y0338575D01*
X0056899Y0338161D01*
X0056899Y0335840D01*
X0057426Y0335313D01*
X0059579Y0335313D01*
X0059930Y0334962D01*
X0059930Y0333759D01*
X0061189Y0332500D01*
X0062971Y0332500D01*
X0064230Y0333759D01*
X0064230Y0334813D01*
X0064983Y0334813D01*
X0064983Y0337000D01*
X0062206Y0337000D01*
X0062206Y0336800D01*
X0061768Y0336800D01*
X0061454Y0337114D01*
X0061454Y0338161D01*
X0061040Y0338575D01*
X0061315Y0338850D01*
X0062688Y0338850D01*
X0062485Y0338647D01*
X0062301Y0338328D01*
X0062206Y0337972D01*
X0062206Y0337000D01*
X0064983Y0337000D01*
X0064983Y0337000D01*
X0064984Y0337000D01*
X0064984Y0337000D01*
X0067761Y0337000D01*
X0067761Y0336029D01*
X0067666Y0335673D01*
X0067482Y0335353D01*
X0067221Y0335093D01*
X0066902Y0334908D01*
X0066546Y0334813D01*
X0064984Y0334813D01*
X0064984Y0337000D01*
X0067761Y0337000D01*
X0067761Y0337972D01*
X0067666Y0338328D01*
X0067482Y0338647D01*
X0067221Y0338908D01*
X0067195Y0338923D01*
X0067261Y0338990D01*
X0067261Y0341310D01*
X0066847Y0341725D01*
X0067261Y0342139D01*
X0067261Y0344460D01*
X0066734Y0344987D01*
X0063233Y0344987D01*
X0062845Y0344600D01*
X0061315Y0344600D01*
X0060927Y0344987D01*
X0057426Y0344987D01*
X0057311Y0344873D01*
X0056984Y0345200D01*
X0142176Y0345200D01*
X0141849Y0344873D01*
X0141734Y0344987D01*
X0138233Y0344987D01*
X0137845Y0344600D01*
X0136315Y0344600D01*
X0135927Y0344987D01*
X0132426Y0344987D01*
X0131899Y0344460D01*
X0131899Y0342139D01*
X0132313Y0341725D01*
X0131899Y0341310D01*
X0131899Y0338990D01*
X0132313Y0338575D01*
X0131899Y0338161D01*
X0131899Y0335840D01*
X0132426Y0335313D01*
X0134579Y0335313D01*
X0134930Y0334962D01*
X0134930Y0333759D01*
X0136189Y0332500D01*
X0137971Y0332500D01*
X0139230Y0333759D01*
X0139230Y0334813D01*
X0139983Y0334813D01*
X0139983Y0337000D01*
X0137206Y0337000D01*
X0137206Y0336800D01*
X0136768Y0336800D01*
X0136454Y0337114D01*
X0136454Y0338161D01*
X0136040Y0338575D01*
X0136315Y0338850D01*
X0137688Y0338850D01*
X0137485Y0338647D01*
X0137301Y0338328D01*
X0137206Y0337972D01*
X0137206Y0337000D01*
X0139983Y0337000D01*
X0139983Y0337000D01*
X0139984Y0337000D01*
X0139984Y0337000D01*
X0142761Y0337000D01*
X0142761Y0336029D01*
X0142666Y0335673D01*
X0142482Y0335353D01*
X0142221Y0335093D01*
X0141902Y0334908D01*
X0141546Y0334813D01*
X0139984Y0334813D01*
X0139984Y0337000D01*
X0142761Y0337000D01*
X0142761Y0337972D01*
X0142738Y0338061D01*
X0144195Y0338061D01*
X0144761Y0338627D01*
X0144813Y0338575D01*
X0144399Y0338161D01*
X0144399Y0335840D01*
X0144926Y0335313D01*
X0144952Y0335313D01*
X0144430Y0334791D01*
X0144430Y0333009D01*
X0144952Y0332487D01*
X0144926Y0332487D01*
X0144811Y0332373D01*
X0144195Y0332989D01*
X0142465Y0332989D01*
X0141849Y0332373D01*
X0141734Y0332487D01*
X0138233Y0332487D01*
X0137845Y0332100D01*
X0136315Y0332100D01*
X0135927Y0332487D01*
X0132426Y0332487D01*
X0131899Y0331960D01*
X0131899Y0329639D01*
X0132313Y0329225D01*
X0131899Y0328810D01*
X0131899Y0326490D01*
X0132313Y0326075D01*
X0131899Y0325661D01*
X0131899Y0323340D01*
X0132426Y0322813D01*
X0134579Y0322813D01*
X0134930Y0322462D01*
X0134930Y0321259D01*
X0136189Y0320000D01*
X0137971Y0320000D01*
X0139230Y0321259D01*
X0139230Y0322313D01*
X0139983Y0322313D01*
X0139983Y0324500D01*
X0137206Y0324500D01*
X0137206Y0324300D01*
X0136768Y0324300D01*
X0136454Y0324614D01*
X0136454Y0325661D01*
X0136040Y0326075D01*
X0136315Y0326350D01*
X0137688Y0326350D01*
X0137485Y0326147D01*
X0137301Y0325828D01*
X0137206Y0325472D01*
X0137206Y0324500D01*
X0139983Y0324500D01*
X0139983Y0324500D01*
X0139984Y0324500D01*
X0139984Y0324500D01*
X0142761Y0324500D01*
X0142761Y0323529D01*
X0142666Y0323173D01*
X0142482Y0322853D01*
X0142221Y0322593D01*
X0141902Y0322408D01*
X0141546Y0322313D01*
X0139984Y0322313D01*
X0139984Y0324500D01*
X0142761Y0324500D01*
X0142761Y0325472D01*
X0142738Y0325561D01*
X0144195Y0325561D01*
X0144761Y0326127D01*
X0144813Y0326075D01*
X0144399Y0325661D01*
X0144399Y0323340D01*
X0144926Y0322813D01*
X0144952Y0322813D01*
X0144430Y0322291D01*
X0144430Y0320509D01*
X0144952Y0319987D01*
X0144926Y0319987D01*
X0144811Y0319873D01*
X0144195Y0320489D01*
X0142465Y0320489D01*
X0141849Y0319873D01*
X0141734Y0319987D01*
X0138233Y0319987D01*
X0137845Y0319600D01*
X0136315Y0319600D01*
X0135927Y0319987D01*
X0132426Y0319987D01*
X0131899Y0319460D01*
X0131899Y0317139D01*
X0132313Y0316725D01*
X0131899Y0316310D01*
X0131899Y0313990D01*
X0132313Y0313575D01*
X0131899Y0313161D01*
X0131899Y0310840D01*
X0132426Y0310313D01*
X0134579Y0310313D01*
X0134930Y0309962D01*
X0134930Y0308759D01*
X0136189Y0307500D01*
X0137971Y0307500D01*
X0139230Y0308759D01*
X0139230Y0309813D01*
X0139983Y0309813D01*
X0139983Y0312000D01*
X0137206Y0312000D01*
X0137206Y0311800D01*
X0136768Y0311800D01*
X0136454Y0312114D01*
X0136454Y0313161D01*
X0136040Y0313575D01*
X0136315Y0313850D01*
X0137688Y0313850D01*
X0137485Y0313647D01*
X0137301Y0313328D01*
X0137206Y0312972D01*
X0137206Y0312000D01*
X0139983Y0312000D01*
X0139983Y0312000D01*
X0139984Y0312000D01*
X0139984Y0312000D01*
X0142761Y0312000D01*
X0142761Y0311489D01*
X0143222Y0311489D01*
X0144399Y0312666D01*
X0144399Y0313161D01*
X0144813Y0313575D01*
X0144761Y0313627D01*
X0144195Y0313061D01*
X0142738Y0313061D01*
X0142761Y0312972D01*
X0142761Y0312000D01*
X0139984Y0312000D01*
X0139984Y0309813D01*
X0140741Y0309813D01*
X0140741Y0308535D01*
X0141876Y0307400D01*
X0141849Y0307373D01*
X0141734Y0307487D01*
X0138233Y0307487D01*
X0137845Y0307100D01*
X0136315Y0307100D01*
X0135927Y0307487D01*
X0132426Y0307487D01*
X0131899Y0306960D01*
X0131899Y0304639D01*
X0132313Y0304225D01*
X0131899Y0303810D01*
X0131899Y0301490D01*
X0132313Y0301075D01*
X0131899Y0300661D01*
X0131899Y0298340D01*
X0132426Y0297813D01*
X0134579Y0297813D01*
X0134930Y0297462D01*
X0134930Y0296259D01*
X0136189Y0295000D01*
X0137971Y0295000D01*
X0139230Y0296259D01*
X0139230Y0297313D01*
X0139983Y0297313D01*
X0139983Y0299500D01*
X0137206Y0299500D01*
X0137206Y0299300D01*
X0136768Y0299300D01*
X0136454Y0299614D01*
X0136454Y0300661D01*
X0136040Y0301075D01*
X0136315Y0301350D01*
X0137688Y0301350D01*
X0137485Y0301147D01*
X0137301Y0300828D01*
X0137206Y0300472D01*
X0137206Y0299500D01*
X0139983Y0299500D01*
X0139983Y0299500D01*
X0139984Y0299500D01*
X0139984Y0299500D01*
X0142761Y0299500D01*
X0142761Y0298529D01*
X0142666Y0298173D01*
X0142482Y0297853D01*
X0142221Y0297593D01*
X0141902Y0297408D01*
X0141546Y0297313D01*
X0139984Y0297313D01*
X0139984Y0299500D01*
X0142761Y0299500D01*
X0142761Y0300472D01*
X0142738Y0300561D01*
X0144195Y0300561D01*
X0144761Y0301127D01*
X0144813Y0301075D01*
X0144399Y0300661D01*
X0144399Y0298340D01*
X0144926Y0297813D01*
X0144952Y0297813D01*
X0144430Y0297291D01*
X0144430Y0295509D01*
X0144952Y0294987D01*
X0144926Y0294987D01*
X0144811Y0294873D01*
X0144195Y0295489D01*
X0142465Y0295489D01*
X0141849Y0294873D01*
X0141734Y0294987D01*
X0138233Y0294987D01*
X0137845Y0294600D01*
X0136315Y0294600D01*
X0135927Y0294987D01*
X0132426Y0294987D01*
X0131899Y0294460D01*
X0131899Y0292139D01*
X0132313Y0291725D01*
X0131899Y0291310D01*
X0131899Y0288990D01*
X0132313Y0288575D01*
X0131899Y0288161D01*
X0131899Y0285840D01*
X0132426Y0285313D01*
X0134579Y0285313D01*
X0134930Y0284962D01*
X0134930Y0283759D01*
X0136189Y0282500D01*
X0137971Y0282500D01*
X0139230Y0283759D01*
X0139230Y0284813D01*
X0139983Y0284813D01*
X0139983Y0287000D01*
X0137206Y0287000D01*
X0137206Y0286800D01*
X0136768Y0286800D01*
X0136454Y0287114D01*
X0136454Y0288161D01*
X0136040Y0288575D01*
X0136315Y0288850D01*
X0137688Y0288850D01*
X0137485Y0288647D01*
X0137301Y0288328D01*
X0137206Y0287972D01*
X0137206Y0287000D01*
X0139983Y0287000D01*
X0139983Y0287000D01*
X0139984Y0287000D01*
X0139984Y0287000D01*
X0142761Y0287000D01*
X0142761Y0286029D01*
X0142666Y0285673D01*
X0142482Y0285353D01*
X0142221Y0285093D01*
X0141902Y0284908D01*
X0141546Y0284813D01*
X0139984Y0284813D01*
X0139984Y0287000D01*
X0142761Y0287000D01*
X0142761Y0287972D01*
X0142738Y0288061D01*
X0144195Y0288061D01*
X0144761Y0288627D01*
X0144813Y0288575D01*
X0144399Y0288161D01*
X0144399Y0285840D01*
X0144814Y0285425D01*
X0144180Y0284791D01*
X0144180Y0283009D01*
X0144814Y0282375D01*
X0144811Y0282373D01*
X0144195Y0282989D01*
X0142465Y0282989D01*
X0141849Y0282373D01*
X0141734Y0282487D01*
X0138233Y0282487D01*
X0137845Y0282100D01*
X0136315Y0282100D01*
X0135927Y0282487D01*
X0132426Y0282487D01*
X0131899Y0281960D01*
X0131899Y0279639D01*
X0132313Y0279225D01*
X0131899Y0278810D01*
X0131899Y0276490D01*
X0132313Y0276075D01*
X0131899Y0275661D01*
X0131899Y0273340D01*
X0132426Y0272813D01*
X0134579Y0272813D01*
X0134930Y0272462D01*
X0134930Y0271259D01*
X0136189Y0270000D01*
X0137971Y0270000D01*
X0139230Y0271259D01*
X0139230Y0272313D01*
X0139983Y0272313D01*
X0139983Y0274500D01*
X0137206Y0274500D01*
X0137206Y0274300D01*
X0136768Y0274300D01*
X0136454Y0274614D01*
X0136454Y0275661D01*
X0136040Y0276075D01*
X0136315Y0276350D01*
X0137688Y0276350D01*
X0137485Y0276147D01*
X0137301Y0275828D01*
X0137206Y0275472D01*
X0137206Y0274500D01*
X0139983Y0274500D01*
X0139983Y0274500D01*
X0139984Y0274500D01*
X0139984Y0274500D01*
X0142761Y0274500D01*
X0142761Y0273529D01*
X0142666Y0273173D01*
X0142482Y0272853D01*
X0142221Y0272593D01*
X0141902Y0272408D01*
X0141546Y0272313D01*
X0139984Y0272313D01*
X0139984Y0274500D01*
X0142761Y0274500D01*
X0142761Y0275472D01*
X0142738Y0275561D01*
X0144195Y0275561D01*
X0144761Y0276127D01*
X0144813Y0276075D01*
X0144399Y0275661D01*
X0144399Y0273340D01*
X0144926Y0272813D01*
X0144952Y0272813D01*
X0144430Y0272291D01*
X0144430Y0270509D01*
X0144952Y0269987D01*
X0144926Y0269987D01*
X0144811Y0269873D01*
X0144195Y0270489D01*
X0142465Y0270489D01*
X0141849Y0269873D01*
X0141734Y0269987D01*
X0138233Y0269987D01*
X0137845Y0269600D01*
X0136315Y0269600D01*
X0135927Y0269987D01*
X0132426Y0269987D01*
X0131899Y0269460D01*
X0131899Y0267139D01*
X0132313Y0266725D01*
X0131899Y0266310D01*
X0131899Y0263990D01*
X0132313Y0263575D01*
X0131899Y0263161D01*
X0131899Y0260840D01*
X0132426Y0260313D01*
X0134579Y0260313D01*
X0134930Y0259962D01*
X0134930Y0258759D01*
X0136189Y0257500D01*
X0137971Y0257500D01*
X0139230Y0258759D01*
X0139230Y0259813D01*
X0139983Y0259813D01*
X0139983Y0262000D01*
X0137206Y0262000D01*
X0137206Y0261800D01*
X0136768Y0261800D01*
X0136454Y0262114D01*
X0136454Y0263161D01*
X0136040Y0263575D01*
X0136315Y0263850D01*
X0137688Y0263850D01*
X0137485Y0263647D01*
X0137301Y0263328D01*
X0137206Y0262972D01*
X0137206Y0262000D01*
X0139983Y0262000D01*
X0139983Y0262000D01*
X0139984Y0262000D01*
X0139984Y0262000D01*
X0142761Y0262000D01*
X0142761Y0261029D01*
X0142666Y0260673D01*
X0142482Y0260353D01*
X0142221Y0260093D01*
X0141902Y0259908D01*
X0141546Y0259813D01*
X0139984Y0259813D01*
X0139984Y0262000D01*
X0142761Y0262000D01*
X0142761Y0262972D01*
X0142738Y0263061D01*
X0144195Y0263061D01*
X0144761Y0263627D01*
X0144813Y0263575D01*
X0144399Y0263161D01*
X0144399Y0260840D01*
X0144926Y0260313D01*
X0144952Y0260313D01*
X0144430Y0259791D01*
X0144430Y0258009D01*
X0144952Y0257487D01*
X0144926Y0257487D01*
X0144811Y0257373D01*
X0144195Y0257989D01*
X0142465Y0257989D01*
X0141849Y0257373D01*
X0141734Y0257487D01*
X0138233Y0257487D01*
X0137845Y0257100D01*
X0136315Y0257100D01*
X0135927Y0257487D01*
X0132426Y0257487D01*
X0131899Y0256960D01*
X0131899Y0254639D01*
X0132313Y0254225D01*
X0131899Y0253810D01*
X0131899Y0251490D01*
X0132313Y0251075D01*
X0131899Y0250661D01*
X0131899Y0248340D01*
X0132426Y0247813D01*
X0134626Y0247813D01*
X0134839Y0247600D01*
X0129728Y0247600D01*
X0129982Y0247853D01*
X0130166Y0248173D01*
X0130261Y0248529D01*
X0130261Y0249500D01*
X0127484Y0249500D01*
X0127484Y0249500D01*
X0130261Y0249500D01*
X0130261Y0250472D01*
X0130166Y0250828D01*
X0129982Y0251147D01*
X0129721Y0251408D01*
X0129695Y0251423D01*
X0129761Y0251490D01*
X0129761Y0253810D01*
X0129347Y0254225D01*
X0129761Y0254639D01*
X0129761Y0256960D01*
X0129234Y0257487D01*
X0125733Y0257487D01*
X0125345Y0257100D01*
X0123815Y0257100D01*
X0123427Y0257487D01*
X0119926Y0257487D01*
X0119399Y0256960D01*
X0119399Y0254639D01*
X0119813Y0254225D01*
X0119399Y0253810D01*
X0119399Y0251490D01*
X0119813Y0251075D01*
X0119399Y0250661D01*
X0119399Y0248340D01*
X0119926Y0247813D01*
X0122876Y0247813D01*
X0123089Y0247600D01*
X0117228Y0247600D01*
X0117482Y0247853D01*
X0117666Y0248173D01*
X0117761Y0248529D01*
X0117761Y0249500D01*
X0114984Y0249500D01*
X0114984Y0249500D01*
X0117761Y0249500D01*
X0117761Y0250472D01*
X0117666Y0250828D01*
X0117482Y0251147D01*
X0117221Y0251408D01*
X0117195Y0251423D01*
X0117261Y0251490D01*
X0117261Y0253810D01*
X0116847Y0254225D01*
X0117261Y0254639D01*
X0117261Y0256960D01*
X0116734Y0257487D01*
X0113233Y0257487D01*
X0112845Y0257100D01*
X0111315Y0257100D01*
X0110927Y0257487D01*
X0107426Y0257487D01*
X0106899Y0256960D01*
X0106899Y0254639D01*
X0107313Y0254225D01*
X0106899Y0253810D01*
X0106899Y0251490D01*
X0107313Y0251075D01*
X0106899Y0250661D01*
X0106899Y0248340D01*
X0107426Y0247813D01*
X0110376Y0247813D01*
X0110589Y0247600D01*
X0104728Y0247600D01*
X0104982Y0247853D01*
X0105166Y0248173D01*
X0105261Y0248529D01*
X0105261Y0249500D01*
X0102484Y0249500D01*
X0102484Y0249500D01*
X0105261Y0249500D01*
X0105261Y0250472D01*
X0105166Y0250828D01*
X0104982Y0251147D01*
X0104721Y0251408D01*
X0104695Y0251423D01*
X0104761Y0251490D01*
X0104761Y0253810D01*
X0104347Y0254225D01*
X0104761Y0254639D01*
X0104761Y0256960D01*
X0104234Y0257487D01*
X0100733Y0257487D01*
X0100345Y0257100D01*
X0098815Y0257100D01*
X0098427Y0257487D01*
X0094926Y0257487D01*
X0094399Y0256960D01*
X0094399Y0254639D01*
X0094813Y0254225D01*
X0094399Y0253810D01*
X0094399Y0251490D01*
X0094813Y0251075D01*
X0094399Y0250661D01*
X0094399Y0248340D01*
X0094926Y0247813D01*
X0097876Y0247813D01*
X0098089Y0247600D01*
X0092228Y0247600D01*
X0092482Y0247853D01*
X0092666Y0248173D01*
X0092761Y0248529D01*
X0092761Y0249500D01*
X0089984Y0249500D01*
X0089984Y0249500D01*
X0092761Y0249500D01*
X0092761Y0250472D01*
X0092666Y0250828D01*
X0092482Y0251147D01*
X0092221Y0251408D01*
X0092195Y0251423D01*
X0092261Y0251490D01*
X0092261Y0253810D01*
X0091847Y0254225D01*
X0092261Y0254639D01*
X0092261Y0256960D01*
X0091734Y0257487D01*
X0088233Y0257487D01*
X0087845Y0257100D01*
X0086315Y0257100D01*
X0085927Y0257487D01*
X0082426Y0257487D01*
X0081899Y0256960D01*
X0081899Y0254639D01*
X0082313Y0254225D01*
X0081899Y0253810D01*
X0081899Y0251490D01*
X0082313Y0251075D01*
X0081899Y0250661D01*
X0081899Y0248340D01*
X0082426Y0247813D01*
X0085376Y0247813D01*
X0085589Y0247600D01*
X0079728Y0247600D01*
X0079982Y0247853D01*
X0080166Y0248173D01*
X0080261Y0248529D01*
X0080261Y0249500D01*
X0077484Y0249500D01*
X0077484Y0249500D01*
X0080261Y0249500D01*
X0080261Y0250472D01*
X0080166Y0250828D01*
X0079982Y0251147D01*
X0079721Y0251408D01*
X0079695Y0251423D01*
X0079761Y0251490D01*
X0079761Y0253810D01*
X0079347Y0254225D01*
X0079761Y0254639D01*
X0079761Y0256960D01*
X0079234Y0257487D01*
X0075733Y0257487D01*
X0075345Y0257100D01*
X0073815Y0257100D01*
X0073427Y0257487D01*
X0069926Y0257487D01*
X0069399Y0256960D01*
X0069399Y0254639D01*
X0069813Y0254225D01*
X0069399Y0253810D01*
X0069399Y0251490D01*
X0069813Y0251075D01*
X0069399Y0250661D01*
X0069399Y0248340D01*
X0069926Y0247813D01*
X0072376Y0247813D01*
X0072589Y0247600D01*
X0067228Y0247600D01*
X0067482Y0247853D01*
X0067666Y0248173D01*
X0067761Y0248529D01*
X0067761Y0249500D01*
X0064984Y0249500D01*
X0064984Y0249500D01*
X0067761Y0249500D01*
X0067761Y0250472D01*
X0067666Y0250828D01*
X0067482Y0251147D01*
X0067221Y0251408D01*
X0067195Y0251423D01*
X0067261Y0251490D01*
X0067261Y0253810D01*
X0066847Y0254225D01*
X0067261Y0254639D01*
X0067261Y0256960D01*
X0066734Y0257487D01*
X0063233Y0257487D01*
X0062845Y0257100D01*
X0061315Y0257100D01*
X0060927Y0257487D01*
X0057426Y0257487D01*
X0057311Y0257373D01*
X0056695Y0257989D01*
X0054965Y0257989D01*
X0054349Y0257373D01*
X0054234Y0257487D01*
X0050733Y0257487D01*
X0050206Y0256960D01*
X0050206Y0254639D01*
X0050620Y0254225D01*
X0050206Y0253810D01*
X0050460Y0254385D02*
X0049580Y0254385D01*
X0048964Y0254385D01*
X0049763Y0255184D02*
X0050206Y0255184D01*
X0050206Y0255982D02*
X0050130Y0255982D01*
X0050130Y0256781D02*
X0050206Y0256781D01*
X0049800Y0257579D02*
X0054555Y0257579D01*
X0054517Y0259975D02*
X0059917Y0259975D01*
X0059930Y0259176D02*
X0049580Y0259176D01*
X0021011Y0259176D01*
X0020873Y0259975D02*
X0046606Y0259975D01*
X0046030Y0260773D02*
X0020821Y0260773D01*
X0020780Y0261400D02*
X0020780Y0261400D01*
X0020791Y0261572D02*
X0046030Y0261572D01*
X0046151Y0262370D02*
X0020844Y0262370D01*
X0020896Y0263169D02*
X0046950Y0263169D01*
X0046815Y0264766D02*
X0021317Y0264766D01*
X0021531Y0265564D02*
X0046030Y0265564D01*
X0046030Y0266363D02*
X0021745Y0266363D01*
X0022108Y0267161D02*
X0046030Y0267161D01*
X0046741Y0267960D02*
X0022569Y0267960D01*
X0023030Y0268758D02*
X0049580Y0268758D01*
X0050206Y0268758D01*
X0050206Y0267960D02*
X0049580Y0267960D01*
X0049419Y0267960D01*
X0050130Y0267161D02*
X0050206Y0267161D01*
X0050258Y0266363D02*
X0050130Y0266363D01*
X0050130Y0265564D02*
X0050206Y0265564D01*
X0050206Y0264766D02*
X0049580Y0264766D01*
X0049345Y0264766D01*
X0049580Y0263967D02*
X0021103Y0263967D01*
X0023491Y0269557D02*
X0047024Y0269557D01*
X0046226Y0270355D02*
X0024186Y0270355D01*
X0024985Y0271154D02*
X0046030Y0271154D01*
X0046030Y0271952D02*
X0025783Y0271952D01*
X0026876Y0272751D02*
X0046532Y0272751D01*
X0046434Y0275146D02*
X0033762Y0275146D01*
X0030039Y0274348D02*
X0049580Y0274348D01*
X0049706Y0274348D01*
X0049706Y0273549D02*
X0049580Y0273549D01*
X0028259Y0273549D01*
X0021225Y0258378D02*
X0047159Y0258378D01*
X0046360Y0257579D02*
X0021439Y0257579D01*
X0021653Y0256781D02*
X0046030Y0256781D01*
X0046030Y0255982D02*
X0021909Y0255982D01*
X0022370Y0255184D02*
X0046397Y0255184D01*
X0049591Y0252788D02*
X0050206Y0252788D01*
X0050206Y0251990D02*
X0050130Y0251990D01*
X0049706Y0250126D02*
X0049706Y0249500D01*
X0049706Y0248529D01*
X0049801Y0248173D01*
X0049985Y0247853D01*
X0050239Y0247600D01*
X0049779Y0247600D01*
X0049580Y0247799D01*
X0049580Y0250001D01*
X0049706Y0250126D01*
X0049706Y0249594D02*
X0049580Y0249594D01*
X0049706Y0249500D02*
X0052483Y0249500D01*
X0049706Y0249500D01*
X0049706Y0248796D02*
X0049580Y0248796D01*
X0049580Y0247997D02*
X0049902Y0247997D01*
X0052483Y0249500D02*
X0052483Y0249500D01*
X0052484Y0249500D02*
X0052484Y0249500D01*
X0055261Y0249500D01*
X0055261Y0248529D01*
X0055166Y0248173D01*
X0054982Y0247853D01*
X0054728Y0247600D01*
X0060589Y0247600D01*
X0060376Y0247813D01*
X0057426Y0247813D01*
X0056899Y0248340D01*
X0056899Y0250661D01*
X0057313Y0251075D01*
X0057261Y0251127D01*
X0056695Y0250561D01*
X0055238Y0250561D01*
X0055261Y0250472D01*
X0055261Y0249500D01*
X0052484Y0249500D01*
X0055261Y0249594D02*
X0056899Y0249594D01*
X0056899Y0248796D02*
X0055261Y0248796D01*
X0055065Y0247997D02*
X0057242Y0247997D01*
X0056899Y0250393D02*
X0055261Y0250393D01*
X0059176Y0249500D02*
X0059277Y0249400D01*
X0061830Y0249400D01*
X0059176Y0252650D02*
X0064984Y0252650D01*
X0067261Y0252788D02*
X0069399Y0252788D01*
X0069399Y0251990D02*
X0067261Y0251990D01*
X0067438Y0251191D02*
X0069697Y0251191D01*
X0069399Y0250393D02*
X0067761Y0250393D01*
X0067761Y0249594D02*
X0069399Y0249594D01*
X0069399Y0248796D02*
X0067761Y0248796D01*
X0067565Y0247997D02*
X0069742Y0247997D01*
X0071676Y0249500D02*
X0073730Y0249500D01*
X0073830Y0249400D01*
X0071676Y0252650D02*
X0077484Y0252650D01*
X0079761Y0252788D02*
X0081899Y0252788D01*
X0081899Y0251990D02*
X0079761Y0251990D01*
X0079938Y0251191D02*
X0082197Y0251191D01*
X0081899Y0250393D02*
X0080261Y0250393D01*
X0080261Y0249594D02*
X0081899Y0249594D01*
X0081899Y0248796D02*
X0080261Y0248796D01*
X0080065Y0247997D02*
X0082242Y0247997D01*
X0084176Y0249500D02*
X0084277Y0249400D01*
X0086830Y0249400D01*
X0084176Y0252650D02*
X0089984Y0252650D01*
X0092261Y0252788D02*
X0094399Y0252788D01*
X0094399Y0251990D02*
X0092261Y0251990D01*
X0092438Y0251191D02*
X0094697Y0251191D01*
X0094399Y0250393D02*
X0092761Y0250393D01*
X0092761Y0249594D02*
X0094399Y0249594D01*
X0094399Y0248796D02*
X0092761Y0248796D01*
X0092565Y0247997D02*
X0094742Y0247997D01*
X0096676Y0249500D02*
X0099230Y0249500D01*
X0099330Y0249400D01*
X0096676Y0252650D02*
X0102484Y0252650D01*
X0104761Y0252788D02*
X0106899Y0252788D01*
X0106899Y0251990D02*
X0104761Y0251990D01*
X0104938Y0251191D02*
X0107197Y0251191D01*
X0106899Y0250393D02*
X0105261Y0250393D01*
X0105261Y0249594D02*
X0106899Y0249594D01*
X0106899Y0248796D02*
X0105261Y0248796D01*
X0105065Y0247997D02*
X0107242Y0247997D01*
X0109176Y0249500D02*
X0111730Y0249500D01*
X0111830Y0249400D01*
X0109176Y0252650D02*
X0114984Y0252650D01*
X0117261Y0252788D02*
X0119399Y0252788D01*
X0119399Y0251990D02*
X0117261Y0251990D01*
X0117438Y0251191D02*
X0119697Y0251191D01*
X0119399Y0250393D02*
X0117761Y0250393D01*
X0117761Y0249594D02*
X0119399Y0249594D01*
X0119399Y0248796D02*
X0117761Y0248796D01*
X0117565Y0247997D02*
X0119742Y0247997D01*
X0121676Y0249500D02*
X0121777Y0249400D01*
X0124330Y0249400D01*
X0121676Y0252650D02*
X0127484Y0252650D01*
X0129761Y0252788D02*
X0131899Y0252788D01*
X0131899Y0251990D02*
X0129761Y0251990D01*
X0129938Y0251191D02*
X0132197Y0251191D01*
X0131899Y0250393D02*
X0130261Y0250393D01*
X0130261Y0249594D02*
X0131899Y0249594D01*
X0131899Y0248796D02*
X0130261Y0248796D01*
X0130065Y0247997D02*
X0132242Y0247997D01*
X0134176Y0249500D02*
X0134527Y0249150D01*
X0136330Y0249150D01*
X0139984Y0249500D02*
X0139984Y0249500D01*
X0142761Y0249500D01*
X0142761Y0248529D01*
X0142666Y0248173D01*
X0142482Y0247853D01*
X0142228Y0247600D01*
X0145536Y0247600D01*
X0145323Y0247813D01*
X0144926Y0247813D01*
X0144399Y0248340D01*
X0144399Y0250500D01*
X0142754Y0250500D01*
X0142761Y0250472D01*
X0142761Y0249500D01*
X0139984Y0249500D01*
X0142761Y0249594D02*
X0144399Y0249594D01*
X0144399Y0248796D02*
X0142761Y0248796D01*
X0142565Y0247997D02*
X0144742Y0247997D01*
X0144399Y0250393D02*
X0142761Y0250393D01*
X0139984Y0252650D02*
X0134176Y0252650D01*
X0131899Y0253587D02*
X0129761Y0253587D01*
X0129507Y0254385D02*
X0132153Y0254385D01*
X0131899Y0255184D02*
X0129761Y0255184D01*
X0129761Y0255982D02*
X0131899Y0255982D01*
X0131899Y0256781D02*
X0129761Y0256781D01*
X0127484Y0255800D02*
X0121676Y0255800D01*
X0119399Y0255982D02*
X0117261Y0255982D01*
X0117261Y0255184D02*
X0119399Y0255184D01*
X0119653Y0254385D02*
X0117007Y0254385D01*
X0117261Y0253587D02*
X0119399Y0253587D01*
X0119399Y0256781D02*
X0117261Y0256781D01*
X0114984Y0255800D02*
X0109176Y0255800D01*
X0106899Y0255982D02*
X0104761Y0255982D01*
X0104761Y0255184D02*
X0106899Y0255184D01*
X0107153Y0254385D02*
X0104507Y0254385D01*
X0104761Y0253587D02*
X0106899Y0253587D01*
X0106899Y0256781D02*
X0104761Y0256781D01*
X0102484Y0255800D02*
X0096676Y0255800D01*
X0094399Y0255982D02*
X0092261Y0255982D01*
X0092261Y0255184D02*
X0094399Y0255184D01*
X0094653Y0254385D02*
X0092007Y0254385D01*
X0092261Y0253587D02*
X0094399Y0253587D01*
X0094399Y0256781D02*
X0092261Y0256781D01*
X0089984Y0255800D02*
X0084176Y0255800D01*
X0081899Y0255982D02*
X0079761Y0255982D01*
X0079761Y0255184D02*
X0081899Y0255184D01*
X0082153Y0254385D02*
X0079507Y0254385D01*
X0079761Y0253587D02*
X0081899Y0253587D01*
X0081899Y0256781D02*
X0079761Y0256781D01*
X0077484Y0255800D02*
X0071676Y0255800D01*
X0069399Y0255982D02*
X0067261Y0255982D01*
X0067261Y0255184D02*
X0069399Y0255184D01*
X0069653Y0254385D02*
X0067007Y0254385D01*
X0067261Y0253587D02*
X0069399Y0253587D01*
X0069399Y0256781D02*
X0067261Y0256781D01*
X0064984Y0255800D02*
X0059176Y0255800D01*
X0061110Y0257579D02*
X0057105Y0257579D01*
X0056966Y0260773D02*
X0055193Y0260773D01*
X0055261Y0261572D02*
X0056899Y0261572D01*
X0056899Y0262370D02*
X0055261Y0262370D01*
X0056803Y0263169D02*
X0056907Y0263169D01*
X0059176Y0262000D02*
X0059730Y0262000D01*
X0062080Y0259650D01*
X0060312Y0258378D02*
X0049580Y0258378D01*
X0049001Y0258378D01*
X0049554Y0259975D02*
X0049580Y0259975D01*
X0050450Y0259975D01*
X0052483Y0259975D02*
X0052484Y0259975D01*
X0052483Y0260773D02*
X0052484Y0260773D01*
X0052483Y0261572D02*
X0052484Y0261572D01*
X0049758Y0263169D02*
X0049580Y0263169D01*
X0049210Y0263169D01*
X0049580Y0263967D02*
X0050228Y0263967D01*
X0050303Y0269557D02*
X0049580Y0269557D01*
X0049136Y0269557D01*
X0049934Y0270355D02*
X0054831Y0270355D01*
X0056829Y0270355D02*
X0060834Y0270355D01*
X0060036Y0271154D02*
X0050130Y0271154D01*
X0050130Y0271952D02*
X0059930Y0271952D01*
X0059641Y0272751D02*
X0054879Y0272751D01*
X0055261Y0273549D02*
X0056899Y0273549D01*
X0056899Y0274348D02*
X0055261Y0274348D01*
X0055261Y0275146D02*
X0056899Y0275146D01*
X0057079Y0275945D02*
X0057183Y0275945D01*
X0059176Y0274500D02*
X0059730Y0274500D01*
X0062080Y0272150D01*
X0064230Y0271952D02*
X0072430Y0271952D01*
X0072430Y0272462D02*
X0072430Y0271259D01*
X0073689Y0270000D01*
X0075471Y0270000D01*
X0076730Y0271259D01*
X0076730Y0272313D01*
X0077483Y0272313D01*
X0077483Y0274500D01*
X0074706Y0274500D01*
X0074706Y0274300D01*
X0074268Y0274300D01*
X0073954Y0274614D01*
X0073954Y0275661D01*
X0073540Y0276075D01*
X0073815Y0276350D01*
X0075188Y0276350D01*
X0074985Y0276147D01*
X0074801Y0275828D01*
X0074706Y0275472D01*
X0074706Y0274500D01*
X0077483Y0274500D01*
X0077483Y0274500D01*
X0077484Y0274500D01*
X0077484Y0274500D01*
X0080261Y0274500D01*
X0080261Y0273529D01*
X0080166Y0273173D01*
X0079982Y0272853D01*
X0079721Y0272593D01*
X0079402Y0272408D01*
X0079046Y0272313D01*
X0077484Y0272313D01*
X0077484Y0274500D01*
X0080261Y0274500D01*
X0080261Y0275472D01*
X0080166Y0275828D01*
X0079982Y0276147D01*
X0079721Y0276408D01*
X0079695Y0276423D01*
X0079761Y0276490D01*
X0079761Y0278810D01*
X0079347Y0279225D01*
X0079761Y0279639D01*
X0079761Y0281960D01*
X0079234Y0282487D01*
X0075733Y0282487D01*
X0075345Y0282100D01*
X0073815Y0282100D01*
X0073427Y0282487D01*
X0069926Y0282487D01*
X0069399Y0281960D01*
X0069399Y0279639D01*
X0069813Y0279225D01*
X0069399Y0278810D01*
X0069399Y0276490D01*
X0069813Y0276075D01*
X0069399Y0275661D01*
X0069399Y0273340D01*
X0069926Y0272813D01*
X0072079Y0272813D01*
X0072430Y0272462D01*
X0072141Y0272751D02*
X0067379Y0272751D01*
X0067761Y0273549D02*
X0069399Y0273549D01*
X0069399Y0274348D02*
X0067761Y0274348D01*
X0067761Y0275146D02*
X0069399Y0275146D01*
X0069683Y0275945D02*
X0067599Y0275945D01*
X0067261Y0276743D02*
X0069399Y0276743D01*
X0069399Y0277542D02*
X0067261Y0277542D01*
X0067261Y0278340D02*
X0069399Y0278340D01*
X0069727Y0279139D02*
X0066933Y0279139D01*
X0067261Y0279937D02*
X0069399Y0279937D01*
X0069399Y0280736D02*
X0067261Y0280736D01*
X0067261Y0281534D02*
X0069399Y0281534D01*
X0069772Y0282333D02*
X0066888Y0282333D01*
X0064984Y0280800D02*
X0059176Y0280800D01*
X0061081Y0282333D02*
X0063079Y0282333D01*
X0063602Y0283132D02*
X0073058Y0283132D01*
X0072430Y0283759D02*
X0073689Y0282500D01*
X0075471Y0282500D01*
X0076730Y0283759D01*
X0076730Y0284813D01*
X0077483Y0284813D01*
X0077483Y0287000D01*
X0074706Y0287000D01*
X0074706Y0286800D01*
X0074268Y0286800D01*
X0073954Y0287114D01*
X0073954Y0288161D01*
X0073540Y0288575D01*
X0073815Y0288850D01*
X0075188Y0288850D01*
X0074985Y0288647D01*
X0074801Y0288328D01*
X0074706Y0287972D01*
X0074706Y0287000D01*
X0077483Y0287000D01*
X0077483Y0287000D01*
X0077484Y0287000D01*
X0077484Y0287000D01*
X0080261Y0287000D01*
X0080261Y0286029D01*
X0080166Y0285673D01*
X0079982Y0285353D01*
X0079721Y0285093D01*
X0079402Y0284908D01*
X0079046Y0284813D01*
X0077484Y0284813D01*
X0077484Y0287000D01*
X0080261Y0287000D01*
X0080261Y0287972D01*
X0080166Y0288328D01*
X0079982Y0288647D01*
X0079721Y0288908D01*
X0079695Y0288923D01*
X0079761Y0288990D01*
X0079761Y0291310D01*
X0079347Y0291725D01*
X0079761Y0292139D01*
X0079761Y0294460D01*
X0079234Y0294987D01*
X0075733Y0294987D01*
X0075345Y0294600D01*
X0073815Y0294600D01*
X0073427Y0294987D01*
X0069926Y0294987D01*
X0069399Y0294460D01*
X0069399Y0292139D01*
X0069813Y0291725D01*
X0069399Y0291310D01*
X0069399Y0288990D01*
X0069813Y0288575D01*
X0069399Y0288161D01*
X0069399Y0285840D01*
X0069926Y0285313D01*
X0072079Y0285313D01*
X0072430Y0284962D01*
X0072430Y0283759D01*
X0072430Y0283930D02*
X0064230Y0283930D01*
X0064230Y0284729D02*
X0072430Y0284729D01*
X0074580Y0284650D02*
X0072230Y0287000D01*
X0071676Y0287000D01*
X0069399Y0287124D02*
X0067761Y0287124D01*
X0067761Y0286326D02*
X0069399Y0286326D01*
X0069712Y0285527D02*
X0067582Y0285527D01*
X0067761Y0287923D02*
X0069399Y0287923D01*
X0069667Y0288721D02*
X0067408Y0288721D01*
X0067261Y0289520D02*
X0069399Y0289520D01*
X0069399Y0290318D02*
X0067261Y0290318D01*
X0067261Y0291117D02*
X0069399Y0291117D01*
X0069623Y0291915D02*
X0067037Y0291915D01*
X0067261Y0292714D02*
X0069399Y0292714D01*
X0069399Y0293512D02*
X0067261Y0293512D01*
X0067261Y0294311D02*
X0069399Y0294311D01*
X0071676Y0293300D02*
X0077484Y0293300D01*
X0079761Y0293512D02*
X0081899Y0293512D01*
X0081899Y0292714D02*
X0079761Y0292714D01*
X0079537Y0291915D02*
X0082123Y0291915D01*
X0082313Y0291725D02*
X0081899Y0291310D01*
X0081899Y0288990D01*
X0082313Y0288575D01*
X0081899Y0288161D01*
X0081899Y0285840D01*
X0082426Y0285313D01*
X0084579Y0285313D01*
X0084930Y0284962D01*
X0084930Y0283759D01*
X0086189Y0282500D01*
X0087971Y0282500D01*
X0089230Y0283759D01*
X0089230Y0284813D01*
X0089983Y0284813D01*
X0089983Y0287000D01*
X0087206Y0287000D01*
X0087206Y0286800D01*
X0086768Y0286800D01*
X0086454Y0287114D01*
X0086454Y0288161D01*
X0086040Y0288575D01*
X0086315Y0288850D01*
X0087688Y0288850D01*
X0087485Y0288647D01*
X0087301Y0288328D01*
X0087206Y0287972D01*
X0087206Y0287000D01*
X0089983Y0287000D01*
X0089983Y0287000D01*
X0089984Y0287000D01*
X0089984Y0287000D01*
X0092761Y0287000D01*
X0092761Y0286029D01*
X0092666Y0285673D01*
X0092482Y0285353D01*
X0092221Y0285093D01*
X0091902Y0284908D01*
X0091546Y0284813D01*
X0089984Y0284813D01*
X0089984Y0287000D01*
X0092761Y0287000D01*
X0092761Y0287972D01*
X0092666Y0288328D01*
X0092482Y0288647D01*
X0092221Y0288908D01*
X0092195Y0288923D01*
X0092261Y0288990D01*
X0092261Y0291310D01*
X0091847Y0291725D01*
X0092261Y0292139D01*
X0092261Y0294460D01*
X0091734Y0294987D01*
X0088233Y0294987D01*
X0087845Y0294600D01*
X0086315Y0294600D01*
X0085927Y0294987D01*
X0082426Y0294987D01*
X0081899Y0294460D01*
X0081899Y0292139D01*
X0082313Y0291725D01*
X0081899Y0291117D02*
X0079761Y0291117D01*
X0079761Y0290318D02*
X0081899Y0290318D01*
X0081899Y0289520D02*
X0079761Y0289520D01*
X0079908Y0288721D02*
X0082167Y0288721D01*
X0081899Y0287923D02*
X0080261Y0287923D01*
X0080261Y0287124D02*
X0081899Y0287124D01*
X0081899Y0286326D02*
X0080261Y0286326D01*
X0080082Y0285527D02*
X0082212Y0285527D01*
X0084176Y0287000D02*
X0084730Y0287000D01*
X0087080Y0284650D01*
X0085558Y0283132D02*
X0076102Y0283132D01*
X0075579Y0282333D02*
X0073581Y0282333D01*
X0071676Y0280800D02*
X0077484Y0280800D01*
X0079761Y0280736D02*
X0081899Y0280736D01*
X0081899Y0281534D02*
X0079761Y0281534D01*
X0079388Y0282333D02*
X0082272Y0282333D01*
X0082426Y0282487D02*
X0081899Y0281960D01*
X0081899Y0279639D01*
X0082313Y0279225D01*
X0081899Y0278810D01*
X0081899Y0276490D01*
X0082313Y0276075D01*
X0081899Y0275661D01*
X0081899Y0273340D01*
X0082426Y0272813D01*
X0084579Y0272813D01*
X0084930Y0272462D01*
X0084930Y0271259D01*
X0086189Y0270000D01*
X0087971Y0270000D01*
X0089230Y0271259D01*
X0089230Y0272313D01*
X0089983Y0272313D01*
X0089983Y0274500D01*
X0087206Y0274500D01*
X0087206Y0274300D01*
X0086768Y0274300D01*
X0086454Y0274614D01*
X0086454Y0275661D01*
X0086040Y0276075D01*
X0086315Y0276350D01*
X0087688Y0276350D01*
X0087485Y0276147D01*
X0087301Y0275828D01*
X0087206Y0275472D01*
X0087206Y0274500D01*
X0089983Y0274500D01*
X0089983Y0274500D01*
X0089984Y0274500D01*
X0089984Y0274500D01*
X0092761Y0274500D01*
X0092761Y0273529D01*
X0092666Y0273173D01*
X0092482Y0272853D01*
X0092221Y0272593D01*
X0091902Y0272408D01*
X0091546Y0272313D01*
X0089984Y0272313D01*
X0089984Y0274500D01*
X0092761Y0274500D01*
X0092761Y0275472D01*
X0092666Y0275828D01*
X0092482Y0276147D01*
X0092221Y0276408D01*
X0092195Y0276423D01*
X0092261Y0276490D01*
X0092261Y0278810D01*
X0091847Y0279225D01*
X0092261Y0279639D01*
X0092261Y0281960D01*
X0091734Y0282487D01*
X0088233Y0282487D01*
X0087845Y0282100D01*
X0086315Y0282100D01*
X0085927Y0282487D01*
X0082426Y0282487D01*
X0084176Y0280800D02*
X0089984Y0280800D01*
X0092261Y0280736D02*
X0094399Y0280736D01*
X0094399Y0281534D02*
X0092261Y0281534D01*
X0091888Y0282333D02*
X0094772Y0282333D01*
X0094926Y0282487D02*
X0094399Y0281960D01*
X0094399Y0279639D01*
X0094813Y0279225D01*
X0094399Y0278810D01*
X0094399Y0276490D01*
X0094813Y0276075D01*
X0094399Y0275661D01*
X0094399Y0273340D01*
X0094926Y0272813D01*
X0097079Y0272813D01*
X0097430Y0272462D01*
X0097430Y0271259D01*
X0098689Y0270000D01*
X0100471Y0270000D01*
X0101730Y0271259D01*
X0101730Y0272313D01*
X0102483Y0272313D01*
X0102483Y0274500D01*
X0099706Y0274500D01*
X0099706Y0274300D01*
X0099268Y0274300D01*
X0098954Y0274614D01*
X0098954Y0275661D01*
X0098540Y0276075D01*
X0098815Y0276350D01*
X0100188Y0276350D01*
X0099985Y0276147D01*
X0099801Y0275828D01*
X0099706Y0275472D01*
X0099706Y0274500D01*
X0102483Y0274500D01*
X0102483Y0274500D01*
X0102484Y0274500D01*
X0102484Y0274500D01*
X0105261Y0274500D01*
X0105261Y0273529D01*
X0105166Y0273173D01*
X0104982Y0272853D01*
X0104721Y0272593D01*
X0104402Y0272408D01*
X0104046Y0272313D01*
X0102484Y0272313D01*
X0102484Y0274500D01*
X0105261Y0274500D01*
X0105261Y0275472D01*
X0105166Y0275828D01*
X0104982Y0276147D01*
X0104721Y0276408D01*
X0104695Y0276423D01*
X0104761Y0276490D01*
X0104761Y0278810D01*
X0104347Y0279225D01*
X0104761Y0279639D01*
X0104761Y0281960D01*
X0104234Y0282487D01*
X0100733Y0282487D01*
X0100345Y0282100D01*
X0098815Y0282100D01*
X0098427Y0282487D01*
X0094926Y0282487D01*
X0096676Y0280800D02*
X0102484Y0280800D01*
X0104761Y0280736D02*
X0106899Y0280736D01*
X0106899Y0281534D02*
X0104761Y0281534D01*
X0104388Y0282333D02*
X0107272Y0282333D01*
X0107426Y0282487D02*
X0106899Y0281960D01*
X0106899Y0279639D01*
X0107313Y0279225D01*
X0106899Y0278810D01*
X0106899Y0276490D01*
X0107313Y0276075D01*
X0106899Y0275661D01*
X0106899Y0273340D01*
X0107426Y0272813D01*
X0109579Y0272813D01*
X0109930Y0272462D01*
X0109930Y0271259D01*
X0111189Y0270000D01*
X0112971Y0270000D01*
X0114230Y0271259D01*
X0114230Y0272313D01*
X0114983Y0272313D01*
X0114983Y0274500D01*
X0112206Y0274500D01*
X0112206Y0274300D01*
X0111768Y0274300D01*
X0111454Y0274614D01*
X0111454Y0275661D01*
X0111040Y0276075D01*
X0111315Y0276350D01*
X0112688Y0276350D01*
X0112485Y0276147D01*
X0112301Y0275828D01*
X0112206Y0275472D01*
X0112206Y0274500D01*
X0114983Y0274500D01*
X0114983Y0274500D01*
X0114984Y0274500D01*
X0114984Y0274500D01*
X0117761Y0274500D01*
X0117761Y0273529D01*
X0117666Y0273173D01*
X0117482Y0272853D01*
X0117221Y0272593D01*
X0116902Y0272408D01*
X0116546Y0272313D01*
X0114984Y0272313D01*
X0114984Y0274500D01*
X0117761Y0274500D01*
X0117761Y0275472D01*
X0117666Y0275828D01*
X0117482Y0276147D01*
X0117221Y0276408D01*
X0117195Y0276423D01*
X0117261Y0276490D01*
X0117261Y0278810D01*
X0116847Y0279225D01*
X0117261Y0279639D01*
X0117261Y0281960D01*
X0116734Y0282487D01*
X0113233Y0282487D01*
X0112845Y0282100D01*
X0111315Y0282100D01*
X0110927Y0282487D01*
X0107426Y0282487D01*
X0109176Y0280800D02*
X0114984Y0280800D01*
X0117261Y0280736D02*
X0119399Y0280736D01*
X0119399Y0281534D02*
X0117261Y0281534D01*
X0116888Y0282333D02*
X0119772Y0282333D01*
X0119926Y0282487D02*
X0119399Y0281960D01*
X0119399Y0279639D01*
X0119813Y0279225D01*
X0119399Y0278810D01*
X0119399Y0276490D01*
X0119813Y0276075D01*
X0119399Y0275661D01*
X0119399Y0273340D01*
X0119926Y0272813D01*
X0122079Y0272813D01*
X0122430Y0272462D01*
X0122430Y0271259D01*
X0123689Y0270000D01*
X0125471Y0270000D01*
X0126730Y0271259D01*
X0126730Y0272313D01*
X0127483Y0272313D01*
X0127483Y0274500D01*
X0124706Y0274500D01*
X0124706Y0274300D01*
X0124268Y0274300D01*
X0123954Y0274614D01*
X0123954Y0275661D01*
X0123540Y0276075D01*
X0123815Y0276350D01*
X0125188Y0276350D01*
X0124985Y0276147D01*
X0124801Y0275828D01*
X0124706Y0275472D01*
X0124706Y0274500D01*
X0127483Y0274500D01*
X0127483Y0274500D01*
X0127484Y0274500D01*
X0127484Y0274500D01*
X0130261Y0274500D01*
X0130261Y0273529D01*
X0130166Y0273173D01*
X0129982Y0272853D01*
X0129721Y0272593D01*
X0129402Y0272408D01*
X0129046Y0272313D01*
X0127484Y0272313D01*
X0127484Y0274500D01*
X0130261Y0274500D01*
X0130261Y0275472D01*
X0130166Y0275828D01*
X0129982Y0276147D01*
X0129721Y0276408D01*
X0129695Y0276423D01*
X0129761Y0276490D01*
X0129761Y0278810D01*
X0129347Y0279225D01*
X0129761Y0279639D01*
X0129761Y0281960D01*
X0129234Y0282487D01*
X0125733Y0282487D01*
X0125345Y0282100D01*
X0123815Y0282100D01*
X0123427Y0282487D01*
X0119926Y0282487D01*
X0121676Y0280800D02*
X0127484Y0280800D01*
X0129761Y0280736D02*
X0131899Y0280736D01*
X0131899Y0281534D02*
X0129761Y0281534D01*
X0129388Y0282333D02*
X0132272Y0282333D01*
X0131899Y0279937D02*
X0129761Y0279937D01*
X0129433Y0279139D02*
X0132227Y0279139D01*
X0131899Y0278340D02*
X0129761Y0278340D01*
X0129761Y0277542D02*
X0131899Y0277542D01*
X0131899Y0276743D02*
X0129761Y0276743D01*
X0130099Y0275945D02*
X0132183Y0275945D01*
X0131899Y0275146D02*
X0130261Y0275146D01*
X0130261Y0274348D02*
X0131899Y0274348D01*
X0131899Y0273549D02*
X0130261Y0273549D01*
X0129879Y0272751D02*
X0134641Y0272751D01*
X0134930Y0271952D02*
X0126730Y0271952D01*
X0126624Y0271154D02*
X0135036Y0271154D01*
X0135834Y0270355D02*
X0125826Y0270355D01*
X0125733Y0269987D02*
X0125345Y0269600D01*
X0123815Y0269600D01*
X0123427Y0269987D01*
X0119926Y0269987D01*
X0119399Y0269460D01*
X0119399Y0267139D01*
X0119813Y0266725D01*
X0119399Y0266310D01*
X0119399Y0263990D01*
X0119813Y0263575D01*
X0119399Y0263161D01*
X0119399Y0260840D01*
X0119926Y0260313D01*
X0122079Y0260313D01*
X0122430Y0259962D01*
X0122430Y0258759D01*
X0123689Y0257500D01*
X0125471Y0257500D01*
X0126730Y0258759D01*
X0126730Y0259813D01*
X0127483Y0259813D01*
X0127483Y0262000D01*
X0124706Y0262000D01*
X0124706Y0261800D01*
X0124268Y0261800D01*
X0123954Y0262114D01*
X0123954Y0263161D01*
X0123540Y0263575D01*
X0123815Y0263850D01*
X0125188Y0263850D01*
X0124985Y0263647D01*
X0124801Y0263328D01*
X0124706Y0262972D01*
X0124706Y0262000D01*
X0127483Y0262000D01*
X0127483Y0262000D01*
X0127484Y0262000D01*
X0127484Y0262000D01*
X0130261Y0262000D01*
X0130261Y0261029D01*
X0130166Y0260673D01*
X0129982Y0260353D01*
X0129721Y0260093D01*
X0129402Y0259908D01*
X0129046Y0259813D01*
X0127484Y0259813D01*
X0127484Y0262000D01*
X0130261Y0262000D01*
X0130261Y0262972D01*
X0130166Y0263328D01*
X0129982Y0263647D01*
X0129721Y0263908D01*
X0129695Y0263923D01*
X0129761Y0263990D01*
X0129761Y0266310D01*
X0129347Y0266725D01*
X0129761Y0267139D01*
X0129761Y0269460D01*
X0129234Y0269987D01*
X0125733Y0269987D01*
X0123334Y0270355D02*
X0113326Y0270355D01*
X0113233Y0269987D02*
X0112845Y0269600D01*
X0111315Y0269600D01*
X0110927Y0269987D01*
X0107426Y0269987D01*
X0106899Y0269460D01*
X0106899Y0267139D01*
X0107313Y0266725D01*
X0106899Y0266310D01*
X0106899Y0263990D01*
X0107313Y0263575D01*
X0106899Y0263161D01*
X0106899Y0260840D01*
X0107426Y0260313D01*
X0109579Y0260313D01*
X0109930Y0259962D01*
X0109930Y0258759D01*
X0111189Y0257500D01*
X0112971Y0257500D01*
X0114230Y0258759D01*
X0114230Y0259813D01*
X0114983Y0259813D01*
X0114983Y0262000D01*
X0112206Y0262000D01*
X0112206Y0261800D01*
X0111768Y0261800D01*
X0111454Y0262114D01*
X0111454Y0263161D01*
X0111040Y0263575D01*
X0111315Y0263850D01*
X0112688Y0263850D01*
X0112485Y0263647D01*
X0112301Y0263328D01*
X0112206Y0262972D01*
X0112206Y0262000D01*
X0114983Y0262000D01*
X0114983Y0262000D01*
X0114984Y0262000D01*
X0114984Y0262000D01*
X0117761Y0262000D01*
X0117761Y0261029D01*
X0117666Y0260673D01*
X0117482Y0260353D01*
X0117221Y0260093D01*
X0116902Y0259908D01*
X0116546Y0259813D01*
X0114984Y0259813D01*
X0114984Y0262000D01*
X0117761Y0262000D01*
X0117761Y0262972D01*
X0117666Y0263328D01*
X0117482Y0263647D01*
X0117221Y0263908D01*
X0117195Y0263923D01*
X0117261Y0263990D01*
X0117261Y0266310D01*
X0116847Y0266725D01*
X0117261Y0267139D01*
X0117261Y0269460D01*
X0116734Y0269987D01*
X0113233Y0269987D01*
X0114124Y0271154D02*
X0122536Y0271154D01*
X0122430Y0271952D02*
X0114230Y0271952D01*
X0114983Y0272751D02*
X0114984Y0272751D01*
X0114983Y0273549D02*
X0114984Y0273549D01*
X0114983Y0274348D02*
X0114984Y0274348D01*
X0117761Y0274348D02*
X0119399Y0274348D01*
X0119399Y0275146D02*
X0117761Y0275146D01*
X0117599Y0275945D02*
X0119683Y0275945D01*
X0119399Y0276743D02*
X0117261Y0276743D01*
X0117261Y0277542D02*
X0119399Y0277542D01*
X0119399Y0278340D02*
X0117261Y0278340D01*
X0116933Y0279139D02*
X0119727Y0279139D01*
X0119399Y0279937D02*
X0117261Y0279937D01*
X0114984Y0277650D02*
X0109176Y0277650D01*
X0106899Y0277542D02*
X0104761Y0277542D01*
X0104761Y0278340D02*
X0106899Y0278340D01*
X0107227Y0279139D02*
X0104433Y0279139D01*
X0104761Y0279937D02*
X0106899Y0279937D01*
X0106899Y0276743D02*
X0104761Y0276743D01*
X0105099Y0275945D02*
X0107183Y0275945D01*
X0106899Y0275146D02*
X0105261Y0275146D01*
X0105261Y0274348D02*
X0106899Y0274348D01*
X0106899Y0273549D02*
X0105261Y0273549D01*
X0104879Y0272751D02*
X0109641Y0272751D01*
X0109930Y0271952D02*
X0101730Y0271952D01*
X0101624Y0271154D02*
X0110036Y0271154D01*
X0110834Y0270355D02*
X0100826Y0270355D01*
X0100733Y0269987D02*
X0100345Y0269600D01*
X0098815Y0269600D01*
X0098427Y0269987D01*
X0094926Y0269987D01*
X0094399Y0269460D01*
X0094399Y0267139D01*
X0094813Y0266725D01*
X0094399Y0266310D01*
X0094399Y0263990D01*
X0094813Y0263575D01*
X0094399Y0263161D01*
X0094399Y0260840D01*
X0094926Y0260313D01*
X0097079Y0260313D01*
X0097430Y0259962D01*
X0097430Y0258759D01*
X0098689Y0257500D01*
X0100471Y0257500D01*
X0101730Y0258759D01*
X0101730Y0259813D01*
X0102483Y0259813D01*
X0102483Y0262000D01*
X0099706Y0262000D01*
X0099706Y0261800D01*
X0099268Y0261800D01*
X0098954Y0262114D01*
X0098954Y0263161D01*
X0098540Y0263575D01*
X0098815Y0263850D01*
X0100188Y0263850D01*
X0099985Y0263647D01*
X0099801Y0263328D01*
X0099706Y0262972D01*
X0099706Y0262000D01*
X0102483Y0262000D01*
X0102483Y0262000D01*
X0102484Y0262000D01*
X0102484Y0262000D01*
X0105261Y0262000D01*
X0105261Y0261029D01*
X0105166Y0260673D01*
X0104982Y0260353D01*
X0104721Y0260093D01*
X0104402Y0259908D01*
X0104046Y0259813D01*
X0102484Y0259813D01*
X0102484Y0262000D01*
X0105261Y0262000D01*
X0105261Y0262972D01*
X0105166Y0263328D01*
X0104982Y0263647D01*
X0104721Y0263908D01*
X0104695Y0263923D01*
X0104761Y0263990D01*
X0104761Y0266310D01*
X0104347Y0266725D01*
X0104761Y0267139D01*
X0104761Y0269460D01*
X0104234Y0269987D01*
X0100733Y0269987D01*
X0098334Y0270355D02*
X0088326Y0270355D01*
X0088233Y0269987D02*
X0087845Y0269600D01*
X0086315Y0269600D01*
X0085927Y0269987D01*
X0082426Y0269987D01*
X0081899Y0269460D01*
X0081899Y0267139D01*
X0082313Y0266725D01*
X0081899Y0266310D01*
X0081899Y0263990D01*
X0082313Y0263575D01*
X0081899Y0263161D01*
X0081899Y0260840D01*
X0082426Y0260313D01*
X0084579Y0260313D01*
X0084930Y0259962D01*
X0084930Y0258759D01*
X0086189Y0257500D01*
X0087971Y0257500D01*
X0089230Y0258759D01*
X0089230Y0259813D01*
X0089983Y0259813D01*
X0089983Y0262000D01*
X0087206Y0262000D01*
X0087206Y0261800D01*
X0086768Y0261800D01*
X0086454Y0262114D01*
X0086454Y0263161D01*
X0086040Y0263575D01*
X0086315Y0263850D01*
X0087688Y0263850D01*
X0087485Y0263647D01*
X0087301Y0263328D01*
X0087206Y0262972D01*
X0087206Y0262000D01*
X0089983Y0262000D01*
X0089983Y0262000D01*
X0089984Y0262000D01*
X0089984Y0262000D01*
X0092761Y0262000D01*
X0092761Y0261029D01*
X0092666Y0260673D01*
X0092482Y0260353D01*
X0092221Y0260093D01*
X0091902Y0259908D01*
X0091546Y0259813D01*
X0089984Y0259813D01*
X0089984Y0262000D01*
X0092761Y0262000D01*
X0092761Y0262972D01*
X0092666Y0263328D01*
X0092482Y0263647D01*
X0092221Y0263908D01*
X0092195Y0263923D01*
X0092261Y0263990D01*
X0092261Y0266310D01*
X0091847Y0266725D01*
X0092261Y0267139D01*
X0092261Y0269460D01*
X0091734Y0269987D01*
X0088233Y0269987D01*
X0089124Y0271154D02*
X0097536Y0271154D01*
X0097430Y0271952D02*
X0089230Y0271952D01*
X0089983Y0272751D02*
X0089984Y0272751D01*
X0089983Y0273549D02*
X0089984Y0273549D01*
X0089983Y0274348D02*
X0089984Y0274348D01*
X0092761Y0274348D02*
X0094399Y0274348D01*
X0094399Y0275146D02*
X0092761Y0275146D01*
X0092599Y0275945D02*
X0094683Y0275945D01*
X0094399Y0276743D02*
X0092261Y0276743D01*
X0092261Y0277542D02*
X0094399Y0277542D01*
X0094399Y0278340D02*
X0092261Y0278340D01*
X0091933Y0279139D02*
X0094727Y0279139D01*
X0094399Y0279937D02*
X0092261Y0279937D01*
X0089984Y0277650D02*
X0084176Y0277650D01*
X0081899Y0277542D02*
X0079761Y0277542D01*
X0079761Y0278340D02*
X0081899Y0278340D01*
X0082227Y0279139D02*
X0079433Y0279139D01*
X0079761Y0279937D02*
X0081899Y0279937D01*
X0081899Y0276743D02*
X0079761Y0276743D01*
X0080099Y0275945D02*
X0082183Y0275945D01*
X0081899Y0275146D02*
X0080261Y0275146D01*
X0080261Y0274348D02*
X0081899Y0274348D01*
X0081899Y0273549D02*
X0080261Y0273549D01*
X0079879Y0272751D02*
X0084641Y0272751D01*
X0084930Y0271952D02*
X0076730Y0271952D01*
X0076624Y0271154D02*
X0085036Y0271154D01*
X0085834Y0270355D02*
X0075826Y0270355D01*
X0075733Y0269987D02*
X0075345Y0269600D01*
X0073815Y0269600D01*
X0073427Y0269987D01*
X0069926Y0269987D01*
X0069399Y0269460D01*
X0069399Y0267139D01*
X0069813Y0266725D01*
X0069399Y0266310D01*
X0069399Y0263990D01*
X0069813Y0263575D01*
X0069399Y0263161D01*
X0069399Y0260840D01*
X0069926Y0260313D01*
X0072079Y0260313D01*
X0072430Y0259962D01*
X0072430Y0258759D01*
X0073689Y0257500D01*
X0075471Y0257500D01*
X0076730Y0258759D01*
X0076730Y0259813D01*
X0077483Y0259813D01*
X0077483Y0262000D01*
X0074706Y0262000D01*
X0074706Y0261800D01*
X0074268Y0261800D01*
X0073954Y0262114D01*
X0073954Y0263161D01*
X0073540Y0263575D01*
X0073815Y0263850D01*
X0075188Y0263850D01*
X0074985Y0263647D01*
X0074801Y0263328D01*
X0074706Y0262972D01*
X0074706Y0262000D01*
X0077483Y0262000D01*
X0077483Y0262000D01*
X0077484Y0262000D01*
X0077484Y0262000D01*
X0080261Y0262000D01*
X0080261Y0261029D01*
X0080166Y0260673D01*
X0079982Y0260353D01*
X0079721Y0260093D01*
X0079402Y0259908D01*
X0079046Y0259813D01*
X0077484Y0259813D01*
X0077484Y0262000D01*
X0080261Y0262000D01*
X0080261Y0262972D01*
X0080166Y0263328D01*
X0079982Y0263647D01*
X0079721Y0263908D01*
X0079695Y0263923D01*
X0079761Y0263990D01*
X0079761Y0266310D01*
X0079347Y0266725D01*
X0079761Y0267139D01*
X0079761Y0269460D01*
X0079234Y0269987D01*
X0075733Y0269987D01*
X0073334Y0270355D02*
X0063326Y0270355D01*
X0064124Y0271154D02*
X0072536Y0271154D01*
X0074580Y0272150D02*
X0072230Y0274500D01*
X0071676Y0274500D01*
X0073954Y0275146D02*
X0074706Y0275146D01*
X0074706Y0274348D02*
X0074221Y0274348D01*
X0073670Y0275945D02*
X0074868Y0275945D01*
X0077483Y0274348D02*
X0077484Y0274348D01*
X0077483Y0273549D02*
X0077484Y0273549D01*
X0077483Y0272751D02*
X0077484Y0272751D01*
X0079664Y0269557D02*
X0081996Y0269557D01*
X0081899Y0268758D02*
X0079761Y0268758D01*
X0079761Y0267960D02*
X0081899Y0267960D01*
X0081899Y0267161D02*
X0079761Y0267161D01*
X0079709Y0266363D02*
X0081951Y0266363D01*
X0081899Y0265564D02*
X0079761Y0265564D01*
X0079761Y0264766D02*
X0081899Y0264766D01*
X0081921Y0263967D02*
X0079739Y0263967D01*
X0080209Y0263169D02*
X0081907Y0263169D01*
X0081899Y0262370D02*
X0080261Y0262370D01*
X0080261Y0261572D02*
X0081899Y0261572D01*
X0081966Y0260773D02*
X0080193Y0260773D01*
X0079517Y0259975D02*
X0084917Y0259975D01*
X0084930Y0259176D02*
X0076730Y0259176D01*
X0076348Y0258378D02*
X0085312Y0258378D01*
X0086110Y0257579D02*
X0075550Y0257579D01*
X0073610Y0257579D02*
X0063050Y0257579D01*
X0063848Y0258378D02*
X0072812Y0258378D01*
X0072430Y0259176D02*
X0064230Y0259176D01*
X0064983Y0259975D02*
X0064984Y0259975D01*
X0064983Y0260773D02*
X0064984Y0260773D01*
X0064983Y0261572D02*
X0064984Y0261572D01*
X0067017Y0259975D02*
X0072417Y0259975D01*
X0072230Y0262000D02*
X0074580Y0259650D01*
X0074706Y0262370D02*
X0073954Y0262370D01*
X0073946Y0263169D02*
X0074758Y0263169D01*
X0072230Y0262000D02*
X0071676Y0262000D01*
X0069399Y0262370D02*
X0067761Y0262370D01*
X0067761Y0261572D02*
X0069399Y0261572D01*
X0069466Y0260773D02*
X0067693Y0260773D01*
X0067709Y0263169D02*
X0069407Y0263169D01*
X0069421Y0263967D02*
X0067239Y0263967D01*
X0067261Y0264766D02*
X0069399Y0264766D01*
X0069399Y0265564D02*
X0067261Y0265564D01*
X0067209Y0266363D02*
X0069451Y0266363D01*
X0069399Y0267161D02*
X0067261Y0267161D01*
X0067261Y0267960D02*
X0069399Y0267960D01*
X0069399Y0268758D02*
X0067261Y0268758D01*
X0067164Y0269557D02*
X0069496Y0269557D01*
X0071676Y0268300D02*
X0077484Y0268300D01*
X0077484Y0265150D02*
X0071676Y0265150D01*
X0077483Y0261572D02*
X0077484Y0261572D01*
X0077483Y0260773D02*
X0077484Y0260773D01*
X0077483Y0259975D02*
X0077484Y0259975D01*
X0084176Y0262000D02*
X0084730Y0262000D01*
X0087080Y0259650D01*
X0088848Y0258378D02*
X0097812Y0258378D01*
X0097430Y0259176D02*
X0089230Y0259176D01*
X0089983Y0259975D02*
X0089984Y0259975D01*
X0089983Y0260773D02*
X0089984Y0260773D01*
X0089983Y0261572D02*
X0089984Y0261572D01*
X0092017Y0259975D02*
X0097417Y0259975D01*
X0097230Y0262000D02*
X0099580Y0259650D01*
X0101348Y0258378D02*
X0110312Y0258378D01*
X0109930Y0259176D02*
X0101730Y0259176D01*
X0102483Y0259975D02*
X0102484Y0259975D01*
X0102483Y0260773D02*
X0102484Y0260773D01*
X0102483Y0261572D02*
X0102484Y0261572D01*
X0104517Y0259975D02*
X0109917Y0259975D01*
X0109730Y0262000D02*
X0112080Y0259650D01*
X0113848Y0258378D02*
X0122812Y0258378D01*
X0122430Y0259176D02*
X0114230Y0259176D01*
X0114983Y0259975D02*
X0114984Y0259975D01*
X0114983Y0260773D02*
X0114984Y0260773D01*
X0114983Y0261572D02*
X0114984Y0261572D01*
X0117017Y0259975D02*
X0122417Y0259975D01*
X0122230Y0262000D02*
X0124580Y0259650D01*
X0126348Y0258378D02*
X0135312Y0258378D01*
X0134930Y0259176D02*
X0126730Y0259176D01*
X0127483Y0259975D02*
X0127484Y0259975D01*
X0127483Y0260773D02*
X0127484Y0260773D01*
X0127483Y0261572D02*
X0127484Y0261572D01*
X0129517Y0259975D02*
X0134917Y0259975D01*
X0134730Y0262000D02*
X0137080Y0259650D01*
X0138848Y0258378D02*
X0144430Y0258378D01*
X0144430Y0259176D02*
X0139230Y0259176D01*
X0139983Y0259975D02*
X0139984Y0259975D01*
X0139983Y0260773D02*
X0139984Y0260773D01*
X0139983Y0261572D02*
X0139984Y0261572D01*
X0142017Y0259975D02*
X0144614Y0259975D01*
X0144466Y0260773D02*
X0142693Y0260773D01*
X0142761Y0261572D02*
X0144399Y0261572D01*
X0144399Y0262370D02*
X0142761Y0262370D01*
X0144303Y0263169D02*
X0144407Y0263169D01*
X0146676Y0262000D02*
X0146676Y0258996D01*
X0146580Y0258900D01*
X0144860Y0257579D02*
X0144605Y0257579D01*
X0142055Y0257579D02*
X0138050Y0257579D01*
X0136110Y0257579D02*
X0125550Y0257579D01*
X0123610Y0257579D02*
X0113050Y0257579D01*
X0111110Y0257579D02*
X0100550Y0257579D01*
X0098610Y0257579D02*
X0088050Y0257579D01*
X0087206Y0262370D02*
X0086454Y0262370D01*
X0086446Y0263169D02*
X0087258Y0263169D01*
X0089984Y0265150D02*
X0084176Y0265150D01*
X0084176Y0268300D02*
X0089984Y0268300D01*
X0092261Y0267960D02*
X0094399Y0267960D01*
X0094399Y0268758D02*
X0092261Y0268758D01*
X0092164Y0269557D02*
X0094496Y0269557D01*
X0094399Y0267161D02*
X0092261Y0267161D01*
X0092209Y0266363D02*
X0094451Y0266363D01*
X0094399Y0265564D02*
X0092261Y0265564D01*
X0092261Y0264766D02*
X0094399Y0264766D01*
X0094421Y0263967D02*
X0092239Y0263967D01*
X0092709Y0263169D02*
X0094407Y0263169D01*
X0094399Y0262370D02*
X0092761Y0262370D01*
X0092761Y0261572D02*
X0094399Y0261572D01*
X0094466Y0260773D02*
X0092693Y0260773D01*
X0096676Y0262000D02*
X0097230Y0262000D01*
X0098954Y0262370D02*
X0099706Y0262370D01*
X0099758Y0263169D02*
X0098946Y0263169D01*
X0096676Y0265150D02*
X0102484Y0265150D01*
X0104761Y0264766D02*
X0106899Y0264766D01*
X0106899Y0265564D02*
X0104761Y0265564D01*
X0104709Y0266363D02*
X0106951Y0266363D01*
X0106899Y0267161D02*
X0104761Y0267161D01*
X0104761Y0267960D02*
X0106899Y0267960D01*
X0106899Y0268758D02*
X0104761Y0268758D01*
X0104664Y0269557D02*
X0106996Y0269557D01*
X0109176Y0268300D02*
X0114984Y0268300D01*
X0117261Y0267960D02*
X0119399Y0267960D01*
X0119399Y0268758D02*
X0117261Y0268758D01*
X0117164Y0269557D02*
X0119496Y0269557D01*
X0119399Y0267161D02*
X0117261Y0267161D01*
X0117209Y0266363D02*
X0119451Y0266363D01*
X0119399Y0265564D02*
X0117261Y0265564D01*
X0117261Y0264766D02*
X0119399Y0264766D01*
X0119421Y0263967D02*
X0117239Y0263967D01*
X0117709Y0263169D02*
X0119407Y0263169D01*
X0119399Y0262370D02*
X0117761Y0262370D01*
X0117761Y0261572D02*
X0119399Y0261572D01*
X0119466Y0260773D02*
X0117693Y0260773D01*
X0121676Y0262000D02*
X0122230Y0262000D01*
X0123954Y0262370D02*
X0124706Y0262370D01*
X0124758Y0263169D02*
X0123946Y0263169D01*
X0121676Y0265150D02*
X0127484Y0265150D01*
X0129761Y0264766D02*
X0131899Y0264766D01*
X0131899Y0265564D02*
X0129761Y0265564D01*
X0129709Y0266363D02*
X0131951Y0266363D01*
X0131899Y0267161D02*
X0129761Y0267161D01*
X0129761Y0267960D02*
X0131899Y0267960D01*
X0131899Y0268758D02*
X0129761Y0268758D01*
X0129664Y0269557D02*
X0131996Y0269557D01*
X0134176Y0268300D02*
X0139984Y0268300D01*
X0138326Y0270355D02*
X0142331Y0270355D01*
X0144329Y0270355D02*
X0144584Y0270355D01*
X0144430Y0271154D02*
X0139124Y0271154D01*
X0139230Y0271952D02*
X0144430Y0271952D01*
X0144890Y0272751D02*
X0142379Y0272751D01*
X0142761Y0273549D02*
X0144399Y0273549D01*
X0144399Y0274348D02*
X0142761Y0274348D01*
X0142761Y0275146D02*
X0144399Y0275146D01*
X0144579Y0275945D02*
X0144683Y0275945D01*
X0146676Y0274500D02*
X0146676Y0271496D01*
X0146580Y0271400D01*
X0139984Y0272751D02*
X0139983Y0272751D01*
X0139983Y0273549D02*
X0139984Y0273549D01*
X0139983Y0274348D02*
X0139984Y0274348D01*
X0137206Y0274348D02*
X0136721Y0274348D01*
X0136454Y0275146D02*
X0137206Y0275146D01*
X0137368Y0275945D02*
X0136170Y0275945D01*
X0134730Y0274500D02*
X0137080Y0272150D01*
X0134730Y0274500D02*
X0134176Y0274500D01*
X0134176Y0277650D02*
X0139984Y0277650D01*
X0139984Y0280800D02*
X0134176Y0280800D01*
X0136081Y0282333D02*
X0138079Y0282333D01*
X0138602Y0283132D02*
X0144180Y0283132D01*
X0144180Y0283930D02*
X0139230Y0283930D01*
X0139230Y0284729D02*
X0144180Y0284729D01*
X0144712Y0285527D02*
X0142582Y0285527D01*
X0142761Y0286326D02*
X0144399Y0286326D01*
X0144399Y0287124D02*
X0142761Y0287124D01*
X0142761Y0287923D02*
X0144399Y0287923D01*
X0146676Y0287000D02*
X0146676Y0284246D01*
X0146330Y0283900D01*
X0139984Y0285527D02*
X0139983Y0285527D01*
X0139983Y0286326D02*
X0139984Y0286326D01*
X0137206Y0287124D02*
X0136454Y0287124D01*
X0136454Y0287923D02*
X0137206Y0287923D01*
X0137559Y0288721D02*
X0136186Y0288721D01*
X0134730Y0287000D02*
X0137080Y0284650D01*
X0135558Y0283132D02*
X0126102Y0283132D01*
X0126730Y0283759D02*
X0126730Y0284813D01*
X0127483Y0284813D01*
X0127483Y0287000D01*
X0124706Y0287000D01*
X0124706Y0286800D01*
X0124268Y0286800D01*
X0123954Y0287114D01*
X0123954Y0288161D01*
X0123540Y0288575D01*
X0123815Y0288850D01*
X0125188Y0288850D01*
X0124985Y0288647D01*
X0124801Y0288328D01*
X0124706Y0287972D01*
X0124706Y0287000D01*
X0127483Y0287000D01*
X0127483Y0287000D01*
X0127484Y0287000D01*
X0127484Y0287000D01*
X0130261Y0287000D01*
X0130261Y0286029D01*
X0130166Y0285673D01*
X0129982Y0285353D01*
X0129721Y0285093D01*
X0129402Y0284908D01*
X0129046Y0284813D01*
X0127484Y0284813D01*
X0127484Y0287000D01*
X0130261Y0287000D01*
X0130261Y0287972D01*
X0130166Y0288328D01*
X0129982Y0288647D01*
X0129721Y0288908D01*
X0129695Y0288923D01*
X0129761Y0288990D01*
X0129761Y0291310D01*
X0129347Y0291725D01*
X0129761Y0292139D01*
X0129761Y0294460D01*
X0129234Y0294987D01*
X0125733Y0294987D01*
X0125345Y0294600D01*
X0123815Y0294600D01*
X0123427Y0294987D01*
X0119926Y0294987D01*
X0119399Y0294460D01*
X0119399Y0292139D01*
X0119813Y0291725D01*
X0119399Y0291310D01*
X0119399Y0288990D01*
X0119813Y0288575D01*
X0119399Y0288161D01*
X0119399Y0285840D01*
X0119926Y0285313D01*
X0122079Y0285313D01*
X0122430Y0284962D01*
X0122430Y0283759D01*
X0123689Y0282500D01*
X0125471Y0282500D01*
X0126730Y0283759D01*
X0126730Y0283930D02*
X0134930Y0283930D01*
X0134930Y0284729D02*
X0126730Y0284729D01*
X0127483Y0285527D02*
X0127484Y0285527D01*
X0127483Y0286326D02*
X0127484Y0286326D01*
X0130082Y0285527D02*
X0132212Y0285527D01*
X0131899Y0286326D02*
X0130261Y0286326D01*
X0130261Y0287124D02*
X0131899Y0287124D01*
X0131899Y0287923D02*
X0130261Y0287923D01*
X0129908Y0288721D02*
X0132167Y0288721D01*
X0131899Y0289520D02*
X0129761Y0289520D01*
X0129761Y0290318D02*
X0131899Y0290318D01*
X0131899Y0291117D02*
X0129761Y0291117D01*
X0129537Y0291915D02*
X0132123Y0291915D01*
X0131899Y0292714D02*
X0129761Y0292714D01*
X0129761Y0293512D02*
X0131899Y0293512D01*
X0131899Y0294311D02*
X0129761Y0294311D01*
X0127484Y0293300D02*
X0121676Y0293300D01*
X0119399Y0293512D02*
X0117261Y0293512D01*
X0117261Y0292714D02*
X0119399Y0292714D01*
X0119623Y0291915D02*
X0117037Y0291915D01*
X0116847Y0291725D02*
X0117261Y0292139D01*
X0117261Y0294460D01*
X0116734Y0294987D01*
X0113233Y0294987D01*
X0112845Y0294600D01*
X0111315Y0294600D01*
X0110927Y0294987D01*
X0107426Y0294987D01*
X0106899Y0294460D01*
X0106899Y0292139D01*
X0107313Y0291725D01*
X0106899Y0291310D01*
X0106899Y0288990D01*
X0107313Y0288575D01*
X0106899Y0288161D01*
X0106899Y0285840D01*
X0107426Y0285313D01*
X0109579Y0285313D01*
X0109930Y0284962D01*
X0109930Y0283759D01*
X0111189Y0282500D01*
X0112971Y0282500D01*
X0114230Y0283759D01*
X0114230Y0284813D01*
X0114983Y0284813D01*
X0114983Y0287000D01*
X0112206Y0287000D01*
X0112206Y0286800D01*
X0111768Y0286800D01*
X0111454Y0287114D01*
X0111454Y0288161D01*
X0111040Y0288575D01*
X0111315Y0288850D01*
X0112688Y0288850D01*
X0112485Y0288647D01*
X0112301Y0288328D01*
X0112206Y0287972D01*
X0112206Y0287000D01*
X0114983Y0287000D01*
X0114983Y0287000D01*
X0114984Y0287000D01*
X0114984Y0287000D01*
X0117761Y0287000D01*
X0117761Y0286029D01*
X0117666Y0285673D01*
X0117482Y0285353D01*
X0117221Y0285093D01*
X0116902Y0284908D01*
X0116546Y0284813D01*
X0114984Y0284813D01*
X0114984Y0287000D01*
X0117761Y0287000D01*
X0117761Y0287972D01*
X0117666Y0288328D01*
X0117482Y0288647D01*
X0117221Y0288908D01*
X0117195Y0288923D01*
X0117261Y0288990D01*
X0117261Y0291310D01*
X0116847Y0291725D01*
X0117261Y0291117D02*
X0119399Y0291117D01*
X0119399Y0290318D02*
X0117261Y0290318D01*
X0117261Y0289520D02*
X0119399Y0289520D01*
X0119667Y0288721D02*
X0117408Y0288721D01*
X0117761Y0287923D02*
X0119399Y0287923D01*
X0119399Y0287124D02*
X0117761Y0287124D01*
X0117761Y0286326D02*
X0119399Y0286326D01*
X0119712Y0285527D02*
X0117582Y0285527D01*
X0114984Y0285527D02*
X0114983Y0285527D01*
X0114983Y0286326D02*
X0114984Y0286326D01*
X0114230Y0284729D02*
X0122430Y0284729D01*
X0122430Y0283930D02*
X0114230Y0283930D01*
X0113602Y0283132D02*
X0123058Y0283132D01*
X0123581Y0282333D02*
X0125579Y0282333D01*
X0124580Y0284650D02*
X0122230Y0287000D01*
X0121676Y0287000D01*
X0123954Y0287124D02*
X0124706Y0287124D01*
X0124706Y0287923D02*
X0123954Y0287923D01*
X0123686Y0288721D02*
X0125059Y0288721D01*
X0127484Y0290150D02*
X0121676Y0290150D01*
X0119399Y0294311D02*
X0117261Y0294311D01*
X0114984Y0293300D02*
X0109176Y0293300D01*
X0106899Y0293512D02*
X0104761Y0293512D01*
X0104761Y0292714D02*
X0106899Y0292714D01*
X0107123Y0291915D02*
X0104537Y0291915D01*
X0104347Y0291725D02*
X0104761Y0292139D01*
X0104761Y0294460D01*
X0104234Y0294987D01*
X0100733Y0294987D01*
X0100345Y0294600D01*
X0098815Y0294600D01*
X0098427Y0294987D01*
X0094926Y0294987D01*
X0094399Y0294460D01*
X0094399Y0292139D01*
X0094813Y0291725D01*
X0094399Y0291310D01*
X0094399Y0288990D01*
X0094813Y0288575D01*
X0094399Y0288161D01*
X0094399Y0285840D01*
X0094926Y0285313D01*
X0097079Y0285313D01*
X0097430Y0284962D01*
X0097430Y0283759D01*
X0098689Y0282500D01*
X0100471Y0282500D01*
X0101730Y0283759D01*
X0101730Y0284813D01*
X0102483Y0284813D01*
X0102483Y0287000D01*
X0099706Y0287000D01*
X0099706Y0286800D01*
X0099268Y0286800D01*
X0098954Y0287114D01*
X0098954Y0288161D01*
X0098540Y0288575D01*
X0098815Y0288850D01*
X0100188Y0288850D01*
X0099985Y0288647D01*
X0099801Y0288328D01*
X0099706Y0287972D01*
X0099706Y0287000D01*
X0102483Y0287000D01*
X0102483Y0287000D01*
X0102484Y0287000D01*
X0102484Y0287000D01*
X0105261Y0287000D01*
X0105261Y0286029D01*
X0105166Y0285673D01*
X0104982Y0285353D01*
X0104721Y0285093D01*
X0104402Y0284908D01*
X0104046Y0284813D01*
X0102484Y0284813D01*
X0102484Y0287000D01*
X0105261Y0287000D01*
X0105261Y0287972D01*
X0105166Y0288328D01*
X0104982Y0288647D01*
X0104721Y0288908D01*
X0104695Y0288923D01*
X0104761Y0288990D01*
X0104761Y0291310D01*
X0104347Y0291725D01*
X0104761Y0291117D02*
X0106899Y0291117D01*
X0106899Y0290318D02*
X0104761Y0290318D01*
X0104761Y0289520D02*
X0106899Y0289520D01*
X0107167Y0288721D02*
X0104908Y0288721D01*
X0105261Y0287923D02*
X0106899Y0287923D01*
X0106899Y0287124D02*
X0105261Y0287124D01*
X0105261Y0286326D02*
X0106899Y0286326D01*
X0107212Y0285527D02*
X0105082Y0285527D01*
X0102484Y0285527D02*
X0102483Y0285527D01*
X0102483Y0286326D02*
X0102484Y0286326D01*
X0101730Y0284729D02*
X0109930Y0284729D01*
X0109930Y0283930D02*
X0101730Y0283930D01*
X0101102Y0283132D02*
X0110558Y0283132D01*
X0111081Y0282333D02*
X0113079Y0282333D01*
X0112080Y0284650D02*
X0109730Y0287000D01*
X0109176Y0287000D01*
X0111454Y0287124D02*
X0112206Y0287124D01*
X0112206Y0287923D02*
X0111454Y0287923D01*
X0111186Y0288721D02*
X0112559Y0288721D01*
X0114984Y0290150D02*
X0109176Y0290150D01*
X0106899Y0294311D02*
X0104761Y0294311D01*
X0102484Y0293300D02*
X0096676Y0293300D01*
X0094399Y0293512D02*
X0092261Y0293512D01*
X0092261Y0292714D02*
X0094399Y0292714D01*
X0094623Y0291915D02*
X0092037Y0291915D01*
X0092261Y0291117D02*
X0094399Y0291117D01*
X0094399Y0290318D02*
X0092261Y0290318D01*
X0092261Y0289520D02*
X0094399Y0289520D01*
X0094667Y0288721D02*
X0092408Y0288721D01*
X0092761Y0287923D02*
X0094399Y0287923D01*
X0094399Y0287124D02*
X0092761Y0287124D01*
X0092761Y0286326D02*
X0094399Y0286326D01*
X0094712Y0285527D02*
X0092582Y0285527D01*
X0089984Y0285527D02*
X0089983Y0285527D01*
X0089983Y0286326D02*
X0089984Y0286326D01*
X0089230Y0284729D02*
X0097430Y0284729D01*
X0097430Y0283930D02*
X0089230Y0283930D01*
X0088602Y0283132D02*
X0098058Y0283132D01*
X0098581Y0282333D02*
X0100579Y0282333D01*
X0099580Y0284650D02*
X0097230Y0287000D01*
X0096676Y0287000D01*
X0098954Y0287124D02*
X0099706Y0287124D01*
X0099706Y0287923D02*
X0098954Y0287923D01*
X0098686Y0288721D02*
X0100059Y0288721D01*
X0102484Y0290150D02*
X0096676Y0290150D01*
X0094399Y0294311D02*
X0092261Y0294311D01*
X0089984Y0293300D02*
X0084176Y0293300D01*
X0081899Y0294311D02*
X0079761Y0294311D01*
X0079046Y0297313D02*
X0079402Y0297408D01*
X0079721Y0297593D01*
X0079982Y0297853D01*
X0080166Y0298173D01*
X0080261Y0298529D01*
X0080261Y0299500D01*
X0077484Y0299500D01*
X0077484Y0299500D01*
X0077484Y0297313D01*
X0079046Y0297313D01*
X0079569Y0297505D02*
X0084887Y0297505D01*
X0084930Y0297462D02*
X0084930Y0296259D01*
X0086189Y0295000D01*
X0087971Y0295000D01*
X0089230Y0296259D01*
X0089230Y0297313D01*
X0089983Y0297313D01*
X0089983Y0299500D01*
X0087206Y0299500D01*
X0087206Y0299300D01*
X0086768Y0299300D01*
X0086454Y0299614D01*
X0086454Y0300661D01*
X0086040Y0301075D01*
X0086315Y0301350D01*
X0087688Y0301350D01*
X0087485Y0301147D01*
X0087301Y0300828D01*
X0087206Y0300472D01*
X0087206Y0299500D01*
X0089983Y0299500D01*
X0089983Y0299500D01*
X0089984Y0299500D01*
X0089984Y0299500D01*
X0092761Y0299500D01*
X0092761Y0298529D01*
X0092666Y0298173D01*
X0092482Y0297853D01*
X0092221Y0297593D01*
X0091902Y0297408D01*
X0091546Y0297313D01*
X0089984Y0297313D01*
X0089984Y0299500D01*
X0092761Y0299500D01*
X0092761Y0300472D01*
X0092666Y0300828D01*
X0092482Y0301147D01*
X0092221Y0301408D01*
X0092195Y0301423D01*
X0092261Y0301490D01*
X0092261Y0303810D01*
X0091847Y0304225D01*
X0092261Y0304639D01*
X0092261Y0306960D01*
X0091734Y0307487D01*
X0088233Y0307487D01*
X0087845Y0307100D01*
X0086315Y0307100D01*
X0085927Y0307487D01*
X0082426Y0307487D01*
X0081899Y0306960D01*
X0081899Y0304639D01*
X0082313Y0304225D01*
X0081899Y0303810D01*
X0081899Y0301490D01*
X0082313Y0301075D01*
X0081899Y0300661D01*
X0081899Y0298340D01*
X0082426Y0297813D01*
X0084579Y0297813D01*
X0084930Y0297462D01*
X0084930Y0296706D02*
X0076730Y0296706D01*
X0076730Y0296259D02*
X0076730Y0297313D01*
X0077483Y0297313D01*
X0077483Y0299500D01*
X0074706Y0299500D01*
X0074706Y0299300D01*
X0074268Y0299300D01*
X0073954Y0299614D01*
X0073954Y0300661D01*
X0073540Y0301075D01*
X0073815Y0301350D01*
X0075188Y0301350D01*
X0074985Y0301147D01*
X0074801Y0300828D01*
X0074706Y0300472D01*
X0074706Y0299500D01*
X0077483Y0299500D01*
X0077483Y0299500D01*
X0077484Y0299500D01*
X0080261Y0299500D01*
X0080261Y0300472D01*
X0080166Y0300828D01*
X0079982Y0301147D01*
X0079721Y0301408D01*
X0079695Y0301423D01*
X0079761Y0301490D01*
X0079761Y0303810D01*
X0079347Y0304225D01*
X0079761Y0304639D01*
X0079761Y0306960D01*
X0079234Y0307487D01*
X0075733Y0307487D01*
X0075345Y0307100D01*
X0073815Y0307100D01*
X0073427Y0307487D01*
X0069926Y0307487D01*
X0069399Y0306960D01*
X0069399Y0304639D01*
X0069813Y0304225D01*
X0069399Y0303810D01*
X0069399Y0301490D01*
X0069813Y0301075D01*
X0069399Y0300661D01*
X0069399Y0298340D01*
X0069926Y0297813D01*
X0072079Y0297813D01*
X0072430Y0297462D01*
X0072430Y0296259D01*
X0073689Y0295000D01*
X0075471Y0295000D01*
X0076730Y0296259D01*
X0076378Y0295908D02*
X0085282Y0295908D01*
X0086080Y0295109D02*
X0075580Y0295109D01*
X0073580Y0295109D02*
X0063080Y0295109D01*
X0063878Y0295908D02*
X0072782Y0295908D01*
X0072430Y0296706D02*
X0064230Y0296706D01*
X0064983Y0297505D02*
X0064984Y0297505D01*
X0064983Y0298303D02*
X0064984Y0298303D01*
X0064983Y0299102D02*
X0064984Y0299102D01*
X0067069Y0297505D02*
X0072387Y0297505D01*
X0072230Y0299500D02*
X0074580Y0297150D01*
X0074706Y0299900D02*
X0073954Y0299900D01*
X0073916Y0300699D02*
X0074766Y0300699D01*
X0072230Y0299500D02*
X0071676Y0299500D01*
X0069399Y0299102D02*
X0067761Y0299102D01*
X0067761Y0299900D02*
X0069399Y0299900D01*
X0069437Y0300699D02*
X0067701Y0300699D01*
X0067261Y0301497D02*
X0069399Y0301497D01*
X0069399Y0302296D02*
X0067261Y0302296D01*
X0067261Y0303094D02*
X0069399Y0303094D01*
X0069481Y0303893D02*
X0067179Y0303893D01*
X0067261Y0304691D02*
X0069399Y0304691D01*
X0069399Y0305490D02*
X0067261Y0305490D01*
X0067261Y0306288D02*
X0069399Y0306288D01*
X0069526Y0307087D02*
X0067134Y0307087D01*
X0064984Y0305800D02*
X0059176Y0305800D01*
X0060804Y0307885D02*
X0056799Y0307885D01*
X0054861Y0307885D02*
X0050780Y0307885D01*
X0050780Y0308684D02*
X0060006Y0308684D01*
X0059930Y0309482D02*
X0050780Y0309482D01*
X0052483Y0310281D02*
X0052484Y0310281D01*
X0052483Y0311079D02*
X0052484Y0311079D01*
X0052483Y0311878D02*
X0052484Y0311878D01*
X0055261Y0311878D02*
X0056899Y0311878D01*
X0056899Y0312676D02*
X0055261Y0312676D01*
X0055261Y0311079D02*
X0056899Y0311079D01*
X0054909Y0310281D02*
X0059611Y0310281D01*
X0059730Y0312000D02*
X0062080Y0309650D01*
X0064230Y0309482D02*
X0072430Y0309482D01*
X0072430Y0309962D02*
X0072430Y0308759D01*
X0073689Y0307500D01*
X0075471Y0307500D01*
X0076730Y0308759D01*
X0076730Y0309813D01*
X0077483Y0309813D01*
X0077483Y0312000D01*
X0074706Y0312000D01*
X0074706Y0311800D01*
X0074268Y0311800D01*
X0073954Y0312114D01*
X0073954Y0313161D01*
X0073540Y0313575D01*
X0073815Y0313850D01*
X0075188Y0313850D01*
X0074985Y0313647D01*
X0074801Y0313328D01*
X0074706Y0312972D01*
X0074706Y0312000D01*
X0077483Y0312000D01*
X0077483Y0312000D01*
X0077484Y0312000D01*
X0077484Y0312000D01*
X0080261Y0312000D01*
X0080261Y0311029D01*
X0080166Y0310673D01*
X0079982Y0310353D01*
X0079721Y0310093D01*
X0079402Y0309908D01*
X0079046Y0309813D01*
X0077484Y0309813D01*
X0077484Y0312000D01*
X0080261Y0312000D01*
X0080261Y0312972D01*
X0080166Y0313328D01*
X0079982Y0313647D01*
X0079721Y0313908D01*
X0079695Y0313923D01*
X0079761Y0313990D01*
X0079761Y0316310D01*
X0079347Y0316725D01*
X0079761Y0317139D01*
X0079761Y0319460D01*
X0079234Y0319987D01*
X0075733Y0319987D01*
X0075345Y0319600D01*
X0073815Y0319600D01*
X0073427Y0319987D01*
X0069926Y0319987D01*
X0069399Y0319460D01*
X0069399Y0317139D01*
X0069813Y0316725D01*
X0069399Y0316310D01*
X0069399Y0313990D01*
X0069813Y0313575D01*
X0069399Y0313161D01*
X0069399Y0310840D01*
X0069926Y0310313D01*
X0072079Y0310313D01*
X0072430Y0309962D01*
X0072111Y0310281D02*
X0067409Y0310281D01*
X0067761Y0311079D02*
X0069399Y0311079D01*
X0069399Y0311878D02*
X0067761Y0311878D01*
X0067761Y0312676D02*
X0069399Y0312676D01*
X0069713Y0313475D02*
X0067581Y0313475D01*
X0067261Y0314273D02*
X0069399Y0314273D01*
X0069399Y0315072D02*
X0067261Y0315072D01*
X0067261Y0315870D02*
X0069399Y0315870D01*
X0069757Y0316669D02*
X0066903Y0316669D01*
X0067261Y0317468D02*
X0069399Y0317468D01*
X0069399Y0318266D02*
X0067261Y0318266D01*
X0067261Y0319065D02*
X0069399Y0319065D01*
X0069802Y0319863D02*
X0066858Y0319863D01*
X0064984Y0318300D02*
X0059176Y0318300D01*
X0061051Y0319863D02*
X0063109Y0319863D01*
X0063632Y0320662D02*
X0073028Y0320662D01*
X0072430Y0321259D02*
X0073689Y0320000D01*
X0075471Y0320000D01*
X0076730Y0321259D01*
X0076730Y0322313D01*
X0077483Y0322313D01*
X0077483Y0324500D01*
X0074706Y0324500D01*
X0074706Y0324300D01*
X0074268Y0324300D01*
X0073954Y0324614D01*
X0073954Y0325661D01*
X0073540Y0326075D01*
X0073815Y0326350D01*
X0075188Y0326350D01*
X0074985Y0326147D01*
X0074801Y0325828D01*
X0074706Y0325472D01*
X0074706Y0324500D01*
X0077483Y0324500D01*
X0077483Y0324500D01*
X0077484Y0324500D01*
X0077484Y0324500D01*
X0080261Y0324500D01*
X0080261Y0323529D01*
X0080166Y0323173D01*
X0079982Y0322853D01*
X0079721Y0322593D01*
X0079402Y0322408D01*
X0079046Y0322313D01*
X0077484Y0322313D01*
X0077484Y0324500D01*
X0080261Y0324500D01*
X0080261Y0325472D01*
X0080166Y0325828D01*
X0079982Y0326147D01*
X0079721Y0326408D01*
X0079695Y0326423D01*
X0079761Y0326490D01*
X0079761Y0328810D01*
X0079347Y0329225D01*
X0079761Y0329639D01*
X0079761Y0331960D01*
X0079234Y0332487D01*
X0075733Y0332487D01*
X0075345Y0332100D01*
X0073815Y0332100D01*
X0073427Y0332487D01*
X0069926Y0332487D01*
X0069399Y0331960D01*
X0069399Y0329639D01*
X0069813Y0329225D01*
X0069399Y0328810D01*
X0069399Y0326490D01*
X0069813Y0326075D01*
X0069399Y0325661D01*
X0069399Y0323340D01*
X0069926Y0322813D01*
X0072079Y0322813D01*
X0072430Y0322462D01*
X0072430Y0321259D01*
X0072430Y0321460D02*
X0064230Y0321460D01*
X0064230Y0322259D02*
X0072430Y0322259D01*
X0074580Y0322150D02*
X0072230Y0324500D01*
X0071676Y0324500D01*
X0069399Y0324654D02*
X0067761Y0324654D01*
X0067761Y0323856D02*
X0069399Y0323856D01*
X0069682Y0323057D02*
X0067599Y0323057D01*
X0067761Y0325453D02*
X0069399Y0325453D01*
X0069637Y0326251D02*
X0067378Y0326251D01*
X0067261Y0327050D02*
X0069399Y0327050D01*
X0069399Y0327848D02*
X0067261Y0327848D01*
X0067261Y0328647D02*
X0069399Y0328647D01*
X0069593Y0329445D02*
X0067067Y0329445D01*
X0067261Y0330244D02*
X0069399Y0330244D01*
X0069399Y0331042D02*
X0067261Y0331042D01*
X0067261Y0331841D02*
X0069399Y0331841D01*
X0071676Y0330800D02*
X0077484Y0330800D01*
X0079761Y0331042D02*
X0081899Y0331042D01*
X0081899Y0330244D02*
X0079761Y0330244D01*
X0079567Y0329445D02*
X0082093Y0329445D01*
X0081899Y0329639D02*
X0082313Y0329225D01*
X0081899Y0328810D01*
X0081899Y0326490D01*
X0082313Y0326075D01*
X0081899Y0325661D01*
X0081899Y0323340D01*
X0082426Y0322813D01*
X0084579Y0322813D01*
X0084930Y0322462D01*
X0084930Y0321259D01*
X0086189Y0320000D01*
X0087971Y0320000D01*
X0089230Y0321259D01*
X0089230Y0322313D01*
X0089983Y0322313D01*
X0089983Y0324500D01*
X0087206Y0324500D01*
X0087206Y0324300D01*
X0086768Y0324300D01*
X0086454Y0324614D01*
X0086454Y0325661D01*
X0086040Y0326075D01*
X0086315Y0326350D01*
X0087688Y0326350D01*
X0087485Y0326147D01*
X0087301Y0325828D01*
X0087206Y0325472D01*
X0087206Y0324500D01*
X0089983Y0324500D01*
X0089983Y0324500D01*
X0089984Y0324500D01*
X0089984Y0324500D01*
X0092761Y0324500D01*
X0092761Y0323529D01*
X0092666Y0323173D01*
X0092482Y0322853D01*
X0092221Y0322593D01*
X0091902Y0322408D01*
X0091546Y0322313D01*
X0089984Y0322313D01*
X0089984Y0324500D01*
X0092761Y0324500D01*
X0092761Y0325472D01*
X0092666Y0325828D01*
X0092482Y0326147D01*
X0092221Y0326408D01*
X0092195Y0326423D01*
X0092261Y0326490D01*
X0092261Y0328810D01*
X0091847Y0329225D01*
X0092261Y0329639D01*
X0092261Y0331960D01*
X0091734Y0332487D01*
X0088458Y0332487D01*
X0089480Y0333509D01*
X0089480Y0334813D01*
X0089983Y0334813D01*
X0089983Y0337000D01*
X0087206Y0337000D01*
X0087206Y0336550D01*
X0087018Y0336550D01*
X0086454Y0337114D01*
X0086454Y0338161D01*
X0086040Y0338575D01*
X0086315Y0338850D01*
X0087688Y0338850D01*
X0087485Y0338647D01*
X0087301Y0338328D01*
X0087206Y0337972D01*
X0087206Y0337000D01*
X0089983Y0337000D01*
X0089983Y0337000D01*
X0089984Y0337000D01*
X0089984Y0337000D01*
X0092761Y0337000D01*
X0092761Y0336029D01*
X0092666Y0335673D01*
X0092482Y0335353D01*
X0092221Y0335093D01*
X0091902Y0334908D01*
X0091546Y0334813D01*
X0089984Y0334813D01*
X0089984Y0337000D01*
X0092761Y0337000D01*
X0092761Y0337972D01*
X0092666Y0338328D01*
X0092482Y0338647D01*
X0092221Y0338908D01*
X0092195Y0338923D01*
X0092261Y0338990D01*
X0092261Y0341310D01*
X0091847Y0341725D01*
X0092261Y0342139D01*
X0092261Y0344460D01*
X0091734Y0344987D01*
X0088233Y0344987D01*
X0087845Y0344600D01*
X0086315Y0344600D01*
X0085927Y0344987D01*
X0082426Y0344987D01*
X0081899Y0344460D01*
X0081899Y0342139D01*
X0082313Y0341725D01*
X0081899Y0341310D01*
X0081899Y0338990D01*
X0082313Y0338575D01*
X0081899Y0338161D01*
X0081899Y0335840D01*
X0082426Y0335313D01*
X0084579Y0335313D01*
X0085180Y0334712D01*
X0085180Y0333509D01*
X0086439Y0332250D01*
X0087996Y0332250D01*
X0087845Y0332100D01*
X0086315Y0332100D01*
X0085927Y0332487D01*
X0082426Y0332487D01*
X0081899Y0331960D01*
X0081899Y0329639D01*
X0081899Y0328647D02*
X0079761Y0328647D01*
X0079761Y0327848D02*
X0081899Y0327848D01*
X0081899Y0327050D02*
X0079761Y0327050D01*
X0079878Y0326251D02*
X0082137Y0326251D01*
X0081899Y0325453D02*
X0080261Y0325453D01*
X0080261Y0324654D02*
X0081899Y0324654D01*
X0081899Y0323856D02*
X0080261Y0323856D01*
X0080099Y0323057D02*
X0082182Y0323057D01*
X0084176Y0324500D02*
X0084730Y0324500D01*
X0087080Y0322150D01*
X0085528Y0320662D02*
X0076132Y0320662D01*
X0075609Y0319863D02*
X0073551Y0319863D01*
X0071676Y0318300D02*
X0077484Y0318300D01*
X0079761Y0318266D02*
X0081899Y0318266D01*
X0081899Y0317468D02*
X0079761Y0317468D01*
X0079403Y0316669D02*
X0082257Y0316669D01*
X0082313Y0316725D02*
X0081899Y0316310D01*
X0081899Y0313990D01*
X0082313Y0313575D01*
X0081899Y0313161D01*
X0081899Y0310840D01*
X0082426Y0310313D01*
X0084579Y0310313D01*
X0084930Y0309962D01*
X0084930Y0308759D01*
X0086189Y0307500D01*
X0087971Y0307500D01*
X0089230Y0308759D01*
X0089230Y0309813D01*
X0089983Y0309813D01*
X0089983Y0312000D01*
X0087206Y0312000D01*
X0087206Y0311800D01*
X0086768Y0311800D01*
X0086454Y0312114D01*
X0086454Y0313161D01*
X0086040Y0313575D01*
X0086315Y0313850D01*
X0087688Y0313850D01*
X0087485Y0313647D01*
X0087301Y0313328D01*
X0087206Y0312972D01*
X0087206Y0312000D01*
X0089983Y0312000D01*
X0089983Y0312000D01*
X0089984Y0312000D01*
X0089984Y0312000D01*
X0092761Y0312000D01*
X0092761Y0311029D01*
X0092666Y0310673D01*
X0092482Y0310353D01*
X0092221Y0310093D01*
X0091902Y0309908D01*
X0091546Y0309813D01*
X0089984Y0309813D01*
X0089984Y0312000D01*
X0092761Y0312000D01*
X0092761Y0312972D01*
X0092666Y0313328D01*
X0092482Y0313647D01*
X0092221Y0313908D01*
X0092195Y0313923D01*
X0092261Y0313990D01*
X0092261Y0316310D01*
X0091847Y0316725D01*
X0092261Y0317139D01*
X0092261Y0319460D01*
X0091734Y0319987D01*
X0088233Y0319987D01*
X0087845Y0319600D01*
X0086315Y0319600D01*
X0085927Y0319987D01*
X0082426Y0319987D01*
X0081899Y0319460D01*
X0081899Y0317139D01*
X0082313Y0316725D01*
X0081899Y0315870D02*
X0079761Y0315870D01*
X0079761Y0315072D02*
X0081899Y0315072D01*
X0081899Y0314273D02*
X0079761Y0314273D01*
X0080081Y0313475D02*
X0082213Y0313475D01*
X0081899Y0312676D02*
X0080261Y0312676D01*
X0080261Y0311878D02*
X0081899Y0311878D01*
X0081899Y0311079D02*
X0080261Y0311079D01*
X0079909Y0310281D02*
X0084611Y0310281D01*
X0084930Y0309482D02*
X0076730Y0309482D01*
X0076654Y0308684D02*
X0085006Y0308684D01*
X0085804Y0307885D02*
X0075856Y0307885D01*
X0074580Y0309650D02*
X0072230Y0312000D01*
X0071676Y0312000D01*
X0073954Y0312676D02*
X0074706Y0312676D01*
X0074706Y0311878D02*
X0074191Y0311878D01*
X0073640Y0313475D02*
X0074886Y0313475D01*
X0077483Y0311878D02*
X0077484Y0311878D01*
X0077483Y0311079D02*
X0077484Y0311079D01*
X0077483Y0310281D02*
X0077484Y0310281D01*
X0079634Y0307087D02*
X0082026Y0307087D01*
X0081899Y0306288D02*
X0079761Y0306288D01*
X0079761Y0305490D02*
X0081899Y0305490D01*
X0081899Y0304691D02*
X0079761Y0304691D01*
X0079679Y0303893D02*
X0081981Y0303893D01*
X0081899Y0303094D02*
X0079761Y0303094D01*
X0079761Y0302296D02*
X0081899Y0302296D01*
X0081899Y0301497D02*
X0079761Y0301497D01*
X0080201Y0300699D02*
X0081937Y0300699D01*
X0081899Y0299900D02*
X0080261Y0299900D01*
X0080261Y0299102D02*
X0081899Y0299102D01*
X0081935Y0298303D02*
X0080201Y0298303D01*
X0077484Y0298303D02*
X0077483Y0298303D01*
X0077483Y0297505D02*
X0077484Y0297505D01*
X0077483Y0299102D02*
X0077484Y0299102D01*
X0077484Y0302650D02*
X0071676Y0302650D01*
X0071676Y0305800D02*
X0077484Y0305800D01*
X0073304Y0307885D02*
X0063356Y0307885D01*
X0064154Y0308684D02*
X0072506Y0308684D01*
X0071676Y0315150D02*
X0077484Y0315150D01*
X0079761Y0319065D02*
X0081899Y0319065D01*
X0082302Y0319863D02*
X0079358Y0319863D01*
X0076730Y0321460D02*
X0084930Y0321460D01*
X0084930Y0322259D02*
X0076730Y0322259D01*
X0077483Y0323057D02*
X0077484Y0323057D01*
X0077483Y0323856D02*
X0077484Y0323856D01*
X0074706Y0324654D02*
X0073954Y0324654D01*
X0073954Y0325453D02*
X0074706Y0325453D01*
X0075089Y0326251D02*
X0073716Y0326251D01*
X0071676Y0327650D02*
X0077484Y0327650D01*
X0079761Y0331841D02*
X0081899Y0331841D01*
X0084176Y0330800D02*
X0089984Y0330800D01*
X0092261Y0331042D02*
X0094399Y0331042D01*
X0094399Y0330244D02*
X0092261Y0330244D01*
X0092067Y0329445D02*
X0094593Y0329445D01*
X0094399Y0329639D02*
X0094813Y0329225D01*
X0094399Y0328810D01*
X0094399Y0326490D01*
X0094813Y0326075D01*
X0094399Y0325661D01*
X0094399Y0323340D01*
X0094926Y0322813D01*
X0097079Y0322813D01*
X0097430Y0322462D01*
X0097430Y0321259D01*
X0098689Y0320000D01*
X0100471Y0320000D01*
X0101730Y0321259D01*
X0101730Y0322313D01*
X0102483Y0322313D01*
X0102483Y0324500D01*
X0099706Y0324500D01*
X0099706Y0324300D01*
X0099268Y0324300D01*
X0098954Y0324614D01*
X0098954Y0325661D01*
X0098540Y0326075D01*
X0098815Y0326350D01*
X0100188Y0326350D01*
X0099985Y0326147D01*
X0099801Y0325828D01*
X0099706Y0325472D01*
X0099706Y0324500D01*
X0102483Y0324500D01*
X0102483Y0324500D01*
X0102484Y0324500D01*
X0102484Y0324500D01*
X0105261Y0324500D01*
X0105261Y0323529D01*
X0105166Y0323173D01*
X0104982Y0322853D01*
X0104721Y0322593D01*
X0104402Y0322408D01*
X0104046Y0322313D01*
X0102484Y0322313D01*
X0102484Y0324500D01*
X0105261Y0324500D01*
X0105261Y0325472D01*
X0105166Y0325828D01*
X0104982Y0326147D01*
X0104721Y0326408D01*
X0104695Y0326423D01*
X0104761Y0326490D01*
X0104761Y0328810D01*
X0104347Y0329225D01*
X0104761Y0329639D01*
X0104761Y0331960D01*
X0104234Y0332487D01*
X0100733Y0332487D01*
X0100345Y0332100D01*
X0098815Y0332100D01*
X0098427Y0332487D01*
X0094926Y0332487D01*
X0094399Y0331960D01*
X0094399Y0329639D01*
X0094399Y0328647D02*
X0092261Y0328647D01*
X0092261Y0327848D02*
X0094399Y0327848D01*
X0094399Y0327050D02*
X0092261Y0327050D01*
X0092378Y0326251D02*
X0094637Y0326251D01*
X0094399Y0325453D02*
X0092761Y0325453D01*
X0092761Y0324654D02*
X0094399Y0324654D01*
X0094399Y0323856D02*
X0092761Y0323856D01*
X0092599Y0323057D02*
X0094682Y0323057D01*
X0096676Y0324500D02*
X0097230Y0324500D01*
X0099580Y0322150D01*
X0098028Y0320662D02*
X0088632Y0320662D01*
X0088109Y0319863D02*
X0086051Y0319863D01*
X0084176Y0318300D02*
X0089984Y0318300D01*
X0092261Y0318266D02*
X0094399Y0318266D01*
X0094399Y0317468D02*
X0092261Y0317468D01*
X0091903Y0316669D02*
X0094757Y0316669D01*
X0094813Y0316725D02*
X0094399Y0316310D01*
X0094399Y0313990D01*
X0094813Y0313575D01*
X0094399Y0313161D01*
X0094399Y0310840D01*
X0094926Y0310313D01*
X0097079Y0310313D01*
X0097430Y0309962D01*
X0097430Y0308759D01*
X0098689Y0307500D01*
X0100471Y0307500D01*
X0101730Y0308759D01*
X0101730Y0309813D01*
X0102483Y0309813D01*
X0102483Y0312000D01*
X0099706Y0312000D01*
X0099706Y0311800D01*
X0099268Y0311800D01*
X0098954Y0312114D01*
X0098954Y0313161D01*
X0098540Y0313575D01*
X0098815Y0313850D01*
X0100188Y0313850D01*
X0099985Y0313647D01*
X0099801Y0313328D01*
X0099706Y0312972D01*
X0099706Y0312000D01*
X0102483Y0312000D01*
X0102483Y0312000D01*
X0102484Y0312000D01*
X0102484Y0312000D01*
X0105261Y0312000D01*
X0105261Y0311029D01*
X0105166Y0310673D01*
X0104982Y0310353D01*
X0104721Y0310093D01*
X0104402Y0309908D01*
X0104046Y0309813D01*
X0102484Y0309813D01*
X0102484Y0312000D01*
X0105261Y0312000D01*
X0105261Y0312972D01*
X0105166Y0313328D01*
X0104982Y0313647D01*
X0104721Y0313908D01*
X0104695Y0313923D01*
X0104761Y0313990D01*
X0104761Y0316310D01*
X0104347Y0316725D01*
X0104761Y0317139D01*
X0104761Y0319460D01*
X0104234Y0319987D01*
X0100733Y0319987D01*
X0100345Y0319600D01*
X0098815Y0319600D01*
X0098427Y0319987D01*
X0094926Y0319987D01*
X0094399Y0319460D01*
X0094399Y0317139D01*
X0094813Y0316725D01*
X0094399Y0315870D02*
X0092261Y0315870D01*
X0092261Y0315072D02*
X0094399Y0315072D01*
X0094399Y0314273D02*
X0092261Y0314273D01*
X0092581Y0313475D02*
X0094713Y0313475D01*
X0094399Y0312676D02*
X0092761Y0312676D01*
X0092761Y0311878D02*
X0094399Y0311878D01*
X0094399Y0311079D02*
X0092761Y0311079D01*
X0092409Y0310281D02*
X0097111Y0310281D01*
X0097430Y0309482D02*
X0089230Y0309482D01*
X0089154Y0308684D02*
X0097506Y0308684D01*
X0098304Y0307885D02*
X0088356Y0307885D01*
X0087080Y0309650D02*
X0084730Y0312000D01*
X0084176Y0312000D01*
X0086454Y0312676D02*
X0087206Y0312676D01*
X0087206Y0311878D02*
X0086691Y0311878D01*
X0086140Y0313475D02*
X0087386Y0313475D01*
X0089983Y0311878D02*
X0089984Y0311878D01*
X0089983Y0311079D02*
X0089984Y0311079D01*
X0089983Y0310281D02*
X0089984Y0310281D01*
X0092134Y0307087D02*
X0094526Y0307087D01*
X0094399Y0306960D02*
X0094399Y0304639D01*
X0094813Y0304225D01*
X0094399Y0303810D01*
X0094399Y0301490D01*
X0094813Y0301075D01*
X0094399Y0300661D01*
X0094399Y0298340D01*
X0094926Y0297813D01*
X0097079Y0297813D01*
X0097430Y0297462D01*
X0097430Y0296259D01*
X0098689Y0295000D01*
X0100471Y0295000D01*
X0101730Y0296259D01*
X0101730Y0297313D01*
X0102483Y0297313D01*
X0102483Y0299500D01*
X0099706Y0299500D01*
X0099706Y0299300D01*
X0099268Y0299300D01*
X0098954Y0299614D01*
X0098954Y0300661D01*
X0098540Y0301075D01*
X0098815Y0301350D01*
X0100188Y0301350D01*
X0099985Y0301147D01*
X0099801Y0300828D01*
X0099706Y0300472D01*
X0099706Y0299500D01*
X0102483Y0299500D01*
X0102483Y0299500D01*
X0102484Y0299500D01*
X0102484Y0299500D01*
X0105261Y0299500D01*
X0105261Y0298529D01*
X0105166Y0298173D01*
X0104982Y0297853D01*
X0104721Y0297593D01*
X0104402Y0297408D01*
X0104046Y0297313D01*
X0102484Y0297313D01*
X0102484Y0299500D01*
X0105261Y0299500D01*
X0105261Y0300472D01*
X0105166Y0300828D01*
X0104982Y0301147D01*
X0104721Y0301408D01*
X0104695Y0301423D01*
X0104761Y0301490D01*
X0104761Y0303810D01*
X0104347Y0304225D01*
X0104761Y0304639D01*
X0104761Y0306960D01*
X0104234Y0307487D01*
X0100733Y0307487D01*
X0100345Y0307100D01*
X0098815Y0307100D01*
X0098427Y0307487D01*
X0094926Y0307487D01*
X0094399Y0306960D01*
X0094399Y0306288D02*
X0092261Y0306288D01*
X0092261Y0305490D02*
X0094399Y0305490D01*
X0094399Y0304691D02*
X0092261Y0304691D01*
X0092179Y0303893D02*
X0094481Y0303893D01*
X0094399Y0303094D02*
X0092261Y0303094D01*
X0092261Y0302296D02*
X0094399Y0302296D01*
X0094399Y0301497D02*
X0092261Y0301497D01*
X0092701Y0300699D02*
X0094437Y0300699D01*
X0094399Y0299900D02*
X0092761Y0299900D01*
X0092761Y0299102D02*
X0094399Y0299102D01*
X0094435Y0298303D02*
X0092701Y0298303D01*
X0092069Y0297505D02*
X0097387Y0297505D01*
X0097430Y0296706D02*
X0089230Y0296706D01*
X0088878Y0295908D02*
X0097782Y0295908D01*
X0098580Y0295109D02*
X0088080Y0295109D01*
X0087080Y0297150D02*
X0084730Y0299500D01*
X0084176Y0299500D01*
X0086454Y0299900D02*
X0087206Y0299900D01*
X0087266Y0300699D02*
X0086416Y0300699D01*
X0084176Y0302650D02*
X0089984Y0302650D01*
X0089984Y0305800D02*
X0084176Y0305800D01*
X0089983Y0299102D02*
X0089984Y0299102D01*
X0089983Y0298303D02*
X0089984Y0298303D01*
X0089983Y0297505D02*
X0089984Y0297505D01*
X0096676Y0299500D02*
X0097230Y0299500D01*
X0099580Y0297150D01*
X0101378Y0295908D02*
X0110282Y0295908D01*
X0109930Y0296259D02*
X0111189Y0295000D01*
X0112971Y0295000D01*
X0114230Y0296259D01*
X0114230Y0297313D01*
X0114983Y0297313D01*
X0114983Y0299500D01*
X0112206Y0299500D01*
X0112206Y0299300D01*
X0111768Y0299300D01*
X0111454Y0299614D01*
X0111454Y0300661D01*
X0111040Y0301075D01*
X0111315Y0301350D01*
X0112688Y0301350D01*
X0112485Y0301147D01*
X0112301Y0300828D01*
X0112206Y0300472D01*
X0112206Y0299500D01*
X0114983Y0299500D01*
X0114983Y0299500D01*
X0114984Y0299500D01*
X0114984Y0299500D01*
X0117761Y0299500D01*
X0117761Y0298529D01*
X0117666Y0298173D01*
X0117482Y0297853D01*
X0117221Y0297593D01*
X0116902Y0297408D01*
X0116546Y0297313D01*
X0114984Y0297313D01*
X0114984Y0299500D01*
X0117761Y0299500D01*
X0117761Y0300472D01*
X0117666Y0300828D01*
X0117482Y0301147D01*
X0117221Y0301408D01*
X0117195Y0301423D01*
X0117261Y0301490D01*
X0117261Y0303810D01*
X0116847Y0304225D01*
X0117261Y0304639D01*
X0117261Y0306960D01*
X0116734Y0307487D01*
X0113233Y0307487D01*
X0112845Y0307100D01*
X0111315Y0307100D01*
X0110927Y0307487D01*
X0107426Y0307487D01*
X0106899Y0306960D01*
X0106899Y0304639D01*
X0107313Y0304225D01*
X0106899Y0303810D01*
X0106899Y0301490D01*
X0107313Y0301075D01*
X0106899Y0300661D01*
X0106899Y0298340D01*
X0107426Y0297813D01*
X0109579Y0297813D01*
X0109930Y0297462D01*
X0109930Y0296259D01*
X0109930Y0296706D02*
X0101730Y0296706D01*
X0102483Y0297505D02*
X0102484Y0297505D01*
X0102483Y0298303D02*
X0102484Y0298303D01*
X0102483Y0299102D02*
X0102484Y0299102D01*
X0104569Y0297505D02*
X0109887Y0297505D01*
X0109730Y0299500D02*
X0112080Y0297150D01*
X0113878Y0295908D02*
X0122782Y0295908D01*
X0122430Y0296259D02*
X0123689Y0295000D01*
X0125471Y0295000D01*
X0126730Y0296259D01*
X0126730Y0297313D01*
X0127483Y0297313D01*
X0127483Y0299500D01*
X0124706Y0299500D01*
X0124706Y0299300D01*
X0124268Y0299300D01*
X0123954Y0299614D01*
X0123954Y0300661D01*
X0123540Y0301075D01*
X0123815Y0301350D01*
X0125188Y0301350D01*
X0124985Y0301147D01*
X0124801Y0300828D01*
X0124706Y0300472D01*
X0124706Y0299500D01*
X0127483Y0299500D01*
X0127483Y0299500D01*
X0127484Y0299500D01*
X0127484Y0299500D01*
X0130261Y0299500D01*
X0130261Y0298529D01*
X0130166Y0298173D01*
X0129982Y0297853D01*
X0129721Y0297593D01*
X0129402Y0297408D01*
X0129046Y0297313D01*
X0127484Y0297313D01*
X0127484Y0299500D01*
X0130261Y0299500D01*
X0130261Y0300472D01*
X0130166Y0300828D01*
X0129982Y0301147D01*
X0129721Y0301408D01*
X0129695Y0301423D01*
X0129761Y0301490D01*
X0129761Y0303810D01*
X0129347Y0304225D01*
X0129761Y0304639D01*
X0129761Y0306960D01*
X0129234Y0307487D01*
X0125733Y0307487D01*
X0125345Y0307100D01*
X0123815Y0307100D01*
X0123427Y0307487D01*
X0119926Y0307487D01*
X0119399Y0306960D01*
X0119399Y0304639D01*
X0119813Y0304225D01*
X0119399Y0303810D01*
X0119399Y0301490D01*
X0119813Y0301075D01*
X0119399Y0300661D01*
X0119399Y0298340D01*
X0119926Y0297813D01*
X0122079Y0297813D01*
X0122430Y0297462D01*
X0122430Y0296259D01*
X0122430Y0296706D02*
X0114230Y0296706D01*
X0114983Y0297505D02*
X0114984Y0297505D01*
X0114983Y0298303D02*
X0114984Y0298303D01*
X0114983Y0299102D02*
X0114984Y0299102D01*
X0117069Y0297505D02*
X0122387Y0297505D01*
X0122230Y0299500D02*
X0124580Y0297150D01*
X0126378Y0295908D02*
X0135282Y0295908D01*
X0134930Y0296706D02*
X0126730Y0296706D01*
X0127483Y0297505D02*
X0127484Y0297505D01*
X0127483Y0298303D02*
X0127484Y0298303D01*
X0127483Y0299102D02*
X0127484Y0299102D01*
X0129569Y0297505D02*
X0134887Y0297505D01*
X0134730Y0299500D02*
X0137080Y0297150D01*
X0138878Y0295908D02*
X0144430Y0295908D01*
X0144430Y0296706D02*
X0139230Y0296706D01*
X0139983Y0297505D02*
X0139984Y0297505D01*
X0139983Y0298303D02*
X0139984Y0298303D01*
X0139983Y0299102D02*
X0139984Y0299102D01*
X0142069Y0297505D02*
X0144644Y0297505D01*
X0144435Y0298303D02*
X0142701Y0298303D01*
X0142761Y0299102D02*
X0144399Y0299102D01*
X0144399Y0299900D02*
X0142761Y0299900D01*
X0144333Y0300699D02*
X0144437Y0300699D01*
X0146676Y0299500D02*
X0146676Y0296496D01*
X0146580Y0296400D01*
X0144830Y0295109D02*
X0144575Y0295109D01*
X0142085Y0295109D02*
X0138080Y0295109D01*
X0136080Y0295109D02*
X0125580Y0295109D01*
X0123580Y0295109D02*
X0113080Y0295109D01*
X0111080Y0295109D02*
X0100580Y0295109D01*
X0099706Y0299900D02*
X0098954Y0299900D01*
X0098916Y0300699D02*
X0099766Y0300699D01*
X0102484Y0302650D02*
X0096676Y0302650D01*
X0096676Y0305800D02*
X0102484Y0305800D01*
X0104761Y0305490D02*
X0106899Y0305490D01*
X0106899Y0306288D02*
X0104761Y0306288D01*
X0104634Y0307087D02*
X0107026Y0307087D01*
X0106899Y0304691D02*
X0104761Y0304691D01*
X0104679Y0303893D02*
X0106981Y0303893D01*
X0106899Y0303094D02*
X0104761Y0303094D01*
X0104761Y0302296D02*
X0106899Y0302296D01*
X0106899Y0301497D02*
X0104761Y0301497D01*
X0105201Y0300699D02*
X0106937Y0300699D01*
X0106899Y0299900D02*
X0105261Y0299900D01*
X0105261Y0299102D02*
X0106899Y0299102D01*
X0106935Y0298303D02*
X0105201Y0298303D01*
X0109176Y0299500D02*
X0109730Y0299500D01*
X0111454Y0299900D02*
X0112206Y0299900D01*
X0112266Y0300699D02*
X0111416Y0300699D01*
X0109176Y0302650D02*
X0114984Y0302650D01*
X0117261Y0302296D02*
X0119399Y0302296D01*
X0119399Y0303094D02*
X0117261Y0303094D01*
X0117179Y0303893D02*
X0119481Y0303893D01*
X0119399Y0304691D02*
X0117261Y0304691D01*
X0117261Y0305490D02*
X0119399Y0305490D01*
X0119399Y0306288D02*
X0117261Y0306288D01*
X0117134Y0307087D02*
X0119526Y0307087D01*
X0121676Y0305800D02*
X0127484Y0305800D01*
X0129761Y0305490D02*
X0131899Y0305490D01*
X0131899Y0306288D02*
X0129761Y0306288D01*
X0129634Y0307087D02*
X0132026Y0307087D01*
X0131899Y0304691D02*
X0129761Y0304691D01*
X0129679Y0303893D02*
X0131981Y0303893D01*
X0131899Y0303094D02*
X0129761Y0303094D01*
X0129761Y0302296D02*
X0131899Y0302296D01*
X0131899Y0301497D02*
X0129761Y0301497D01*
X0130201Y0300699D02*
X0131937Y0300699D01*
X0131899Y0299900D02*
X0130261Y0299900D01*
X0130261Y0299102D02*
X0131899Y0299102D01*
X0131935Y0298303D02*
X0130201Y0298303D01*
X0134176Y0299500D02*
X0134730Y0299500D01*
X0136454Y0299900D02*
X0137206Y0299900D01*
X0137266Y0300699D02*
X0136416Y0300699D01*
X0134176Y0302650D02*
X0139984Y0302650D01*
X0139984Y0305800D02*
X0134176Y0305800D01*
X0135804Y0307885D02*
X0125856Y0307885D01*
X0125471Y0307500D02*
X0126730Y0308759D01*
X0126730Y0309813D01*
X0127483Y0309813D01*
X0127483Y0312000D01*
X0124706Y0312000D01*
X0124706Y0311800D01*
X0124268Y0311800D01*
X0123954Y0312114D01*
X0123954Y0313161D01*
X0123540Y0313575D01*
X0123815Y0313850D01*
X0125188Y0313850D01*
X0124985Y0313647D01*
X0124801Y0313328D01*
X0124706Y0312972D01*
X0124706Y0312000D01*
X0127483Y0312000D01*
X0127483Y0312000D01*
X0127484Y0312000D01*
X0127484Y0312000D01*
X0130261Y0312000D01*
X0130261Y0311029D01*
X0130166Y0310673D01*
X0129982Y0310353D01*
X0129721Y0310093D01*
X0129402Y0309908D01*
X0129046Y0309813D01*
X0127484Y0309813D01*
X0127484Y0312000D01*
X0130261Y0312000D01*
X0130261Y0312972D01*
X0130166Y0313328D01*
X0129982Y0313647D01*
X0129721Y0313908D01*
X0129695Y0313923D01*
X0129761Y0313990D01*
X0129761Y0316310D01*
X0129347Y0316725D01*
X0129761Y0317139D01*
X0129761Y0319460D01*
X0129234Y0319987D01*
X0125733Y0319987D01*
X0125345Y0319600D01*
X0123815Y0319600D01*
X0123427Y0319987D01*
X0119926Y0319987D01*
X0119399Y0319460D01*
X0119399Y0317139D01*
X0119813Y0316725D01*
X0119399Y0316310D01*
X0119399Y0313990D01*
X0119813Y0313575D01*
X0119399Y0313161D01*
X0119399Y0310840D01*
X0119926Y0310313D01*
X0122079Y0310313D01*
X0122430Y0309962D01*
X0122430Y0308759D01*
X0123689Y0307500D01*
X0125471Y0307500D01*
X0126654Y0308684D02*
X0135006Y0308684D01*
X0134930Y0309482D02*
X0126730Y0309482D01*
X0127483Y0310281D02*
X0127484Y0310281D01*
X0127483Y0311079D02*
X0127484Y0311079D01*
X0127483Y0311878D02*
X0127484Y0311878D01*
X0130261Y0311878D02*
X0131899Y0311878D01*
X0131899Y0312676D02*
X0130261Y0312676D01*
X0130081Y0313475D02*
X0132213Y0313475D01*
X0131899Y0314273D02*
X0129761Y0314273D01*
X0129761Y0315072D02*
X0131899Y0315072D01*
X0131899Y0315870D02*
X0129761Y0315870D01*
X0129403Y0316669D02*
X0132257Y0316669D01*
X0131899Y0317468D02*
X0129761Y0317468D01*
X0129761Y0318266D02*
X0131899Y0318266D01*
X0131899Y0319065D02*
X0129761Y0319065D01*
X0129358Y0319863D02*
X0132302Y0319863D01*
X0134176Y0318300D02*
X0139984Y0318300D01*
X0138109Y0319863D02*
X0136051Y0319863D01*
X0135528Y0320662D02*
X0126132Y0320662D01*
X0126730Y0321259D02*
X0126730Y0322313D01*
X0127483Y0322313D01*
X0127483Y0324500D01*
X0124706Y0324500D01*
X0124706Y0324300D01*
X0124268Y0324300D01*
X0123954Y0324614D01*
X0123954Y0325661D01*
X0123540Y0326075D01*
X0123815Y0326350D01*
X0125188Y0326350D01*
X0124985Y0326147D01*
X0124801Y0325828D01*
X0124706Y0325472D01*
X0124706Y0324500D01*
X0127483Y0324500D01*
X0127483Y0324500D01*
X0127484Y0324500D01*
X0127484Y0324500D01*
X0130261Y0324500D01*
X0130261Y0323529D01*
X0130166Y0323173D01*
X0129982Y0322853D01*
X0129721Y0322593D01*
X0129402Y0322408D01*
X0129046Y0322313D01*
X0127484Y0322313D01*
X0127484Y0324500D01*
X0130261Y0324500D01*
X0130261Y0325472D01*
X0130166Y0325828D01*
X0129982Y0326147D01*
X0129721Y0326408D01*
X0129695Y0326423D01*
X0129761Y0326490D01*
X0129761Y0328810D01*
X0129347Y0329225D01*
X0129761Y0329639D01*
X0129761Y0331960D01*
X0129234Y0332487D01*
X0125733Y0332487D01*
X0125345Y0332100D01*
X0123815Y0332100D01*
X0123427Y0332487D01*
X0119926Y0332487D01*
X0119399Y0331960D01*
X0119399Y0329639D01*
X0119813Y0329225D01*
X0119399Y0328810D01*
X0119399Y0326490D01*
X0119813Y0326075D01*
X0119399Y0325661D01*
X0119399Y0323340D01*
X0119926Y0322813D01*
X0122079Y0322813D01*
X0122430Y0322462D01*
X0122430Y0321259D01*
X0123689Y0320000D01*
X0125471Y0320000D01*
X0126730Y0321259D01*
X0126730Y0321460D02*
X0134930Y0321460D01*
X0134930Y0322259D02*
X0126730Y0322259D01*
X0127483Y0323057D02*
X0127484Y0323057D01*
X0127483Y0323856D02*
X0127484Y0323856D01*
X0130099Y0323057D02*
X0132182Y0323057D01*
X0131899Y0323856D02*
X0130261Y0323856D01*
X0130261Y0324654D02*
X0131899Y0324654D01*
X0131899Y0325453D02*
X0130261Y0325453D01*
X0129878Y0326251D02*
X0132137Y0326251D01*
X0131899Y0327050D02*
X0129761Y0327050D01*
X0129761Y0327848D02*
X0131899Y0327848D01*
X0131899Y0328647D02*
X0129761Y0328647D01*
X0129567Y0329445D02*
X0132093Y0329445D01*
X0131899Y0330244D02*
X0129761Y0330244D01*
X0129761Y0331042D02*
X0131899Y0331042D01*
X0131899Y0331841D02*
X0129761Y0331841D01*
X0127484Y0330800D02*
X0121676Y0330800D01*
X0119399Y0331042D02*
X0117261Y0331042D01*
X0117261Y0330244D02*
X0119399Y0330244D01*
X0119593Y0329445D02*
X0117067Y0329445D01*
X0117261Y0329639D02*
X0117261Y0331960D01*
X0116734Y0332487D01*
X0113233Y0332487D01*
X0112845Y0332100D01*
X0111315Y0332100D01*
X0110927Y0332487D01*
X0107426Y0332487D01*
X0106899Y0331960D01*
X0106899Y0329639D01*
X0107313Y0329225D01*
X0106899Y0328810D01*
X0106899Y0326490D01*
X0107313Y0326075D01*
X0106899Y0325661D01*
X0106899Y0323340D01*
X0107426Y0322813D01*
X0109579Y0322813D01*
X0109930Y0322462D01*
X0109930Y0321259D01*
X0111189Y0320000D01*
X0112971Y0320000D01*
X0114230Y0321259D01*
X0114230Y0322313D01*
X0114983Y0322313D01*
X0114983Y0324500D01*
X0112206Y0324500D01*
X0112206Y0324300D01*
X0111768Y0324300D01*
X0111454Y0324614D01*
X0111454Y0325661D01*
X0111040Y0326075D01*
X0111315Y0326350D01*
X0112688Y0326350D01*
X0112485Y0326147D01*
X0112301Y0325828D01*
X0112206Y0325472D01*
X0112206Y0324500D01*
X0114983Y0324500D01*
X0114983Y0324500D01*
X0114984Y0324500D01*
X0114984Y0324500D01*
X0117761Y0324500D01*
X0117761Y0323529D01*
X0117666Y0323173D01*
X0117482Y0322853D01*
X0117221Y0322593D01*
X0116902Y0322408D01*
X0116546Y0322313D01*
X0114984Y0322313D01*
X0114984Y0324500D01*
X0117761Y0324500D01*
X0117761Y0325472D01*
X0117666Y0325828D01*
X0117482Y0326147D01*
X0117221Y0326408D01*
X0117195Y0326423D01*
X0117261Y0326490D01*
X0117261Y0328810D01*
X0116847Y0329225D01*
X0117261Y0329639D01*
X0117261Y0328647D02*
X0119399Y0328647D01*
X0119399Y0327848D02*
X0117261Y0327848D01*
X0117261Y0327050D02*
X0119399Y0327050D01*
X0119637Y0326251D02*
X0117378Y0326251D01*
X0117761Y0325453D02*
X0119399Y0325453D01*
X0119399Y0324654D02*
X0117761Y0324654D01*
X0117761Y0323856D02*
X0119399Y0323856D01*
X0119682Y0323057D02*
X0117599Y0323057D01*
X0114984Y0323057D02*
X0114983Y0323057D01*
X0114983Y0323856D02*
X0114984Y0323856D01*
X0114230Y0322259D02*
X0122430Y0322259D01*
X0122430Y0321460D02*
X0114230Y0321460D01*
X0113632Y0320662D02*
X0123028Y0320662D01*
X0123551Y0319863D02*
X0125609Y0319863D01*
X0127484Y0318300D02*
X0121676Y0318300D01*
X0119399Y0318266D02*
X0117261Y0318266D01*
X0117261Y0317468D02*
X0119399Y0317468D01*
X0119757Y0316669D02*
X0116903Y0316669D01*
X0116847Y0316725D02*
X0117261Y0317139D01*
X0117261Y0319460D01*
X0116734Y0319987D01*
X0113233Y0319987D01*
X0112845Y0319600D01*
X0111315Y0319600D01*
X0110927Y0319987D01*
X0107426Y0319987D01*
X0106899Y0319460D01*
X0106899Y0317139D01*
X0107313Y0316725D01*
X0106899Y0316310D01*
X0106899Y0313990D01*
X0107313Y0313575D01*
X0106899Y0313161D01*
X0106899Y0310840D01*
X0107426Y0310313D01*
X0109579Y0310313D01*
X0109930Y0309962D01*
X0109930Y0308759D01*
X0111189Y0307500D01*
X0112971Y0307500D01*
X0114230Y0308759D01*
X0114230Y0309813D01*
X0114983Y0309813D01*
X0114983Y0312000D01*
X0112206Y0312000D01*
X0112206Y0311800D01*
X0111768Y0311800D01*
X0111454Y0312114D01*
X0111454Y0313161D01*
X0111040Y0313575D01*
X0111315Y0313850D01*
X0112688Y0313850D01*
X0112485Y0313647D01*
X0112301Y0313328D01*
X0112206Y0312972D01*
X0112206Y0312000D01*
X0114983Y0312000D01*
X0114983Y0312000D01*
X0114984Y0312000D01*
X0114984Y0312000D01*
X0117761Y0312000D01*
X0117761Y0311029D01*
X0117666Y0310673D01*
X0117482Y0310353D01*
X0117221Y0310093D01*
X0116902Y0309908D01*
X0116546Y0309813D01*
X0114984Y0309813D01*
X0114984Y0312000D01*
X0117761Y0312000D01*
X0117761Y0312972D01*
X0117666Y0313328D01*
X0117482Y0313647D01*
X0117221Y0313908D01*
X0117195Y0313923D01*
X0117261Y0313990D01*
X0117261Y0316310D01*
X0116847Y0316725D01*
X0117261Y0315870D02*
X0119399Y0315870D01*
X0119399Y0315072D02*
X0117261Y0315072D01*
X0117261Y0314273D02*
X0119399Y0314273D01*
X0119713Y0313475D02*
X0117581Y0313475D01*
X0117761Y0312676D02*
X0119399Y0312676D01*
X0119399Y0311878D02*
X0117761Y0311878D01*
X0117761Y0311079D02*
X0119399Y0311079D01*
X0117409Y0310281D02*
X0122111Y0310281D01*
X0122430Y0309482D02*
X0114230Y0309482D01*
X0114154Y0308684D02*
X0122506Y0308684D01*
X0123304Y0307885D02*
X0113356Y0307885D01*
X0112080Y0309650D02*
X0109730Y0312000D01*
X0109176Y0312000D01*
X0109611Y0310281D02*
X0104909Y0310281D01*
X0105261Y0311079D02*
X0106899Y0311079D01*
X0106899Y0311878D02*
X0105261Y0311878D01*
X0105261Y0312676D02*
X0106899Y0312676D01*
X0107213Y0313475D02*
X0105081Y0313475D01*
X0104761Y0314273D02*
X0106899Y0314273D01*
X0106899Y0315072D02*
X0104761Y0315072D01*
X0104761Y0315870D02*
X0106899Y0315870D01*
X0107257Y0316669D02*
X0104403Y0316669D01*
X0104761Y0317468D02*
X0106899Y0317468D01*
X0106899Y0318266D02*
X0104761Y0318266D01*
X0104761Y0319065D02*
X0106899Y0319065D01*
X0107302Y0319863D02*
X0104358Y0319863D01*
X0102484Y0318300D02*
X0096676Y0318300D01*
X0094399Y0319065D02*
X0092261Y0319065D01*
X0091858Y0319863D02*
X0094802Y0319863D01*
X0097430Y0321460D02*
X0089230Y0321460D01*
X0089230Y0322259D02*
X0097430Y0322259D01*
X0098551Y0319863D02*
X0100609Y0319863D01*
X0101132Y0320662D02*
X0110528Y0320662D01*
X0111051Y0319863D02*
X0113109Y0319863D01*
X0114984Y0318300D02*
X0109176Y0318300D01*
X0109176Y0315150D02*
X0114984Y0315150D01*
X0112386Y0313475D02*
X0111140Y0313475D01*
X0111454Y0312676D02*
X0112206Y0312676D01*
X0112206Y0311878D02*
X0111691Y0311878D01*
X0109930Y0309482D02*
X0101730Y0309482D01*
X0101654Y0308684D02*
X0110006Y0308684D01*
X0110804Y0307885D02*
X0100856Y0307885D01*
X0099580Y0309650D02*
X0097230Y0312000D01*
X0096676Y0312000D01*
X0098954Y0312676D02*
X0099706Y0312676D01*
X0099706Y0311878D02*
X0099191Y0311878D01*
X0098640Y0313475D02*
X0099886Y0313475D01*
X0102483Y0311878D02*
X0102484Y0311878D01*
X0102483Y0311079D02*
X0102484Y0311079D01*
X0102483Y0310281D02*
X0102484Y0310281D01*
X0102484Y0315150D02*
X0096676Y0315150D01*
X0089984Y0315150D02*
X0084176Y0315150D01*
X0089983Y0323057D02*
X0089984Y0323057D01*
X0089983Y0323856D02*
X0089984Y0323856D01*
X0087206Y0324654D02*
X0086454Y0324654D01*
X0086454Y0325453D02*
X0087206Y0325453D01*
X0087589Y0326251D02*
X0086216Y0326251D01*
X0084176Y0327650D02*
X0089984Y0327650D01*
X0092261Y0331841D02*
X0094399Y0331841D01*
X0096676Y0330800D02*
X0102484Y0330800D01*
X0104761Y0331042D02*
X0106899Y0331042D01*
X0106899Y0330244D02*
X0104761Y0330244D01*
X0104567Y0329445D02*
X0107093Y0329445D01*
X0106899Y0328647D02*
X0104761Y0328647D01*
X0104761Y0327848D02*
X0106899Y0327848D01*
X0106899Y0327050D02*
X0104761Y0327050D01*
X0104878Y0326251D02*
X0107137Y0326251D01*
X0106899Y0325453D02*
X0105261Y0325453D01*
X0105261Y0324654D02*
X0106899Y0324654D01*
X0106899Y0323856D02*
X0105261Y0323856D01*
X0105099Y0323057D02*
X0107182Y0323057D01*
X0109176Y0324500D02*
X0109730Y0324500D01*
X0112080Y0322150D01*
X0109930Y0322259D02*
X0101730Y0322259D01*
X0101730Y0321460D02*
X0109930Y0321460D01*
X0111454Y0324654D02*
X0112206Y0324654D01*
X0112206Y0325453D02*
X0111454Y0325453D01*
X0111216Y0326251D02*
X0112589Y0326251D01*
X0114984Y0327650D02*
X0109176Y0327650D01*
X0109176Y0330800D02*
X0114984Y0330800D01*
X0117261Y0331841D02*
X0119399Y0331841D01*
X0119926Y0335313D02*
X0122079Y0335313D01*
X0122430Y0334962D01*
X0122430Y0333759D01*
X0123689Y0332500D01*
X0125471Y0332500D01*
X0126730Y0333759D01*
X0126730Y0334813D01*
X0127483Y0334813D01*
X0127483Y0337000D01*
X0124706Y0337000D01*
X0124706Y0336800D01*
X0124268Y0336800D01*
X0123954Y0337114D01*
X0123954Y0338161D01*
X0123540Y0338575D01*
X0123815Y0338850D01*
X0125188Y0338850D01*
X0124985Y0338647D01*
X0124801Y0338328D01*
X0124706Y0337972D01*
X0124706Y0337000D01*
X0127483Y0337000D01*
X0127483Y0337000D01*
X0127484Y0337000D01*
X0127484Y0337000D01*
X0130261Y0337000D01*
X0130261Y0336029D01*
X0130166Y0335673D01*
X0129982Y0335353D01*
X0129721Y0335093D01*
X0129402Y0334908D01*
X0129046Y0334813D01*
X0127484Y0334813D01*
X0127484Y0337000D01*
X0130261Y0337000D01*
X0130261Y0337972D01*
X0130166Y0338328D01*
X0129982Y0338647D01*
X0129721Y0338908D01*
X0129695Y0338923D01*
X0129761Y0338990D01*
X0129761Y0341310D01*
X0129347Y0341725D01*
X0129761Y0342139D01*
X0129761Y0344460D01*
X0129234Y0344987D01*
X0125733Y0344987D01*
X0125345Y0344600D01*
X0123815Y0344600D01*
X0123427Y0344987D01*
X0119926Y0344987D01*
X0119399Y0344460D01*
X0119399Y0342139D01*
X0119813Y0341725D01*
X0119399Y0341310D01*
X0119399Y0338990D01*
X0119813Y0338575D01*
X0119399Y0338161D01*
X0119399Y0335840D01*
X0119926Y0335313D01*
X0119405Y0335833D02*
X0117709Y0335833D01*
X0117666Y0335673D02*
X0117761Y0336029D01*
X0117761Y0337000D01*
X0114984Y0337000D01*
X0114984Y0337000D01*
X0114984Y0334813D01*
X0116546Y0334813D01*
X0116902Y0334908D01*
X0117221Y0335093D01*
X0117482Y0335353D01*
X0117666Y0335673D01*
X0117121Y0335035D02*
X0122357Y0335035D01*
X0122430Y0334236D02*
X0114230Y0334236D01*
X0114230Y0333759D02*
X0114230Y0334813D01*
X0114983Y0334813D01*
X0114983Y0337000D01*
X0112206Y0337000D01*
X0112206Y0336800D01*
X0111768Y0336800D01*
X0111454Y0337114D01*
X0111454Y0338161D01*
X0111040Y0338575D01*
X0111315Y0338850D01*
X0112688Y0338850D01*
X0112485Y0338647D01*
X0112301Y0338328D01*
X0112206Y0337972D01*
X0112206Y0337000D01*
X0114983Y0337000D01*
X0114983Y0337000D01*
X0114984Y0337000D01*
X0117761Y0337000D01*
X0117761Y0337972D01*
X0117666Y0338328D01*
X0117482Y0338647D01*
X0117221Y0338908D01*
X0117195Y0338923D01*
X0117261Y0338990D01*
X0117261Y0341310D01*
X0116847Y0341725D01*
X0117261Y0342139D01*
X0117261Y0344460D01*
X0116734Y0344987D01*
X0113233Y0344987D01*
X0112845Y0344600D01*
X0111315Y0344600D01*
X0110927Y0344987D01*
X0107426Y0344987D01*
X0106899Y0344460D01*
X0106899Y0342139D01*
X0107313Y0341725D01*
X0106899Y0341310D01*
X0106899Y0338990D01*
X0107313Y0338575D01*
X0106899Y0338161D01*
X0106899Y0335840D01*
X0107426Y0335313D01*
X0109579Y0335313D01*
X0109930Y0334962D01*
X0109930Y0333759D01*
X0111189Y0332500D01*
X0112971Y0332500D01*
X0114230Y0333759D01*
X0113908Y0333438D02*
X0122752Y0333438D01*
X0123550Y0332639D02*
X0113110Y0332639D01*
X0111050Y0332639D02*
X0100610Y0332639D01*
X0100471Y0332500D02*
X0101730Y0333759D01*
X0101730Y0334813D01*
X0102483Y0334813D01*
X0102483Y0337000D01*
X0099706Y0337000D01*
X0099706Y0336800D01*
X0099268Y0336800D01*
X0098954Y0337114D01*
X0098954Y0338161D01*
X0098540Y0338575D01*
X0098815Y0338850D01*
X0100188Y0338850D01*
X0099985Y0338647D01*
X0099801Y0338328D01*
X0099706Y0337972D01*
X0099706Y0337000D01*
X0102483Y0337000D01*
X0102483Y0337000D01*
X0102484Y0337000D01*
X0102484Y0337000D01*
X0105261Y0337000D01*
X0105261Y0336029D01*
X0105166Y0335673D01*
X0104982Y0335353D01*
X0104721Y0335093D01*
X0104402Y0334908D01*
X0104046Y0334813D01*
X0102484Y0334813D01*
X0102484Y0337000D01*
X0105261Y0337000D01*
X0105261Y0337972D01*
X0105166Y0338328D01*
X0104982Y0338647D01*
X0104721Y0338908D01*
X0104695Y0338923D01*
X0104761Y0338990D01*
X0104761Y0341310D01*
X0104347Y0341725D01*
X0104761Y0342139D01*
X0104761Y0344460D01*
X0104234Y0344987D01*
X0100733Y0344987D01*
X0100345Y0344600D01*
X0098815Y0344600D01*
X0098427Y0344987D01*
X0094926Y0344987D01*
X0094399Y0344460D01*
X0094399Y0342139D01*
X0094813Y0341725D01*
X0094399Y0341310D01*
X0094399Y0338990D01*
X0094813Y0338575D01*
X0094399Y0338161D01*
X0094399Y0335840D01*
X0094926Y0335313D01*
X0097079Y0335313D01*
X0097430Y0334962D01*
X0097430Y0333759D01*
X0098689Y0332500D01*
X0100471Y0332500D01*
X0101408Y0333438D02*
X0110252Y0333438D01*
X0109930Y0334236D02*
X0101730Y0334236D01*
X0102483Y0335035D02*
X0102484Y0335035D01*
X0102483Y0335833D02*
X0102484Y0335833D01*
X0102483Y0336632D02*
X0102484Y0336632D01*
X0104621Y0335035D02*
X0109857Y0335035D01*
X0109730Y0337000D02*
X0112080Y0334650D01*
X0112206Y0337430D02*
X0111454Y0337430D01*
X0111386Y0338229D02*
X0112274Y0338229D01*
X0109730Y0337000D02*
X0109176Y0337000D01*
X0106899Y0336632D02*
X0105261Y0336632D01*
X0105261Y0337430D02*
X0106899Y0337430D01*
X0106967Y0338229D02*
X0105193Y0338229D01*
X0104761Y0339027D02*
X0106899Y0339027D01*
X0106899Y0339826D02*
X0104761Y0339826D01*
X0104761Y0340624D02*
X0106899Y0340624D01*
X0107011Y0341423D02*
X0104649Y0341423D01*
X0104761Y0342221D02*
X0106899Y0342221D01*
X0106899Y0343020D02*
X0104761Y0343020D01*
X0104761Y0343818D02*
X0106899Y0343818D01*
X0107056Y0344617D02*
X0104604Y0344617D01*
X0102484Y0343300D02*
X0096676Y0343300D01*
X0094399Y0343020D02*
X0092261Y0343020D01*
X0092261Y0343818D02*
X0094399Y0343818D01*
X0094556Y0344617D02*
X0092104Y0344617D01*
X0092261Y0342221D02*
X0094399Y0342221D01*
X0094511Y0341423D02*
X0092149Y0341423D01*
X0092261Y0340624D02*
X0094399Y0340624D01*
X0094399Y0339826D02*
X0092261Y0339826D01*
X0092261Y0339027D02*
X0094399Y0339027D01*
X0094467Y0338229D02*
X0092693Y0338229D01*
X0092761Y0337430D02*
X0094399Y0337430D01*
X0094399Y0336632D02*
X0092761Y0336632D01*
X0092709Y0335833D02*
X0094405Y0335833D01*
X0092121Y0335035D02*
X0097357Y0335035D01*
X0097430Y0334236D02*
X0089480Y0334236D01*
X0089408Y0333438D02*
X0097752Y0333438D01*
X0098550Y0332639D02*
X0088610Y0332639D01*
X0087330Y0334400D02*
X0084730Y0337000D01*
X0084176Y0337000D01*
X0084857Y0335035D02*
X0079621Y0335035D01*
X0079721Y0335093D02*
X0079982Y0335353D01*
X0080166Y0335673D01*
X0080261Y0336029D01*
X0080261Y0337000D01*
X0077484Y0337000D01*
X0077484Y0337000D01*
X0077484Y0334813D01*
X0079046Y0334813D01*
X0079402Y0334908D01*
X0079721Y0335093D01*
X0080209Y0335833D02*
X0081905Y0335833D01*
X0081899Y0336632D02*
X0080261Y0336632D01*
X0080261Y0337000D02*
X0080261Y0337972D01*
X0080166Y0338328D01*
X0079982Y0338647D01*
X0079721Y0338908D01*
X0079695Y0338923D01*
X0079761Y0338990D01*
X0079761Y0341310D01*
X0079347Y0341725D01*
X0079761Y0342139D01*
X0079761Y0344460D01*
X0079234Y0344987D01*
X0075733Y0344987D01*
X0075345Y0344600D01*
X0073815Y0344600D01*
X0073427Y0344987D01*
X0069926Y0344987D01*
X0069399Y0344460D01*
X0069399Y0342139D01*
X0069813Y0341725D01*
X0069399Y0341310D01*
X0069399Y0338990D01*
X0069813Y0338575D01*
X0069399Y0338161D01*
X0069399Y0335840D01*
X0069926Y0335313D01*
X0072079Y0335313D01*
X0072430Y0334962D01*
X0072430Y0333759D01*
X0073689Y0332500D01*
X0075471Y0332500D01*
X0076730Y0333759D01*
X0076730Y0334813D01*
X0077483Y0334813D01*
X0077483Y0337000D01*
X0074706Y0337000D01*
X0074706Y0336800D01*
X0074268Y0336800D01*
X0073954Y0337114D01*
X0073954Y0338161D01*
X0073540Y0338575D01*
X0073815Y0338850D01*
X0075188Y0338850D01*
X0074985Y0338647D01*
X0074801Y0338328D01*
X0074706Y0337972D01*
X0074706Y0337000D01*
X0077483Y0337000D01*
X0077483Y0337000D01*
X0077484Y0337000D01*
X0080261Y0337000D01*
X0080261Y0337430D02*
X0081899Y0337430D01*
X0081967Y0338229D02*
X0080193Y0338229D01*
X0079761Y0339027D02*
X0081899Y0339027D01*
X0081899Y0339826D02*
X0079761Y0339826D01*
X0079761Y0340624D02*
X0081899Y0340624D01*
X0082011Y0341423D02*
X0079649Y0341423D01*
X0079761Y0342221D02*
X0081899Y0342221D01*
X0081899Y0343020D02*
X0079761Y0343020D01*
X0079761Y0343818D02*
X0081899Y0343818D01*
X0082056Y0344617D02*
X0079604Y0344617D01*
X0077484Y0343300D02*
X0071676Y0343300D01*
X0069399Y0343020D02*
X0067261Y0343020D01*
X0067261Y0343818D02*
X0069399Y0343818D01*
X0069556Y0344617D02*
X0067104Y0344617D01*
X0067261Y0342221D02*
X0069399Y0342221D01*
X0069511Y0341423D02*
X0067149Y0341423D01*
X0067261Y0340624D02*
X0069399Y0340624D01*
X0069399Y0339826D02*
X0067261Y0339826D01*
X0067261Y0339027D02*
X0069399Y0339027D01*
X0069467Y0338229D02*
X0067693Y0338229D01*
X0067761Y0337430D02*
X0069399Y0337430D01*
X0069399Y0336632D02*
X0067761Y0336632D01*
X0067709Y0335833D02*
X0069405Y0335833D01*
X0067121Y0335035D02*
X0072357Y0335035D01*
X0072430Y0334236D02*
X0064230Y0334236D01*
X0063908Y0333438D02*
X0072752Y0333438D01*
X0073550Y0332639D02*
X0063110Y0332639D01*
X0061050Y0332639D02*
X0057045Y0332639D01*
X0054615Y0332639D02*
X0049740Y0332639D01*
X0049580Y0333438D02*
X0060252Y0333438D01*
X0059930Y0334236D02*
X0049580Y0334236D01*
X0049614Y0335035D02*
X0050346Y0335035D01*
X0052483Y0335035D02*
X0052484Y0335035D01*
X0052483Y0335833D02*
X0052484Y0335833D01*
X0052483Y0336632D02*
X0052484Y0336632D01*
X0054621Y0335035D02*
X0059857Y0335035D01*
X0059730Y0337000D02*
X0062080Y0334650D01*
X0062206Y0337430D02*
X0061454Y0337430D01*
X0061386Y0338229D02*
X0062274Y0338229D01*
X0059730Y0337000D02*
X0059176Y0337000D01*
X0056899Y0336632D02*
X0055261Y0336632D01*
X0055261Y0337430D02*
X0056899Y0337430D01*
X0056863Y0338229D02*
X0056967Y0338229D01*
X0056905Y0335833D02*
X0055209Y0335833D01*
X0059176Y0340150D02*
X0064984Y0340150D01*
X0064984Y0343300D02*
X0059176Y0343300D01*
X0061297Y0344617D02*
X0062863Y0344617D01*
X0064983Y0336632D02*
X0064984Y0336632D01*
X0064983Y0335833D02*
X0064984Y0335833D01*
X0064983Y0335035D02*
X0064984Y0335035D01*
X0064984Y0330800D02*
X0059176Y0330800D01*
X0059176Y0327650D02*
X0064984Y0327650D01*
X0062589Y0326251D02*
X0061216Y0326251D01*
X0061454Y0325453D02*
X0062206Y0325453D01*
X0062206Y0324654D02*
X0061454Y0324654D01*
X0059730Y0324500D02*
X0062080Y0322150D01*
X0060528Y0320662D02*
X0050130Y0320662D01*
X0050130Y0321460D02*
X0059930Y0321460D01*
X0059930Y0322259D02*
X0050121Y0322259D01*
X0049868Y0323057D02*
X0049580Y0323057D01*
X0049580Y0323856D02*
X0049706Y0323856D01*
X0049706Y0324654D02*
X0049580Y0324654D01*
X0050130Y0327050D02*
X0050206Y0327050D01*
X0050206Y0327848D02*
X0049580Y0327848D01*
X0049580Y0328647D02*
X0050206Y0328647D01*
X0050400Y0329445D02*
X0049580Y0329445D01*
X0049823Y0330244D02*
X0050206Y0330244D01*
X0050206Y0331042D02*
X0050130Y0331042D01*
X0050130Y0331841D02*
X0050206Y0331841D01*
X0055261Y0325453D02*
X0056899Y0325453D01*
X0056899Y0324654D02*
X0055261Y0324654D01*
X0055261Y0323856D02*
X0056899Y0323856D01*
X0057182Y0323057D02*
X0055099Y0323057D01*
X0052484Y0323057D02*
X0052483Y0323057D01*
X0052483Y0323856D02*
X0052484Y0323856D01*
X0050609Y0319863D02*
X0049580Y0319863D01*
X0049580Y0319065D02*
X0050206Y0319065D01*
X0050206Y0318266D02*
X0049580Y0318266D01*
X0057109Y0313475D02*
X0057213Y0313475D01*
X0059176Y0312000D02*
X0059730Y0312000D01*
X0061454Y0312676D02*
X0062206Y0312676D01*
X0062206Y0311878D02*
X0061691Y0311878D01*
X0061140Y0313475D02*
X0062386Y0313475D01*
X0064983Y0311878D02*
X0064984Y0311878D01*
X0064983Y0311079D02*
X0064984Y0311079D01*
X0064983Y0310281D02*
X0064984Y0310281D01*
X0064984Y0315150D02*
X0059176Y0315150D01*
X0064983Y0323057D02*
X0064984Y0323057D01*
X0064983Y0323856D02*
X0064984Y0323856D01*
X0059730Y0324500D02*
X0059176Y0324500D01*
X0071676Y0337000D02*
X0072230Y0337000D01*
X0074580Y0334650D01*
X0076730Y0334236D02*
X0085180Y0334236D01*
X0085252Y0333438D02*
X0076408Y0333438D01*
X0075610Y0332639D02*
X0086050Y0332639D01*
X0086937Y0336632D02*
X0087206Y0336632D01*
X0087206Y0337430D02*
X0086454Y0337430D01*
X0086386Y0338229D02*
X0087274Y0338229D01*
X0089983Y0336632D02*
X0089984Y0336632D01*
X0089983Y0335833D02*
X0089984Y0335833D01*
X0089983Y0335035D02*
X0089984Y0335035D01*
X0096676Y0337000D02*
X0097230Y0337000D01*
X0099580Y0334650D01*
X0099706Y0337430D02*
X0098954Y0337430D01*
X0098886Y0338229D02*
X0099774Y0338229D01*
X0102484Y0340150D02*
X0096676Y0340150D01*
X0098797Y0344617D02*
X0100363Y0344617D01*
X0109176Y0343300D02*
X0114984Y0343300D01*
X0117261Y0343020D02*
X0119399Y0343020D01*
X0119399Y0343818D02*
X0117261Y0343818D01*
X0117104Y0344617D02*
X0119556Y0344617D01*
X0119399Y0342221D02*
X0117261Y0342221D01*
X0117149Y0341423D02*
X0119511Y0341423D01*
X0119399Y0340624D02*
X0117261Y0340624D01*
X0117261Y0339826D02*
X0119399Y0339826D01*
X0119399Y0339027D02*
X0117261Y0339027D01*
X0117693Y0338229D02*
X0119467Y0338229D01*
X0119399Y0337430D02*
X0117761Y0337430D01*
X0117761Y0336632D02*
X0119399Y0336632D01*
X0121676Y0337000D02*
X0122230Y0337000D01*
X0124580Y0334650D01*
X0126730Y0334236D02*
X0134930Y0334236D01*
X0134857Y0335035D02*
X0129621Y0335035D01*
X0130209Y0335833D02*
X0131905Y0335833D01*
X0131899Y0336632D02*
X0130261Y0336632D01*
X0130261Y0337430D02*
X0131899Y0337430D01*
X0131967Y0338229D02*
X0130193Y0338229D01*
X0129761Y0339027D02*
X0131899Y0339027D01*
X0131899Y0339826D02*
X0129761Y0339826D01*
X0129761Y0340624D02*
X0131899Y0340624D01*
X0132011Y0341423D02*
X0129649Y0341423D01*
X0129761Y0342221D02*
X0131899Y0342221D01*
X0131899Y0343020D02*
X0129761Y0343020D01*
X0129761Y0343818D02*
X0131899Y0343818D01*
X0132056Y0344617D02*
X0129604Y0344617D01*
X0127484Y0343300D02*
X0121676Y0343300D01*
X0123797Y0344617D02*
X0125363Y0344617D01*
X0127484Y0340150D02*
X0121676Y0340150D01*
X0123886Y0338229D02*
X0124774Y0338229D01*
X0124706Y0337430D02*
X0123954Y0337430D01*
X0127483Y0336632D02*
X0127484Y0336632D01*
X0127483Y0335833D02*
X0127484Y0335833D01*
X0127483Y0335035D02*
X0127484Y0335035D01*
X0126408Y0333438D02*
X0135252Y0333438D01*
X0136050Y0332639D02*
X0125610Y0332639D01*
X0127484Y0327650D02*
X0121676Y0327650D01*
X0123716Y0326251D02*
X0125089Y0326251D01*
X0124706Y0325453D02*
X0123954Y0325453D01*
X0123954Y0324654D02*
X0124706Y0324654D01*
X0122230Y0324500D02*
X0124580Y0322150D01*
X0122230Y0324500D02*
X0121676Y0324500D01*
X0119802Y0319863D02*
X0116858Y0319863D01*
X0117261Y0319065D02*
X0119399Y0319065D01*
X0121676Y0315150D02*
X0127484Y0315150D01*
X0124886Y0313475D02*
X0123640Y0313475D01*
X0123954Y0312676D02*
X0124706Y0312676D01*
X0124706Y0311878D02*
X0124191Y0311878D01*
X0122230Y0312000D02*
X0124580Y0309650D01*
X0122230Y0312000D02*
X0121676Y0312000D01*
X0114984Y0311878D02*
X0114983Y0311878D01*
X0114983Y0311079D02*
X0114984Y0311079D01*
X0114983Y0310281D02*
X0114984Y0310281D01*
X0114984Y0305800D02*
X0109176Y0305800D01*
X0117261Y0301497D02*
X0119399Y0301497D01*
X0119437Y0300699D02*
X0117701Y0300699D01*
X0117761Y0299900D02*
X0119399Y0299900D01*
X0119399Y0299102D02*
X0117761Y0299102D01*
X0117701Y0298303D02*
X0119435Y0298303D01*
X0121676Y0299500D02*
X0122230Y0299500D01*
X0123954Y0299900D02*
X0124706Y0299900D01*
X0124766Y0300699D02*
X0123916Y0300699D01*
X0121676Y0302650D02*
X0127484Y0302650D01*
X0129909Y0310281D02*
X0134611Y0310281D01*
X0134730Y0312000D02*
X0137080Y0309650D01*
X0139230Y0309482D02*
X0140741Y0309482D01*
X0140741Y0308684D02*
X0139154Y0308684D01*
X0138356Y0307885D02*
X0141390Y0307885D01*
X0139983Y0310281D02*
X0139984Y0310281D01*
X0139983Y0311079D02*
X0139984Y0311079D01*
X0139983Y0311878D02*
X0139984Y0311878D01*
X0142761Y0311878D02*
X0143611Y0311878D01*
X0144399Y0312676D02*
X0142761Y0312676D01*
X0144609Y0313475D02*
X0144713Y0313475D01*
X0145440Y0310313D02*
X0148380Y0310313D01*
X0148380Y0307487D01*
X0144926Y0307487D01*
X0144811Y0307373D01*
X0144284Y0307900D01*
X0144919Y0308535D01*
X0144919Y0309792D01*
X0145440Y0310313D01*
X0145408Y0310281D02*
X0148380Y0310281D01*
X0148380Y0309482D02*
X0144919Y0309482D01*
X0144919Y0308684D02*
X0148380Y0308684D01*
X0148380Y0307885D02*
X0144299Y0307885D01*
X0137206Y0311878D02*
X0136691Y0311878D01*
X0136454Y0312676D02*
X0137206Y0312676D01*
X0137386Y0313475D02*
X0136140Y0313475D01*
X0134730Y0312000D02*
X0134176Y0312000D01*
X0131899Y0311079D02*
X0130261Y0311079D01*
X0134176Y0315150D02*
X0139984Y0315150D01*
X0138632Y0320662D02*
X0144430Y0320662D01*
X0144430Y0321460D02*
X0139230Y0321460D01*
X0139230Y0322259D02*
X0144430Y0322259D01*
X0144682Y0323057D02*
X0142599Y0323057D01*
X0142761Y0323856D02*
X0144399Y0323856D01*
X0144399Y0324654D02*
X0142761Y0324654D01*
X0142761Y0325453D02*
X0144399Y0325453D01*
X0146676Y0324500D02*
X0146676Y0321496D01*
X0146580Y0321400D01*
X0139984Y0323057D02*
X0139983Y0323057D01*
X0139983Y0323856D02*
X0139984Y0323856D01*
X0137206Y0324654D02*
X0136454Y0324654D01*
X0136454Y0325453D02*
X0137206Y0325453D01*
X0137589Y0326251D02*
X0136216Y0326251D01*
X0134730Y0324500D02*
X0137080Y0322150D01*
X0134730Y0324500D02*
X0134176Y0324500D01*
X0134176Y0327650D02*
X0139984Y0327650D01*
X0139984Y0330800D02*
X0134176Y0330800D01*
X0138110Y0332639D02*
X0142115Y0332639D01*
X0142121Y0335035D02*
X0144674Y0335035D01*
X0144430Y0334236D02*
X0139230Y0334236D01*
X0138908Y0333438D02*
X0144430Y0333438D01*
X0144545Y0332639D02*
X0144800Y0332639D01*
X0146580Y0333900D02*
X0146676Y0333996D01*
X0146676Y0337000D01*
X0144399Y0336632D02*
X0142761Y0336632D01*
X0142761Y0337430D02*
X0144399Y0337430D01*
X0144363Y0338229D02*
X0144467Y0338229D01*
X0144405Y0335833D02*
X0142709Y0335833D01*
X0139984Y0335833D02*
X0139983Y0335833D01*
X0139983Y0335035D02*
X0139984Y0335035D01*
X0139983Y0336632D02*
X0139984Y0336632D01*
X0137206Y0337430D02*
X0136454Y0337430D01*
X0136386Y0338229D02*
X0137274Y0338229D01*
X0134730Y0337000D02*
X0137080Y0334650D01*
X0134730Y0337000D02*
X0134176Y0337000D01*
X0134176Y0340150D02*
X0139984Y0340150D01*
X0139984Y0343300D02*
X0134176Y0343300D01*
X0136297Y0344617D02*
X0137863Y0344617D01*
X0114984Y0340150D02*
X0109176Y0340150D01*
X0106905Y0335833D02*
X0105209Y0335833D01*
X0104761Y0331841D02*
X0106899Y0331841D01*
X0102484Y0327650D02*
X0096676Y0327650D01*
X0098716Y0326251D02*
X0100089Y0326251D01*
X0099706Y0325453D02*
X0098954Y0325453D01*
X0098954Y0324654D02*
X0099706Y0324654D01*
X0102483Y0323856D02*
X0102484Y0323856D01*
X0102483Y0323057D02*
X0102484Y0323057D01*
X0114983Y0335035D02*
X0114984Y0335035D01*
X0114983Y0335833D02*
X0114984Y0335833D01*
X0114983Y0336632D02*
X0114984Y0336632D01*
X0112863Y0344617D02*
X0111297Y0344617D01*
X0089984Y0343300D02*
X0084176Y0343300D01*
X0086297Y0344617D02*
X0087863Y0344617D01*
X0089984Y0340150D02*
X0084176Y0340150D01*
X0077484Y0340150D02*
X0071676Y0340150D01*
X0073886Y0338229D02*
X0074774Y0338229D01*
X0074706Y0337430D02*
X0073954Y0337430D01*
X0077483Y0336632D02*
X0077484Y0336632D01*
X0077483Y0335833D02*
X0077484Y0335833D01*
X0077483Y0335035D02*
X0077484Y0335035D01*
X0075363Y0344617D02*
X0073797Y0344617D01*
X0064984Y0302650D02*
X0059176Y0302650D01*
X0056937Y0300699D02*
X0056833Y0300699D01*
X0056899Y0299900D02*
X0055261Y0299900D01*
X0055261Y0299102D02*
X0056899Y0299102D01*
X0056935Y0298303D02*
X0055201Y0298303D01*
X0054569Y0297505D02*
X0059887Y0297505D01*
X0059930Y0296706D02*
X0050780Y0296706D01*
X0050780Y0295908D02*
X0060282Y0295908D01*
X0061080Y0295109D02*
X0057075Y0295109D01*
X0054585Y0295109D02*
X0050780Y0295109D01*
X0052483Y0297505D02*
X0052484Y0297505D01*
X0052483Y0298303D02*
X0052484Y0298303D01*
X0052483Y0299102D02*
X0052484Y0299102D01*
X0059176Y0299500D02*
X0059730Y0299500D01*
X0062080Y0297150D01*
X0062206Y0299900D02*
X0061454Y0299900D01*
X0061416Y0300699D02*
X0062266Y0300699D01*
X0064984Y0293300D02*
X0059176Y0293300D01*
X0059176Y0290150D02*
X0064984Y0290150D01*
X0062559Y0288721D02*
X0061186Y0288721D01*
X0061454Y0287923D02*
X0062206Y0287923D01*
X0062206Y0287124D02*
X0061454Y0287124D01*
X0059730Y0287000D02*
X0062080Y0284650D01*
X0060558Y0283132D02*
X0050780Y0283132D01*
X0050780Y0283930D02*
X0059930Y0283930D01*
X0059930Y0284729D02*
X0050780Y0284729D01*
X0052483Y0285527D02*
X0052484Y0285527D01*
X0052483Y0286326D02*
X0052484Y0286326D01*
X0055082Y0285527D02*
X0057212Y0285527D01*
X0056899Y0286326D02*
X0055261Y0286326D01*
X0055261Y0287124D02*
X0056899Y0287124D01*
X0056899Y0287923D02*
X0055261Y0287923D01*
X0059176Y0287000D02*
X0059730Y0287000D01*
X0064983Y0286326D02*
X0064984Y0286326D01*
X0064983Y0285527D02*
X0064984Y0285527D01*
X0064984Y0277650D02*
X0059176Y0277650D01*
X0061170Y0275945D02*
X0062368Y0275945D01*
X0062206Y0275146D02*
X0061454Y0275146D01*
X0061721Y0274348D02*
X0062206Y0274348D01*
X0064983Y0274348D02*
X0064984Y0274348D01*
X0064983Y0273549D02*
X0064984Y0273549D01*
X0064983Y0272751D02*
X0064984Y0272751D01*
X0064984Y0268300D02*
X0059176Y0268300D01*
X0059176Y0265150D02*
X0064984Y0265150D01*
X0062258Y0263169D02*
X0061446Y0263169D01*
X0061454Y0262370D02*
X0062206Y0262370D01*
X0052484Y0272751D02*
X0052483Y0272751D01*
X0052483Y0273549D02*
X0052484Y0273549D01*
X0052483Y0274348D02*
X0052484Y0274348D01*
X0050088Y0272751D02*
X0049628Y0272751D01*
X0071676Y0277650D02*
X0077484Y0277650D01*
X0084176Y0274500D02*
X0084730Y0274500D01*
X0087080Y0272150D01*
X0087206Y0274348D02*
X0086721Y0274348D01*
X0086454Y0275146D02*
X0087206Y0275146D01*
X0087368Y0275945D02*
X0086170Y0275945D01*
X0092379Y0272751D02*
X0097141Y0272751D01*
X0097230Y0274500D02*
X0099580Y0272150D01*
X0099706Y0274348D02*
X0099221Y0274348D01*
X0098954Y0275146D02*
X0099706Y0275146D01*
X0099868Y0275945D02*
X0098670Y0275945D01*
X0097230Y0274500D02*
X0096676Y0274500D01*
X0094399Y0273549D02*
X0092761Y0273549D01*
X0096676Y0277650D02*
X0102484Y0277650D01*
X0102483Y0274348D02*
X0102484Y0274348D01*
X0102483Y0273549D02*
X0102484Y0273549D01*
X0102483Y0272751D02*
X0102484Y0272751D01*
X0102484Y0268300D02*
X0096676Y0268300D01*
X0104739Y0263967D02*
X0106921Y0263967D01*
X0106907Y0263169D02*
X0105209Y0263169D01*
X0105261Y0262370D02*
X0106899Y0262370D01*
X0106899Y0261572D02*
X0105261Y0261572D01*
X0105193Y0260773D02*
X0106966Y0260773D01*
X0109176Y0262000D02*
X0109730Y0262000D01*
X0111454Y0262370D02*
X0112206Y0262370D01*
X0112258Y0263169D02*
X0111446Y0263169D01*
X0109176Y0265150D02*
X0114984Y0265150D01*
X0121676Y0268300D02*
X0127484Y0268300D01*
X0127483Y0272751D02*
X0127484Y0272751D01*
X0127483Y0273549D02*
X0127484Y0273549D01*
X0127483Y0274348D02*
X0127484Y0274348D01*
X0124706Y0274348D02*
X0124221Y0274348D01*
X0123954Y0275146D02*
X0124706Y0275146D01*
X0124868Y0275945D02*
X0123670Y0275945D01*
X0122230Y0274500D02*
X0124580Y0272150D01*
X0122141Y0272751D02*
X0117379Y0272751D01*
X0117761Y0273549D02*
X0119399Y0273549D01*
X0121676Y0274500D02*
X0122230Y0274500D01*
X0121676Y0277650D02*
X0127484Y0277650D01*
X0134176Y0287000D02*
X0134730Y0287000D01*
X0134176Y0290150D02*
X0139984Y0290150D01*
X0139984Y0293300D02*
X0134176Y0293300D01*
X0112368Y0275945D02*
X0111170Y0275945D01*
X0111454Y0275146D02*
X0112206Y0275146D01*
X0112206Y0274348D02*
X0111721Y0274348D01*
X0109730Y0274500D02*
X0112080Y0272150D01*
X0109730Y0274500D02*
X0109176Y0274500D01*
X0089984Y0290150D02*
X0084176Y0290150D01*
X0086186Y0288721D02*
X0087559Y0288721D01*
X0087206Y0287923D02*
X0086454Y0287923D01*
X0086454Y0287124D02*
X0087206Y0287124D01*
X0084930Y0284729D02*
X0076730Y0284729D01*
X0076730Y0283930D02*
X0084930Y0283930D01*
X0086081Y0282333D02*
X0088079Y0282333D01*
X0077484Y0285527D02*
X0077483Y0285527D01*
X0077483Y0286326D02*
X0077484Y0286326D01*
X0074706Y0287124D02*
X0073954Y0287124D01*
X0073954Y0287923D02*
X0074706Y0287923D01*
X0075059Y0288721D02*
X0073686Y0288721D01*
X0071676Y0290150D02*
X0077484Y0290150D01*
X0069435Y0298303D02*
X0067701Y0298303D01*
X0129739Y0263967D02*
X0131921Y0263967D01*
X0131907Y0263169D02*
X0130209Y0263169D01*
X0130261Y0262370D02*
X0131899Y0262370D01*
X0131899Y0261572D02*
X0130261Y0261572D01*
X0130193Y0260773D02*
X0131966Y0260773D01*
X0134176Y0262000D02*
X0134730Y0262000D01*
X0136454Y0262370D02*
X0137206Y0262370D01*
X0137258Y0263169D02*
X0136446Y0263169D01*
X0134176Y0265150D02*
X0139984Y0265150D01*
X0139984Y0255800D02*
X0134176Y0255800D01*
D14*
X0143330Y0255900D03*
X0143330Y0249150D03*
X0143330Y0265150D03*
X0143330Y0268400D03*
X0143330Y0277650D03*
X0143330Y0280900D03*
X0143330Y0290150D03*
X0143330Y0293400D03*
X0143330Y0302650D03*
X0143330Y0305900D03*
X0142830Y0309400D03*
X0143330Y0315150D03*
X0143330Y0318400D03*
X0143330Y0327650D03*
X0143330Y0330900D03*
X0143330Y0340150D03*
X0143330Y0343400D03*
X0093830Y0296400D03*
X0055830Y0293400D03*
X0055830Y0290150D03*
X0055830Y0280900D03*
X0055830Y0277650D03*
X0055830Y0268400D03*
X0055830Y0265150D03*
X0055830Y0255900D03*
X0055830Y0252650D03*
X0055830Y0249400D03*
X0055830Y0302650D03*
X0055830Y0305900D03*
X0055830Y0315150D03*
X0055830Y0318400D03*
X0055830Y0327650D03*
X0055830Y0330900D03*
X0055830Y0340150D03*
X0055830Y0343400D03*
X0118330Y0249150D03*
D15*
X0143330Y0255900D02*
X0143430Y0255800D01*
X0146676Y0255800D01*
X0146676Y0265150D02*
X0143330Y0265150D01*
X0143330Y0268400D02*
X0146576Y0268400D01*
X0146676Y0268300D01*
X0146676Y0277650D02*
X0143330Y0277650D01*
X0143230Y0280800D02*
X0143330Y0280900D01*
X0143230Y0280800D02*
X0146676Y0280800D01*
X0146676Y0290150D02*
X0143330Y0290150D01*
X0143230Y0293300D02*
X0143330Y0293400D01*
X0143230Y0293300D02*
X0146676Y0293300D01*
X0146676Y0302650D02*
X0143330Y0302650D01*
X0143230Y0305800D02*
X0143330Y0305900D01*
X0143230Y0305800D02*
X0146676Y0305800D01*
X0142830Y0309400D02*
X0145430Y0312000D01*
X0146676Y0312000D01*
X0146676Y0315150D02*
X0143330Y0315150D01*
X0143230Y0318300D02*
X0143330Y0318400D01*
X0143230Y0318300D02*
X0146676Y0318300D01*
X0146676Y0327650D02*
X0143330Y0327650D01*
X0143230Y0330800D02*
X0143330Y0330900D01*
X0143230Y0330800D02*
X0146676Y0330800D01*
X0146676Y0340150D02*
X0143330Y0340150D01*
X0143430Y0343300D02*
X0143330Y0343400D01*
X0143430Y0343300D02*
X0146676Y0343300D01*
X0055930Y0343300D02*
X0055830Y0343400D01*
X0055930Y0343300D02*
X0052484Y0343300D01*
X0052484Y0340150D02*
X0055830Y0340150D01*
X0055830Y0330900D02*
X0055930Y0330800D01*
X0052484Y0330800D01*
X0052484Y0327650D02*
X0055830Y0327650D01*
X0055830Y0318400D02*
X0055930Y0318300D01*
X0052484Y0318300D01*
X0052484Y0315150D02*
X0055830Y0315150D01*
X0055830Y0305900D02*
X0055930Y0305800D01*
X0052484Y0305800D01*
X0052484Y0302650D02*
X0055830Y0302650D01*
X0055830Y0293400D02*
X0055930Y0293300D01*
X0052484Y0293300D01*
X0052484Y0290150D02*
X0055830Y0290150D01*
X0055830Y0280900D02*
X0055930Y0280800D01*
X0052484Y0280800D01*
X0052484Y0277650D02*
X0055830Y0277650D01*
X0055830Y0268400D02*
X0055930Y0268300D01*
X0052484Y0268300D01*
X0052484Y0265150D02*
X0055830Y0265150D01*
X0055830Y0255900D02*
X0055730Y0255800D01*
X0052484Y0255800D01*
X0052484Y0252650D02*
X0055830Y0252650D01*
D16*
X0143512Y0252650D02*
X0146676Y0252650D01*
M02*
