G75*
%MOIN*%
%OFA0B0*%
%FSLAX25Y25*%
%IPPOS*%
%LPD*%
%AMOC8*
5,1,8,0,0,1.08239X$1,22.5*
%
%ADD10R,0.01575X0.00157*%
%ADD11R,0.00472X0.00157*%
%ADD12R,0.00315X0.00157*%
%ADD13R,0.02205X0.00157*%
%ADD14R,0.00787X0.00157*%
%ADD15R,0.02520X0.00157*%
%ADD16R,0.00945X0.00157*%
%ADD17R,0.01102X0.00157*%
%ADD18R,0.01260X0.00157*%
%ADD19R,0.02362X0.00157*%
%ADD20R,0.01417X0.00157*%
%ADD21R,0.01890X0.00157*%
%ADD22R,0.02677X0.00157*%
%ADD23R,0.02047X0.00157*%
%ADD24R,0.01732X0.00157*%
%ADD25R,0.00630X0.00157*%
%ADD26R,0.00157X0.00157*%
%ADD27R,0.02835X0.00157*%
%ADD28R,0.02992X0.00157*%
%ADD29R,0.03150X0.00157*%
%ADD30R,0.03307X0.00157*%
%ADD31R,0.03465X0.00157*%
%ADD32R,0.03622X0.00157*%
%ADD33R,0.00945X0.00236*%
%ADD34R,0.01181X0.00236*%
%ADD35R,0.00236X0.00236*%
%ADD36R,0.01417X0.00236*%
%ADD37R,0.00709X0.00236*%
%ADD38R,0.00472X0.00236*%
%ADD39R,0.01654X0.00236*%
%ADD40R,0.02362X0.00236*%
%ADD41R,0.02835X0.00236*%
%ADD42R,0.01890X0.00236*%
%ADD43R,0.03071X0.00236*%
%ADD44R,0.03307X0.00236*%
%ADD45R,0.03543X0.00236*%
%ADD46R,0.02126X0.00236*%
%ADD47R,0.03780X0.00236*%
%ADD48R,0.04016X0.00236*%
%ADD49R,0.02598X0.00236*%
%ADD50R,0.06614X0.00236*%
%ADD51R,0.04252X0.00236*%
%ADD52R,0.06850X0.00236*%
%ADD53R,0.04488X0.00236*%
%ADD54C,0.00300*%
%ADD55C,0.00591*%
%ADD56R,0.00157X0.01575*%
%ADD57R,0.00157X0.00472*%
%ADD58R,0.00157X0.00315*%
%ADD59R,0.00157X0.02205*%
%ADD60R,0.00157X0.00787*%
%ADD61R,0.00157X0.02520*%
%ADD62R,0.00157X0.00945*%
%ADD63R,0.00157X0.01102*%
%ADD64R,0.00157X0.01260*%
%ADD65R,0.00157X0.02362*%
%ADD66R,0.00157X0.01417*%
%ADD67R,0.00157X0.01890*%
%ADD68R,0.00157X0.02677*%
%ADD69R,0.00157X0.02047*%
%ADD70R,0.00157X0.01732*%
%ADD71R,0.00157X0.00630*%
%ADD72R,0.00157X0.02835*%
%ADD73R,0.00157X0.02992*%
%ADD74R,0.00157X0.03150*%
%ADD75R,0.00157X0.03307*%
%ADD76R,0.00157X0.03465*%
%ADD77R,0.00157X0.03622*%
D10*
X0078911Y0256890D03*
X0082533Y0260197D03*
X0094153Y0256103D03*
X0095256Y0257048D03*
X0113592Y0259095D03*
X0117371Y0256890D03*
X0117371Y0256733D03*
X0119576Y0259252D03*
X0121466Y0257678D03*
X0117734Y0333548D03*
X0115844Y0335122D03*
X0119939Y0335910D03*
X0119939Y0336067D03*
X0123718Y0333705D03*
X0108996Y0335752D03*
X0104587Y0333705D03*
X0095236Y0336697D03*
X0094134Y0335752D03*
X0091457Y0336697D03*
X0090354Y0335752D03*
X0090197Y0333705D03*
X0082699Y0335910D03*
X0079077Y0332603D03*
D11*
X0081203Y0332603D03*
X0092323Y0333863D03*
X0092323Y0335595D03*
X0095158Y0336855D03*
X0107973Y0336855D03*
X0080407Y0260197D03*
D12*
X0077336Y0260197D03*
X0083478Y0257205D03*
X0093208Y0258937D03*
X0104041Y0260197D03*
X0122411Y0255945D03*
X0084274Y0332603D03*
X0078132Y0335595D03*
X0091457Y0336855D03*
X0114899Y0336855D03*
D13*
X0118049Y0334335D03*
X0119624Y0335122D03*
X0122301Y0332760D03*
X0107894Y0336540D03*
X0103169Y0332760D03*
X0095236Y0336540D03*
X0091457Y0336540D03*
X0082699Y0335280D03*
X0078762Y0334335D03*
X0079077Y0332760D03*
X0082533Y0260040D03*
X0082848Y0258465D03*
X0078911Y0257520D03*
X0094153Y0256260D03*
X0107348Y0256103D03*
X0115009Y0260040D03*
X0117686Y0257678D03*
X0119261Y0258465D03*
D14*
X0119812Y0260040D03*
X0119812Y0256103D03*
X0117135Y0256103D03*
X0103962Y0256103D03*
X0094074Y0260197D03*
X0093287Y0259095D03*
X0091870Y0256103D03*
X0083399Y0257678D03*
X0080407Y0260040D03*
X0077258Y0260040D03*
X0081203Y0332760D03*
X0084352Y0332760D03*
X0078211Y0335122D03*
X0091378Y0332603D03*
X0092323Y0333705D03*
X0117498Y0332760D03*
X0117498Y0336697D03*
X0120175Y0336697D03*
D15*
X0122301Y0336540D03*
X0114899Y0332918D03*
X0079077Y0332918D03*
X0079077Y0333075D03*
X0079077Y0333233D03*
X0078919Y0334650D03*
X0078919Y0334807D03*
X0082533Y0259882D03*
X0082533Y0259725D03*
X0082533Y0259567D03*
X0082691Y0258150D03*
X0082691Y0257993D03*
X0107191Y0256260D03*
X0115009Y0256260D03*
X0122411Y0259882D03*
D16*
X0117214Y0259882D03*
X0117214Y0260040D03*
X0117214Y0256260D03*
X0113119Y0257835D03*
X0113119Y0257993D03*
X0113119Y0258307D03*
X0107978Y0258307D03*
X0107978Y0258150D03*
X0107978Y0257993D03*
X0107978Y0257835D03*
X0107978Y0257678D03*
X0107978Y0257520D03*
X0107978Y0257363D03*
X0107978Y0257205D03*
X0107978Y0258465D03*
X0107978Y0258622D03*
X0107978Y0258780D03*
X0107978Y0258937D03*
X0107978Y0259095D03*
X0104041Y0259882D03*
X0104041Y0260040D03*
X0104041Y0256260D03*
X0095728Y0257835D03*
X0095728Y0257993D03*
X0095728Y0258307D03*
X0093366Y0257048D03*
X0091791Y0260040D03*
X0083321Y0259095D03*
X0083478Y0257048D03*
X0079541Y0257678D03*
X0078911Y0256260D03*
X0080486Y0259882D03*
X0081124Y0332918D03*
X0082069Y0335122D03*
X0082699Y0336540D03*
X0078132Y0335752D03*
X0078289Y0333705D03*
X0092244Y0335752D03*
X0093662Y0334965D03*
X0093662Y0334807D03*
X0093662Y0334650D03*
X0093662Y0334493D03*
X0095236Y0332603D03*
X0105059Y0334335D03*
X0107894Y0332603D03*
X0109469Y0334965D03*
X0120096Y0336540D03*
X0120096Y0332918D03*
X0120096Y0332760D03*
X0124191Y0334493D03*
X0124191Y0334807D03*
X0124191Y0334965D03*
D17*
X0124112Y0335122D03*
X0124112Y0335280D03*
X0124269Y0334650D03*
X0124112Y0334335D03*
X0124112Y0334178D03*
X0121592Y0334178D03*
X0121592Y0334335D03*
X0121592Y0334493D03*
X0121592Y0334650D03*
X0121592Y0334807D03*
X0121592Y0334965D03*
X0121592Y0335122D03*
X0121592Y0335280D03*
X0121592Y0335437D03*
X0121592Y0335595D03*
X0121592Y0334020D03*
X0121592Y0333863D03*
X0121592Y0333705D03*
X0120175Y0333705D03*
X0120175Y0333548D03*
X0120175Y0333390D03*
X0120175Y0333233D03*
X0120175Y0333075D03*
X0120175Y0333863D03*
X0120175Y0334020D03*
X0120175Y0334178D03*
X0120175Y0334335D03*
X0120175Y0334493D03*
X0120175Y0334650D03*
X0120175Y0334807D03*
X0118758Y0334650D03*
X0117498Y0334650D03*
X0117498Y0334807D03*
X0117498Y0334965D03*
X0117498Y0335122D03*
X0117498Y0335280D03*
X0117498Y0335437D03*
X0117498Y0335595D03*
X0117498Y0335752D03*
X0117498Y0335910D03*
X0117498Y0336067D03*
X0117498Y0336225D03*
X0117498Y0336382D03*
X0117498Y0336540D03*
X0116080Y0335595D03*
X0116080Y0335437D03*
X0116080Y0335280D03*
X0113561Y0335437D03*
X0113403Y0335122D03*
X0113403Y0334965D03*
X0113403Y0334807D03*
X0113403Y0334650D03*
X0113403Y0334493D03*
X0113403Y0334335D03*
X0113403Y0334178D03*
X0114978Y0332603D03*
X0117498Y0332918D03*
X0109547Y0334493D03*
X0109547Y0334650D03*
X0109547Y0334807D03*
X0109390Y0335122D03*
X0109390Y0335280D03*
X0109390Y0334335D03*
X0109390Y0334178D03*
X0106555Y0334020D03*
X0106398Y0334178D03*
X0106398Y0334335D03*
X0106398Y0334493D03*
X0106398Y0334650D03*
X0106398Y0334807D03*
X0106398Y0334965D03*
X0106398Y0335122D03*
X0106555Y0335437D03*
X0105138Y0334965D03*
X0105138Y0334807D03*
X0105138Y0334650D03*
X0105138Y0334493D03*
X0104980Y0334178D03*
X0104980Y0335122D03*
X0104980Y0335280D03*
X0102461Y0335280D03*
X0102461Y0335437D03*
X0102461Y0335595D03*
X0102461Y0335122D03*
X0102461Y0334965D03*
X0102461Y0334807D03*
X0102461Y0334650D03*
X0102461Y0334493D03*
X0102461Y0334335D03*
X0102461Y0334178D03*
X0102461Y0334020D03*
X0102461Y0333863D03*
X0102461Y0333705D03*
X0096732Y0334178D03*
X0096732Y0334335D03*
X0096732Y0334493D03*
X0096732Y0334650D03*
X0096732Y0334807D03*
X0096732Y0334965D03*
X0096732Y0335122D03*
X0096575Y0335437D03*
X0096575Y0334020D03*
X0093740Y0334178D03*
X0093740Y0334335D03*
X0093740Y0335122D03*
X0093740Y0335280D03*
X0089961Y0335280D03*
X0089961Y0335437D03*
X0089803Y0335122D03*
X0089803Y0334965D03*
X0089803Y0334807D03*
X0089803Y0334650D03*
X0089803Y0334493D03*
X0089803Y0334335D03*
X0089961Y0334020D03*
X0084352Y0333075D03*
X0084352Y0332918D03*
X0084195Y0333390D03*
X0084037Y0333705D03*
X0083880Y0334020D03*
X0083723Y0334335D03*
X0083723Y0334493D03*
X0083565Y0334650D03*
X0083565Y0334807D03*
X0083408Y0334965D03*
X0083408Y0335122D03*
X0081990Y0334965D03*
X0081990Y0334807D03*
X0081833Y0334650D03*
X0081833Y0334493D03*
X0081675Y0334335D03*
X0081675Y0334178D03*
X0081518Y0334020D03*
X0081518Y0333863D03*
X0081360Y0333705D03*
X0081360Y0333548D03*
X0081203Y0333390D03*
X0081203Y0333233D03*
X0079786Y0335280D03*
X0079786Y0335437D03*
X0079786Y0335595D03*
X0078211Y0333863D03*
X0077258Y0259882D03*
X0077258Y0259725D03*
X0077415Y0259410D03*
X0077573Y0259095D03*
X0077730Y0258780D03*
X0077887Y0258465D03*
X0077887Y0258307D03*
X0078045Y0258150D03*
X0078045Y0257993D03*
X0078202Y0257835D03*
X0078202Y0257678D03*
X0079620Y0257835D03*
X0079620Y0257993D03*
X0079777Y0258150D03*
X0079777Y0258307D03*
X0079935Y0258465D03*
X0079935Y0258622D03*
X0080092Y0258780D03*
X0080092Y0258937D03*
X0080250Y0259095D03*
X0080250Y0259252D03*
X0080407Y0259410D03*
X0080407Y0259567D03*
X0081824Y0257520D03*
X0081824Y0257363D03*
X0081824Y0257205D03*
X0083399Y0258937D03*
X0091870Y0258937D03*
X0091870Y0258780D03*
X0091870Y0258622D03*
X0091870Y0258465D03*
X0091870Y0258307D03*
X0091870Y0258150D03*
X0091870Y0257993D03*
X0091870Y0257835D03*
X0091870Y0257678D03*
X0091870Y0257520D03*
X0091870Y0257363D03*
X0091870Y0257205D03*
X0091870Y0257048D03*
X0091870Y0256890D03*
X0091870Y0256733D03*
X0091870Y0256575D03*
X0091870Y0256418D03*
X0091870Y0256260D03*
X0091870Y0259095D03*
X0091870Y0259252D03*
X0091870Y0259410D03*
X0091870Y0259567D03*
X0091870Y0259725D03*
X0091870Y0259882D03*
X0095649Y0258622D03*
X0095649Y0258465D03*
X0095807Y0258150D03*
X0095649Y0257678D03*
X0095649Y0257520D03*
X0103962Y0257520D03*
X0103962Y0257363D03*
X0103962Y0257205D03*
X0103962Y0257048D03*
X0103962Y0256890D03*
X0103962Y0256733D03*
X0103962Y0256575D03*
X0103962Y0256418D03*
X0103962Y0257678D03*
X0103962Y0257835D03*
X0103962Y0257993D03*
X0103962Y0258150D03*
X0103962Y0258307D03*
X0103962Y0258465D03*
X0103962Y0258622D03*
X0103962Y0258780D03*
X0103962Y0258937D03*
X0103962Y0259095D03*
X0103962Y0259252D03*
X0103962Y0259410D03*
X0103962Y0259567D03*
X0103962Y0259725D03*
X0105537Y0258780D03*
X0105380Y0258465D03*
X0105380Y0258307D03*
X0105380Y0258150D03*
X0105380Y0257993D03*
X0105380Y0257835D03*
X0105380Y0257678D03*
X0105537Y0257520D03*
X0113041Y0258150D03*
X0113198Y0258465D03*
X0113198Y0258622D03*
X0113198Y0257678D03*
X0113198Y0257520D03*
X0115718Y0257520D03*
X0115718Y0257363D03*
X0115718Y0257205D03*
X0115718Y0257678D03*
X0115718Y0257835D03*
X0115718Y0257993D03*
X0115718Y0258150D03*
X0115718Y0258307D03*
X0115718Y0258465D03*
X0115718Y0258622D03*
X0115718Y0258780D03*
X0115718Y0258937D03*
X0115718Y0259095D03*
X0117135Y0259095D03*
X0117135Y0259252D03*
X0117135Y0259410D03*
X0117135Y0259567D03*
X0117135Y0259725D03*
X0117135Y0258937D03*
X0117135Y0258780D03*
X0117135Y0258622D03*
X0117135Y0258465D03*
X0117135Y0258307D03*
X0117135Y0258150D03*
X0117135Y0257993D03*
X0118552Y0258150D03*
X0119812Y0258150D03*
X0119812Y0257993D03*
X0119812Y0257835D03*
X0119812Y0257678D03*
X0119812Y0257520D03*
X0119812Y0257363D03*
X0119812Y0257205D03*
X0119812Y0257048D03*
X0119812Y0256890D03*
X0119812Y0256733D03*
X0119812Y0256575D03*
X0119812Y0256418D03*
X0119812Y0256260D03*
X0121230Y0257205D03*
X0121230Y0257363D03*
X0121230Y0257520D03*
X0123749Y0257363D03*
X0123907Y0257678D03*
X0123907Y0257835D03*
X0123907Y0257993D03*
X0123907Y0258150D03*
X0123907Y0258307D03*
X0123907Y0258465D03*
X0123907Y0258622D03*
X0122332Y0260197D03*
X0119812Y0259882D03*
D18*
X0119734Y0259725D03*
X0118474Y0257993D03*
X0117214Y0256418D03*
X0113434Y0257205D03*
X0113277Y0257363D03*
X0113277Y0258780D03*
X0113434Y0258937D03*
X0115167Y0260197D03*
X0121308Y0257048D03*
X0123671Y0257205D03*
X0123828Y0257520D03*
X0123828Y0258780D03*
X0123671Y0258937D03*
X0105616Y0258937D03*
X0105458Y0258622D03*
X0105616Y0257363D03*
X0095571Y0257363D03*
X0095413Y0257205D03*
X0095571Y0258780D03*
X0095413Y0258937D03*
X0081903Y0257678D03*
X0081903Y0257048D03*
X0080486Y0259725D03*
X0077809Y0258622D03*
X0077651Y0258937D03*
X0077494Y0259252D03*
X0077336Y0259567D03*
X0078911Y0256575D03*
X0078911Y0256418D03*
X0081124Y0333075D03*
X0079707Y0335122D03*
X0079707Y0335752D03*
X0082699Y0336225D03*
X0082699Y0336382D03*
X0083801Y0334178D03*
X0083959Y0333863D03*
X0084116Y0333548D03*
X0084274Y0333233D03*
X0089882Y0334178D03*
X0090039Y0333863D03*
X0093819Y0334020D03*
X0093976Y0333863D03*
X0093819Y0335437D03*
X0093976Y0335595D03*
X0096496Y0335595D03*
X0096654Y0335280D03*
X0096496Y0333863D03*
X0103012Y0332603D03*
X0104902Y0334020D03*
X0104902Y0335437D03*
X0104744Y0335595D03*
X0106476Y0335280D03*
X0106634Y0335595D03*
X0106634Y0333863D03*
X0106791Y0333705D03*
X0109311Y0333863D03*
X0109311Y0334020D03*
X0109311Y0335437D03*
X0109154Y0335595D03*
X0113482Y0335280D03*
X0113639Y0335595D03*
X0113482Y0334020D03*
X0113639Y0333863D03*
X0116002Y0335752D03*
X0118836Y0334807D03*
X0120096Y0336382D03*
X0123876Y0335595D03*
X0124033Y0335437D03*
X0124033Y0334020D03*
X0123876Y0333863D03*
X0122143Y0332603D03*
X0117576Y0333075D03*
D19*
X0118128Y0334493D03*
X0119545Y0334965D03*
X0114978Y0336540D03*
X0107973Y0332918D03*
X0095158Y0332918D03*
X0091378Y0332918D03*
X0078998Y0333390D03*
X0078998Y0333548D03*
X0078841Y0334493D03*
X0078841Y0336382D03*
X0082612Y0259410D03*
X0082612Y0259252D03*
X0082769Y0258307D03*
X0082769Y0256418D03*
X0094074Y0259882D03*
X0107269Y0260040D03*
X0117765Y0257835D03*
X0119182Y0258307D03*
X0122332Y0256260D03*
D20*
X0123434Y0257048D03*
X0123592Y0259095D03*
X0119655Y0259410D03*
X0119655Y0259567D03*
X0117293Y0256575D03*
X0107427Y0260197D03*
X0105852Y0259095D03*
X0105695Y0257205D03*
X0095334Y0259095D03*
X0083242Y0258780D03*
X0082769Y0256103D03*
X0078832Y0256733D03*
X0078368Y0334020D03*
X0078841Y0336697D03*
X0082778Y0336067D03*
X0090118Y0335595D03*
X0094055Y0333705D03*
X0096417Y0333705D03*
X0096260Y0335752D03*
X0104823Y0333863D03*
X0106870Y0335752D03*
X0109075Y0333705D03*
X0113718Y0333705D03*
X0113876Y0335752D03*
X0117655Y0333390D03*
X0117655Y0333233D03*
X0120017Y0336225D03*
D21*
X0119781Y0335595D03*
X0117891Y0334020D03*
X0117891Y0333863D03*
X0115687Y0334807D03*
X0115687Y0334965D03*
X0115529Y0334650D03*
X0114899Y0332760D03*
X0095236Y0332760D03*
X0082699Y0335595D03*
X0078604Y0334178D03*
X0122411Y0260040D03*
X0121781Y0258150D03*
X0121623Y0257993D03*
X0121623Y0257835D03*
X0119419Y0258780D03*
X0119419Y0258937D03*
X0117529Y0257205D03*
X0083006Y0258622D03*
X0078911Y0257205D03*
D22*
X0082612Y0256890D03*
X0082769Y0256733D03*
X0082769Y0256575D03*
X0082612Y0257835D03*
X0094074Y0256418D03*
X0107112Y0256418D03*
X0107112Y0259882D03*
X0114930Y0259882D03*
X0122332Y0256418D03*
X0122380Y0332918D03*
X0114978Y0336382D03*
X0107973Y0336382D03*
X0107973Y0333075D03*
X0103248Y0332918D03*
X0103248Y0336540D03*
X0095158Y0336382D03*
X0095158Y0333075D03*
X0091378Y0336382D03*
X0078998Y0335910D03*
X0078841Y0336067D03*
X0078841Y0336225D03*
X0078998Y0334965D03*
D23*
X0078841Y0336540D03*
X0082778Y0335437D03*
X0103091Y0336697D03*
X0117970Y0334178D03*
X0119702Y0335280D03*
X0119702Y0335437D03*
X0122222Y0336697D03*
X0119340Y0258622D03*
X0117608Y0257520D03*
X0117608Y0257363D03*
X0115088Y0256103D03*
X0082769Y0256260D03*
X0078832Y0257363D03*
D24*
X0078832Y0257048D03*
X0094074Y0260040D03*
X0117450Y0257048D03*
X0119497Y0259095D03*
X0121702Y0258465D03*
X0121702Y0258307D03*
X0122332Y0256103D03*
X0117813Y0333705D03*
X0115608Y0334335D03*
X0115608Y0334493D03*
X0114978Y0336697D03*
X0119860Y0335752D03*
X0107973Y0336697D03*
X0107973Y0332760D03*
X0091378Y0332760D03*
X0082778Y0335752D03*
D25*
X0078911Y0256103D03*
X0082691Y0255945D03*
X0093208Y0257205D03*
X0121466Y0259095D03*
X0115844Y0333705D03*
X0082699Y0336697D03*
X0078919Y0336855D03*
D26*
X0063127Y0316595D03*
X0063127Y0313918D03*
X0061867Y0312343D03*
X0063127Y0291860D03*
X0058875Y0289656D03*
X0091870Y0260197D03*
X0094074Y0255945D03*
X0117135Y0260197D03*
X0119812Y0260197D03*
X0121387Y0258937D03*
X0135783Y0313805D03*
X0135783Y0316482D03*
X0137043Y0318057D03*
X0120175Y0332603D03*
X0117498Y0332603D03*
X0115923Y0333863D03*
D27*
X0114899Y0333075D03*
X0122458Y0336382D03*
X0103327Y0336382D03*
X0091457Y0333075D03*
X0094153Y0259725D03*
X0094153Y0256575D03*
X0107033Y0259725D03*
X0114852Y0256418D03*
X0122411Y0259725D03*
D28*
X0122332Y0256575D03*
X0114773Y0256575D03*
X0114773Y0259725D03*
X0106954Y0259567D03*
X0106954Y0256575D03*
X0094232Y0256733D03*
X0094232Y0259567D03*
X0095158Y0333233D03*
X0095158Y0336225D03*
X0091378Y0336225D03*
X0091378Y0333233D03*
X0103406Y0333075D03*
X0103406Y0336225D03*
X0107973Y0336225D03*
X0107973Y0333233D03*
X0114978Y0336225D03*
X0122537Y0336225D03*
X0122537Y0333075D03*
D29*
X0122616Y0333233D03*
X0122616Y0336067D03*
X0114899Y0336067D03*
X0114742Y0333548D03*
X0114742Y0333390D03*
X0114899Y0333233D03*
X0103484Y0333233D03*
X0103484Y0336067D03*
X0091299Y0336067D03*
X0091299Y0333390D03*
X0094311Y0259410D03*
X0094311Y0259252D03*
X0094311Y0256890D03*
X0106876Y0256890D03*
X0106876Y0256733D03*
X0106876Y0259410D03*
X0114694Y0259567D03*
X0114694Y0256733D03*
X0122411Y0256733D03*
X0122568Y0259252D03*
X0122568Y0259410D03*
X0122411Y0259567D03*
D30*
X0114615Y0259410D03*
X0114615Y0259252D03*
X0114615Y0256890D03*
X0106797Y0257048D03*
X0106797Y0259252D03*
X0107973Y0333390D03*
X0107973Y0336067D03*
X0103563Y0335910D03*
X0103563Y0333390D03*
X0095158Y0333390D03*
X0095158Y0336067D03*
X0091221Y0335910D03*
X0091221Y0333548D03*
X0122695Y0333548D03*
X0122695Y0333390D03*
X0122695Y0335910D03*
D31*
X0122773Y0335752D03*
X0114899Y0335910D03*
X0107894Y0335910D03*
X0103642Y0335752D03*
X0103642Y0333548D03*
X0095236Y0333548D03*
X0095236Y0335910D03*
X0114537Y0257048D03*
X0122411Y0256890D03*
D32*
X0107973Y0333548D03*
D33*
X0111149Y0270707D03*
X0118472Y0270707D03*
X0105480Y0264093D03*
X0101936Y0264329D03*
X0097684Y0264329D03*
X0097684Y0270471D03*
X0085873Y0265983D03*
X0083275Y0264329D03*
X0066267Y0264329D03*
X0063432Y0264329D03*
X0063432Y0268581D03*
X0066267Y0268581D03*
D34*
X0068275Y0268581D03*
X0070401Y0268581D03*
X0072291Y0268581D03*
X0072291Y0264329D03*
X0068275Y0264329D03*
X0068275Y0270707D03*
X0078196Y0268581D03*
X0080086Y0268581D03*
X0078196Y0264329D03*
X0088590Y0264329D03*
X0102054Y0270235D03*
X0111267Y0268581D03*
X0111267Y0264329D03*
X0113393Y0264329D03*
X0116228Y0264329D03*
X0118590Y0264329D03*
X0120716Y0264329D03*
X0123314Y0265983D03*
X0125913Y0264329D03*
X0128039Y0264329D03*
X0129928Y0264329D03*
X0131110Y0268581D03*
X0128039Y0268581D03*
X0135834Y0270235D03*
X0118590Y0268581D03*
X0116228Y0268581D03*
D35*
X0120716Y0270471D03*
X0125913Y0270471D03*
X0135834Y0270471D03*
X0088590Y0270471D03*
X0070165Y0267164D03*
D36*
X0072173Y0266928D03*
X0072173Y0266691D03*
X0072173Y0266455D03*
X0072173Y0266219D03*
X0072173Y0265983D03*
X0072173Y0265746D03*
X0072173Y0265510D03*
X0072173Y0265274D03*
X0072173Y0265038D03*
X0072173Y0264802D03*
X0072173Y0264565D03*
X0074535Y0264329D03*
X0075480Y0265983D03*
X0075480Y0266219D03*
X0075480Y0266455D03*
X0075480Y0266691D03*
X0075480Y0266928D03*
X0075480Y0268817D03*
X0075480Y0269054D03*
X0075480Y0269290D03*
X0075480Y0269526D03*
X0075480Y0269762D03*
X0075480Y0269998D03*
X0068393Y0269526D03*
X0066267Y0268345D03*
X0063432Y0268345D03*
X0063432Y0264565D03*
X0066267Y0264565D03*
X0079968Y0264329D03*
X0083275Y0264565D03*
X0083275Y0264802D03*
X0083275Y0265038D03*
X0083275Y0265274D03*
X0083275Y0265510D03*
X0083275Y0265746D03*
X0083275Y0265983D03*
X0083275Y0266219D03*
X0083275Y0266455D03*
X0083275Y0266691D03*
X0083275Y0266928D03*
X0083275Y0267164D03*
X0083275Y0267400D03*
X0083275Y0270235D03*
X0085873Y0266219D03*
X0088472Y0266219D03*
X0088472Y0266455D03*
X0088472Y0266691D03*
X0088472Y0266928D03*
X0088472Y0267164D03*
X0088472Y0267400D03*
X0088472Y0265983D03*
X0088472Y0265746D03*
X0088472Y0265510D03*
X0088472Y0265274D03*
X0088472Y0265038D03*
X0088472Y0264802D03*
X0088472Y0264565D03*
X0088472Y0270235D03*
X0094141Y0270471D03*
X0097684Y0270235D03*
X0097684Y0264565D03*
X0101936Y0264565D03*
X0105480Y0270471D03*
X0111149Y0270471D03*
X0111149Y0270235D03*
X0111149Y0269998D03*
X0111149Y0269762D03*
X0111149Y0269526D03*
X0111149Y0268345D03*
X0111149Y0268109D03*
X0111149Y0267872D03*
X0111149Y0267636D03*
X0111149Y0267400D03*
X0111149Y0267164D03*
X0111149Y0266928D03*
X0111149Y0266691D03*
X0111149Y0266455D03*
X0111149Y0266219D03*
X0111149Y0265983D03*
X0111149Y0265746D03*
X0111149Y0265510D03*
X0111149Y0265274D03*
X0111149Y0265038D03*
X0111149Y0264802D03*
X0111149Y0264565D03*
X0113275Y0264565D03*
X0116346Y0264565D03*
X0116346Y0264802D03*
X0116346Y0265038D03*
X0116346Y0265274D03*
X0116346Y0265510D03*
X0116346Y0265746D03*
X0116346Y0265983D03*
X0116346Y0266219D03*
X0116346Y0266455D03*
X0118472Y0266455D03*
X0118472Y0266219D03*
X0118472Y0265983D03*
X0118472Y0265746D03*
X0118472Y0265510D03*
X0118472Y0265274D03*
X0118472Y0265038D03*
X0118472Y0264802D03*
X0118472Y0264565D03*
X0120598Y0264565D03*
X0118472Y0266691D03*
X0118472Y0266928D03*
X0118472Y0267164D03*
X0118472Y0267400D03*
X0118472Y0267636D03*
X0118472Y0267872D03*
X0118472Y0268109D03*
X0118472Y0268345D03*
X0118472Y0269526D03*
X0118472Y0269762D03*
X0118472Y0269998D03*
X0118472Y0270235D03*
X0118472Y0270471D03*
X0120598Y0270235D03*
X0123196Y0266219D03*
X0125795Y0270235D03*
X0130991Y0268345D03*
X0130991Y0268109D03*
X0130991Y0267872D03*
X0130991Y0267636D03*
X0130991Y0267400D03*
X0130991Y0267164D03*
X0130991Y0266928D03*
X0130991Y0266691D03*
X0130991Y0266455D03*
X0130991Y0266219D03*
X0114456Y0268581D03*
D37*
X0102054Y0270471D03*
X0094259Y0264093D03*
X0068275Y0269290D03*
D38*
X0075480Y0270235D03*
X0083275Y0270471D03*
X0111149Y0269290D03*
X0118472Y0269290D03*
D39*
X0120716Y0269998D03*
X0120716Y0267400D03*
X0120716Y0267164D03*
X0120716Y0266928D03*
X0120716Y0266691D03*
X0120716Y0266455D03*
X0120716Y0266219D03*
X0120716Y0265983D03*
X0120716Y0265746D03*
X0120716Y0265510D03*
X0120716Y0265274D03*
X0120716Y0265038D03*
X0120716Y0264802D03*
X0123314Y0266455D03*
X0125913Y0266455D03*
X0125913Y0266219D03*
X0125913Y0265983D03*
X0125913Y0265746D03*
X0125913Y0265510D03*
X0125913Y0265274D03*
X0125913Y0265038D03*
X0125913Y0264802D03*
X0125913Y0264565D03*
X0125913Y0266691D03*
X0125913Y0266928D03*
X0125913Y0267164D03*
X0125913Y0267400D03*
X0128039Y0267400D03*
X0128039Y0267164D03*
X0128039Y0266928D03*
X0128039Y0266691D03*
X0128039Y0266455D03*
X0128039Y0266219D03*
X0128039Y0265983D03*
X0128039Y0267636D03*
X0128039Y0267872D03*
X0128039Y0268109D03*
X0128039Y0268345D03*
X0125913Y0269998D03*
X0130873Y0265983D03*
X0135834Y0265983D03*
X0135834Y0266219D03*
X0135834Y0266455D03*
X0135834Y0266691D03*
X0135834Y0266928D03*
X0135834Y0267164D03*
X0135834Y0267400D03*
X0135834Y0267636D03*
X0135834Y0267872D03*
X0135834Y0268109D03*
X0135834Y0268345D03*
X0135834Y0268581D03*
X0135834Y0268817D03*
X0135834Y0269054D03*
X0135834Y0269290D03*
X0135834Y0269526D03*
X0135834Y0269762D03*
X0135834Y0269998D03*
X0135834Y0265746D03*
X0116228Y0266691D03*
X0116228Y0266928D03*
X0113393Y0266928D03*
X0113393Y0266691D03*
X0113393Y0266455D03*
X0113393Y0266219D03*
X0113393Y0265983D03*
X0113393Y0265746D03*
X0113393Y0265510D03*
X0113393Y0265274D03*
X0113393Y0265038D03*
X0113393Y0264802D03*
X0107015Y0265983D03*
X0107015Y0266219D03*
X0107015Y0266455D03*
X0106779Y0266691D03*
X0106779Y0268345D03*
X0106779Y0268581D03*
X0106779Y0268817D03*
X0104180Y0268817D03*
X0104180Y0268581D03*
X0104180Y0268345D03*
X0104180Y0266691D03*
X0103944Y0266455D03*
X0103944Y0266219D03*
X0103944Y0265983D03*
X0102054Y0264802D03*
X0102054Y0269998D03*
X0095440Y0268817D03*
X0095440Y0268581D03*
X0095440Y0268345D03*
X0095676Y0266455D03*
X0095676Y0266219D03*
X0095676Y0265983D03*
X0092842Y0265746D03*
X0092606Y0265983D03*
X0092606Y0266219D03*
X0092842Y0266455D03*
X0092842Y0266691D03*
X0092842Y0268581D03*
X0092842Y0268817D03*
X0088354Y0269762D03*
X0088354Y0269998D03*
X0083393Y0269998D03*
X0081267Y0266691D03*
X0081267Y0266455D03*
X0081267Y0266219D03*
X0078196Y0266219D03*
X0078196Y0266455D03*
X0078196Y0266691D03*
X0075362Y0265746D03*
X0072054Y0267164D03*
X0068275Y0267164D03*
X0068275Y0267400D03*
X0068275Y0267636D03*
X0068275Y0267872D03*
X0068275Y0268109D03*
X0068275Y0268345D03*
X0068275Y0269762D03*
X0068275Y0269998D03*
X0068275Y0270235D03*
X0068275Y0270471D03*
X0068275Y0266928D03*
X0068275Y0266691D03*
X0068275Y0266455D03*
X0068275Y0266219D03*
X0068275Y0265983D03*
X0068275Y0265746D03*
X0068275Y0265510D03*
X0068275Y0265274D03*
X0068275Y0265038D03*
X0068275Y0264802D03*
X0068275Y0264565D03*
D40*
X0064850Y0266455D03*
X0074771Y0264802D03*
X0075007Y0265510D03*
X0083747Y0269054D03*
X0085873Y0266928D03*
X0085873Y0266691D03*
X0087999Y0269054D03*
X0094141Y0270235D03*
X0094141Y0264329D03*
X0099810Y0267164D03*
X0099810Y0267400D03*
X0105480Y0270235D03*
X0105480Y0264329D03*
X0121070Y0269054D03*
X0125558Y0269054D03*
X0125558Y0269290D03*
D41*
X0125322Y0268581D03*
X0123196Y0267164D03*
X0121306Y0268345D03*
X0121306Y0268581D03*
X0105480Y0269998D03*
X0105480Y0264565D03*
X0099810Y0266928D03*
X0087763Y0268345D03*
X0085873Y0267164D03*
X0083984Y0268345D03*
X0075243Y0267164D03*
X0064850Y0266691D03*
X0064850Y0266219D03*
D42*
X0066267Y0264802D03*
X0063432Y0264802D03*
X0063432Y0268109D03*
X0066267Y0268109D03*
X0078314Y0266928D03*
X0078314Y0265983D03*
X0081149Y0265983D03*
X0081149Y0266928D03*
X0083511Y0269526D03*
X0083511Y0269762D03*
X0085873Y0266455D03*
X0088236Y0269526D03*
X0092960Y0269054D03*
X0092960Y0268345D03*
X0095322Y0269054D03*
X0095558Y0266691D03*
X0095558Y0265746D03*
X0097684Y0264802D03*
X0101936Y0265038D03*
X0104062Y0265746D03*
X0106897Y0265746D03*
X0106661Y0269054D03*
X0104299Y0269054D03*
X0101936Y0269762D03*
X0100991Y0268581D03*
X0097684Y0269762D03*
X0097684Y0269998D03*
X0120834Y0269762D03*
X0125795Y0269762D03*
D43*
X0125204Y0268345D03*
X0125204Y0268109D03*
X0123314Y0267400D03*
X0121424Y0268109D03*
X0099928Y0267872D03*
X0094259Y0269998D03*
X0094259Y0264565D03*
X0087645Y0268109D03*
X0084102Y0268109D03*
D44*
X0085873Y0267400D03*
X0094141Y0267636D03*
X0099810Y0266691D03*
X0105480Y0267636D03*
X0105480Y0269762D03*
X0105480Y0264802D03*
X0121543Y0267872D03*
X0125086Y0267872D03*
X0075243Y0267400D03*
X0075243Y0268581D03*
X0071228Y0268345D03*
X0071228Y0268109D03*
X0071228Y0267872D03*
X0071228Y0267636D03*
X0071228Y0267400D03*
X0064850Y0266928D03*
X0064850Y0265983D03*
D45*
X0075125Y0268345D03*
X0094259Y0267400D03*
X0094259Y0269762D03*
X0094259Y0264802D03*
X0099928Y0268109D03*
X0115283Y0268345D03*
D46*
X0120952Y0269290D03*
X0120952Y0269526D03*
X0123314Y0266691D03*
X0125676Y0269526D03*
X0101818Y0269526D03*
X0101582Y0269290D03*
X0101346Y0269054D03*
X0101110Y0268817D03*
X0098747Y0268581D03*
X0098511Y0268817D03*
X0098275Y0269054D03*
X0098039Y0269290D03*
X0097802Y0269526D03*
X0098511Y0265983D03*
X0098275Y0265746D03*
X0098039Y0265510D03*
X0098039Y0265274D03*
X0097802Y0265038D03*
X0101110Y0265983D03*
X0101346Y0265746D03*
X0101582Y0265510D03*
X0101818Y0265274D03*
X0088117Y0269290D03*
X0083629Y0269290D03*
X0074653Y0264565D03*
X0066149Y0265038D03*
X0063550Y0265038D03*
X0063550Y0267872D03*
X0066149Y0267872D03*
D47*
X0064850Y0267164D03*
X0064850Y0265746D03*
X0075243Y0267636D03*
X0075243Y0267872D03*
X0075243Y0268109D03*
X0079259Y0268345D03*
X0079259Y0264565D03*
X0094141Y0267872D03*
X0094141Y0269526D03*
X0099810Y0268345D03*
X0099810Y0266455D03*
X0105480Y0267164D03*
X0105480Y0267400D03*
X0105480Y0267872D03*
X0105480Y0268109D03*
X0105480Y0269526D03*
X0105480Y0265038D03*
X0115165Y0268109D03*
X0129102Y0264565D03*
D48*
X0129220Y0264802D03*
X0134653Y0265510D03*
X0115047Y0267872D03*
X0105598Y0269290D03*
X0094259Y0269290D03*
X0094259Y0268109D03*
X0094259Y0267164D03*
X0094259Y0265038D03*
X0079377Y0264802D03*
X0079377Y0268109D03*
D49*
X0083865Y0268581D03*
X0083865Y0268817D03*
X0087881Y0268817D03*
X0087881Y0268581D03*
X0099928Y0267636D03*
X0121188Y0268817D03*
X0123314Y0266928D03*
X0125440Y0268817D03*
X0074889Y0265274D03*
X0074889Y0265038D03*
D50*
X0085873Y0267636D03*
X0085873Y0267872D03*
D51*
X0079495Y0267872D03*
X0079495Y0267636D03*
X0079495Y0265274D03*
X0079495Y0265038D03*
X0064850Y0265274D03*
X0064850Y0265510D03*
X0064850Y0267400D03*
X0064850Y0267636D03*
X0094141Y0266928D03*
X0094141Y0265510D03*
X0094141Y0265274D03*
X0099810Y0266219D03*
X0105480Y0266928D03*
X0105480Y0265510D03*
X0105480Y0265274D03*
X0114928Y0267400D03*
X0114928Y0267636D03*
X0129338Y0265274D03*
X0129338Y0265038D03*
X0134299Y0264329D03*
D52*
X0123314Y0267636D03*
D53*
X0129456Y0265746D03*
X0129456Y0265510D03*
X0134417Y0265274D03*
X0134417Y0265038D03*
X0134417Y0264802D03*
X0134417Y0264565D03*
X0114810Y0267164D03*
X0079613Y0267164D03*
X0079613Y0267400D03*
X0079613Y0265746D03*
X0079613Y0265510D03*
D54*
X0114064Y0310794D02*
X0114419Y0311148D01*
X0115009Y0311620D01*
X0115363Y0311975D01*
X0115560Y0312132D01*
X0115560Y0319416D01*
X0115403Y0319455D01*
X0115206Y0319494D01*
X0115009Y0319494D01*
X0114852Y0319534D01*
X0114655Y0319573D01*
X0114497Y0319613D01*
X0114104Y0319691D01*
X0114104Y0318983D01*
X0113946Y0319180D01*
X0113789Y0319337D01*
X0113592Y0319494D01*
X0113198Y0319731D01*
X0112726Y0319809D01*
X0112450Y0319809D01*
X0111860Y0319770D01*
X0111308Y0319573D01*
X0110875Y0319298D01*
X0110521Y0318904D01*
X0110245Y0318471D01*
X0110088Y0317959D01*
X0109970Y0317408D01*
X0109930Y0316817D01*
X0111466Y0316857D01*
X0111466Y0317211D01*
X0111505Y0317526D01*
X0111623Y0317841D01*
X0111741Y0318117D01*
X0111938Y0318353D01*
X0112174Y0318510D01*
X0112450Y0318628D01*
X0112804Y0318668D01*
X0113119Y0318628D01*
X0113434Y0318510D01*
X0113631Y0318353D01*
X0113828Y0318117D01*
X0113946Y0317841D01*
X0114064Y0317526D01*
X0114104Y0317211D01*
X0114104Y0316542D01*
X0113946Y0315912D01*
X0113828Y0315636D01*
X0113631Y0315439D01*
X0113395Y0315243D01*
X0113119Y0315164D01*
X0112765Y0315124D01*
X0112450Y0315164D01*
X0112135Y0315243D01*
X0111899Y0315439D01*
X0111741Y0315636D01*
X0111623Y0315912D01*
X0110285Y0315282D01*
X0110521Y0314849D01*
X0110875Y0314494D01*
X0111308Y0314180D01*
X0111781Y0314022D01*
X0112371Y0313943D01*
X0113080Y0314061D01*
X0113316Y0314180D01*
X0113710Y0314416D01*
X0114025Y0314809D01*
X0114064Y0314809D01*
X0114064Y0310794D01*
X0114064Y0310878D02*
X0114149Y0310878D01*
X0114064Y0311177D02*
X0114455Y0311177D01*
X0114828Y0311475D02*
X0114064Y0311475D01*
X0114064Y0311774D02*
X0115163Y0311774D01*
X0115486Y0312072D02*
X0114064Y0312072D01*
X0114064Y0312371D02*
X0115560Y0312371D01*
X0115560Y0312670D02*
X0114064Y0312670D01*
X0114064Y0312968D02*
X0115560Y0312968D01*
X0115560Y0313267D02*
X0114064Y0313267D01*
X0114064Y0313565D02*
X0115560Y0313565D01*
X0115560Y0313864D02*
X0114064Y0313864D01*
X0114064Y0314162D02*
X0115560Y0314162D01*
X0115560Y0314461D02*
X0114064Y0314461D01*
X0114064Y0314759D02*
X0115560Y0314759D01*
X0115560Y0315058D02*
X0110407Y0315058D01*
X0110285Y0315282D02*
X0111623Y0315912D01*
X0111505Y0316227D01*
X0111466Y0316542D01*
X0111466Y0316857D01*
X0109930Y0316817D01*
X0109970Y0316266D01*
X0110088Y0315754D01*
X0110285Y0315282D01*
X0110254Y0315356D02*
X0110442Y0315356D01*
X0111999Y0315356D01*
X0111734Y0315655D02*
X0111077Y0315655D01*
X0110129Y0315655D01*
X0110042Y0315953D02*
X0111608Y0315953D01*
X0111502Y0316252D02*
X0109973Y0316252D01*
X0109949Y0316550D02*
X0111466Y0316550D01*
X0111466Y0316849D02*
X0111153Y0316849D01*
X0109932Y0316849D01*
X0109952Y0317147D02*
X0111466Y0317147D01*
X0111495Y0317446D02*
X0109978Y0317446D01*
X0110042Y0317744D02*
X0111587Y0317744D01*
X0111710Y0318043D02*
X0110114Y0318043D01*
X0110205Y0318341D02*
X0111929Y0318341D01*
X0112553Y0318640D02*
X0110353Y0318640D01*
X0110552Y0318938D02*
X0115560Y0318938D01*
X0115560Y0318640D02*
X0113028Y0318640D01*
X0113641Y0318341D02*
X0115560Y0318341D01*
X0115560Y0318043D02*
X0113860Y0318043D01*
X0113982Y0317744D02*
X0115560Y0317744D01*
X0115560Y0317446D02*
X0114074Y0317446D01*
X0114104Y0317147D02*
X0115560Y0317147D01*
X0115560Y0316849D02*
X0114104Y0316849D01*
X0114104Y0316550D02*
X0115560Y0316550D01*
X0115560Y0316252D02*
X0114031Y0316252D01*
X0113956Y0315953D02*
X0115560Y0315953D01*
X0115560Y0315655D02*
X0113836Y0315655D01*
X0113531Y0315356D02*
X0115560Y0315356D01*
X0116269Y0315400D02*
X0116426Y0314967D01*
X0116663Y0314652D01*
X0116978Y0314376D01*
X0117371Y0314180D01*
X0117804Y0314061D01*
X0118277Y0313983D01*
X0118749Y0313943D01*
X0119222Y0313983D01*
X0119694Y0314061D01*
X0120127Y0314180D01*
X0120521Y0314376D01*
X0120836Y0314652D01*
X0121112Y0315006D01*
X0121269Y0315400D01*
X0121348Y0315912D01*
X0119891Y0315912D01*
X0119891Y0315676D01*
X0119812Y0315479D01*
X0119694Y0315321D01*
X0119379Y0315085D01*
X0119143Y0315046D01*
X0118946Y0315006D01*
X0118710Y0314967D01*
X0118552Y0315006D01*
X0118395Y0315006D01*
X0118237Y0315046D01*
X0118080Y0315124D01*
X0117923Y0315243D01*
X0117804Y0315361D01*
X0117726Y0315676D01*
X0117765Y0315833D01*
X0117844Y0315991D01*
X0118001Y0316109D01*
X0118198Y0316227D01*
X0118434Y0316306D01*
X0119064Y0316463D01*
X0119458Y0316542D01*
X0119812Y0316620D01*
X0120127Y0316739D01*
X0120403Y0316857D01*
X0120678Y0317014D01*
X0120915Y0317172D01*
X0121072Y0317408D01*
X0121190Y0317683D01*
X0121230Y0318038D01*
X0121190Y0318510D01*
X0121033Y0318904D01*
X0120757Y0319219D01*
X0120482Y0319455D01*
X0120088Y0319652D01*
X0119694Y0319731D01*
X0119261Y0319809D01*
X0118356Y0319809D01*
X0117923Y0319731D01*
X0117529Y0319613D01*
X0117174Y0319455D01*
X0116860Y0319219D01*
X0116623Y0318904D01*
X0116426Y0318510D01*
X0116348Y0318038D01*
X0117804Y0318038D01*
X0117844Y0318235D01*
X0117923Y0318431D01*
X0118001Y0318550D01*
X0118119Y0318628D01*
X0118277Y0318707D01*
X0118474Y0318786D01*
X0119143Y0318786D01*
X0119261Y0318746D01*
X0119419Y0318707D01*
X0119537Y0318668D01*
X0119694Y0318431D01*
X0119694Y0318274D01*
X0119655Y0318117D01*
X0119537Y0317959D01*
X0119379Y0317841D01*
X0119143Y0317723D01*
X0118907Y0317644D01*
X0118592Y0317605D01*
X0117647Y0317369D01*
X0117293Y0317290D01*
X0116741Y0316975D01*
X0116505Y0316778D01*
X0116348Y0316542D01*
X0116230Y0316266D01*
X0116190Y0315912D01*
X0116269Y0315400D01*
X0116285Y0315356D02*
X0117809Y0315356D01*
X0117731Y0315655D02*
X0116230Y0315655D01*
X0116195Y0315953D02*
X0117825Y0315953D01*
X0118273Y0316252D02*
X0116228Y0316252D01*
X0116353Y0316550D02*
X0119496Y0316550D01*
X0120384Y0316849D02*
X0116590Y0316849D01*
X0117043Y0317147D02*
X0120878Y0317147D01*
X0121088Y0317446D02*
X0117956Y0317446D01*
X0117805Y0318043D02*
X0116349Y0318043D01*
X0116398Y0318341D02*
X0117886Y0318341D01*
X0118142Y0318640D02*
X0116491Y0318640D01*
X0116649Y0318938D02*
X0121003Y0318938D01*
X0121138Y0318640D02*
X0119555Y0318640D01*
X0119694Y0318341D02*
X0121204Y0318341D01*
X0121229Y0318043D02*
X0119599Y0318043D01*
X0119186Y0317744D02*
X0121197Y0317744D01*
X0120736Y0319237D02*
X0116883Y0319237D01*
X0117355Y0319535D02*
X0120321Y0319535D01*
X0119883Y0315655D02*
X0121308Y0315655D01*
X0121251Y0315356D02*
X0119720Y0315356D01*
X0119215Y0315058D02*
X0121132Y0315058D01*
X0120919Y0314759D02*
X0116582Y0314759D01*
X0116393Y0315058D02*
X0118214Y0315058D01*
X0117435Y0314162D02*
X0120063Y0314162D01*
X0120617Y0314461D02*
X0116881Y0314461D01*
X0113985Y0314759D02*
X0110611Y0314759D01*
X0110922Y0314461D02*
X0113746Y0314461D01*
X0113281Y0314162D02*
X0111361Y0314162D01*
X0109340Y0314849D02*
X0109379Y0315046D01*
X0109458Y0315203D01*
X0109458Y0315400D01*
X0109497Y0315597D01*
X0109419Y0316030D01*
X0109300Y0316384D01*
X0109143Y0316660D01*
X0108867Y0316896D01*
X0108592Y0317054D01*
X0108277Y0317172D01*
X0107962Y0317250D01*
X0107608Y0317290D01*
X0107293Y0316463D01*
X0107411Y0316424D01*
X0107489Y0316384D01*
X0107529Y0316345D01*
X0107686Y0316266D01*
X0107726Y0316227D01*
X0107804Y0316187D01*
X0107923Y0315951D01*
X0107923Y0315872D01*
X0107962Y0315794D01*
X0107962Y0315597D01*
X0107923Y0315479D01*
X0107923Y0315400D01*
X0107883Y0315321D01*
X0107844Y0315282D01*
X0107804Y0315203D01*
X0107726Y0315164D01*
X0107686Y0315124D01*
X0107529Y0315046D01*
X0107450Y0315046D01*
X0107371Y0315006D01*
X0107293Y0315006D01*
X0107214Y0314967D01*
X0107017Y0314967D01*
X0106820Y0315006D01*
X0106623Y0315006D01*
X0106466Y0315085D01*
X0106308Y0315124D01*
X0106190Y0315203D01*
X0106112Y0315282D01*
X0106033Y0315400D01*
X0105954Y0315479D01*
X0105875Y0315715D01*
X0105836Y0315794D01*
X0105797Y0315912D01*
X0105797Y0316817D01*
X0105875Y0316739D01*
X0105954Y0316739D01*
X0106112Y0316660D01*
X0106190Y0316660D01*
X0106269Y0316620D01*
X0106426Y0316620D01*
X0106623Y0317408D01*
X0106348Y0317487D01*
X0106112Y0317565D01*
X0105915Y0317683D01*
X0105797Y0317841D01*
X0105797Y0318274D01*
X0105915Y0318510D01*
X0105954Y0318550D01*
X0105993Y0318628D01*
X0106230Y0318746D01*
X0106308Y0318746D01*
X0106387Y0318786D01*
X0107096Y0318786D01*
X0107489Y0318589D01*
X0107647Y0318431D01*
X0107686Y0318353D01*
X0107726Y0318235D01*
X0107765Y0318156D01*
X0107765Y0317959D01*
X0109300Y0317959D01*
X0109222Y0318431D01*
X0109143Y0318668D01*
X0109025Y0318825D01*
X0108907Y0319022D01*
X0108789Y0319180D01*
X0108631Y0319298D01*
X0108237Y0319534D01*
X0108041Y0319613D01*
X0107844Y0319652D01*
X0107608Y0319731D01*
X0107371Y0319770D01*
X0107174Y0319809D01*
X0106269Y0319809D01*
X0106072Y0319770D01*
X0105836Y0319770D01*
X0105639Y0319731D01*
X0105442Y0319652D01*
X0105245Y0319613D01*
X0105049Y0319534D01*
X0104576Y0319180D01*
X0104458Y0319022D01*
X0104379Y0318865D01*
X0104300Y0318668D01*
X0104261Y0318471D01*
X0104261Y0315046D01*
X0104222Y0314967D01*
X0104222Y0314613D01*
X0104182Y0314534D01*
X0104182Y0314455D01*
X0104143Y0314376D01*
X0104143Y0314258D01*
X0104104Y0314180D01*
X0104064Y0314140D01*
X0104064Y0314101D01*
X0105600Y0314101D01*
X0105600Y0314140D01*
X0105639Y0314180D01*
X0105639Y0314219D01*
X0105678Y0314258D01*
X0105678Y0314376D01*
X0105718Y0314416D01*
X0105718Y0314652D01*
X0105797Y0314534D01*
X0105915Y0314455D01*
X0105993Y0314376D01*
X0106112Y0314298D01*
X0106230Y0314258D01*
X0106348Y0314180D01*
X0106820Y0314022D01*
X0106938Y0314022D01*
X0107056Y0313983D01*
X0107214Y0313983D01*
X0107332Y0313943D01*
X0107765Y0313943D01*
X0107962Y0313983D01*
X0108159Y0313983D01*
X0108316Y0314022D01*
X0108513Y0314101D01*
X0108671Y0314180D01*
X0108789Y0314258D01*
X0108946Y0314337D01*
X0109064Y0314455D01*
X0109143Y0314573D01*
X0109261Y0314731D01*
X0109340Y0314849D01*
X0109280Y0314759D02*
X0104222Y0314759D01*
X0104182Y0314461D02*
X0105718Y0314461D01*
X0105906Y0314461D02*
X0109068Y0314461D01*
X0108636Y0314162D02*
X0106400Y0314162D01*
X0105622Y0314162D02*
X0104086Y0314162D01*
X0103395Y0314162D02*
X0101860Y0314162D01*
X0101860Y0314101D02*
X0103395Y0314101D01*
X0103395Y0319416D01*
X0103198Y0319455D01*
X0103041Y0319494D01*
X0102844Y0319494D01*
X0102647Y0319534D01*
X0102489Y0319573D01*
X0102096Y0319652D01*
X0101938Y0319691D01*
X0101938Y0318628D01*
X0101781Y0318904D01*
X0101623Y0319101D01*
X0101426Y0319337D01*
X0101230Y0319494D01*
X0100954Y0319652D01*
X0100718Y0319731D01*
X0100442Y0319809D01*
X0099891Y0319809D01*
X0099852Y0319770D01*
X0099812Y0319770D01*
X0099812Y0318353D01*
X0099852Y0318353D01*
X0099930Y0318392D01*
X0100363Y0318392D01*
X0100757Y0318353D01*
X0101072Y0318274D01*
X0101348Y0318117D01*
X0101545Y0317880D01*
X0101702Y0317605D01*
X0101781Y0317329D01*
X0101860Y0316975D01*
X0101860Y0314101D01*
X0101860Y0314461D02*
X0103395Y0314461D01*
X0103395Y0314759D02*
X0101860Y0314759D01*
X0101860Y0315058D02*
X0103395Y0315058D01*
X0103395Y0315356D02*
X0101860Y0315356D01*
X0101860Y0315655D02*
X0103395Y0315655D01*
X0103395Y0315953D02*
X0101860Y0315953D01*
X0101860Y0316252D02*
X0103395Y0316252D01*
X0103395Y0316550D02*
X0101860Y0316550D01*
X0101860Y0316849D02*
X0103395Y0316849D01*
X0103395Y0317147D02*
X0101821Y0317147D01*
X0101747Y0317446D02*
X0103395Y0317446D01*
X0103395Y0317744D02*
X0101622Y0317744D01*
X0101409Y0318043D02*
X0103395Y0318043D01*
X0103395Y0318341D02*
X0100803Y0318341D01*
X0099812Y0318640D02*
X0101932Y0318640D01*
X0101938Y0318640D02*
X0103395Y0318640D01*
X0103395Y0318938D02*
X0101938Y0318938D01*
X0101753Y0318938D02*
X0099812Y0318938D01*
X0099812Y0319237D02*
X0101510Y0319237D01*
X0101938Y0319237D02*
X0103395Y0319237D01*
X0102641Y0319535D02*
X0101938Y0319535D01*
X0101158Y0319535D02*
X0099812Y0319535D01*
X0099222Y0319535D02*
X0097686Y0319535D01*
X0097686Y0319237D02*
X0099222Y0319237D01*
X0099222Y0318938D02*
X0097686Y0318938D01*
X0097686Y0318640D02*
X0099222Y0318640D01*
X0099222Y0318341D02*
X0097686Y0318341D01*
X0097686Y0318043D02*
X0099222Y0318043D01*
X0099222Y0317744D02*
X0097686Y0317744D01*
X0097628Y0317744D02*
X0095931Y0317744D01*
X0096033Y0317644D02*
X0093710Y0314101D01*
X0095560Y0314101D01*
X0097096Y0316581D01*
X0097686Y0316030D01*
X0097686Y0314101D01*
X0099222Y0314101D01*
X0099222Y0320951D01*
X0097686Y0321778D01*
X0097686Y0317683D01*
X0095757Y0319691D01*
X0093946Y0319691D01*
X0096033Y0317644D01*
X0095903Y0317446D02*
X0099222Y0317446D01*
X0099222Y0317147D02*
X0095707Y0317147D01*
X0095511Y0316849D02*
X0099222Y0316849D01*
X0099222Y0316550D02*
X0097129Y0316550D01*
X0097077Y0316550D02*
X0095316Y0316550D01*
X0095120Y0316252D02*
X0096892Y0316252D01*
X0096707Y0315953D02*
X0094924Y0315953D01*
X0094729Y0315655D02*
X0096522Y0315655D01*
X0096337Y0315356D02*
X0094533Y0315356D01*
X0094337Y0315058D02*
X0096153Y0315058D01*
X0095968Y0314759D02*
X0094141Y0314759D01*
X0093946Y0314461D02*
X0095783Y0314461D01*
X0095598Y0314162D02*
X0093750Y0314162D01*
X0092765Y0314162D02*
X0091269Y0314162D01*
X0091269Y0314101D02*
X0092765Y0314101D01*
X0092765Y0318668D01*
X0094300Y0318668D01*
X0094143Y0318786D01*
X0093513Y0319416D01*
X0093356Y0319534D01*
X0093237Y0319691D01*
X0092765Y0319691D01*
X0092765Y0320479D01*
X0092647Y0320794D01*
X0092529Y0321069D01*
X0092332Y0321306D01*
X0092056Y0321502D01*
X0091741Y0321660D01*
X0091348Y0321778D01*
X0090206Y0321778D01*
X0090127Y0321739D01*
X0090127Y0320636D01*
X0090797Y0320636D01*
X0090954Y0320597D01*
X0091112Y0320518D01*
X0091190Y0320400D01*
X0091230Y0320321D01*
X0091230Y0320164D01*
X0091269Y0320006D01*
X0091269Y0319691D01*
X0090206Y0319691D01*
X0090206Y0318668D01*
X0091269Y0318668D01*
X0091269Y0314101D01*
X0091269Y0314461D02*
X0092765Y0314461D01*
X0092765Y0314759D02*
X0091269Y0314759D01*
X0091269Y0315058D02*
X0092765Y0315058D01*
X0092765Y0315356D02*
X0091269Y0315356D01*
X0091269Y0315655D02*
X0092765Y0315655D01*
X0092765Y0315953D02*
X0091269Y0315953D01*
X0091269Y0316252D02*
X0092765Y0316252D01*
X0092765Y0316550D02*
X0091269Y0316550D01*
X0091269Y0316849D02*
X0092765Y0316849D01*
X0092765Y0317147D02*
X0091269Y0317147D01*
X0091269Y0317446D02*
X0092765Y0317446D01*
X0092765Y0317744D02*
X0091269Y0317744D01*
X0091269Y0318043D02*
X0092765Y0318043D01*
X0092765Y0318341D02*
X0091269Y0318341D01*
X0091269Y0318640D02*
X0092765Y0318640D01*
X0093355Y0319535D02*
X0090206Y0319535D01*
X0090206Y0319237D02*
X0093692Y0319237D01*
X0093991Y0318938D02*
X0090206Y0318938D01*
X0089734Y0318938D02*
X0088237Y0318938D01*
X0088237Y0318640D02*
X0089734Y0318640D01*
X0089734Y0318341D02*
X0088237Y0318341D01*
X0088237Y0318043D02*
X0089734Y0318043D01*
X0089734Y0317744D02*
X0088237Y0317744D01*
X0088237Y0317446D02*
X0089734Y0317446D01*
X0089734Y0317147D02*
X0088237Y0317147D01*
X0088237Y0316849D02*
X0089734Y0316849D01*
X0089734Y0316550D02*
X0088237Y0316550D01*
X0088237Y0316542D02*
X0088159Y0315912D01*
X0088119Y0315676D01*
X0087883Y0315361D01*
X0087686Y0315243D01*
X0087489Y0315203D01*
X0087253Y0315164D01*
X0086938Y0315203D01*
X0086702Y0315243D01*
X0086505Y0315361D01*
X0086348Y0315518D01*
X0086230Y0315754D01*
X0086112Y0316030D01*
X0086072Y0316345D01*
X0086072Y0319691D01*
X0084537Y0319691D01*
X0084537Y0314101D01*
X0085993Y0314101D01*
X0085993Y0314888D01*
X0086033Y0314888D01*
X0086190Y0314652D01*
X0086348Y0314455D01*
X0086545Y0314298D01*
X0086781Y0314180D01*
X0086978Y0314101D01*
X0087214Y0314022D01*
X0087489Y0313983D01*
X0087726Y0313943D01*
X0088277Y0313983D01*
X0088710Y0314140D01*
X0089064Y0314337D01*
X0089340Y0314573D01*
X0089537Y0314928D01*
X0089655Y0315321D01*
X0089734Y0315754D01*
X0089734Y0319691D01*
X0088237Y0319691D01*
X0088237Y0316542D01*
X0088201Y0316252D02*
X0089734Y0316252D01*
X0089734Y0315953D02*
X0088164Y0315953D01*
X0088104Y0315655D02*
X0089715Y0315655D01*
X0089661Y0315356D02*
X0087876Y0315356D01*
X0086513Y0315356D02*
X0084537Y0315356D01*
X0084537Y0315058D02*
X0089576Y0315058D01*
X0089443Y0314759D02*
X0086119Y0314759D01*
X0085993Y0314759D02*
X0084537Y0314759D01*
X0084537Y0314461D02*
X0085993Y0314461D01*
X0085993Y0314162D02*
X0084537Y0314162D01*
X0083710Y0314162D02*
X0082174Y0314162D01*
X0082174Y0314101D02*
X0083710Y0314101D01*
X0083710Y0319691D01*
X0082253Y0319691D01*
X0082253Y0318904D01*
X0082214Y0318904D01*
X0082056Y0319140D01*
X0081899Y0319298D01*
X0081702Y0319455D01*
X0081466Y0319613D01*
X0080993Y0319770D01*
X0080757Y0319809D01*
X0080521Y0319809D01*
X0079970Y0319770D01*
X0079537Y0319652D01*
X0079182Y0319455D01*
X0078907Y0319180D01*
X0078710Y0318865D01*
X0078592Y0318471D01*
X0078513Y0318038D01*
X0078474Y0317526D01*
X0078474Y0314101D01*
X0080009Y0314101D01*
X0080009Y0317250D01*
X0080049Y0317565D01*
X0080088Y0317841D01*
X0080127Y0318077D01*
X0080245Y0318274D01*
X0080363Y0318431D01*
X0080560Y0318550D01*
X0080757Y0318589D01*
X0080993Y0318628D01*
X0081308Y0318589D01*
X0081545Y0318550D01*
X0081741Y0318431D01*
X0081899Y0318235D01*
X0082017Y0318038D01*
X0082135Y0317762D01*
X0082174Y0317408D01*
X0082174Y0314101D01*
X0082174Y0314461D02*
X0083710Y0314461D01*
X0083710Y0314759D02*
X0082174Y0314759D01*
X0082174Y0315058D02*
X0083710Y0315058D01*
X0083710Y0315356D02*
X0082174Y0315356D01*
X0082174Y0315655D02*
X0083710Y0315655D01*
X0083710Y0315953D02*
X0082174Y0315953D01*
X0082174Y0316252D02*
X0083710Y0316252D01*
X0083710Y0316550D02*
X0082174Y0316550D01*
X0082174Y0316849D02*
X0083710Y0316849D01*
X0083710Y0317147D02*
X0082174Y0317147D01*
X0082170Y0317446D02*
X0083710Y0317446D01*
X0083710Y0317744D02*
X0082137Y0317744D01*
X0082014Y0318043D02*
X0083710Y0318043D01*
X0083710Y0318341D02*
X0081814Y0318341D01*
X0082191Y0318938D02*
X0078756Y0318938D01*
X0078642Y0318640D02*
X0083710Y0318640D01*
X0083710Y0318938D02*
X0082253Y0318938D01*
X0082253Y0319237D02*
X0083710Y0319237D01*
X0083710Y0319535D02*
X0082253Y0319535D01*
X0081960Y0319237D02*
X0078964Y0319237D01*
X0079327Y0319535D02*
X0081582Y0319535D01*
X0080296Y0318341D02*
X0078568Y0318341D01*
X0078514Y0318043D02*
X0080122Y0318043D01*
X0080074Y0317744D02*
X0078491Y0317744D01*
X0078474Y0317446D02*
X0080034Y0317446D01*
X0080009Y0317147D02*
X0078474Y0317147D01*
X0078474Y0316849D02*
X0080009Y0316849D01*
X0080009Y0316550D02*
X0078474Y0316550D01*
X0078474Y0316252D02*
X0080009Y0316252D01*
X0080009Y0315953D02*
X0078474Y0315953D01*
X0078474Y0315655D02*
X0080009Y0315655D01*
X0080009Y0315356D02*
X0078474Y0315356D01*
X0078474Y0315058D02*
X0080009Y0315058D01*
X0080009Y0314759D02*
X0078474Y0314759D01*
X0078474Y0314461D02*
X0080009Y0314461D01*
X0080009Y0314162D02*
X0078474Y0314162D01*
X0084537Y0315655D02*
X0086279Y0315655D01*
X0086144Y0315953D02*
X0084537Y0315953D01*
X0084537Y0316252D02*
X0086084Y0316252D01*
X0086072Y0316550D02*
X0084537Y0316550D01*
X0084537Y0316849D02*
X0086072Y0316849D01*
X0086072Y0317147D02*
X0084537Y0317147D01*
X0084537Y0317446D02*
X0086072Y0317446D01*
X0086072Y0317744D02*
X0084537Y0317744D01*
X0084537Y0318043D02*
X0086072Y0318043D01*
X0086072Y0318341D02*
X0084537Y0318341D01*
X0084537Y0318640D02*
X0086072Y0318640D01*
X0086072Y0318938D02*
X0084537Y0318938D01*
X0084537Y0319237D02*
X0086072Y0319237D01*
X0086072Y0319535D02*
X0084537Y0319535D01*
X0088237Y0319535D02*
X0089734Y0319535D01*
X0089734Y0319237D02*
X0088237Y0319237D01*
X0090127Y0320729D02*
X0092671Y0320729D01*
X0092765Y0320431D02*
X0091170Y0320431D01*
X0091237Y0320132D02*
X0092765Y0320132D01*
X0092765Y0319834D02*
X0091269Y0319834D01*
X0090127Y0321028D02*
X0092547Y0321028D01*
X0092303Y0321326D02*
X0090127Y0321326D01*
X0090127Y0321625D02*
X0091811Y0321625D01*
X0092135Y0323471D02*
X0091702Y0323589D01*
X0091308Y0323746D01*
X0090915Y0323983D01*
X0090600Y0324258D01*
X0090285Y0324573D01*
X0090009Y0324928D01*
X0089615Y0325636D01*
X0089419Y0326345D01*
X0089379Y0327054D01*
X0089497Y0327683D01*
X0089694Y0328235D01*
X0089970Y0328707D01*
X0090285Y0329061D01*
X0090600Y0329219D01*
X0090600Y0328904D01*
X0090678Y0328668D01*
X0090797Y0328589D01*
X0090915Y0328550D01*
X0091190Y0328550D01*
X0091505Y0328707D01*
X0091623Y0328786D01*
X0091781Y0328904D01*
X0091899Y0328983D01*
X0092017Y0329101D01*
X0092096Y0329258D01*
X0092174Y0329376D01*
X0092214Y0329534D01*
X0092253Y0329652D01*
X0092214Y0329770D01*
X0092174Y0329849D01*
X0092135Y0329967D01*
X0092056Y0330085D01*
X0091899Y0330203D01*
X0091741Y0330282D01*
X0091545Y0330321D01*
X0091387Y0330361D01*
X0091269Y0330361D01*
X0091151Y0330321D01*
X0091033Y0330321D01*
X0091072Y0330361D01*
X0091230Y0330479D01*
X0091466Y0330597D01*
X0091781Y0330715D01*
X0092135Y0330833D01*
X0092529Y0330833D01*
X0092962Y0330754D01*
X0093395Y0330518D01*
X0093749Y0330203D01*
X0093946Y0329928D01*
X0094064Y0329573D01*
X0094064Y0329258D01*
X0093986Y0328904D01*
X0093789Y0328550D01*
X0093513Y0328235D01*
X0093198Y0327880D01*
X0092923Y0327565D01*
X0092804Y0327290D01*
X0092804Y0327014D01*
X0092883Y0326778D01*
X0093041Y0326581D01*
X0093277Y0326424D01*
X0093592Y0326345D01*
X0093907Y0326345D01*
X0094104Y0326384D01*
X0094300Y0326463D01*
X0094419Y0326542D01*
X0094537Y0326660D01*
X0094615Y0326817D01*
X0094655Y0326935D01*
X0094655Y0327054D01*
X0094615Y0327172D01*
X0094537Y0327290D01*
X0094379Y0327447D01*
X0094261Y0327487D01*
X0094104Y0327565D01*
X0094064Y0327605D01*
X0094143Y0327644D01*
X0094222Y0327644D01*
X0094379Y0327683D01*
X0094694Y0327683D01*
X0094930Y0327644D01*
X0095324Y0327487D01*
X0095482Y0327369D01*
X0095678Y0327250D01*
X0095797Y0327054D01*
X0095915Y0326817D01*
X0095993Y0326581D01*
X0096072Y0325872D01*
X0096072Y0320833D01*
X0096033Y0320833D01*
X0095954Y0320951D01*
X0095836Y0321069D01*
X0095718Y0321227D01*
X0095521Y0321424D01*
X0095324Y0321660D01*
X0095088Y0321896D01*
X0094891Y0322172D01*
X0094379Y0322683D01*
X0094182Y0322920D01*
X0093789Y0323235D01*
X0093592Y0323353D01*
X0093356Y0323392D01*
X0092608Y0323392D01*
X0092135Y0323471D01*
X0092465Y0323416D02*
X0096072Y0323416D01*
X0096072Y0323714D02*
X0091388Y0323714D01*
X0090880Y0324013D02*
X0096072Y0324013D01*
X0096072Y0324311D02*
X0090547Y0324311D01*
X0090256Y0324610D02*
X0096072Y0324610D01*
X0096072Y0324908D02*
X0090024Y0324908D01*
X0089854Y0325207D02*
X0096072Y0325207D01*
X0096072Y0325505D02*
X0089688Y0325505D01*
X0089569Y0325804D02*
X0096072Y0325804D01*
X0096047Y0326103D02*
X0089486Y0326103D01*
X0089415Y0326401D02*
X0093367Y0326401D01*
X0092946Y0326700D02*
X0089399Y0326700D01*
X0089382Y0326998D02*
X0092810Y0326998D01*
X0092807Y0327297D02*
X0089425Y0327297D01*
X0089481Y0327595D02*
X0092949Y0327595D01*
X0093210Y0327894D02*
X0089572Y0327894D01*
X0089679Y0328192D02*
X0093475Y0328192D01*
X0093737Y0328491D02*
X0089843Y0328491D01*
X0090043Y0328789D02*
X0090638Y0328789D01*
X0090600Y0329088D02*
X0090337Y0329088D01*
X0091628Y0328789D02*
X0093922Y0328789D01*
X0094026Y0329088D02*
X0092004Y0329088D01*
X0092177Y0329386D02*
X0094064Y0329386D01*
X0094027Y0329685D02*
X0092242Y0329685D01*
X0092124Y0329983D02*
X0093906Y0329983D01*
X0093661Y0330282D02*
X0091742Y0330282D01*
X0091433Y0330580D02*
X0093281Y0330580D01*
X0094074Y0327595D02*
X0095053Y0327595D01*
X0094530Y0327297D02*
X0095601Y0327297D01*
X0095824Y0326998D02*
X0094655Y0326998D01*
X0094557Y0326700D02*
X0095954Y0326700D01*
X0096013Y0326401D02*
X0094146Y0326401D01*
X0093935Y0323117D02*
X0096072Y0323117D01*
X0096072Y0322819D02*
X0094266Y0322819D01*
X0094542Y0322520D02*
X0096072Y0322520D01*
X0096072Y0322222D02*
X0094841Y0322222D01*
X0095068Y0321923D02*
X0096072Y0321923D01*
X0096072Y0321625D02*
X0095353Y0321625D01*
X0095618Y0321326D02*
X0096072Y0321326D01*
X0096072Y0321028D02*
X0095877Y0321028D01*
X0095907Y0319535D02*
X0094105Y0319535D01*
X0094409Y0319237D02*
X0096194Y0319237D01*
X0096481Y0318938D02*
X0094714Y0318938D01*
X0095018Y0318640D02*
X0096768Y0318640D01*
X0097054Y0318341D02*
X0095322Y0318341D01*
X0095626Y0318043D02*
X0097341Y0318043D01*
X0097449Y0316252D02*
X0099222Y0316252D01*
X0099222Y0315953D02*
X0097686Y0315953D01*
X0097686Y0315655D02*
X0099222Y0315655D01*
X0099222Y0315356D02*
X0097686Y0315356D01*
X0097686Y0315058D02*
X0099222Y0315058D01*
X0099222Y0314759D02*
X0097686Y0314759D01*
X0097686Y0314461D02*
X0099222Y0314461D01*
X0099222Y0314162D02*
X0097686Y0314162D01*
X0097686Y0319834D02*
X0099222Y0319834D01*
X0099222Y0320132D02*
X0097686Y0320132D01*
X0097686Y0320431D02*
X0099222Y0320431D01*
X0099222Y0320729D02*
X0097686Y0320729D01*
X0097686Y0321028D02*
X0099079Y0321028D01*
X0098525Y0321326D02*
X0097686Y0321326D01*
X0097686Y0321625D02*
X0097971Y0321625D01*
X0104416Y0318938D02*
X0108957Y0318938D01*
X0109152Y0318640D02*
X0107388Y0318640D01*
X0107690Y0318341D02*
X0109237Y0318341D01*
X0109287Y0318043D02*
X0107765Y0318043D01*
X0107608Y0317290D02*
X0107293Y0316463D01*
X0107214Y0316463D01*
X0107135Y0316502D01*
X0106978Y0316502D01*
X0106860Y0316542D01*
X0106702Y0316542D01*
X0106584Y0316581D01*
X0106505Y0316581D01*
X0106426Y0316620D01*
X0106623Y0317408D01*
X0106899Y0317369D01*
X0107608Y0317290D01*
X0107553Y0317147D02*
X0108342Y0317147D01*
X0108923Y0316849D02*
X0107440Y0316849D01*
X0106484Y0316849D01*
X0104261Y0316849D01*
X0104261Y0317147D02*
X0106558Y0317147D01*
X0107553Y0317147D01*
X0107326Y0316550D02*
X0109206Y0316550D01*
X0109345Y0316252D02*
X0107701Y0316252D01*
X0107922Y0315953D02*
X0109433Y0315953D01*
X0109487Y0315655D02*
X0107962Y0315655D01*
X0107901Y0315356D02*
X0109458Y0315356D01*
X0109385Y0315058D02*
X0107553Y0315058D01*
X0106521Y0315058D02*
X0104261Y0315058D01*
X0104261Y0315356D02*
X0106062Y0315356D01*
X0105895Y0315655D02*
X0104261Y0315655D01*
X0104261Y0315953D02*
X0105797Y0315953D01*
X0105797Y0316252D02*
X0104261Y0316252D01*
X0104261Y0316550D02*
X0105797Y0316550D01*
X0106677Y0316550D02*
X0107326Y0316550D01*
X0106491Y0317446D02*
X0104261Y0317446D01*
X0104261Y0317744D02*
X0105869Y0317744D01*
X0105797Y0318043D02*
X0104261Y0318043D01*
X0104261Y0318341D02*
X0105830Y0318341D01*
X0106016Y0318640D02*
X0104295Y0318640D01*
X0104652Y0319237D02*
X0108712Y0319237D01*
X0108234Y0319535D02*
X0105052Y0319535D01*
X0110820Y0319237D02*
X0113889Y0319237D01*
X0114104Y0319237D02*
X0115560Y0319237D01*
X0114845Y0319535D02*
X0114104Y0319535D01*
X0113524Y0319535D02*
X0111249Y0319535D01*
X0089208Y0314461D02*
X0086343Y0314461D01*
X0086824Y0314162D02*
X0088749Y0314162D01*
D55*
X0098860Y0282511D02*
X0100300Y0282511D01*
X0100493Y0280606D01*
X0101134Y0280401D01*
X0101732Y0280093D01*
X0103216Y0281304D01*
X0104234Y0280286D01*
X0103023Y0278802D01*
X0103331Y0278204D01*
X0103536Y0277563D01*
X0105441Y0277370D01*
X0105441Y0275930D01*
X0103536Y0275737D01*
X0103331Y0275096D01*
X0103023Y0274498D01*
X0104234Y0273014D01*
X0103216Y0271996D01*
X0101732Y0273207D01*
X0101134Y0272899D01*
X0100286Y0274945D01*
X0100665Y0275157D01*
X0100984Y0275451D01*
X0101225Y0275812D01*
X0101375Y0276219D01*
X0101426Y0276650D01*
X0101373Y0277089D01*
X0101217Y0277502D01*
X0100968Y0277867D01*
X0100639Y0278161D01*
X0100249Y0278370D01*
X0099821Y0278479D01*
X0099379Y0278484D01*
X0098949Y0278384D01*
X0098555Y0278184D01*
X0098220Y0277896D01*
X0097962Y0277537D01*
X0097798Y0277127D01*
X0097735Y0276690D01*
X0097779Y0276250D01*
X0097925Y0275834D01*
X0098166Y0275464D01*
X0098489Y0275162D01*
X0098874Y0274945D01*
X0098026Y0272899D01*
X0097428Y0273207D01*
X0095944Y0271996D01*
X0094926Y0273014D01*
X0096137Y0274498D01*
X0095829Y0275096D01*
X0095624Y0275737D01*
X0093719Y0275930D01*
X0093719Y0277370D01*
X0095624Y0277563D01*
X0095829Y0278204D01*
X0096137Y0278802D01*
X0094926Y0280286D01*
X0095944Y0281304D01*
X0097428Y0280093D01*
X0098026Y0280401D01*
X0098667Y0280606D01*
X0098860Y0282511D01*
X0098842Y0282333D02*
X0100318Y0282333D01*
X0100378Y0281744D02*
X0098782Y0281744D01*
X0098722Y0281155D02*
X0100438Y0281155D01*
X0100620Y0280566D02*
X0098540Y0280566D01*
X0096849Y0280566D02*
X0095206Y0280566D01*
X0095179Y0279977D02*
X0103981Y0279977D01*
X0103954Y0280566D02*
X0102311Y0280566D01*
X0103033Y0281155D02*
X0103365Y0281155D01*
X0103501Y0279388D02*
X0095659Y0279388D01*
X0096135Y0278798D02*
X0103025Y0278798D01*
X0103328Y0278209D02*
X0100549Y0278209D01*
X0101136Y0277620D02*
X0103518Y0277620D01*
X0105441Y0277031D02*
X0101380Y0277031D01*
X0101401Y0276442D02*
X0105441Y0276442D01*
X0104682Y0275853D02*
X0101240Y0275853D01*
X0100781Y0275264D02*
X0103385Y0275264D01*
X0103114Y0274675D02*
X0100398Y0274675D01*
X0100642Y0274086D02*
X0103360Y0274086D01*
X0103840Y0273497D02*
X0100886Y0273497D01*
X0101130Y0272908D02*
X0101151Y0272908D01*
X0102098Y0272908D02*
X0104127Y0272908D01*
X0103538Y0272319D02*
X0102821Y0272319D01*
X0098518Y0274086D02*
X0095800Y0274086D01*
X0096046Y0274675D02*
X0098762Y0274675D01*
X0098380Y0275264D02*
X0095775Y0275264D01*
X0094478Y0275853D02*
X0097918Y0275853D01*
X0097760Y0276442D02*
X0093719Y0276442D01*
X0093719Y0277031D02*
X0097784Y0277031D01*
X0098022Y0277620D02*
X0095642Y0277620D01*
X0095832Y0278209D02*
X0098605Y0278209D01*
X0096127Y0281155D02*
X0095795Y0281155D01*
X0095320Y0273497D02*
X0098274Y0273497D01*
X0098030Y0272908D02*
X0098009Y0272908D01*
X0097062Y0272908D02*
X0095033Y0272908D01*
X0095622Y0272319D02*
X0096339Y0272319D01*
D56*
X0063127Y0275947D03*
X0059820Y0279569D03*
X0059978Y0288474D03*
X0059033Y0289577D03*
X0060608Y0312264D03*
X0062182Y0314154D03*
X0059820Y0316359D03*
X0059663Y0316359D03*
X0062025Y0320138D03*
X0136728Y0316246D03*
X0138302Y0318136D03*
X0139090Y0314041D03*
X0139247Y0314041D03*
X0136885Y0310262D03*
X0136885Y0303893D03*
X0138932Y0299484D03*
X0136885Y0293283D03*
X0138932Y0293126D03*
X0139877Y0292023D03*
X0138932Y0289346D03*
X0139877Y0288244D03*
X0135533Y0279153D03*
X0138840Y0275531D03*
D57*
X0135533Y0277027D03*
X0140035Y0288322D03*
X0138775Y0291157D03*
X0137043Y0291157D03*
X0140035Y0300507D03*
X0063127Y0278073D03*
D58*
X0063127Y0281144D03*
X0060135Y0275002D03*
X0061867Y0290522D03*
X0063127Y0304689D03*
X0058875Y0311319D03*
X0135533Y0273956D03*
X0138525Y0280098D03*
X0140035Y0292023D03*
X0140035Y0319081D03*
D59*
X0137515Y0315931D03*
X0138302Y0314356D03*
X0135940Y0311679D03*
X0135940Y0305311D03*
X0139720Y0300586D03*
X0139720Y0292023D03*
X0139720Y0288244D03*
X0137265Y0279468D03*
X0135690Y0279153D03*
X0138210Y0275531D03*
X0062970Y0275947D03*
X0061395Y0275632D03*
X0060450Y0279569D03*
X0059190Y0289577D03*
X0059033Y0301382D03*
X0061395Y0314469D03*
X0060608Y0316044D03*
X0062970Y0318721D03*
D60*
X0059033Y0316595D03*
X0059033Y0313918D03*
X0062970Y0313918D03*
X0059033Y0304768D03*
X0059033Y0291860D03*
X0062025Y0290443D03*
X0063127Y0289656D03*
X0062970Y0281222D03*
X0062970Y0278073D03*
X0060608Y0275081D03*
X0135690Y0273878D03*
X0135690Y0277027D03*
X0138052Y0280019D03*
X0136885Y0291157D03*
X0135783Y0292102D03*
X0139877Y0313805D03*
X0139877Y0316482D03*
X0135940Y0316482D03*
D61*
X0136098Y0319081D03*
X0139720Y0311679D03*
X0137737Y0279311D03*
X0137580Y0279311D03*
X0136163Y0279153D03*
X0136005Y0279153D03*
X0135848Y0279153D03*
X0062812Y0275947D03*
X0062655Y0275947D03*
X0062497Y0275947D03*
X0061080Y0275789D03*
X0060923Y0275789D03*
X0059190Y0301539D03*
X0062812Y0311319D03*
X0059190Y0318721D03*
D62*
X0059190Y0316516D03*
X0062812Y0316516D03*
X0062970Y0316516D03*
X0061237Y0320611D03*
X0060923Y0320611D03*
X0060765Y0320611D03*
X0059190Y0304689D03*
X0062812Y0304689D03*
X0062970Y0304689D03*
X0062025Y0300752D03*
X0061867Y0300752D03*
X0061710Y0300752D03*
X0061552Y0300752D03*
X0061395Y0300752D03*
X0061237Y0300752D03*
X0061080Y0300752D03*
X0060923Y0300752D03*
X0060765Y0300752D03*
X0060608Y0300752D03*
X0060450Y0300752D03*
X0060293Y0300752D03*
X0060135Y0300752D03*
X0062970Y0291939D03*
X0059978Y0290364D03*
X0060765Y0288002D03*
X0060923Y0288002D03*
X0061237Y0288002D03*
X0059190Y0279569D03*
X0060608Y0278939D03*
X0062812Y0277994D03*
X0062025Y0275159D03*
X0059978Y0275002D03*
X0135848Y0277106D03*
X0138052Y0276161D03*
X0139470Y0275531D03*
X0138682Y0280098D03*
X0136635Y0279941D03*
X0135783Y0288244D03*
X0137673Y0289819D03*
X0137830Y0289819D03*
X0137987Y0289819D03*
X0138145Y0289819D03*
X0138932Y0291236D03*
X0138145Y0299011D03*
X0135783Y0300586D03*
X0137515Y0303421D03*
X0137673Y0309789D03*
X0137987Y0309789D03*
X0138145Y0309789D03*
X0139720Y0313884D03*
X0136098Y0313884D03*
X0135940Y0313884D03*
D63*
X0136255Y0313805D03*
X0136413Y0313805D03*
X0136570Y0313805D03*
X0136728Y0313805D03*
X0136885Y0313805D03*
X0137043Y0313805D03*
X0137200Y0313805D03*
X0137358Y0313805D03*
X0137515Y0313805D03*
X0137673Y0313805D03*
X0137830Y0313805D03*
X0137987Y0313805D03*
X0137987Y0312388D03*
X0137830Y0312388D03*
X0137673Y0312388D03*
X0137515Y0312388D03*
X0137358Y0312388D03*
X0137200Y0312388D03*
X0137043Y0312388D03*
X0136885Y0312388D03*
X0138145Y0312388D03*
X0138302Y0312388D03*
X0138460Y0312388D03*
X0138617Y0312388D03*
X0138775Y0312388D03*
X0138460Y0309868D03*
X0138302Y0309868D03*
X0137830Y0309711D03*
X0137515Y0309868D03*
X0137358Y0309868D03*
X0137358Y0306019D03*
X0137515Y0306019D03*
X0137673Y0306019D03*
X0137830Y0306019D03*
X0137987Y0306019D03*
X0138145Y0306019D03*
X0138302Y0306019D03*
X0138460Y0306019D03*
X0138617Y0306019D03*
X0138775Y0306019D03*
X0137200Y0306019D03*
X0137043Y0306019D03*
X0136885Y0306019D03*
X0137358Y0303500D03*
X0137673Y0303342D03*
X0137830Y0303342D03*
X0137987Y0303342D03*
X0138145Y0303342D03*
X0138302Y0303500D03*
X0138460Y0303500D03*
X0138302Y0302082D03*
X0138145Y0302082D03*
X0137987Y0302082D03*
X0137830Y0302082D03*
X0137673Y0302082D03*
X0137515Y0302082D03*
X0137358Y0302082D03*
X0137200Y0301925D03*
X0138617Y0301925D03*
X0138460Y0299090D03*
X0138302Y0299090D03*
X0137987Y0298933D03*
X0137830Y0298933D03*
X0137673Y0298933D03*
X0137515Y0299090D03*
X0137358Y0299090D03*
X0137515Y0293677D03*
X0137673Y0293677D03*
X0137830Y0293677D03*
X0137987Y0293677D03*
X0138145Y0293677D03*
X0138302Y0293677D03*
X0138460Y0293519D03*
X0138617Y0293519D03*
X0137200Y0293519D03*
X0137358Y0289740D03*
X0137515Y0289740D03*
X0138302Y0289740D03*
X0138460Y0289740D03*
X0138617Y0286905D03*
X0138302Y0286748D03*
X0138145Y0286748D03*
X0137987Y0286748D03*
X0137830Y0286748D03*
X0137673Y0286748D03*
X0137515Y0286748D03*
X0137358Y0286748D03*
X0137200Y0286905D03*
X0136793Y0280019D03*
X0138210Y0278444D03*
X0138367Y0278444D03*
X0138525Y0278444D03*
X0137580Y0276397D03*
X0137423Y0276397D03*
X0137265Y0276555D03*
X0137108Y0276555D03*
X0136950Y0276712D03*
X0136793Y0276712D03*
X0136635Y0276870D03*
X0136478Y0276870D03*
X0136320Y0277027D03*
X0136163Y0277027D03*
X0137737Y0276240D03*
X0137895Y0276240D03*
X0137895Y0274822D03*
X0138052Y0274822D03*
X0137737Y0274665D03*
X0137580Y0274665D03*
X0137423Y0274507D03*
X0137265Y0274507D03*
X0136950Y0274350D03*
X0136635Y0274193D03*
X0136320Y0274035D03*
X0136005Y0273878D03*
X0135848Y0273878D03*
X0137830Y0315222D03*
X0137830Y0316482D03*
X0137987Y0316482D03*
X0138145Y0316482D03*
X0138302Y0316482D03*
X0138460Y0316482D03*
X0138617Y0316482D03*
X0138775Y0316482D03*
X0138932Y0316482D03*
X0139090Y0316482D03*
X0139247Y0316482D03*
X0139405Y0316482D03*
X0139562Y0316482D03*
X0139720Y0316482D03*
X0138775Y0317900D03*
X0138617Y0317900D03*
X0138460Y0317900D03*
X0138617Y0320419D03*
X0138302Y0320577D03*
X0138145Y0320577D03*
X0137987Y0320577D03*
X0137830Y0320577D03*
X0137673Y0320577D03*
X0137515Y0320577D03*
X0137358Y0320577D03*
X0135783Y0319002D03*
X0136098Y0316482D03*
X0063127Y0311398D03*
X0061552Y0309823D03*
X0061395Y0309823D03*
X0061237Y0309823D03*
X0061080Y0309823D03*
X0060923Y0309823D03*
X0060765Y0309823D03*
X0060608Y0309823D03*
X0060293Y0309981D03*
X0060293Y0312500D03*
X0060450Y0312500D03*
X0060135Y0312500D03*
X0060135Y0313918D03*
X0059978Y0313918D03*
X0059820Y0313918D03*
X0059663Y0313918D03*
X0059505Y0313918D03*
X0059348Y0313918D03*
X0059190Y0313918D03*
X0060293Y0313918D03*
X0060450Y0313918D03*
X0060608Y0313918D03*
X0060765Y0313918D03*
X0060923Y0313918D03*
X0061080Y0313918D03*
X0061080Y0315178D03*
X0061080Y0316595D03*
X0060923Y0316595D03*
X0061237Y0316595D03*
X0061395Y0316595D03*
X0061552Y0316595D03*
X0061710Y0316595D03*
X0061867Y0316595D03*
X0062025Y0316595D03*
X0062182Y0316595D03*
X0062340Y0316595D03*
X0062497Y0316595D03*
X0062655Y0316595D03*
X0062025Y0318012D03*
X0061867Y0318012D03*
X0061710Y0318012D03*
X0061552Y0318012D03*
X0061395Y0318012D03*
X0061237Y0318012D03*
X0061080Y0318012D03*
X0060923Y0318012D03*
X0060765Y0318012D03*
X0060608Y0318012D03*
X0060450Y0318012D03*
X0060293Y0318012D03*
X0060135Y0318012D03*
X0060450Y0320532D03*
X0060608Y0320532D03*
X0061080Y0320689D03*
X0061395Y0320532D03*
X0061552Y0320532D03*
X0062812Y0313918D03*
X0062655Y0304768D03*
X0062497Y0304768D03*
X0062340Y0304768D03*
X0062182Y0304768D03*
X0062025Y0304768D03*
X0061867Y0304768D03*
X0061710Y0304768D03*
X0061552Y0304768D03*
X0061395Y0304768D03*
X0061237Y0304768D03*
X0061080Y0304768D03*
X0060923Y0304768D03*
X0060765Y0304768D03*
X0060608Y0304768D03*
X0060450Y0304768D03*
X0060293Y0304768D03*
X0060135Y0304768D03*
X0059978Y0304768D03*
X0059820Y0304768D03*
X0059663Y0304768D03*
X0059505Y0304768D03*
X0059348Y0304768D03*
X0060608Y0303350D03*
X0060765Y0303350D03*
X0060923Y0303350D03*
X0061080Y0303350D03*
X0061237Y0303350D03*
X0061395Y0303350D03*
X0061710Y0303193D03*
X0060450Y0303193D03*
X0060450Y0291860D03*
X0060293Y0291860D03*
X0060135Y0291860D03*
X0059978Y0291860D03*
X0059820Y0291860D03*
X0059663Y0291860D03*
X0059505Y0291860D03*
X0059348Y0291860D03*
X0059190Y0291860D03*
X0060608Y0291860D03*
X0060765Y0291860D03*
X0060923Y0291860D03*
X0061080Y0291860D03*
X0061237Y0291860D03*
X0061395Y0291860D03*
X0061552Y0291860D03*
X0061710Y0291860D03*
X0061867Y0291860D03*
X0062025Y0291860D03*
X0062182Y0291860D03*
X0062340Y0291860D03*
X0062497Y0291860D03*
X0062655Y0291860D03*
X0062812Y0291860D03*
X0061552Y0288081D03*
X0061395Y0288081D03*
X0061080Y0287923D03*
X0060608Y0288081D03*
X0060450Y0288081D03*
X0062655Y0281222D03*
X0062812Y0281222D03*
X0062340Y0281065D03*
X0062025Y0280907D03*
X0061710Y0280750D03*
X0061395Y0280593D03*
X0061237Y0280593D03*
X0061080Y0280435D03*
X0060923Y0280435D03*
X0060765Y0280278D03*
X0060608Y0280278D03*
X0060765Y0278860D03*
X0060923Y0278860D03*
X0061080Y0278703D03*
X0061237Y0278703D03*
X0061395Y0278545D03*
X0061552Y0278545D03*
X0061710Y0278388D03*
X0061867Y0278388D03*
X0062025Y0278230D03*
X0062182Y0278230D03*
X0062340Y0278073D03*
X0062497Y0278073D03*
X0060450Y0276656D03*
X0060293Y0276656D03*
X0060135Y0276656D03*
X0061867Y0275081D03*
D64*
X0060608Y0276577D03*
X0059978Y0276577D03*
X0062655Y0277994D03*
X0061552Y0280671D03*
X0061867Y0280829D03*
X0062182Y0280986D03*
X0062497Y0281144D03*
X0059505Y0279569D03*
X0059348Y0279569D03*
X0060293Y0288159D03*
X0060135Y0288317D03*
X0061710Y0288159D03*
X0061867Y0288317D03*
X0061867Y0303114D03*
X0061552Y0303272D03*
X0060293Y0303114D03*
X0060450Y0309902D03*
X0060135Y0310059D03*
X0061710Y0309902D03*
X0061867Y0310059D03*
X0059978Y0312422D03*
X0060923Y0315256D03*
X0059348Y0316516D03*
X0060135Y0320296D03*
X0060293Y0320453D03*
X0061710Y0320453D03*
X0061867Y0320296D03*
X0063127Y0318563D03*
X0062655Y0313996D03*
X0135783Y0311837D03*
X0137043Y0310104D03*
X0137200Y0309947D03*
X0138617Y0309947D03*
X0138775Y0310104D03*
X0139562Y0313884D03*
X0137987Y0315144D03*
X0136255Y0316404D03*
X0138932Y0317978D03*
X0138775Y0320341D03*
X0138460Y0320498D03*
X0137200Y0320498D03*
X0137043Y0320341D03*
X0135783Y0305468D03*
X0137200Y0303578D03*
X0138617Y0303578D03*
X0138775Y0303736D03*
X0138460Y0302004D03*
X0138775Y0301846D03*
X0137043Y0301846D03*
X0136885Y0301689D03*
X0137043Y0299169D03*
X0137200Y0299169D03*
X0138617Y0299169D03*
X0138775Y0299326D03*
X0137358Y0293598D03*
X0137043Y0293441D03*
X0137200Y0289661D03*
X0137043Y0289504D03*
X0138617Y0289661D03*
X0138775Y0289504D03*
X0138775Y0286984D03*
X0138460Y0286826D03*
X0137043Y0286984D03*
X0138052Y0278523D03*
X0138682Y0278523D03*
X0136005Y0277106D03*
X0137108Y0274429D03*
X0136793Y0274271D03*
X0136478Y0274114D03*
X0136163Y0273956D03*
X0139155Y0275531D03*
X0139312Y0275531D03*
D65*
X0139312Y0279389D03*
X0137423Y0279389D03*
X0136478Y0279232D03*
X0136320Y0279232D03*
X0136098Y0288322D03*
X0136098Y0292102D03*
X0136098Y0300507D03*
X0138145Y0314435D03*
X0137673Y0315852D03*
X0139720Y0319002D03*
X0062970Y0301461D03*
X0059190Y0311398D03*
X0061237Y0314548D03*
X0060765Y0315965D03*
X0062812Y0289656D03*
X0062340Y0275868D03*
X0062182Y0275868D03*
X0061237Y0275711D03*
X0059348Y0275711D03*
D66*
X0059033Y0275711D03*
X0061710Y0275238D03*
X0059663Y0279648D03*
X0062025Y0288396D03*
X0063127Y0301303D03*
X0062025Y0302878D03*
X0060135Y0303035D03*
X0059978Y0310296D03*
X0062025Y0310138D03*
X0062340Y0314075D03*
X0062497Y0314075D03*
X0059505Y0316437D03*
X0136413Y0316325D03*
X0136570Y0316325D03*
X0139405Y0313963D03*
X0138932Y0320104D03*
X0136885Y0320262D03*
X0137043Y0303657D03*
X0138932Y0301610D03*
X0136885Y0299405D03*
X0138775Y0293362D03*
X0136885Y0289425D03*
X0136885Y0287063D03*
X0138932Y0287220D03*
X0136950Y0279862D03*
X0139627Y0279389D03*
X0138997Y0275452D03*
D67*
X0138525Y0275531D03*
X0137108Y0279626D03*
X0135940Y0288244D03*
X0138775Y0314199D03*
X0137200Y0316089D03*
X0137043Y0316089D03*
X0137987Y0318293D03*
X0138145Y0318293D03*
X0137830Y0318451D03*
X0135940Y0319081D03*
X0062970Y0311319D03*
X0061080Y0311949D03*
X0060923Y0312107D03*
X0060765Y0312107D03*
X0061710Y0314311D03*
X0061867Y0314311D03*
X0060135Y0316201D03*
X0060135Y0279569D03*
X0061552Y0275474D03*
D68*
X0060765Y0275868D03*
X0059820Y0275868D03*
X0059663Y0275711D03*
X0059505Y0275711D03*
X0059348Y0289656D03*
X0059348Y0301618D03*
X0062812Y0301618D03*
X0059348Y0311398D03*
X0062812Y0318800D03*
X0136098Y0311600D03*
X0136098Y0305232D03*
X0139720Y0305232D03*
X0139562Y0300507D03*
X0136255Y0300507D03*
X0139562Y0292102D03*
X0139562Y0288322D03*
X0136255Y0288322D03*
X0137895Y0279232D03*
X0138840Y0279232D03*
X0138997Y0279389D03*
X0139155Y0279389D03*
X0139562Y0319002D03*
D69*
X0137358Y0316010D03*
X0138460Y0314278D03*
X0138617Y0314278D03*
X0139877Y0311758D03*
X0139877Y0305389D03*
X0139470Y0279389D03*
X0138367Y0275452D03*
X0060293Y0279648D03*
X0059190Y0275711D03*
X0061552Y0314390D03*
X0060450Y0316122D03*
X0060293Y0316122D03*
X0059033Y0318642D03*
D70*
X0059978Y0316280D03*
X0062025Y0314233D03*
X0061395Y0312028D03*
X0061237Y0312028D03*
X0059033Y0311398D03*
X0062970Y0289656D03*
X0059978Y0279648D03*
X0135940Y0292102D03*
X0135940Y0300507D03*
X0139877Y0300507D03*
X0138932Y0314120D03*
X0136885Y0316167D03*
X0137515Y0318372D03*
X0137673Y0318372D03*
X0139877Y0319002D03*
X0138682Y0275452D03*
D71*
X0139627Y0275531D03*
X0139785Y0279311D03*
X0136885Y0318136D03*
X0062025Y0312264D03*
X0060135Y0290522D03*
X0059033Y0279569D03*
X0058875Y0275789D03*
D72*
X0059505Y0289577D03*
X0062655Y0289577D03*
X0062655Y0301697D03*
X0062655Y0311319D03*
X0059348Y0318878D03*
X0136255Y0319081D03*
X0139562Y0311522D03*
X0139562Y0305153D03*
X0136255Y0292023D03*
D73*
X0136413Y0292102D03*
X0139405Y0292102D03*
X0139405Y0288322D03*
X0136413Y0288322D03*
X0136413Y0300507D03*
X0139405Y0300507D03*
X0139405Y0305074D03*
X0136255Y0305074D03*
X0136255Y0311443D03*
X0139405Y0311443D03*
X0139405Y0319002D03*
X0062655Y0318957D03*
X0059505Y0318957D03*
X0059505Y0311398D03*
X0059505Y0301776D03*
X0062497Y0301776D03*
X0062497Y0289498D03*
X0059663Y0289498D03*
D74*
X0059820Y0289419D03*
X0062182Y0289419D03*
X0062340Y0289419D03*
X0062340Y0301854D03*
X0059820Y0301854D03*
X0059663Y0301854D03*
X0059663Y0311319D03*
X0062182Y0311162D03*
X0062340Y0311162D03*
X0062497Y0311319D03*
X0062497Y0319036D03*
X0059663Y0319036D03*
X0136413Y0319081D03*
X0136570Y0319238D03*
X0136728Y0319238D03*
X0139247Y0319081D03*
X0139247Y0311364D03*
X0136413Y0311364D03*
X0136413Y0304996D03*
X0139247Y0304996D03*
X0139247Y0292181D03*
X0136570Y0292181D03*
D75*
X0136728Y0292259D03*
X0139090Y0292259D03*
X0139247Y0288322D03*
X0136570Y0288322D03*
X0136570Y0300507D03*
X0139247Y0300507D03*
X0139090Y0304917D03*
X0136570Y0304917D03*
X0136570Y0311285D03*
X0136728Y0311285D03*
X0139090Y0311285D03*
X0062340Y0319115D03*
X0062182Y0319115D03*
X0059820Y0319115D03*
X0059978Y0301933D03*
X0062182Y0301933D03*
D76*
X0059820Y0311319D03*
X0059978Y0319193D03*
X0136728Y0304838D03*
X0138932Y0304838D03*
X0138932Y0311207D03*
X0139090Y0319081D03*
X0139090Y0300586D03*
X0139090Y0288244D03*
X0136728Y0288244D03*
D77*
X0136728Y0300507D03*
M02*
