G75*
%MOIN*%
%OFA0B0*%
%FSLAX25Y25*%
%IPPOS*%
%LPD*%
%AMOC8*
5,1,8,0,0,1.08239X$1,22.5*
%
%ADD10R,0.01575X0.02756*%
%ADD11C,0.25000*%
%ADD12C,0.02500*%
%ADD13C,0.00600*%
%ADD14C,0.02000*%
D10*
X0052680Y0249304D03*
X0055830Y0249304D03*
X0058980Y0249304D03*
X0065180Y0249304D03*
X0068330Y0249304D03*
X0071480Y0249304D03*
X0077680Y0249304D03*
X0080830Y0249304D03*
X0083980Y0249304D03*
X0090180Y0249304D03*
X0093330Y0249304D03*
X0096480Y0249304D03*
X0102680Y0249304D03*
X0105830Y0249304D03*
X0108980Y0249304D03*
X0115180Y0249304D03*
X0118330Y0249304D03*
X0121480Y0249304D03*
X0127680Y0249304D03*
X0130830Y0249304D03*
X0133980Y0249304D03*
X0140180Y0249304D03*
X0143330Y0249304D03*
X0146480Y0249304D03*
X0146480Y0255996D03*
X0143330Y0255996D03*
X0140180Y0255996D03*
X0140180Y0261804D03*
X0143330Y0261804D03*
X0146480Y0261804D03*
X0146480Y0268496D03*
X0143330Y0268496D03*
X0140180Y0268496D03*
X0133980Y0268496D03*
X0130830Y0268496D03*
X0127680Y0268496D03*
X0121480Y0268496D03*
X0118330Y0268496D03*
X0115180Y0268496D03*
X0108980Y0268496D03*
X0105830Y0268496D03*
X0102680Y0268496D03*
X0102680Y0274304D03*
X0105830Y0274304D03*
X0108980Y0274304D03*
X0115180Y0274304D03*
X0118330Y0274304D03*
X0121480Y0274304D03*
X0127680Y0274304D03*
X0130830Y0274304D03*
X0133980Y0274304D03*
X0140180Y0274304D03*
X0143330Y0274304D03*
X0146480Y0274304D03*
X0146480Y0280996D03*
X0143330Y0280996D03*
X0140180Y0280996D03*
X0133980Y0280996D03*
X0130830Y0280996D03*
X0127680Y0280996D03*
X0121480Y0280996D03*
X0118330Y0280996D03*
X0115180Y0280996D03*
X0108980Y0280996D03*
X0105830Y0280996D03*
X0102680Y0280996D03*
X0102680Y0286804D03*
X0105830Y0286804D03*
X0108980Y0286804D03*
X0115180Y0286804D03*
X0118330Y0286804D03*
X0121480Y0286804D03*
X0127680Y0286804D03*
X0130830Y0286804D03*
X0133980Y0286804D03*
X0140180Y0286804D03*
X0143330Y0286804D03*
X0146480Y0286804D03*
X0146480Y0293496D03*
X0143330Y0293496D03*
X0140180Y0293496D03*
X0140180Y0299304D03*
X0143330Y0299304D03*
X0146480Y0299304D03*
X0146480Y0305996D03*
X0143330Y0305996D03*
X0140180Y0305996D03*
X0140180Y0311804D03*
X0143330Y0311804D03*
X0146480Y0311804D03*
X0146480Y0318496D03*
X0143330Y0318496D03*
X0140180Y0318496D03*
X0133980Y0318496D03*
X0130830Y0318496D03*
X0127680Y0318496D03*
X0121480Y0318496D03*
X0118330Y0318496D03*
X0115180Y0318496D03*
X0108980Y0318496D03*
X0105830Y0318496D03*
X0102680Y0318496D03*
X0102680Y0324304D03*
X0105830Y0324304D03*
X0108980Y0324304D03*
X0115180Y0324304D03*
X0118330Y0324304D03*
X0121480Y0324304D03*
X0127680Y0324304D03*
X0130830Y0324304D03*
X0133980Y0324304D03*
X0140180Y0324304D03*
X0143330Y0324304D03*
X0146480Y0324304D03*
X0146480Y0330996D03*
X0143330Y0330996D03*
X0140180Y0330996D03*
X0133980Y0330996D03*
X0130830Y0330996D03*
X0127680Y0330996D03*
X0121480Y0330996D03*
X0118330Y0330996D03*
X0115180Y0330996D03*
X0108980Y0330996D03*
X0105830Y0330996D03*
X0102680Y0330996D03*
X0102680Y0336804D03*
X0105830Y0336804D03*
X0108980Y0336804D03*
X0115180Y0336804D03*
X0118330Y0336804D03*
X0121480Y0336804D03*
X0127680Y0336804D03*
X0130830Y0336804D03*
X0133980Y0336804D03*
X0140180Y0336804D03*
X0143330Y0336804D03*
X0146480Y0336804D03*
X0146480Y0343496D03*
X0143330Y0343496D03*
X0140180Y0343496D03*
X0133980Y0343496D03*
X0130830Y0343496D03*
X0127680Y0343496D03*
X0121480Y0343496D03*
X0118330Y0343496D03*
X0115180Y0343496D03*
X0108980Y0343496D03*
X0105830Y0343496D03*
X0102680Y0343496D03*
X0096480Y0343496D03*
X0093330Y0343496D03*
X0090180Y0343496D03*
X0083980Y0343496D03*
X0080830Y0343496D03*
X0077680Y0343496D03*
X0071480Y0343496D03*
X0068330Y0343496D03*
X0065180Y0343496D03*
X0058980Y0343496D03*
X0055830Y0343496D03*
X0052680Y0343496D03*
X0052680Y0336804D03*
X0055830Y0336804D03*
X0058980Y0336804D03*
X0065180Y0336804D03*
X0068330Y0336804D03*
X0071480Y0336804D03*
X0077680Y0336804D03*
X0080830Y0336804D03*
X0083980Y0336804D03*
X0083980Y0330996D03*
X0080830Y0330996D03*
X0077680Y0330996D03*
X0071480Y0330996D03*
X0068330Y0330996D03*
X0065180Y0330996D03*
X0058980Y0330996D03*
X0055830Y0330996D03*
X0052680Y0330996D03*
X0052680Y0324304D03*
X0055830Y0324304D03*
X0058980Y0324304D03*
X0065180Y0324304D03*
X0068330Y0324304D03*
X0071480Y0324304D03*
X0077680Y0324304D03*
X0080830Y0324304D03*
X0083980Y0324304D03*
X0083980Y0318496D03*
X0080830Y0318496D03*
X0077680Y0318496D03*
X0071480Y0318496D03*
X0068330Y0318496D03*
X0065180Y0318496D03*
X0058980Y0318496D03*
X0055830Y0318496D03*
X0052680Y0318496D03*
X0052680Y0311804D03*
X0055830Y0311804D03*
X0058980Y0311804D03*
X0058980Y0305996D03*
X0055830Y0305996D03*
X0052680Y0305996D03*
X0052680Y0299304D03*
X0055830Y0299304D03*
X0058980Y0299304D03*
X0058980Y0293496D03*
X0055830Y0293496D03*
X0052680Y0293496D03*
X0052680Y0286804D03*
X0055830Y0286804D03*
X0058980Y0286804D03*
X0065180Y0286804D03*
X0068330Y0286804D03*
X0071480Y0286804D03*
X0077680Y0286804D03*
X0080830Y0286804D03*
X0083980Y0286804D03*
X0083980Y0280996D03*
X0080830Y0280996D03*
X0077680Y0280996D03*
X0071480Y0280996D03*
X0068330Y0280996D03*
X0065180Y0280996D03*
X0058980Y0280996D03*
X0055830Y0280996D03*
X0052680Y0280996D03*
X0052680Y0274304D03*
X0055830Y0274304D03*
X0058980Y0274304D03*
X0065180Y0274304D03*
X0068330Y0274304D03*
X0071480Y0274304D03*
X0077680Y0274304D03*
X0080830Y0274304D03*
X0083980Y0274304D03*
X0083980Y0268496D03*
X0080830Y0268496D03*
X0077680Y0268496D03*
X0071480Y0268496D03*
X0068330Y0268496D03*
X0065180Y0268496D03*
X0058980Y0268496D03*
X0055830Y0268496D03*
X0052680Y0268496D03*
X0052680Y0261804D03*
X0055830Y0261804D03*
X0058980Y0261804D03*
X0058980Y0255996D03*
X0055830Y0255996D03*
X0052680Y0255996D03*
X0065180Y0255996D03*
X0068330Y0255996D03*
X0071480Y0255996D03*
X0071480Y0261804D03*
X0068330Y0261804D03*
X0065180Y0261804D03*
X0077680Y0261804D03*
X0080830Y0261804D03*
X0083980Y0261804D03*
X0083980Y0255996D03*
X0080830Y0255996D03*
X0077680Y0255996D03*
X0090180Y0255996D03*
X0093330Y0255996D03*
X0096480Y0255996D03*
X0096480Y0261804D03*
X0093330Y0261804D03*
X0090180Y0261804D03*
X0090180Y0268496D03*
X0093330Y0268496D03*
X0096480Y0268496D03*
X0096480Y0274304D03*
X0093330Y0274304D03*
X0090180Y0274304D03*
X0090180Y0280996D03*
X0093330Y0280996D03*
X0096480Y0280996D03*
X0096480Y0286804D03*
X0093330Y0286804D03*
X0090180Y0286804D03*
X0090180Y0293496D03*
X0093330Y0293496D03*
X0096480Y0293496D03*
X0096480Y0299304D03*
X0093330Y0299304D03*
X0090180Y0299304D03*
X0083980Y0299304D03*
X0080830Y0299304D03*
X0077680Y0299304D03*
X0077680Y0293496D03*
X0080830Y0293496D03*
X0083980Y0293496D03*
X0071480Y0293496D03*
X0068330Y0293496D03*
X0065180Y0293496D03*
X0065180Y0299304D03*
X0068330Y0299304D03*
X0071480Y0299304D03*
X0071480Y0305996D03*
X0068330Y0305996D03*
X0065180Y0305996D03*
X0065180Y0311804D03*
X0068330Y0311804D03*
X0071480Y0311804D03*
X0077680Y0311804D03*
X0080830Y0311804D03*
X0083980Y0311804D03*
X0083980Y0305996D03*
X0080830Y0305996D03*
X0077680Y0305996D03*
X0090180Y0305996D03*
X0093330Y0305996D03*
X0096480Y0305996D03*
X0096480Y0311804D03*
X0093330Y0311804D03*
X0090180Y0311804D03*
X0090180Y0318496D03*
X0093330Y0318496D03*
X0096480Y0318496D03*
X0096480Y0324304D03*
X0093330Y0324304D03*
X0090180Y0324304D03*
X0090180Y0330996D03*
X0093330Y0330996D03*
X0096480Y0330996D03*
X0096480Y0336804D03*
X0093330Y0336804D03*
X0090180Y0336804D03*
X0102680Y0311804D03*
X0105830Y0311804D03*
X0108980Y0311804D03*
X0108980Y0305996D03*
X0105830Y0305996D03*
X0102680Y0305996D03*
X0102680Y0299304D03*
X0105830Y0299304D03*
X0108980Y0299304D03*
X0108980Y0293496D03*
X0105830Y0293496D03*
X0102680Y0293496D03*
X0115180Y0293496D03*
X0118330Y0293496D03*
X0121480Y0293496D03*
X0121480Y0299304D03*
X0118330Y0299304D03*
X0115180Y0299304D03*
X0115180Y0305996D03*
X0118330Y0305996D03*
X0121480Y0305996D03*
X0121480Y0311804D03*
X0118330Y0311804D03*
X0115180Y0311804D03*
X0127680Y0311804D03*
X0130830Y0311804D03*
X0133980Y0311804D03*
X0133980Y0305996D03*
X0130830Y0305996D03*
X0127680Y0305996D03*
X0127680Y0299304D03*
X0130830Y0299304D03*
X0133980Y0299304D03*
X0133980Y0293496D03*
X0130830Y0293496D03*
X0127680Y0293496D03*
X0127680Y0261804D03*
X0130830Y0261804D03*
X0133980Y0261804D03*
X0133980Y0255996D03*
X0130830Y0255996D03*
X0127680Y0255996D03*
X0121480Y0255996D03*
X0118330Y0255996D03*
X0115180Y0255996D03*
X0115180Y0261804D03*
X0118330Y0261804D03*
X0121480Y0261804D03*
X0108980Y0261804D03*
X0105830Y0261804D03*
X0102680Y0261804D03*
X0102680Y0255996D03*
X0105830Y0255996D03*
X0108980Y0255996D03*
D11*
X0164580Y0261400D03*
X0164580Y0331400D03*
X0034580Y0331400D03*
X0034580Y0261400D03*
D12*
X0044580Y0249150D03*
X0154580Y0343650D03*
D13*
X0146480Y0343496D02*
X0146480Y0341550D01*
X0146455Y0341525D01*
X0146455Y0338713D02*
X0146480Y0338688D01*
X0146480Y0336804D01*
X0146455Y0334525D02*
X0148330Y0332650D01*
X0148330Y0325150D01*
X0147484Y0324304D01*
X0146480Y0324304D01*
X0146455Y0322025D02*
X0148330Y0320150D01*
X0148330Y0312650D01*
X0147484Y0311804D01*
X0146480Y0311804D01*
X0146455Y0309525D02*
X0148330Y0307650D01*
X0148330Y0300150D01*
X0147484Y0299304D01*
X0146480Y0299304D01*
X0147080Y0297025D02*
X0053330Y0297025D01*
X0052680Y0297675D01*
X0052680Y0299304D01*
X0050893Y0296963D02*
X0050893Y0305213D01*
X0051676Y0305996D01*
X0052680Y0305996D01*
X0052080Y0308275D02*
X0050893Y0309463D01*
X0050893Y0317713D01*
X0051676Y0318496D01*
X0052680Y0318496D01*
X0052080Y0320775D02*
X0050893Y0321963D01*
X0050893Y0330213D01*
X0051676Y0330996D01*
X0052680Y0330996D01*
X0052080Y0333275D02*
X0050893Y0334463D01*
X0050893Y0342713D01*
X0051676Y0343496D01*
X0052680Y0343496D01*
X0055830Y0343496D02*
X0055830Y0341525D01*
X0055830Y0338650D02*
X0055830Y0336804D01*
X0052680Y0336804D02*
X0052680Y0335175D01*
X0053330Y0334525D01*
X0146455Y0334525D01*
X0145830Y0333275D02*
X0052080Y0333275D01*
X0055830Y0330996D02*
X0055830Y0329150D01*
X0055830Y0326275D02*
X0055830Y0324304D01*
X0052680Y0324304D02*
X0052680Y0322675D01*
X0053330Y0322025D01*
X0146455Y0322025D01*
X0145830Y0320775D02*
X0052080Y0320775D01*
X0055830Y0318496D02*
X0055830Y0316525D01*
X0056705Y0314400D02*
X0067705Y0314400D01*
X0068330Y0313775D01*
X0068330Y0311804D01*
X0065180Y0311804D02*
X0058980Y0311804D01*
X0055830Y0311804D02*
X0055830Y0313525D01*
X0056705Y0314400D01*
X0058980Y0318496D02*
X0065180Y0318496D01*
X0068330Y0318496D02*
X0068330Y0316650D01*
X0071480Y0318496D02*
X0077680Y0318496D01*
X0080830Y0318496D02*
X0080830Y0316650D01*
X0080830Y0313775D02*
X0080830Y0311804D01*
X0077680Y0311804D02*
X0071480Y0311804D01*
X0071480Y0305996D02*
X0077680Y0305996D01*
X0080830Y0305996D02*
X0080830Y0304150D01*
X0080830Y0301275D02*
X0080830Y0299304D01*
X0077680Y0299304D02*
X0071480Y0299304D01*
X0068330Y0299304D02*
X0068330Y0301275D01*
X0067830Y0301775D01*
X0056330Y0301775D01*
X0055830Y0301275D01*
X0055830Y0299304D01*
X0058980Y0299304D02*
X0065180Y0299304D01*
X0067705Y0303525D02*
X0068330Y0304150D01*
X0068330Y0305996D01*
X0067705Y0303525D02*
X0056205Y0303525D01*
X0055830Y0303900D01*
X0055830Y0305996D01*
X0058980Y0305996D02*
X0065180Y0305996D01*
X0053330Y0309525D02*
X0146455Y0309525D01*
X0145830Y0308275D02*
X0052080Y0308275D01*
X0053330Y0309525D02*
X0052680Y0310175D01*
X0052680Y0311804D01*
X0058980Y0324304D02*
X0065180Y0324304D01*
X0068330Y0324304D02*
X0068330Y0326275D01*
X0068330Y0329150D02*
X0068330Y0330996D01*
X0065180Y0330996D02*
X0058980Y0330996D01*
X0058980Y0336804D02*
X0065180Y0336804D01*
X0068330Y0336804D02*
X0068330Y0338650D01*
X0068330Y0341525D02*
X0068330Y0343496D01*
X0065180Y0343496D02*
X0058980Y0343496D01*
X0071480Y0343496D02*
X0071480Y0344196D01*
X0071780Y0344496D01*
X0077280Y0344496D01*
X0077680Y0344096D01*
X0077680Y0343496D01*
X0080830Y0343496D02*
X0080830Y0341400D01*
X0081205Y0341025D01*
X0093330Y0341025D01*
X0105830Y0341025D01*
X0105830Y0341400D01*
X0105830Y0343496D01*
X0105830Y0341025D02*
X0117830Y0341025D01*
X0118330Y0341525D01*
X0118330Y0343496D01*
X0115180Y0343496D02*
X0115180Y0344146D01*
X0114780Y0344546D01*
X0109380Y0344546D01*
X0108980Y0344146D01*
X0108980Y0343496D01*
X0105830Y0339800D02*
X0105830Y0339650D01*
X0105830Y0336804D01*
X0105830Y0339650D02*
X0093330Y0339650D01*
X0093330Y0336804D01*
X0093330Y0339650D02*
X0081580Y0339650D01*
X0080830Y0338900D01*
X0080830Y0336804D01*
X0077680Y0336804D02*
X0077680Y0336004D01*
X0077480Y0335804D01*
X0071730Y0335804D01*
X0071480Y0336054D01*
X0071480Y0336804D01*
X0071780Y0332046D02*
X0071480Y0331746D01*
X0071480Y0330996D01*
X0071780Y0332046D02*
X0077530Y0332046D01*
X0077680Y0331896D01*
X0077680Y0330996D01*
X0080830Y0330996D02*
X0080830Y0329150D01*
X0080830Y0326275D02*
X0080830Y0324304D01*
X0077680Y0324304D02*
X0077680Y0323304D01*
X0077630Y0323254D01*
X0071630Y0323254D01*
X0071480Y0323404D01*
X0071480Y0324304D01*
X0083980Y0324304D02*
X0083980Y0323754D01*
X0084430Y0323304D01*
X0090180Y0323304D01*
X0090180Y0324304D01*
X0093330Y0324304D02*
X0093330Y0326275D01*
X0093330Y0329150D02*
X0093330Y0330996D01*
X0090180Y0330996D02*
X0090180Y0331596D01*
X0089780Y0331996D01*
X0084330Y0331996D01*
X0083980Y0331646D01*
X0083980Y0330996D01*
X0084230Y0335904D02*
X0083980Y0336154D01*
X0083980Y0336804D01*
X0084230Y0335904D02*
X0090030Y0335904D01*
X0090030Y0336654D01*
X0090180Y0336804D01*
X0093330Y0341025D02*
X0093330Y0343496D01*
X0090180Y0343496D02*
X0083980Y0343496D01*
X0096480Y0343496D02*
X0102680Y0343496D01*
X0105830Y0339800D02*
X0117430Y0339800D01*
X0118330Y0338900D01*
X0118330Y0336804D01*
X0115180Y0336804D02*
X0115180Y0336304D01*
X0114730Y0335854D01*
X0109030Y0335854D01*
X0108980Y0335904D01*
X0108980Y0336804D01*
X0102680Y0336804D02*
X0096480Y0336804D01*
X0096480Y0330996D02*
X0102680Y0330996D01*
X0105830Y0330996D02*
X0105830Y0329150D01*
X0105830Y0326275D02*
X0105830Y0324304D01*
X0102680Y0324304D02*
X0096480Y0324304D01*
X0096480Y0318496D02*
X0102680Y0318496D01*
X0105830Y0318496D02*
X0105830Y0316650D01*
X0105830Y0313775D02*
X0105830Y0311804D01*
X0102680Y0311804D02*
X0096480Y0311804D01*
X0093330Y0311804D02*
X0093330Y0313775D01*
X0093330Y0316650D02*
X0093330Y0318496D01*
X0090180Y0318496D02*
X0083980Y0318496D01*
X0083980Y0311804D02*
X0090180Y0311804D01*
X0090180Y0305996D02*
X0083980Y0305996D01*
X0083980Y0299304D02*
X0090180Y0299304D01*
X0093330Y0299304D02*
X0093330Y0301275D01*
X0093330Y0304150D02*
X0093330Y0305996D01*
X0096480Y0305996D02*
X0102680Y0305996D01*
X0105830Y0305996D02*
X0105830Y0304150D01*
X0105830Y0301275D02*
X0105830Y0299304D01*
X0102680Y0299304D02*
X0096480Y0299304D01*
X0096480Y0293496D02*
X0102680Y0293496D01*
X0105830Y0293496D02*
X0105830Y0291650D01*
X0105830Y0288775D02*
X0105830Y0286804D01*
X0102680Y0286804D02*
X0096480Y0286804D01*
X0093330Y0286804D02*
X0093330Y0288775D01*
X0093330Y0291588D02*
X0093330Y0293496D01*
X0090180Y0293496D02*
X0083980Y0293496D01*
X0080830Y0293496D02*
X0080830Y0291650D01*
X0080830Y0288775D02*
X0080830Y0286804D01*
X0077680Y0286804D02*
X0071480Y0286804D01*
X0068330Y0286804D02*
X0068330Y0288775D01*
X0067955Y0289150D01*
X0056205Y0289150D01*
X0055830Y0288775D01*
X0055830Y0286804D01*
X0052680Y0286804D02*
X0052680Y0285175D01*
X0053330Y0284525D01*
X0147080Y0284525D01*
X0148330Y0283275D01*
X0148330Y0275150D01*
X0147484Y0274304D01*
X0146480Y0274304D01*
X0147080Y0272025D02*
X0053330Y0272025D01*
X0052680Y0272675D01*
X0052680Y0274304D01*
X0050893Y0271963D02*
X0050893Y0280213D01*
X0051676Y0280996D01*
X0052680Y0280996D01*
X0052080Y0283275D02*
X0050893Y0284463D01*
X0050893Y0292713D01*
X0051676Y0293496D01*
X0052680Y0293496D01*
X0052080Y0295775D02*
X0050893Y0296963D01*
X0052080Y0295775D02*
X0145830Y0295775D01*
X0146480Y0295125D01*
X0146480Y0293496D01*
X0148330Y0295775D02*
X0147080Y0297025D01*
X0148330Y0295775D02*
X0148330Y0287650D01*
X0147484Y0286804D01*
X0146480Y0286804D01*
X0143330Y0286804D02*
X0143330Y0288900D01*
X0142830Y0289400D01*
X0131455Y0289400D01*
X0130830Y0288775D01*
X0130830Y0286804D01*
X0127680Y0286804D02*
X0121480Y0286804D01*
X0118330Y0286804D02*
X0118330Y0288775D01*
X0118330Y0291650D02*
X0118330Y0293496D01*
X0115180Y0293496D02*
X0108980Y0293496D01*
X0108980Y0299304D02*
X0115180Y0299304D01*
X0118330Y0299304D02*
X0118330Y0301275D01*
X0118330Y0304150D02*
X0118330Y0305996D01*
X0115180Y0305996D02*
X0108980Y0305996D01*
X0108980Y0311804D02*
X0115180Y0311804D01*
X0118330Y0311804D02*
X0118330Y0313775D01*
X0118330Y0316650D02*
X0118330Y0318496D01*
X0115180Y0318496D02*
X0108980Y0318496D01*
X0108980Y0324304D02*
X0115180Y0324304D01*
X0118330Y0324304D02*
X0118330Y0326275D01*
X0118330Y0329150D02*
X0118330Y0330996D01*
X0115180Y0330996D02*
X0108980Y0330996D01*
X0121480Y0330996D02*
X0127680Y0330996D01*
X0130830Y0330996D02*
X0130830Y0329275D01*
X0130830Y0326400D02*
X0130830Y0324304D01*
X0127680Y0324304D02*
X0121480Y0324304D01*
X0121480Y0318496D02*
X0127680Y0318496D01*
X0130830Y0318496D02*
X0130830Y0316650D01*
X0131805Y0314750D02*
X0142355Y0314750D01*
X0143330Y0313775D01*
X0143330Y0311804D01*
X0140180Y0311804D02*
X0140180Y0310754D01*
X0134480Y0310754D01*
X0133980Y0311254D01*
X0133980Y0311804D01*
X0130830Y0311804D02*
X0130830Y0313775D01*
X0131805Y0314750D01*
X0133980Y0318496D02*
X0133980Y0318996D01*
X0134480Y0319496D01*
X0139880Y0319496D01*
X0140180Y0319196D01*
X0140180Y0318496D01*
X0143330Y0318496D02*
X0143330Y0316400D01*
X0146480Y0318496D02*
X0146480Y0320125D01*
X0145830Y0320775D01*
X0143330Y0324304D02*
X0143330Y0325900D01*
X0141580Y0327650D01*
X0143330Y0329400D02*
X0145080Y0327650D01*
X0143330Y0329400D02*
X0143330Y0330996D01*
X0140180Y0330996D02*
X0140180Y0331796D01*
X0140030Y0331946D01*
X0134230Y0331946D01*
X0133980Y0331696D01*
X0133980Y0330996D01*
X0133980Y0324304D02*
X0133980Y0323254D01*
X0139930Y0323254D01*
X0140180Y0323504D01*
X0140180Y0324304D01*
X0146480Y0330996D02*
X0146480Y0332625D01*
X0145830Y0333275D01*
X0143330Y0336804D02*
X0143330Y0338900D01*
X0142705Y0339525D01*
X0137705Y0339525D01*
X0137080Y0338900D01*
X0133980Y0336804D02*
X0140180Y0336804D01*
X0143330Y0341550D02*
X0143330Y0343496D01*
X0140180Y0343496D02*
X0133980Y0343496D01*
X0130830Y0343496D02*
X0130830Y0341650D01*
X0130830Y0338650D02*
X0130830Y0336804D01*
X0127680Y0336804D02*
X0127680Y0335754D01*
X0121630Y0335754D01*
X0121480Y0335904D01*
X0121480Y0336804D01*
X0121480Y0343496D02*
X0121480Y0344096D01*
X0121880Y0344496D01*
X0127480Y0344496D01*
X0127680Y0344296D01*
X0127680Y0343496D01*
X0127680Y0311804D02*
X0121480Y0311804D01*
X0121480Y0305996D02*
X0127680Y0305996D01*
X0130830Y0305996D02*
X0130830Y0304150D01*
X0131455Y0303525D01*
X0142705Y0303525D01*
X0143330Y0304150D01*
X0143330Y0305996D01*
X0140180Y0305996D02*
X0133980Y0305996D01*
X0131455Y0301900D02*
X0142705Y0301900D01*
X0143330Y0301275D01*
X0143330Y0299304D01*
X0140180Y0299304D02*
X0133980Y0299304D01*
X0130830Y0299304D02*
X0130830Y0301275D01*
X0131455Y0301900D01*
X0127680Y0299304D02*
X0121480Y0299304D01*
X0121480Y0293496D02*
X0127680Y0293496D01*
X0130830Y0293496D02*
X0130830Y0291650D01*
X0131330Y0291150D01*
X0142705Y0291150D01*
X0143330Y0291775D01*
X0143330Y0293496D01*
X0140180Y0293496D02*
X0133980Y0293496D01*
X0133980Y0286804D02*
X0140180Y0286804D01*
X0145830Y0283275D02*
X0052080Y0283275D01*
X0055830Y0280996D02*
X0055830Y0279025D01*
X0057080Y0277775D01*
X0066955Y0277775D01*
X0068330Y0279150D01*
X0068330Y0280996D01*
X0065180Y0280996D02*
X0065180Y0281796D01*
X0064980Y0281996D01*
X0059180Y0281996D01*
X0058980Y0281796D01*
X0058980Y0280996D01*
X0055830Y0276275D02*
X0055830Y0274304D01*
X0058980Y0274304D02*
X0058980Y0273654D01*
X0059330Y0273304D01*
X0065030Y0273304D01*
X0065180Y0273454D01*
X0065180Y0274304D01*
X0068330Y0274304D02*
X0068330Y0276275D01*
X0071480Y0274304D02*
X0077680Y0274304D01*
X0080830Y0274304D02*
X0080830Y0276275D01*
X0080830Y0279150D02*
X0080830Y0280996D01*
X0077680Y0280996D02*
X0071480Y0280996D01*
X0065180Y0286804D02*
X0058980Y0286804D01*
X0056330Y0291150D02*
X0067830Y0291150D01*
X0068330Y0291650D01*
X0068330Y0293496D01*
X0065180Y0293496D02*
X0058980Y0293496D01*
X0055830Y0293496D02*
X0055830Y0291650D01*
X0056330Y0291150D01*
X0071480Y0293496D02*
X0077680Y0293496D01*
X0083980Y0286804D02*
X0090180Y0286804D01*
X0090180Y0280996D02*
X0083980Y0280996D01*
X0083980Y0274304D02*
X0090180Y0274304D01*
X0093330Y0274304D02*
X0093330Y0276275D01*
X0093330Y0279150D02*
X0093330Y0280996D01*
X0096480Y0280996D02*
X0102680Y0280996D01*
X0105830Y0280996D02*
X0105830Y0279150D01*
X0105830Y0276275D02*
X0105830Y0274304D01*
X0102680Y0274304D02*
X0096480Y0274304D01*
X0096480Y0268496D02*
X0102680Y0268496D01*
X0105830Y0268496D02*
X0105830Y0266650D01*
X0105830Y0263775D02*
X0105830Y0261804D01*
X0102680Y0261804D02*
X0096480Y0261804D01*
X0093330Y0261804D02*
X0093330Y0263775D01*
X0093330Y0266650D02*
X0093330Y0268496D01*
X0090180Y0268496D02*
X0083980Y0268496D01*
X0080830Y0268496D02*
X0080830Y0266650D01*
X0080830Y0263775D02*
X0080830Y0261804D01*
X0077680Y0261804D02*
X0077680Y0260804D01*
X0071680Y0260804D01*
X0071480Y0261004D01*
X0071480Y0261804D01*
X0068330Y0261804D02*
X0068330Y0263775D01*
X0067705Y0266025D02*
X0068330Y0266650D01*
X0068330Y0268496D01*
X0067705Y0266025D02*
X0056455Y0266025D01*
X0055830Y0266650D01*
X0055830Y0268496D01*
X0052680Y0268496D02*
X0051676Y0268496D01*
X0050830Y0267650D01*
X0050830Y0259525D01*
X0052080Y0258275D01*
X0145830Y0258275D01*
X0146480Y0257625D01*
X0146480Y0255996D01*
X0148330Y0258275D02*
X0147080Y0259525D01*
X0053330Y0259525D01*
X0052680Y0260175D01*
X0052680Y0261804D01*
X0055830Y0261804D02*
X0055830Y0263775D01*
X0058980Y0261804D02*
X0065180Y0261804D01*
X0065180Y0255996D02*
X0058980Y0255996D01*
X0055830Y0255996D02*
X0055830Y0254025D01*
X0056330Y0253525D01*
X0067705Y0253525D01*
X0068330Y0254150D01*
X0068330Y0255996D01*
X0071480Y0255996D02*
X0071480Y0257046D01*
X0077180Y0257046D01*
X0077680Y0256546D01*
X0077680Y0255996D01*
X0080830Y0255996D02*
X0080830Y0254150D01*
X0081330Y0253650D01*
X0093330Y0253650D01*
X0093330Y0255996D01*
X0093330Y0253650D02*
X0105830Y0253650D01*
X0105830Y0255996D01*
X0105830Y0253650D02*
X0117955Y0253650D01*
X0118330Y0254025D01*
X0118330Y0255996D01*
X0115180Y0255996D02*
X0114305Y0256871D01*
X0109855Y0256871D01*
X0108980Y0255996D01*
X0105830Y0251900D02*
X0105830Y0249304D01*
X0105830Y0251900D02*
X0117705Y0251900D01*
X0118330Y0251275D01*
X0118330Y0249304D01*
X0115180Y0249304D02*
X0114305Y0248429D01*
X0109855Y0248429D01*
X0108980Y0249304D01*
X0105830Y0251900D02*
X0093330Y0251900D01*
X0093330Y0249304D01*
X0093330Y0251900D02*
X0081455Y0251900D01*
X0080830Y0251275D01*
X0080830Y0249304D01*
X0077680Y0249304D02*
X0077680Y0248504D01*
X0077380Y0248204D01*
X0071930Y0248204D01*
X0071480Y0248654D01*
X0071480Y0249304D01*
X0068330Y0249304D02*
X0068330Y0251275D01*
X0065180Y0249304D02*
X0058980Y0249304D01*
X0055830Y0249304D02*
X0055830Y0251275D01*
X0052705Y0251212D02*
X0052680Y0251188D01*
X0052680Y0249304D01*
X0052705Y0254087D02*
X0052680Y0254112D01*
X0052680Y0255996D01*
X0059580Y0267446D02*
X0058980Y0268046D01*
X0058980Y0268496D01*
X0059580Y0267446D02*
X0064780Y0267446D01*
X0065180Y0267846D01*
X0065180Y0268496D01*
X0071480Y0268496D02*
X0071480Y0269346D01*
X0071630Y0269496D01*
X0077480Y0269496D01*
X0077680Y0269296D01*
X0077680Y0268496D01*
X0083980Y0261804D02*
X0090180Y0261804D01*
X0090180Y0255996D02*
X0083980Y0255996D01*
X0083980Y0249304D02*
X0090180Y0249304D01*
X0096480Y0249304D02*
X0102680Y0249304D01*
X0102680Y0255996D02*
X0096480Y0255996D01*
X0108980Y0261804D02*
X0115180Y0261804D01*
X0118330Y0261804D02*
X0118330Y0263775D01*
X0118330Y0266650D02*
X0118330Y0268496D01*
X0115180Y0268496D02*
X0108980Y0268496D01*
X0108980Y0274304D02*
X0115180Y0274304D01*
X0118330Y0274304D02*
X0118330Y0276275D01*
X0118330Y0279150D02*
X0118330Y0280996D01*
X0115180Y0280996D02*
X0108980Y0280996D01*
X0108980Y0286804D02*
X0115180Y0286804D01*
X0121480Y0280996D02*
X0127680Y0280996D01*
X0130830Y0280996D02*
X0130830Y0279025D01*
X0131205Y0278650D01*
X0137455Y0278650D01*
X0142705Y0278650D01*
X0143330Y0279275D01*
X0143330Y0280996D01*
X0140180Y0280996D02*
X0133980Y0280996D01*
X0130830Y0276150D02*
X0130830Y0274304D01*
X0127680Y0274304D02*
X0121480Y0274304D01*
X0121480Y0268496D02*
X0127680Y0268496D01*
X0130830Y0268496D02*
X0130830Y0266650D01*
X0130830Y0263775D02*
X0130830Y0261804D01*
X0127680Y0261804D02*
X0121480Y0261804D01*
X0121480Y0255996D02*
X0127680Y0255996D01*
X0130830Y0255996D02*
X0130830Y0254150D01*
X0131455Y0251900D02*
X0130830Y0251275D01*
X0130830Y0249304D01*
X0131455Y0251900D02*
X0142705Y0251900D01*
X0143330Y0251275D01*
X0143330Y0249304D01*
X0140180Y0249304D02*
X0133980Y0249304D01*
X0127680Y0249304D02*
X0121480Y0249304D01*
X0133980Y0255996D02*
X0140180Y0255996D01*
X0143330Y0255996D02*
X0143330Y0254025D01*
X0146480Y0249304D02*
X0147484Y0249304D01*
X0148330Y0250150D01*
X0148330Y0258275D01*
X0147484Y0261804D02*
X0146480Y0261804D01*
X0147484Y0261804D02*
X0148330Y0262650D01*
X0148330Y0270775D01*
X0147080Y0272025D01*
X0145830Y0270775D02*
X0052080Y0270775D01*
X0050893Y0271963D01*
X0133980Y0273804D02*
X0133980Y0274304D01*
X0133980Y0273804D02*
X0134480Y0273304D01*
X0139680Y0273304D01*
X0140180Y0273804D01*
X0140180Y0274304D01*
X0143330Y0274304D02*
X0143330Y0276275D01*
X0146480Y0280996D02*
X0146480Y0282625D01*
X0145830Y0283275D01*
X0145830Y0270775D02*
X0146480Y0270125D01*
X0146480Y0268496D01*
X0143330Y0268496D02*
X0143330Y0266650D01*
X0143330Y0263775D02*
X0143330Y0261804D01*
X0140180Y0261804D02*
X0133980Y0261804D01*
X0133980Y0268496D02*
X0140180Y0268496D01*
X0146480Y0305996D02*
X0146480Y0307625D01*
X0145830Y0308275D01*
D14*
X0136780Y0312700D03*
X0136680Y0317500D03*
X0130830Y0316650D03*
X0130830Y0313775D03*
X0128080Y0315300D03*
X0118330Y0316650D03*
X0118330Y0313775D03*
X0112393Y0316088D03*
X0105830Y0316650D03*
X0105830Y0313775D03*
X0105830Y0304150D03*
X0105830Y0301275D03*
X0105830Y0291650D03*
X0105830Y0288775D03*
X0105830Y0279150D03*
X0105830Y0276275D03*
X0105830Y0266650D03*
X0105830Y0263775D03*
X0093330Y0263775D03*
X0093330Y0266650D03*
X0093330Y0276275D03*
X0093330Y0279150D03*
X0093330Y0288775D03*
X0093330Y0291588D03*
X0080830Y0291650D03*
X0080830Y0288775D03*
X0073955Y0288900D03*
X0068330Y0288775D03*
X0068330Y0291650D03*
X0068330Y0301275D03*
X0068330Y0304150D03*
X0068330Y0313775D03*
X0068330Y0316650D03*
X0068330Y0326275D03*
X0068330Y0329150D03*
X0073330Y0327250D03*
X0075630Y0328450D03*
X0073880Y0330100D03*
X0078080Y0327950D03*
X0080830Y0329150D03*
X0080830Y0326275D03*
X0083930Y0327600D03*
X0086380Y0325250D03*
X0087680Y0327500D03*
X0087730Y0330050D03*
X0093330Y0329150D03*
X0093330Y0326275D03*
X0093330Y0316650D03*
X0093330Y0313775D03*
X0080830Y0313775D03*
X0080830Y0316650D03*
X0075180Y0325200D03*
X0075130Y0337750D03*
X0073580Y0340000D03*
X0073880Y0342550D03*
X0078330Y0340250D03*
X0080830Y0338900D03*
X0087230Y0337850D03*
X0068330Y0338650D03*
X0068330Y0341525D03*
X0055830Y0341525D03*
X0055830Y0338650D03*
X0055830Y0329150D03*
X0055830Y0326275D03*
X0055830Y0316525D03*
X0080830Y0304150D03*
X0080830Y0301275D03*
X0093330Y0301275D03*
X0093330Y0304150D03*
X0118330Y0304150D03*
X0118330Y0301275D03*
X0118330Y0291650D03*
X0118330Y0288775D03*
X0118330Y0279150D03*
X0118330Y0276275D03*
X0125380Y0276250D03*
X0125380Y0279050D03*
X0127930Y0277700D03*
X0130830Y0279025D03*
X0130830Y0276150D03*
X0136030Y0276750D03*
X0137780Y0275250D03*
X0143330Y0276275D03*
X0145230Y0277700D03*
X0143330Y0266650D03*
X0143330Y0263775D03*
X0143330Y0254025D03*
X0130830Y0254150D03*
X0130830Y0251275D03*
X0118330Y0254025D03*
X0118330Y0263775D03*
X0118330Y0266650D03*
X0130830Y0266650D03*
X0130830Y0263775D03*
X0130830Y0288775D03*
X0130830Y0291650D03*
X0130830Y0301275D03*
X0130830Y0304150D03*
X0143330Y0316400D03*
X0137630Y0325250D03*
X0136180Y0327450D03*
X0137730Y0329650D03*
X0141580Y0327650D03*
X0145080Y0327650D03*
X0146455Y0338713D03*
X0146455Y0341525D03*
X0143330Y0341550D03*
X0137080Y0338900D03*
X0130830Y0338650D03*
X0130830Y0341650D03*
X0127730Y0340050D03*
X0125380Y0341450D03*
X0123580Y0339650D03*
X0125230Y0337700D03*
X0120980Y0340150D03*
X0118330Y0341525D03*
X0111930Y0337800D03*
X0105830Y0329150D03*
X0105830Y0326275D03*
X0118330Y0326275D03*
X0118330Y0329150D03*
X0121780Y0327700D03*
X0123980Y0329050D03*
X0130830Y0329275D03*
X0130830Y0326400D03*
X0133480Y0327900D03*
X0080830Y0279150D03*
X0080830Y0276275D03*
X0073630Y0276750D03*
X0071030Y0277650D03*
X0068330Y0276275D03*
X0068330Y0279150D03*
X0062080Y0279900D03*
X0062030Y0275450D03*
X0055830Y0276275D03*
X0053480Y0277650D03*
X0055830Y0266650D03*
X0055830Y0263775D03*
X0052705Y0254087D03*
X0052705Y0251212D03*
X0055830Y0251275D03*
X0068330Y0251275D03*
X0068330Y0254150D03*
X0073930Y0254300D03*
X0075680Y0252700D03*
X0073430Y0251800D03*
X0075180Y0250150D03*
X0078880Y0252550D03*
X0080830Y0251275D03*
X0073880Y0262750D03*
X0075780Y0264650D03*
X0075230Y0266950D03*
X0073280Y0265400D03*
X0078180Y0265200D03*
X0080830Y0263775D03*
X0080830Y0266650D03*
X0068330Y0263775D03*
M02*
