G75*
%MOIN*%
%OFA0B0*%
%FSLAX25Y25*%
%IPPOS*%
%LPD*%
%AMOC8*
5,1,8,0,0,1.08239X$1,22.5*
%
%ADD10C,0.00800*%
%ADD11C,0.07874*%
%ADD12R,0.07900X0.04000*%
%ADD13C,0.25000*%
%ADD14R,0.06299X0.07087*%
%ADD15R,0.04000X0.07900*%
%ADD16C,0.02500*%
%ADD17C,0.02378*%
%ADD18C,0.00600*%
D10*
X0049580Y0248863D02*
X0049580Y0248937D01*
X0049694Y0248984D01*
X0050496Y0249786D01*
X0050930Y0250833D01*
X0050930Y0251967D01*
X0050496Y0253014D01*
X0049694Y0253816D01*
X0049580Y0253863D01*
X0049580Y0253937D01*
X0049694Y0253984D01*
X0050496Y0254786D01*
X0050930Y0255833D01*
X0050930Y0256967D01*
X0050496Y0258014D01*
X0049694Y0258816D01*
X0049580Y0258863D01*
X0049580Y0258937D01*
X0049694Y0258984D01*
X0050496Y0259786D01*
X0050930Y0260833D01*
X0050930Y0261967D01*
X0050496Y0263014D01*
X0049694Y0263816D01*
X0049580Y0263863D01*
X0049580Y0263937D01*
X0049694Y0263984D01*
X0050496Y0264786D01*
X0050930Y0265833D01*
X0050930Y0266967D01*
X0050496Y0268014D01*
X0049694Y0268816D01*
X0049580Y0268863D01*
X0049580Y0268937D01*
X0049694Y0268984D01*
X0050496Y0269786D01*
X0050930Y0270833D01*
X0050930Y0271967D01*
X0050792Y0272300D01*
X0051180Y0272300D01*
X0051180Y0272883D01*
X0051531Y0272704D01*
X0051980Y0272558D01*
X0051980Y0272300D01*
X0053764Y0272300D01*
X0053980Y0272358D01*
X0053980Y0272313D01*
X0054000Y0272313D01*
X0054830Y0272444D01*
X0055629Y0272704D01*
X0056377Y0273085D01*
X0057057Y0273579D01*
X0057651Y0274173D01*
X0058145Y0274853D01*
X0058526Y0275601D01*
X0058786Y0276400D01*
X0058917Y0277230D01*
X0058917Y0277250D01*
X0053980Y0277250D01*
X0053980Y0278050D01*
X0058917Y0278050D01*
X0058917Y0278070D01*
X0058786Y0278900D01*
X0058526Y0279699D01*
X0058145Y0280447D01*
X0057651Y0281127D01*
X0057057Y0281721D01*
X0056377Y0282215D01*
X0055629Y0282596D01*
X0054830Y0282856D01*
X0054000Y0282987D01*
X0053980Y0282987D01*
X0053980Y0282942D01*
X0053764Y0283000D01*
X0051980Y0283000D01*
X0051980Y0282742D01*
X0051580Y0282612D01*
X0051580Y0284600D01*
X0054243Y0284600D01*
X0054256Y0284613D01*
X0054681Y0284613D01*
X0055918Y0285125D01*
X0073268Y0267775D01*
X0060043Y0254550D01*
X0058290Y0254550D01*
X0058619Y0255345D01*
X0058619Y0256455D01*
X0058194Y0257480D01*
X0057410Y0258264D01*
X0056385Y0258689D01*
X0055275Y0258689D01*
X0054250Y0258264D01*
X0053466Y0257480D01*
X0053041Y0256455D01*
X0053041Y0255345D01*
X0053466Y0254320D01*
X0053511Y0254275D01*
X0053466Y0254230D01*
X0053041Y0253205D01*
X0053041Y0252095D01*
X0053466Y0251070D01*
X0053511Y0251025D01*
X0053466Y0250980D01*
X0053041Y0249955D01*
X0053041Y0248845D01*
X0053225Y0248400D01*
X0050111Y0248400D01*
X0049694Y0248816D01*
X0049580Y0248863D01*
X0049715Y0248796D02*
X0053062Y0248796D01*
X0053041Y0249594D02*
X0050305Y0249594D01*
X0050748Y0250393D02*
X0053222Y0250393D01*
X0053416Y0251191D02*
X0050930Y0251191D01*
X0050921Y0251990D02*
X0053085Y0251990D01*
X0053041Y0252788D02*
X0050590Y0252788D01*
X0049924Y0253587D02*
X0053199Y0253587D01*
X0053439Y0254385D02*
X0050096Y0254385D01*
X0050661Y0255184D02*
X0053108Y0255184D01*
X0053041Y0255982D02*
X0050930Y0255982D01*
X0050930Y0256781D02*
X0053176Y0256781D01*
X0053565Y0257579D02*
X0050676Y0257579D01*
X0050133Y0258378D02*
X0054524Y0258378D01*
X0057136Y0258378D02*
X0063871Y0258378D01*
X0064669Y0259176D02*
X0049887Y0259176D01*
X0050574Y0259975D02*
X0065468Y0259975D01*
X0066266Y0260773D02*
X0050905Y0260773D01*
X0050930Y0261572D02*
X0067065Y0261572D01*
X0067863Y0262370D02*
X0050763Y0262370D01*
X0050342Y0263169D02*
X0068662Y0263169D01*
X0069460Y0263967D02*
X0049654Y0263967D01*
X0050476Y0264766D02*
X0070259Y0264766D01*
X0071057Y0265564D02*
X0050819Y0265564D01*
X0050930Y0266363D02*
X0071856Y0266363D01*
X0072654Y0267161D02*
X0050849Y0267161D01*
X0050519Y0267960D02*
X0073083Y0267960D01*
X0072285Y0268758D02*
X0049752Y0268758D01*
X0050267Y0269557D02*
X0071486Y0269557D01*
X0070688Y0270355D02*
X0050732Y0270355D01*
X0050930Y0271154D02*
X0069889Y0271154D01*
X0069091Y0271952D02*
X0050930Y0271952D01*
X0051180Y0272751D02*
X0051439Y0272751D01*
X0055721Y0272751D02*
X0068292Y0272751D01*
X0067494Y0273549D02*
X0057016Y0273549D01*
X0057778Y0274348D02*
X0066695Y0274348D01*
X0065897Y0275146D02*
X0058294Y0275146D01*
X0058638Y0275945D02*
X0065098Y0275945D01*
X0064300Y0276743D02*
X0058840Y0276743D01*
X0058874Y0278340D02*
X0062703Y0278340D01*
X0063501Y0277542D02*
X0053980Y0277542D01*
X0053180Y0277542D02*
X0051980Y0277542D01*
X0051980Y0277250D02*
X0051980Y0278050D01*
X0053180Y0278050D01*
X0053180Y0277250D01*
X0051980Y0277250D01*
X0057243Y0281534D02*
X0059509Y0281534D01*
X0060307Y0280736D02*
X0057935Y0280736D01*
X0058404Y0279937D02*
X0061106Y0279937D01*
X0061904Y0279139D02*
X0058708Y0279139D01*
X0058710Y0282333D02*
X0056145Y0282333D01*
X0057113Y0283930D02*
X0051580Y0283930D01*
X0051580Y0283132D02*
X0057911Y0283132D01*
X0056314Y0284729D02*
X0054960Y0284729D01*
X0058605Y0287812D02*
X0059117Y0289049D01*
X0059117Y0291251D01*
X0058286Y0293257D01*
X0078291Y0273252D01*
X0078291Y0272595D01*
X0078716Y0271570D01*
X0079500Y0270786D01*
X0080525Y0270361D01*
X0081182Y0270361D01*
X0096437Y0255106D01*
X0094431Y0255937D01*
X0092229Y0255937D01*
X0090992Y0255425D01*
X0077855Y0268562D01*
X0076742Y0269675D01*
X0058605Y0287812D01*
X0058651Y0287923D02*
X0063620Y0287923D01*
X0062822Y0288721D02*
X0058981Y0288721D01*
X0059117Y0289520D02*
X0062023Y0289520D01*
X0061225Y0290318D02*
X0059117Y0290318D01*
X0059117Y0291117D02*
X0060426Y0291117D01*
X0059628Y0291915D02*
X0058842Y0291915D01*
X0058829Y0292714D02*
X0058511Y0292714D01*
X0061009Y0295908D02*
X0089319Y0295908D01*
X0089319Y0296706D02*
X0060211Y0296706D01*
X0059412Y0297505D02*
X0089319Y0297505D01*
X0089319Y0298303D02*
X0058614Y0298303D01*
X0057839Y0299078D02*
X0058274Y0299514D01*
X0059117Y0301549D01*
X0059117Y0303751D01*
X0058274Y0305786D01*
X0056716Y0307344D01*
X0055055Y0308032D01*
X0055180Y0308333D01*
X0055180Y0309467D01*
X0055055Y0309768D01*
X0056716Y0310456D01*
X0058274Y0312014D01*
X0059117Y0314049D01*
X0059117Y0316251D01*
X0058274Y0318286D01*
X0056716Y0319844D01*
X0054681Y0320687D01*
X0054256Y0320687D01*
X0054243Y0320700D01*
X0050875Y0320700D01*
X0050930Y0320833D01*
X0050930Y0321967D01*
X0050496Y0323014D01*
X0049694Y0323816D01*
X0049580Y0323863D01*
X0049580Y0323937D01*
X0049694Y0323984D01*
X0050496Y0324786D01*
X0050930Y0325833D01*
X0050930Y0326967D01*
X0050496Y0328014D01*
X0049694Y0328816D01*
X0049580Y0328863D01*
X0049580Y0328937D01*
X0049694Y0328984D01*
X0050496Y0329786D01*
X0050930Y0330833D01*
X0050930Y0331967D01*
X0050496Y0333014D01*
X0049694Y0333816D01*
X0049580Y0333863D01*
X0049580Y0333937D01*
X0049694Y0333984D01*
X0050496Y0334786D01*
X0050930Y0335833D01*
X0050930Y0336967D01*
X0050496Y0338014D01*
X0049694Y0338816D01*
X0049580Y0338863D01*
X0049580Y0338937D01*
X0049694Y0338984D01*
X0050496Y0339786D01*
X0050930Y0340833D01*
X0050930Y0341967D01*
X0050496Y0343014D01*
X0049694Y0343816D01*
X0049580Y0343863D01*
X0049580Y0343937D01*
X0049694Y0343984D01*
X0050111Y0344400D01*
X0061595Y0344400D01*
X0060071Y0341351D01*
X0060595Y0339779D01*
X0062077Y0339038D01*
X0063631Y0339556D01*
X0065186Y0339038D01*
X0065371Y0339131D01*
X0065535Y0338968D01*
X0065784Y0338719D01*
X0066706Y0337796D01*
X0068107Y0337796D01*
X0068244Y0337796D01*
X0068363Y0337796D01*
X0068363Y0337796D01*
X0069764Y0337796D01*
X0069764Y0337796D01*
X0070537Y0338569D01*
X0071310Y0337796D01*
X0072711Y0337796D01*
X0072831Y0337796D01*
X0072967Y0337796D01*
X0072967Y0337796D01*
X0074368Y0337796D01*
X0074368Y0337796D01*
X0075291Y0338719D01*
X0075540Y0338968D01*
X0076235Y0339663D01*
X0076265Y0339603D01*
X0076759Y0338923D01*
X0077353Y0338329D01*
X0078033Y0337835D01*
X0078781Y0337454D01*
X0079580Y0337194D01*
X0080410Y0337063D01*
X0080430Y0337063D01*
X0080430Y0342000D01*
X0081230Y0342000D01*
X0081230Y0337063D01*
X0081250Y0337063D01*
X0082080Y0337194D01*
X0082879Y0337454D01*
X0083627Y0337835D01*
X0084307Y0338329D01*
X0084901Y0338923D01*
X0085395Y0339603D01*
X0085776Y0340351D01*
X0086036Y0341150D01*
X0086167Y0341980D01*
X0086167Y0342000D01*
X0086122Y0342000D01*
X0086180Y0342216D01*
X0086180Y0344000D01*
X0085922Y0344000D01*
X0085792Y0344400D01*
X0088030Y0344400D01*
X0088030Y0341737D01*
X0088043Y0341724D01*
X0088043Y0341299D01*
X0088886Y0339264D01*
X0090444Y0337706D01*
X0092479Y0336863D01*
X0094681Y0336863D01*
X0095918Y0337375D01*
X0097380Y0335913D01*
X0098493Y0334800D01*
X0099642Y0334800D01*
X0127866Y0306577D01*
X0127866Y0305920D01*
X0128290Y0304895D01*
X0129075Y0304110D01*
X0130100Y0303686D01*
X0130757Y0303686D01*
X0137680Y0296762D01*
X0137680Y0290613D01*
X0138930Y0289363D01*
X0140043Y0288250D01*
X0140374Y0288250D01*
X0140886Y0287014D01*
X0142444Y0285456D01*
X0144479Y0284613D01*
X0144904Y0284613D01*
X0144917Y0284600D01*
X0147580Y0284600D01*
X0147580Y0282612D01*
X0147180Y0282742D01*
X0147180Y0283000D01*
X0145396Y0283000D01*
X0145180Y0282942D01*
X0145180Y0282987D01*
X0145160Y0282987D01*
X0144330Y0282856D01*
X0143531Y0282596D01*
X0142783Y0282215D01*
X0142103Y0281721D01*
X0141509Y0281127D01*
X0141015Y0280447D01*
X0140634Y0279699D01*
X0140374Y0278900D01*
X0140243Y0278070D01*
X0140243Y0278050D01*
X0145180Y0278050D01*
X0145180Y0277250D01*
X0140243Y0277250D01*
X0140243Y0277230D01*
X0140374Y0276400D01*
X0140634Y0275601D01*
X0141015Y0274853D01*
X0141509Y0274173D01*
X0142103Y0273579D01*
X0142783Y0273085D01*
X0143531Y0272704D01*
X0144330Y0272444D01*
X0145160Y0272313D01*
X0145180Y0272313D01*
X0145180Y0272358D01*
X0145396Y0272300D01*
X0147180Y0272300D01*
X0147180Y0272558D01*
X0147629Y0272704D01*
X0147980Y0272883D01*
X0147980Y0272300D01*
X0148368Y0272300D01*
X0148230Y0271967D01*
X0148230Y0270833D01*
X0148664Y0269786D01*
X0149466Y0268984D01*
X0149580Y0268937D01*
X0149580Y0268863D01*
X0149466Y0268816D01*
X0148664Y0268014D01*
X0148230Y0266967D01*
X0148230Y0265833D01*
X0148664Y0264786D01*
X0149466Y0263984D01*
X0149580Y0263937D01*
X0149580Y0263863D01*
X0149466Y0263816D01*
X0148664Y0263014D01*
X0148230Y0261967D01*
X0148230Y0260833D01*
X0148664Y0259786D01*
X0149466Y0258984D01*
X0149580Y0258937D01*
X0149580Y0258863D01*
X0149466Y0258816D01*
X0148664Y0258014D01*
X0148230Y0256967D01*
X0148230Y0255833D01*
X0148664Y0254786D01*
X0149466Y0253984D01*
X0149580Y0253937D01*
X0149580Y0253863D01*
X0149466Y0253816D01*
X0148664Y0253014D01*
X0148230Y0251967D01*
X0148230Y0250833D01*
X0148664Y0249786D01*
X0149466Y0248984D01*
X0149580Y0248937D01*
X0149580Y0248863D01*
X0149466Y0248816D01*
X0149049Y0248400D01*
X0146038Y0248400D01*
X0146119Y0248595D01*
X0146119Y0249705D01*
X0145694Y0250730D01*
X0144910Y0251514D01*
X0143885Y0251939D01*
X0142775Y0251939D01*
X0141750Y0251514D01*
X0140966Y0250730D01*
X0140541Y0249705D01*
X0140541Y0248595D01*
X0140622Y0248400D01*
X0123830Y0248400D01*
X0123830Y0251063D01*
X0123817Y0251076D01*
X0123817Y0251501D01*
X0122974Y0253536D01*
X0121416Y0255094D01*
X0119381Y0255937D01*
X0117179Y0255937D01*
X0115144Y0255094D01*
X0113586Y0253536D01*
X0112743Y0251501D01*
X0112743Y0251076D01*
X0112730Y0251063D01*
X0112730Y0248400D01*
X0111380Y0248400D01*
X0111380Y0251063D01*
X0111367Y0251076D01*
X0111367Y0251501D01*
X0110524Y0253536D01*
X0108966Y0255094D01*
X0106931Y0255937D01*
X0104729Y0255937D01*
X0102694Y0255094D01*
X0102258Y0254659D01*
X0083869Y0273048D01*
X0083869Y0273705D01*
X0083444Y0274730D01*
X0082660Y0275514D01*
X0081635Y0275939D01*
X0080978Y0275939D01*
X0057839Y0299078D01*
X0057862Y0299102D02*
X0089319Y0299102D01*
X0089319Y0299900D02*
X0058434Y0299900D01*
X0058765Y0300699D02*
X0089411Y0300699D01*
X0089319Y0300606D02*
X0090256Y0301543D01*
X0097881Y0301543D01*
X0098818Y0300606D01*
X0098818Y0292194D01*
X0097881Y0291257D01*
X0090256Y0291257D01*
X0089319Y0292194D01*
X0089319Y0300606D01*
X0090210Y0301497D02*
X0059096Y0301497D01*
X0059117Y0302296D02*
X0132146Y0302296D01*
X0131348Y0303094D02*
X0059117Y0303094D01*
X0059058Y0303893D02*
X0129600Y0303893D01*
X0128494Y0304691D02*
X0058728Y0304691D01*
X0058397Y0305490D02*
X0128044Y0305490D01*
X0127866Y0306288D02*
X0057772Y0306288D01*
X0056974Y0307087D02*
X0127355Y0307087D01*
X0126557Y0307885D02*
X0055410Y0307885D01*
X0055180Y0308684D02*
X0125758Y0308684D01*
X0124960Y0309482D02*
X0055174Y0309482D01*
X0056294Y0310281D02*
X0124161Y0310281D01*
X0123363Y0311079D02*
X0057340Y0311079D01*
X0058138Y0311878D02*
X0122564Y0311878D01*
X0121766Y0312676D02*
X0058549Y0312676D01*
X0058879Y0313475D02*
X0120967Y0313475D01*
X0120169Y0314273D02*
X0059117Y0314273D01*
X0059117Y0315072D02*
X0119370Y0315072D01*
X0118572Y0315870D02*
X0059117Y0315870D01*
X0058944Y0316669D02*
X0117773Y0316669D01*
X0116975Y0317468D02*
X0058613Y0317468D01*
X0058283Y0318266D02*
X0116176Y0318266D01*
X0115378Y0319065D02*
X0057496Y0319065D01*
X0056671Y0319863D02*
X0114579Y0319863D01*
X0113781Y0320662D02*
X0054743Y0320662D01*
X0050930Y0321460D02*
X0112982Y0321460D01*
X0112184Y0322259D02*
X0050809Y0322259D01*
X0050453Y0323057D02*
X0111385Y0323057D01*
X0110587Y0323856D02*
X0049599Y0323856D01*
X0050365Y0324654D02*
X0109788Y0324654D01*
X0108990Y0325453D02*
X0050772Y0325453D01*
X0050930Y0326251D02*
X0108191Y0326251D01*
X0107392Y0327050D02*
X0050896Y0327050D01*
X0050565Y0327848D02*
X0106594Y0327848D01*
X0105795Y0328647D02*
X0049864Y0328647D01*
X0050156Y0329445D02*
X0104997Y0329445D01*
X0104198Y0330244D02*
X0050686Y0330244D01*
X0050930Y0331042D02*
X0103400Y0331042D01*
X0102601Y0331841D02*
X0050930Y0331841D01*
X0050652Y0332639D02*
X0101803Y0332639D01*
X0101004Y0333438D02*
X0050073Y0333438D01*
X0049947Y0334236D02*
X0100206Y0334236D01*
X0098258Y0335035D02*
X0050599Y0335035D01*
X0050930Y0335833D02*
X0097460Y0335833D01*
X0096661Y0336632D02*
X0050930Y0336632D01*
X0050738Y0337430D02*
X0078854Y0337430D01*
X0080430Y0337430D02*
X0081230Y0337430D01*
X0081230Y0338229D02*
X0080430Y0338229D01*
X0080430Y0339027D02*
X0081230Y0339027D01*
X0081230Y0339826D02*
X0080430Y0339826D01*
X0080430Y0340624D02*
X0081230Y0340624D01*
X0081230Y0341423D02*
X0080430Y0341423D01*
X0080830Y0342400D02*
X0080830Y0344400D01*
X0081230Y0344000D02*
X0081230Y0342800D01*
X0080430Y0342800D01*
X0080430Y0344000D01*
X0081230Y0344000D01*
X0081230Y0343818D02*
X0080430Y0343818D01*
X0080430Y0343020D02*
X0081230Y0343020D01*
X0086180Y0343020D02*
X0088030Y0343020D01*
X0088030Y0343818D02*
X0086180Y0343818D01*
X0086180Y0342221D02*
X0088030Y0342221D01*
X0088043Y0341423D02*
X0086079Y0341423D01*
X0085865Y0340624D02*
X0088322Y0340624D01*
X0088653Y0339826D02*
X0085508Y0339826D01*
X0084977Y0339027D02*
X0089122Y0339027D01*
X0089921Y0338229D02*
X0084169Y0338229D01*
X0082806Y0337430D02*
X0091109Y0337430D01*
X0093580Y0342400D02*
X0093580Y0344400D01*
X0099130Y0344400D02*
X0099130Y0341737D01*
X0099117Y0341724D01*
X0099117Y0341299D01*
X0098605Y0340062D01*
X0100067Y0338600D01*
X0101216Y0338600D01*
X0130553Y0309264D01*
X0131209Y0309264D01*
X0132234Y0308839D01*
X0133019Y0308054D01*
X0133444Y0307029D01*
X0133444Y0306373D01*
X0140367Y0299449D01*
X0141480Y0298336D01*
X0141480Y0293880D01*
X0142444Y0294844D01*
X0144479Y0295687D01*
X0144904Y0295687D01*
X0144917Y0295700D01*
X0147580Y0295700D01*
X0147580Y0297100D01*
X0144917Y0297100D01*
X0144904Y0297113D01*
X0144479Y0297113D01*
X0142444Y0297956D01*
X0140886Y0299514D01*
X0140043Y0301549D01*
X0140043Y0303751D01*
X0140555Y0304988D01*
X0138343Y0307200D01*
X0137230Y0308313D01*
X0137230Y0309712D01*
X0122618Y0324325D01*
X0122618Y0324325D01*
X0121505Y0325438D01*
X0121505Y0325438D01*
X0112142Y0334800D01*
X0110743Y0334800D01*
X0109630Y0335913D01*
X0109630Y0335913D01*
X0108168Y0337375D01*
X0106931Y0336863D01*
X0104729Y0336863D01*
X0102694Y0337706D01*
X0101136Y0339264D01*
X0100293Y0341299D01*
X0100293Y0341724D01*
X0100280Y0341737D01*
X0100280Y0344400D01*
X0099130Y0344400D01*
X0099130Y0343818D02*
X0100280Y0343818D01*
X0100280Y0343020D02*
X0099130Y0343020D01*
X0099130Y0342221D02*
X0100280Y0342221D01*
X0100293Y0341423D02*
X0099117Y0341423D01*
X0098838Y0340624D02*
X0100572Y0340624D01*
X0100903Y0339826D02*
X0098841Y0339826D01*
X0099640Y0339027D02*
X0101372Y0339027D01*
X0101587Y0338229D02*
X0102171Y0338229D01*
X0102386Y0337430D02*
X0103359Y0337430D01*
X0103184Y0336632D02*
X0108911Y0336632D01*
X0109710Y0335833D02*
X0103983Y0335833D01*
X0104781Y0335035D02*
X0110508Y0335035D01*
X0112706Y0334236D02*
X0105580Y0334236D01*
X0106378Y0333438D02*
X0113504Y0333438D01*
X0114303Y0332639D02*
X0107177Y0332639D01*
X0107975Y0331841D02*
X0115101Y0331841D01*
X0115900Y0331042D02*
X0108774Y0331042D01*
X0109572Y0330244D02*
X0116698Y0330244D01*
X0117497Y0329445D02*
X0110371Y0329445D01*
X0111169Y0328647D02*
X0118295Y0328647D01*
X0119094Y0327848D02*
X0111968Y0327848D01*
X0112766Y0327050D02*
X0119893Y0327050D01*
X0120691Y0326251D02*
X0113565Y0326251D01*
X0114364Y0325453D02*
X0121490Y0325453D01*
X0122288Y0324654D02*
X0115162Y0324654D01*
X0115961Y0323856D02*
X0123087Y0323856D01*
X0123885Y0323057D02*
X0116759Y0323057D01*
X0117558Y0322259D02*
X0124684Y0322259D01*
X0125482Y0321460D02*
X0118356Y0321460D01*
X0119155Y0320662D02*
X0126281Y0320662D01*
X0127079Y0319863D02*
X0119953Y0319863D01*
X0120752Y0319065D02*
X0127878Y0319065D01*
X0128676Y0318266D02*
X0121550Y0318266D01*
X0122349Y0317468D02*
X0129475Y0317468D01*
X0130273Y0316669D02*
X0123147Y0316669D01*
X0123946Y0315870D02*
X0131072Y0315870D01*
X0131870Y0315072D02*
X0124744Y0315072D01*
X0125543Y0314273D02*
X0132669Y0314273D01*
X0133467Y0313475D02*
X0126341Y0313475D01*
X0127140Y0312676D02*
X0134266Y0312676D01*
X0135064Y0311878D02*
X0127938Y0311878D01*
X0128737Y0311079D02*
X0135863Y0311079D01*
X0136661Y0310281D02*
X0129535Y0310281D01*
X0130334Y0309482D02*
X0137230Y0309482D01*
X0137230Y0308684D02*
X0132389Y0308684D01*
X0133089Y0307885D02*
X0137658Y0307885D01*
X0138456Y0307087D02*
X0133420Y0307087D01*
X0133528Y0306288D02*
X0139255Y0306288D01*
X0140053Y0305490D02*
X0134326Y0305490D01*
X0135125Y0304691D02*
X0140432Y0304691D01*
X0140102Y0303893D02*
X0135923Y0303893D01*
X0136722Y0303094D02*
X0140043Y0303094D01*
X0140043Y0302296D02*
X0137520Y0302296D01*
X0138319Y0301497D02*
X0140064Y0301497D01*
X0140395Y0300699D02*
X0139117Y0300699D01*
X0139916Y0299900D02*
X0140726Y0299900D01*
X0140714Y0299102D02*
X0141298Y0299102D01*
X0141480Y0298303D02*
X0142096Y0298303D01*
X0141480Y0297505D02*
X0143533Y0297505D01*
X0141480Y0296706D02*
X0147580Y0296706D01*
X0147580Y0295908D02*
X0141480Y0295908D01*
X0141480Y0295109D02*
X0143084Y0295109D01*
X0141910Y0294311D02*
X0141480Y0294311D01*
X0137680Y0294311D02*
X0109641Y0294311D01*
X0109641Y0295109D02*
X0137680Y0295109D01*
X0137680Y0295908D02*
X0109641Y0295908D01*
X0109641Y0296000D02*
X0105492Y0296000D01*
X0105492Y0296800D01*
X0109641Y0296800D01*
X0109641Y0300128D01*
X0109546Y0300484D01*
X0109362Y0300803D01*
X0109101Y0301064D01*
X0108782Y0301248D01*
X0108426Y0301343D01*
X0105492Y0301343D01*
X0105492Y0296800D01*
X0104692Y0296800D01*
X0104692Y0301343D01*
X0101758Y0301343D01*
X0101402Y0301248D01*
X0101083Y0301064D01*
X0100822Y0300803D01*
X0100638Y0300484D01*
X0100542Y0300128D01*
X0100542Y0296800D01*
X0104692Y0296800D01*
X0104692Y0296000D01*
X0105492Y0296000D01*
X0105492Y0291457D01*
X0108426Y0291457D01*
X0108782Y0291552D01*
X0109101Y0291736D01*
X0109362Y0291997D01*
X0109546Y0292316D01*
X0109641Y0292672D01*
X0109641Y0296000D01*
X0109641Y0297505D02*
X0136937Y0297505D01*
X0137680Y0296706D02*
X0105492Y0296706D01*
X0105492Y0295908D02*
X0104692Y0295908D01*
X0104692Y0296000D02*
X0104692Y0291457D01*
X0101758Y0291457D01*
X0101402Y0291552D01*
X0101083Y0291736D01*
X0100822Y0291997D01*
X0100638Y0292316D01*
X0100542Y0292672D01*
X0100542Y0296000D01*
X0104692Y0296000D01*
X0104692Y0296706D02*
X0098818Y0296706D01*
X0098818Y0295908D02*
X0100542Y0295908D01*
X0100542Y0295109D02*
X0098818Y0295109D01*
X0098818Y0294311D02*
X0100542Y0294311D01*
X0100542Y0293512D02*
X0098818Y0293512D01*
X0098818Y0292714D02*
X0100542Y0292714D01*
X0100904Y0291915D02*
X0098539Y0291915D01*
X0104692Y0291915D02*
X0105492Y0291915D01*
X0105492Y0292714D02*
X0104692Y0292714D01*
X0104692Y0293512D02*
X0105492Y0293512D01*
X0105492Y0294311D02*
X0104692Y0294311D01*
X0104692Y0295109D02*
X0105492Y0295109D01*
X0105492Y0297505D02*
X0104692Y0297505D01*
X0104692Y0298303D02*
X0105492Y0298303D01*
X0105492Y0299102D02*
X0104692Y0299102D01*
X0104692Y0299900D02*
X0105492Y0299900D01*
X0105492Y0300699D02*
X0104692Y0300699D01*
X0100762Y0300699D02*
X0098725Y0300699D01*
X0098818Y0299900D02*
X0100542Y0299900D01*
X0100542Y0299102D02*
X0098818Y0299102D01*
X0098818Y0298303D02*
X0100542Y0298303D01*
X0100542Y0297505D02*
X0098818Y0297505D01*
X0097927Y0301497D02*
X0132945Y0301497D01*
X0133743Y0300699D02*
X0109422Y0300699D01*
X0109641Y0299900D02*
X0134542Y0299900D01*
X0135340Y0299102D02*
X0109641Y0299102D01*
X0109641Y0298303D02*
X0136139Y0298303D01*
X0137680Y0293512D02*
X0109641Y0293512D01*
X0109641Y0292714D02*
X0137680Y0292714D01*
X0137680Y0291915D02*
X0109280Y0291915D01*
X0089597Y0291915D02*
X0065002Y0291915D01*
X0065800Y0291117D02*
X0137680Y0291117D01*
X0137975Y0290318D02*
X0066599Y0290318D01*
X0067397Y0289520D02*
X0138773Y0289520D01*
X0139572Y0288721D02*
X0068196Y0288721D01*
X0068994Y0287923D02*
X0140509Y0287923D01*
X0140840Y0287124D02*
X0069793Y0287124D01*
X0070591Y0286326D02*
X0141574Y0286326D01*
X0142372Y0285527D02*
X0071390Y0285527D01*
X0072188Y0284729D02*
X0144200Y0284729D01*
X0143015Y0282333D02*
X0074584Y0282333D01*
X0075382Y0281534D02*
X0141917Y0281534D01*
X0141225Y0280736D02*
X0076181Y0280736D01*
X0076980Y0279937D02*
X0140756Y0279937D01*
X0140452Y0279139D02*
X0077778Y0279139D01*
X0078577Y0278340D02*
X0140286Y0278340D01*
X0140320Y0276743D02*
X0080174Y0276743D01*
X0080972Y0275945D02*
X0140522Y0275945D01*
X0140866Y0275146D02*
X0083028Y0275146D01*
X0083603Y0274348D02*
X0141382Y0274348D01*
X0142144Y0273549D02*
X0083869Y0273549D01*
X0084166Y0272751D02*
X0143439Y0272751D01*
X0147721Y0272751D02*
X0147980Y0272751D01*
X0148230Y0271952D02*
X0084965Y0271952D01*
X0085763Y0271154D02*
X0148230Y0271154D01*
X0148428Y0270355D02*
X0086562Y0270355D01*
X0087360Y0269557D02*
X0148893Y0269557D01*
X0149408Y0268758D02*
X0088159Y0268758D01*
X0088957Y0267960D02*
X0148641Y0267960D01*
X0148311Y0267161D02*
X0089756Y0267161D01*
X0090554Y0266363D02*
X0148230Y0266363D01*
X0148341Y0265564D02*
X0091353Y0265564D01*
X0092151Y0264766D02*
X0148684Y0264766D01*
X0149506Y0263967D02*
X0092950Y0263967D01*
X0093748Y0263169D02*
X0148818Y0263169D01*
X0148397Y0262370D02*
X0094547Y0262370D01*
X0095345Y0261572D02*
X0148230Y0261572D01*
X0148255Y0260773D02*
X0096144Y0260773D01*
X0096942Y0259975D02*
X0148586Y0259975D01*
X0149273Y0259176D02*
X0097741Y0259176D01*
X0098539Y0258378D02*
X0149027Y0258378D01*
X0148484Y0257579D02*
X0099338Y0257579D01*
X0100136Y0256781D02*
X0148230Y0256781D01*
X0148230Y0255982D02*
X0100935Y0255982D01*
X0101733Y0255184D02*
X0102910Y0255184D01*
X0099553Y0251990D02*
X0098665Y0251990D01*
X0098867Y0251501D02*
X0098036Y0253507D01*
X0100293Y0251250D01*
X0100293Y0251076D01*
X0100280Y0251063D01*
X0100280Y0248400D01*
X0098880Y0248400D01*
X0098880Y0251063D01*
X0098867Y0251076D01*
X0098867Y0251501D01*
X0098867Y0251191D02*
X0100293Y0251191D01*
X0100280Y0250393D02*
X0098880Y0250393D01*
X0098880Y0249594D02*
X0100280Y0249594D01*
X0100280Y0248796D02*
X0098880Y0248796D01*
X0098755Y0252788D02*
X0098334Y0252788D01*
X0096359Y0255184D02*
X0096250Y0255184D01*
X0095561Y0255982D02*
X0090435Y0255982D01*
X0089636Y0256781D02*
X0094762Y0256781D01*
X0093964Y0257579D02*
X0088838Y0257579D01*
X0088039Y0258378D02*
X0093165Y0258378D01*
X0092367Y0259176D02*
X0087241Y0259176D01*
X0086442Y0259975D02*
X0091568Y0259975D01*
X0090770Y0260773D02*
X0085644Y0260773D01*
X0084845Y0261572D02*
X0089971Y0261572D01*
X0089173Y0262370D02*
X0084047Y0262370D01*
X0083248Y0263169D02*
X0088374Y0263169D01*
X0087576Y0263967D02*
X0082450Y0263967D01*
X0081651Y0264766D02*
X0086777Y0264766D01*
X0085979Y0265564D02*
X0080853Y0265564D01*
X0080054Y0266363D02*
X0085180Y0266363D01*
X0084382Y0267161D02*
X0079256Y0267161D01*
X0078457Y0267960D02*
X0083583Y0267960D01*
X0082785Y0268758D02*
X0077659Y0268758D01*
X0077855Y0268562D02*
X0077855Y0268562D01*
X0076860Y0269557D02*
X0081986Y0269557D01*
X0081188Y0270355D02*
X0076062Y0270355D01*
X0076742Y0269675D02*
X0076742Y0269675D01*
X0075263Y0271154D02*
X0079132Y0271154D01*
X0078557Y0271952D02*
X0074465Y0271952D01*
X0073666Y0272751D02*
X0078291Y0272751D01*
X0077994Y0273549D02*
X0072868Y0273549D01*
X0072069Y0274348D02*
X0077195Y0274348D01*
X0076397Y0275146D02*
X0071271Y0275146D01*
X0070472Y0275945D02*
X0075598Y0275945D01*
X0074800Y0276743D02*
X0069674Y0276743D01*
X0068875Y0277542D02*
X0074001Y0277542D01*
X0073203Y0278340D02*
X0068077Y0278340D01*
X0067278Y0279139D02*
X0072404Y0279139D01*
X0071606Y0279937D02*
X0066480Y0279937D01*
X0065681Y0280736D02*
X0070807Y0280736D01*
X0070009Y0281534D02*
X0064882Y0281534D01*
X0064084Y0282333D02*
X0069210Y0282333D01*
X0068411Y0283132D02*
X0063285Y0283132D01*
X0062487Y0283930D02*
X0067613Y0283930D01*
X0066814Y0284729D02*
X0061688Y0284729D01*
X0060890Y0285527D02*
X0066016Y0285527D01*
X0065217Y0286326D02*
X0060091Y0286326D01*
X0059293Y0287124D02*
X0064419Y0287124D01*
X0064203Y0292714D02*
X0089319Y0292714D01*
X0089319Y0293512D02*
X0063405Y0293512D01*
X0062606Y0294311D02*
X0089319Y0294311D01*
X0089319Y0295109D02*
X0061808Y0295109D01*
X0072987Y0283930D02*
X0147580Y0283930D01*
X0147580Y0283132D02*
X0073785Y0283132D01*
X0079375Y0277542D02*
X0145180Y0277542D01*
X0145980Y0277542D02*
X0147180Y0277542D01*
X0147180Y0277250D02*
X0145980Y0277250D01*
X0145980Y0278050D01*
X0147180Y0278050D01*
X0147180Y0277250D01*
X0148499Y0255184D02*
X0121200Y0255184D01*
X0122125Y0254385D02*
X0149064Y0254385D01*
X0149236Y0253587D02*
X0122924Y0253587D01*
X0123284Y0252788D02*
X0148570Y0252788D01*
X0148239Y0251990D02*
X0123615Y0251990D01*
X0123817Y0251191D02*
X0141427Y0251191D01*
X0140826Y0250393D02*
X0123830Y0250393D01*
X0123830Y0249594D02*
X0140541Y0249594D01*
X0140541Y0248796D02*
X0123830Y0248796D01*
X0115360Y0255184D02*
X0108750Y0255184D01*
X0109675Y0254385D02*
X0114435Y0254385D01*
X0113636Y0253587D02*
X0110474Y0253587D01*
X0110834Y0252788D02*
X0113276Y0252788D01*
X0112945Y0251990D02*
X0111165Y0251990D01*
X0111367Y0251191D02*
X0112743Y0251191D01*
X0112730Y0250393D02*
X0111380Y0250393D01*
X0111380Y0249594D02*
X0112730Y0249594D01*
X0112730Y0248796D02*
X0111380Y0248796D01*
X0088305Y0252738D02*
X0075955Y0265088D01*
X0061617Y0250750D01*
X0058290Y0250750D01*
X0058619Y0249955D01*
X0058619Y0248845D01*
X0058435Y0248400D01*
X0075818Y0248400D01*
X0075688Y0248800D01*
X0075430Y0248800D01*
X0075430Y0250584D01*
X0075488Y0250800D01*
X0075443Y0250800D01*
X0075443Y0250820D01*
X0075574Y0251650D01*
X0075834Y0252449D01*
X0076215Y0253197D01*
X0076709Y0253877D01*
X0077303Y0254471D01*
X0077983Y0254965D01*
X0078731Y0255346D01*
X0079530Y0255606D01*
X0080360Y0255737D01*
X0080380Y0255737D01*
X0080380Y0250800D01*
X0081180Y0250800D01*
X0081180Y0255737D01*
X0081200Y0255737D01*
X0082030Y0255606D01*
X0082829Y0255346D01*
X0083577Y0254965D01*
X0084257Y0254471D01*
X0084851Y0253877D01*
X0085345Y0253197D01*
X0085726Y0252449D01*
X0085986Y0251650D01*
X0086117Y0250820D01*
X0086117Y0250800D01*
X0086072Y0250800D01*
X0086130Y0250584D01*
X0086130Y0248800D01*
X0085872Y0248800D01*
X0085742Y0248400D01*
X0087780Y0248400D01*
X0087780Y0251063D01*
X0087793Y0251076D01*
X0087793Y0251501D01*
X0088305Y0252738D01*
X0088255Y0252788D02*
X0085553Y0252788D01*
X0085875Y0251990D02*
X0087995Y0251990D01*
X0087793Y0251191D02*
X0086058Y0251191D01*
X0086130Y0250393D02*
X0087780Y0250393D01*
X0087780Y0249594D02*
X0086130Y0249594D01*
X0085870Y0248796D02*
X0087780Y0248796D01*
X0087456Y0253587D02*
X0085062Y0253587D01*
X0084343Y0254385D02*
X0086658Y0254385D01*
X0085859Y0255184D02*
X0083147Y0255184D01*
X0084262Y0256781D02*
X0067648Y0256781D01*
X0068446Y0257579D02*
X0083464Y0257579D01*
X0082665Y0258378D02*
X0069245Y0258378D01*
X0070043Y0259176D02*
X0081867Y0259176D01*
X0081068Y0259975D02*
X0070842Y0259975D01*
X0071640Y0260773D02*
X0080270Y0260773D01*
X0079471Y0261572D02*
X0072439Y0261572D01*
X0073237Y0262370D02*
X0078673Y0262370D01*
X0077874Y0263169D02*
X0074036Y0263169D01*
X0074834Y0263967D02*
X0077076Y0263967D01*
X0076277Y0264766D02*
X0075633Y0264766D01*
X0078413Y0255184D02*
X0066051Y0255184D01*
X0066849Y0255982D02*
X0085061Y0255982D01*
X0081180Y0255184D02*
X0080380Y0255184D01*
X0080380Y0254385D02*
X0081180Y0254385D01*
X0081180Y0253587D02*
X0080380Y0253587D01*
X0080380Y0252788D02*
X0081180Y0252788D01*
X0081180Y0251990D02*
X0080380Y0251990D01*
X0080380Y0251191D02*
X0081180Y0251191D01*
X0081180Y0250000D02*
X0081180Y0248800D01*
X0080380Y0248800D01*
X0080380Y0250000D01*
X0081180Y0250000D01*
X0081180Y0249594D02*
X0080380Y0249594D01*
X0076007Y0252788D02*
X0063655Y0252788D01*
X0062857Y0251990D02*
X0075685Y0251990D01*
X0075502Y0251191D02*
X0062058Y0251191D01*
X0064454Y0253587D02*
X0076498Y0253587D01*
X0077217Y0254385D02*
X0065252Y0254385D01*
X0062274Y0256781D02*
X0058484Y0256781D01*
X0058619Y0255982D02*
X0061475Y0255982D01*
X0060677Y0255184D02*
X0058552Y0255184D01*
X0058095Y0257579D02*
X0063072Y0257579D01*
X0058438Y0250393D02*
X0075430Y0250393D01*
X0075430Y0249594D02*
X0058619Y0249594D01*
X0058598Y0248796D02*
X0075690Y0248796D01*
X0052330Y0308900D02*
X0052330Y0314400D01*
X0051580Y0315150D01*
X0050282Y0338229D02*
X0066274Y0338229D01*
X0066706Y0337796D02*
X0066706Y0337796D01*
X0066706Y0337796D01*
X0068107Y0337796D02*
X0068107Y0337796D01*
X0069764Y0337796D02*
X0069764Y0337796D01*
X0070197Y0338229D02*
X0070878Y0338229D01*
X0071310Y0337796D02*
X0071310Y0337796D01*
X0071310Y0337796D01*
X0072711Y0337796D02*
X0072711Y0337796D01*
X0074368Y0337796D02*
X0074368Y0337796D01*
X0074800Y0338229D02*
X0077491Y0338229D01*
X0076683Y0339027D02*
X0075599Y0339027D01*
X0075540Y0338968D02*
X0075540Y0338968D01*
X0074240Y0340497D02*
X0073540Y0339796D01*
X0072138Y0339796D01*
X0071438Y0340497D01*
X0069636Y0340497D02*
X0069636Y0343299D01*
X0068936Y0344000D01*
X0067535Y0344000D01*
X0066834Y0343299D01*
X0069636Y0340497D01*
X0068936Y0339796D01*
X0067535Y0339796D01*
X0066834Y0340497D01*
X0066834Y0343299D01*
X0065032Y0341198D02*
X0063631Y0344000D01*
X0062230Y0341198D01*
X0060313Y0340624D02*
X0050844Y0340624D01*
X0050930Y0341423D02*
X0060107Y0341423D01*
X0060506Y0342221D02*
X0050825Y0342221D01*
X0050491Y0343020D02*
X0060905Y0343020D01*
X0061304Y0343818D02*
X0049689Y0343818D01*
X0050513Y0339826D02*
X0060579Y0339826D01*
X0065475Y0339027D02*
X0049738Y0339027D01*
X0065535Y0338968D02*
X0065535Y0338968D01*
X0071438Y0344000D02*
X0074240Y0341198D01*
X0074240Y0340497D01*
X0074240Y0344000D02*
X0071438Y0344000D01*
X0105830Y0344400D02*
X0105830Y0342400D01*
X0118580Y0342400D02*
X0118580Y0335150D01*
X0118330Y0334900D01*
X0121180Y0335035D02*
X0129528Y0335035D01*
X0130326Y0335833D02*
X0121028Y0335833D01*
X0121180Y0335467D02*
X0120746Y0336514D01*
X0120580Y0336680D01*
X0120580Y0337235D01*
X0121716Y0337706D01*
X0123274Y0339264D01*
X0124117Y0341299D01*
X0124117Y0341724D01*
X0124130Y0341737D01*
X0124130Y0344400D01*
X0138893Y0344400D01*
X0123405Y0328912D01*
X0119865Y0332451D01*
X0119944Y0332484D01*
X0120746Y0333286D01*
X0121180Y0334333D01*
X0121180Y0335467D01*
X0121140Y0334236D02*
X0128729Y0334236D01*
X0127931Y0333438D02*
X0120809Y0333438D01*
X0120100Y0332639D02*
X0127132Y0332639D01*
X0126334Y0331841D02*
X0120475Y0331841D01*
X0121274Y0331042D02*
X0125535Y0331042D01*
X0124737Y0330244D02*
X0122072Y0330244D01*
X0122871Y0329445D02*
X0123938Y0329445D01*
X0126917Y0327050D02*
X0147764Y0327050D01*
X0147730Y0326967D02*
X0147730Y0325833D01*
X0148164Y0324786D01*
X0148966Y0323984D01*
X0149168Y0323900D01*
X0148966Y0323816D01*
X0148164Y0323014D01*
X0147730Y0321967D01*
X0147730Y0320833D01*
X0147785Y0320700D01*
X0144917Y0320700D01*
X0144904Y0320687D01*
X0144479Y0320687D01*
X0142444Y0319844D01*
X0140886Y0318286D01*
X0140043Y0316251D01*
X0140043Y0314049D01*
X0140886Y0312014D01*
X0142444Y0310456D01*
X0144105Y0309768D01*
X0143980Y0309467D01*
X0143980Y0308333D01*
X0144105Y0308032D01*
X0143242Y0307675D01*
X0141030Y0309887D01*
X0141030Y0311286D01*
X0139917Y0312399D01*
X0126092Y0326225D01*
X0140541Y0340674D01*
X0140541Y0339595D01*
X0140966Y0338570D01*
X0141750Y0337786D01*
X0142775Y0337361D01*
X0143885Y0337361D01*
X0144910Y0337786D01*
X0145694Y0338570D01*
X0146119Y0339595D01*
X0146119Y0340705D01*
X0145694Y0341730D01*
X0145649Y0341775D01*
X0145694Y0341820D01*
X0146119Y0342845D01*
X0146119Y0343955D01*
X0145935Y0344400D01*
X0148549Y0344400D01*
X0148966Y0343984D01*
X0149168Y0343900D01*
X0148966Y0343816D01*
X0148164Y0343014D01*
X0147730Y0341967D01*
X0147730Y0340833D01*
X0148164Y0339786D01*
X0148966Y0338984D01*
X0149168Y0338900D01*
X0148966Y0338816D01*
X0148164Y0338014D01*
X0147730Y0336967D01*
X0147730Y0335833D01*
X0148164Y0334786D01*
X0148966Y0333984D01*
X0149168Y0333900D01*
X0148966Y0333816D01*
X0148164Y0333014D01*
X0147730Y0331967D01*
X0147730Y0330833D01*
X0148164Y0329786D01*
X0148966Y0328984D01*
X0149168Y0328900D01*
X0148966Y0328816D01*
X0148164Y0328014D01*
X0147730Y0326967D01*
X0147730Y0326251D02*
X0126118Y0326251D01*
X0126863Y0325453D02*
X0147888Y0325453D01*
X0148295Y0324654D02*
X0127662Y0324654D01*
X0128461Y0323856D02*
X0149061Y0323856D01*
X0148207Y0323057D02*
X0129259Y0323057D01*
X0130058Y0322259D02*
X0147851Y0322259D01*
X0147730Y0321460D02*
X0130856Y0321460D01*
X0131655Y0320662D02*
X0144417Y0320662D01*
X0142489Y0319863D02*
X0132453Y0319863D01*
X0133252Y0319065D02*
X0141664Y0319065D01*
X0140877Y0318266D02*
X0134050Y0318266D01*
X0134849Y0317468D02*
X0140547Y0317468D01*
X0140216Y0316669D02*
X0135647Y0316669D01*
X0136446Y0315870D02*
X0140043Y0315870D01*
X0140043Y0315072D02*
X0137244Y0315072D01*
X0138043Y0314273D02*
X0140043Y0314273D01*
X0140281Y0313475D02*
X0138841Y0313475D01*
X0139640Y0312676D02*
X0140611Y0312676D01*
X0139917Y0312399D02*
X0139917Y0312399D01*
X0140438Y0311878D02*
X0141022Y0311878D01*
X0141030Y0311079D02*
X0141820Y0311079D01*
X0141030Y0310281D02*
X0142866Y0310281D01*
X0143986Y0309482D02*
X0141435Y0309482D01*
X0142233Y0308684D02*
X0143980Y0308684D01*
X0143750Y0307885D02*
X0143032Y0307885D01*
X0146830Y0308900D02*
X0146830Y0314400D01*
X0147580Y0315150D01*
X0148095Y0327848D02*
X0127715Y0327848D01*
X0128514Y0328647D02*
X0148796Y0328647D01*
X0148504Y0329445D02*
X0129312Y0329445D01*
X0130111Y0330244D02*
X0147974Y0330244D01*
X0147730Y0331042D02*
X0130909Y0331042D01*
X0131708Y0331841D02*
X0147730Y0331841D01*
X0148009Y0332639D02*
X0132506Y0332639D01*
X0133305Y0333438D02*
X0148587Y0333438D01*
X0148713Y0334236D02*
X0134103Y0334236D01*
X0134902Y0335035D02*
X0148061Y0335035D01*
X0147730Y0335833D02*
X0135700Y0335833D01*
X0136499Y0336632D02*
X0147730Y0336632D01*
X0147922Y0337430D02*
X0144052Y0337430D01*
X0142608Y0337430D02*
X0137297Y0337430D01*
X0138096Y0338229D02*
X0141307Y0338229D01*
X0140776Y0339027D02*
X0138894Y0339027D01*
X0139693Y0339826D02*
X0140541Y0339826D01*
X0140541Y0340624D02*
X0140491Y0340624D01*
X0137513Y0343020D02*
X0124130Y0343020D01*
X0124130Y0343818D02*
X0138311Y0343818D01*
X0136714Y0342221D02*
X0124130Y0342221D01*
X0124117Y0341423D02*
X0135916Y0341423D01*
X0135117Y0340624D02*
X0123838Y0340624D01*
X0123507Y0339826D02*
X0134319Y0339826D01*
X0133520Y0339027D02*
X0123038Y0339027D01*
X0122239Y0338229D02*
X0132722Y0338229D01*
X0131923Y0337430D02*
X0121051Y0337430D01*
X0120629Y0336632D02*
X0131125Y0336632D01*
X0118580Y0342400D02*
X0118580Y0344400D01*
X0145861Y0342221D02*
X0147835Y0342221D01*
X0147730Y0341423D02*
X0145822Y0341423D01*
X0146119Y0340624D02*
X0147816Y0340624D01*
X0148147Y0339826D02*
X0146119Y0339826D01*
X0145884Y0339027D02*
X0148922Y0339027D01*
X0148378Y0338229D02*
X0145353Y0338229D01*
X0146119Y0343020D02*
X0148169Y0343020D01*
X0148971Y0343818D02*
X0146119Y0343818D01*
X0145233Y0251191D02*
X0148230Y0251191D01*
X0148412Y0250393D02*
X0145834Y0250393D01*
X0146119Y0249594D02*
X0148855Y0249594D01*
X0149445Y0248796D02*
X0146119Y0248796D01*
D11*
X0118280Y0250400D03*
X0105830Y0250400D03*
X0093330Y0250400D03*
X0080780Y0250400D03*
X0053580Y0277650D03*
X0053580Y0290150D03*
X0053580Y0302650D03*
X0053580Y0315150D03*
X0080830Y0342400D03*
X0093580Y0342400D03*
X0105830Y0342400D03*
X0118580Y0342400D03*
X0145580Y0315150D03*
X0145580Y0302650D03*
X0145580Y0290150D03*
X0145580Y0277650D03*
D12*
X0118280Y0248400D03*
X0105830Y0248400D03*
X0093330Y0248400D03*
X0080780Y0248400D03*
X0080830Y0344400D03*
X0093580Y0344400D03*
X0105830Y0344400D03*
X0118580Y0344400D03*
D13*
X0164580Y0331400D03*
X0164580Y0261400D03*
X0034580Y0261400D03*
X0034580Y0331400D03*
D14*
X0094068Y0296400D03*
X0105092Y0296400D03*
D15*
X0147580Y0290150D03*
X0147580Y0302650D03*
X0147580Y0315150D03*
X0147580Y0277650D03*
X0051580Y0277650D03*
X0051580Y0290150D03*
X0051580Y0302650D03*
X0051580Y0315150D03*
D16*
X0044580Y0249150D03*
X0061830Y0249400D03*
X0062080Y0259650D03*
X0062080Y0272150D03*
X0062080Y0284650D03*
X0074580Y0284650D03*
X0074580Y0272150D03*
X0074580Y0259650D03*
X0073830Y0249400D03*
X0086830Y0249400D03*
X0087080Y0259650D03*
X0087080Y0272150D03*
X0087080Y0284650D03*
X0099580Y0284650D03*
X0099580Y0272150D03*
X0099580Y0259650D03*
X0099330Y0249400D03*
X0111830Y0249400D03*
X0124330Y0249400D03*
X0124580Y0259650D03*
X0112080Y0259650D03*
X0112080Y0272150D03*
X0124580Y0272150D03*
X0124580Y0284650D03*
X0112080Y0284650D03*
X0112080Y0297150D03*
X0124580Y0297150D03*
X0124580Y0309650D03*
X0112080Y0309650D03*
X0099580Y0309650D03*
X0087080Y0309650D03*
X0074580Y0309650D03*
X0062080Y0309650D03*
X0052330Y0308900D03*
X0062080Y0297150D03*
X0074580Y0297150D03*
X0087080Y0297150D03*
X0099580Y0297150D03*
X0099580Y0322150D03*
X0087080Y0322150D03*
X0087330Y0334400D03*
X0099580Y0334650D03*
X0112080Y0334650D03*
X0118330Y0334900D03*
X0124580Y0334650D03*
X0124580Y0322150D03*
X0112080Y0322150D03*
X0137080Y0322150D03*
X0146580Y0321400D03*
X0146580Y0333900D03*
X0137080Y0334650D03*
X0154580Y0343650D03*
X0146830Y0308900D03*
X0137080Y0309650D03*
X0137080Y0297150D03*
X0146580Y0296400D03*
X0146330Y0283900D03*
X0137080Y0284650D03*
X0137080Y0272150D03*
X0146580Y0271400D03*
X0137080Y0259650D03*
X0146580Y0258900D03*
X0146676Y0249500D03*
X0136330Y0249150D03*
X0074580Y0322150D03*
X0062080Y0322150D03*
X0062080Y0334650D03*
X0074580Y0334650D03*
D17*
X0093830Y0296400D03*
X0081080Y0273150D03*
X0055830Y0255900D03*
X0055830Y0252650D03*
X0055830Y0249400D03*
X0118330Y0249150D03*
X0143330Y0249150D03*
X0130655Y0306475D03*
X0143330Y0340150D03*
X0143330Y0343400D03*
D18*
X0140580Y0343400D01*
X0123405Y0326225D01*
X0112929Y0336700D01*
X0111530Y0336700D01*
X0105830Y0342400D01*
X0100429Y0336700D02*
X0130655Y0306475D01*
X0139580Y0297549D01*
X0139580Y0291400D01*
X0140830Y0290150D01*
X0144580Y0290150D01*
X0145580Y0290150D01*
X0144580Y0290150D02*
X0147580Y0290150D01*
X0147580Y0302650D02*
X0145580Y0302650D01*
X0139130Y0309100D01*
X0139130Y0310499D01*
X0123405Y0326225D01*
X0145580Y0315150D02*
X0146080Y0315150D01*
X0147580Y0315150D01*
X0146830Y0314400D02*
X0146080Y0315150D01*
X0100429Y0336700D02*
X0099280Y0336700D01*
X0093580Y0342400D01*
X0053580Y0315150D02*
X0051580Y0315150D01*
X0051580Y0302650D02*
X0081080Y0273150D01*
X0103830Y0250400D01*
X0105830Y0250400D01*
X0105830Y0248400D01*
X0118280Y0248400D02*
X0118280Y0249100D01*
X0118280Y0250400D01*
X0118330Y0249150D02*
X0118280Y0249100D01*
X0093330Y0248400D02*
X0093330Y0250400D01*
X0075955Y0267775D01*
X0060830Y0252650D01*
X0055830Y0252650D01*
X0075955Y0267775D02*
X0053580Y0290150D01*
X0051580Y0290150D01*
X0051580Y0302650D02*
X0053580Y0302650D01*
X0053580Y0277650D02*
X0051580Y0277650D01*
X0080780Y0250400D02*
X0080780Y0248400D01*
X0093830Y0296400D02*
X0094068Y0296400D01*
M02*
