G75*
%MOIN*%
%OFA0B0*%
%FSLAX25Y25*%
%IPPOS*%
%LPD*%
%AMOC8*
5,1,8,0,0,1.08239X$1,22.5*
%
%ADD10C,0.03100*%
%ADD11C,0.08474*%
%ADD12R,0.08500X0.04600*%
%ADD13C,0.25600*%
%ADD14R,0.07687X0.06899*%
%ADD15R,0.04600X0.08500*%
D10*
X0048080Y0246400D03*
X0044580Y0249150D03*
X0048080Y0251400D03*
X0048080Y0256400D03*
X0048080Y0261400D03*
X0048080Y0266400D03*
X0048080Y0271400D03*
X0048080Y0276400D03*
X0048080Y0316400D03*
X0048080Y0321400D03*
X0048080Y0326400D03*
X0048080Y0331400D03*
X0048080Y0336400D03*
X0048080Y0341400D03*
X0048080Y0346400D03*
X0150580Y0346400D03*
X0154580Y0343650D03*
X0150580Y0341400D03*
X0150580Y0336400D03*
X0150580Y0331400D03*
X0150580Y0326400D03*
X0150580Y0321400D03*
X0150580Y0316400D03*
X0151080Y0276400D03*
X0151080Y0271400D03*
X0151080Y0266400D03*
X0151080Y0261400D03*
X0151080Y0256400D03*
X0151080Y0251400D03*
X0151080Y0246400D03*
D11*
X0118280Y0250400D03*
X0105830Y0250400D03*
X0093330Y0250400D03*
X0080780Y0250400D03*
X0053580Y0277650D03*
X0053580Y0290150D03*
X0053580Y0302650D03*
X0053580Y0315150D03*
X0080830Y0342400D03*
X0093580Y0342400D03*
X0105830Y0342400D03*
X0118580Y0342400D03*
X0145580Y0315150D03*
X0145580Y0302650D03*
X0145580Y0290150D03*
X0145580Y0277650D03*
D12*
X0118280Y0248400D03*
X0105830Y0248400D03*
X0093330Y0248400D03*
X0080780Y0248400D03*
X0080830Y0344400D03*
X0093580Y0344400D03*
X0105830Y0344400D03*
X0118580Y0344400D03*
D13*
X0164580Y0331400D03*
X0164580Y0261400D03*
X0034580Y0261400D03*
X0034580Y0331400D03*
D14*
X0099580Y0301912D03*
X0099580Y0290888D03*
D15*
X0051580Y0290150D03*
X0051580Y0302650D03*
X0051580Y0315150D03*
X0051580Y0277650D03*
X0147580Y0277650D03*
X0147580Y0290150D03*
X0147580Y0302650D03*
X0147580Y0315150D03*
M02*
