G75*
%MOIN*%
%OFA0B0*%
%FSLAX25Y25*%
%IPPOS*%
%LPD*%
%AMOC8*
5,1,8,0,0,1.08239X$1,22.5*
%
%ADD10C,0.00787*%
%ADD11C,0.00500*%
D10*
X0049924Y0246941D02*
X0061736Y0246941D01*
X0061736Y0257874D01*
X0061736Y0258859D01*
X0049924Y0258859D01*
X0049924Y0246941D01*
X0062424Y0246941D02*
X0074236Y0246941D01*
X0074236Y0257874D01*
X0074236Y0258859D01*
X0062424Y0258859D01*
X0062424Y0246941D01*
X0074924Y0246941D02*
X0074924Y0258859D01*
X0086736Y0258859D01*
X0086736Y0257874D01*
X0086736Y0246941D01*
X0074924Y0246941D01*
X0087424Y0246941D02*
X0087424Y0258859D01*
X0099236Y0258859D01*
X0099236Y0257874D01*
X0099236Y0246941D01*
X0087424Y0246941D01*
X0099924Y0246941D02*
X0099924Y0258859D01*
X0111736Y0258859D01*
X0111736Y0257874D01*
X0111736Y0246941D01*
X0099924Y0246941D01*
X0112424Y0246941D02*
X0112424Y0258859D01*
X0124236Y0258859D01*
X0124236Y0257874D01*
X0124236Y0246941D01*
X0112424Y0246941D01*
X0124924Y0246941D02*
X0136736Y0246941D01*
X0136736Y0257874D01*
X0136736Y0258859D01*
X0124924Y0258859D01*
X0124924Y0246941D01*
X0137424Y0246941D02*
X0137424Y0258859D01*
X0149236Y0258859D01*
X0149236Y0257874D01*
X0149236Y0246941D01*
X0137424Y0246941D01*
X0137424Y0259441D02*
X0149236Y0259441D01*
X0149236Y0270374D01*
X0149236Y0271359D01*
X0137424Y0271359D01*
X0137424Y0259441D01*
X0136736Y0259441D02*
X0136736Y0270374D01*
X0136736Y0271359D01*
X0124924Y0271359D01*
X0124924Y0259441D01*
X0136736Y0259441D01*
X0136736Y0271941D02*
X0124924Y0271941D01*
X0124924Y0283859D01*
X0136736Y0283859D01*
X0136736Y0282874D01*
X0136736Y0271941D01*
X0137424Y0271941D02*
X0149236Y0271941D01*
X0149236Y0282874D01*
X0149236Y0283859D01*
X0137424Y0283859D01*
X0137424Y0271941D01*
X0137424Y0284441D02*
X0149236Y0284441D01*
X0149236Y0295374D01*
X0149236Y0296359D01*
X0137424Y0296359D01*
X0137424Y0284441D01*
X0136736Y0284441D02*
X0136736Y0295374D01*
X0136736Y0296359D01*
X0124924Y0296359D01*
X0124924Y0284441D01*
X0136736Y0284441D01*
X0136736Y0296941D02*
X0124924Y0296941D01*
X0124924Y0308859D01*
X0136736Y0308859D01*
X0136736Y0307874D01*
X0136736Y0296941D01*
X0137424Y0296941D02*
X0149236Y0296941D01*
X0149236Y0307874D01*
X0149236Y0308859D01*
X0137424Y0308859D01*
X0137424Y0296941D01*
X0124236Y0296941D02*
X0124236Y0307874D01*
X0124236Y0308859D01*
X0112424Y0308859D01*
X0112424Y0296941D01*
X0124236Y0296941D01*
X0124236Y0296359D02*
X0124236Y0295374D01*
X0124236Y0284441D01*
X0112424Y0284441D01*
X0112424Y0296359D01*
X0124236Y0296359D01*
X0111736Y0296359D02*
X0111736Y0295374D01*
X0111736Y0284441D01*
X0099924Y0284441D01*
X0099924Y0296359D01*
X0111736Y0296359D01*
X0111736Y0296941D02*
X0111736Y0307874D01*
X0111736Y0308859D01*
X0099924Y0308859D01*
X0099924Y0296941D01*
X0111736Y0296941D01*
X0099236Y0296941D02*
X0099236Y0307874D01*
X0099236Y0308859D01*
X0087424Y0308859D01*
X0087424Y0296941D01*
X0099236Y0296941D01*
X0099236Y0296359D02*
X0099236Y0295374D01*
X0099236Y0284441D01*
X0087424Y0284441D01*
X0087424Y0296359D01*
X0099236Y0296359D01*
X0099236Y0283859D02*
X0087424Y0283859D01*
X0087424Y0271941D01*
X0099236Y0271941D01*
X0099236Y0282874D01*
X0099236Y0283859D01*
X0099924Y0283859D02*
X0099924Y0271941D01*
X0111736Y0271941D01*
X0111736Y0282874D01*
X0111736Y0283859D01*
X0099924Y0283859D01*
X0099924Y0271359D02*
X0099924Y0259441D01*
X0111736Y0259441D01*
X0111736Y0270374D01*
X0111736Y0271359D01*
X0099924Y0271359D01*
X0099236Y0271359D02*
X0099236Y0270374D01*
X0099236Y0259441D01*
X0087424Y0259441D01*
X0087424Y0271359D01*
X0099236Y0271359D01*
X0086736Y0271359D02*
X0086736Y0270374D01*
X0086736Y0259441D01*
X0074924Y0259441D01*
X0074924Y0271359D01*
X0086736Y0271359D01*
X0086736Y0271941D02*
X0086736Y0282874D01*
X0086736Y0283859D01*
X0074924Y0283859D01*
X0074924Y0271941D01*
X0086736Y0271941D01*
X0086736Y0284441D02*
X0074924Y0284441D01*
X0074924Y0296359D01*
X0086736Y0296359D01*
X0086736Y0295374D01*
X0086736Y0284441D01*
X0086736Y0296941D02*
X0074924Y0296941D01*
X0074924Y0308859D01*
X0086736Y0308859D01*
X0086736Y0307874D01*
X0086736Y0296941D01*
X0074236Y0296941D02*
X0074236Y0307874D01*
X0074236Y0308859D01*
X0062424Y0308859D01*
X0062424Y0296941D01*
X0074236Y0296941D01*
X0074236Y0296359D02*
X0074236Y0295374D01*
X0074236Y0284441D01*
X0062424Y0284441D01*
X0062424Y0296359D01*
X0074236Y0296359D01*
X0074236Y0283859D02*
X0062424Y0283859D01*
X0062424Y0271941D01*
X0074236Y0271941D01*
X0074236Y0282874D01*
X0074236Y0283859D01*
X0074236Y0271359D02*
X0062424Y0271359D01*
X0062424Y0259441D01*
X0074236Y0259441D01*
X0074236Y0270374D01*
X0074236Y0271359D01*
X0061736Y0271359D02*
X0061736Y0270374D01*
X0061736Y0259441D01*
X0049924Y0259441D01*
X0049924Y0271359D01*
X0061736Y0271359D01*
X0061736Y0271941D02*
X0061736Y0282874D01*
X0061736Y0283859D01*
X0049924Y0283859D01*
X0049924Y0271941D01*
X0061736Y0271941D01*
X0061736Y0284441D02*
X0049924Y0284441D01*
X0049924Y0296359D01*
X0061736Y0296359D01*
X0061736Y0295374D01*
X0061736Y0284441D01*
X0061736Y0296941D02*
X0049924Y0296941D01*
X0049924Y0308859D01*
X0061736Y0308859D01*
X0061736Y0307874D01*
X0061736Y0296941D01*
X0061736Y0309441D02*
X0049924Y0309441D01*
X0049924Y0321359D01*
X0061736Y0321359D01*
X0061736Y0320374D01*
X0061736Y0309441D01*
X0062424Y0309441D02*
X0074236Y0309441D01*
X0074236Y0320374D01*
X0074236Y0321359D01*
X0062424Y0321359D01*
X0062424Y0309441D01*
X0062424Y0321941D02*
X0074236Y0321941D01*
X0074236Y0332874D01*
X0074236Y0333859D01*
X0062424Y0333859D01*
X0062424Y0321941D01*
X0061736Y0321941D02*
X0061736Y0332874D01*
X0061736Y0333859D01*
X0049924Y0333859D01*
X0049924Y0321941D01*
X0061736Y0321941D01*
X0061736Y0334441D02*
X0049924Y0334441D01*
X0049924Y0346359D01*
X0061736Y0346359D01*
X0061736Y0345374D01*
X0061736Y0334441D01*
X0062424Y0334441D02*
X0074236Y0334441D01*
X0074236Y0345374D01*
X0074236Y0346359D01*
X0062424Y0346359D01*
X0062424Y0334441D01*
X0074924Y0334441D02*
X0074924Y0346359D01*
X0086736Y0346359D01*
X0086736Y0345374D01*
X0086736Y0334441D01*
X0074924Y0334441D01*
X0074924Y0333859D02*
X0074924Y0321941D01*
X0086736Y0321941D01*
X0086736Y0332874D01*
X0086736Y0333859D01*
X0074924Y0333859D01*
X0074924Y0321359D02*
X0074924Y0309441D01*
X0086736Y0309441D01*
X0086736Y0320374D01*
X0086736Y0321359D01*
X0074924Y0321359D01*
X0087424Y0321359D02*
X0087424Y0309441D01*
X0099236Y0309441D01*
X0099236Y0320374D01*
X0099236Y0321359D01*
X0087424Y0321359D01*
X0087424Y0321941D02*
X0099236Y0321941D01*
X0099236Y0332874D01*
X0099236Y0333859D01*
X0087424Y0333859D01*
X0087424Y0321941D01*
X0087424Y0334441D02*
X0099236Y0334441D01*
X0099236Y0345374D01*
X0099236Y0346359D01*
X0087424Y0346359D01*
X0087424Y0334441D01*
X0099924Y0334441D02*
X0099924Y0346359D01*
X0111736Y0346359D01*
X0111736Y0345374D01*
X0111736Y0334441D01*
X0099924Y0334441D01*
X0099924Y0333859D02*
X0099924Y0321941D01*
X0111736Y0321941D01*
X0111736Y0332874D01*
X0111736Y0333859D01*
X0099924Y0333859D01*
X0099924Y0321359D02*
X0099924Y0309441D01*
X0111736Y0309441D01*
X0111736Y0320374D01*
X0111736Y0321359D01*
X0099924Y0321359D01*
X0112424Y0321359D02*
X0112424Y0309441D01*
X0124236Y0309441D01*
X0124236Y0320374D01*
X0124236Y0321359D01*
X0112424Y0321359D01*
X0112424Y0321941D02*
X0124236Y0321941D01*
X0124236Y0332874D01*
X0124236Y0333859D01*
X0112424Y0333859D01*
X0112424Y0321941D01*
X0124924Y0321941D02*
X0136736Y0321941D01*
X0136736Y0332874D01*
X0136736Y0333859D01*
X0124924Y0333859D01*
X0124924Y0321941D01*
X0124924Y0321359D02*
X0124924Y0309441D01*
X0136736Y0309441D01*
X0136736Y0320374D01*
X0136736Y0321359D01*
X0124924Y0321359D01*
X0137424Y0321359D02*
X0137424Y0309441D01*
X0149236Y0309441D01*
X0149236Y0320374D01*
X0149236Y0321359D01*
X0137424Y0321359D01*
X0137424Y0321941D02*
X0149236Y0321941D01*
X0149236Y0332874D01*
X0149236Y0333859D01*
X0137424Y0333859D01*
X0137424Y0321941D01*
X0137424Y0334441D02*
X0149236Y0334441D01*
X0149236Y0345374D01*
X0149236Y0346359D01*
X0137424Y0346359D01*
X0137424Y0334441D01*
X0136736Y0334441D02*
X0136736Y0345374D01*
X0136736Y0346359D01*
X0124924Y0346359D01*
X0124924Y0334441D01*
X0136736Y0334441D01*
X0124236Y0334441D02*
X0124236Y0345374D01*
X0124236Y0346359D01*
X0112424Y0346359D01*
X0112424Y0334441D01*
X0124236Y0334441D01*
X0124236Y0283859D02*
X0112424Y0283859D01*
X0112424Y0271941D01*
X0124236Y0271941D01*
X0124236Y0282874D01*
X0124236Y0283859D01*
X0124236Y0271359D02*
X0112424Y0271359D01*
X0112424Y0259441D01*
X0124236Y0259441D01*
X0124236Y0270374D01*
X0124236Y0271359D01*
D11*
X0124236Y0271162D02*
X0124236Y0270374D01*
X0120299Y0270374D01*
X0120299Y0270768D01*
X0120299Y0271162D01*
X0124236Y0271162D01*
X0123842Y0270768D02*
X0120299Y0270768D01*
X0111736Y0270374D02*
X0107799Y0270374D01*
X0107799Y0270768D01*
X0107799Y0271162D01*
X0111736Y0271162D01*
X0111736Y0270374D01*
X0111342Y0270768D02*
X0107799Y0270768D01*
X0099236Y0270374D02*
X0095299Y0270374D01*
X0095299Y0270768D01*
X0095299Y0271162D01*
X0099236Y0271162D01*
X0099236Y0270374D01*
X0098842Y0270768D02*
X0095299Y0270768D01*
X0086736Y0270374D02*
X0082799Y0270374D01*
X0082799Y0270768D01*
X0082799Y0271162D01*
X0086736Y0271162D01*
X0086736Y0270374D01*
X0086342Y0270768D02*
X0082799Y0270768D01*
X0074236Y0270374D02*
X0070299Y0270374D01*
X0070299Y0270768D01*
X0070299Y0271162D01*
X0074236Y0271162D01*
X0074236Y0270374D01*
X0073842Y0270768D02*
X0070299Y0270768D01*
X0061736Y0270374D02*
X0057799Y0270374D01*
X0057799Y0270768D01*
X0057799Y0271162D01*
X0061736Y0271162D01*
X0061736Y0270374D01*
X0061342Y0270768D02*
X0057799Y0270768D01*
X0057799Y0282874D02*
X0057799Y0283268D01*
X0057799Y0283662D01*
X0061736Y0283662D01*
X0061736Y0282874D01*
X0057799Y0282874D01*
X0057799Y0283268D02*
X0061342Y0283268D01*
X0070299Y0283268D02*
X0070299Y0282874D01*
X0074236Y0282874D01*
X0074236Y0283662D01*
X0070299Y0283662D01*
X0070299Y0283268D01*
X0073842Y0283268D01*
X0082799Y0283268D02*
X0082799Y0282874D01*
X0086736Y0282874D01*
X0086736Y0283662D01*
X0082799Y0283662D01*
X0082799Y0283268D01*
X0086342Y0283268D01*
X0095299Y0283268D02*
X0095299Y0282874D01*
X0099236Y0282874D01*
X0099236Y0283662D01*
X0095299Y0283662D01*
X0095299Y0283268D01*
X0098842Y0283268D01*
X0107799Y0283268D02*
X0107799Y0282874D01*
X0111736Y0282874D01*
X0111736Y0283662D01*
X0107799Y0283662D01*
X0107799Y0283268D01*
X0111342Y0283268D01*
X0120299Y0283268D02*
X0120299Y0282874D01*
X0124236Y0282874D01*
X0124236Y0283662D01*
X0120299Y0283662D01*
X0120299Y0283268D01*
X0123842Y0283268D01*
X0132799Y0283268D02*
X0132799Y0282874D01*
X0136736Y0282874D01*
X0136736Y0283662D01*
X0132799Y0283662D01*
X0132799Y0283268D01*
X0136342Y0283268D01*
X0145299Y0283268D02*
X0145299Y0282874D01*
X0149236Y0282874D01*
X0149236Y0283662D01*
X0145299Y0283662D01*
X0145299Y0283268D01*
X0148842Y0283268D01*
X0149236Y0271162D02*
X0145299Y0271162D01*
X0145299Y0270768D01*
X0145299Y0270374D01*
X0149236Y0270374D01*
X0149236Y0271162D01*
X0148842Y0270768D02*
X0145299Y0270768D01*
X0136736Y0270374D02*
X0132799Y0270374D01*
X0132799Y0270768D01*
X0132799Y0271162D01*
X0136736Y0271162D01*
X0136736Y0270374D01*
X0136342Y0270768D02*
X0132799Y0270768D01*
X0132799Y0258662D02*
X0136736Y0258662D01*
X0136736Y0257874D01*
X0132799Y0257874D01*
X0132799Y0258268D01*
X0132799Y0258662D01*
X0132799Y0258268D02*
X0136342Y0258268D01*
X0145299Y0258268D02*
X0145299Y0257874D01*
X0149236Y0257874D01*
X0149236Y0258662D01*
X0145299Y0258662D01*
X0145299Y0258268D01*
X0148842Y0258268D01*
X0124236Y0257874D02*
X0120299Y0257874D01*
X0120299Y0258268D01*
X0120299Y0258662D01*
X0124236Y0258662D01*
X0124236Y0257874D01*
X0123842Y0258268D02*
X0120299Y0258268D01*
X0111736Y0257874D02*
X0107799Y0257874D01*
X0107799Y0258268D01*
X0107799Y0258662D01*
X0111736Y0258662D01*
X0111736Y0257874D01*
X0111342Y0258268D02*
X0107799Y0258268D01*
X0099236Y0257874D02*
X0095299Y0257874D01*
X0095299Y0258268D01*
X0095299Y0258662D01*
X0099236Y0258662D01*
X0099236Y0257874D01*
X0098842Y0258268D02*
X0095299Y0258268D01*
X0086736Y0257874D02*
X0082799Y0257874D01*
X0082799Y0258268D01*
X0082799Y0258662D01*
X0086736Y0258662D01*
X0086736Y0257874D01*
X0086342Y0258268D02*
X0082799Y0258268D01*
X0074236Y0257874D02*
X0070299Y0257874D01*
X0070299Y0258268D01*
X0070299Y0258662D01*
X0074236Y0258662D01*
X0074236Y0257874D01*
X0073842Y0258268D02*
X0070299Y0258268D01*
X0061736Y0257874D02*
X0057799Y0257874D01*
X0057799Y0258268D01*
X0057799Y0258662D01*
X0061736Y0258662D01*
X0061736Y0257874D01*
X0061342Y0258268D02*
X0057799Y0258268D01*
X0057799Y0295374D02*
X0057799Y0295768D01*
X0057799Y0296162D01*
X0061736Y0296162D01*
X0061736Y0295374D01*
X0057799Y0295374D01*
X0057799Y0295768D02*
X0061342Y0295768D01*
X0070299Y0295768D02*
X0070299Y0295374D01*
X0074236Y0295374D01*
X0074236Y0296162D01*
X0070299Y0296162D01*
X0070299Y0295768D01*
X0073842Y0295768D01*
X0082799Y0295768D02*
X0082799Y0295374D01*
X0086736Y0295374D01*
X0086736Y0296162D01*
X0082799Y0296162D01*
X0082799Y0295768D01*
X0086342Y0295768D01*
X0095299Y0295768D02*
X0095299Y0295374D01*
X0099236Y0295374D01*
X0099236Y0296162D01*
X0095299Y0296162D01*
X0095299Y0295768D01*
X0098842Y0295768D01*
X0107799Y0295768D02*
X0107799Y0295374D01*
X0111736Y0295374D01*
X0111736Y0296162D01*
X0107799Y0296162D01*
X0107799Y0295768D01*
X0111342Y0295768D01*
X0120299Y0295768D02*
X0120299Y0295374D01*
X0124236Y0295374D01*
X0124236Y0296162D01*
X0120299Y0296162D01*
X0120299Y0295768D01*
X0123842Y0295768D01*
X0132799Y0295768D02*
X0132799Y0295374D01*
X0136736Y0295374D01*
X0136736Y0296162D01*
X0132799Y0296162D01*
X0132799Y0295768D01*
X0136342Y0295768D01*
X0145299Y0295768D02*
X0145299Y0295374D01*
X0149236Y0295374D01*
X0149236Y0296162D01*
X0145299Y0296162D01*
X0145299Y0295768D01*
X0148842Y0295768D01*
X0149236Y0307874D02*
X0145299Y0307874D01*
X0145299Y0308268D01*
X0145299Y0308662D01*
X0149236Y0308662D01*
X0149236Y0307874D01*
X0148842Y0308268D02*
X0145299Y0308268D01*
X0136736Y0307874D02*
X0132799Y0307874D01*
X0132799Y0308268D01*
X0132799Y0308662D01*
X0136736Y0308662D01*
X0136736Y0307874D01*
X0136342Y0308268D02*
X0132799Y0308268D01*
X0124236Y0307874D02*
X0120299Y0307874D01*
X0120299Y0308268D01*
X0120299Y0308662D01*
X0124236Y0308662D01*
X0124236Y0307874D01*
X0123842Y0308268D02*
X0120299Y0308268D01*
X0111736Y0308662D02*
X0111736Y0307874D01*
X0107799Y0307874D01*
X0107799Y0308268D01*
X0107799Y0308662D01*
X0111736Y0308662D01*
X0111342Y0308268D02*
X0107799Y0308268D01*
X0099236Y0307874D02*
X0095299Y0307874D01*
X0095299Y0308268D01*
X0095299Y0308662D01*
X0099236Y0308662D01*
X0099236Y0307874D01*
X0098842Y0308268D02*
X0095299Y0308268D01*
X0086736Y0307874D02*
X0082799Y0307874D01*
X0082799Y0308268D01*
X0082799Y0308662D01*
X0086736Y0308662D01*
X0086736Y0307874D01*
X0086342Y0308268D02*
X0082799Y0308268D01*
X0074236Y0307874D02*
X0070299Y0307874D01*
X0070299Y0308268D01*
X0070299Y0308662D01*
X0074236Y0308662D01*
X0074236Y0307874D01*
X0073842Y0308268D02*
X0070299Y0308268D01*
X0061736Y0307874D02*
X0057799Y0307874D01*
X0057799Y0308268D01*
X0057799Y0308662D01*
X0061736Y0308662D01*
X0061736Y0307874D01*
X0061342Y0308268D02*
X0057799Y0308268D01*
X0057799Y0320374D02*
X0057799Y0320768D01*
X0057799Y0321162D01*
X0061736Y0321162D01*
X0061736Y0320374D01*
X0057799Y0320374D01*
X0057799Y0320768D02*
X0061342Y0320768D01*
X0070299Y0320768D02*
X0070299Y0320374D01*
X0074236Y0320374D01*
X0074236Y0321162D01*
X0070299Y0321162D01*
X0070299Y0320768D01*
X0073842Y0320768D01*
X0082799Y0320768D02*
X0082799Y0320374D01*
X0086736Y0320374D01*
X0086736Y0321162D01*
X0082799Y0321162D01*
X0082799Y0320768D01*
X0086342Y0320768D01*
X0095299Y0320768D02*
X0095299Y0320374D01*
X0099236Y0320374D01*
X0099236Y0321162D01*
X0095299Y0321162D01*
X0095299Y0320768D01*
X0098842Y0320768D01*
X0107799Y0320768D02*
X0107799Y0320374D01*
X0111736Y0320374D01*
X0111736Y0321162D01*
X0107799Y0321162D01*
X0107799Y0320768D01*
X0111342Y0320768D01*
X0120299Y0320768D02*
X0120299Y0320374D01*
X0124236Y0320374D01*
X0124236Y0321162D01*
X0120299Y0321162D01*
X0120299Y0320768D01*
X0123842Y0320768D01*
X0132799Y0320768D02*
X0132799Y0320374D01*
X0136736Y0320374D01*
X0136736Y0321162D01*
X0132799Y0321162D01*
X0132799Y0320768D01*
X0136342Y0320768D01*
X0145299Y0320768D02*
X0145299Y0320374D01*
X0149236Y0320374D01*
X0149236Y0321162D01*
X0145299Y0321162D01*
X0145299Y0320768D01*
X0148842Y0320768D01*
X0149236Y0332874D02*
X0145299Y0332874D01*
X0145299Y0333268D01*
X0145299Y0333662D01*
X0149236Y0333662D01*
X0149236Y0332874D01*
X0148842Y0333268D02*
X0145299Y0333268D01*
X0136736Y0332874D02*
X0132799Y0332874D01*
X0132799Y0333268D01*
X0132799Y0333662D01*
X0136736Y0333662D01*
X0136736Y0332874D01*
X0136342Y0333268D02*
X0132799Y0333268D01*
X0124236Y0332874D02*
X0120299Y0332874D01*
X0120299Y0333268D01*
X0120299Y0333662D01*
X0124236Y0333662D01*
X0124236Y0332874D01*
X0123842Y0333268D02*
X0120299Y0333268D01*
X0111736Y0332874D02*
X0107799Y0332874D01*
X0107799Y0333268D01*
X0107799Y0333662D01*
X0111736Y0333662D01*
X0111736Y0332874D01*
X0111342Y0333268D02*
X0107799Y0333268D01*
X0099236Y0332874D02*
X0095299Y0332874D01*
X0095299Y0333268D01*
X0095299Y0333662D01*
X0099236Y0333662D01*
X0099236Y0332874D01*
X0098842Y0333268D02*
X0095299Y0333268D01*
X0086736Y0332874D02*
X0082799Y0332874D01*
X0082799Y0333268D01*
X0082799Y0333662D01*
X0086736Y0333662D01*
X0086736Y0332874D01*
X0086342Y0333268D02*
X0082799Y0333268D01*
X0074236Y0332874D02*
X0070299Y0332874D01*
X0070299Y0333268D01*
X0070299Y0333662D01*
X0074236Y0333662D01*
X0074236Y0332874D01*
X0073842Y0333268D02*
X0070299Y0333268D01*
X0061736Y0332874D02*
X0057799Y0332874D01*
X0057799Y0333268D01*
X0057799Y0333662D01*
X0061736Y0333662D01*
X0061736Y0332874D01*
X0061342Y0333268D02*
X0057799Y0333268D01*
X0057799Y0345374D02*
X0057799Y0345768D01*
X0057799Y0346162D01*
X0061736Y0346162D01*
X0061736Y0345374D01*
X0057799Y0345374D01*
X0057799Y0345768D02*
X0061342Y0345768D01*
X0070299Y0345768D02*
X0070299Y0345374D01*
X0074236Y0345374D01*
X0074236Y0346162D01*
X0070299Y0346162D01*
X0070299Y0345768D01*
X0073842Y0345768D01*
X0082799Y0345768D02*
X0082799Y0345374D01*
X0086736Y0345374D01*
X0086736Y0346162D01*
X0082799Y0346162D01*
X0082799Y0345768D01*
X0086342Y0345768D01*
X0095299Y0345768D02*
X0095299Y0345374D01*
X0099236Y0345374D01*
X0099236Y0346162D01*
X0095299Y0346162D01*
X0095299Y0345768D01*
X0098842Y0345768D01*
X0107799Y0345768D02*
X0107799Y0345374D01*
X0111736Y0345374D01*
X0111736Y0346162D01*
X0107799Y0346162D01*
X0107799Y0345768D01*
X0111342Y0345768D01*
X0120299Y0345768D02*
X0120299Y0345374D01*
X0124236Y0345374D01*
X0124236Y0346162D01*
X0120299Y0346162D01*
X0120299Y0345768D01*
X0123842Y0345768D01*
X0132799Y0345768D02*
X0132799Y0345374D01*
X0136736Y0345374D01*
X0136736Y0346162D01*
X0132799Y0346162D01*
X0132799Y0345768D01*
X0136342Y0345768D01*
X0145299Y0345768D02*
X0145299Y0345374D01*
X0149236Y0345374D01*
X0149236Y0346162D01*
X0145299Y0346162D01*
X0145299Y0345768D01*
X0148842Y0345768D01*
M02*
