G75*
%MOIN*%
%OFA0B0*%
%FSLAX25Y25*%
%IPPOS*%
%LPD*%
%AMOC8*
5,1,8,0,0,1.08239X$1,22.5*
%
%ADD10C,0.00787*%
%ADD11C,0.00500*%
D10*
X0049924Y0246941D02*
X0061736Y0246941D01*
X0061736Y0257374D01*
X0061736Y0258359D01*
X0049924Y0258359D01*
X0049924Y0246941D01*
X0062424Y0246941D02*
X0074236Y0246941D01*
X0074236Y0257374D01*
X0074236Y0258359D01*
X0062424Y0258359D01*
X0062424Y0246941D01*
X0074924Y0246941D02*
X0074924Y0258359D01*
X0086736Y0258359D01*
X0086736Y0257374D01*
X0086736Y0246941D01*
X0074924Y0246941D01*
X0087424Y0246941D02*
X0087424Y0258359D01*
X0099236Y0258359D01*
X0099236Y0257374D01*
X0099236Y0246941D01*
X0087424Y0246941D01*
X0099924Y0246941D02*
X0099924Y0258359D01*
X0111736Y0258359D01*
X0111736Y0257374D01*
X0111736Y0246941D01*
X0099924Y0246941D01*
X0112424Y0246941D02*
X0112424Y0258359D01*
X0124236Y0258359D01*
X0124236Y0257374D01*
X0124236Y0246941D01*
X0112424Y0246941D01*
X0124924Y0246941D02*
X0136736Y0246941D01*
X0136736Y0257374D01*
X0136736Y0258359D01*
X0124924Y0258359D01*
X0124924Y0246941D01*
X0137424Y0246941D02*
X0137424Y0258359D01*
X0149236Y0258359D01*
X0149236Y0257374D01*
X0149236Y0246941D01*
X0137424Y0246941D01*
X0137424Y0259441D02*
X0149236Y0259441D01*
X0149236Y0269874D01*
X0149236Y0270859D01*
X0137424Y0270859D01*
X0137424Y0259441D01*
X0136736Y0259441D02*
X0136736Y0269874D01*
X0136736Y0270859D01*
X0124924Y0270859D01*
X0124924Y0259441D01*
X0136736Y0259441D01*
X0136736Y0271941D02*
X0124924Y0271941D01*
X0124924Y0283359D01*
X0136736Y0283359D01*
X0136736Y0282374D01*
X0136736Y0271941D01*
X0137424Y0271941D02*
X0149236Y0271941D01*
X0149236Y0282374D01*
X0149236Y0283359D01*
X0137424Y0283359D01*
X0137424Y0271941D01*
X0137424Y0284441D02*
X0149236Y0284441D01*
X0149236Y0294874D01*
X0149236Y0295859D01*
X0137424Y0295859D01*
X0137424Y0284441D01*
X0136736Y0284441D02*
X0136736Y0294874D01*
X0136736Y0295859D01*
X0124924Y0295859D01*
X0124924Y0284441D01*
X0136736Y0284441D01*
X0136736Y0296941D02*
X0124924Y0296941D01*
X0124924Y0308359D01*
X0136736Y0308359D01*
X0136736Y0307374D01*
X0136736Y0296941D01*
X0137424Y0296941D02*
X0149236Y0296941D01*
X0149236Y0307374D01*
X0149236Y0308359D01*
X0137424Y0308359D01*
X0137424Y0296941D01*
X0124236Y0296941D02*
X0124236Y0307374D01*
X0124236Y0308359D01*
X0112424Y0308359D01*
X0112424Y0296941D01*
X0124236Y0296941D01*
X0124236Y0295859D02*
X0124236Y0294874D01*
X0124236Y0284441D01*
X0112424Y0284441D01*
X0112424Y0295859D01*
X0124236Y0295859D01*
X0111736Y0295859D02*
X0111736Y0294874D01*
X0111736Y0284441D01*
X0099924Y0284441D01*
X0099924Y0295859D01*
X0111736Y0295859D01*
X0111736Y0296941D02*
X0111736Y0307374D01*
X0111736Y0308359D01*
X0099924Y0308359D01*
X0099924Y0296941D01*
X0111736Y0296941D01*
X0099236Y0296941D02*
X0099236Y0307374D01*
X0099236Y0308359D01*
X0087424Y0308359D01*
X0087424Y0296941D01*
X0099236Y0296941D01*
X0099236Y0295859D02*
X0099236Y0294874D01*
X0099236Y0284441D01*
X0087424Y0284441D01*
X0087424Y0295859D01*
X0099236Y0295859D01*
X0099236Y0283359D02*
X0087424Y0283359D01*
X0087424Y0271941D01*
X0099236Y0271941D01*
X0099236Y0282374D01*
X0099236Y0283359D01*
X0099924Y0283359D02*
X0099924Y0271941D01*
X0111736Y0271941D01*
X0111736Y0282374D01*
X0111736Y0283359D01*
X0099924Y0283359D01*
X0099924Y0270859D02*
X0099924Y0259441D01*
X0111736Y0259441D01*
X0111736Y0269874D01*
X0111736Y0270859D01*
X0099924Y0270859D01*
X0099236Y0270859D02*
X0099236Y0269874D01*
X0099236Y0259441D01*
X0087424Y0259441D01*
X0087424Y0270859D01*
X0099236Y0270859D01*
X0086736Y0270859D02*
X0086736Y0269874D01*
X0086736Y0259441D01*
X0074924Y0259441D01*
X0074924Y0270859D01*
X0086736Y0270859D01*
X0086736Y0271941D02*
X0086736Y0282374D01*
X0086736Y0283359D01*
X0074924Y0283359D01*
X0074924Y0271941D01*
X0086736Y0271941D01*
X0086736Y0284441D02*
X0074924Y0284441D01*
X0074924Y0295859D01*
X0086736Y0295859D01*
X0086736Y0294874D01*
X0086736Y0284441D01*
X0086736Y0296941D02*
X0074924Y0296941D01*
X0074924Y0308359D01*
X0086736Y0308359D01*
X0086736Y0307374D01*
X0086736Y0296941D01*
X0074236Y0296941D02*
X0074236Y0307374D01*
X0074236Y0308359D01*
X0062424Y0308359D01*
X0062424Y0296941D01*
X0074236Y0296941D01*
X0074236Y0295859D02*
X0074236Y0294874D01*
X0074236Y0284441D01*
X0062424Y0284441D01*
X0062424Y0295859D01*
X0074236Y0295859D01*
X0074236Y0283359D02*
X0062424Y0283359D01*
X0062424Y0271941D01*
X0074236Y0271941D01*
X0074236Y0282374D01*
X0074236Y0283359D01*
X0074236Y0270859D02*
X0062424Y0270859D01*
X0062424Y0259441D01*
X0074236Y0259441D01*
X0074236Y0269874D01*
X0074236Y0270859D01*
X0061736Y0270859D02*
X0061736Y0269874D01*
X0061736Y0259441D01*
X0049924Y0259441D01*
X0049924Y0270859D01*
X0061736Y0270859D01*
X0061736Y0271941D02*
X0061736Y0282374D01*
X0061736Y0283359D01*
X0049924Y0283359D01*
X0049924Y0271941D01*
X0061736Y0271941D01*
X0061736Y0284441D02*
X0049924Y0284441D01*
X0049924Y0295859D01*
X0061736Y0295859D01*
X0061736Y0294874D01*
X0061736Y0284441D01*
X0061736Y0296941D02*
X0049924Y0296941D01*
X0049924Y0308359D01*
X0061736Y0308359D01*
X0061736Y0307374D01*
X0061736Y0296941D01*
X0061736Y0309441D02*
X0049924Y0309441D01*
X0049924Y0320859D01*
X0061736Y0320859D01*
X0061736Y0319874D01*
X0061736Y0309441D01*
X0062424Y0309441D02*
X0074236Y0309441D01*
X0074236Y0319874D01*
X0074236Y0320859D01*
X0062424Y0320859D01*
X0062424Y0309441D01*
X0062424Y0321941D02*
X0074236Y0321941D01*
X0074236Y0332374D01*
X0074236Y0333359D01*
X0062424Y0333359D01*
X0062424Y0321941D01*
X0061736Y0321941D02*
X0061736Y0332374D01*
X0061736Y0333359D01*
X0049924Y0333359D01*
X0049924Y0321941D01*
X0061736Y0321941D01*
X0061736Y0334441D02*
X0049924Y0334441D01*
X0049924Y0345859D01*
X0061736Y0345859D01*
X0061736Y0344874D01*
X0061736Y0334441D01*
X0062424Y0334441D02*
X0074236Y0334441D01*
X0074236Y0344874D01*
X0074236Y0345859D01*
X0062424Y0345859D01*
X0062424Y0334441D01*
X0074924Y0334441D02*
X0074924Y0345859D01*
X0086736Y0345859D01*
X0086736Y0344874D01*
X0086736Y0334441D01*
X0074924Y0334441D01*
X0074924Y0333359D02*
X0074924Y0321941D01*
X0086736Y0321941D01*
X0086736Y0332374D01*
X0086736Y0333359D01*
X0074924Y0333359D01*
X0074924Y0320859D02*
X0074924Y0309441D01*
X0086736Y0309441D01*
X0086736Y0319874D01*
X0086736Y0320859D01*
X0074924Y0320859D01*
X0087424Y0320859D02*
X0087424Y0309441D01*
X0099236Y0309441D01*
X0099236Y0319874D01*
X0099236Y0320859D01*
X0087424Y0320859D01*
X0087424Y0321941D02*
X0099236Y0321941D01*
X0099236Y0332374D01*
X0099236Y0333359D01*
X0087424Y0333359D01*
X0087424Y0321941D01*
X0087424Y0334441D02*
X0099236Y0334441D01*
X0099236Y0344874D01*
X0099236Y0345859D01*
X0087424Y0345859D01*
X0087424Y0334441D01*
X0099924Y0334441D02*
X0099924Y0345859D01*
X0111736Y0345859D01*
X0111736Y0344874D01*
X0111736Y0334441D01*
X0099924Y0334441D01*
X0099924Y0333359D02*
X0099924Y0321941D01*
X0111736Y0321941D01*
X0111736Y0332374D01*
X0111736Y0333359D01*
X0099924Y0333359D01*
X0099924Y0320859D02*
X0099924Y0309441D01*
X0111736Y0309441D01*
X0111736Y0319874D01*
X0111736Y0320859D01*
X0099924Y0320859D01*
X0112424Y0320859D02*
X0112424Y0309441D01*
X0124236Y0309441D01*
X0124236Y0319874D01*
X0124236Y0320859D01*
X0112424Y0320859D01*
X0112424Y0321941D02*
X0124236Y0321941D01*
X0124236Y0332374D01*
X0124236Y0333359D01*
X0112424Y0333359D01*
X0112424Y0321941D01*
X0124924Y0321941D02*
X0136736Y0321941D01*
X0136736Y0332374D01*
X0136736Y0333359D01*
X0124924Y0333359D01*
X0124924Y0321941D01*
X0124924Y0320859D02*
X0124924Y0309441D01*
X0136736Y0309441D01*
X0136736Y0319874D01*
X0136736Y0320859D01*
X0124924Y0320859D01*
X0137424Y0320859D02*
X0137424Y0309441D01*
X0149236Y0309441D01*
X0149236Y0319874D01*
X0149236Y0320859D01*
X0137424Y0320859D01*
X0137424Y0321941D02*
X0149236Y0321941D01*
X0149236Y0332374D01*
X0149236Y0333359D01*
X0137424Y0333359D01*
X0137424Y0321941D01*
X0137424Y0334441D02*
X0149236Y0334441D01*
X0149236Y0344874D01*
X0149236Y0345859D01*
X0137424Y0345859D01*
X0137424Y0334441D01*
X0136736Y0334441D02*
X0136736Y0344874D01*
X0136736Y0345859D01*
X0124924Y0345859D01*
X0124924Y0334441D01*
X0136736Y0334441D01*
X0124236Y0334441D02*
X0124236Y0344874D01*
X0124236Y0345859D01*
X0112424Y0345859D01*
X0112424Y0334441D01*
X0124236Y0334441D01*
X0124236Y0283359D02*
X0112424Y0283359D01*
X0112424Y0271941D01*
X0124236Y0271941D01*
X0124236Y0282374D01*
X0124236Y0283359D01*
X0124236Y0270859D02*
X0112424Y0270859D01*
X0112424Y0259441D01*
X0124236Y0259441D01*
X0124236Y0269874D01*
X0124236Y0270859D01*
D11*
X0124236Y0270662D02*
X0124236Y0269874D01*
X0120299Y0269874D01*
X0120299Y0270268D01*
X0120299Y0270662D01*
X0124236Y0270662D01*
X0123842Y0270268D02*
X0120299Y0270268D01*
X0111736Y0270662D02*
X0111736Y0269874D01*
X0107799Y0269874D01*
X0107799Y0270268D01*
X0107799Y0270662D01*
X0111736Y0270662D01*
X0111342Y0270268D02*
X0107799Y0270268D01*
X0099236Y0269874D02*
X0095299Y0269874D01*
X0095299Y0270268D01*
X0095299Y0270662D01*
X0099236Y0270662D01*
X0099236Y0269874D01*
X0098842Y0270268D02*
X0095299Y0270268D01*
X0086736Y0269874D02*
X0082799Y0269874D01*
X0082799Y0270268D01*
X0082799Y0270662D01*
X0086736Y0270662D01*
X0086736Y0269874D01*
X0086342Y0270268D02*
X0082799Y0270268D01*
X0074236Y0269874D02*
X0070299Y0269874D01*
X0070299Y0270268D01*
X0070299Y0270662D01*
X0074236Y0270662D01*
X0074236Y0269874D01*
X0073842Y0270268D02*
X0070299Y0270268D01*
X0061736Y0269874D02*
X0057799Y0269874D01*
X0057799Y0270268D01*
X0057799Y0270662D01*
X0061736Y0270662D01*
X0061736Y0269874D01*
X0061342Y0270268D02*
X0057799Y0270268D01*
X0057799Y0258162D02*
X0061736Y0258162D01*
X0061736Y0257374D01*
X0057799Y0257374D01*
X0057799Y0257768D01*
X0057799Y0258162D01*
X0057799Y0257768D02*
X0061342Y0257768D01*
X0070299Y0257768D02*
X0070299Y0257374D01*
X0074236Y0257374D01*
X0074236Y0258162D01*
X0070299Y0258162D01*
X0070299Y0257768D01*
X0073842Y0257768D01*
X0082799Y0257768D02*
X0082799Y0257374D01*
X0086736Y0257374D01*
X0086736Y0258162D01*
X0082799Y0258162D01*
X0082799Y0257768D01*
X0086342Y0257768D01*
X0095299Y0257768D02*
X0095299Y0257374D01*
X0099236Y0257374D01*
X0099236Y0258162D01*
X0095299Y0258162D01*
X0095299Y0257768D01*
X0098842Y0257768D01*
X0107799Y0257768D02*
X0107799Y0257374D01*
X0111736Y0257374D01*
X0111736Y0258162D01*
X0107799Y0258162D01*
X0107799Y0257768D01*
X0111342Y0257768D01*
X0120299Y0257768D02*
X0120299Y0257374D01*
X0124236Y0257374D01*
X0124236Y0258162D01*
X0120299Y0258162D01*
X0120299Y0257768D01*
X0123842Y0257768D01*
X0132799Y0257768D02*
X0132799Y0257374D01*
X0136736Y0257374D01*
X0136736Y0258162D01*
X0132799Y0258162D01*
X0132799Y0257768D01*
X0136342Y0257768D01*
X0145299Y0257768D02*
X0145299Y0257374D01*
X0149236Y0257374D01*
X0149236Y0258162D01*
X0145299Y0258162D01*
X0145299Y0257768D01*
X0148842Y0257768D01*
X0149236Y0269874D02*
X0145299Y0269874D01*
X0145299Y0270268D01*
X0145299Y0270662D01*
X0149236Y0270662D01*
X0149236Y0269874D01*
X0148842Y0270268D02*
X0145299Y0270268D01*
X0136736Y0269874D02*
X0132799Y0269874D01*
X0132799Y0270268D01*
X0132799Y0270662D01*
X0136736Y0270662D01*
X0136736Y0269874D01*
X0136342Y0270268D02*
X0132799Y0270268D01*
X0132799Y0282374D02*
X0132799Y0282768D01*
X0132799Y0283162D01*
X0136736Y0283162D01*
X0136736Y0282374D01*
X0132799Y0282374D01*
X0132799Y0282768D02*
X0136342Y0282768D01*
X0145299Y0282768D02*
X0145299Y0282374D01*
X0149236Y0282374D01*
X0149236Y0283162D01*
X0145299Y0283162D01*
X0145299Y0282768D01*
X0148842Y0282768D01*
X0149236Y0294874D02*
X0145299Y0294874D01*
X0145299Y0295268D01*
X0145299Y0295662D01*
X0149236Y0295662D01*
X0149236Y0294874D01*
X0148842Y0295268D02*
X0145299Y0295268D01*
X0136736Y0294874D02*
X0132799Y0294874D01*
X0132799Y0295268D01*
X0132799Y0295662D01*
X0136736Y0295662D01*
X0136736Y0294874D01*
X0136342Y0295268D02*
X0132799Y0295268D01*
X0124236Y0294874D02*
X0120299Y0294874D01*
X0120299Y0295268D01*
X0120299Y0295662D01*
X0124236Y0295662D01*
X0124236Y0294874D01*
X0123842Y0295268D02*
X0120299Y0295268D01*
X0111736Y0294874D02*
X0107799Y0294874D01*
X0107799Y0295268D01*
X0107799Y0295662D01*
X0111736Y0295662D01*
X0111736Y0294874D01*
X0111342Y0295268D02*
X0107799Y0295268D01*
X0099236Y0294874D02*
X0095299Y0294874D01*
X0095299Y0295268D01*
X0095299Y0295662D01*
X0099236Y0295662D01*
X0099236Y0294874D01*
X0098842Y0295268D02*
X0095299Y0295268D01*
X0086736Y0294874D02*
X0082799Y0294874D01*
X0082799Y0295268D01*
X0082799Y0295662D01*
X0086736Y0295662D01*
X0086736Y0294874D01*
X0086342Y0295268D02*
X0082799Y0295268D01*
X0074236Y0294874D02*
X0070299Y0294874D01*
X0070299Y0295268D01*
X0070299Y0295662D01*
X0074236Y0295662D01*
X0074236Y0294874D01*
X0073842Y0295268D02*
X0070299Y0295268D01*
X0061736Y0294874D02*
X0057799Y0294874D01*
X0057799Y0295268D01*
X0057799Y0295662D01*
X0061736Y0295662D01*
X0061736Y0294874D01*
X0061342Y0295268D02*
X0057799Y0295268D01*
X0057799Y0283162D02*
X0061736Y0283162D01*
X0061736Y0282374D01*
X0057799Y0282374D01*
X0057799Y0282768D01*
X0057799Y0283162D01*
X0057799Y0282768D02*
X0061342Y0282768D01*
X0070299Y0282768D02*
X0070299Y0282374D01*
X0074236Y0282374D01*
X0074236Y0283162D01*
X0070299Y0283162D01*
X0070299Y0282768D01*
X0073842Y0282768D01*
X0082799Y0282768D02*
X0082799Y0282374D01*
X0086736Y0282374D01*
X0086736Y0283162D01*
X0082799Y0283162D01*
X0082799Y0282768D01*
X0086342Y0282768D01*
X0095299Y0282768D02*
X0095299Y0282374D01*
X0099236Y0282374D01*
X0099236Y0283162D01*
X0095299Y0283162D01*
X0095299Y0282768D01*
X0098842Y0282768D01*
X0107799Y0282768D02*
X0107799Y0282374D01*
X0111736Y0282374D01*
X0111736Y0283162D01*
X0107799Y0283162D01*
X0107799Y0282768D01*
X0111342Y0282768D01*
X0120299Y0282768D02*
X0120299Y0282374D01*
X0124236Y0282374D01*
X0124236Y0283162D01*
X0120299Y0283162D01*
X0120299Y0282768D01*
X0123842Y0282768D01*
X0124236Y0307374D02*
X0120299Y0307374D01*
X0120299Y0307768D01*
X0120299Y0308162D01*
X0124236Y0308162D01*
X0124236Y0307374D01*
X0123842Y0307768D02*
X0120299Y0307768D01*
X0111736Y0307374D02*
X0107799Y0307374D01*
X0107799Y0307768D01*
X0107799Y0308162D01*
X0111736Y0308162D01*
X0111736Y0307374D01*
X0111342Y0307768D02*
X0107799Y0307768D01*
X0099236Y0307374D02*
X0095299Y0307374D01*
X0095299Y0307768D01*
X0095299Y0308162D01*
X0099236Y0308162D01*
X0099236Y0307374D01*
X0098842Y0307768D02*
X0095299Y0307768D01*
X0086736Y0307374D02*
X0082799Y0307374D01*
X0082799Y0307768D01*
X0082799Y0308162D01*
X0086736Y0308162D01*
X0086736Y0307374D01*
X0086342Y0307768D02*
X0082799Y0307768D01*
X0074236Y0307374D02*
X0070299Y0307374D01*
X0070299Y0307768D01*
X0070299Y0308162D01*
X0074236Y0308162D01*
X0074236Y0307374D01*
X0073842Y0307768D02*
X0070299Y0307768D01*
X0061736Y0307374D02*
X0057799Y0307374D01*
X0057799Y0307768D01*
X0057799Y0308162D01*
X0061736Y0308162D01*
X0061736Y0307374D01*
X0061342Y0307768D02*
X0057799Y0307768D01*
X0057799Y0319874D02*
X0057799Y0320268D01*
X0057799Y0320662D01*
X0061736Y0320662D01*
X0061736Y0319874D01*
X0057799Y0319874D01*
X0057799Y0320268D02*
X0061342Y0320268D01*
X0070299Y0320268D02*
X0070299Y0319874D01*
X0074236Y0319874D01*
X0074236Y0320662D01*
X0070299Y0320662D01*
X0070299Y0320268D01*
X0073842Y0320268D01*
X0082799Y0320268D02*
X0082799Y0319874D01*
X0086736Y0319874D01*
X0086736Y0320662D01*
X0082799Y0320662D01*
X0082799Y0320268D01*
X0086342Y0320268D01*
X0095299Y0320268D02*
X0095299Y0319874D01*
X0099236Y0319874D01*
X0099236Y0320662D01*
X0095299Y0320662D01*
X0095299Y0320268D01*
X0098842Y0320268D01*
X0107799Y0320268D02*
X0107799Y0319874D01*
X0111736Y0319874D01*
X0111736Y0320662D01*
X0107799Y0320662D01*
X0107799Y0320268D01*
X0111342Y0320268D01*
X0120299Y0320268D02*
X0120299Y0319874D01*
X0124236Y0319874D01*
X0124236Y0320662D01*
X0120299Y0320662D01*
X0120299Y0320268D01*
X0123842Y0320268D01*
X0132799Y0320268D02*
X0132799Y0319874D01*
X0136736Y0319874D01*
X0136736Y0320662D01*
X0132799Y0320662D01*
X0132799Y0320268D01*
X0136342Y0320268D01*
X0145299Y0320268D02*
X0145299Y0319874D01*
X0149236Y0319874D01*
X0149236Y0320662D01*
X0145299Y0320662D01*
X0145299Y0320268D01*
X0148842Y0320268D01*
X0149236Y0332374D02*
X0145299Y0332374D01*
X0145299Y0332768D01*
X0145299Y0333162D01*
X0149236Y0333162D01*
X0149236Y0332374D01*
X0148842Y0332768D02*
X0145299Y0332768D01*
X0136736Y0332374D02*
X0132799Y0332374D01*
X0132799Y0332768D01*
X0132799Y0333162D01*
X0136736Y0333162D01*
X0136736Y0332374D01*
X0136342Y0332768D02*
X0132799Y0332768D01*
X0124236Y0332374D02*
X0120299Y0332374D01*
X0120299Y0332768D01*
X0120299Y0333162D01*
X0124236Y0333162D01*
X0124236Y0332374D01*
X0123842Y0332768D02*
X0120299Y0332768D01*
X0111736Y0332374D02*
X0107799Y0332374D01*
X0107799Y0332768D01*
X0107799Y0333162D01*
X0111736Y0333162D01*
X0111736Y0332374D01*
X0111342Y0332768D02*
X0107799Y0332768D01*
X0099236Y0332374D02*
X0095299Y0332374D01*
X0095299Y0332768D01*
X0095299Y0333162D01*
X0099236Y0333162D01*
X0099236Y0332374D01*
X0098842Y0332768D02*
X0095299Y0332768D01*
X0086736Y0332374D02*
X0082799Y0332374D01*
X0082799Y0332768D01*
X0082799Y0333162D01*
X0086736Y0333162D01*
X0086736Y0332374D01*
X0086342Y0332768D02*
X0082799Y0332768D01*
X0074236Y0332374D02*
X0070299Y0332374D01*
X0070299Y0332768D01*
X0070299Y0333162D01*
X0074236Y0333162D01*
X0074236Y0332374D01*
X0073842Y0332768D02*
X0070299Y0332768D01*
X0061736Y0332374D02*
X0057799Y0332374D01*
X0057799Y0332768D01*
X0057799Y0333162D01*
X0061736Y0333162D01*
X0061736Y0332374D01*
X0061342Y0332768D02*
X0057799Y0332768D01*
X0057799Y0344874D02*
X0057799Y0345268D01*
X0057799Y0345662D01*
X0061736Y0345662D01*
X0061736Y0344874D01*
X0057799Y0344874D01*
X0057799Y0345268D02*
X0061342Y0345268D01*
X0070299Y0345268D02*
X0070299Y0344874D01*
X0074236Y0344874D01*
X0074236Y0345662D01*
X0070299Y0345662D01*
X0070299Y0345268D01*
X0073842Y0345268D01*
X0082799Y0345268D02*
X0082799Y0344874D01*
X0086736Y0344874D01*
X0086736Y0345662D01*
X0082799Y0345662D01*
X0082799Y0345268D01*
X0086342Y0345268D01*
X0095299Y0345268D02*
X0095299Y0344874D01*
X0099236Y0344874D01*
X0099236Y0345662D01*
X0095299Y0345662D01*
X0095299Y0345268D01*
X0098842Y0345268D01*
X0107799Y0345268D02*
X0107799Y0344874D01*
X0111736Y0344874D01*
X0111736Y0345662D01*
X0107799Y0345662D01*
X0107799Y0345268D01*
X0111342Y0345268D01*
X0120299Y0345268D02*
X0120299Y0344874D01*
X0124236Y0344874D01*
X0124236Y0345662D01*
X0120299Y0345662D01*
X0120299Y0345268D01*
X0123842Y0345268D01*
X0132799Y0345268D02*
X0132799Y0344874D01*
X0136736Y0344874D01*
X0136736Y0345662D01*
X0132799Y0345662D01*
X0132799Y0345268D01*
X0136342Y0345268D01*
X0145299Y0345268D02*
X0145299Y0344874D01*
X0149236Y0344874D01*
X0149236Y0345662D01*
X0145299Y0345662D01*
X0145299Y0345268D01*
X0148842Y0345268D01*
X0149236Y0308162D02*
X0145299Y0308162D01*
X0145299Y0307768D01*
X0145299Y0307374D01*
X0149236Y0307374D01*
X0149236Y0308162D01*
X0148842Y0307768D02*
X0145299Y0307768D01*
X0136736Y0307374D02*
X0132799Y0307374D01*
X0132799Y0307768D01*
X0132799Y0308162D01*
X0136736Y0308162D01*
X0136736Y0307374D01*
X0136342Y0307768D02*
X0132799Y0307768D01*
M02*
