%
M48
M72
T01C0.0100
T02C0.0250
T03C0.1260
%
T01
X5271Y25121
X5271Y25409
X5583Y25128
X6833Y25128
X6833Y25415
X7393Y25430
X7568Y25270
X7343Y25180
X7518Y25015
X7888Y25255
X8083Y25128
X7388Y26275
X7578Y26465
X7523Y26695
X7328Y26540
X7818Y26520
X8083Y26378
X8083Y26665
X8083Y27628
X8083Y27915
X7363Y27675
X6833Y27628
X6833Y27915
X6208Y27990
X6203Y27545
X5583Y27628
X5348Y27765
X5583Y26665
X5583Y26378
X6833Y26378
X9333Y26378
X9333Y26665
X9333Y27628
X9333Y27915
X9333Y28878
X9333Y29159
X8083Y29165
X8083Y28878
X7396Y28890
X6833Y28878
X6833Y29165
X6833Y30128
X6833Y30415
X6833Y31378
X6833Y31665
X6833Y32628
X6833Y32915
X7333Y32725
X7563Y32845
X7388Y33010
X7808Y32795
X8083Y32915
X8083Y32628
X8393Y32760
X8638Y32525
X8768Y32750
X8773Y33005
X9333Y32915
X9333Y32628
X9333Y31665
X9333Y31378
X8083Y31378
X8083Y31665
X7518Y32520
X7513Y33775
X7358Y34000
X7388Y34255
X7833Y34025
X8083Y33890
X8723Y33785
X6833Y33865
X6833Y34153
X5583Y34153
X5583Y33865
X5583Y32915
X5583Y32628
X5583Y31653
X8083Y30415
X8083Y30128
X9333Y30128
X9333Y30415
X10583Y30415
X10583Y30128
X10583Y29165
X10583Y28878
X10583Y27915
X10583Y27628
X10583Y26665
X10583Y26378
X11833Y26378
X11833Y26665
X11833Y27628
X11833Y27915
X12538Y27905
X12538Y27625
X12793Y27770
X13083Y27903
X13083Y27615
X13603Y27675
X13778Y27525
X14333Y27628
X14523Y27770
X14333Y26665
X14333Y26378
X14333Y25403
X13083Y25415
X13083Y25128
X11833Y25403
X13083Y26378
X13083Y26665
X13083Y28878
X13083Y29165
X13083Y30128
X13083Y30415
X13083Y31378
X13083Y31665
X12808Y31530
X13668Y31750
X13678Y31270
X14333Y31640
X13763Y32525
X14158Y32765
X14508Y32765
X14646Y33871
X14646Y34153
X14333Y34155
X13708Y33890
X13083Y33865
X13083Y34165
X12773Y34005
X12538Y34145
X12358Y33965
X12523Y33770
X12098Y34015
X11833Y34153
X11193Y33780
X10583Y32915
X10583Y32628
X10583Y31665
X10583Y31378
X11239Y31609
X11833Y31665
X11833Y31378
X11833Y30415
X11833Y30128
X11833Y29165
X11833Y28878
X11833Y32628
X11833Y32915
X12178Y32770
X12398Y32905
X13083Y32928
X13083Y32640
T02
X4808Y24640
X4808Y25140
X4808Y25640
X4808Y26140
X4808Y26640
X4808Y27140
X4808Y27640
X4808Y31640
X4808Y32140
X4808Y32640
X4808Y33140
X4808Y33640
X4808Y34140
X4808Y34640
X15058Y34640
X15058Y34140
X15058Y33640
X15058Y33140
X15058Y32640
X15058Y32140
X15058Y31640
X15108Y27640
X15108Y27140
X15108Y26640
X15108Y26140
X15108Y25640
X15108Y25140
X15108Y24640
T03
X16458Y26140
X16458Y33140
X3458Y33140
X3458Y26140
M30
