G75*
%MOIN*%
%OFA0B0*%
%FSLAX25Y25*%
%IPPOS*%
%LPD*%
%AMOC8*
5,1,8,0,0,1.08239X$1,22.5*
%
%ADD10C,0.03300*%
%ADD11R,0.03556X0.02375*%
%ADD12C,0.25800*%
D10*
X0048080Y0246400D03*
X0044580Y0249150D03*
X0048080Y0251400D03*
X0048080Y0256400D03*
X0048080Y0261400D03*
X0048080Y0266400D03*
X0048080Y0271400D03*
X0048080Y0276400D03*
X0048080Y0316400D03*
X0048080Y0321400D03*
X0048080Y0326400D03*
X0048080Y0331400D03*
X0048080Y0336400D03*
X0048080Y0341400D03*
X0048080Y0346400D03*
X0150580Y0346400D03*
X0154580Y0343650D03*
X0150580Y0341400D03*
X0150580Y0336400D03*
X0150580Y0331400D03*
X0150580Y0326400D03*
X0150580Y0321400D03*
X0150580Y0316400D03*
X0151080Y0276400D03*
X0151080Y0271400D03*
X0151080Y0266400D03*
X0151080Y0261400D03*
X0151080Y0256400D03*
X0151080Y0251400D03*
X0151080Y0246400D03*
D11*
X0146676Y0249500D03*
X0146676Y0252650D03*
X0146676Y0255800D03*
X0146676Y0262000D03*
X0146676Y0265150D03*
X0146676Y0268300D03*
X0139984Y0268300D03*
X0139984Y0265150D03*
X0139984Y0262000D03*
X0134176Y0262000D03*
X0134176Y0265150D03*
X0134176Y0268300D03*
X0134176Y0274500D03*
X0134176Y0277650D03*
X0134176Y0280800D03*
X0139984Y0280800D03*
X0139984Y0277650D03*
X0139984Y0274500D03*
X0146676Y0274500D03*
X0146676Y0277650D03*
X0146676Y0280800D03*
X0146676Y0287000D03*
X0146676Y0290150D03*
X0146676Y0293300D03*
X0146676Y0299500D03*
X0146676Y0302650D03*
X0146676Y0305800D03*
X0146676Y0312000D03*
X0146676Y0315150D03*
X0146676Y0318300D03*
X0139984Y0318300D03*
X0139984Y0315150D03*
X0139984Y0312000D03*
X0134176Y0312000D03*
X0134176Y0315150D03*
X0134176Y0318300D03*
X0134176Y0324500D03*
X0134176Y0327650D03*
X0134176Y0330800D03*
X0139984Y0330800D03*
X0139984Y0327650D03*
X0139984Y0324500D03*
X0146676Y0324500D03*
X0146676Y0327650D03*
X0146676Y0330800D03*
X0146676Y0337000D03*
X0146676Y0340150D03*
X0146676Y0343300D03*
X0139984Y0343300D03*
X0139984Y0340150D03*
X0139984Y0337000D03*
X0134176Y0337000D03*
X0134176Y0340150D03*
X0134176Y0343300D03*
X0127484Y0343300D03*
X0127484Y0340150D03*
X0127484Y0337000D03*
X0121676Y0337000D03*
X0121676Y0340150D03*
X0121676Y0343300D03*
X0114984Y0343300D03*
X0114984Y0340150D03*
X0114984Y0337000D03*
X0109176Y0337000D03*
X0109176Y0340150D03*
X0109176Y0343300D03*
X0102484Y0343300D03*
X0102484Y0340150D03*
X0102484Y0337000D03*
X0096676Y0337000D03*
X0096676Y0340150D03*
X0096676Y0343300D03*
X0089984Y0343300D03*
X0089984Y0340150D03*
X0089984Y0337000D03*
X0084176Y0337000D03*
X0084176Y0340150D03*
X0084176Y0343300D03*
X0077484Y0343300D03*
X0077484Y0340150D03*
X0077484Y0337000D03*
X0071676Y0337000D03*
X0071676Y0340150D03*
X0071676Y0343300D03*
X0064984Y0343300D03*
X0064984Y0340150D03*
X0064984Y0337000D03*
X0059176Y0337000D03*
X0059176Y0340150D03*
X0059176Y0343300D03*
X0052484Y0343300D03*
X0052484Y0340150D03*
X0052484Y0337000D03*
X0052484Y0330800D03*
X0052484Y0327650D03*
X0052484Y0324500D03*
X0052484Y0318300D03*
X0052484Y0315150D03*
X0052484Y0312000D03*
X0052484Y0305800D03*
X0052484Y0302650D03*
X0052484Y0299500D03*
X0052484Y0293300D03*
X0052484Y0290150D03*
X0052484Y0287000D03*
X0052484Y0280800D03*
X0052484Y0277650D03*
X0052484Y0274500D03*
X0052484Y0268300D03*
X0052484Y0265150D03*
X0052484Y0262000D03*
X0052484Y0255800D03*
X0052484Y0252650D03*
X0052484Y0249500D03*
X0059176Y0249500D03*
X0059176Y0252650D03*
X0059176Y0255800D03*
X0064984Y0255800D03*
X0064984Y0252650D03*
X0064984Y0249500D03*
X0071676Y0249500D03*
X0071676Y0252650D03*
X0071676Y0255800D03*
X0077484Y0255800D03*
X0077484Y0252650D03*
X0077484Y0249500D03*
X0084176Y0249500D03*
X0084176Y0252650D03*
X0084176Y0255800D03*
X0084176Y0262000D03*
X0084176Y0265150D03*
X0084176Y0268300D03*
X0077484Y0268300D03*
X0077484Y0265150D03*
X0077484Y0262000D03*
X0071676Y0262000D03*
X0071676Y0265150D03*
X0071676Y0268300D03*
X0071676Y0274500D03*
X0071676Y0277650D03*
X0071676Y0280800D03*
X0077484Y0280800D03*
X0077484Y0277650D03*
X0077484Y0274500D03*
X0084176Y0274500D03*
X0084176Y0277650D03*
X0084176Y0280800D03*
X0089984Y0280800D03*
X0089984Y0277650D03*
X0089984Y0274500D03*
X0096676Y0274500D03*
X0096676Y0277650D03*
X0096676Y0280800D03*
X0102484Y0280800D03*
X0102484Y0277650D03*
X0102484Y0274500D03*
X0102484Y0268300D03*
X0102484Y0265150D03*
X0102484Y0262000D03*
X0096676Y0262000D03*
X0096676Y0265150D03*
X0096676Y0268300D03*
X0089984Y0268300D03*
X0089984Y0265150D03*
X0089984Y0262000D03*
X0089984Y0255800D03*
X0089984Y0252650D03*
X0089984Y0249500D03*
X0096676Y0249500D03*
X0096676Y0252650D03*
X0096676Y0255800D03*
X0102484Y0255800D03*
X0102484Y0252650D03*
X0102484Y0249500D03*
X0109176Y0249500D03*
X0109176Y0252650D03*
X0109176Y0255800D03*
X0114984Y0255800D03*
X0114984Y0252650D03*
X0114984Y0249500D03*
X0121676Y0249500D03*
X0121676Y0252650D03*
X0121676Y0255800D03*
X0127484Y0255800D03*
X0127484Y0252650D03*
X0127484Y0249500D03*
X0134176Y0249500D03*
X0134176Y0252650D03*
X0134176Y0255800D03*
X0139984Y0255800D03*
X0139984Y0252650D03*
X0139984Y0249500D03*
X0127484Y0262000D03*
X0127484Y0265150D03*
X0127484Y0268300D03*
X0121676Y0268300D03*
X0121676Y0265150D03*
X0121676Y0262000D03*
X0114984Y0262000D03*
X0114984Y0265150D03*
X0114984Y0268300D03*
X0109176Y0268300D03*
X0109176Y0265150D03*
X0109176Y0262000D03*
X0109176Y0274500D03*
X0109176Y0277650D03*
X0109176Y0280800D03*
X0114984Y0280800D03*
X0114984Y0277650D03*
X0114984Y0274500D03*
X0121676Y0274500D03*
X0121676Y0277650D03*
X0121676Y0280800D03*
X0127484Y0280800D03*
X0127484Y0277650D03*
X0127484Y0274500D03*
X0127484Y0287000D03*
X0127484Y0290150D03*
X0127484Y0293300D03*
X0121676Y0293300D03*
X0121676Y0290150D03*
X0121676Y0287000D03*
X0114984Y0287000D03*
X0114984Y0290150D03*
X0114984Y0293300D03*
X0109176Y0293300D03*
X0109176Y0290150D03*
X0109176Y0287000D03*
X0102484Y0287000D03*
X0102484Y0290150D03*
X0102484Y0293300D03*
X0096676Y0293300D03*
X0096676Y0290150D03*
X0096676Y0287000D03*
X0089984Y0287000D03*
X0089984Y0290150D03*
X0089984Y0293300D03*
X0089984Y0299500D03*
X0089984Y0302650D03*
X0089984Y0305800D03*
X0089984Y0312000D03*
X0089984Y0315150D03*
X0089984Y0318300D03*
X0096676Y0318300D03*
X0096676Y0315150D03*
X0096676Y0312000D03*
X0102484Y0312000D03*
X0102484Y0315150D03*
X0102484Y0318300D03*
X0102484Y0324500D03*
X0102484Y0327650D03*
X0102484Y0330800D03*
X0096676Y0330800D03*
X0096676Y0327650D03*
X0096676Y0324500D03*
X0089984Y0324500D03*
X0089984Y0327650D03*
X0089984Y0330800D03*
X0084176Y0330800D03*
X0084176Y0327650D03*
X0084176Y0324500D03*
X0077484Y0324500D03*
X0077484Y0327650D03*
X0077484Y0330800D03*
X0071676Y0330800D03*
X0071676Y0327650D03*
X0071676Y0324500D03*
X0071676Y0318300D03*
X0071676Y0315150D03*
X0071676Y0312000D03*
X0077484Y0312000D03*
X0077484Y0315150D03*
X0077484Y0318300D03*
X0084176Y0318300D03*
X0084176Y0315150D03*
X0084176Y0312000D03*
X0084176Y0305800D03*
X0084176Y0302650D03*
X0084176Y0299500D03*
X0084176Y0293300D03*
X0084176Y0290150D03*
X0084176Y0287000D03*
X0077484Y0287000D03*
X0077484Y0290150D03*
X0077484Y0293300D03*
X0071676Y0293300D03*
X0071676Y0290150D03*
X0071676Y0287000D03*
X0064984Y0287000D03*
X0064984Y0290150D03*
X0064984Y0293300D03*
X0059176Y0293300D03*
X0059176Y0290150D03*
X0059176Y0287000D03*
X0059176Y0280800D03*
X0059176Y0277650D03*
X0059176Y0274500D03*
X0064984Y0274500D03*
X0064984Y0277650D03*
X0064984Y0280800D03*
X0064984Y0268300D03*
X0064984Y0265150D03*
X0064984Y0262000D03*
X0059176Y0262000D03*
X0059176Y0265150D03*
X0059176Y0268300D03*
X0059176Y0299500D03*
X0059176Y0302650D03*
X0059176Y0305800D03*
X0064984Y0305800D03*
X0064984Y0302650D03*
X0064984Y0299500D03*
X0071676Y0299500D03*
X0071676Y0302650D03*
X0071676Y0305800D03*
X0077484Y0305800D03*
X0077484Y0302650D03*
X0077484Y0299500D03*
X0064984Y0312000D03*
X0064984Y0315150D03*
X0064984Y0318300D03*
X0059176Y0318300D03*
X0059176Y0315150D03*
X0059176Y0312000D03*
X0059176Y0324500D03*
X0059176Y0327650D03*
X0059176Y0330800D03*
X0064984Y0330800D03*
X0064984Y0327650D03*
X0064984Y0324500D03*
X0096676Y0305800D03*
X0096676Y0302650D03*
X0096676Y0299500D03*
X0102484Y0299500D03*
X0102484Y0302650D03*
X0102484Y0305800D03*
X0109176Y0305800D03*
X0109176Y0302650D03*
X0109176Y0299500D03*
X0114984Y0299500D03*
X0114984Y0302650D03*
X0114984Y0305800D03*
X0114984Y0312000D03*
X0114984Y0315150D03*
X0114984Y0318300D03*
X0109176Y0318300D03*
X0109176Y0315150D03*
X0109176Y0312000D03*
X0121676Y0312000D03*
X0121676Y0315150D03*
X0121676Y0318300D03*
X0127484Y0318300D03*
X0127484Y0315150D03*
X0127484Y0312000D03*
X0127484Y0305800D03*
X0127484Y0302650D03*
X0127484Y0299500D03*
X0121676Y0299500D03*
X0121676Y0302650D03*
X0121676Y0305800D03*
X0134176Y0305800D03*
X0134176Y0302650D03*
X0134176Y0299500D03*
X0139984Y0299500D03*
X0139984Y0302650D03*
X0139984Y0305800D03*
X0139984Y0293300D03*
X0139984Y0290150D03*
X0139984Y0287000D03*
X0134176Y0287000D03*
X0134176Y0290150D03*
X0134176Y0293300D03*
X0127484Y0324500D03*
X0127484Y0327650D03*
X0127484Y0330800D03*
X0121676Y0330800D03*
X0121676Y0327650D03*
X0121676Y0324500D03*
X0114984Y0324500D03*
X0114984Y0327650D03*
X0114984Y0330800D03*
X0109176Y0330800D03*
X0109176Y0327650D03*
X0109176Y0324500D03*
D12*
X0164580Y0331400D03*
X0164580Y0261400D03*
X0034580Y0261400D03*
X0034580Y0331400D03*
M02*
