G75*
%MOIN*%
%OFA0B0*%
%FSLAX25Y25*%
%IPPOS*%
%LPD*%
%AMOC8*
5,1,8,0,0,1.08239X$1,22.5*
%
%ADD10C,0.00800*%
%ADD11C,0.00000*%
D10*
X0034580Y0246400D02*
X0164580Y0246400D01*
X0164942Y0246404D01*
X0165305Y0246418D01*
X0165667Y0246439D01*
X0166028Y0246470D01*
X0166388Y0246509D01*
X0166747Y0246557D01*
X0167105Y0246614D01*
X0167462Y0246679D01*
X0167817Y0246753D01*
X0168170Y0246836D01*
X0168521Y0246927D01*
X0168869Y0247026D01*
X0169215Y0247134D01*
X0169559Y0247250D01*
X0169899Y0247375D01*
X0170236Y0247507D01*
X0170570Y0247648D01*
X0170901Y0247797D01*
X0171228Y0247954D01*
X0171551Y0248118D01*
X0171870Y0248290D01*
X0172184Y0248470D01*
X0172495Y0248658D01*
X0172800Y0248853D01*
X0173101Y0249055D01*
X0173397Y0249265D01*
X0173687Y0249481D01*
X0173973Y0249705D01*
X0174253Y0249935D01*
X0174527Y0250172D01*
X0174795Y0250416D01*
X0175058Y0250666D01*
X0175314Y0250922D01*
X0175564Y0251185D01*
X0175808Y0251453D01*
X0176045Y0251727D01*
X0176275Y0252007D01*
X0176499Y0252293D01*
X0176715Y0252583D01*
X0176925Y0252879D01*
X0177127Y0253180D01*
X0177322Y0253485D01*
X0177510Y0253796D01*
X0177690Y0254110D01*
X0177862Y0254429D01*
X0178026Y0254752D01*
X0178183Y0255079D01*
X0178332Y0255410D01*
X0178473Y0255744D01*
X0178605Y0256081D01*
X0178730Y0256421D01*
X0178846Y0256765D01*
X0178954Y0257111D01*
X0179053Y0257459D01*
X0179144Y0257810D01*
X0179227Y0258163D01*
X0179301Y0258518D01*
X0179366Y0258875D01*
X0179423Y0259233D01*
X0179471Y0259592D01*
X0179510Y0259952D01*
X0179541Y0260313D01*
X0179562Y0260675D01*
X0179576Y0261038D01*
X0179580Y0261400D01*
X0179576Y0261762D01*
X0179562Y0262125D01*
X0179541Y0262487D01*
X0179510Y0262848D01*
X0179471Y0263208D01*
X0179423Y0263567D01*
X0179366Y0263925D01*
X0179301Y0264282D01*
X0179227Y0264637D01*
X0179144Y0264990D01*
X0179053Y0265341D01*
X0178954Y0265689D01*
X0178846Y0266035D01*
X0178730Y0266379D01*
X0178605Y0266719D01*
X0178473Y0267056D01*
X0178332Y0267390D01*
X0178183Y0267721D01*
X0178026Y0268048D01*
X0177862Y0268371D01*
X0177690Y0268690D01*
X0177510Y0269004D01*
X0177322Y0269315D01*
X0177127Y0269620D01*
X0176925Y0269921D01*
X0176715Y0270217D01*
X0176499Y0270507D01*
X0176275Y0270793D01*
X0176045Y0271073D01*
X0175808Y0271347D01*
X0175564Y0271615D01*
X0175314Y0271878D01*
X0175058Y0272134D01*
X0174795Y0272384D01*
X0174527Y0272628D01*
X0174253Y0272865D01*
X0173973Y0273095D01*
X0173687Y0273319D01*
X0173397Y0273535D01*
X0173101Y0273745D01*
X0172800Y0273947D01*
X0172495Y0274142D01*
X0172184Y0274330D01*
X0171870Y0274510D01*
X0171551Y0274682D01*
X0171228Y0274846D01*
X0170901Y0275003D01*
X0170570Y0275152D01*
X0170236Y0275293D01*
X0169899Y0275425D01*
X0169559Y0275550D01*
X0169215Y0275666D01*
X0168869Y0275774D01*
X0168521Y0275873D01*
X0168170Y0275964D01*
X0167817Y0276047D01*
X0167462Y0276121D01*
X0167105Y0276186D01*
X0166747Y0276243D01*
X0166388Y0276291D01*
X0166028Y0276330D01*
X0165667Y0276361D01*
X0165305Y0276382D01*
X0164942Y0276396D01*
X0164580Y0276400D01*
X0149580Y0276400D01*
X0149580Y0316400D01*
X0164580Y0316400D01*
X0164942Y0316404D01*
X0165305Y0316418D01*
X0165667Y0316439D01*
X0166028Y0316470D01*
X0166388Y0316509D01*
X0166747Y0316557D01*
X0167105Y0316614D01*
X0167462Y0316679D01*
X0167817Y0316753D01*
X0168170Y0316836D01*
X0168521Y0316927D01*
X0168869Y0317026D01*
X0169215Y0317134D01*
X0169559Y0317250D01*
X0169899Y0317375D01*
X0170236Y0317507D01*
X0170570Y0317648D01*
X0170901Y0317797D01*
X0171228Y0317954D01*
X0171551Y0318118D01*
X0171870Y0318290D01*
X0172184Y0318470D01*
X0172495Y0318658D01*
X0172800Y0318853D01*
X0173101Y0319055D01*
X0173397Y0319265D01*
X0173687Y0319481D01*
X0173973Y0319705D01*
X0174253Y0319935D01*
X0174527Y0320172D01*
X0174795Y0320416D01*
X0175058Y0320666D01*
X0175314Y0320922D01*
X0175564Y0321185D01*
X0175808Y0321453D01*
X0176045Y0321727D01*
X0176275Y0322007D01*
X0176499Y0322293D01*
X0176715Y0322583D01*
X0176925Y0322879D01*
X0177127Y0323180D01*
X0177322Y0323485D01*
X0177510Y0323796D01*
X0177690Y0324110D01*
X0177862Y0324429D01*
X0178026Y0324752D01*
X0178183Y0325079D01*
X0178332Y0325410D01*
X0178473Y0325744D01*
X0178605Y0326081D01*
X0178730Y0326421D01*
X0178846Y0326765D01*
X0178954Y0327111D01*
X0179053Y0327459D01*
X0179144Y0327810D01*
X0179227Y0328163D01*
X0179301Y0328518D01*
X0179366Y0328875D01*
X0179423Y0329233D01*
X0179471Y0329592D01*
X0179510Y0329952D01*
X0179541Y0330313D01*
X0179562Y0330675D01*
X0179576Y0331038D01*
X0179580Y0331400D01*
X0179576Y0331762D01*
X0179562Y0332125D01*
X0179541Y0332487D01*
X0179510Y0332848D01*
X0179471Y0333208D01*
X0179423Y0333567D01*
X0179366Y0333925D01*
X0179301Y0334282D01*
X0179227Y0334637D01*
X0179144Y0334990D01*
X0179053Y0335341D01*
X0178954Y0335689D01*
X0178846Y0336035D01*
X0178730Y0336379D01*
X0178605Y0336719D01*
X0178473Y0337056D01*
X0178332Y0337390D01*
X0178183Y0337721D01*
X0178026Y0338048D01*
X0177862Y0338371D01*
X0177690Y0338690D01*
X0177510Y0339004D01*
X0177322Y0339315D01*
X0177127Y0339620D01*
X0176925Y0339921D01*
X0176715Y0340217D01*
X0176499Y0340507D01*
X0176275Y0340793D01*
X0176045Y0341073D01*
X0175808Y0341347D01*
X0175564Y0341615D01*
X0175314Y0341878D01*
X0175058Y0342134D01*
X0174795Y0342384D01*
X0174527Y0342628D01*
X0174253Y0342865D01*
X0173973Y0343095D01*
X0173687Y0343319D01*
X0173397Y0343535D01*
X0173101Y0343745D01*
X0172800Y0343947D01*
X0172495Y0344142D01*
X0172184Y0344330D01*
X0171870Y0344510D01*
X0171551Y0344682D01*
X0171228Y0344846D01*
X0170901Y0345003D01*
X0170570Y0345152D01*
X0170236Y0345293D01*
X0169899Y0345425D01*
X0169559Y0345550D01*
X0169215Y0345666D01*
X0168869Y0345774D01*
X0168521Y0345873D01*
X0168170Y0345964D01*
X0167817Y0346047D01*
X0167462Y0346121D01*
X0167105Y0346186D01*
X0166747Y0346243D01*
X0166388Y0346291D01*
X0166028Y0346330D01*
X0165667Y0346361D01*
X0165305Y0346382D01*
X0164942Y0346396D01*
X0164580Y0346400D01*
X0034580Y0346400D01*
X0034218Y0346396D01*
X0033855Y0346382D01*
X0033493Y0346361D01*
X0033132Y0346330D01*
X0032772Y0346291D01*
X0032413Y0346243D01*
X0032055Y0346186D01*
X0031698Y0346121D01*
X0031343Y0346047D01*
X0030990Y0345964D01*
X0030639Y0345873D01*
X0030291Y0345774D01*
X0029945Y0345666D01*
X0029601Y0345550D01*
X0029261Y0345425D01*
X0028924Y0345293D01*
X0028590Y0345152D01*
X0028259Y0345003D01*
X0027932Y0344846D01*
X0027609Y0344682D01*
X0027290Y0344510D01*
X0026976Y0344330D01*
X0026665Y0344142D01*
X0026360Y0343947D01*
X0026059Y0343745D01*
X0025763Y0343535D01*
X0025473Y0343319D01*
X0025187Y0343095D01*
X0024907Y0342865D01*
X0024633Y0342628D01*
X0024365Y0342384D01*
X0024102Y0342134D01*
X0023846Y0341878D01*
X0023596Y0341615D01*
X0023352Y0341347D01*
X0023115Y0341073D01*
X0022885Y0340793D01*
X0022661Y0340507D01*
X0022445Y0340217D01*
X0022235Y0339921D01*
X0022033Y0339620D01*
X0021838Y0339315D01*
X0021650Y0339004D01*
X0021470Y0338690D01*
X0021298Y0338371D01*
X0021134Y0338048D01*
X0020977Y0337721D01*
X0020828Y0337390D01*
X0020687Y0337056D01*
X0020555Y0336719D01*
X0020430Y0336379D01*
X0020314Y0336035D01*
X0020206Y0335689D01*
X0020107Y0335341D01*
X0020016Y0334990D01*
X0019933Y0334637D01*
X0019859Y0334282D01*
X0019794Y0333925D01*
X0019737Y0333567D01*
X0019689Y0333208D01*
X0019650Y0332848D01*
X0019619Y0332487D01*
X0019598Y0332125D01*
X0019584Y0331762D01*
X0019580Y0331400D01*
X0019584Y0331038D01*
X0019598Y0330675D01*
X0019619Y0330313D01*
X0019650Y0329952D01*
X0019689Y0329592D01*
X0019737Y0329233D01*
X0019794Y0328875D01*
X0019859Y0328518D01*
X0019933Y0328163D01*
X0020016Y0327810D01*
X0020107Y0327459D01*
X0020206Y0327111D01*
X0020314Y0326765D01*
X0020430Y0326421D01*
X0020555Y0326081D01*
X0020687Y0325744D01*
X0020828Y0325410D01*
X0020977Y0325079D01*
X0021134Y0324752D01*
X0021298Y0324429D01*
X0021470Y0324110D01*
X0021650Y0323796D01*
X0021838Y0323485D01*
X0022033Y0323180D01*
X0022235Y0322879D01*
X0022445Y0322583D01*
X0022661Y0322293D01*
X0022885Y0322007D01*
X0023115Y0321727D01*
X0023352Y0321453D01*
X0023596Y0321185D01*
X0023846Y0320922D01*
X0024102Y0320666D01*
X0024365Y0320416D01*
X0024633Y0320172D01*
X0024907Y0319935D01*
X0025187Y0319705D01*
X0025473Y0319481D01*
X0025763Y0319265D01*
X0026059Y0319055D01*
X0026360Y0318853D01*
X0026665Y0318658D01*
X0026976Y0318470D01*
X0027290Y0318290D01*
X0027609Y0318118D01*
X0027932Y0317954D01*
X0028259Y0317797D01*
X0028590Y0317648D01*
X0028924Y0317507D01*
X0029261Y0317375D01*
X0029601Y0317250D01*
X0029945Y0317134D01*
X0030291Y0317026D01*
X0030639Y0316927D01*
X0030990Y0316836D01*
X0031343Y0316753D01*
X0031698Y0316679D01*
X0032055Y0316614D01*
X0032413Y0316557D01*
X0032772Y0316509D01*
X0033132Y0316470D01*
X0033493Y0316439D01*
X0033855Y0316418D01*
X0034218Y0316404D01*
X0034580Y0316400D01*
X0049580Y0316400D01*
X0049580Y0276400D01*
X0034580Y0276400D01*
X0034218Y0276396D01*
X0033855Y0276382D01*
X0033493Y0276361D01*
X0033132Y0276330D01*
X0032772Y0276291D01*
X0032413Y0276243D01*
X0032055Y0276186D01*
X0031698Y0276121D01*
X0031343Y0276047D01*
X0030990Y0275964D01*
X0030639Y0275873D01*
X0030291Y0275774D01*
X0029945Y0275666D01*
X0029601Y0275550D01*
X0029261Y0275425D01*
X0028924Y0275293D01*
X0028590Y0275152D01*
X0028259Y0275003D01*
X0027932Y0274846D01*
X0027609Y0274682D01*
X0027290Y0274510D01*
X0026976Y0274330D01*
X0026665Y0274142D01*
X0026360Y0273947D01*
X0026059Y0273745D01*
X0025763Y0273535D01*
X0025473Y0273319D01*
X0025187Y0273095D01*
X0024907Y0272865D01*
X0024633Y0272628D01*
X0024365Y0272384D01*
X0024102Y0272134D01*
X0023846Y0271878D01*
X0023596Y0271615D01*
X0023352Y0271347D01*
X0023115Y0271073D01*
X0022885Y0270793D01*
X0022661Y0270507D01*
X0022445Y0270217D01*
X0022235Y0269921D01*
X0022033Y0269620D01*
X0021838Y0269315D01*
X0021650Y0269004D01*
X0021470Y0268690D01*
X0021298Y0268371D01*
X0021134Y0268048D01*
X0020977Y0267721D01*
X0020828Y0267390D01*
X0020687Y0267056D01*
X0020555Y0266719D01*
X0020430Y0266379D01*
X0020314Y0266035D01*
X0020206Y0265689D01*
X0020107Y0265341D01*
X0020016Y0264990D01*
X0019933Y0264637D01*
X0019859Y0264282D01*
X0019794Y0263925D01*
X0019737Y0263567D01*
X0019689Y0263208D01*
X0019650Y0262848D01*
X0019619Y0262487D01*
X0019598Y0262125D01*
X0019584Y0261762D01*
X0019580Y0261400D01*
X0019584Y0261038D01*
X0019598Y0260675D01*
X0019619Y0260313D01*
X0019650Y0259952D01*
X0019689Y0259592D01*
X0019737Y0259233D01*
X0019794Y0258875D01*
X0019859Y0258518D01*
X0019933Y0258163D01*
X0020016Y0257810D01*
X0020107Y0257459D01*
X0020206Y0257111D01*
X0020314Y0256765D01*
X0020430Y0256421D01*
X0020555Y0256081D01*
X0020687Y0255744D01*
X0020828Y0255410D01*
X0020977Y0255079D01*
X0021134Y0254752D01*
X0021298Y0254429D01*
X0021470Y0254110D01*
X0021650Y0253796D01*
X0021838Y0253485D01*
X0022033Y0253180D01*
X0022235Y0252879D01*
X0022445Y0252583D01*
X0022661Y0252293D01*
X0022885Y0252007D01*
X0023115Y0251727D01*
X0023352Y0251453D01*
X0023596Y0251185D01*
X0023846Y0250922D01*
X0024102Y0250666D01*
X0024365Y0250416D01*
X0024633Y0250172D01*
X0024907Y0249935D01*
X0025187Y0249705D01*
X0025473Y0249481D01*
X0025763Y0249265D01*
X0026059Y0249055D01*
X0026360Y0248853D01*
X0026665Y0248658D01*
X0026976Y0248470D01*
X0027290Y0248290D01*
X0027609Y0248118D01*
X0027932Y0247954D01*
X0028259Y0247797D01*
X0028590Y0247648D01*
X0028924Y0247507D01*
X0029261Y0247375D01*
X0029601Y0247250D01*
X0029945Y0247134D01*
X0030291Y0247026D01*
X0030639Y0246927D01*
X0030990Y0246836D01*
X0031343Y0246753D01*
X0031698Y0246679D01*
X0032055Y0246614D01*
X0032413Y0246557D01*
X0032772Y0246509D01*
X0033132Y0246470D01*
X0033493Y0246439D01*
X0033855Y0246418D01*
X0034218Y0246404D01*
X0034580Y0246400D01*
D11*
X0046830Y0246400D02*
X0046832Y0246470D01*
X0046838Y0246540D01*
X0046848Y0246609D01*
X0046861Y0246678D01*
X0046879Y0246746D01*
X0046900Y0246813D01*
X0046925Y0246878D01*
X0046954Y0246942D01*
X0046986Y0247005D01*
X0047022Y0247065D01*
X0047061Y0247123D01*
X0047103Y0247179D01*
X0047148Y0247233D01*
X0047196Y0247284D01*
X0047247Y0247332D01*
X0047301Y0247377D01*
X0047357Y0247419D01*
X0047415Y0247458D01*
X0047475Y0247494D01*
X0047538Y0247526D01*
X0047602Y0247555D01*
X0047667Y0247580D01*
X0047734Y0247601D01*
X0047802Y0247619D01*
X0047871Y0247632D01*
X0047940Y0247642D01*
X0048010Y0247648D01*
X0048080Y0247650D01*
X0048150Y0247648D01*
X0048220Y0247642D01*
X0048289Y0247632D01*
X0048358Y0247619D01*
X0048426Y0247601D01*
X0048493Y0247580D01*
X0048558Y0247555D01*
X0048622Y0247526D01*
X0048685Y0247494D01*
X0048745Y0247458D01*
X0048803Y0247419D01*
X0048859Y0247377D01*
X0048913Y0247332D01*
X0048964Y0247284D01*
X0049012Y0247233D01*
X0049057Y0247179D01*
X0049099Y0247123D01*
X0049138Y0247065D01*
X0049174Y0247005D01*
X0049206Y0246942D01*
X0049235Y0246878D01*
X0049260Y0246813D01*
X0049281Y0246746D01*
X0049299Y0246678D01*
X0049312Y0246609D01*
X0049322Y0246540D01*
X0049328Y0246470D01*
X0049330Y0246400D01*
X0049328Y0246330D01*
X0049322Y0246260D01*
X0049312Y0246191D01*
X0049299Y0246122D01*
X0049281Y0246054D01*
X0049260Y0245987D01*
X0049235Y0245922D01*
X0049206Y0245858D01*
X0049174Y0245795D01*
X0049138Y0245735D01*
X0049099Y0245677D01*
X0049057Y0245621D01*
X0049012Y0245567D01*
X0048964Y0245516D01*
X0048913Y0245468D01*
X0048859Y0245423D01*
X0048803Y0245381D01*
X0048745Y0245342D01*
X0048685Y0245306D01*
X0048622Y0245274D01*
X0048558Y0245245D01*
X0048493Y0245220D01*
X0048426Y0245199D01*
X0048358Y0245181D01*
X0048289Y0245168D01*
X0048220Y0245158D01*
X0048150Y0245152D01*
X0048080Y0245150D01*
X0048010Y0245152D01*
X0047940Y0245158D01*
X0047871Y0245168D01*
X0047802Y0245181D01*
X0047734Y0245199D01*
X0047667Y0245220D01*
X0047602Y0245245D01*
X0047538Y0245274D01*
X0047475Y0245306D01*
X0047415Y0245342D01*
X0047357Y0245381D01*
X0047301Y0245423D01*
X0047247Y0245468D01*
X0047196Y0245516D01*
X0047148Y0245567D01*
X0047103Y0245621D01*
X0047061Y0245677D01*
X0047022Y0245735D01*
X0046986Y0245795D01*
X0046954Y0245858D01*
X0046925Y0245922D01*
X0046900Y0245987D01*
X0046879Y0246054D01*
X0046861Y0246122D01*
X0046848Y0246191D01*
X0046838Y0246260D01*
X0046832Y0246330D01*
X0046830Y0246400D01*
X0046830Y0251400D02*
X0046832Y0251470D01*
X0046838Y0251540D01*
X0046848Y0251609D01*
X0046861Y0251678D01*
X0046879Y0251746D01*
X0046900Y0251813D01*
X0046925Y0251878D01*
X0046954Y0251942D01*
X0046986Y0252005D01*
X0047022Y0252065D01*
X0047061Y0252123D01*
X0047103Y0252179D01*
X0047148Y0252233D01*
X0047196Y0252284D01*
X0047247Y0252332D01*
X0047301Y0252377D01*
X0047357Y0252419D01*
X0047415Y0252458D01*
X0047475Y0252494D01*
X0047538Y0252526D01*
X0047602Y0252555D01*
X0047667Y0252580D01*
X0047734Y0252601D01*
X0047802Y0252619D01*
X0047871Y0252632D01*
X0047940Y0252642D01*
X0048010Y0252648D01*
X0048080Y0252650D01*
X0048150Y0252648D01*
X0048220Y0252642D01*
X0048289Y0252632D01*
X0048358Y0252619D01*
X0048426Y0252601D01*
X0048493Y0252580D01*
X0048558Y0252555D01*
X0048622Y0252526D01*
X0048685Y0252494D01*
X0048745Y0252458D01*
X0048803Y0252419D01*
X0048859Y0252377D01*
X0048913Y0252332D01*
X0048964Y0252284D01*
X0049012Y0252233D01*
X0049057Y0252179D01*
X0049099Y0252123D01*
X0049138Y0252065D01*
X0049174Y0252005D01*
X0049206Y0251942D01*
X0049235Y0251878D01*
X0049260Y0251813D01*
X0049281Y0251746D01*
X0049299Y0251678D01*
X0049312Y0251609D01*
X0049322Y0251540D01*
X0049328Y0251470D01*
X0049330Y0251400D01*
X0049328Y0251330D01*
X0049322Y0251260D01*
X0049312Y0251191D01*
X0049299Y0251122D01*
X0049281Y0251054D01*
X0049260Y0250987D01*
X0049235Y0250922D01*
X0049206Y0250858D01*
X0049174Y0250795D01*
X0049138Y0250735D01*
X0049099Y0250677D01*
X0049057Y0250621D01*
X0049012Y0250567D01*
X0048964Y0250516D01*
X0048913Y0250468D01*
X0048859Y0250423D01*
X0048803Y0250381D01*
X0048745Y0250342D01*
X0048685Y0250306D01*
X0048622Y0250274D01*
X0048558Y0250245D01*
X0048493Y0250220D01*
X0048426Y0250199D01*
X0048358Y0250181D01*
X0048289Y0250168D01*
X0048220Y0250158D01*
X0048150Y0250152D01*
X0048080Y0250150D01*
X0048010Y0250152D01*
X0047940Y0250158D01*
X0047871Y0250168D01*
X0047802Y0250181D01*
X0047734Y0250199D01*
X0047667Y0250220D01*
X0047602Y0250245D01*
X0047538Y0250274D01*
X0047475Y0250306D01*
X0047415Y0250342D01*
X0047357Y0250381D01*
X0047301Y0250423D01*
X0047247Y0250468D01*
X0047196Y0250516D01*
X0047148Y0250567D01*
X0047103Y0250621D01*
X0047061Y0250677D01*
X0047022Y0250735D01*
X0046986Y0250795D01*
X0046954Y0250858D01*
X0046925Y0250922D01*
X0046900Y0250987D01*
X0046879Y0251054D01*
X0046861Y0251122D01*
X0046848Y0251191D01*
X0046838Y0251260D01*
X0046832Y0251330D01*
X0046830Y0251400D01*
X0046830Y0256400D02*
X0046832Y0256470D01*
X0046838Y0256540D01*
X0046848Y0256609D01*
X0046861Y0256678D01*
X0046879Y0256746D01*
X0046900Y0256813D01*
X0046925Y0256878D01*
X0046954Y0256942D01*
X0046986Y0257005D01*
X0047022Y0257065D01*
X0047061Y0257123D01*
X0047103Y0257179D01*
X0047148Y0257233D01*
X0047196Y0257284D01*
X0047247Y0257332D01*
X0047301Y0257377D01*
X0047357Y0257419D01*
X0047415Y0257458D01*
X0047475Y0257494D01*
X0047538Y0257526D01*
X0047602Y0257555D01*
X0047667Y0257580D01*
X0047734Y0257601D01*
X0047802Y0257619D01*
X0047871Y0257632D01*
X0047940Y0257642D01*
X0048010Y0257648D01*
X0048080Y0257650D01*
X0048150Y0257648D01*
X0048220Y0257642D01*
X0048289Y0257632D01*
X0048358Y0257619D01*
X0048426Y0257601D01*
X0048493Y0257580D01*
X0048558Y0257555D01*
X0048622Y0257526D01*
X0048685Y0257494D01*
X0048745Y0257458D01*
X0048803Y0257419D01*
X0048859Y0257377D01*
X0048913Y0257332D01*
X0048964Y0257284D01*
X0049012Y0257233D01*
X0049057Y0257179D01*
X0049099Y0257123D01*
X0049138Y0257065D01*
X0049174Y0257005D01*
X0049206Y0256942D01*
X0049235Y0256878D01*
X0049260Y0256813D01*
X0049281Y0256746D01*
X0049299Y0256678D01*
X0049312Y0256609D01*
X0049322Y0256540D01*
X0049328Y0256470D01*
X0049330Y0256400D01*
X0049328Y0256330D01*
X0049322Y0256260D01*
X0049312Y0256191D01*
X0049299Y0256122D01*
X0049281Y0256054D01*
X0049260Y0255987D01*
X0049235Y0255922D01*
X0049206Y0255858D01*
X0049174Y0255795D01*
X0049138Y0255735D01*
X0049099Y0255677D01*
X0049057Y0255621D01*
X0049012Y0255567D01*
X0048964Y0255516D01*
X0048913Y0255468D01*
X0048859Y0255423D01*
X0048803Y0255381D01*
X0048745Y0255342D01*
X0048685Y0255306D01*
X0048622Y0255274D01*
X0048558Y0255245D01*
X0048493Y0255220D01*
X0048426Y0255199D01*
X0048358Y0255181D01*
X0048289Y0255168D01*
X0048220Y0255158D01*
X0048150Y0255152D01*
X0048080Y0255150D01*
X0048010Y0255152D01*
X0047940Y0255158D01*
X0047871Y0255168D01*
X0047802Y0255181D01*
X0047734Y0255199D01*
X0047667Y0255220D01*
X0047602Y0255245D01*
X0047538Y0255274D01*
X0047475Y0255306D01*
X0047415Y0255342D01*
X0047357Y0255381D01*
X0047301Y0255423D01*
X0047247Y0255468D01*
X0047196Y0255516D01*
X0047148Y0255567D01*
X0047103Y0255621D01*
X0047061Y0255677D01*
X0047022Y0255735D01*
X0046986Y0255795D01*
X0046954Y0255858D01*
X0046925Y0255922D01*
X0046900Y0255987D01*
X0046879Y0256054D01*
X0046861Y0256122D01*
X0046848Y0256191D01*
X0046838Y0256260D01*
X0046832Y0256330D01*
X0046830Y0256400D01*
X0046830Y0261400D02*
X0046832Y0261470D01*
X0046838Y0261540D01*
X0046848Y0261609D01*
X0046861Y0261678D01*
X0046879Y0261746D01*
X0046900Y0261813D01*
X0046925Y0261878D01*
X0046954Y0261942D01*
X0046986Y0262005D01*
X0047022Y0262065D01*
X0047061Y0262123D01*
X0047103Y0262179D01*
X0047148Y0262233D01*
X0047196Y0262284D01*
X0047247Y0262332D01*
X0047301Y0262377D01*
X0047357Y0262419D01*
X0047415Y0262458D01*
X0047475Y0262494D01*
X0047538Y0262526D01*
X0047602Y0262555D01*
X0047667Y0262580D01*
X0047734Y0262601D01*
X0047802Y0262619D01*
X0047871Y0262632D01*
X0047940Y0262642D01*
X0048010Y0262648D01*
X0048080Y0262650D01*
X0048150Y0262648D01*
X0048220Y0262642D01*
X0048289Y0262632D01*
X0048358Y0262619D01*
X0048426Y0262601D01*
X0048493Y0262580D01*
X0048558Y0262555D01*
X0048622Y0262526D01*
X0048685Y0262494D01*
X0048745Y0262458D01*
X0048803Y0262419D01*
X0048859Y0262377D01*
X0048913Y0262332D01*
X0048964Y0262284D01*
X0049012Y0262233D01*
X0049057Y0262179D01*
X0049099Y0262123D01*
X0049138Y0262065D01*
X0049174Y0262005D01*
X0049206Y0261942D01*
X0049235Y0261878D01*
X0049260Y0261813D01*
X0049281Y0261746D01*
X0049299Y0261678D01*
X0049312Y0261609D01*
X0049322Y0261540D01*
X0049328Y0261470D01*
X0049330Y0261400D01*
X0049328Y0261330D01*
X0049322Y0261260D01*
X0049312Y0261191D01*
X0049299Y0261122D01*
X0049281Y0261054D01*
X0049260Y0260987D01*
X0049235Y0260922D01*
X0049206Y0260858D01*
X0049174Y0260795D01*
X0049138Y0260735D01*
X0049099Y0260677D01*
X0049057Y0260621D01*
X0049012Y0260567D01*
X0048964Y0260516D01*
X0048913Y0260468D01*
X0048859Y0260423D01*
X0048803Y0260381D01*
X0048745Y0260342D01*
X0048685Y0260306D01*
X0048622Y0260274D01*
X0048558Y0260245D01*
X0048493Y0260220D01*
X0048426Y0260199D01*
X0048358Y0260181D01*
X0048289Y0260168D01*
X0048220Y0260158D01*
X0048150Y0260152D01*
X0048080Y0260150D01*
X0048010Y0260152D01*
X0047940Y0260158D01*
X0047871Y0260168D01*
X0047802Y0260181D01*
X0047734Y0260199D01*
X0047667Y0260220D01*
X0047602Y0260245D01*
X0047538Y0260274D01*
X0047475Y0260306D01*
X0047415Y0260342D01*
X0047357Y0260381D01*
X0047301Y0260423D01*
X0047247Y0260468D01*
X0047196Y0260516D01*
X0047148Y0260567D01*
X0047103Y0260621D01*
X0047061Y0260677D01*
X0047022Y0260735D01*
X0046986Y0260795D01*
X0046954Y0260858D01*
X0046925Y0260922D01*
X0046900Y0260987D01*
X0046879Y0261054D01*
X0046861Y0261122D01*
X0046848Y0261191D01*
X0046838Y0261260D01*
X0046832Y0261330D01*
X0046830Y0261400D01*
X0046830Y0266400D02*
X0046832Y0266470D01*
X0046838Y0266540D01*
X0046848Y0266609D01*
X0046861Y0266678D01*
X0046879Y0266746D01*
X0046900Y0266813D01*
X0046925Y0266878D01*
X0046954Y0266942D01*
X0046986Y0267005D01*
X0047022Y0267065D01*
X0047061Y0267123D01*
X0047103Y0267179D01*
X0047148Y0267233D01*
X0047196Y0267284D01*
X0047247Y0267332D01*
X0047301Y0267377D01*
X0047357Y0267419D01*
X0047415Y0267458D01*
X0047475Y0267494D01*
X0047538Y0267526D01*
X0047602Y0267555D01*
X0047667Y0267580D01*
X0047734Y0267601D01*
X0047802Y0267619D01*
X0047871Y0267632D01*
X0047940Y0267642D01*
X0048010Y0267648D01*
X0048080Y0267650D01*
X0048150Y0267648D01*
X0048220Y0267642D01*
X0048289Y0267632D01*
X0048358Y0267619D01*
X0048426Y0267601D01*
X0048493Y0267580D01*
X0048558Y0267555D01*
X0048622Y0267526D01*
X0048685Y0267494D01*
X0048745Y0267458D01*
X0048803Y0267419D01*
X0048859Y0267377D01*
X0048913Y0267332D01*
X0048964Y0267284D01*
X0049012Y0267233D01*
X0049057Y0267179D01*
X0049099Y0267123D01*
X0049138Y0267065D01*
X0049174Y0267005D01*
X0049206Y0266942D01*
X0049235Y0266878D01*
X0049260Y0266813D01*
X0049281Y0266746D01*
X0049299Y0266678D01*
X0049312Y0266609D01*
X0049322Y0266540D01*
X0049328Y0266470D01*
X0049330Y0266400D01*
X0049328Y0266330D01*
X0049322Y0266260D01*
X0049312Y0266191D01*
X0049299Y0266122D01*
X0049281Y0266054D01*
X0049260Y0265987D01*
X0049235Y0265922D01*
X0049206Y0265858D01*
X0049174Y0265795D01*
X0049138Y0265735D01*
X0049099Y0265677D01*
X0049057Y0265621D01*
X0049012Y0265567D01*
X0048964Y0265516D01*
X0048913Y0265468D01*
X0048859Y0265423D01*
X0048803Y0265381D01*
X0048745Y0265342D01*
X0048685Y0265306D01*
X0048622Y0265274D01*
X0048558Y0265245D01*
X0048493Y0265220D01*
X0048426Y0265199D01*
X0048358Y0265181D01*
X0048289Y0265168D01*
X0048220Y0265158D01*
X0048150Y0265152D01*
X0048080Y0265150D01*
X0048010Y0265152D01*
X0047940Y0265158D01*
X0047871Y0265168D01*
X0047802Y0265181D01*
X0047734Y0265199D01*
X0047667Y0265220D01*
X0047602Y0265245D01*
X0047538Y0265274D01*
X0047475Y0265306D01*
X0047415Y0265342D01*
X0047357Y0265381D01*
X0047301Y0265423D01*
X0047247Y0265468D01*
X0047196Y0265516D01*
X0047148Y0265567D01*
X0047103Y0265621D01*
X0047061Y0265677D01*
X0047022Y0265735D01*
X0046986Y0265795D01*
X0046954Y0265858D01*
X0046925Y0265922D01*
X0046900Y0265987D01*
X0046879Y0266054D01*
X0046861Y0266122D01*
X0046848Y0266191D01*
X0046838Y0266260D01*
X0046832Y0266330D01*
X0046830Y0266400D01*
X0046830Y0271400D02*
X0046832Y0271470D01*
X0046838Y0271540D01*
X0046848Y0271609D01*
X0046861Y0271678D01*
X0046879Y0271746D01*
X0046900Y0271813D01*
X0046925Y0271878D01*
X0046954Y0271942D01*
X0046986Y0272005D01*
X0047022Y0272065D01*
X0047061Y0272123D01*
X0047103Y0272179D01*
X0047148Y0272233D01*
X0047196Y0272284D01*
X0047247Y0272332D01*
X0047301Y0272377D01*
X0047357Y0272419D01*
X0047415Y0272458D01*
X0047475Y0272494D01*
X0047538Y0272526D01*
X0047602Y0272555D01*
X0047667Y0272580D01*
X0047734Y0272601D01*
X0047802Y0272619D01*
X0047871Y0272632D01*
X0047940Y0272642D01*
X0048010Y0272648D01*
X0048080Y0272650D01*
X0048150Y0272648D01*
X0048220Y0272642D01*
X0048289Y0272632D01*
X0048358Y0272619D01*
X0048426Y0272601D01*
X0048493Y0272580D01*
X0048558Y0272555D01*
X0048622Y0272526D01*
X0048685Y0272494D01*
X0048745Y0272458D01*
X0048803Y0272419D01*
X0048859Y0272377D01*
X0048913Y0272332D01*
X0048964Y0272284D01*
X0049012Y0272233D01*
X0049057Y0272179D01*
X0049099Y0272123D01*
X0049138Y0272065D01*
X0049174Y0272005D01*
X0049206Y0271942D01*
X0049235Y0271878D01*
X0049260Y0271813D01*
X0049281Y0271746D01*
X0049299Y0271678D01*
X0049312Y0271609D01*
X0049322Y0271540D01*
X0049328Y0271470D01*
X0049330Y0271400D01*
X0049328Y0271330D01*
X0049322Y0271260D01*
X0049312Y0271191D01*
X0049299Y0271122D01*
X0049281Y0271054D01*
X0049260Y0270987D01*
X0049235Y0270922D01*
X0049206Y0270858D01*
X0049174Y0270795D01*
X0049138Y0270735D01*
X0049099Y0270677D01*
X0049057Y0270621D01*
X0049012Y0270567D01*
X0048964Y0270516D01*
X0048913Y0270468D01*
X0048859Y0270423D01*
X0048803Y0270381D01*
X0048745Y0270342D01*
X0048685Y0270306D01*
X0048622Y0270274D01*
X0048558Y0270245D01*
X0048493Y0270220D01*
X0048426Y0270199D01*
X0048358Y0270181D01*
X0048289Y0270168D01*
X0048220Y0270158D01*
X0048150Y0270152D01*
X0048080Y0270150D01*
X0048010Y0270152D01*
X0047940Y0270158D01*
X0047871Y0270168D01*
X0047802Y0270181D01*
X0047734Y0270199D01*
X0047667Y0270220D01*
X0047602Y0270245D01*
X0047538Y0270274D01*
X0047475Y0270306D01*
X0047415Y0270342D01*
X0047357Y0270381D01*
X0047301Y0270423D01*
X0047247Y0270468D01*
X0047196Y0270516D01*
X0047148Y0270567D01*
X0047103Y0270621D01*
X0047061Y0270677D01*
X0047022Y0270735D01*
X0046986Y0270795D01*
X0046954Y0270858D01*
X0046925Y0270922D01*
X0046900Y0270987D01*
X0046879Y0271054D01*
X0046861Y0271122D01*
X0046848Y0271191D01*
X0046838Y0271260D01*
X0046832Y0271330D01*
X0046830Y0271400D01*
X0046830Y0276400D02*
X0046832Y0276470D01*
X0046838Y0276540D01*
X0046848Y0276609D01*
X0046861Y0276678D01*
X0046879Y0276746D01*
X0046900Y0276813D01*
X0046925Y0276878D01*
X0046954Y0276942D01*
X0046986Y0277005D01*
X0047022Y0277065D01*
X0047061Y0277123D01*
X0047103Y0277179D01*
X0047148Y0277233D01*
X0047196Y0277284D01*
X0047247Y0277332D01*
X0047301Y0277377D01*
X0047357Y0277419D01*
X0047415Y0277458D01*
X0047475Y0277494D01*
X0047538Y0277526D01*
X0047602Y0277555D01*
X0047667Y0277580D01*
X0047734Y0277601D01*
X0047802Y0277619D01*
X0047871Y0277632D01*
X0047940Y0277642D01*
X0048010Y0277648D01*
X0048080Y0277650D01*
X0048150Y0277648D01*
X0048220Y0277642D01*
X0048289Y0277632D01*
X0048358Y0277619D01*
X0048426Y0277601D01*
X0048493Y0277580D01*
X0048558Y0277555D01*
X0048622Y0277526D01*
X0048685Y0277494D01*
X0048745Y0277458D01*
X0048803Y0277419D01*
X0048859Y0277377D01*
X0048913Y0277332D01*
X0048964Y0277284D01*
X0049012Y0277233D01*
X0049057Y0277179D01*
X0049099Y0277123D01*
X0049138Y0277065D01*
X0049174Y0277005D01*
X0049206Y0276942D01*
X0049235Y0276878D01*
X0049260Y0276813D01*
X0049281Y0276746D01*
X0049299Y0276678D01*
X0049312Y0276609D01*
X0049322Y0276540D01*
X0049328Y0276470D01*
X0049330Y0276400D01*
X0049328Y0276330D01*
X0049322Y0276260D01*
X0049312Y0276191D01*
X0049299Y0276122D01*
X0049281Y0276054D01*
X0049260Y0275987D01*
X0049235Y0275922D01*
X0049206Y0275858D01*
X0049174Y0275795D01*
X0049138Y0275735D01*
X0049099Y0275677D01*
X0049057Y0275621D01*
X0049012Y0275567D01*
X0048964Y0275516D01*
X0048913Y0275468D01*
X0048859Y0275423D01*
X0048803Y0275381D01*
X0048745Y0275342D01*
X0048685Y0275306D01*
X0048622Y0275274D01*
X0048558Y0275245D01*
X0048493Y0275220D01*
X0048426Y0275199D01*
X0048358Y0275181D01*
X0048289Y0275168D01*
X0048220Y0275158D01*
X0048150Y0275152D01*
X0048080Y0275150D01*
X0048010Y0275152D01*
X0047940Y0275158D01*
X0047871Y0275168D01*
X0047802Y0275181D01*
X0047734Y0275199D01*
X0047667Y0275220D01*
X0047602Y0275245D01*
X0047538Y0275274D01*
X0047475Y0275306D01*
X0047415Y0275342D01*
X0047357Y0275381D01*
X0047301Y0275423D01*
X0047247Y0275468D01*
X0047196Y0275516D01*
X0047148Y0275567D01*
X0047103Y0275621D01*
X0047061Y0275677D01*
X0047022Y0275735D01*
X0046986Y0275795D01*
X0046954Y0275858D01*
X0046925Y0275922D01*
X0046900Y0275987D01*
X0046879Y0276054D01*
X0046861Y0276122D01*
X0046848Y0276191D01*
X0046838Y0276260D01*
X0046832Y0276330D01*
X0046830Y0276400D01*
X0046830Y0316400D02*
X0046832Y0316470D01*
X0046838Y0316540D01*
X0046848Y0316609D01*
X0046861Y0316678D01*
X0046879Y0316746D01*
X0046900Y0316813D01*
X0046925Y0316878D01*
X0046954Y0316942D01*
X0046986Y0317005D01*
X0047022Y0317065D01*
X0047061Y0317123D01*
X0047103Y0317179D01*
X0047148Y0317233D01*
X0047196Y0317284D01*
X0047247Y0317332D01*
X0047301Y0317377D01*
X0047357Y0317419D01*
X0047415Y0317458D01*
X0047475Y0317494D01*
X0047538Y0317526D01*
X0047602Y0317555D01*
X0047667Y0317580D01*
X0047734Y0317601D01*
X0047802Y0317619D01*
X0047871Y0317632D01*
X0047940Y0317642D01*
X0048010Y0317648D01*
X0048080Y0317650D01*
X0048150Y0317648D01*
X0048220Y0317642D01*
X0048289Y0317632D01*
X0048358Y0317619D01*
X0048426Y0317601D01*
X0048493Y0317580D01*
X0048558Y0317555D01*
X0048622Y0317526D01*
X0048685Y0317494D01*
X0048745Y0317458D01*
X0048803Y0317419D01*
X0048859Y0317377D01*
X0048913Y0317332D01*
X0048964Y0317284D01*
X0049012Y0317233D01*
X0049057Y0317179D01*
X0049099Y0317123D01*
X0049138Y0317065D01*
X0049174Y0317005D01*
X0049206Y0316942D01*
X0049235Y0316878D01*
X0049260Y0316813D01*
X0049281Y0316746D01*
X0049299Y0316678D01*
X0049312Y0316609D01*
X0049322Y0316540D01*
X0049328Y0316470D01*
X0049330Y0316400D01*
X0049328Y0316330D01*
X0049322Y0316260D01*
X0049312Y0316191D01*
X0049299Y0316122D01*
X0049281Y0316054D01*
X0049260Y0315987D01*
X0049235Y0315922D01*
X0049206Y0315858D01*
X0049174Y0315795D01*
X0049138Y0315735D01*
X0049099Y0315677D01*
X0049057Y0315621D01*
X0049012Y0315567D01*
X0048964Y0315516D01*
X0048913Y0315468D01*
X0048859Y0315423D01*
X0048803Y0315381D01*
X0048745Y0315342D01*
X0048685Y0315306D01*
X0048622Y0315274D01*
X0048558Y0315245D01*
X0048493Y0315220D01*
X0048426Y0315199D01*
X0048358Y0315181D01*
X0048289Y0315168D01*
X0048220Y0315158D01*
X0048150Y0315152D01*
X0048080Y0315150D01*
X0048010Y0315152D01*
X0047940Y0315158D01*
X0047871Y0315168D01*
X0047802Y0315181D01*
X0047734Y0315199D01*
X0047667Y0315220D01*
X0047602Y0315245D01*
X0047538Y0315274D01*
X0047475Y0315306D01*
X0047415Y0315342D01*
X0047357Y0315381D01*
X0047301Y0315423D01*
X0047247Y0315468D01*
X0047196Y0315516D01*
X0047148Y0315567D01*
X0047103Y0315621D01*
X0047061Y0315677D01*
X0047022Y0315735D01*
X0046986Y0315795D01*
X0046954Y0315858D01*
X0046925Y0315922D01*
X0046900Y0315987D01*
X0046879Y0316054D01*
X0046861Y0316122D01*
X0046848Y0316191D01*
X0046838Y0316260D01*
X0046832Y0316330D01*
X0046830Y0316400D01*
X0046830Y0321400D02*
X0046832Y0321470D01*
X0046838Y0321540D01*
X0046848Y0321609D01*
X0046861Y0321678D01*
X0046879Y0321746D01*
X0046900Y0321813D01*
X0046925Y0321878D01*
X0046954Y0321942D01*
X0046986Y0322005D01*
X0047022Y0322065D01*
X0047061Y0322123D01*
X0047103Y0322179D01*
X0047148Y0322233D01*
X0047196Y0322284D01*
X0047247Y0322332D01*
X0047301Y0322377D01*
X0047357Y0322419D01*
X0047415Y0322458D01*
X0047475Y0322494D01*
X0047538Y0322526D01*
X0047602Y0322555D01*
X0047667Y0322580D01*
X0047734Y0322601D01*
X0047802Y0322619D01*
X0047871Y0322632D01*
X0047940Y0322642D01*
X0048010Y0322648D01*
X0048080Y0322650D01*
X0048150Y0322648D01*
X0048220Y0322642D01*
X0048289Y0322632D01*
X0048358Y0322619D01*
X0048426Y0322601D01*
X0048493Y0322580D01*
X0048558Y0322555D01*
X0048622Y0322526D01*
X0048685Y0322494D01*
X0048745Y0322458D01*
X0048803Y0322419D01*
X0048859Y0322377D01*
X0048913Y0322332D01*
X0048964Y0322284D01*
X0049012Y0322233D01*
X0049057Y0322179D01*
X0049099Y0322123D01*
X0049138Y0322065D01*
X0049174Y0322005D01*
X0049206Y0321942D01*
X0049235Y0321878D01*
X0049260Y0321813D01*
X0049281Y0321746D01*
X0049299Y0321678D01*
X0049312Y0321609D01*
X0049322Y0321540D01*
X0049328Y0321470D01*
X0049330Y0321400D01*
X0049328Y0321330D01*
X0049322Y0321260D01*
X0049312Y0321191D01*
X0049299Y0321122D01*
X0049281Y0321054D01*
X0049260Y0320987D01*
X0049235Y0320922D01*
X0049206Y0320858D01*
X0049174Y0320795D01*
X0049138Y0320735D01*
X0049099Y0320677D01*
X0049057Y0320621D01*
X0049012Y0320567D01*
X0048964Y0320516D01*
X0048913Y0320468D01*
X0048859Y0320423D01*
X0048803Y0320381D01*
X0048745Y0320342D01*
X0048685Y0320306D01*
X0048622Y0320274D01*
X0048558Y0320245D01*
X0048493Y0320220D01*
X0048426Y0320199D01*
X0048358Y0320181D01*
X0048289Y0320168D01*
X0048220Y0320158D01*
X0048150Y0320152D01*
X0048080Y0320150D01*
X0048010Y0320152D01*
X0047940Y0320158D01*
X0047871Y0320168D01*
X0047802Y0320181D01*
X0047734Y0320199D01*
X0047667Y0320220D01*
X0047602Y0320245D01*
X0047538Y0320274D01*
X0047475Y0320306D01*
X0047415Y0320342D01*
X0047357Y0320381D01*
X0047301Y0320423D01*
X0047247Y0320468D01*
X0047196Y0320516D01*
X0047148Y0320567D01*
X0047103Y0320621D01*
X0047061Y0320677D01*
X0047022Y0320735D01*
X0046986Y0320795D01*
X0046954Y0320858D01*
X0046925Y0320922D01*
X0046900Y0320987D01*
X0046879Y0321054D01*
X0046861Y0321122D01*
X0046848Y0321191D01*
X0046838Y0321260D01*
X0046832Y0321330D01*
X0046830Y0321400D01*
X0046830Y0326400D02*
X0046832Y0326470D01*
X0046838Y0326540D01*
X0046848Y0326609D01*
X0046861Y0326678D01*
X0046879Y0326746D01*
X0046900Y0326813D01*
X0046925Y0326878D01*
X0046954Y0326942D01*
X0046986Y0327005D01*
X0047022Y0327065D01*
X0047061Y0327123D01*
X0047103Y0327179D01*
X0047148Y0327233D01*
X0047196Y0327284D01*
X0047247Y0327332D01*
X0047301Y0327377D01*
X0047357Y0327419D01*
X0047415Y0327458D01*
X0047475Y0327494D01*
X0047538Y0327526D01*
X0047602Y0327555D01*
X0047667Y0327580D01*
X0047734Y0327601D01*
X0047802Y0327619D01*
X0047871Y0327632D01*
X0047940Y0327642D01*
X0048010Y0327648D01*
X0048080Y0327650D01*
X0048150Y0327648D01*
X0048220Y0327642D01*
X0048289Y0327632D01*
X0048358Y0327619D01*
X0048426Y0327601D01*
X0048493Y0327580D01*
X0048558Y0327555D01*
X0048622Y0327526D01*
X0048685Y0327494D01*
X0048745Y0327458D01*
X0048803Y0327419D01*
X0048859Y0327377D01*
X0048913Y0327332D01*
X0048964Y0327284D01*
X0049012Y0327233D01*
X0049057Y0327179D01*
X0049099Y0327123D01*
X0049138Y0327065D01*
X0049174Y0327005D01*
X0049206Y0326942D01*
X0049235Y0326878D01*
X0049260Y0326813D01*
X0049281Y0326746D01*
X0049299Y0326678D01*
X0049312Y0326609D01*
X0049322Y0326540D01*
X0049328Y0326470D01*
X0049330Y0326400D01*
X0049328Y0326330D01*
X0049322Y0326260D01*
X0049312Y0326191D01*
X0049299Y0326122D01*
X0049281Y0326054D01*
X0049260Y0325987D01*
X0049235Y0325922D01*
X0049206Y0325858D01*
X0049174Y0325795D01*
X0049138Y0325735D01*
X0049099Y0325677D01*
X0049057Y0325621D01*
X0049012Y0325567D01*
X0048964Y0325516D01*
X0048913Y0325468D01*
X0048859Y0325423D01*
X0048803Y0325381D01*
X0048745Y0325342D01*
X0048685Y0325306D01*
X0048622Y0325274D01*
X0048558Y0325245D01*
X0048493Y0325220D01*
X0048426Y0325199D01*
X0048358Y0325181D01*
X0048289Y0325168D01*
X0048220Y0325158D01*
X0048150Y0325152D01*
X0048080Y0325150D01*
X0048010Y0325152D01*
X0047940Y0325158D01*
X0047871Y0325168D01*
X0047802Y0325181D01*
X0047734Y0325199D01*
X0047667Y0325220D01*
X0047602Y0325245D01*
X0047538Y0325274D01*
X0047475Y0325306D01*
X0047415Y0325342D01*
X0047357Y0325381D01*
X0047301Y0325423D01*
X0047247Y0325468D01*
X0047196Y0325516D01*
X0047148Y0325567D01*
X0047103Y0325621D01*
X0047061Y0325677D01*
X0047022Y0325735D01*
X0046986Y0325795D01*
X0046954Y0325858D01*
X0046925Y0325922D01*
X0046900Y0325987D01*
X0046879Y0326054D01*
X0046861Y0326122D01*
X0046848Y0326191D01*
X0046838Y0326260D01*
X0046832Y0326330D01*
X0046830Y0326400D01*
X0046830Y0331400D02*
X0046832Y0331470D01*
X0046838Y0331540D01*
X0046848Y0331609D01*
X0046861Y0331678D01*
X0046879Y0331746D01*
X0046900Y0331813D01*
X0046925Y0331878D01*
X0046954Y0331942D01*
X0046986Y0332005D01*
X0047022Y0332065D01*
X0047061Y0332123D01*
X0047103Y0332179D01*
X0047148Y0332233D01*
X0047196Y0332284D01*
X0047247Y0332332D01*
X0047301Y0332377D01*
X0047357Y0332419D01*
X0047415Y0332458D01*
X0047475Y0332494D01*
X0047538Y0332526D01*
X0047602Y0332555D01*
X0047667Y0332580D01*
X0047734Y0332601D01*
X0047802Y0332619D01*
X0047871Y0332632D01*
X0047940Y0332642D01*
X0048010Y0332648D01*
X0048080Y0332650D01*
X0048150Y0332648D01*
X0048220Y0332642D01*
X0048289Y0332632D01*
X0048358Y0332619D01*
X0048426Y0332601D01*
X0048493Y0332580D01*
X0048558Y0332555D01*
X0048622Y0332526D01*
X0048685Y0332494D01*
X0048745Y0332458D01*
X0048803Y0332419D01*
X0048859Y0332377D01*
X0048913Y0332332D01*
X0048964Y0332284D01*
X0049012Y0332233D01*
X0049057Y0332179D01*
X0049099Y0332123D01*
X0049138Y0332065D01*
X0049174Y0332005D01*
X0049206Y0331942D01*
X0049235Y0331878D01*
X0049260Y0331813D01*
X0049281Y0331746D01*
X0049299Y0331678D01*
X0049312Y0331609D01*
X0049322Y0331540D01*
X0049328Y0331470D01*
X0049330Y0331400D01*
X0049328Y0331330D01*
X0049322Y0331260D01*
X0049312Y0331191D01*
X0049299Y0331122D01*
X0049281Y0331054D01*
X0049260Y0330987D01*
X0049235Y0330922D01*
X0049206Y0330858D01*
X0049174Y0330795D01*
X0049138Y0330735D01*
X0049099Y0330677D01*
X0049057Y0330621D01*
X0049012Y0330567D01*
X0048964Y0330516D01*
X0048913Y0330468D01*
X0048859Y0330423D01*
X0048803Y0330381D01*
X0048745Y0330342D01*
X0048685Y0330306D01*
X0048622Y0330274D01*
X0048558Y0330245D01*
X0048493Y0330220D01*
X0048426Y0330199D01*
X0048358Y0330181D01*
X0048289Y0330168D01*
X0048220Y0330158D01*
X0048150Y0330152D01*
X0048080Y0330150D01*
X0048010Y0330152D01*
X0047940Y0330158D01*
X0047871Y0330168D01*
X0047802Y0330181D01*
X0047734Y0330199D01*
X0047667Y0330220D01*
X0047602Y0330245D01*
X0047538Y0330274D01*
X0047475Y0330306D01*
X0047415Y0330342D01*
X0047357Y0330381D01*
X0047301Y0330423D01*
X0047247Y0330468D01*
X0047196Y0330516D01*
X0047148Y0330567D01*
X0047103Y0330621D01*
X0047061Y0330677D01*
X0047022Y0330735D01*
X0046986Y0330795D01*
X0046954Y0330858D01*
X0046925Y0330922D01*
X0046900Y0330987D01*
X0046879Y0331054D01*
X0046861Y0331122D01*
X0046848Y0331191D01*
X0046838Y0331260D01*
X0046832Y0331330D01*
X0046830Y0331400D01*
X0046830Y0336400D02*
X0046832Y0336470D01*
X0046838Y0336540D01*
X0046848Y0336609D01*
X0046861Y0336678D01*
X0046879Y0336746D01*
X0046900Y0336813D01*
X0046925Y0336878D01*
X0046954Y0336942D01*
X0046986Y0337005D01*
X0047022Y0337065D01*
X0047061Y0337123D01*
X0047103Y0337179D01*
X0047148Y0337233D01*
X0047196Y0337284D01*
X0047247Y0337332D01*
X0047301Y0337377D01*
X0047357Y0337419D01*
X0047415Y0337458D01*
X0047475Y0337494D01*
X0047538Y0337526D01*
X0047602Y0337555D01*
X0047667Y0337580D01*
X0047734Y0337601D01*
X0047802Y0337619D01*
X0047871Y0337632D01*
X0047940Y0337642D01*
X0048010Y0337648D01*
X0048080Y0337650D01*
X0048150Y0337648D01*
X0048220Y0337642D01*
X0048289Y0337632D01*
X0048358Y0337619D01*
X0048426Y0337601D01*
X0048493Y0337580D01*
X0048558Y0337555D01*
X0048622Y0337526D01*
X0048685Y0337494D01*
X0048745Y0337458D01*
X0048803Y0337419D01*
X0048859Y0337377D01*
X0048913Y0337332D01*
X0048964Y0337284D01*
X0049012Y0337233D01*
X0049057Y0337179D01*
X0049099Y0337123D01*
X0049138Y0337065D01*
X0049174Y0337005D01*
X0049206Y0336942D01*
X0049235Y0336878D01*
X0049260Y0336813D01*
X0049281Y0336746D01*
X0049299Y0336678D01*
X0049312Y0336609D01*
X0049322Y0336540D01*
X0049328Y0336470D01*
X0049330Y0336400D01*
X0049328Y0336330D01*
X0049322Y0336260D01*
X0049312Y0336191D01*
X0049299Y0336122D01*
X0049281Y0336054D01*
X0049260Y0335987D01*
X0049235Y0335922D01*
X0049206Y0335858D01*
X0049174Y0335795D01*
X0049138Y0335735D01*
X0049099Y0335677D01*
X0049057Y0335621D01*
X0049012Y0335567D01*
X0048964Y0335516D01*
X0048913Y0335468D01*
X0048859Y0335423D01*
X0048803Y0335381D01*
X0048745Y0335342D01*
X0048685Y0335306D01*
X0048622Y0335274D01*
X0048558Y0335245D01*
X0048493Y0335220D01*
X0048426Y0335199D01*
X0048358Y0335181D01*
X0048289Y0335168D01*
X0048220Y0335158D01*
X0048150Y0335152D01*
X0048080Y0335150D01*
X0048010Y0335152D01*
X0047940Y0335158D01*
X0047871Y0335168D01*
X0047802Y0335181D01*
X0047734Y0335199D01*
X0047667Y0335220D01*
X0047602Y0335245D01*
X0047538Y0335274D01*
X0047475Y0335306D01*
X0047415Y0335342D01*
X0047357Y0335381D01*
X0047301Y0335423D01*
X0047247Y0335468D01*
X0047196Y0335516D01*
X0047148Y0335567D01*
X0047103Y0335621D01*
X0047061Y0335677D01*
X0047022Y0335735D01*
X0046986Y0335795D01*
X0046954Y0335858D01*
X0046925Y0335922D01*
X0046900Y0335987D01*
X0046879Y0336054D01*
X0046861Y0336122D01*
X0046848Y0336191D01*
X0046838Y0336260D01*
X0046832Y0336330D01*
X0046830Y0336400D01*
X0046830Y0341400D02*
X0046832Y0341470D01*
X0046838Y0341540D01*
X0046848Y0341609D01*
X0046861Y0341678D01*
X0046879Y0341746D01*
X0046900Y0341813D01*
X0046925Y0341878D01*
X0046954Y0341942D01*
X0046986Y0342005D01*
X0047022Y0342065D01*
X0047061Y0342123D01*
X0047103Y0342179D01*
X0047148Y0342233D01*
X0047196Y0342284D01*
X0047247Y0342332D01*
X0047301Y0342377D01*
X0047357Y0342419D01*
X0047415Y0342458D01*
X0047475Y0342494D01*
X0047538Y0342526D01*
X0047602Y0342555D01*
X0047667Y0342580D01*
X0047734Y0342601D01*
X0047802Y0342619D01*
X0047871Y0342632D01*
X0047940Y0342642D01*
X0048010Y0342648D01*
X0048080Y0342650D01*
X0048150Y0342648D01*
X0048220Y0342642D01*
X0048289Y0342632D01*
X0048358Y0342619D01*
X0048426Y0342601D01*
X0048493Y0342580D01*
X0048558Y0342555D01*
X0048622Y0342526D01*
X0048685Y0342494D01*
X0048745Y0342458D01*
X0048803Y0342419D01*
X0048859Y0342377D01*
X0048913Y0342332D01*
X0048964Y0342284D01*
X0049012Y0342233D01*
X0049057Y0342179D01*
X0049099Y0342123D01*
X0049138Y0342065D01*
X0049174Y0342005D01*
X0049206Y0341942D01*
X0049235Y0341878D01*
X0049260Y0341813D01*
X0049281Y0341746D01*
X0049299Y0341678D01*
X0049312Y0341609D01*
X0049322Y0341540D01*
X0049328Y0341470D01*
X0049330Y0341400D01*
X0049328Y0341330D01*
X0049322Y0341260D01*
X0049312Y0341191D01*
X0049299Y0341122D01*
X0049281Y0341054D01*
X0049260Y0340987D01*
X0049235Y0340922D01*
X0049206Y0340858D01*
X0049174Y0340795D01*
X0049138Y0340735D01*
X0049099Y0340677D01*
X0049057Y0340621D01*
X0049012Y0340567D01*
X0048964Y0340516D01*
X0048913Y0340468D01*
X0048859Y0340423D01*
X0048803Y0340381D01*
X0048745Y0340342D01*
X0048685Y0340306D01*
X0048622Y0340274D01*
X0048558Y0340245D01*
X0048493Y0340220D01*
X0048426Y0340199D01*
X0048358Y0340181D01*
X0048289Y0340168D01*
X0048220Y0340158D01*
X0048150Y0340152D01*
X0048080Y0340150D01*
X0048010Y0340152D01*
X0047940Y0340158D01*
X0047871Y0340168D01*
X0047802Y0340181D01*
X0047734Y0340199D01*
X0047667Y0340220D01*
X0047602Y0340245D01*
X0047538Y0340274D01*
X0047475Y0340306D01*
X0047415Y0340342D01*
X0047357Y0340381D01*
X0047301Y0340423D01*
X0047247Y0340468D01*
X0047196Y0340516D01*
X0047148Y0340567D01*
X0047103Y0340621D01*
X0047061Y0340677D01*
X0047022Y0340735D01*
X0046986Y0340795D01*
X0046954Y0340858D01*
X0046925Y0340922D01*
X0046900Y0340987D01*
X0046879Y0341054D01*
X0046861Y0341122D01*
X0046848Y0341191D01*
X0046838Y0341260D01*
X0046832Y0341330D01*
X0046830Y0341400D01*
X0046830Y0346400D02*
X0046832Y0346470D01*
X0046838Y0346540D01*
X0046848Y0346609D01*
X0046861Y0346678D01*
X0046879Y0346746D01*
X0046900Y0346813D01*
X0046925Y0346878D01*
X0046954Y0346942D01*
X0046986Y0347005D01*
X0047022Y0347065D01*
X0047061Y0347123D01*
X0047103Y0347179D01*
X0047148Y0347233D01*
X0047196Y0347284D01*
X0047247Y0347332D01*
X0047301Y0347377D01*
X0047357Y0347419D01*
X0047415Y0347458D01*
X0047475Y0347494D01*
X0047538Y0347526D01*
X0047602Y0347555D01*
X0047667Y0347580D01*
X0047734Y0347601D01*
X0047802Y0347619D01*
X0047871Y0347632D01*
X0047940Y0347642D01*
X0048010Y0347648D01*
X0048080Y0347650D01*
X0048150Y0347648D01*
X0048220Y0347642D01*
X0048289Y0347632D01*
X0048358Y0347619D01*
X0048426Y0347601D01*
X0048493Y0347580D01*
X0048558Y0347555D01*
X0048622Y0347526D01*
X0048685Y0347494D01*
X0048745Y0347458D01*
X0048803Y0347419D01*
X0048859Y0347377D01*
X0048913Y0347332D01*
X0048964Y0347284D01*
X0049012Y0347233D01*
X0049057Y0347179D01*
X0049099Y0347123D01*
X0049138Y0347065D01*
X0049174Y0347005D01*
X0049206Y0346942D01*
X0049235Y0346878D01*
X0049260Y0346813D01*
X0049281Y0346746D01*
X0049299Y0346678D01*
X0049312Y0346609D01*
X0049322Y0346540D01*
X0049328Y0346470D01*
X0049330Y0346400D01*
X0049328Y0346330D01*
X0049322Y0346260D01*
X0049312Y0346191D01*
X0049299Y0346122D01*
X0049281Y0346054D01*
X0049260Y0345987D01*
X0049235Y0345922D01*
X0049206Y0345858D01*
X0049174Y0345795D01*
X0049138Y0345735D01*
X0049099Y0345677D01*
X0049057Y0345621D01*
X0049012Y0345567D01*
X0048964Y0345516D01*
X0048913Y0345468D01*
X0048859Y0345423D01*
X0048803Y0345381D01*
X0048745Y0345342D01*
X0048685Y0345306D01*
X0048622Y0345274D01*
X0048558Y0345245D01*
X0048493Y0345220D01*
X0048426Y0345199D01*
X0048358Y0345181D01*
X0048289Y0345168D01*
X0048220Y0345158D01*
X0048150Y0345152D01*
X0048080Y0345150D01*
X0048010Y0345152D01*
X0047940Y0345158D01*
X0047871Y0345168D01*
X0047802Y0345181D01*
X0047734Y0345199D01*
X0047667Y0345220D01*
X0047602Y0345245D01*
X0047538Y0345274D01*
X0047475Y0345306D01*
X0047415Y0345342D01*
X0047357Y0345381D01*
X0047301Y0345423D01*
X0047247Y0345468D01*
X0047196Y0345516D01*
X0047148Y0345567D01*
X0047103Y0345621D01*
X0047061Y0345677D01*
X0047022Y0345735D01*
X0046986Y0345795D01*
X0046954Y0345858D01*
X0046925Y0345922D01*
X0046900Y0345987D01*
X0046879Y0346054D01*
X0046861Y0346122D01*
X0046848Y0346191D01*
X0046838Y0346260D01*
X0046832Y0346330D01*
X0046830Y0346400D01*
X0149330Y0346400D02*
X0149332Y0346470D01*
X0149338Y0346540D01*
X0149348Y0346609D01*
X0149361Y0346678D01*
X0149379Y0346746D01*
X0149400Y0346813D01*
X0149425Y0346878D01*
X0149454Y0346942D01*
X0149486Y0347005D01*
X0149522Y0347065D01*
X0149561Y0347123D01*
X0149603Y0347179D01*
X0149648Y0347233D01*
X0149696Y0347284D01*
X0149747Y0347332D01*
X0149801Y0347377D01*
X0149857Y0347419D01*
X0149915Y0347458D01*
X0149975Y0347494D01*
X0150038Y0347526D01*
X0150102Y0347555D01*
X0150167Y0347580D01*
X0150234Y0347601D01*
X0150302Y0347619D01*
X0150371Y0347632D01*
X0150440Y0347642D01*
X0150510Y0347648D01*
X0150580Y0347650D01*
X0150650Y0347648D01*
X0150720Y0347642D01*
X0150789Y0347632D01*
X0150858Y0347619D01*
X0150926Y0347601D01*
X0150993Y0347580D01*
X0151058Y0347555D01*
X0151122Y0347526D01*
X0151185Y0347494D01*
X0151245Y0347458D01*
X0151303Y0347419D01*
X0151359Y0347377D01*
X0151413Y0347332D01*
X0151464Y0347284D01*
X0151512Y0347233D01*
X0151557Y0347179D01*
X0151599Y0347123D01*
X0151638Y0347065D01*
X0151674Y0347005D01*
X0151706Y0346942D01*
X0151735Y0346878D01*
X0151760Y0346813D01*
X0151781Y0346746D01*
X0151799Y0346678D01*
X0151812Y0346609D01*
X0151822Y0346540D01*
X0151828Y0346470D01*
X0151830Y0346400D01*
X0151828Y0346330D01*
X0151822Y0346260D01*
X0151812Y0346191D01*
X0151799Y0346122D01*
X0151781Y0346054D01*
X0151760Y0345987D01*
X0151735Y0345922D01*
X0151706Y0345858D01*
X0151674Y0345795D01*
X0151638Y0345735D01*
X0151599Y0345677D01*
X0151557Y0345621D01*
X0151512Y0345567D01*
X0151464Y0345516D01*
X0151413Y0345468D01*
X0151359Y0345423D01*
X0151303Y0345381D01*
X0151245Y0345342D01*
X0151185Y0345306D01*
X0151122Y0345274D01*
X0151058Y0345245D01*
X0150993Y0345220D01*
X0150926Y0345199D01*
X0150858Y0345181D01*
X0150789Y0345168D01*
X0150720Y0345158D01*
X0150650Y0345152D01*
X0150580Y0345150D01*
X0150510Y0345152D01*
X0150440Y0345158D01*
X0150371Y0345168D01*
X0150302Y0345181D01*
X0150234Y0345199D01*
X0150167Y0345220D01*
X0150102Y0345245D01*
X0150038Y0345274D01*
X0149975Y0345306D01*
X0149915Y0345342D01*
X0149857Y0345381D01*
X0149801Y0345423D01*
X0149747Y0345468D01*
X0149696Y0345516D01*
X0149648Y0345567D01*
X0149603Y0345621D01*
X0149561Y0345677D01*
X0149522Y0345735D01*
X0149486Y0345795D01*
X0149454Y0345858D01*
X0149425Y0345922D01*
X0149400Y0345987D01*
X0149379Y0346054D01*
X0149361Y0346122D01*
X0149348Y0346191D01*
X0149338Y0346260D01*
X0149332Y0346330D01*
X0149330Y0346400D01*
X0149330Y0341400D02*
X0149332Y0341470D01*
X0149338Y0341540D01*
X0149348Y0341609D01*
X0149361Y0341678D01*
X0149379Y0341746D01*
X0149400Y0341813D01*
X0149425Y0341878D01*
X0149454Y0341942D01*
X0149486Y0342005D01*
X0149522Y0342065D01*
X0149561Y0342123D01*
X0149603Y0342179D01*
X0149648Y0342233D01*
X0149696Y0342284D01*
X0149747Y0342332D01*
X0149801Y0342377D01*
X0149857Y0342419D01*
X0149915Y0342458D01*
X0149975Y0342494D01*
X0150038Y0342526D01*
X0150102Y0342555D01*
X0150167Y0342580D01*
X0150234Y0342601D01*
X0150302Y0342619D01*
X0150371Y0342632D01*
X0150440Y0342642D01*
X0150510Y0342648D01*
X0150580Y0342650D01*
X0150650Y0342648D01*
X0150720Y0342642D01*
X0150789Y0342632D01*
X0150858Y0342619D01*
X0150926Y0342601D01*
X0150993Y0342580D01*
X0151058Y0342555D01*
X0151122Y0342526D01*
X0151185Y0342494D01*
X0151245Y0342458D01*
X0151303Y0342419D01*
X0151359Y0342377D01*
X0151413Y0342332D01*
X0151464Y0342284D01*
X0151512Y0342233D01*
X0151557Y0342179D01*
X0151599Y0342123D01*
X0151638Y0342065D01*
X0151674Y0342005D01*
X0151706Y0341942D01*
X0151735Y0341878D01*
X0151760Y0341813D01*
X0151781Y0341746D01*
X0151799Y0341678D01*
X0151812Y0341609D01*
X0151822Y0341540D01*
X0151828Y0341470D01*
X0151830Y0341400D01*
X0151828Y0341330D01*
X0151822Y0341260D01*
X0151812Y0341191D01*
X0151799Y0341122D01*
X0151781Y0341054D01*
X0151760Y0340987D01*
X0151735Y0340922D01*
X0151706Y0340858D01*
X0151674Y0340795D01*
X0151638Y0340735D01*
X0151599Y0340677D01*
X0151557Y0340621D01*
X0151512Y0340567D01*
X0151464Y0340516D01*
X0151413Y0340468D01*
X0151359Y0340423D01*
X0151303Y0340381D01*
X0151245Y0340342D01*
X0151185Y0340306D01*
X0151122Y0340274D01*
X0151058Y0340245D01*
X0150993Y0340220D01*
X0150926Y0340199D01*
X0150858Y0340181D01*
X0150789Y0340168D01*
X0150720Y0340158D01*
X0150650Y0340152D01*
X0150580Y0340150D01*
X0150510Y0340152D01*
X0150440Y0340158D01*
X0150371Y0340168D01*
X0150302Y0340181D01*
X0150234Y0340199D01*
X0150167Y0340220D01*
X0150102Y0340245D01*
X0150038Y0340274D01*
X0149975Y0340306D01*
X0149915Y0340342D01*
X0149857Y0340381D01*
X0149801Y0340423D01*
X0149747Y0340468D01*
X0149696Y0340516D01*
X0149648Y0340567D01*
X0149603Y0340621D01*
X0149561Y0340677D01*
X0149522Y0340735D01*
X0149486Y0340795D01*
X0149454Y0340858D01*
X0149425Y0340922D01*
X0149400Y0340987D01*
X0149379Y0341054D01*
X0149361Y0341122D01*
X0149348Y0341191D01*
X0149338Y0341260D01*
X0149332Y0341330D01*
X0149330Y0341400D01*
X0149330Y0336400D02*
X0149332Y0336470D01*
X0149338Y0336540D01*
X0149348Y0336609D01*
X0149361Y0336678D01*
X0149379Y0336746D01*
X0149400Y0336813D01*
X0149425Y0336878D01*
X0149454Y0336942D01*
X0149486Y0337005D01*
X0149522Y0337065D01*
X0149561Y0337123D01*
X0149603Y0337179D01*
X0149648Y0337233D01*
X0149696Y0337284D01*
X0149747Y0337332D01*
X0149801Y0337377D01*
X0149857Y0337419D01*
X0149915Y0337458D01*
X0149975Y0337494D01*
X0150038Y0337526D01*
X0150102Y0337555D01*
X0150167Y0337580D01*
X0150234Y0337601D01*
X0150302Y0337619D01*
X0150371Y0337632D01*
X0150440Y0337642D01*
X0150510Y0337648D01*
X0150580Y0337650D01*
X0150650Y0337648D01*
X0150720Y0337642D01*
X0150789Y0337632D01*
X0150858Y0337619D01*
X0150926Y0337601D01*
X0150993Y0337580D01*
X0151058Y0337555D01*
X0151122Y0337526D01*
X0151185Y0337494D01*
X0151245Y0337458D01*
X0151303Y0337419D01*
X0151359Y0337377D01*
X0151413Y0337332D01*
X0151464Y0337284D01*
X0151512Y0337233D01*
X0151557Y0337179D01*
X0151599Y0337123D01*
X0151638Y0337065D01*
X0151674Y0337005D01*
X0151706Y0336942D01*
X0151735Y0336878D01*
X0151760Y0336813D01*
X0151781Y0336746D01*
X0151799Y0336678D01*
X0151812Y0336609D01*
X0151822Y0336540D01*
X0151828Y0336470D01*
X0151830Y0336400D01*
X0151828Y0336330D01*
X0151822Y0336260D01*
X0151812Y0336191D01*
X0151799Y0336122D01*
X0151781Y0336054D01*
X0151760Y0335987D01*
X0151735Y0335922D01*
X0151706Y0335858D01*
X0151674Y0335795D01*
X0151638Y0335735D01*
X0151599Y0335677D01*
X0151557Y0335621D01*
X0151512Y0335567D01*
X0151464Y0335516D01*
X0151413Y0335468D01*
X0151359Y0335423D01*
X0151303Y0335381D01*
X0151245Y0335342D01*
X0151185Y0335306D01*
X0151122Y0335274D01*
X0151058Y0335245D01*
X0150993Y0335220D01*
X0150926Y0335199D01*
X0150858Y0335181D01*
X0150789Y0335168D01*
X0150720Y0335158D01*
X0150650Y0335152D01*
X0150580Y0335150D01*
X0150510Y0335152D01*
X0150440Y0335158D01*
X0150371Y0335168D01*
X0150302Y0335181D01*
X0150234Y0335199D01*
X0150167Y0335220D01*
X0150102Y0335245D01*
X0150038Y0335274D01*
X0149975Y0335306D01*
X0149915Y0335342D01*
X0149857Y0335381D01*
X0149801Y0335423D01*
X0149747Y0335468D01*
X0149696Y0335516D01*
X0149648Y0335567D01*
X0149603Y0335621D01*
X0149561Y0335677D01*
X0149522Y0335735D01*
X0149486Y0335795D01*
X0149454Y0335858D01*
X0149425Y0335922D01*
X0149400Y0335987D01*
X0149379Y0336054D01*
X0149361Y0336122D01*
X0149348Y0336191D01*
X0149338Y0336260D01*
X0149332Y0336330D01*
X0149330Y0336400D01*
X0149330Y0331400D02*
X0149332Y0331470D01*
X0149338Y0331540D01*
X0149348Y0331609D01*
X0149361Y0331678D01*
X0149379Y0331746D01*
X0149400Y0331813D01*
X0149425Y0331878D01*
X0149454Y0331942D01*
X0149486Y0332005D01*
X0149522Y0332065D01*
X0149561Y0332123D01*
X0149603Y0332179D01*
X0149648Y0332233D01*
X0149696Y0332284D01*
X0149747Y0332332D01*
X0149801Y0332377D01*
X0149857Y0332419D01*
X0149915Y0332458D01*
X0149975Y0332494D01*
X0150038Y0332526D01*
X0150102Y0332555D01*
X0150167Y0332580D01*
X0150234Y0332601D01*
X0150302Y0332619D01*
X0150371Y0332632D01*
X0150440Y0332642D01*
X0150510Y0332648D01*
X0150580Y0332650D01*
X0150650Y0332648D01*
X0150720Y0332642D01*
X0150789Y0332632D01*
X0150858Y0332619D01*
X0150926Y0332601D01*
X0150993Y0332580D01*
X0151058Y0332555D01*
X0151122Y0332526D01*
X0151185Y0332494D01*
X0151245Y0332458D01*
X0151303Y0332419D01*
X0151359Y0332377D01*
X0151413Y0332332D01*
X0151464Y0332284D01*
X0151512Y0332233D01*
X0151557Y0332179D01*
X0151599Y0332123D01*
X0151638Y0332065D01*
X0151674Y0332005D01*
X0151706Y0331942D01*
X0151735Y0331878D01*
X0151760Y0331813D01*
X0151781Y0331746D01*
X0151799Y0331678D01*
X0151812Y0331609D01*
X0151822Y0331540D01*
X0151828Y0331470D01*
X0151830Y0331400D01*
X0151828Y0331330D01*
X0151822Y0331260D01*
X0151812Y0331191D01*
X0151799Y0331122D01*
X0151781Y0331054D01*
X0151760Y0330987D01*
X0151735Y0330922D01*
X0151706Y0330858D01*
X0151674Y0330795D01*
X0151638Y0330735D01*
X0151599Y0330677D01*
X0151557Y0330621D01*
X0151512Y0330567D01*
X0151464Y0330516D01*
X0151413Y0330468D01*
X0151359Y0330423D01*
X0151303Y0330381D01*
X0151245Y0330342D01*
X0151185Y0330306D01*
X0151122Y0330274D01*
X0151058Y0330245D01*
X0150993Y0330220D01*
X0150926Y0330199D01*
X0150858Y0330181D01*
X0150789Y0330168D01*
X0150720Y0330158D01*
X0150650Y0330152D01*
X0150580Y0330150D01*
X0150510Y0330152D01*
X0150440Y0330158D01*
X0150371Y0330168D01*
X0150302Y0330181D01*
X0150234Y0330199D01*
X0150167Y0330220D01*
X0150102Y0330245D01*
X0150038Y0330274D01*
X0149975Y0330306D01*
X0149915Y0330342D01*
X0149857Y0330381D01*
X0149801Y0330423D01*
X0149747Y0330468D01*
X0149696Y0330516D01*
X0149648Y0330567D01*
X0149603Y0330621D01*
X0149561Y0330677D01*
X0149522Y0330735D01*
X0149486Y0330795D01*
X0149454Y0330858D01*
X0149425Y0330922D01*
X0149400Y0330987D01*
X0149379Y0331054D01*
X0149361Y0331122D01*
X0149348Y0331191D01*
X0149338Y0331260D01*
X0149332Y0331330D01*
X0149330Y0331400D01*
X0149330Y0326400D02*
X0149332Y0326470D01*
X0149338Y0326540D01*
X0149348Y0326609D01*
X0149361Y0326678D01*
X0149379Y0326746D01*
X0149400Y0326813D01*
X0149425Y0326878D01*
X0149454Y0326942D01*
X0149486Y0327005D01*
X0149522Y0327065D01*
X0149561Y0327123D01*
X0149603Y0327179D01*
X0149648Y0327233D01*
X0149696Y0327284D01*
X0149747Y0327332D01*
X0149801Y0327377D01*
X0149857Y0327419D01*
X0149915Y0327458D01*
X0149975Y0327494D01*
X0150038Y0327526D01*
X0150102Y0327555D01*
X0150167Y0327580D01*
X0150234Y0327601D01*
X0150302Y0327619D01*
X0150371Y0327632D01*
X0150440Y0327642D01*
X0150510Y0327648D01*
X0150580Y0327650D01*
X0150650Y0327648D01*
X0150720Y0327642D01*
X0150789Y0327632D01*
X0150858Y0327619D01*
X0150926Y0327601D01*
X0150993Y0327580D01*
X0151058Y0327555D01*
X0151122Y0327526D01*
X0151185Y0327494D01*
X0151245Y0327458D01*
X0151303Y0327419D01*
X0151359Y0327377D01*
X0151413Y0327332D01*
X0151464Y0327284D01*
X0151512Y0327233D01*
X0151557Y0327179D01*
X0151599Y0327123D01*
X0151638Y0327065D01*
X0151674Y0327005D01*
X0151706Y0326942D01*
X0151735Y0326878D01*
X0151760Y0326813D01*
X0151781Y0326746D01*
X0151799Y0326678D01*
X0151812Y0326609D01*
X0151822Y0326540D01*
X0151828Y0326470D01*
X0151830Y0326400D01*
X0151828Y0326330D01*
X0151822Y0326260D01*
X0151812Y0326191D01*
X0151799Y0326122D01*
X0151781Y0326054D01*
X0151760Y0325987D01*
X0151735Y0325922D01*
X0151706Y0325858D01*
X0151674Y0325795D01*
X0151638Y0325735D01*
X0151599Y0325677D01*
X0151557Y0325621D01*
X0151512Y0325567D01*
X0151464Y0325516D01*
X0151413Y0325468D01*
X0151359Y0325423D01*
X0151303Y0325381D01*
X0151245Y0325342D01*
X0151185Y0325306D01*
X0151122Y0325274D01*
X0151058Y0325245D01*
X0150993Y0325220D01*
X0150926Y0325199D01*
X0150858Y0325181D01*
X0150789Y0325168D01*
X0150720Y0325158D01*
X0150650Y0325152D01*
X0150580Y0325150D01*
X0150510Y0325152D01*
X0150440Y0325158D01*
X0150371Y0325168D01*
X0150302Y0325181D01*
X0150234Y0325199D01*
X0150167Y0325220D01*
X0150102Y0325245D01*
X0150038Y0325274D01*
X0149975Y0325306D01*
X0149915Y0325342D01*
X0149857Y0325381D01*
X0149801Y0325423D01*
X0149747Y0325468D01*
X0149696Y0325516D01*
X0149648Y0325567D01*
X0149603Y0325621D01*
X0149561Y0325677D01*
X0149522Y0325735D01*
X0149486Y0325795D01*
X0149454Y0325858D01*
X0149425Y0325922D01*
X0149400Y0325987D01*
X0149379Y0326054D01*
X0149361Y0326122D01*
X0149348Y0326191D01*
X0149338Y0326260D01*
X0149332Y0326330D01*
X0149330Y0326400D01*
X0149330Y0321400D02*
X0149332Y0321470D01*
X0149338Y0321540D01*
X0149348Y0321609D01*
X0149361Y0321678D01*
X0149379Y0321746D01*
X0149400Y0321813D01*
X0149425Y0321878D01*
X0149454Y0321942D01*
X0149486Y0322005D01*
X0149522Y0322065D01*
X0149561Y0322123D01*
X0149603Y0322179D01*
X0149648Y0322233D01*
X0149696Y0322284D01*
X0149747Y0322332D01*
X0149801Y0322377D01*
X0149857Y0322419D01*
X0149915Y0322458D01*
X0149975Y0322494D01*
X0150038Y0322526D01*
X0150102Y0322555D01*
X0150167Y0322580D01*
X0150234Y0322601D01*
X0150302Y0322619D01*
X0150371Y0322632D01*
X0150440Y0322642D01*
X0150510Y0322648D01*
X0150580Y0322650D01*
X0150650Y0322648D01*
X0150720Y0322642D01*
X0150789Y0322632D01*
X0150858Y0322619D01*
X0150926Y0322601D01*
X0150993Y0322580D01*
X0151058Y0322555D01*
X0151122Y0322526D01*
X0151185Y0322494D01*
X0151245Y0322458D01*
X0151303Y0322419D01*
X0151359Y0322377D01*
X0151413Y0322332D01*
X0151464Y0322284D01*
X0151512Y0322233D01*
X0151557Y0322179D01*
X0151599Y0322123D01*
X0151638Y0322065D01*
X0151674Y0322005D01*
X0151706Y0321942D01*
X0151735Y0321878D01*
X0151760Y0321813D01*
X0151781Y0321746D01*
X0151799Y0321678D01*
X0151812Y0321609D01*
X0151822Y0321540D01*
X0151828Y0321470D01*
X0151830Y0321400D01*
X0151828Y0321330D01*
X0151822Y0321260D01*
X0151812Y0321191D01*
X0151799Y0321122D01*
X0151781Y0321054D01*
X0151760Y0320987D01*
X0151735Y0320922D01*
X0151706Y0320858D01*
X0151674Y0320795D01*
X0151638Y0320735D01*
X0151599Y0320677D01*
X0151557Y0320621D01*
X0151512Y0320567D01*
X0151464Y0320516D01*
X0151413Y0320468D01*
X0151359Y0320423D01*
X0151303Y0320381D01*
X0151245Y0320342D01*
X0151185Y0320306D01*
X0151122Y0320274D01*
X0151058Y0320245D01*
X0150993Y0320220D01*
X0150926Y0320199D01*
X0150858Y0320181D01*
X0150789Y0320168D01*
X0150720Y0320158D01*
X0150650Y0320152D01*
X0150580Y0320150D01*
X0150510Y0320152D01*
X0150440Y0320158D01*
X0150371Y0320168D01*
X0150302Y0320181D01*
X0150234Y0320199D01*
X0150167Y0320220D01*
X0150102Y0320245D01*
X0150038Y0320274D01*
X0149975Y0320306D01*
X0149915Y0320342D01*
X0149857Y0320381D01*
X0149801Y0320423D01*
X0149747Y0320468D01*
X0149696Y0320516D01*
X0149648Y0320567D01*
X0149603Y0320621D01*
X0149561Y0320677D01*
X0149522Y0320735D01*
X0149486Y0320795D01*
X0149454Y0320858D01*
X0149425Y0320922D01*
X0149400Y0320987D01*
X0149379Y0321054D01*
X0149361Y0321122D01*
X0149348Y0321191D01*
X0149338Y0321260D01*
X0149332Y0321330D01*
X0149330Y0321400D01*
X0149330Y0316400D02*
X0149332Y0316470D01*
X0149338Y0316540D01*
X0149348Y0316609D01*
X0149361Y0316678D01*
X0149379Y0316746D01*
X0149400Y0316813D01*
X0149425Y0316878D01*
X0149454Y0316942D01*
X0149486Y0317005D01*
X0149522Y0317065D01*
X0149561Y0317123D01*
X0149603Y0317179D01*
X0149648Y0317233D01*
X0149696Y0317284D01*
X0149747Y0317332D01*
X0149801Y0317377D01*
X0149857Y0317419D01*
X0149915Y0317458D01*
X0149975Y0317494D01*
X0150038Y0317526D01*
X0150102Y0317555D01*
X0150167Y0317580D01*
X0150234Y0317601D01*
X0150302Y0317619D01*
X0150371Y0317632D01*
X0150440Y0317642D01*
X0150510Y0317648D01*
X0150580Y0317650D01*
X0150650Y0317648D01*
X0150720Y0317642D01*
X0150789Y0317632D01*
X0150858Y0317619D01*
X0150926Y0317601D01*
X0150993Y0317580D01*
X0151058Y0317555D01*
X0151122Y0317526D01*
X0151185Y0317494D01*
X0151245Y0317458D01*
X0151303Y0317419D01*
X0151359Y0317377D01*
X0151413Y0317332D01*
X0151464Y0317284D01*
X0151512Y0317233D01*
X0151557Y0317179D01*
X0151599Y0317123D01*
X0151638Y0317065D01*
X0151674Y0317005D01*
X0151706Y0316942D01*
X0151735Y0316878D01*
X0151760Y0316813D01*
X0151781Y0316746D01*
X0151799Y0316678D01*
X0151812Y0316609D01*
X0151822Y0316540D01*
X0151828Y0316470D01*
X0151830Y0316400D01*
X0151828Y0316330D01*
X0151822Y0316260D01*
X0151812Y0316191D01*
X0151799Y0316122D01*
X0151781Y0316054D01*
X0151760Y0315987D01*
X0151735Y0315922D01*
X0151706Y0315858D01*
X0151674Y0315795D01*
X0151638Y0315735D01*
X0151599Y0315677D01*
X0151557Y0315621D01*
X0151512Y0315567D01*
X0151464Y0315516D01*
X0151413Y0315468D01*
X0151359Y0315423D01*
X0151303Y0315381D01*
X0151245Y0315342D01*
X0151185Y0315306D01*
X0151122Y0315274D01*
X0151058Y0315245D01*
X0150993Y0315220D01*
X0150926Y0315199D01*
X0150858Y0315181D01*
X0150789Y0315168D01*
X0150720Y0315158D01*
X0150650Y0315152D01*
X0150580Y0315150D01*
X0150510Y0315152D01*
X0150440Y0315158D01*
X0150371Y0315168D01*
X0150302Y0315181D01*
X0150234Y0315199D01*
X0150167Y0315220D01*
X0150102Y0315245D01*
X0150038Y0315274D01*
X0149975Y0315306D01*
X0149915Y0315342D01*
X0149857Y0315381D01*
X0149801Y0315423D01*
X0149747Y0315468D01*
X0149696Y0315516D01*
X0149648Y0315567D01*
X0149603Y0315621D01*
X0149561Y0315677D01*
X0149522Y0315735D01*
X0149486Y0315795D01*
X0149454Y0315858D01*
X0149425Y0315922D01*
X0149400Y0315987D01*
X0149379Y0316054D01*
X0149361Y0316122D01*
X0149348Y0316191D01*
X0149338Y0316260D01*
X0149332Y0316330D01*
X0149330Y0316400D01*
X0149830Y0276400D02*
X0149832Y0276470D01*
X0149838Y0276540D01*
X0149848Y0276609D01*
X0149861Y0276678D01*
X0149879Y0276746D01*
X0149900Y0276813D01*
X0149925Y0276878D01*
X0149954Y0276942D01*
X0149986Y0277005D01*
X0150022Y0277065D01*
X0150061Y0277123D01*
X0150103Y0277179D01*
X0150148Y0277233D01*
X0150196Y0277284D01*
X0150247Y0277332D01*
X0150301Y0277377D01*
X0150357Y0277419D01*
X0150415Y0277458D01*
X0150475Y0277494D01*
X0150538Y0277526D01*
X0150602Y0277555D01*
X0150667Y0277580D01*
X0150734Y0277601D01*
X0150802Y0277619D01*
X0150871Y0277632D01*
X0150940Y0277642D01*
X0151010Y0277648D01*
X0151080Y0277650D01*
X0151150Y0277648D01*
X0151220Y0277642D01*
X0151289Y0277632D01*
X0151358Y0277619D01*
X0151426Y0277601D01*
X0151493Y0277580D01*
X0151558Y0277555D01*
X0151622Y0277526D01*
X0151685Y0277494D01*
X0151745Y0277458D01*
X0151803Y0277419D01*
X0151859Y0277377D01*
X0151913Y0277332D01*
X0151964Y0277284D01*
X0152012Y0277233D01*
X0152057Y0277179D01*
X0152099Y0277123D01*
X0152138Y0277065D01*
X0152174Y0277005D01*
X0152206Y0276942D01*
X0152235Y0276878D01*
X0152260Y0276813D01*
X0152281Y0276746D01*
X0152299Y0276678D01*
X0152312Y0276609D01*
X0152322Y0276540D01*
X0152328Y0276470D01*
X0152330Y0276400D01*
X0152328Y0276330D01*
X0152322Y0276260D01*
X0152312Y0276191D01*
X0152299Y0276122D01*
X0152281Y0276054D01*
X0152260Y0275987D01*
X0152235Y0275922D01*
X0152206Y0275858D01*
X0152174Y0275795D01*
X0152138Y0275735D01*
X0152099Y0275677D01*
X0152057Y0275621D01*
X0152012Y0275567D01*
X0151964Y0275516D01*
X0151913Y0275468D01*
X0151859Y0275423D01*
X0151803Y0275381D01*
X0151745Y0275342D01*
X0151685Y0275306D01*
X0151622Y0275274D01*
X0151558Y0275245D01*
X0151493Y0275220D01*
X0151426Y0275199D01*
X0151358Y0275181D01*
X0151289Y0275168D01*
X0151220Y0275158D01*
X0151150Y0275152D01*
X0151080Y0275150D01*
X0151010Y0275152D01*
X0150940Y0275158D01*
X0150871Y0275168D01*
X0150802Y0275181D01*
X0150734Y0275199D01*
X0150667Y0275220D01*
X0150602Y0275245D01*
X0150538Y0275274D01*
X0150475Y0275306D01*
X0150415Y0275342D01*
X0150357Y0275381D01*
X0150301Y0275423D01*
X0150247Y0275468D01*
X0150196Y0275516D01*
X0150148Y0275567D01*
X0150103Y0275621D01*
X0150061Y0275677D01*
X0150022Y0275735D01*
X0149986Y0275795D01*
X0149954Y0275858D01*
X0149925Y0275922D01*
X0149900Y0275987D01*
X0149879Y0276054D01*
X0149861Y0276122D01*
X0149848Y0276191D01*
X0149838Y0276260D01*
X0149832Y0276330D01*
X0149830Y0276400D01*
X0149830Y0271400D02*
X0149832Y0271470D01*
X0149838Y0271540D01*
X0149848Y0271609D01*
X0149861Y0271678D01*
X0149879Y0271746D01*
X0149900Y0271813D01*
X0149925Y0271878D01*
X0149954Y0271942D01*
X0149986Y0272005D01*
X0150022Y0272065D01*
X0150061Y0272123D01*
X0150103Y0272179D01*
X0150148Y0272233D01*
X0150196Y0272284D01*
X0150247Y0272332D01*
X0150301Y0272377D01*
X0150357Y0272419D01*
X0150415Y0272458D01*
X0150475Y0272494D01*
X0150538Y0272526D01*
X0150602Y0272555D01*
X0150667Y0272580D01*
X0150734Y0272601D01*
X0150802Y0272619D01*
X0150871Y0272632D01*
X0150940Y0272642D01*
X0151010Y0272648D01*
X0151080Y0272650D01*
X0151150Y0272648D01*
X0151220Y0272642D01*
X0151289Y0272632D01*
X0151358Y0272619D01*
X0151426Y0272601D01*
X0151493Y0272580D01*
X0151558Y0272555D01*
X0151622Y0272526D01*
X0151685Y0272494D01*
X0151745Y0272458D01*
X0151803Y0272419D01*
X0151859Y0272377D01*
X0151913Y0272332D01*
X0151964Y0272284D01*
X0152012Y0272233D01*
X0152057Y0272179D01*
X0152099Y0272123D01*
X0152138Y0272065D01*
X0152174Y0272005D01*
X0152206Y0271942D01*
X0152235Y0271878D01*
X0152260Y0271813D01*
X0152281Y0271746D01*
X0152299Y0271678D01*
X0152312Y0271609D01*
X0152322Y0271540D01*
X0152328Y0271470D01*
X0152330Y0271400D01*
X0152328Y0271330D01*
X0152322Y0271260D01*
X0152312Y0271191D01*
X0152299Y0271122D01*
X0152281Y0271054D01*
X0152260Y0270987D01*
X0152235Y0270922D01*
X0152206Y0270858D01*
X0152174Y0270795D01*
X0152138Y0270735D01*
X0152099Y0270677D01*
X0152057Y0270621D01*
X0152012Y0270567D01*
X0151964Y0270516D01*
X0151913Y0270468D01*
X0151859Y0270423D01*
X0151803Y0270381D01*
X0151745Y0270342D01*
X0151685Y0270306D01*
X0151622Y0270274D01*
X0151558Y0270245D01*
X0151493Y0270220D01*
X0151426Y0270199D01*
X0151358Y0270181D01*
X0151289Y0270168D01*
X0151220Y0270158D01*
X0151150Y0270152D01*
X0151080Y0270150D01*
X0151010Y0270152D01*
X0150940Y0270158D01*
X0150871Y0270168D01*
X0150802Y0270181D01*
X0150734Y0270199D01*
X0150667Y0270220D01*
X0150602Y0270245D01*
X0150538Y0270274D01*
X0150475Y0270306D01*
X0150415Y0270342D01*
X0150357Y0270381D01*
X0150301Y0270423D01*
X0150247Y0270468D01*
X0150196Y0270516D01*
X0150148Y0270567D01*
X0150103Y0270621D01*
X0150061Y0270677D01*
X0150022Y0270735D01*
X0149986Y0270795D01*
X0149954Y0270858D01*
X0149925Y0270922D01*
X0149900Y0270987D01*
X0149879Y0271054D01*
X0149861Y0271122D01*
X0149848Y0271191D01*
X0149838Y0271260D01*
X0149832Y0271330D01*
X0149830Y0271400D01*
X0149830Y0266400D02*
X0149832Y0266470D01*
X0149838Y0266540D01*
X0149848Y0266609D01*
X0149861Y0266678D01*
X0149879Y0266746D01*
X0149900Y0266813D01*
X0149925Y0266878D01*
X0149954Y0266942D01*
X0149986Y0267005D01*
X0150022Y0267065D01*
X0150061Y0267123D01*
X0150103Y0267179D01*
X0150148Y0267233D01*
X0150196Y0267284D01*
X0150247Y0267332D01*
X0150301Y0267377D01*
X0150357Y0267419D01*
X0150415Y0267458D01*
X0150475Y0267494D01*
X0150538Y0267526D01*
X0150602Y0267555D01*
X0150667Y0267580D01*
X0150734Y0267601D01*
X0150802Y0267619D01*
X0150871Y0267632D01*
X0150940Y0267642D01*
X0151010Y0267648D01*
X0151080Y0267650D01*
X0151150Y0267648D01*
X0151220Y0267642D01*
X0151289Y0267632D01*
X0151358Y0267619D01*
X0151426Y0267601D01*
X0151493Y0267580D01*
X0151558Y0267555D01*
X0151622Y0267526D01*
X0151685Y0267494D01*
X0151745Y0267458D01*
X0151803Y0267419D01*
X0151859Y0267377D01*
X0151913Y0267332D01*
X0151964Y0267284D01*
X0152012Y0267233D01*
X0152057Y0267179D01*
X0152099Y0267123D01*
X0152138Y0267065D01*
X0152174Y0267005D01*
X0152206Y0266942D01*
X0152235Y0266878D01*
X0152260Y0266813D01*
X0152281Y0266746D01*
X0152299Y0266678D01*
X0152312Y0266609D01*
X0152322Y0266540D01*
X0152328Y0266470D01*
X0152330Y0266400D01*
X0152328Y0266330D01*
X0152322Y0266260D01*
X0152312Y0266191D01*
X0152299Y0266122D01*
X0152281Y0266054D01*
X0152260Y0265987D01*
X0152235Y0265922D01*
X0152206Y0265858D01*
X0152174Y0265795D01*
X0152138Y0265735D01*
X0152099Y0265677D01*
X0152057Y0265621D01*
X0152012Y0265567D01*
X0151964Y0265516D01*
X0151913Y0265468D01*
X0151859Y0265423D01*
X0151803Y0265381D01*
X0151745Y0265342D01*
X0151685Y0265306D01*
X0151622Y0265274D01*
X0151558Y0265245D01*
X0151493Y0265220D01*
X0151426Y0265199D01*
X0151358Y0265181D01*
X0151289Y0265168D01*
X0151220Y0265158D01*
X0151150Y0265152D01*
X0151080Y0265150D01*
X0151010Y0265152D01*
X0150940Y0265158D01*
X0150871Y0265168D01*
X0150802Y0265181D01*
X0150734Y0265199D01*
X0150667Y0265220D01*
X0150602Y0265245D01*
X0150538Y0265274D01*
X0150475Y0265306D01*
X0150415Y0265342D01*
X0150357Y0265381D01*
X0150301Y0265423D01*
X0150247Y0265468D01*
X0150196Y0265516D01*
X0150148Y0265567D01*
X0150103Y0265621D01*
X0150061Y0265677D01*
X0150022Y0265735D01*
X0149986Y0265795D01*
X0149954Y0265858D01*
X0149925Y0265922D01*
X0149900Y0265987D01*
X0149879Y0266054D01*
X0149861Y0266122D01*
X0149848Y0266191D01*
X0149838Y0266260D01*
X0149832Y0266330D01*
X0149830Y0266400D01*
X0149830Y0261400D02*
X0149832Y0261470D01*
X0149838Y0261540D01*
X0149848Y0261609D01*
X0149861Y0261678D01*
X0149879Y0261746D01*
X0149900Y0261813D01*
X0149925Y0261878D01*
X0149954Y0261942D01*
X0149986Y0262005D01*
X0150022Y0262065D01*
X0150061Y0262123D01*
X0150103Y0262179D01*
X0150148Y0262233D01*
X0150196Y0262284D01*
X0150247Y0262332D01*
X0150301Y0262377D01*
X0150357Y0262419D01*
X0150415Y0262458D01*
X0150475Y0262494D01*
X0150538Y0262526D01*
X0150602Y0262555D01*
X0150667Y0262580D01*
X0150734Y0262601D01*
X0150802Y0262619D01*
X0150871Y0262632D01*
X0150940Y0262642D01*
X0151010Y0262648D01*
X0151080Y0262650D01*
X0151150Y0262648D01*
X0151220Y0262642D01*
X0151289Y0262632D01*
X0151358Y0262619D01*
X0151426Y0262601D01*
X0151493Y0262580D01*
X0151558Y0262555D01*
X0151622Y0262526D01*
X0151685Y0262494D01*
X0151745Y0262458D01*
X0151803Y0262419D01*
X0151859Y0262377D01*
X0151913Y0262332D01*
X0151964Y0262284D01*
X0152012Y0262233D01*
X0152057Y0262179D01*
X0152099Y0262123D01*
X0152138Y0262065D01*
X0152174Y0262005D01*
X0152206Y0261942D01*
X0152235Y0261878D01*
X0152260Y0261813D01*
X0152281Y0261746D01*
X0152299Y0261678D01*
X0152312Y0261609D01*
X0152322Y0261540D01*
X0152328Y0261470D01*
X0152330Y0261400D01*
X0152328Y0261330D01*
X0152322Y0261260D01*
X0152312Y0261191D01*
X0152299Y0261122D01*
X0152281Y0261054D01*
X0152260Y0260987D01*
X0152235Y0260922D01*
X0152206Y0260858D01*
X0152174Y0260795D01*
X0152138Y0260735D01*
X0152099Y0260677D01*
X0152057Y0260621D01*
X0152012Y0260567D01*
X0151964Y0260516D01*
X0151913Y0260468D01*
X0151859Y0260423D01*
X0151803Y0260381D01*
X0151745Y0260342D01*
X0151685Y0260306D01*
X0151622Y0260274D01*
X0151558Y0260245D01*
X0151493Y0260220D01*
X0151426Y0260199D01*
X0151358Y0260181D01*
X0151289Y0260168D01*
X0151220Y0260158D01*
X0151150Y0260152D01*
X0151080Y0260150D01*
X0151010Y0260152D01*
X0150940Y0260158D01*
X0150871Y0260168D01*
X0150802Y0260181D01*
X0150734Y0260199D01*
X0150667Y0260220D01*
X0150602Y0260245D01*
X0150538Y0260274D01*
X0150475Y0260306D01*
X0150415Y0260342D01*
X0150357Y0260381D01*
X0150301Y0260423D01*
X0150247Y0260468D01*
X0150196Y0260516D01*
X0150148Y0260567D01*
X0150103Y0260621D01*
X0150061Y0260677D01*
X0150022Y0260735D01*
X0149986Y0260795D01*
X0149954Y0260858D01*
X0149925Y0260922D01*
X0149900Y0260987D01*
X0149879Y0261054D01*
X0149861Y0261122D01*
X0149848Y0261191D01*
X0149838Y0261260D01*
X0149832Y0261330D01*
X0149830Y0261400D01*
X0149830Y0256400D02*
X0149832Y0256470D01*
X0149838Y0256540D01*
X0149848Y0256609D01*
X0149861Y0256678D01*
X0149879Y0256746D01*
X0149900Y0256813D01*
X0149925Y0256878D01*
X0149954Y0256942D01*
X0149986Y0257005D01*
X0150022Y0257065D01*
X0150061Y0257123D01*
X0150103Y0257179D01*
X0150148Y0257233D01*
X0150196Y0257284D01*
X0150247Y0257332D01*
X0150301Y0257377D01*
X0150357Y0257419D01*
X0150415Y0257458D01*
X0150475Y0257494D01*
X0150538Y0257526D01*
X0150602Y0257555D01*
X0150667Y0257580D01*
X0150734Y0257601D01*
X0150802Y0257619D01*
X0150871Y0257632D01*
X0150940Y0257642D01*
X0151010Y0257648D01*
X0151080Y0257650D01*
X0151150Y0257648D01*
X0151220Y0257642D01*
X0151289Y0257632D01*
X0151358Y0257619D01*
X0151426Y0257601D01*
X0151493Y0257580D01*
X0151558Y0257555D01*
X0151622Y0257526D01*
X0151685Y0257494D01*
X0151745Y0257458D01*
X0151803Y0257419D01*
X0151859Y0257377D01*
X0151913Y0257332D01*
X0151964Y0257284D01*
X0152012Y0257233D01*
X0152057Y0257179D01*
X0152099Y0257123D01*
X0152138Y0257065D01*
X0152174Y0257005D01*
X0152206Y0256942D01*
X0152235Y0256878D01*
X0152260Y0256813D01*
X0152281Y0256746D01*
X0152299Y0256678D01*
X0152312Y0256609D01*
X0152322Y0256540D01*
X0152328Y0256470D01*
X0152330Y0256400D01*
X0152328Y0256330D01*
X0152322Y0256260D01*
X0152312Y0256191D01*
X0152299Y0256122D01*
X0152281Y0256054D01*
X0152260Y0255987D01*
X0152235Y0255922D01*
X0152206Y0255858D01*
X0152174Y0255795D01*
X0152138Y0255735D01*
X0152099Y0255677D01*
X0152057Y0255621D01*
X0152012Y0255567D01*
X0151964Y0255516D01*
X0151913Y0255468D01*
X0151859Y0255423D01*
X0151803Y0255381D01*
X0151745Y0255342D01*
X0151685Y0255306D01*
X0151622Y0255274D01*
X0151558Y0255245D01*
X0151493Y0255220D01*
X0151426Y0255199D01*
X0151358Y0255181D01*
X0151289Y0255168D01*
X0151220Y0255158D01*
X0151150Y0255152D01*
X0151080Y0255150D01*
X0151010Y0255152D01*
X0150940Y0255158D01*
X0150871Y0255168D01*
X0150802Y0255181D01*
X0150734Y0255199D01*
X0150667Y0255220D01*
X0150602Y0255245D01*
X0150538Y0255274D01*
X0150475Y0255306D01*
X0150415Y0255342D01*
X0150357Y0255381D01*
X0150301Y0255423D01*
X0150247Y0255468D01*
X0150196Y0255516D01*
X0150148Y0255567D01*
X0150103Y0255621D01*
X0150061Y0255677D01*
X0150022Y0255735D01*
X0149986Y0255795D01*
X0149954Y0255858D01*
X0149925Y0255922D01*
X0149900Y0255987D01*
X0149879Y0256054D01*
X0149861Y0256122D01*
X0149848Y0256191D01*
X0149838Y0256260D01*
X0149832Y0256330D01*
X0149830Y0256400D01*
X0149830Y0251400D02*
X0149832Y0251470D01*
X0149838Y0251540D01*
X0149848Y0251609D01*
X0149861Y0251678D01*
X0149879Y0251746D01*
X0149900Y0251813D01*
X0149925Y0251878D01*
X0149954Y0251942D01*
X0149986Y0252005D01*
X0150022Y0252065D01*
X0150061Y0252123D01*
X0150103Y0252179D01*
X0150148Y0252233D01*
X0150196Y0252284D01*
X0150247Y0252332D01*
X0150301Y0252377D01*
X0150357Y0252419D01*
X0150415Y0252458D01*
X0150475Y0252494D01*
X0150538Y0252526D01*
X0150602Y0252555D01*
X0150667Y0252580D01*
X0150734Y0252601D01*
X0150802Y0252619D01*
X0150871Y0252632D01*
X0150940Y0252642D01*
X0151010Y0252648D01*
X0151080Y0252650D01*
X0151150Y0252648D01*
X0151220Y0252642D01*
X0151289Y0252632D01*
X0151358Y0252619D01*
X0151426Y0252601D01*
X0151493Y0252580D01*
X0151558Y0252555D01*
X0151622Y0252526D01*
X0151685Y0252494D01*
X0151745Y0252458D01*
X0151803Y0252419D01*
X0151859Y0252377D01*
X0151913Y0252332D01*
X0151964Y0252284D01*
X0152012Y0252233D01*
X0152057Y0252179D01*
X0152099Y0252123D01*
X0152138Y0252065D01*
X0152174Y0252005D01*
X0152206Y0251942D01*
X0152235Y0251878D01*
X0152260Y0251813D01*
X0152281Y0251746D01*
X0152299Y0251678D01*
X0152312Y0251609D01*
X0152322Y0251540D01*
X0152328Y0251470D01*
X0152330Y0251400D01*
X0152328Y0251330D01*
X0152322Y0251260D01*
X0152312Y0251191D01*
X0152299Y0251122D01*
X0152281Y0251054D01*
X0152260Y0250987D01*
X0152235Y0250922D01*
X0152206Y0250858D01*
X0152174Y0250795D01*
X0152138Y0250735D01*
X0152099Y0250677D01*
X0152057Y0250621D01*
X0152012Y0250567D01*
X0151964Y0250516D01*
X0151913Y0250468D01*
X0151859Y0250423D01*
X0151803Y0250381D01*
X0151745Y0250342D01*
X0151685Y0250306D01*
X0151622Y0250274D01*
X0151558Y0250245D01*
X0151493Y0250220D01*
X0151426Y0250199D01*
X0151358Y0250181D01*
X0151289Y0250168D01*
X0151220Y0250158D01*
X0151150Y0250152D01*
X0151080Y0250150D01*
X0151010Y0250152D01*
X0150940Y0250158D01*
X0150871Y0250168D01*
X0150802Y0250181D01*
X0150734Y0250199D01*
X0150667Y0250220D01*
X0150602Y0250245D01*
X0150538Y0250274D01*
X0150475Y0250306D01*
X0150415Y0250342D01*
X0150357Y0250381D01*
X0150301Y0250423D01*
X0150247Y0250468D01*
X0150196Y0250516D01*
X0150148Y0250567D01*
X0150103Y0250621D01*
X0150061Y0250677D01*
X0150022Y0250735D01*
X0149986Y0250795D01*
X0149954Y0250858D01*
X0149925Y0250922D01*
X0149900Y0250987D01*
X0149879Y0251054D01*
X0149861Y0251122D01*
X0149848Y0251191D01*
X0149838Y0251260D01*
X0149832Y0251330D01*
X0149830Y0251400D01*
X0149830Y0246400D02*
X0149832Y0246470D01*
X0149838Y0246540D01*
X0149848Y0246609D01*
X0149861Y0246678D01*
X0149879Y0246746D01*
X0149900Y0246813D01*
X0149925Y0246878D01*
X0149954Y0246942D01*
X0149986Y0247005D01*
X0150022Y0247065D01*
X0150061Y0247123D01*
X0150103Y0247179D01*
X0150148Y0247233D01*
X0150196Y0247284D01*
X0150247Y0247332D01*
X0150301Y0247377D01*
X0150357Y0247419D01*
X0150415Y0247458D01*
X0150475Y0247494D01*
X0150538Y0247526D01*
X0150602Y0247555D01*
X0150667Y0247580D01*
X0150734Y0247601D01*
X0150802Y0247619D01*
X0150871Y0247632D01*
X0150940Y0247642D01*
X0151010Y0247648D01*
X0151080Y0247650D01*
X0151150Y0247648D01*
X0151220Y0247642D01*
X0151289Y0247632D01*
X0151358Y0247619D01*
X0151426Y0247601D01*
X0151493Y0247580D01*
X0151558Y0247555D01*
X0151622Y0247526D01*
X0151685Y0247494D01*
X0151745Y0247458D01*
X0151803Y0247419D01*
X0151859Y0247377D01*
X0151913Y0247332D01*
X0151964Y0247284D01*
X0152012Y0247233D01*
X0152057Y0247179D01*
X0152099Y0247123D01*
X0152138Y0247065D01*
X0152174Y0247005D01*
X0152206Y0246942D01*
X0152235Y0246878D01*
X0152260Y0246813D01*
X0152281Y0246746D01*
X0152299Y0246678D01*
X0152312Y0246609D01*
X0152322Y0246540D01*
X0152328Y0246470D01*
X0152330Y0246400D01*
X0152328Y0246330D01*
X0152322Y0246260D01*
X0152312Y0246191D01*
X0152299Y0246122D01*
X0152281Y0246054D01*
X0152260Y0245987D01*
X0152235Y0245922D01*
X0152206Y0245858D01*
X0152174Y0245795D01*
X0152138Y0245735D01*
X0152099Y0245677D01*
X0152057Y0245621D01*
X0152012Y0245567D01*
X0151964Y0245516D01*
X0151913Y0245468D01*
X0151859Y0245423D01*
X0151803Y0245381D01*
X0151745Y0245342D01*
X0151685Y0245306D01*
X0151622Y0245274D01*
X0151558Y0245245D01*
X0151493Y0245220D01*
X0151426Y0245199D01*
X0151358Y0245181D01*
X0151289Y0245168D01*
X0151220Y0245158D01*
X0151150Y0245152D01*
X0151080Y0245150D01*
X0151010Y0245152D01*
X0150940Y0245158D01*
X0150871Y0245168D01*
X0150802Y0245181D01*
X0150734Y0245199D01*
X0150667Y0245220D01*
X0150602Y0245245D01*
X0150538Y0245274D01*
X0150475Y0245306D01*
X0150415Y0245342D01*
X0150357Y0245381D01*
X0150301Y0245423D01*
X0150247Y0245468D01*
X0150196Y0245516D01*
X0150148Y0245567D01*
X0150103Y0245621D01*
X0150061Y0245677D01*
X0150022Y0245735D01*
X0149986Y0245795D01*
X0149954Y0245858D01*
X0149925Y0245922D01*
X0149900Y0245987D01*
X0149879Y0246054D01*
X0149861Y0246122D01*
X0149848Y0246191D01*
X0149838Y0246260D01*
X0149832Y0246330D01*
X0149830Y0246400D01*
M02*
