G75*
%MOIN*%
%OFA0B0*%
%FSLAX25Y25*%
%IPPOS*%
%LPD*%
%AMOC8*
5,1,8,0,0,1.08239X$1,22.5*
%
%ADD10C,0.00800*%
%ADD11C,0.07874*%
%ADD12R,0.07900X0.04000*%
%ADD13C,0.25000*%
%ADD14R,0.07087X0.06299*%
%ADD15R,0.04000X0.07900*%
%ADD16C,0.02500*%
%ADD17C,0.02000*%
%ADD18C,0.00600*%
D10*
X0136745Y0247425D02*
X0138147Y0247425D01*
X0138847Y0248126D01*
X0140649Y0248126D02*
X0141349Y0247425D01*
X0142750Y0247425D01*
X0143451Y0248126D01*
X0140649Y0250928D01*
X0140649Y0248126D01*
X0140649Y0250928D02*
X0141349Y0251629D01*
X0142750Y0251629D01*
X0143451Y0250928D01*
X0143451Y0248126D01*
X0145253Y0250227D02*
X0146654Y0247425D01*
X0148055Y0250227D01*
X0138847Y0250928D02*
X0138147Y0251629D01*
X0136745Y0251629D01*
X0136045Y0250928D01*
X0136045Y0250227D01*
X0136745Y0249527D01*
X0136045Y0248826D01*
X0136045Y0248126D01*
X0136745Y0247425D01*
X0136745Y0249527D02*
X0137446Y0249527D01*
D11*
X0118280Y0250400D03*
X0105830Y0250400D03*
X0093330Y0250400D03*
X0080780Y0250400D03*
X0053580Y0277650D03*
X0053580Y0290150D03*
X0053580Y0302650D03*
X0053580Y0315150D03*
X0080830Y0342400D03*
X0093580Y0342400D03*
X0105830Y0342400D03*
X0118580Y0342400D03*
X0145580Y0315150D03*
X0145580Y0302650D03*
X0145580Y0290150D03*
X0145580Y0277650D03*
D12*
X0118280Y0248400D03*
X0105830Y0248400D03*
X0093330Y0248400D03*
X0080780Y0248400D03*
X0080830Y0344400D03*
X0093580Y0344400D03*
X0105830Y0344400D03*
X0118580Y0344400D03*
D13*
X0164580Y0331400D03*
X0164580Y0261400D03*
X0034580Y0261400D03*
X0034580Y0331400D03*
D14*
X0099580Y0301912D03*
X0099580Y0290888D03*
D15*
X0051580Y0290150D03*
X0051580Y0302650D03*
X0051580Y0315150D03*
X0051580Y0277650D03*
X0147580Y0277650D03*
X0147580Y0290150D03*
X0147580Y0302650D03*
X0147580Y0315150D03*
D16*
X0154580Y0343650D03*
X0044580Y0249150D03*
D17*
X0052705Y0251212D03*
X0052705Y0254087D03*
X0055830Y0251275D03*
X0068330Y0251275D03*
X0068330Y0254150D03*
X0073930Y0254300D03*
X0075680Y0252700D03*
X0073430Y0251800D03*
X0075180Y0250150D03*
X0078880Y0252550D03*
X0080830Y0251275D03*
X0073880Y0262750D03*
X0075780Y0264650D03*
X0075230Y0266950D03*
X0073280Y0265400D03*
X0078180Y0265200D03*
X0080830Y0263775D03*
X0080830Y0266650D03*
X0080830Y0276275D03*
X0080830Y0279150D03*
X0073630Y0276750D03*
X0071030Y0277650D03*
X0068330Y0276275D03*
X0068330Y0279150D03*
X0062080Y0279900D03*
X0062030Y0275450D03*
X0055830Y0276275D03*
X0053480Y0277650D03*
X0055830Y0266650D03*
X0055830Y0263775D03*
X0068330Y0263775D03*
X0093330Y0263775D03*
X0093330Y0266650D03*
X0093330Y0276275D03*
X0093330Y0279150D03*
X0093330Y0288775D03*
X0093330Y0291588D03*
X0080830Y0291650D03*
X0080830Y0288775D03*
X0073955Y0288900D03*
X0068330Y0288775D03*
X0068330Y0291650D03*
X0068330Y0301275D03*
X0068330Y0304150D03*
X0068330Y0313775D03*
X0068330Y0316650D03*
X0068330Y0326275D03*
X0068330Y0329150D03*
X0073330Y0327250D03*
X0075630Y0328450D03*
X0073880Y0330100D03*
X0078080Y0327950D03*
X0080830Y0329150D03*
X0080830Y0326275D03*
X0083930Y0327600D03*
X0086380Y0325250D03*
X0087680Y0327500D03*
X0087730Y0330050D03*
X0093330Y0329150D03*
X0093330Y0326275D03*
X0093330Y0316650D03*
X0093330Y0313775D03*
X0080830Y0313775D03*
X0080830Y0316650D03*
X0075180Y0325200D03*
X0075130Y0337750D03*
X0073580Y0340000D03*
X0073880Y0342550D03*
X0078330Y0340250D03*
X0080830Y0338900D03*
X0087230Y0337850D03*
X0068330Y0338650D03*
X0068330Y0341525D03*
X0055830Y0341525D03*
X0055830Y0338650D03*
X0055830Y0329150D03*
X0055830Y0326275D03*
X0055830Y0316525D03*
X0080830Y0304150D03*
X0080830Y0301275D03*
X0093330Y0301275D03*
X0093330Y0304150D03*
X0105830Y0304150D03*
X0105830Y0301275D03*
X0105830Y0291650D03*
X0105830Y0288775D03*
X0105830Y0279150D03*
X0105830Y0276275D03*
X0105830Y0266650D03*
X0105830Y0263775D03*
X0118330Y0263775D03*
X0118330Y0266650D03*
X0118330Y0276275D03*
X0118330Y0279150D03*
X0125380Y0279050D03*
X0125380Y0276250D03*
X0127930Y0277700D03*
X0130830Y0279025D03*
X0130830Y0276150D03*
X0136030Y0276750D03*
X0137780Y0275250D03*
X0143330Y0276275D03*
X0145230Y0277700D03*
X0143330Y0266650D03*
X0143330Y0263775D03*
X0143330Y0254025D03*
X0130830Y0254150D03*
X0130830Y0251275D03*
X0118330Y0254025D03*
X0130830Y0263775D03*
X0130830Y0266650D03*
X0130830Y0288775D03*
X0130830Y0291650D03*
X0130830Y0301275D03*
X0130830Y0304150D03*
X0130830Y0313775D03*
X0130830Y0316650D03*
X0128080Y0315300D03*
X0136680Y0317500D03*
X0136780Y0312700D03*
X0143330Y0316400D03*
X0137630Y0325250D03*
X0136180Y0327450D03*
X0137730Y0329650D03*
X0141580Y0327650D03*
X0145080Y0327650D03*
X0146455Y0338713D03*
X0146455Y0341525D03*
X0143330Y0341550D03*
X0137080Y0338900D03*
X0130830Y0338650D03*
X0130830Y0341650D03*
X0127730Y0340050D03*
X0125380Y0341450D03*
X0123580Y0339650D03*
X0125230Y0337700D03*
X0120980Y0340150D03*
X0118330Y0341525D03*
X0111930Y0337800D03*
X0105830Y0329150D03*
X0105830Y0326275D03*
X0105830Y0316650D03*
X0105830Y0313775D03*
X0112393Y0316088D03*
X0118330Y0316650D03*
X0118330Y0313775D03*
X0118330Y0304150D03*
X0118330Y0301275D03*
X0118330Y0291650D03*
X0118330Y0288775D03*
X0118330Y0326275D03*
X0118330Y0329150D03*
X0121780Y0327700D03*
X0123980Y0329050D03*
X0130830Y0329275D03*
X0130830Y0326400D03*
X0133480Y0327900D03*
D18*
X0132730Y0327187D02*
X0131617Y0328300D01*
X0130043Y0328300D01*
X0128930Y0327187D01*
X0128930Y0325613D01*
X0130043Y0324500D01*
X0131617Y0324500D01*
X0132730Y0325613D01*
X0132730Y0327187D01*
X0132718Y0327199D02*
X0139680Y0327199D01*
X0139680Y0326863D02*
X0140793Y0325750D01*
X0142367Y0325750D01*
X0143480Y0326863D01*
X0143480Y0328437D01*
X0142367Y0329550D01*
X0140793Y0329550D01*
X0139680Y0328437D01*
X0139680Y0326863D01*
X0139942Y0326601D02*
X0132730Y0326601D01*
X0132730Y0326002D02*
X0140541Y0326002D01*
X0139680Y0327798D02*
X0132119Y0327798D01*
X0132520Y0325403D02*
X0148536Y0325403D01*
X0148430Y0325509D02*
X0149689Y0324250D01*
X0151471Y0324250D01*
X0152730Y0325509D01*
X0152730Y0327291D01*
X0151471Y0328550D01*
X0149689Y0328550D01*
X0148430Y0327291D01*
X0148430Y0325509D01*
X0148430Y0326002D02*
X0142619Y0326002D01*
X0143218Y0326601D02*
X0148430Y0326601D01*
X0148430Y0327199D02*
X0143480Y0327199D01*
X0143480Y0327798D02*
X0148937Y0327798D01*
X0149536Y0328396D02*
X0143480Y0328396D01*
X0142922Y0328995D02*
X0178100Y0328995D01*
X0178260Y0329593D02*
X0151814Y0329593D01*
X0151471Y0329250D02*
X0152730Y0330509D01*
X0152730Y0332291D01*
X0151471Y0333550D01*
X0149689Y0333550D01*
X0148430Y0332291D01*
X0148430Y0330509D01*
X0149689Y0329250D01*
X0151471Y0329250D01*
X0151624Y0328396D02*
X0177940Y0328396D01*
X0177779Y0327798D02*
X0152223Y0327798D01*
X0152730Y0327199D02*
X0177619Y0327199D01*
X0177459Y0326601D02*
X0152730Y0326601D01*
X0152730Y0326002D02*
X0177262Y0326002D01*
X0177330Y0326119D02*
X0175528Y0322999D01*
X0172981Y0320452D01*
X0169861Y0318650D01*
X0166381Y0317718D01*
X0164580Y0317600D01*
X0152421Y0317600D01*
X0151471Y0318550D01*
X0149689Y0318550D01*
X0148430Y0317291D01*
X0148430Y0316947D01*
X0148380Y0316897D01*
X0148380Y0307500D01*
X0145207Y0307500D01*
X0145194Y0307487D01*
X0144618Y0307487D01*
X0142840Y0306751D01*
X0141479Y0305390D01*
X0140842Y0303850D01*
X0138202Y0303850D01*
X0130177Y0311875D01*
X0131617Y0311875D01*
X0132730Y0312988D01*
X0132730Y0314562D01*
X0131617Y0315675D01*
X0130043Y0315675D01*
X0128930Y0314562D01*
X0128930Y0313122D01*
X0120965Y0321088D01*
X0130077Y0330200D01*
X0136827Y0330200D01*
X0137530Y0330903D01*
X0144555Y0337928D01*
X0144555Y0337925D01*
X0145668Y0336813D01*
X0147242Y0336813D01*
X0148355Y0337925D01*
X0148355Y0339499D01*
X0147736Y0340119D01*
X0148355Y0340738D01*
X0148355Y0342312D01*
X0147242Y0343425D01*
X0145668Y0343425D01*
X0144555Y0342312D01*
X0144555Y0341322D01*
X0135833Y0332600D01*
X0129083Y0332600D01*
X0119268Y0322785D01*
X0117677Y0324375D01*
X0119117Y0324375D01*
X0120230Y0325488D01*
X0120230Y0327062D01*
X0119117Y0328175D01*
X0117543Y0328175D01*
X0116430Y0327062D01*
X0116430Y0325622D01*
X0107030Y0335022D01*
X0107030Y0337662D01*
X0108570Y0338299D01*
X0109931Y0339660D01*
X0110667Y0341438D01*
X0110667Y0342014D01*
X0110680Y0342027D01*
X0110680Y0345200D01*
X0148739Y0345200D01*
X0149689Y0344250D01*
X0151471Y0344250D01*
X0152421Y0345200D01*
X0153089Y0345200D01*
X0152430Y0344541D01*
X0152430Y0342759D01*
X0153689Y0341500D01*
X0155471Y0341500D01*
X0156730Y0342759D01*
X0156730Y0344541D01*
X0156071Y0345200D01*
X0164580Y0345200D01*
X0166381Y0345082D01*
X0169861Y0344150D01*
X0172981Y0342348D01*
X0175528Y0339801D01*
X0177330Y0336681D01*
X0178262Y0333201D01*
X0178380Y0331400D01*
X0178380Y0331400D01*
X0178262Y0329599D01*
X0177330Y0326119D01*
X0176916Y0325403D02*
X0152624Y0325403D01*
X0152026Y0324805D02*
X0176571Y0324805D01*
X0176225Y0324206D02*
X0124084Y0324206D01*
X0124682Y0324805D02*
X0129738Y0324805D01*
X0129140Y0325403D02*
X0125281Y0325403D01*
X0125879Y0326002D02*
X0128930Y0326002D01*
X0128930Y0326601D02*
X0126478Y0326601D01*
X0127076Y0327199D02*
X0128942Y0327199D01*
X0129541Y0327798D02*
X0127675Y0327798D01*
X0128273Y0328396D02*
X0139680Y0328396D01*
X0140238Y0328995D02*
X0128872Y0328995D01*
X0129470Y0329593D02*
X0149346Y0329593D01*
X0148748Y0330192D02*
X0130069Y0330192D01*
X0129580Y0331400D02*
X0119268Y0321088D01*
X0105830Y0334525D01*
X0105830Y0342400D01*
X0105830Y0344400D01*
X0100980Y0344556D02*
X0098430Y0344556D01*
X0098430Y0345154D02*
X0100980Y0345154D01*
X0100980Y0345200D02*
X0100980Y0342027D01*
X0100993Y0342014D01*
X0100993Y0341438D01*
X0101729Y0339660D01*
X0103090Y0338299D01*
X0104630Y0337662D01*
X0104630Y0335022D01*
X0104630Y0334028D01*
X0118770Y0319888D01*
X0137208Y0301450D01*
X0140842Y0301450D01*
X0141479Y0299910D01*
X0142840Y0298549D01*
X0144618Y0297813D01*
X0145194Y0297813D01*
X0145207Y0297800D01*
X0148380Y0297800D01*
X0148380Y0295000D01*
X0145207Y0295000D01*
X0145194Y0294987D01*
X0144618Y0294987D01*
X0142840Y0294251D01*
X0141479Y0292890D01*
X0140842Y0291350D01*
X0138827Y0291350D01*
X0130802Y0299375D01*
X0131617Y0299375D01*
X0132730Y0300488D01*
X0132730Y0302062D01*
X0131617Y0303175D01*
X0130043Y0303175D01*
X0128930Y0302062D01*
X0128930Y0301247D01*
X0118302Y0311875D01*
X0119117Y0311875D01*
X0120230Y0312988D01*
X0120230Y0314562D01*
X0119117Y0315675D01*
X0117543Y0315675D01*
X0116430Y0314562D01*
X0116430Y0313747D01*
X0114292Y0315885D01*
X0114292Y0316874D01*
X0113180Y0317987D01*
X0112190Y0317987D01*
X0105802Y0324375D01*
X0106617Y0324375D01*
X0107730Y0325488D01*
X0107730Y0327062D01*
X0106617Y0328175D01*
X0105043Y0328175D01*
X0103930Y0327062D01*
X0103930Y0326247D01*
X0094780Y0335397D01*
X0094780Y0337662D01*
X0096320Y0338299D01*
X0097681Y0339660D01*
X0098417Y0341438D01*
X0098417Y0342014D01*
X0098430Y0342027D01*
X0098430Y0345200D01*
X0100980Y0345200D01*
X0100980Y0343957D02*
X0098430Y0343957D01*
X0098430Y0343359D02*
X0100980Y0343359D01*
X0100980Y0342760D02*
X0098430Y0342760D01*
X0098430Y0342162D02*
X0100980Y0342162D01*
X0100993Y0341563D02*
X0098417Y0341563D01*
X0098221Y0340965D02*
X0101189Y0340965D01*
X0101437Y0340366D02*
X0097973Y0340366D01*
X0097725Y0339768D02*
X0101685Y0339768D01*
X0102220Y0339169D02*
X0097190Y0339169D01*
X0096591Y0338571D02*
X0102819Y0338571D01*
X0103880Y0337972D02*
X0095530Y0337972D01*
X0094780Y0337374D02*
X0104630Y0337374D01*
X0104630Y0336775D02*
X0094780Y0336775D01*
X0094780Y0336177D02*
X0104630Y0336177D01*
X0104630Y0335578D02*
X0094780Y0335578D01*
X0095197Y0334980D02*
X0104630Y0334980D01*
X0104630Y0334381D02*
X0095796Y0334381D01*
X0096394Y0333783D02*
X0104875Y0333783D01*
X0105474Y0333184D02*
X0096993Y0333184D01*
X0097591Y0332586D02*
X0106072Y0332586D01*
X0106671Y0331987D02*
X0098190Y0331987D01*
X0098788Y0331389D02*
X0107269Y0331389D01*
X0107868Y0330790D02*
X0099387Y0330790D01*
X0099985Y0330192D02*
X0108466Y0330192D01*
X0109065Y0329593D02*
X0100584Y0329593D01*
X0101182Y0328995D02*
X0109663Y0328995D01*
X0110262Y0328396D02*
X0101781Y0328396D01*
X0102380Y0327798D02*
X0104666Y0327798D01*
X0104067Y0327199D02*
X0102978Y0327199D01*
X0103577Y0326601D02*
X0103930Y0326601D01*
X0101978Y0324805D02*
X0094547Y0324805D01*
X0094117Y0324375D02*
X0095230Y0325488D01*
X0095230Y0327062D01*
X0094117Y0328175D01*
X0092543Y0328175D01*
X0091430Y0327062D01*
X0091430Y0325488D01*
X0092543Y0324375D01*
X0094117Y0324375D01*
X0095145Y0325403D02*
X0101379Y0325403D01*
X0100781Y0326002D02*
X0095230Y0326002D01*
X0095230Y0326601D02*
X0100182Y0326601D01*
X0099584Y0327199D02*
X0095093Y0327199D01*
X0094494Y0327798D02*
X0098985Y0327798D01*
X0098387Y0328396D02*
X0090780Y0328396D01*
X0090780Y0327798D02*
X0092166Y0327798D01*
X0091567Y0327199D02*
X0090780Y0327199D01*
X0090780Y0326601D02*
X0091430Y0326601D01*
X0091430Y0326002D02*
X0090780Y0326002D01*
X0090780Y0325403D02*
X0091515Y0325403D01*
X0092113Y0324805D02*
X0090780Y0324805D01*
X0090780Y0324206D02*
X0102576Y0324206D01*
X0103175Y0323608D02*
X0090780Y0323608D01*
X0090780Y0323403D02*
X0090780Y0338359D01*
X0090840Y0338299D01*
X0092380Y0337662D01*
X0092380Y0334403D01*
X0110493Y0316290D01*
X0110493Y0315300D01*
X0111605Y0314188D01*
X0112595Y0314188D01*
X0137130Y0289653D01*
X0137833Y0288950D01*
X0140842Y0288950D01*
X0141401Y0287600D01*
X0132342Y0287600D01*
X0132730Y0287988D01*
X0132730Y0289562D01*
X0131617Y0290675D01*
X0130043Y0290675D01*
X0128930Y0289562D01*
X0128930Y0287988D01*
X0129318Y0287600D01*
X0126583Y0287600D01*
X0124083Y0285100D01*
X0123380Y0284397D01*
X0123380Y0270903D01*
X0125880Y0268403D01*
X0126583Y0267700D01*
X0149339Y0267700D01*
X0148930Y0267291D01*
X0148930Y0265509D01*
X0150189Y0264250D01*
X0151971Y0264250D01*
X0153230Y0265509D01*
X0153230Y0267291D01*
X0151971Y0268550D01*
X0150780Y0268550D01*
X0150780Y0269250D01*
X0151971Y0269250D01*
X0153230Y0270509D01*
X0153230Y0272291D01*
X0151971Y0273550D01*
X0150780Y0273550D01*
X0150780Y0274250D01*
X0151971Y0274250D01*
X0152921Y0275200D01*
X0164580Y0275200D01*
X0166381Y0275082D01*
X0169861Y0274150D01*
X0172981Y0272348D01*
X0175528Y0269801D01*
X0177330Y0266681D01*
X0178262Y0263201D01*
X0178380Y0261400D01*
X0178262Y0259599D01*
X0177330Y0256119D01*
X0175528Y0252999D01*
X0172981Y0250452D01*
X0169861Y0248650D01*
X0166381Y0247718D01*
X0164580Y0247600D01*
X0152921Y0247600D01*
X0151971Y0248550D01*
X0150189Y0248550D01*
X0149239Y0247600D01*
X0148195Y0247600D01*
X0149410Y0250030D01*
X0150189Y0249250D01*
X0151971Y0249250D01*
X0153230Y0250509D01*
X0153230Y0252291D01*
X0151971Y0253550D01*
X0150189Y0253550D01*
X0148930Y0252291D01*
X0148930Y0251243D01*
X0148155Y0251631D01*
X0147133Y0251290D01*
X0146654Y0250332D01*
X0146175Y0251290D01*
X0145153Y0251631D01*
X0144751Y0251430D01*
X0144751Y0251466D01*
X0144271Y0251947D01*
X0144050Y0252167D01*
X0143769Y0252448D01*
X0143289Y0252929D01*
X0140811Y0252929D01*
X0140316Y0252434D01*
X0140049Y0252167D01*
X0139871Y0251989D01*
X0139748Y0251866D01*
X0139447Y0252167D01*
X0139165Y0252448D01*
X0138685Y0252929D01*
X0136207Y0252929D01*
X0135712Y0252434D01*
X0135445Y0252167D01*
X0135239Y0251961D01*
X0134745Y0251466D01*
X0134745Y0249689D01*
X0134907Y0249527D01*
X0134745Y0249365D01*
X0134745Y0247600D01*
X0110680Y0247600D01*
X0110680Y0250773D01*
X0110667Y0250786D01*
X0110667Y0251362D01*
X0109931Y0253140D01*
X0108570Y0254501D01*
X0107030Y0255138D01*
X0107030Y0257522D01*
X0106327Y0258225D01*
X0075855Y0288697D01*
X0075855Y0289687D01*
X0074742Y0290800D01*
X0073752Y0290800D01*
X0061405Y0303147D01*
X0060702Y0303850D01*
X0058318Y0303850D01*
X0057681Y0305390D01*
X0056320Y0306751D01*
X0054542Y0307487D01*
X0053966Y0307487D01*
X0053953Y0307500D01*
X0050780Y0307500D01*
X0050780Y0316897D01*
X0050077Y0317600D01*
X0049921Y0317600D01*
X0048971Y0318550D01*
X0047189Y0318550D01*
X0046239Y0317600D01*
X0034580Y0317600D01*
X0032779Y0317718D01*
X0029299Y0318650D01*
X0026179Y0320452D01*
X0023632Y0322999D01*
X0021830Y0326119D01*
X0020898Y0329599D01*
X0020780Y0331400D01*
X0020780Y0331400D01*
X0020898Y0333201D01*
X0021830Y0336681D01*
X0021830Y0336681D01*
X0023632Y0339801D01*
X0026179Y0342348D01*
X0029299Y0344150D01*
X0032779Y0345082D01*
X0034580Y0345200D01*
X0046239Y0345200D01*
X0047189Y0344250D01*
X0048971Y0344250D01*
X0049921Y0345200D01*
X0070880Y0345200D01*
X0070880Y0323403D01*
X0073380Y0320903D01*
X0074083Y0320200D01*
X0087577Y0320200D01*
X0090077Y0322700D01*
X0090780Y0323403D01*
X0090387Y0323009D02*
X0103773Y0323009D01*
X0104372Y0322411D02*
X0089788Y0322411D01*
X0089189Y0321812D02*
X0104971Y0321812D01*
X0105569Y0321214D02*
X0088591Y0321214D01*
X0087992Y0320615D02*
X0106168Y0320615D01*
X0106766Y0320017D02*
X0049737Y0320017D01*
X0050230Y0320509D02*
X0048971Y0319250D01*
X0047189Y0319250D01*
X0045930Y0320509D01*
X0045930Y0322291D01*
X0047189Y0323550D01*
X0048971Y0323550D01*
X0050230Y0322291D01*
X0050230Y0320509D01*
X0050230Y0320615D02*
X0073668Y0320615D01*
X0073069Y0321214D02*
X0050230Y0321214D01*
X0050230Y0321812D02*
X0072471Y0321812D01*
X0071872Y0322411D02*
X0050110Y0322411D01*
X0049511Y0323009D02*
X0071273Y0323009D01*
X0070880Y0323608D02*
X0023280Y0323608D01*
X0022935Y0324206D02*
X0070880Y0324206D01*
X0070880Y0324805D02*
X0069547Y0324805D01*
X0069117Y0324375D02*
X0070230Y0325488D01*
X0070230Y0327062D01*
X0069117Y0328175D01*
X0067543Y0328175D01*
X0066430Y0327062D01*
X0066430Y0325488D01*
X0067543Y0324375D01*
X0069117Y0324375D01*
X0070145Y0325403D02*
X0070880Y0325403D01*
X0070880Y0326002D02*
X0070230Y0326002D01*
X0070230Y0326601D02*
X0070880Y0326601D01*
X0070880Y0327199D02*
X0070093Y0327199D01*
X0069494Y0327798D02*
X0070880Y0327798D01*
X0070880Y0328396D02*
X0049124Y0328396D01*
X0048971Y0328550D02*
X0050230Y0327291D01*
X0050230Y0325509D01*
X0048971Y0324250D01*
X0047189Y0324250D01*
X0045930Y0325509D01*
X0045930Y0327291D01*
X0047189Y0328550D01*
X0048971Y0328550D01*
X0048971Y0329250D02*
X0050230Y0330509D01*
X0050230Y0332291D01*
X0048971Y0333550D01*
X0047189Y0333550D01*
X0045930Y0332291D01*
X0045930Y0330509D01*
X0047189Y0329250D01*
X0048971Y0329250D01*
X0049314Y0329593D02*
X0070880Y0329593D01*
X0070880Y0328995D02*
X0021060Y0328995D01*
X0020900Y0329593D02*
X0046846Y0329593D01*
X0046248Y0330192D02*
X0020859Y0330192D01*
X0020820Y0330790D02*
X0045930Y0330790D01*
X0045930Y0331389D02*
X0020781Y0331389D01*
X0020818Y0331987D02*
X0045930Y0331987D01*
X0046225Y0332586D02*
X0020858Y0332586D01*
X0020897Y0333184D02*
X0046824Y0333184D01*
X0047189Y0334250D02*
X0048971Y0334250D01*
X0050230Y0335509D01*
X0050230Y0337291D01*
X0048971Y0338550D01*
X0047189Y0338550D01*
X0045930Y0337291D01*
X0045930Y0335509D01*
X0047189Y0334250D01*
X0047058Y0334381D02*
X0021214Y0334381D01*
X0021054Y0333783D02*
X0070880Y0333783D01*
X0070880Y0334381D02*
X0049102Y0334381D01*
X0049700Y0334980D02*
X0070880Y0334980D01*
X0070880Y0335578D02*
X0050230Y0335578D01*
X0050230Y0336177D02*
X0070880Y0336177D01*
X0070880Y0336775D02*
X0069142Y0336775D01*
X0069117Y0336750D02*
X0070230Y0337863D01*
X0070230Y0339437D01*
X0069117Y0340550D01*
X0067543Y0340550D01*
X0066430Y0339437D01*
X0066430Y0337863D01*
X0067543Y0336750D01*
X0069117Y0336750D01*
X0069741Y0337374D02*
X0070880Y0337374D01*
X0070880Y0337972D02*
X0070230Y0337972D01*
X0070230Y0338571D02*
X0070880Y0338571D01*
X0070880Y0339169D02*
X0070230Y0339169D01*
X0069899Y0339768D02*
X0070880Y0339768D01*
X0070880Y0340366D02*
X0069301Y0340366D01*
X0070880Y0340965D02*
X0050230Y0340965D01*
X0050230Y0340509D02*
X0048971Y0339250D01*
X0047189Y0339250D01*
X0045930Y0340509D01*
X0045930Y0342291D01*
X0047189Y0343550D01*
X0048971Y0343550D01*
X0050230Y0342291D01*
X0050230Y0340509D01*
X0050087Y0340366D02*
X0054859Y0340366D01*
X0055043Y0340550D02*
X0053930Y0339437D01*
X0053930Y0337863D01*
X0055043Y0336750D01*
X0056617Y0336750D01*
X0057730Y0337863D01*
X0057730Y0339437D01*
X0056617Y0340550D01*
X0055043Y0340550D01*
X0054261Y0339768D02*
X0049488Y0339768D01*
X0049548Y0337972D02*
X0053930Y0337972D01*
X0053930Y0338571D02*
X0022921Y0338571D01*
X0022576Y0337972D02*
X0046612Y0337972D01*
X0046013Y0337374D02*
X0022230Y0337374D01*
X0021885Y0336775D02*
X0045930Y0336775D01*
X0045930Y0336177D02*
X0021695Y0336177D01*
X0021535Y0335578D02*
X0045930Y0335578D01*
X0046460Y0334980D02*
X0021375Y0334980D01*
X0021220Y0328396D02*
X0047036Y0328396D01*
X0046437Y0327798D02*
X0021381Y0327798D01*
X0021541Y0327199D02*
X0045930Y0327199D01*
X0045930Y0326601D02*
X0021701Y0326601D01*
X0021898Y0326002D02*
X0045930Y0326002D01*
X0046036Y0325403D02*
X0022244Y0325403D01*
X0022589Y0324805D02*
X0046634Y0324805D01*
X0046649Y0323009D02*
X0023626Y0323009D01*
X0024220Y0322411D02*
X0046050Y0322411D01*
X0045930Y0321812D02*
X0024818Y0321812D01*
X0025417Y0321214D02*
X0045930Y0321214D01*
X0045930Y0320615D02*
X0026015Y0320615D01*
X0026932Y0320017D02*
X0046423Y0320017D01*
X0047021Y0319418D02*
X0027969Y0319418D01*
X0029006Y0318820D02*
X0107963Y0318820D01*
X0107365Y0319418D02*
X0049139Y0319418D01*
X0049299Y0318221D02*
X0108562Y0318221D01*
X0109160Y0317623D02*
X0049898Y0317623D01*
X0050653Y0317024D02*
X0109759Y0317024D01*
X0110357Y0316426D02*
X0050780Y0316426D01*
X0050780Y0315827D02*
X0110493Y0315827D01*
X0110564Y0315229D02*
X0107063Y0315229D01*
X0106617Y0315675D02*
X0105043Y0315675D01*
X0103930Y0314562D01*
X0103930Y0312988D01*
X0105043Y0311875D01*
X0106617Y0311875D01*
X0107730Y0312988D01*
X0107730Y0314562D01*
X0106617Y0315675D01*
X0107662Y0314630D02*
X0111163Y0314630D01*
X0112751Y0314032D02*
X0107730Y0314032D01*
X0107730Y0313433D02*
X0113350Y0313433D01*
X0113948Y0312835D02*
X0107577Y0312835D01*
X0106978Y0312236D02*
X0114547Y0312236D01*
X0115145Y0311638D02*
X0050780Y0311638D01*
X0050780Y0312236D02*
X0067182Y0312236D01*
X0067543Y0311875D02*
X0069117Y0311875D01*
X0070230Y0312988D01*
X0070230Y0314562D01*
X0069117Y0315675D01*
X0067543Y0315675D01*
X0066430Y0314562D01*
X0066430Y0312988D01*
X0067543Y0311875D01*
X0066583Y0312835D02*
X0050780Y0312835D01*
X0050780Y0313433D02*
X0066430Y0313433D01*
X0066430Y0314032D02*
X0050780Y0314032D01*
X0050780Y0314630D02*
X0066498Y0314630D01*
X0067097Y0315229D02*
X0050780Y0315229D01*
X0051580Y0315150D02*
X0053580Y0315150D01*
X0054955Y0316525D01*
X0055830Y0316525D01*
X0050780Y0311039D02*
X0115744Y0311039D01*
X0116342Y0310441D02*
X0050780Y0310441D01*
X0050780Y0309842D02*
X0116941Y0309842D01*
X0117539Y0309244D02*
X0050780Y0309244D01*
X0050780Y0308645D02*
X0118138Y0308645D01*
X0118736Y0308047D02*
X0050780Y0308047D01*
X0054636Y0307448D02*
X0119335Y0307448D01*
X0119933Y0306850D02*
X0056081Y0306850D01*
X0056819Y0306251D02*
X0120532Y0306251D01*
X0121130Y0305653D02*
X0103805Y0305653D01*
X0104023Y0305434D02*
X0103496Y0305961D01*
X0095664Y0305961D01*
X0095137Y0305434D01*
X0095137Y0303112D01*
X0094180Y0303112D01*
X0094117Y0303175D01*
X0092543Y0303175D01*
X0091430Y0302062D01*
X0091430Y0300488D01*
X0092543Y0299375D01*
X0094117Y0299375D01*
X0095137Y0300395D01*
X0095137Y0298389D01*
X0095664Y0297862D01*
X0103496Y0297862D01*
X0104023Y0298389D01*
X0104023Y0300395D01*
X0105043Y0299375D01*
X0106617Y0299375D01*
X0107730Y0300488D01*
X0107730Y0302062D01*
X0106617Y0303175D01*
X0105043Y0303175D01*
X0104023Y0302155D01*
X0104023Y0305434D01*
X0104023Y0305054D02*
X0121729Y0305054D01*
X0122327Y0304456D02*
X0104023Y0304456D01*
X0104023Y0303857D02*
X0122926Y0303857D01*
X0123524Y0303259D02*
X0104023Y0303259D01*
X0104023Y0302660D02*
X0104528Y0302660D01*
X0104152Y0300266D02*
X0104023Y0300266D01*
X0104023Y0299668D02*
X0104750Y0299668D01*
X0104023Y0299069D02*
X0127714Y0299069D01*
X0128312Y0298470D02*
X0104023Y0298470D01*
X0103506Y0297872D02*
X0128911Y0297872D01*
X0129509Y0297273D02*
X0067279Y0297273D01*
X0067877Y0296675D02*
X0130108Y0296675D01*
X0130707Y0296076D02*
X0068476Y0296076D01*
X0069074Y0295478D02*
X0131305Y0295478D01*
X0131904Y0294879D02*
X0069673Y0294879D01*
X0070271Y0294281D02*
X0132502Y0294281D01*
X0133101Y0293682D02*
X0070870Y0293682D01*
X0071468Y0293084D02*
X0133699Y0293084D01*
X0134298Y0292485D02*
X0072067Y0292485D01*
X0072665Y0291887D02*
X0134896Y0291887D01*
X0135495Y0291288D02*
X0073264Y0291288D01*
X0074852Y0290690D02*
X0136093Y0290690D01*
X0136692Y0290091D02*
X0132201Y0290091D01*
X0132730Y0289493D02*
X0137290Y0289493D01*
X0138330Y0290150D02*
X0145580Y0290150D01*
X0147580Y0290150D01*
X0148380Y0295478D02*
X0134699Y0295478D01*
X0134101Y0296076D02*
X0148380Y0296076D01*
X0148380Y0296675D02*
X0133502Y0296675D01*
X0132904Y0297273D02*
X0148380Y0297273D01*
X0144475Y0297872D02*
X0132305Y0297872D01*
X0131707Y0298470D02*
X0143031Y0298470D01*
X0142320Y0299069D02*
X0131108Y0299069D01*
X0131910Y0299668D02*
X0141722Y0299668D01*
X0141332Y0300266D02*
X0132508Y0300266D01*
X0132730Y0300865D02*
X0141084Y0300865D01*
X0140844Y0303857D02*
X0138195Y0303857D01*
X0137596Y0304456D02*
X0141092Y0304456D01*
X0141340Y0305054D02*
X0136998Y0305054D01*
X0136399Y0305653D02*
X0141742Y0305653D01*
X0142341Y0306251D02*
X0135801Y0306251D01*
X0135202Y0306850D02*
X0143079Y0306850D01*
X0144524Y0307448D02*
X0134604Y0307448D01*
X0134005Y0308047D02*
X0148380Y0308047D01*
X0148380Y0308645D02*
X0133407Y0308645D01*
X0132808Y0309244D02*
X0148380Y0309244D01*
X0148380Y0309842D02*
X0132210Y0309842D01*
X0131611Y0310441D02*
X0148380Y0310441D01*
X0148380Y0311039D02*
X0131013Y0311039D01*
X0130414Y0311638D02*
X0148380Y0311638D01*
X0148380Y0312236D02*
X0131978Y0312236D01*
X0132577Y0312835D02*
X0148380Y0312835D01*
X0148380Y0313433D02*
X0132730Y0313433D01*
X0132730Y0314032D02*
X0148380Y0314032D01*
X0148380Y0314630D02*
X0132662Y0314630D01*
X0132063Y0315229D02*
X0148380Y0315229D01*
X0148380Y0315827D02*
X0126225Y0315827D01*
X0126823Y0315229D02*
X0129597Y0315229D01*
X0128998Y0314630D02*
X0127422Y0314630D01*
X0128020Y0314032D02*
X0128930Y0314032D01*
X0128930Y0313433D02*
X0128619Y0313433D01*
X0127020Y0311638D02*
X0118539Y0311638D01*
X0119138Y0311039D02*
X0127619Y0311039D01*
X0128217Y0310441D02*
X0119736Y0310441D01*
X0120335Y0309842D02*
X0128816Y0309842D01*
X0129414Y0309244D02*
X0120933Y0309244D01*
X0121532Y0308645D02*
X0130013Y0308645D01*
X0130611Y0308047D02*
X0122130Y0308047D01*
X0122729Y0307448D02*
X0131210Y0307448D01*
X0131808Y0306850D02*
X0123327Y0306850D01*
X0123926Y0306251D02*
X0132407Y0306251D01*
X0133005Y0305653D02*
X0124524Y0305653D01*
X0125123Y0305054D02*
X0133604Y0305054D01*
X0134202Y0304456D02*
X0125721Y0304456D01*
X0126320Y0303857D02*
X0134801Y0303857D01*
X0135399Y0303259D02*
X0126918Y0303259D01*
X0127517Y0302660D02*
X0129528Y0302660D01*
X0128930Y0302062D02*
X0128115Y0302062D01*
X0128714Y0301463D02*
X0128930Y0301463D01*
X0127115Y0299668D02*
X0119410Y0299668D01*
X0119117Y0299375D02*
X0120230Y0300488D01*
X0120230Y0302062D01*
X0119117Y0303175D01*
X0117543Y0303175D01*
X0116430Y0302062D01*
X0116430Y0300488D01*
X0117543Y0299375D01*
X0119117Y0299375D01*
X0120008Y0300266D02*
X0126517Y0300266D01*
X0125918Y0300865D02*
X0120230Y0300865D01*
X0120230Y0301463D02*
X0125320Y0301463D01*
X0124721Y0302062D02*
X0120230Y0302062D01*
X0119632Y0302660D02*
X0124123Y0302660D01*
X0117028Y0302660D02*
X0107132Y0302660D01*
X0107730Y0302062D02*
X0116430Y0302062D01*
X0116430Y0301463D02*
X0107730Y0301463D01*
X0107730Y0300865D02*
X0116430Y0300865D01*
X0116652Y0300266D02*
X0107508Y0300266D01*
X0106910Y0299668D02*
X0117250Y0299668D01*
X0117543Y0290675D02*
X0116430Y0289562D01*
X0116430Y0287988D01*
X0117543Y0286875D01*
X0119117Y0286875D01*
X0120230Y0287988D01*
X0120230Y0289562D01*
X0119117Y0290675D01*
X0117543Y0290675D01*
X0116959Y0290091D02*
X0107201Y0290091D01*
X0107730Y0289562D02*
X0106617Y0290675D01*
X0105043Y0290675D01*
X0103930Y0289562D01*
X0103930Y0287988D01*
X0105043Y0286875D01*
X0106617Y0286875D01*
X0107730Y0287988D01*
X0107730Y0289562D01*
X0107730Y0289493D02*
X0116430Y0289493D01*
X0116430Y0288894D02*
X0107730Y0288894D01*
X0107730Y0288296D02*
X0116430Y0288296D01*
X0116721Y0287697D02*
X0107439Y0287697D01*
X0106841Y0287099D02*
X0117319Y0287099D01*
X0119341Y0287099D02*
X0126082Y0287099D01*
X0125483Y0286500D02*
X0078052Y0286500D01*
X0078650Y0285902D02*
X0124885Y0285902D01*
X0124286Y0285303D02*
X0079249Y0285303D01*
X0079847Y0284705D02*
X0123688Y0284705D01*
X0123380Y0284106D02*
X0080446Y0284106D01*
X0081044Y0283508D02*
X0123380Y0283508D01*
X0123380Y0282909D02*
X0081643Y0282909D01*
X0082241Y0282311D02*
X0123380Y0282311D01*
X0123380Y0281712D02*
X0082840Y0281712D01*
X0083438Y0281114D02*
X0123380Y0281114D01*
X0123380Y0280515D02*
X0084037Y0280515D01*
X0084635Y0279917D02*
X0123380Y0279917D01*
X0123380Y0279318D02*
X0085234Y0279318D01*
X0085832Y0278720D02*
X0123380Y0278720D01*
X0123380Y0278121D02*
X0119171Y0278121D01*
X0119117Y0278175D02*
X0117543Y0278175D01*
X0116430Y0277062D01*
X0116430Y0275488D01*
X0117543Y0274375D01*
X0119117Y0274375D01*
X0120230Y0275488D01*
X0120230Y0277062D01*
X0119117Y0278175D01*
X0119769Y0277523D02*
X0123380Y0277523D01*
X0123380Y0276924D02*
X0120230Y0276924D01*
X0120230Y0276326D02*
X0123380Y0276326D01*
X0123380Y0275727D02*
X0120230Y0275727D01*
X0119871Y0275129D02*
X0123380Y0275129D01*
X0123380Y0274530D02*
X0119272Y0274530D01*
X0117388Y0274530D02*
X0106772Y0274530D01*
X0106617Y0274375D02*
X0107730Y0275488D01*
X0107730Y0277062D01*
X0106617Y0278175D01*
X0105043Y0278175D01*
X0103930Y0277062D01*
X0103930Y0275488D01*
X0105043Y0274375D01*
X0106617Y0274375D01*
X0107371Y0275129D02*
X0116789Y0275129D01*
X0116430Y0275727D02*
X0107730Y0275727D01*
X0107730Y0276326D02*
X0116430Y0276326D01*
X0116430Y0276924D02*
X0107730Y0276924D01*
X0107269Y0277523D02*
X0116891Y0277523D01*
X0117489Y0278121D02*
X0106671Y0278121D01*
X0104989Y0278121D02*
X0094171Y0278121D01*
X0094117Y0278175D02*
X0092543Y0278175D01*
X0091430Y0277062D01*
X0091430Y0275488D01*
X0092543Y0274375D01*
X0094117Y0274375D01*
X0095230Y0275488D01*
X0095230Y0277062D01*
X0094117Y0278175D01*
X0094769Y0277523D02*
X0104391Y0277523D01*
X0103930Y0276924D02*
X0095230Y0276924D01*
X0095230Y0276326D02*
X0103930Y0276326D01*
X0103930Y0275727D02*
X0095230Y0275727D01*
X0094871Y0275129D02*
X0104289Y0275129D01*
X0104888Y0274530D02*
X0094272Y0274530D01*
X0092388Y0274530D02*
X0090022Y0274530D01*
X0090621Y0273932D02*
X0123380Y0273932D01*
X0123380Y0273333D02*
X0091219Y0273333D01*
X0091818Y0272734D02*
X0123380Y0272734D01*
X0123380Y0272136D02*
X0092416Y0272136D01*
X0093015Y0271537D02*
X0123380Y0271537D01*
X0123380Y0270939D02*
X0093613Y0270939D01*
X0094212Y0270340D02*
X0123942Y0270340D01*
X0124541Y0269742D02*
X0094810Y0269742D01*
X0095409Y0269143D02*
X0125140Y0269143D01*
X0125738Y0268545D02*
X0096007Y0268545D01*
X0096606Y0267946D02*
X0126337Y0267946D01*
X0127080Y0268900D02*
X0124580Y0271400D01*
X0124580Y0283900D01*
X0127080Y0286400D01*
X0142489Y0286400D01*
X0142840Y0286049D01*
X0144618Y0285313D01*
X0145194Y0285313D01*
X0145207Y0285300D01*
X0148380Y0285300D01*
X0148380Y0275903D01*
X0149083Y0275200D01*
X0149239Y0275200D01*
X0149580Y0274859D01*
X0149580Y0272941D01*
X0148930Y0272291D01*
X0148930Y0270509D01*
X0149580Y0269859D01*
X0149580Y0268900D01*
X0127080Y0268900D01*
X0126837Y0269143D02*
X0149580Y0269143D01*
X0149580Y0269742D02*
X0126238Y0269742D01*
X0125640Y0270340D02*
X0149099Y0270340D01*
X0148930Y0270939D02*
X0125041Y0270939D01*
X0124580Y0271537D02*
X0148930Y0271537D01*
X0148930Y0272136D02*
X0124580Y0272136D01*
X0124580Y0272734D02*
X0149374Y0272734D01*
X0149580Y0273333D02*
X0124580Y0273333D01*
X0124580Y0273932D02*
X0149580Y0273932D01*
X0149580Y0274530D02*
X0124580Y0274530D01*
X0124580Y0275129D02*
X0149311Y0275129D01*
X0148556Y0275727D02*
X0124580Y0275727D01*
X0124580Y0276326D02*
X0148380Y0276326D01*
X0148380Y0276924D02*
X0124580Y0276924D01*
X0124580Y0277523D02*
X0129645Y0277523D01*
X0130043Y0277125D02*
X0131617Y0277125D01*
X0132730Y0278238D01*
X0132730Y0279812D01*
X0131617Y0280925D01*
X0130043Y0280925D01*
X0128930Y0279812D01*
X0128930Y0278238D01*
X0130043Y0277125D01*
X0129047Y0278121D02*
X0124580Y0278121D01*
X0124580Y0278720D02*
X0128930Y0278720D01*
X0128930Y0279318D02*
X0124580Y0279318D01*
X0124580Y0279917D02*
X0129035Y0279917D01*
X0129633Y0280515D02*
X0124580Y0280515D01*
X0124580Y0281114D02*
X0148380Y0281114D01*
X0148380Y0281712D02*
X0124580Y0281712D01*
X0124580Y0282311D02*
X0148380Y0282311D01*
X0148380Y0282909D02*
X0124580Y0282909D01*
X0124580Y0283508D02*
X0148380Y0283508D01*
X0148380Y0284106D02*
X0124786Y0284106D01*
X0125385Y0284705D02*
X0148380Y0284705D01*
X0145204Y0285303D02*
X0125983Y0285303D01*
X0126582Y0285902D02*
X0143196Y0285902D01*
X0141360Y0287697D02*
X0132439Y0287697D01*
X0132730Y0288296D02*
X0141113Y0288296D01*
X0140865Y0288894D02*
X0132730Y0288894D01*
X0129459Y0290091D02*
X0119701Y0290091D01*
X0120230Y0289493D02*
X0128930Y0289493D01*
X0128930Y0288894D02*
X0120230Y0288894D01*
X0120230Y0288296D02*
X0128930Y0288296D01*
X0129221Y0287697D02*
X0119939Y0287697D01*
X0132027Y0280515D02*
X0148380Y0280515D01*
X0148380Y0279917D02*
X0132625Y0279917D01*
X0132730Y0279318D02*
X0148380Y0279318D01*
X0148380Y0278720D02*
X0132730Y0278720D01*
X0132613Y0278121D02*
X0148380Y0278121D01*
X0148380Y0277523D02*
X0132015Y0277523D01*
X0143330Y0276275D02*
X0144705Y0277650D01*
X0145580Y0277650D01*
X0147580Y0277650D01*
X0150780Y0273932D02*
X0170239Y0273932D01*
X0171275Y0273333D02*
X0152188Y0273333D01*
X0152786Y0272734D02*
X0172312Y0272734D01*
X0173193Y0272136D02*
X0153230Y0272136D01*
X0153230Y0271537D02*
X0173792Y0271537D01*
X0174390Y0270939D02*
X0153230Y0270939D01*
X0153061Y0270340D02*
X0174989Y0270340D01*
X0175562Y0269742D02*
X0152463Y0269742D01*
X0151976Y0268545D02*
X0176253Y0268545D01*
X0175908Y0269143D02*
X0150780Y0269143D01*
X0152574Y0267946D02*
X0176599Y0267946D01*
X0176945Y0267348D02*
X0153173Y0267348D01*
X0153230Y0266749D02*
X0177290Y0266749D01*
X0177472Y0266151D02*
X0153230Y0266151D01*
X0153230Y0265552D02*
X0177632Y0265552D01*
X0177792Y0264954D02*
X0152674Y0264954D01*
X0152076Y0264355D02*
X0177953Y0264355D01*
X0178113Y0263757D02*
X0145230Y0263757D01*
X0145230Y0264355D02*
X0150084Y0264355D01*
X0150189Y0263550D02*
X0148930Y0262291D01*
X0148930Y0260509D01*
X0150189Y0259250D01*
X0151971Y0259250D01*
X0153230Y0260509D01*
X0153230Y0262291D01*
X0151971Y0263550D01*
X0150189Y0263550D01*
X0149798Y0263158D02*
X0145230Y0263158D01*
X0145230Y0262988D02*
X0144117Y0261875D01*
X0142543Y0261875D01*
X0141430Y0262988D01*
X0141430Y0264562D01*
X0142543Y0265675D01*
X0144117Y0265675D01*
X0145230Y0264562D01*
X0145230Y0262988D01*
X0144802Y0262560D02*
X0149199Y0262560D01*
X0148930Y0261961D02*
X0144203Y0261961D01*
X0142457Y0261961D02*
X0131703Y0261961D01*
X0131617Y0261875D02*
X0132730Y0262988D01*
X0132730Y0264562D01*
X0131617Y0265675D01*
X0130043Y0265675D01*
X0128930Y0264562D01*
X0128930Y0262988D01*
X0130043Y0261875D01*
X0131617Y0261875D01*
X0132302Y0262560D02*
X0141858Y0262560D01*
X0141430Y0263158D02*
X0132730Y0263158D01*
X0132730Y0263757D02*
X0141430Y0263757D01*
X0141430Y0264355D02*
X0132730Y0264355D01*
X0132338Y0264954D02*
X0141822Y0264954D01*
X0142420Y0265552D02*
X0131740Y0265552D01*
X0129920Y0265552D02*
X0119240Y0265552D01*
X0119117Y0265675D02*
X0117543Y0265675D01*
X0116430Y0264562D01*
X0116430Y0262988D01*
X0117543Y0261875D01*
X0119117Y0261875D01*
X0120230Y0262988D01*
X0120230Y0264562D01*
X0119117Y0265675D01*
X0119838Y0264954D02*
X0129322Y0264954D01*
X0128930Y0264355D02*
X0120230Y0264355D01*
X0120230Y0263757D02*
X0128930Y0263757D01*
X0128930Y0263158D02*
X0120230Y0263158D01*
X0119802Y0262560D02*
X0129358Y0262560D01*
X0129957Y0261961D02*
X0119203Y0261961D01*
X0117457Y0261961D02*
X0106703Y0261961D01*
X0106617Y0261875D02*
X0107730Y0262988D01*
X0107730Y0264562D01*
X0106617Y0265675D01*
X0105043Y0265675D01*
X0103930Y0264562D01*
X0103930Y0262988D01*
X0105043Y0261875D01*
X0106617Y0261875D01*
X0107302Y0262560D02*
X0116858Y0262560D01*
X0116430Y0263158D02*
X0107730Y0263158D01*
X0107730Y0263757D02*
X0116430Y0263757D01*
X0116430Y0264355D02*
X0107730Y0264355D01*
X0107338Y0264954D02*
X0116822Y0264954D01*
X0117420Y0265552D02*
X0106740Y0265552D01*
X0104920Y0265552D02*
X0099000Y0265552D01*
X0099598Y0264954D02*
X0104322Y0264954D01*
X0103930Y0264355D02*
X0100197Y0264355D01*
X0100795Y0263757D02*
X0103930Y0263757D01*
X0103930Y0263158D02*
X0101394Y0263158D01*
X0101992Y0262560D02*
X0104358Y0262560D01*
X0104957Y0261961D02*
X0102591Y0261961D01*
X0103189Y0261363D02*
X0148930Y0261363D01*
X0148930Y0260764D02*
X0103788Y0260764D01*
X0104386Y0260166D02*
X0149274Y0260166D01*
X0149872Y0259567D02*
X0104985Y0259567D01*
X0105583Y0258969D02*
X0178093Y0258969D01*
X0178254Y0259567D02*
X0152288Y0259567D01*
X0152886Y0260166D02*
X0178299Y0260166D01*
X0178338Y0260764D02*
X0153230Y0260764D01*
X0153230Y0261363D02*
X0178378Y0261363D01*
X0178380Y0261400D02*
X0178380Y0261400D01*
X0178343Y0261961D02*
X0153230Y0261961D01*
X0152961Y0262560D02*
X0178304Y0262560D01*
X0178265Y0263158D02*
X0152362Y0263158D01*
X0149486Y0264954D02*
X0144838Y0264954D01*
X0144240Y0265552D02*
X0148930Y0265552D01*
X0148930Y0266151D02*
X0098401Y0266151D01*
X0097803Y0266749D02*
X0148930Y0266749D01*
X0148987Y0267348D02*
X0097204Y0267348D01*
X0095606Y0265552D02*
X0094240Y0265552D01*
X0094117Y0265675D02*
X0092543Y0265675D01*
X0091430Y0264562D01*
X0091430Y0262988D01*
X0092543Y0261875D01*
X0094117Y0261875D01*
X0095230Y0262988D01*
X0095230Y0264562D01*
X0094117Y0265675D01*
X0095007Y0266151D02*
X0090780Y0266151D01*
X0090780Y0266749D02*
X0094409Y0266749D01*
X0093810Y0267348D02*
X0090780Y0267348D01*
X0090780Y0267946D02*
X0093212Y0267946D01*
X0092613Y0268545D02*
X0090780Y0268545D01*
X0090780Y0269143D02*
X0092015Y0269143D01*
X0091416Y0269742D02*
X0090435Y0269742D01*
X0090780Y0269397D02*
X0088280Y0271897D01*
X0087577Y0272600D01*
X0079340Y0272600D01*
X0077130Y0274810D01*
X0077130Y0283897D01*
X0076427Y0284600D01*
X0075477Y0285550D01*
X0074627Y0285550D01*
X0073280Y0286897D01*
X0073177Y0287000D01*
X0074158Y0287000D01*
X0104630Y0256528D01*
X0104630Y0255138D01*
X0103090Y0254501D01*
X0101729Y0253140D01*
X0100993Y0251362D01*
X0100993Y0250786D01*
X0100980Y0250773D01*
X0100980Y0247600D01*
X0098180Y0247600D01*
X0098180Y0250773D01*
X0098167Y0250786D01*
X0098167Y0251362D01*
X0097431Y0253140D01*
X0096070Y0254501D01*
X0094530Y0255138D01*
X0094530Y0257410D01*
X0090780Y0261160D01*
X0090780Y0269397D01*
X0090817Y0270340D02*
X0089837Y0270340D01*
X0090219Y0270939D02*
X0089238Y0270939D01*
X0089620Y0271537D02*
X0088640Y0271537D01*
X0089022Y0272136D02*
X0088041Y0272136D01*
X0088423Y0272734D02*
X0079205Y0272734D01*
X0078607Y0273333D02*
X0087825Y0273333D01*
X0087226Y0273932D02*
X0078008Y0273932D01*
X0077410Y0274530D02*
X0079888Y0274530D01*
X0080043Y0274375D02*
X0081617Y0274375D01*
X0082730Y0275488D01*
X0082730Y0277062D01*
X0081617Y0278175D01*
X0080043Y0278175D01*
X0078930Y0277062D01*
X0078930Y0275488D01*
X0080043Y0274375D01*
X0079289Y0275129D02*
X0077130Y0275129D01*
X0077130Y0275727D02*
X0078930Y0275727D01*
X0078930Y0276326D02*
X0077130Y0276326D01*
X0077130Y0276924D02*
X0078930Y0276924D01*
X0079391Y0277523D02*
X0077130Y0277523D01*
X0077130Y0278121D02*
X0079989Y0278121D01*
X0081671Y0278121D02*
X0083037Y0278121D01*
X0083635Y0277523D02*
X0082269Y0277523D01*
X0082730Y0276924D02*
X0084234Y0276924D01*
X0084832Y0276326D02*
X0082730Y0276326D01*
X0082730Y0275727D02*
X0085431Y0275727D01*
X0086029Y0275129D02*
X0082371Y0275129D01*
X0081772Y0274530D02*
X0086628Y0274530D01*
X0088226Y0276326D02*
X0091430Y0276326D01*
X0091430Y0276924D02*
X0087628Y0276924D01*
X0087029Y0277523D02*
X0091891Y0277523D01*
X0092489Y0278121D02*
X0086431Y0278121D01*
X0088825Y0275727D02*
X0091430Y0275727D01*
X0091789Y0275129D02*
X0089423Y0275129D01*
X0082438Y0278720D02*
X0077130Y0278720D01*
X0077130Y0279318D02*
X0081840Y0279318D01*
X0081241Y0279917D02*
X0077130Y0279917D01*
X0077130Y0280515D02*
X0080643Y0280515D01*
X0080044Y0281114D02*
X0077130Y0281114D01*
X0077130Y0281712D02*
X0079446Y0281712D01*
X0078847Y0282311D02*
X0077130Y0282311D01*
X0077130Y0282909D02*
X0078249Y0282909D01*
X0077650Y0283508D02*
X0077130Y0283508D01*
X0077052Y0284106D02*
X0076921Y0284106D01*
X0076453Y0284705D02*
X0076322Y0284705D01*
X0075855Y0285303D02*
X0075724Y0285303D01*
X0075256Y0285902D02*
X0074275Y0285902D01*
X0074658Y0286500D02*
X0073677Y0286500D01*
X0072568Y0287600D02*
X0069842Y0287600D01*
X0070230Y0287988D01*
X0070230Y0289562D01*
X0069117Y0290675D01*
X0067543Y0290675D01*
X0066430Y0289562D01*
X0066430Y0288947D01*
X0064730Y0290647D01*
X0064730Y0290647D01*
X0064027Y0291350D01*
X0058318Y0291350D01*
X0057681Y0292890D01*
X0056320Y0294251D01*
X0054542Y0294987D01*
X0053966Y0294987D01*
X0053953Y0295000D01*
X0050780Y0295000D01*
X0050780Y0297800D01*
X0053953Y0297800D01*
X0053966Y0297813D01*
X0054542Y0297813D01*
X0056320Y0298549D01*
X0057681Y0299910D01*
X0058318Y0301450D01*
X0059708Y0301450D01*
X0072055Y0289103D01*
X0072055Y0288113D01*
X0072568Y0287600D01*
X0072471Y0287697D02*
X0069939Y0287697D01*
X0070230Y0288296D02*
X0072055Y0288296D01*
X0072055Y0288894D02*
X0070230Y0288894D01*
X0070230Y0289493D02*
X0071665Y0289493D01*
X0071067Y0290091D02*
X0069701Y0290091D01*
X0070468Y0290690D02*
X0064687Y0290690D01*
X0064089Y0291288D02*
X0069870Y0291288D01*
X0069271Y0291887D02*
X0058096Y0291887D01*
X0057848Y0292485D02*
X0068673Y0292485D01*
X0068074Y0293084D02*
X0057487Y0293084D01*
X0056888Y0293682D02*
X0067476Y0293682D01*
X0066877Y0294281D02*
X0056247Y0294281D01*
X0054802Y0294879D02*
X0066279Y0294879D01*
X0065680Y0295478D02*
X0050780Y0295478D01*
X0050780Y0296076D02*
X0065082Y0296076D01*
X0064483Y0296675D02*
X0050780Y0296675D01*
X0050780Y0297273D02*
X0063884Y0297273D01*
X0063286Y0297872D02*
X0054685Y0297872D01*
X0056129Y0298470D02*
X0062687Y0298470D01*
X0062089Y0299069D02*
X0056840Y0299069D01*
X0057438Y0299668D02*
X0061490Y0299668D01*
X0060892Y0300266D02*
X0057828Y0300266D01*
X0058076Y0300865D02*
X0060293Y0300865D01*
X0060205Y0302650D02*
X0053580Y0302650D01*
X0051580Y0302650D01*
X0057418Y0305653D02*
X0095355Y0305653D01*
X0095137Y0305054D02*
X0057820Y0305054D01*
X0058068Y0304456D02*
X0095137Y0304456D01*
X0095137Y0303857D02*
X0058316Y0303857D01*
X0060205Y0302650D02*
X0073955Y0288900D01*
X0105830Y0257025D01*
X0105830Y0252650D01*
X0105830Y0250775D01*
X0105830Y0250400D01*
X0105830Y0250150D01*
X0105830Y0248400D01*
X0105830Y0249525D01*
X0105830Y0250150D01*
X0105830Y0250775D01*
X0105830Y0252650D01*
X0105830Y0250150D02*
X0105830Y0249525D01*
X0105830Y0248400D01*
X0100980Y0248196D02*
X0098180Y0248196D01*
X0098180Y0248794D02*
X0100980Y0248794D01*
X0100980Y0249393D02*
X0098180Y0249393D01*
X0098180Y0249991D02*
X0100980Y0249991D01*
X0100980Y0250590D02*
X0098180Y0250590D01*
X0098167Y0251188D02*
X0100993Y0251188D01*
X0101169Y0251787D02*
X0097991Y0251787D01*
X0097743Y0252385D02*
X0101417Y0252385D01*
X0101665Y0252984D02*
X0097495Y0252984D01*
X0096988Y0253582D02*
X0102172Y0253582D01*
X0102770Y0254181D02*
X0096390Y0254181D01*
X0095397Y0254779D02*
X0103763Y0254779D01*
X0104630Y0255378D02*
X0094530Y0255378D01*
X0094530Y0255976D02*
X0104630Y0255976D01*
X0104583Y0256575D02*
X0094530Y0256575D01*
X0094530Y0257173D02*
X0103985Y0257173D01*
X0103386Y0257772D02*
X0094168Y0257772D01*
X0093569Y0258370D02*
X0102788Y0258370D01*
X0102189Y0258969D02*
X0092971Y0258969D01*
X0092372Y0259567D02*
X0101591Y0259567D01*
X0100992Y0260166D02*
X0091774Y0260166D01*
X0091175Y0260764D02*
X0100394Y0260764D01*
X0099795Y0261363D02*
X0090780Y0261363D01*
X0090780Y0261961D02*
X0092457Y0261961D01*
X0091858Y0262560D02*
X0090780Y0262560D01*
X0090780Y0263158D02*
X0091430Y0263158D01*
X0091430Y0263757D02*
X0090780Y0263757D01*
X0090780Y0264355D02*
X0091430Y0264355D01*
X0091822Y0264954D02*
X0090780Y0264954D01*
X0090780Y0265552D02*
X0092420Y0265552D01*
X0094838Y0264954D02*
X0096204Y0264954D01*
X0096803Y0264355D02*
X0095230Y0264355D01*
X0095230Y0263757D02*
X0097401Y0263757D01*
X0098000Y0263158D02*
X0095230Y0263158D01*
X0094802Y0262560D02*
X0098598Y0262560D01*
X0099197Y0261961D02*
X0094203Y0261961D01*
X0093330Y0256912D02*
X0075930Y0274313D01*
X0073799Y0272181D01*
X0075830Y0274213D01*
X0075930Y0274313D02*
X0075930Y0283400D01*
X0074980Y0284350D01*
X0069330Y0284350D01*
X0063530Y0290150D01*
X0060205Y0290150D01*
X0051580Y0290150D01*
X0053580Y0290150D02*
X0060205Y0290150D01*
X0065286Y0290091D02*
X0066959Y0290091D01*
X0066430Y0289493D02*
X0065884Y0289493D01*
X0065583Y0286400D02*
X0068130Y0283853D01*
X0068833Y0283150D01*
X0074483Y0283150D01*
X0074580Y0283053D01*
X0074580Y0274660D01*
X0072599Y0272678D01*
X0068820Y0268900D01*
X0049580Y0268900D01*
X0049580Y0269859D01*
X0050230Y0270509D01*
X0050230Y0272291D01*
X0049580Y0272941D01*
X0049580Y0274859D01*
X0049921Y0275200D01*
X0050077Y0275200D01*
X0050780Y0275903D01*
X0050780Y0285300D01*
X0053953Y0285300D01*
X0053966Y0285313D01*
X0054542Y0285313D01*
X0056320Y0286049D01*
X0056671Y0286400D01*
X0065583Y0286400D01*
X0066081Y0285902D02*
X0055964Y0285902D01*
X0053956Y0285303D02*
X0066680Y0285303D01*
X0067278Y0284705D02*
X0050780Y0284705D01*
X0050780Y0284106D02*
X0067877Y0284106D01*
X0068475Y0283508D02*
X0050780Y0283508D01*
X0050780Y0282909D02*
X0074580Y0282909D01*
X0074580Y0282311D02*
X0050780Y0282311D01*
X0050780Y0281712D02*
X0074580Y0281712D01*
X0074580Y0281114D02*
X0050780Y0281114D01*
X0050780Y0280515D02*
X0067008Y0280515D01*
X0067543Y0281050D02*
X0066430Y0279937D01*
X0066430Y0278363D01*
X0067543Y0277250D01*
X0069117Y0277250D01*
X0070230Y0278363D01*
X0070230Y0279937D01*
X0069117Y0281050D01*
X0067543Y0281050D01*
X0066430Y0279917D02*
X0050780Y0279917D01*
X0050780Y0279318D02*
X0066430Y0279318D01*
X0066430Y0278720D02*
X0050780Y0278720D01*
X0050780Y0278121D02*
X0066672Y0278121D01*
X0067270Y0277523D02*
X0050780Y0277523D01*
X0050780Y0276924D02*
X0074580Y0276924D01*
X0074580Y0276326D02*
X0050780Y0276326D01*
X0050604Y0275727D02*
X0074580Y0275727D01*
X0074580Y0275129D02*
X0049849Y0275129D01*
X0049580Y0274530D02*
X0074451Y0274530D01*
X0073852Y0273932D02*
X0049580Y0273932D01*
X0049580Y0273333D02*
X0073253Y0273333D01*
X0072655Y0272734D02*
X0049786Y0272734D01*
X0050230Y0272136D02*
X0072056Y0272136D01*
X0071458Y0271537D02*
X0050230Y0271537D01*
X0050230Y0270939D02*
X0070859Y0270939D01*
X0070261Y0270340D02*
X0050061Y0270340D01*
X0049580Y0269742D02*
X0069662Y0269742D01*
X0069064Y0269143D02*
X0049580Y0269143D01*
X0048380Y0269143D02*
X0023252Y0269143D01*
X0022907Y0268545D02*
X0047184Y0268545D01*
X0047189Y0268550D02*
X0045930Y0267291D01*
X0045930Y0265509D01*
X0047189Y0264250D01*
X0048971Y0264250D01*
X0050230Y0265509D01*
X0050230Y0267291D01*
X0049821Y0267700D01*
X0067620Y0267700D01*
X0054605Y0254685D01*
X0054605Y0254874D01*
X0053492Y0255987D01*
X0051918Y0255987D01*
X0050805Y0254874D01*
X0050805Y0253300D01*
X0051456Y0252650D01*
X0050805Y0251999D01*
X0050805Y0250425D01*
X0051918Y0249312D01*
X0053492Y0249312D01*
X0054299Y0250119D01*
X0055043Y0249375D01*
X0056617Y0249375D01*
X0057730Y0250488D01*
X0057730Y0252062D01*
X0056617Y0253175D01*
X0056490Y0253175D01*
X0066430Y0263115D01*
X0066430Y0262988D01*
X0067543Y0261875D01*
X0069117Y0261875D01*
X0070230Y0262988D01*
X0070230Y0264562D01*
X0069117Y0265675D01*
X0068990Y0265675D01*
X0070880Y0267565D01*
X0070880Y0247600D01*
X0049921Y0247600D01*
X0048971Y0248550D01*
X0047189Y0248550D01*
X0046239Y0247600D01*
X0046071Y0247600D01*
X0046730Y0248259D01*
X0046730Y0249709D01*
X0047189Y0249250D01*
X0048971Y0249250D01*
X0050230Y0250509D01*
X0050230Y0252291D01*
X0048971Y0253550D01*
X0047189Y0253550D01*
X0045930Y0252291D01*
X0045930Y0250841D01*
X0045471Y0251300D01*
X0043689Y0251300D01*
X0042430Y0250041D01*
X0042430Y0248259D01*
X0043089Y0247600D01*
X0034580Y0247600D01*
X0032779Y0247718D01*
X0029299Y0248650D01*
X0026179Y0250452D01*
X0023632Y0252999D01*
X0021830Y0256119D01*
X0020898Y0259599D01*
X0020780Y0261400D01*
X0020898Y0263201D01*
X0021830Y0266681D01*
X0023632Y0269801D01*
X0026179Y0272348D01*
X0029299Y0274150D01*
X0032779Y0275082D01*
X0034580Y0275200D01*
X0046239Y0275200D01*
X0047189Y0274250D01*
X0048380Y0274250D01*
X0048380Y0273550D01*
X0047189Y0273550D01*
X0045930Y0272291D01*
X0045930Y0270509D01*
X0047189Y0269250D01*
X0048380Y0269250D01*
X0048380Y0268550D01*
X0047189Y0268550D01*
X0046586Y0267946D02*
X0022561Y0267946D01*
X0022215Y0267348D02*
X0045987Y0267348D01*
X0045930Y0266749D02*
X0021870Y0266749D01*
X0021688Y0266151D02*
X0045930Y0266151D01*
X0045930Y0265552D02*
X0021528Y0265552D01*
X0021368Y0264954D02*
X0046486Y0264954D01*
X0047084Y0264355D02*
X0021207Y0264355D01*
X0021047Y0263757D02*
X0053930Y0263757D01*
X0053930Y0264355D02*
X0049076Y0264355D01*
X0048971Y0263550D02*
X0047189Y0263550D01*
X0045930Y0262291D01*
X0045930Y0260509D01*
X0047189Y0259250D01*
X0048971Y0259250D01*
X0050230Y0260509D01*
X0050230Y0262291D01*
X0048971Y0263550D01*
X0049362Y0263158D02*
X0053930Y0263158D01*
X0053930Y0262988D02*
X0055043Y0261875D01*
X0056617Y0261875D01*
X0057730Y0262988D01*
X0057730Y0264562D01*
X0056617Y0265675D01*
X0055043Y0265675D01*
X0053930Y0264562D01*
X0053930Y0262988D01*
X0054358Y0262560D02*
X0049961Y0262560D01*
X0050230Y0261961D02*
X0054957Y0261961D01*
X0056703Y0261961D02*
X0061882Y0261961D01*
X0061283Y0261363D02*
X0050230Y0261363D01*
X0050230Y0260764D02*
X0060685Y0260764D01*
X0060086Y0260166D02*
X0049886Y0260166D01*
X0049288Y0259567D02*
X0059488Y0259567D01*
X0058889Y0258969D02*
X0021067Y0258969D01*
X0020906Y0259567D02*
X0046872Y0259567D01*
X0046274Y0260166D02*
X0020861Y0260166D01*
X0020822Y0260764D02*
X0045930Y0260764D01*
X0045930Y0261363D02*
X0020782Y0261363D01*
X0020780Y0261400D02*
X0020780Y0261400D01*
X0020817Y0261961D02*
X0045930Y0261961D01*
X0046199Y0262560D02*
X0020856Y0262560D01*
X0020895Y0263158D02*
X0046798Y0263158D01*
X0049674Y0264954D02*
X0054322Y0264954D01*
X0054920Y0265552D02*
X0050230Y0265552D01*
X0050230Y0266151D02*
X0066071Y0266151D01*
X0065473Y0265552D02*
X0056740Y0265552D01*
X0057338Y0264954D02*
X0064874Y0264954D01*
X0064276Y0264355D02*
X0057730Y0264355D01*
X0057730Y0263757D02*
X0063677Y0263757D01*
X0063079Y0263158D02*
X0057730Y0263158D01*
X0057302Y0262560D02*
X0062480Y0262560D01*
X0064079Y0260764D02*
X0070880Y0260764D01*
X0070880Y0260166D02*
X0063480Y0260166D01*
X0062882Y0259567D02*
X0070880Y0259567D01*
X0070880Y0258969D02*
X0062283Y0258969D01*
X0061685Y0258370D02*
X0070880Y0258370D01*
X0070880Y0257772D02*
X0061086Y0257772D01*
X0060488Y0257173D02*
X0070880Y0257173D01*
X0070880Y0256575D02*
X0059889Y0256575D01*
X0059291Y0255976D02*
X0070880Y0255976D01*
X0070880Y0255378D02*
X0058692Y0255378D01*
X0058094Y0254779D02*
X0070880Y0254779D01*
X0070880Y0254181D02*
X0057495Y0254181D01*
X0056897Y0253582D02*
X0070880Y0253582D01*
X0070880Y0252984D02*
X0069308Y0252984D01*
X0069117Y0253175D02*
X0067543Y0253175D01*
X0066430Y0252062D01*
X0066430Y0250488D01*
X0067543Y0249375D01*
X0069117Y0249375D01*
X0070230Y0250488D01*
X0070230Y0252062D01*
X0069117Y0253175D01*
X0069907Y0252385D02*
X0070880Y0252385D01*
X0070880Y0251787D02*
X0070230Y0251787D01*
X0070230Y0251188D02*
X0070880Y0251188D01*
X0070880Y0250590D02*
X0070230Y0250590D01*
X0069733Y0249991D02*
X0070880Y0249991D01*
X0070880Y0249393D02*
X0069135Y0249393D01*
X0067525Y0249393D02*
X0056635Y0249393D01*
X0057233Y0249991D02*
X0066927Y0249991D01*
X0066430Y0250590D02*
X0057730Y0250590D01*
X0057730Y0251188D02*
X0066430Y0251188D01*
X0066430Y0251787D02*
X0057730Y0251787D01*
X0057407Y0252385D02*
X0066753Y0252385D01*
X0067352Y0252984D02*
X0056808Y0252984D01*
X0054700Y0254779D02*
X0054605Y0254779D01*
X0054102Y0255378D02*
X0055298Y0255378D01*
X0055897Y0255976D02*
X0053503Y0255976D01*
X0051907Y0255976D02*
X0050230Y0255976D01*
X0050230Y0255509D02*
X0048971Y0254250D01*
X0047189Y0254250D01*
X0045930Y0255509D01*
X0045930Y0257291D01*
X0047189Y0258550D01*
X0048971Y0258550D01*
X0050230Y0257291D01*
X0050230Y0255509D01*
X0050098Y0255378D02*
X0051308Y0255378D01*
X0050805Y0254779D02*
X0049500Y0254779D01*
X0050805Y0254181D02*
X0022950Y0254181D01*
X0022604Y0254779D02*
X0046660Y0254779D01*
X0046062Y0255378D02*
X0022258Y0255378D01*
X0021913Y0255976D02*
X0045930Y0255976D01*
X0045930Y0256575D02*
X0021708Y0256575D01*
X0021548Y0257173D02*
X0045930Y0257173D01*
X0046411Y0257772D02*
X0021388Y0257772D01*
X0021227Y0258370D02*
X0047010Y0258370D01*
X0049150Y0258370D02*
X0058291Y0258370D01*
X0057692Y0257772D02*
X0049749Y0257772D01*
X0050230Y0257173D02*
X0057094Y0257173D01*
X0056495Y0256575D02*
X0050230Y0256575D01*
X0050805Y0253582D02*
X0023295Y0253582D01*
X0023647Y0252984D02*
X0046623Y0252984D01*
X0046025Y0252385D02*
X0024246Y0252385D01*
X0024844Y0251787D02*
X0045930Y0251787D01*
X0045930Y0251188D02*
X0045582Y0251188D01*
X0043578Y0251188D02*
X0025443Y0251188D01*
X0026041Y0250590D02*
X0042979Y0250590D01*
X0042430Y0249991D02*
X0026977Y0249991D01*
X0028014Y0249393D02*
X0042430Y0249393D01*
X0042430Y0248794D02*
X0029050Y0248794D01*
X0030997Y0248196D02*
X0042494Y0248196D01*
X0046666Y0248196D02*
X0046835Y0248196D01*
X0046730Y0248794D02*
X0070880Y0248794D01*
X0070880Y0248196D02*
X0049325Y0248196D01*
X0049113Y0249393D02*
X0051838Y0249393D01*
X0051239Y0249991D02*
X0049712Y0249991D01*
X0050230Y0250590D02*
X0050805Y0250590D01*
X0050805Y0251188D02*
X0050230Y0251188D01*
X0050230Y0251787D02*
X0050805Y0251787D01*
X0051191Y0252385D02*
X0050135Y0252385D01*
X0049537Y0252984D02*
X0051122Y0252984D01*
X0052705Y0251212D02*
X0052830Y0251212D01*
X0073799Y0272181D01*
X0074715Y0271400D02*
X0077145Y0271400D01*
X0080019Y0268526D01*
X0078930Y0267437D01*
X0078930Y0265863D01*
X0080043Y0264750D01*
X0081617Y0264750D01*
X0082706Y0265839D01*
X0089580Y0258965D01*
X0089580Y0253491D01*
X0089229Y0253140D01*
X0088493Y0251362D01*
X0088493Y0250786D01*
X0088480Y0250773D01*
X0088480Y0247600D01*
X0072080Y0247600D01*
X0072080Y0268765D01*
X0074296Y0270981D01*
X0074715Y0271400D01*
X0074254Y0270939D02*
X0077606Y0270939D01*
X0078205Y0270340D02*
X0073655Y0270340D01*
X0073056Y0269742D02*
X0078804Y0269742D01*
X0079402Y0269143D02*
X0072458Y0269143D01*
X0072080Y0268545D02*
X0080001Y0268545D01*
X0079439Y0267946D02*
X0072080Y0267946D01*
X0072080Y0267348D02*
X0078930Y0267348D01*
X0078930Y0266749D02*
X0072080Y0266749D01*
X0072080Y0266151D02*
X0078930Y0266151D01*
X0079241Y0265552D02*
X0072080Y0265552D01*
X0072080Y0264954D02*
X0079839Y0264954D01*
X0081821Y0264954D02*
X0083592Y0264954D01*
X0084190Y0264355D02*
X0072080Y0264355D01*
X0072080Y0263757D02*
X0084789Y0263757D01*
X0085387Y0263158D02*
X0072080Y0263158D01*
X0072080Y0262560D02*
X0085986Y0262560D01*
X0086584Y0261961D02*
X0072080Y0261961D01*
X0072080Y0261363D02*
X0087183Y0261363D01*
X0087781Y0260764D02*
X0072080Y0260764D01*
X0072080Y0260166D02*
X0088380Y0260166D01*
X0088978Y0259567D02*
X0072080Y0259567D01*
X0072080Y0258969D02*
X0089577Y0258969D01*
X0089580Y0258370D02*
X0072080Y0258370D01*
X0072080Y0257772D02*
X0089580Y0257772D01*
X0089580Y0257173D02*
X0072080Y0257173D01*
X0072080Y0256575D02*
X0089580Y0256575D01*
X0089580Y0255976D02*
X0072080Y0255976D01*
X0072080Y0255378D02*
X0089580Y0255378D01*
X0089580Y0254779D02*
X0072080Y0254779D01*
X0072080Y0254181D02*
X0089580Y0254181D01*
X0089580Y0253582D02*
X0072080Y0253582D01*
X0072080Y0252984D02*
X0089165Y0252984D01*
X0088917Y0252385D02*
X0072080Y0252385D01*
X0072080Y0251787D02*
X0088669Y0251787D01*
X0088493Y0251188D02*
X0072080Y0251188D01*
X0072080Y0250590D02*
X0088480Y0250590D01*
X0088480Y0249991D02*
X0072080Y0249991D01*
X0072080Y0249393D02*
X0088480Y0249393D01*
X0088480Y0248794D02*
X0072080Y0248794D01*
X0072080Y0248196D02*
X0088480Y0248196D01*
X0093330Y0248400D02*
X0093330Y0250775D01*
X0093330Y0250400D01*
X0093330Y0256912D01*
X0082993Y0265552D02*
X0082419Y0265552D01*
X0070880Y0265552D02*
X0069240Y0265552D01*
X0069465Y0266151D02*
X0070880Y0266151D01*
X0070880Y0266749D02*
X0070064Y0266749D01*
X0070662Y0267348D02*
X0070880Y0267348D01*
X0070880Y0264954D02*
X0069838Y0264954D01*
X0070230Y0264355D02*
X0070880Y0264355D01*
X0070880Y0263757D02*
X0070230Y0263757D01*
X0070230Y0263158D02*
X0070880Y0263158D01*
X0070880Y0262560D02*
X0069802Y0262560D01*
X0069203Y0261961D02*
X0070880Y0261961D01*
X0070880Y0261363D02*
X0064677Y0261363D01*
X0065276Y0261961D02*
X0067457Y0261961D01*
X0066858Y0262560D02*
X0065874Y0262560D01*
X0066670Y0266749D02*
X0050230Y0266749D01*
X0050173Y0267348D02*
X0067268Y0267348D01*
X0069390Y0277523D02*
X0074580Y0277523D01*
X0074580Y0278121D02*
X0069988Y0278121D01*
X0070230Y0278720D02*
X0074580Y0278720D01*
X0074580Y0279318D02*
X0070230Y0279318D01*
X0070230Y0279917D02*
X0074580Y0279917D01*
X0074580Y0280515D02*
X0069652Y0280515D01*
X0076855Y0287697D02*
X0079221Y0287697D01*
X0078930Y0287988D02*
X0080043Y0286875D01*
X0081617Y0286875D01*
X0082730Y0287988D01*
X0082730Y0289562D01*
X0081617Y0290675D01*
X0080043Y0290675D01*
X0078930Y0289562D01*
X0078930Y0287988D01*
X0078930Y0288296D02*
X0076256Y0288296D01*
X0075855Y0288894D02*
X0078930Y0288894D01*
X0078930Y0289493D02*
X0075855Y0289493D01*
X0075451Y0290091D02*
X0079459Y0290091D01*
X0082201Y0290091D02*
X0091959Y0290091D01*
X0091430Y0289562D02*
X0091430Y0287988D01*
X0092543Y0286875D01*
X0094117Y0286875D01*
X0095230Y0287988D01*
X0095230Y0289562D01*
X0094117Y0290675D01*
X0092543Y0290675D01*
X0091430Y0289562D01*
X0091430Y0289493D02*
X0082730Y0289493D01*
X0082730Y0288894D02*
X0091430Y0288894D01*
X0091430Y0288296D02*
X0082730Y0288296D01*
X0082439Y0287697D02*
X0091721Y0287697D01*
X0092319Y0287099D02*
X0081841Y0287099D01*
X0079819Y0287099D02*
X0077453Y0287099D01*
X0080043Y0299375D02*
X0081617Y0299375D01*
X0082730Y0300488D01*
X0082730Y0302062D01*
X0081617Y0303175D01*
X0080043Y0303175D01*
X0078930Y0302062D01*
X0078930Y0300488D01*
X0080043Y0299375D01*
X0079750Y0299668D02*
X0069410Y0299668D01*
X0069117Y0299375D02*
X0070230Y0300488D01*
X0070230Y0302062D01*
X0069117Y0303175D01*
X0067543Y0303175D01*
X0066430Y0302062D01*
X0066430Y0300488D01*
X0067543Y0299375D01*
X0069117Y0299375D01*
X0070008Y0300266D02*
X0079152Y0300266D01*
X0078930Y0300865D02*
X0070230Y0300865D01*
X0070230Y0301463D02*
X0078930Y0301463D01*
X0078930Y0302062D02*
X0070230Y0302062D01*
X0069632Y0302660D02*
X0079528Y0302660D01*
X0082132Y0302660D02*
X0092028Y0302660D01*
X0091430Y0302062D02*
X0082730Y0302062D01*
X0082730Y0301463D02*
X0091430Y0301463D01*
X0091430Y0300865D02*
X0082730Y0300865D01*
X0082508Y0300266D02*
X0091652Y0300266D01*
X0092250Y0299668D02*
X0081910Y0299668D01*
X0093330Y0301275D02*
X0093967Y0301912D01*
X0099580Y0301912D01*
X0095137Y0303259D02*
X0061293Y0303259D01*
X0061892Y0302660D02*
X0067028Y0302660D01*
X0066430Y0302062D02*
X0062490Y0302062D01*
X0063089Y0301463D02*
X0066430Y0301463D01*
X0066430Y0300865D02*
X0063688Y0300865D01*
X0064286Y0300266D02*
X0066652Y0300266D01*
X0067250Y0299668D02*
X0064885Y0299668D01*
X0065483Y0299069D02*
X0095137Y0299069D01*
X0095137Y0299668D02*
X0094409Y0299668D01*
X0095008Y0300266D02*
X0095137Y0300266D01*
X0095137Y0298470D02*
X0066082Y0298470D01*
X0066680Y0297872D02*
X0095654Y0297872D01*
X0093330Y0291588D02*
X0094029Y0290888D01*
X0099580Y0290888D01*
X0095230Y0289493D02*
X0103930Y0289493D01*
X0103930Y0288894D02*
X0095230Y0288894D01*
X0095230Y0288296D02*
X0103930Y0288296D01*
X0104221Y0287697D02*
X0094939Y0287697D01*
X0094341Y0287099D02*
X0104819Y0287099D01*
X0104459Y0290091D02*
X0094701Y0290091D01*
X0094117Y0311875D02*
X0092543Y0311875D01*
X0091430Y0312988D01*
X0091430Y0314562D01*
X0092543Y0315675D01*
X0094117Y0315675D01*
X0095230Y0314562D01*
X0095230Y0312988D01*
X0094117Y0311875D01*
X0094478Y0312236D02*
X0104682Y0312236D01*
X0104083Y0312835D02*
X0095077Y0312835D01*
X0095230Y0313433D02*
X0103930Y0313433D01*
X0103930Y0314032D02*
X0095230Y0314032D01*
X0095162Y0314630D02*
X0103998Y0314630D01*
X0104597Y0315229D02*
X0094563Y0315229D01*
X0092097Y0315229D02*
X0082063Y0315229D01*
X0081617Y0315675D02*
X0080043Y0315675D01*
X0078930Y0314562D01*
X0078930Y0312988D01*
X0080043Y0311875D01*
X0081617Y0311875D01*
X0082730Y0312988D01*
X0082730Y0314562D01*
X0081617Y0315675D01*
X0082662Y0314630D02*
X0091498Y0314630D01*
X0091430Y0314032D02*
X0082730Y0314032D01*
X0082730Y0313433D02*
X0091430Y0313433D01*
X0091583Y0312835D02*
X0082577Y0312835D01*
X0081978Y0312236D02*
X0092182Y0312236D01*
X0087080Y0321400D02*
X0074580Y0321400D01*
X0072080Y0323900D01*
X0072080Y0345200D01*
X0088730Y0345200D01*
X0088730Y0342027D01*
X0088743Y0342014D01*
X0088743Y0341438D01*
X0089479Y0339660D01*
X0089580Y0339559D01*
X0089580Y0323900D01*
X0087080Y0321400D01*
X0087492Y0321812D02*
X0074168Y0321812D01*
X0073569Y0322411D02*
X0088091Y0322411D01*
X0088689Y0323009D02*
X0072971Y0323009D01*
X0072372Y0323608D02*
X0089288Y0323608D01*
X0089580Y0324206D02*
X0072080Y0324206D01*
X0072080Y0324805D02*
X0089580Y0324805D01*
X0089580Y0325403D02*
X0072080Y0325403D01*
X0072080Y0326002D02*
X0089580Y0326002D01*
X0089580Y0326601D02*
X0072080Y0326601D01*
X0072080Y0327199D02*
X0089580Y0327199D01*
X0089580Y0327798D02*
X0082165Y0327798D01*
X0081617Y0327250D02*
X0082730Y0328363D01*
X0082730Y0329937D01*
X0081617Y0331050D01*
X0080043Y0331050D01*
X0078930Y0329937D01*
X0078930Y0328363D01*
X0080043Y0327250D01*
X0081617Y0327250D01*
X0082730Y0328396D02*
X0089580Y0328396D01*
X0089580Y0328995D02*
X0082730Y0328995D01*
X0082730Y0329593D02*
X0089580Y0329593D01*
X0089580Y0330192D02*
X0082475Y0330192D01*
X0081877Y0330790D02*
X0089580Y0330790D01*
X0089580Y0331389D02*
X0072080Y0331389D01*
X0072080Y0331987D02*
X0089580Y0331987D01*
X0089580Y0332586D02*
X0072080Y0332586D01*
X0072080Y0333184D02*
X0089580Y0333184D01*
X0089580Y0333783D02*
X0072080Y0333783D01*
X0072080Y0334381D02*
X0089580Y0334381D01*
X0089580Y0334980D02*
X0072080Y0334980D01*
X0072080Y0335578D02*
X0089580Y0335578D01*
X0089580Y0336177D02*
X0072080Y0336177D01*
X0072080Y0336775D02*
X0089580Y0336775D01*
X0089580Y0337374D02*
X0072080Y0337374D01*
X0072080Y0337972D02*
X0089580Y0337972D01*
X0089580Y0338571D02*
X0072080Y0338571D01*
X0072080Y0339169D02*
X0089580Y0339169D01*
X0089435Y0339768D02*
X0072080Y0339768D01*
X0072080Y0340366D02*
X0089187Y0340366D01*
X0088939Y0340965D02*
X0072080Y0340965D01*
X0072080Y0341563D02*
X0088743Y0341563D01*
X0088730Y0342162D02*
X0072080Y0342162D01*
X0072080Y0342760D02*
X0088730Y0342760D01*
X0088730Y0343359D02*
X0072080Y0343359D01*
X0072080Y0343957D02*
X0088730Y0343957D01*
X0088730Y0344556D02*
X0072080Y0344556D01*
X0072080Y0345154D02*
X0088730Y0345154D01*
X0093580Y0344400D02*
X0093580Y0342400D01*
X0093580Y0334900D01*
X0112393Y0316088D01*
X0138330Y0290150D01*
X0138290Y0291887D02*
X0141064Y0291887D01*
X0141312Y0292485D02*
X0137692Y0292485D01*
X0137093Y0293084D02*
X0141673Y0293084D01*
X0142272Y0293682D02*
X0136495Y0293682D01*
X0135896Y0294281D02*
X0142913Y0294281D01*
X0144358Y0294879D02*
X0135298Y0294879D01*
X0137195Y0301463D02*
X0132730Y0301463D01*
X0132730Y0302062D02*
X0136596Y0302062D01*
X0135998Y0302660D02*
X0132132Y0302660D01*
X0137705Y0302650D02*
X0119268Y0321088D01*
X0118641Y0320017D02*
X0110160Y0320017D01*
X0109562Y0320615D02*
X0118043Y0320615D01*
X0117444Y0321214D02*
X0108963Y0321214D01*
X0108365Y0321812D02*
X0116846Y0321812D01*
X0116247Y0322411D02*
X0107766Y0322411D01*
X0107168Y0323009D02*
X0115648Y0323009D01*
X0115050Y0323608D02*
X0106569Y0323608D01*
X0105971Y0324206D02*
X0114451Y0324206D01*
X0113853Y0324805D02*
X0107047Y0324805D01*
X0107645Y0325403D02*
X0113254Y0325403D01*
X0112656Y0326002D02*
X0107730Y0326002D01*
X0107730Y0326601D02*
X0112057Y0326601D01*
X0111459Y0327199D02*
X0107593Y0327199D01*
X0106994Y0327798D02*
X0110860Y0327798D01*
X0112459Y0329593D02*
X0126076Y0329593D01*
X0125478Y0328995D02*
X0113057Y0328995D01*
X0113656Y0328396D02*
X0124879Y0328396D01*
X0124281Y0327798D02*
X0119494Y0327798D01*
X0120093Y0327199D02*
X0123682Y0327199D01*
X0123083Y0326601D02*
X0120230Y0326601D01*
X0120230Y0326002D02*
X0122485Y0326002D01*
X0121886Y0325403D02*
X0120145Y0325403D01*
X0119547Y0324805D02*
X0121288Y0324805D01*
X0120689Y0324206D02*
X0117846Y0324206D01*
X0118444Y0323608D02*
X0120091Y0323608D01*
X0119492Y0323009D02*
X0119043Y0323009D01*
X0121091Y0321214D02*
X0148430Y0321214D01*
X0148430Y0321812D02*
X0121689Y0321812D01*
X0122288Y0322411D02*
X0148550Y0322411D01*
X0148430Y0322291D02*
X0148430Y0320509D01*
X0149689Y0319250D01*
X0151471Y0319250D01*
X0152730Y0320509D01*
X0152730Y0322291D01*
X0151471Y0323550D01*
X0149689Y0323550D01*
X0148430Y0322291D01*
X0149149Y0323009D02*
X0122886Y0323009D01*
X0123485Y0323608D02*
X0175880Y0323608D01*
X0175534Y0323009D02*
X0152011Y0323009D01*
X0152610Y0322411D02*
X0174940Y0322411D01*
X0175528Y0322999D02*
X0175528Y0322999D01*
X0174342Y0321812D02*
X0152730Y0321812D01*
X0152730Y0321214D02*
X0173743Y0321214D01*
X0173145Y0320615D02*
X0152730Y0320615D01*
X0152237Y0320017D02*
X0172228Y0320017D01*
X0171191Y0319418D02*
X0151639Y0319418D01*
X0151799Y0318221D02*
X0168260Y0318221D01*
X0170154Y0318820D02*
X0123232Y0318820D01*
X0122634Y0319418D02*
X0149521Y0319418D01*
X0148923Y0320017D02*
X0122035Y0320017D01*
X0121437Y0320615D02*
X0148430Y0320615D01*
X0149361Y0318221D02*
X0123831Y0318221D01*
X0124429Y0317623D02*
X0148762Y0317623D01*
X0148430Y0317024D02*
X0125028Y0317024D01*
X0125626Y0316426D02*
X0148380Y0316426D01*
X0147580Y0315150D02*
X0145580Y0315150D01*
X0144580Y0315150D01*
X0143330Y0316400D01*
X0152398Y0317623D02*
X0164929Y0317623D01*
X0149134Y0324805D02*
X0131922Y0324805D01*
X0126675Y0330192D02*
X0111860Y0330192D01*
X0111262Y0330790D02*
X0127273Y0330790D01*
X0127872Y0331389D02*
X0110663Y0331389D01*
X0110065Y0331987D02*
X0128470Y0331987D01*
X0129069Y0332586D02*
X0109466Y0332586D01*
X0108868Y0333184D02*
X0136417Y0333184D01*
X0137016Y0333783D02*
X0108269Y0333783D01*
X0107671Y0334381D02*
X0137614Y0334381D01*
X0138213Y0334980D02*
X0107072Y0334980D01*
X0107030Y0335578D02*
X0138811Y0335578D01*
X0139410Y0336177D02*
X0107030Y0336177D01*
X0107030Y0336775D02*
X0130018Y0336775D01*
X0130043Y0336750D02*
X0131617Y0336750D01*
X0132730Y0337863D01*
X0132730Y0339437D01*
X0131617Y0340550D01*
X0130043Y0340550D01*
X0128930Y0339437D01*
X0128930Y0337863D01*
X0130043Y0336750D01*
X0129419Y0337374D02*
X0107030Y0337374D01*
X0107780Y0337972D02*
X0128930Y0337972D01*
X0128930Y0338571D02*
X0108841Y0338571D01*
X0109440Y0339169D02*
X0128930Y0339169D01*
X0129261Y0339768D02*
X0109975Y0339768D01*
X0110223Y0340366D02*
X0129859Y0340366D01*
X0131801Y0340366D02*
X0135859Y0340366D01*
X0136293Y0340800D02*
X0135180Y0339687D01*
X0135180Y0338113D01*
X0136293Y0337000D01*
X0137867Y0337000D01*
X0138980Y0338113D01*
X0138980Y0339687D01*
X0137867Y0340800D01*
X0136293Y0340800D01*
X0135261Y0339768D02*
X0132399Y0339768D01*
X0132730Y0339169D02*
X0135180Y0339169D01*
X0135180Y0338571D02*
X0132730Y0338571D01*
X0132730Y0337972D02*
X0135321Y0337972D01*
X0135919Y0337374D02*
X0132241Y0337374D01*
X0131642Y0336775D02*
X0140008Y0336775D01*
X0140607Y0337374D02*
X0138241Y0337374D01*
X0138839Y0337972D02*
X0141205Y0337972D01*
X0141804Y0338571D02*
X0138980Y0338571D01*
X0138980Y0339169D02*
X0142402Y0339169D01*
X0143001Y0339768D02*
X0138899Y0339768D01*
X0138301Y0340366D02*
X0143599Y0340366D01*
X0144198Y0340965D02*
X0110471Y0340965D01*
X0110667Y0341563D02*
X0144555Y0341563D01*
X0144555Y0342162D02*
X0110680Y0342162D01*
X0110680Y0342760D02*
X0145003Y0342760D01*
X0145602Y0343359D02*
X0110680Y0343359D01*
X0110680Y0343957D02*
X0152430Y0343957D01*
X0152430Y0343359D02*
X0151662Y0343359D01*
X0151471Y0343550D02*
X0149689Y0343550D01*
X0148430Y0342291D01*
X0148430Y0340509D01*
X0149689Y0339250D01*
X0151471Y0339250D01*
X0152730Y0340509D01*
X0152730Y0342291D01*
X0151471Y0343550D01*
X0151776Y0344556D02*
X0152445Y0344556D01*
X0152375Y0345154D02*
X0153044Y0345154D01*
X0152430Y0342760D02*
X0152260Y0342760D01*
X0152730Y0342162D02*
X0153028Y0342162D01*
X0152730Y0341563D02*
X0153626Y0341563D01*
X0152730Y0340965D02*
X0174364Y0340965D01*
X0173766Y0341563D02*
X0155534Y0341563D01*
X0156132Y0342162D02*
X0173167Y0342162D01*
X0172267Y0342760D02*
X0156730Y0342760D01*
X0156730Y0343359D02*
X0171231Y0343359D01*
X0170194Y0343957D02*
X0156730Y0343957D01*
X0156715Y0344556D02*
X0168345Y0344556D01*
X0165276Y0345154D02*
X0156116Y0345154D01*
X0152587Y0340366D02*
X0174963Y0340366D01*
X0175547Y0339768D02*
X0151988Y0339768D01*
X0151471Y0338550D02*
X0149689Y0338550D01*
X0148430Y0337291D01*
X0148430Y0335509D01*
X0149689Y0334250D01*
X0151471Y0334250D01*
X0152730Y0335509D01*
X0152730Y0337291D01*
X0151471Y0338550D01*
X0152048Y0337972D02*
X0176584Y0337972D01*
X0176930Y0337374D02*
X0152647Y0337374D01*
X0152730Y0336775D02*
X0177275Y0336775D01*
X0177465Y0336177D02*
X0152730Y0336177D01*
X0152730Y0335578D02*
X0177625Y0335578D01*
X0177785Y0334980D02*
X0152200Y0334980D01*
X0151602Y0334381D02*
X0177946Y0334381D01*
X0178106Y0333783D02*
X0140410Y0333783D01*
X0141008Y0334381D02*
X0149558Y0334381D01*
X0148960Y0334980D02*
X0141607Y0334980D01*
X0142205Y0335578D02*
X0148430Y0335578D01*
X0148430Y0336177D02*
X0142804Y0336177D01*
X0143402Y0336775D02*
X0148430Y0336775D01*
X0148513Y0337374D02*
X0147803Y0337374D01*
X0148355Y0337972D02*
X0149112Y0337972D01*
X0148355Y0338571D02*
X0176239Y0338571D01*
X0175893Y0339169D02*
X0148355Y0339169D01*
X0148087Y0339768D02*
X0149172Y0339768D01*
X0148573Y0340366D02*
X0147983Y0340366D01*
X0148355Y0340965D02*
X0148430Y0340965D01*
X0148430Y0341563D02*
X0148355Y0341563D01*
X0148355Y0342162D02*
X0148430Y0342162D01*
X0148900Y0342760D02*
X0147907Y0342760D01*
X0147308Y0343359D02*
X0149498Y0343359D01*
X0149384Y0344556D02*
X0110680Y0344556D01*
X0110680Y0345154D02*
X0148785Y0345154D01*
X0146455Y0341525D02*
X0136330Y0331400D01*
X0129580Y0331400D01*
X0137417Y0330790D02*
X0148430Y0330790D01*
X0148430Y0331389D02*
X0138016Y0331389D01*
X0137530Y0330903D02*
X0137530Y0330903D01*
X0138614Y0331987D02*
X0148430Y0331987D01*
X0148725Y0332586D02*
X0139213Y0332586D01*
X0139811Y0333184D02*
X0149324Y0333184D01*
X0151836Y0333184D02*
X0178263Y0333184D01*
X0178302Y0332586D02*
X0152435Y0332586D01*
X0152730Y0331987D02*
X0178342Y0331987D01*
X0178379Y0331389D02*
X0152730Y0331389D01*
X0152730Y0330790D02*
X0178340Y0330790D01*
X0178301Y0330192D02*
X0152412Y0330192D01*
X0145107Y0337374D02*
X0144001Y0337374D01*
X0122232Y0316426D02*
X0114292Y0316426D01*
X0114350Y0315827D02*
X0122831Y0315827D01*
X0123429Y0315229D02*
X0119563Y0315229D01*
X0120162Y0314630D02*
X0124028Y0314630D01*
X0124626Y0314032D02*
X0120230Y0314032D01*
X0120230Y0313433D02*
X0125225Y0313433D01*
X0125823Y0312835D02*
X0120077Y0312835D01*
X0119478Y0312236D02*
X0126422Y0312236D01*
X0121634Y0317024D02*
X0114143Y0317024D01*
X0113544Y0317623D02*
X0121035Y0317623D01*
X0120437Y0318221D02*
X0111956Y0318221D01*
X0111357Y0318820D02*
X0119838Y0318820D01*
X0119240Y0319418D02*
X0110759Y0319418D01*
X0114948Y0315229D02*
X0117097Y0315229D01*
X0116498Y0314630D02*
X0115547Y0314630D01*
X0116145Y0314032D02*
X0116430Y0314032D01*
X0116430Y0326002D02*
X0116050Y0326002D01*
X0116430Y0326601D02*
X0115452Y0326601D01*
X0114853Y0327199D02*
X0116567Y0327199D01*
X0117166Y0327798D02*
X0114255Y0327798D01*
X0118330Y0341525D02*
X0118580Y0341775D01*
X0118580Y0344400D01*
X0118580Y0342400D01*
X0097788Y0328995D02*
X0090780Y0328995D01*
X0090780Y0329593D02*
X0097190Y0329593D01*
X0096591Y0330192D02*
X0090780Y0330192D01*
X0090780Y0330790D02*
X0095993Y0330790D01*
X0095394Y0331389D02*
X0090780Y0331389D01*
X0090780Y0331987D02*
X0094796Y0331987D01*
X0094197Y0332586D02*
X0090780Y0332586D01*
X0090780Y0333184D02*
X0093599Y0333184D01*
X0093000Y0333783D02*
X0090780Y0333783D01*
X0090780Y0334381D02*
X0092402Y0334381D01*
X0092380Y0334980D02*
X0090780Y0334980D01*
X0090780Y0335578D02*
X0092380Y0335578D01*
X0092380Y0336177D02*
X0090780Y0336177D01*
X0090780Y0336775D02*
X0092380Y0336775D01*
X0092380Y0337374D02*
X0090780Y0337374D01*
X0090780Y0337972D02*
X0091630Y0337972D01*
X0080830Y0338900D02*
X0080830Y0344400D01*
X0080830Y0342400D01*
X0070880Y0342162D02*
X0050230Y0342162D01*
X0050230Y0341563D02*
X0070880Y0341563D01*
X0070880Y0342760D02*
X0049760Y0342760D01*
X0049162Y0343359D02*
X0070880Y0343359D01*
X0070880Y0343957D02*
X0028966Y0343957D01*
X0027929Y0343359D02*
X0046998Y0343359D01*
X0046400Y0342760D02*
X0026893Y0342760D01*
X0025993Y0342162D02*
X0045930Y0342162D01*
X0045930Y0341563D02*
X0025394Y0341563D01*
X0024796Y0340965D02*
X0045930Y0340965D01*
X0046073Y0340366D02*
X0024197Y0340366D01*
X0023613Y0339768D02*
X0046672Y0339768D01*
X0050147Y0337374D02*
X0054419Y0337374D01*
X0055018Y0336775D02*
X0050230Y0336775D01*
X0049336Y0333184D02*
X0070880Y0333184D01*
X0070880Y0332586D02*
X0049935Y0332586D01*
X0050230Y0331987D02*
X0070880Y0331987D01*
X0070880Y0331389D02*
X0050230Y0331389D01*
X0050230Y0330790D02*
X0070880Y0330790D01*
X0070880Y0330192D02*
X0049912Y0330192D01*
X0049723Y0327798D02*
X0054666Y0327798D01*
X0055043Y0328175D02*
X0053930Y0327062D01*
X0053930Y0325488D01*
X0055043Y0324375D01*
X0056617Y0324375D01*
X0057730Y0325488D01*
X0057730Y0327062D01*
X0056617Y0328175D01*
X0055043Y0328175D01*
X0054067Y0327199D02*
X0050230Y0327199D01*
X0050230Y0326601D02*
X0053930Y0326601D01*
X0053930Y0326002D02*
X0050230Y0326002D01*
X0050124Y0325403D02*
X0054015Y0325403D01*
X0054613Y0324805D02*
X0049526Y0324805D01*
X0057047Y0324805D02*
X0067113Y0324805D01*
X0066515Y0325403D02*
X0057645Y0325403D01*
X0057730Y0326002D02*
X0066430Y0326002D01*
X0066430Y0326601D02*
X0057730Y0326601D01*
X0057593Y0327199D02*
X0066567Y0327199D01*
X0067166Y0327798D02*
X0056994Y0327798D01*
X0056642Y0336775D02*
X0067518Y0336775D01*
X0066919Y0337374D02*
X0057241Y0337374D01*
X0057730Y0337972D02*
X0066430Y0337972D01*
X0066430Y0338571D02*
X0057730Y0338571D01*
X0057730Y0339169D02*
X0066430Y0339169D01*
X0066761Y0339768D02*
X0057399Y0339768D01*
X0056801Y0340366D02*
X0067359Y0340366D01*
X0070880Y0344556D02*
X0049276Y0344556D01*
X0049875Y0345154D02*
X0070880Y0345154D01*
X0053930Y0339169D02*
X0023267Y0339169D01*
X0030815Y0344556D02*
X0046884Y0344556D01*
X0046285Y0345154D02*
X0033884Y0345154D01*
X0030900Y0318221D02*
X0046861Y0318221D01*
X0046262Y0317623D02*
X0034231Y0317623D01*
X0069563Y0315229D02*
X0079597Y0315229D01*
X0078998Y0314630D02*
X0070162Y0314630D01*
X0070230Y0314032D02*
X0078930Y0314032D01*
X0078930Y0313433D02*
X0070230Y0313433D01*
X0070077Y0312835D02*
X0079083Y0312835D01*
X0079682Y0312236D02*
X0069478Y0312236D01*
X0072080Y0327798D02*
X0079495Y0327798D01*
X0078930Y0328396D02*
X0072080Y0328396D01*
X0072080Y0328995D02*
X0078930Y0328995D01*
X0078930Y0329593D02*
X0072080Y0329593D01*
X0072080Y0330192D02*
X0079185Y0330192D01*
X0079783Y0330790D02*
X0072080Y0330790D01*
X0054455Y0277650D02*
X0055830Y0276275D01*
X0054455Y0277650D02*
X0053580Y0277650D01*
X0051580Y0277650D01*
X0048380Y0273932D02*
X0028921Y0273932D01*
X0027885Y0273333D02*
X0046972Y0273333D01*
X0046374Y0272734D02*
X0026848Y0272734D01*
X0025967Y0272136D02*
X0045930Y0272136D01*
X0045930Y0271537D02*
X0025368Y0271537D01*
X0024770Y0270939D02*
X0045930Y0270939D01*
X0046099Y0270340D02*
X0024171Y0270340D01*
X0023598Y0269742D02*
X0046698Y0269742D01*
X0046909Y0274530D02*
X0030719Y0274530D01*
X0033490Y0275129D02*
X0046311Y0275129D01*
X0046730Y0249393D02*
X0047047Y0249393D01*
X0053572Y0249393D02*
X0055025Y0249393D01*
X0054427Y0249991D02*
X0054171Y0249991D01*
X0080780Y0250400D02*
X0080780Y0248400D01*
X0080780Y0250400D02*
X0080830Y0250450D01*
X0080830Y0251275D01*
X0106182Y0258370D02*
X0150010Y0258370D01*
X0150189Y0258550D02*
X0148930Y0257291D01*
X0148930Y0255509D01*
X0150189Y0254250D01*
X0151971Y0254250D01*
X0153230Y0255509D01*
X0153230Y0257291D01*
X0151971Y0258550D01*
X0150189Y0258550D01*
X0149411Y0257772D02*
X0106780Y0257772D01*
X0106327Y0258225D02*
X0106327Y0258225D01*
X0107030Y0257173D02*
X0148930Y0257173D01*
X0148930Y0256575D02*
X0107030Y0256575D01*
X0107030Y0255976D02*
X0148930Y0255976D01*
X0149062Y0255378D02*
X0107030Y0255378D01*
X0107897Y0254779D02*
X0149660Y0254779D01*
X0149623Y0252984D02*
X0131808Y0252984D01*
X0131617Y0253175D02*
X0130043Y0253175D01*
X0128930Y0252062D01*
X0128930Y0250488D01*
X0130043Y0249375D01*
X0131617Y0249375D01*
X0132730Y0250488D01*
X0132730Y0252062D01*
X0131617Y0253175D01*
X0132407Y0252385D02*
X0135663Y0252385D01*
X0135445Y0252167D02*
X0135445Y0252167D01*
X0135065Y0251787D02*
X0132730Y0251787D01*
X0132730Y0251188D02*
X0134745Y0251188D01*
X0134745Y0250590D02*
X0132730Y0250590D01*
X0132233Y0249991D02*
X0134745Y0249991D01*
X0134773Y0249393D02*
X0131635Y0249393D01*
X0130025Y0249393D02*
X0110680Y0249393D01*
X0110680Y0249991D02*
X0129427Y0249991D01*
X0128930Y0250590D02*
X0110680Y0250590D01*
X0110667Y0251188D02*
X0128930Y0251188D01*
X0128930Y0251787D02*
X0110491Y0251787D01*
X0110243Y0252385D02*
X0129253Y0252385D01*
X0129852Y0252984D02*
X0109995Y0252984D01*
X0109488Y0253582D02*
X0175865Y0253582D01*
X0176210Y0254181D02*
X0108890Y0254181D01*
X0110680Y0248794D02*
X0134745Y0248794D01*
X0134745Y0248196D02*
X0110680Y0248196D01*
X0118280Y0248400D02*
X0118280Y0250400D01*
X0118280Y0253975D01*
X0118330Y0254025D01*
X0139229Y0252385D02*
X0140267Y0252385D01*
X0140049Y0252167D02*
X0140049Y0252167D01*
X0139447Y0252167D02*
X0139447Y0252167D01*
X0143832Y0252385D02*
X0149025Y0252385D01*
X0148930Y0251787D02*
X0144431Y0251787D01*
X0144050Y0252167D02*
X0144050Y0252167D01*
X0146226Y0251188D02*
X0147082Y0251188D01*
X0146783Y0250590D02*
X0146525Y0250590D01*
X0149091Y0249393D02*
X0150047Y0249393D01*
X0149448Y0249991D02*
X0149390Y0249991D01*
X0148792Y0248794D02*
X0170110Y0248794D01*
X0171146Y0249393D02*
X0152113Y0249393D01*
X0152712Y0249991D02*
X0172183Y0249991D01*
X0173119Y0250590D02*
X0153230Y0250590D01*
X0153230Y0251188D02*
X0173717Y0251188D01*
X0174316Y0251787D02*
X0153230Y0251787D01*
X0153135Y0252385D02*
X0174914Y0252385D01*
X0175513Y0252984D02*
X0152537Y0252984D01*
X0152500Y0254779D02*
X0176556Y0254779D01*
X0176902Y0255378D02*
X0153098Y0255378D01*
X0153230Y0255976D02*
X0177247Y0255976D01*
X0177452Y0256575D02*
X0153230Y0256575D01*
X0153230Y0257173D02*
X0177612Y0257173D01*
X0177772Y0257772D02*
X0152749Y0257772D01*
X0152150Y0258370D02*
X0177933Y0258370D01*
X0168163Y0248196D02*
X0152325Y0248196D01*
X0149835Y0248196D02*
X0148493Y0248196D01*
X0152251Y0274530D02*
X0168441Y0274530D01*
X0165670Y0275129D02*
X0152849Y0275129D01*
X0147580Y0302650D02*
X0145580Y0302650D01*
X0137705Y0302650D01*
M02*
