G75*
%MOIN*%
%OFA0B0*%
%FSLAX25Y25*%
%IPPOS*%
%LPD*%
%AMOC8*
5,1,8,0,0,1.08239X$1,22.5*
%
%ADD10C,0.08674*%
%ADD11C,0.04737*%
%ADD12C,0.05000*%
%ADD13C,0.06706*%
%ADD14C,0.03700*%
%ADD15C,0.03778*%
D10*
X0035050Y0034750D03*
X0047500Y0034700D03*
X0059950Y0034750D03*
X0072450Y0034700D03*
X0137050Y0034750D03*
X0149500Y0034700D03*
X0161950Y0034750D03*
X0174450Y0034700D03*
X0239050Y0034750D03*
X0251500Y0034700D03*
X0263950Y0034750D03*
X0276450Y0034700D03*
X0288950Y0122800D03*
X0301550Y0122800D03*
X0313800Y0122800D03*
X0326500Y0122800D03*
X0276450Y0136700D03*
X0263950Y0136750D03*
X0251500Y0136700D03*
X0239050Y0136750D03*
X0224500Y0122800D03*
X0211800Y0122800D03*
X0199550Y0122800D03*
X0186950Y0122800D03*
X0174450Y0136700D03*
X0161950Y0136750D03*
X0149500Y0136700D03*
X0137050Y0136750D03*
X0122500Y0122800D03*
X0109800Y0122800D03*
X0097550Y0122800D03*
X0084950Y0122800D03*
X0072450Y0136700D03*
X0059950Y0136750D03*
X0047500Y0136700D03*
X0035050Y0136750D03*
X0084950Y0224800D03*
X0097550Y0224800D03*
X0109800Y0224800D03*
X0122500Y0224800D03*
X0137050Y0238750D03*
X0149500Y0238700D03*
X0161950Y0238750D03*
X0174450Y0238700D03*
X0186950Y0224800D03*
X0199550Y0224800D03*
X0211800Y0224800D03*
X0224500Y0224800D03*
X0239050Y0238750D03*
X0251500Y0238700D03*
X0263950Y0238750D03*
X0276450Y0238700D03*
X0288950Y0224800D03*
X0301550Y0224800D03*
X0313800Y0224800D03*
X0326500Y0224800D03*
X0326500Y0326800D03*
X0313800Y0326800D03*
X0301550Y0326800D03*
X0288950Y0326800D03*
X0224500Y0326800D03*
X0211800Y0326800D03*
X0199550Y0326800D03*
X0186950Y0326800D03*
X0122500Y0326800D03*
X0109800Y0326800D03*
X0097550Y0326800D03*
X0084950Y0326800D03*
X0072450Y0238700D03*
X0059950Y0238750D03*
X0047500Y0238700D03*
X0035050Y0238750D03*
D11*
X0055750Y0341000D03*
X0305750Y0341000D03*
D12*
X0052185Y0020500D02*
X0052187Y0020619D01*
X0052193Y0020738D01*
X0052203Y0020857D01*
X0052217Y0020975D01*
X0052235Y0021093D01*
X0052256Y0021210D01*
X0052282Y0021326D01*
X0052312Y0021442D01*
X0052345Y0021556D01*
X0052382Y0021669D01*
X0052423Y0021781D01*
X0052468Y0021892D01*
X0052516Y0022001D01*
X0052568Y0022108D01*
X0052624Y0022213D01*
X0052683Y0022317D01*
X0052745Y0022418D01*
X0052811Y0022518D01*
X0052880Y0022615D01*
X0052952Y0022709D01*
X0053028Y0022802D01*
X0053106Y0022891D01*
X0053187Y0022978D01*
X0053272Y0023063D01*
X0053359Y0023144D01*
X0053448Y0023222D01*
X0053541Y0023298D01*
X0053635Y0023370D01*
X0053732Y0023439D01*
X0053832Y0023505D01*
X0053933Y0023567D01*
X0054037Y0023626D01*
X0054142Y0023682D01*
X0054249Y0023734D01*
X0054358Y0023782D01*
X0054469Y0023827D01*
X0054581Y0023868D01*
X0054694Y0023905D01*
X0054808Y0023938D01*
X0054924Y0023968D01*
X0055040Y0023994D01*
X0055157Y0024015D01*
X0055275Y0024033D01*
X0055393Y0024047D01*
X0055512Y0024057D01*
X0055631Y0024063D01*
X0055750Y0024065D01*
X0055869Y0024063D01*
X0055988Y0024057D01*
X0056107Y0024047D01*
X0056225Y0024033D01*
X0056343Y0024015D01*
X0056460Y0023994D01*
X0056576Y0023968D01*
X0056692Y0023938D01*
X0056806Y0023905D01*
X0056919Y0023868D01*
X0057031Y0023827D01*
X0057142Y0023782D01*
X0057251Y0023734D01*
X0057358Y0023682D01*
X0057463Y0023626D01*
X0057567Y0023567D01*
X0057668Y0023505D01*
X0057768Y0023439D01*
X0057865Y0023370D01*
X0057959Y0023298D01*
X0058052Y0023222D01*
X0058141Y0023144D01*
X0058228Y0023063D01*
X0058313Y0022978D01*
X0058394Y0022891D01*
X0058472Y0022802D01*
X0058548Y0022709D01*
X0058620Y0022615D01*
X0058689Y0022518D01*
X0058755Y0022418D01*
X0058817Y0022317D01*
X0058876Y0022213D01*
X0058932Y0022108D01*
X0058984Y0022001D01*
X0059032Y0021892D01*
X0059077Y0021781D01*
X0059118Y0021669D01*
X0059155Y0021556D01*
X0059188Y0021442D01*
X0059218Y0021326D01*
X0059244Y0021210D01*
X0059265Y0021093D01*
X0059283Y0020975D01*
X0059297Y0020857D01*
X0059307Y0020738D01*
X0059313Y0020619D01*
X0059315Y0020500D01*
X0059313Y0020381D01*
X0059307Y0020262D01*
X0059297Y0020143D01*
X0059283Y0020025D01*
X0059265Y0019907D01*
X0059244Y0019790D01*
X0059218Y0019674D01*
X0059188Y0019558D01*
X0059155Y0019444D01*
X0059118Y0019331D01*
X0059077Y0019219D01*
X0059032Y0019108D01*
X0058984Y0018999D01*
X0058932Y0018892D01*
X0058876Y0018787D01*
X0058817Y0018683D01*
X0058755Y0018582D01*
X0058689Y0018482D01*
X0058620Y0018385D01*
X0058548Y0018291D01*
X0058472Y0018198D01*
X0058394Y0018109D01*
X0058313Y0018022D01*
X0058228Y0017937D01*
X0058141Y0017856D01*
X0058052Y0017778D01*
X0057959Y0017702D01*
X0057865Y0017630D01*
X0057768Y0017561D01*
X0057668Y0017495D01*
X0057567Y0017433D01*
X0057463Y0017374D01*
X0057358Y0017318D01*
X0057251Y0017266D01*
X0057142Y0017218D01*
X0057031Y0017173D01*
X0056919Y0017132D01*
X0056806Y0017095D01*
X0056692Y0017062D01*
X0056576Y0017032D01*
X0056460Y0017006D01*
X0056343Y0016985D01*
X0056225Y0016967D01*
X0056107Y0016953D01*
X0055988Y0016943D01*
X0055869Y0016937D01*
X0055750Y0016935D01*
X0055631Y0016937D01*
X0055512Y0016943D01*
X0055393Y0016953D01*
X0055275Y0016967D01*
X0055157Y0016985D01*
X0055040Y0017006D01*
X0054924Y0017032D01*
X0054808Y0017062D01*
X0054694Y0017095D01*
X0054581Y0017132D01*
X0054469Y0017173D01*
X0054358Y0017218D01*
X0054249Y0017266D01*
X0054142Y0017318D01*
X0054037Y0017374D01*
X0053933Y0017433D01*
X0053832Y0017495D01*
X0053732Y0017561D01*
X0053635Y0017630D01*
X0053541Y0017702D01*
X0053448Y0017778D01*
X0053359Y0017856D01*
X0053272Y0017937D01*
X0053187Y0018022D01*
X0053106Y0018109D01*
X0053028Y0018198D01*
X0052952Y0018291D01*
X0052880Y0018385D01*
X0052811Y0018482D01*
X0052745Y0018582D01*
X0052683Y0018683D01*
X0052624Y0018787D01*
X0052568Y0018892D01*
X0052516Y0018999D01*
X0052468Y0019108D01*
X0052423Y0019219D01*
X0052382Y0019331D01*
X0052345Y0019444D01*
X0052312Y0019558D01*
X0052282Y0019674D01*
X0052256Y0019790D01*
X0052235Y0019907D01*
X0052217Y0020025D01*
X0052203Y0020143D01*
X0052193Y0020262D01*
X0052187Y0020381D01*
X0052185Y0020500D01*
D13*
X0055750Y0020500D03*
D14*
X0052850Y0031900D03*
X0065350Y0031900D03*
X0072500Y0038150D03*
X0078250Y0041750D03*
X0065750Y0041750D03*
X0065750Y0054250D03*
X0078250Y0054250D03*
X0078250Y0066750D03*
X0065750Y0066750D03*
X0065750Y0079250D03*
X0078250Y0079250D03*
X0078250Y0091750D03*
X0065750Y0091750D03*
X0065750Y0104250D03*
X0078250Y0104250D03*
X0090750Y0104250D03*
X0090750Y0091750D03*
X0090750Y0079250D03*
X0090750Y0066750D03*
X0090750Y0054250D03*
X0090750Y0041750D03*
X0088350Y0031900D03*
X0077850Y0031900D03*
X0053250Y0041750D03*
X0053250Y0054250D03*
X0053250Y0066750D03*
X0053250Y0079250D03*
X0053250Y0091750D03*
X0053250Y0104250D03*
X0040750Y0104250D03*
X0031654Y0100650D03*
X0031654Y0097500D03*
X0040750Y0091750D03*
X0031654Y0088150D03*
X0031654Y0085000D03*
X0040750Y0079250D03*
X0031654Y0075650D03*
X0031654Y0072500D03*
X0040750Y0066750D03*
X0031654Y0063150D03*
X0031654Y0060000D03*
X0031654Y0050650D03*
X0031600Y0047500D03*
X0030750Y0041250D03*
X0040750Y0041750D03*
X0040350Y0031400D03*
X0040750Y0054250D03*
X0031654Y0110000D03*
X0031654Y0113150D03*
X0031654Y0122500D03*
X0031654Y0125650D03*
X0040350Y0133400D03*
X0040750Y0143750D03*
X0030750Y0143250D03*
X0031600Y0149500D03*
X0031654Y0152650D03*
X0031654Y0162000D03*
X0031654Y0165150D03*
X0031654Y0174500D03*
X0031654Y0177650D03*
X0031654Y0187000D03*
X0031654Y0190150D03*
X0031654Y0199500D03*
X0031654Y0202650D03*
X0031654Y0212000D03*
X0031654Y0215150D03*
X0031654Y0224500D03*
X0031654Y0227650D03*
X0040350Y0235400D03*
X0040750Y0245750D03*
X0030750Y0245250D03*
X0031600Y0251500D03*
X0031654Y0254650D03*
X0031654Y0264000D03*
X0031654Y0267150D03*
X0031654Y0276500D03*
X0031654Y0279650D03*
X0040750Y0283250D03*
X0031654Y0289000D03*
X0031654Y0292150D03*
X0040750Y0295750D03*
X0031654Y0301500D03*
X0031654Y0304650D03*
X0040750Y0308250D03*
X0031654Y0314000D03*
X0031654Y0317150D03*
X0031654Y0326500D03*
X0031654Y0329650D03*
X0040750Y0320750D03*
X0053250Y0320750D03*
X0053250Y0308250D03*
X0053250Y0295750D03*
X0053250Y0283250D03*
X0053250Y0270750D03*
X0053250Y0258250D03*
X0053250Y0245750D03*
X0052850Y0235900D03*
X0065350Y0235900D03*
X0072500Y0242150D03*
X0078250Y0245750D03*
X0065750Y0245750D03*
X0065750Y0258250D03*
X0078250Y0258250D03*
X0078250Y0270750D03*
X0065750Y0270750D03*
X0065750Y0283250D03*
X0078250Y0283250D03*
X0078250Y0295750D03*
X0065750Y0295750D03*
X0065750Y0308250D03*
X0078250Y0308250D03*
X0078250Y0320750D03*
X0065750Y0320750D03*
X0090750Y0320750D03*
X0090750Y0308250D03*
X0090750Y0295750D03*
X0090750Y0283250D03*
X0090750Y0270750D03*
X0090750Y0258250D03*
X0090750Y0245750D03*
X0088350Y0235900D03*
X0077850Y0235900D03*
X0078250Y0218750D03*
X0065750Y0218750D03*
X0065750Y0206250D03*
X0078250Y0206250D03*
X0078250Y0193750D03*
X0065750Y0193750D03*
X0065750Y0181250D03*
X0078250Y0181250D03*
X0078250Y0168750D03*
X0065750Y0168750D03*
X0053250Y0168750D03*
X0053250Y0181250D03*
X0053250Y0193750D03*
X0053250Y0206250D03*
X0053250Y0218750D03*
X0040750Y0218750D03*
X0040750Y0206250D03*
X0040750Y0193750D03*
X0040750Y0181250D03*
X0040750Y0168750D03*
X0040750Y0156250D03*
X0053250Y0156250D03*
X0053250Y0143750D03*
X0052850Y0133900D03*
X0065350Y0133900D03*
X0072500Y0140150D03*
X0078250Y0143750D03*
X0077850Y0133900D03*
X0065750Y0143750D03*
X0065750Y0156250D03*
X0078250Y0156250D03*
X0090750Y0156250D03*
X0090750Y0143750D03*
X0088350Y0133900D03*
X0100850Y0133900D03*
X0103250Y0143750D03*
X0103250Y0156250D03*
X0115750Y0156250D03*
X0126050Y0155800D03*
X0125846Y0152650D03*
X0125846Y0149500D03*
X0126050Y0143300D03*
X0125850Y0140150D03*
X0125846Y0137000D03*
X0125850Y0133900D03*
X0126800Y0126800D03*
X0133654Y0125650D03*
X0133654Y0122500D03*
X0133654Y0113150D03*
X0133654Y0110000D03*
X0125846Y0110000D03*
X0125846Y0113150D03*
X0125750Y0116750D03*
X0115750Y0116750D03*
X0116250Y0120650D03*
X0113350Y0133900D03*
X0115750Y0143750D03*
X0132750Y0143250D03*
X0133600Y0149500D03*
X0133654Y0152650D03*
X0133654Y0162000D03*
X0133654Y0165150D03*
X0125846Y0165150D03*
X0125846Y0162000D03*
X0126050Y0168300D03*
X0125846Y0174500D03*
X0125846Y0177650D03*
X0126050Y0180800D03*
X0125846Y0187000D03*
X0125846Y0190150D03*
X0126050Y0193300D03*
X0125846Y0199500D03*
X0125846Y0202650D03*
X0126050Y0205800D03*
X0125846Y0212000D03*
X0125846Y0215150D03*
X0125750Y0218750D03*
X0133654Y0215150D03*
X0133654Y0212000D03*
X0133654Y0202650D03*
X0133654Y0199500D03*
X0133654Y0190150D03*
X0133654Y0187000D03*
X0133654Y0177650D03*
X0133654Y0174500D03*
X0142750Y0168750D03*
X0142750Y0181250D03*
X0142750Y0193750D03*
X0142750Y0206250D03*
X0142750Y0218750D03*
X0133654Y0224500D03*
X0133654Y0227650D03*
X0126800Y0228800D03*
X0125850Y0235900D03*
X0125846Y0239000D03*
X0125850Y0242150D03*
X0126050Y0245300D03*
X0125846Y0251500D03*
X0125846Y0254650D03*
X0126050Y0257800D03*
X0125846Y0264000D03*
X0125846Y0267150D03*
X0126050Y0270300D03*
X0125846Y0276500D03*
X0125846Y0279650D03*
X0126050Y0282800D03*
X0125846Y0289000D03*
X0125846Y0292150D03*
X0126050Y0295300D03*
X0125846Y0301500D03*
X0125846Y0304650D03*
X0126050Y0307800D03*
X0125846Y0314000D03*
X0125846Y0317150D03*
X0125750Y0320750D03*
X0133654Y0317150D03*
X0133654Y0314000D03*
X0142750Y0308250D03*
X0133654Y0304650D03*
X0133654Y0301500D03*
X0142750Y0295750D03*
X0133654Y0292150D03*
X0133654Y0289000D03*
X0142750Y0283250D03*
X0133654Y0279650D03*
X0133654Y0276500D03*
X0133654Y0267150D03*
X0133654Y0264000D03*
X0133654Y0254650D03*
X0133600Y0251500D03*
X0132750Y0245250D03*
X0142750Y0245750D03*
X0142350Y0235400D03*
X0154850Y0235900D03*
X0155250Y0245750D03*
X0155250Y0258250D03*
X0155250Y0270750D03*
X0155250Y0283250D03*
X0155250Y0295750D03*
X0155250Y0308250D03*
X0155250Y0320750D03*
X0142750Y0320750D03*
X0133654Y0326500D03*
X0133654Y0329650D03*
X0126800Y0330800D03*
X0116250Y0324650D03*
X0115750Y0320750D03*
X0115750Y0308250D03*
X0115750Y0295750D03*
X0115750Y0283250D03*
X0115750Y0270750D03*
X0115750Y0258250D03*
X0115750Y0245750D03*
X0113350Y0235900D03*
X0100850Y0235900D03*
X0103250Y0245750D03*
X0103250Y0258250D03*
X0103250Y0270750D03*
X0103250Y0283250D03*
X0103250Y0295750D03*
X0103250Y0308250D03*
X0103250Y0320750D03*
X0142750Y0270750D03*
X0142750Y0258250D03*
X0167750Y0258250D03*
X0167750Y0245750D03*
X0174500Y0242150D03*
X0180250Y0245750D03*
X0179850Y0235900D03*
X0190350Y0235900D03*
X0192750Y0245750D03*
X0192750Y0258250D03*
X0192750Y0270750D03*
X0192750Y0283250D03*
X0192750Y0295750D03*
X0192750Y0308250D03*
X0192750Y0320750D03*
X0180250Y0320750D03*
X0180250Y0308250D03*
X0180250Y0295750D03*
X0180250Y0283250D03*
X0180250Y0270750D03*
X0180250Y0258250D03*
X0167750Y0270750D03*
X0167750Y0283250D03*
X0167750Y0295750D03*
X0167750Y0308250D03*
X0167750Y0320750D03*
X0205250Y0320750D03*
X0217750Y0320750D03*
X0218250Y0324650D03*
X0227750Y0320750D03*
X0227846Y0317150D03*
X0227846Y0314000D03*
X0228050Y0307800D03*
X0227846Y0304650D03*
X0227846Y0301500D03*
X0228050Y0295300D03*
X0227846Y0292150D03*
X0227846Y0289000D03*
X0228050Y0282800D03*
X0227846Y0279650D03*
X0227846Y0276500D03*
X0228050Y0270300D03*
X0227846Y0267150D03*
X0227846Y0264000D03*
X0228050Y0257800D03*
X0227846Y0254650D03*
X0227846Y0251500D03*
X0228050Y0245300D03*
X0227850Y0242150D03*
X0227846Y0239000D03*
X0227850Y0235900D03*
X0228800Y0228800D03*
X0235654Y0227650D03*
X0235654Y0224500D03*
X0235654Y0215150D03*
X0235654Y0212000D03*
X0227846Y0212000D03*
X0227846Y0215150D03*
X0227750Y0218750D03*
X0218250Y0222650D03*
X0217750Y0218750D03*
X0205250Y0218750D03*
X0205250Y0206250D03*
X0217750Y0206250D03*
X0228050Y0205800D03*
X0227846Y0202650D03*
X0227846Y0199500D03*
X0228050Y0193300D03*
X0227846Y0190150D03*
X0227846Y0187000D03*
X0228050Y0180800D03*
X0227846Y0177650D03*
X0227846Y0174500D03*
X0228050Y0168300D03*
X0227846Y0165150D03*
X0227846Y0162000D03*
X0228050Y0155800D03*
X0227846Y0152650D03*
X0227846Y0149500D03*
X0228050Y0143300D03*
X0227850Y0140150D03*
X0227846Y0137000D03*
X0227850Y0133900D03*
X0228800Y0126800D03*
X0235654Y0125650D03*
X0235654Y0122500D03*
X0235654Y0113150D03*
X0235654Y0110000D03*
X0227846Y0110000D03*
X0227846Y0113150D03*
X0227750Y0116750D03*
X0218250Y0120650D03*
X0217750Y0116750D03*
X0205250Y0116750D03*
X0192750Y0116750D03*
X0180250Y0116750D03*
X0167750Y0116750D03*
X0155250Y0116750D03*
X0142750Y0116750D03*
X0142750Y0104250D03*
X0133654Y0100650D03*
X0133654Y0097500D03*
X0125846Y0097500D03*
X0125846Y0100650D03*
X0126050Y0103800D03*
X0115750Y0104250D03*
X0115750Y0091750D03*
X0126050Y0091300D03*
X0125846Y0088150D03*
X0125846Y0085000D03*
X0126050Y0078800D03*
X0125846Y0075650D03*
X0125846Y0072500D03*
X0126050Y0066300D03*
X0125846Y0063150D03*
X0125846Y0060000D03*
X0126050Y0053800D03*
X0125846Y0050650D03*
X0125846Y0047500D03*
X0126050Y0041300D03*
X0125850Y0038150D03*
X0125846Y0035000D03*
X0125850Y0031900D03*
X0113350Y0031900D03*
X0115750Y0041750D03*
X0115750Y0054250D03*
X0115750Y0066750D03*
X0115750Y0079250D03*
X0103250Y0079250D03*
X0103250Y0066750D03*
X0103250Y0054250D03*
X0103250Y0041750D03*
X0100850Y0031900D03*
X0132750Y0041250D03*
X0133600Y0047500D03*
X0133654Y0050650D03*
X0133654Y0060000D03*
X0133654Y0063150D03*
X0142750Y0066750D03*
X0133654Y0072500D03*
X0133654Y0075650D03*
X0142750Y0079250D03*
X0133654Y0085000D03*
X0133654Y0088150D03*
X0142750Y0091750D03*
X0155250Y0091750D03*
X0155250Y0079250D03*
X0155250Y0066750D03*
X0155250Y0054250D03*
X0155250Y0041750D03*
X0154850Y0031900D03*
X0167350Y0031900D03*
X0174500Y0038150D03*
X0180250Y0041750D03*
X0179850Y0031900D03*
X0190350Y0031900D03*
X0192750Y0041750D03*
X0192750Y0054250D03*
X0192750Y0066750D03*
X0192750Y0079250D03*
X0192750Y0091750D03*
X0192750Y0104250D03*
X0180250Y0104250D03*
X0180250Y0091750D03*
X0180250Y0079250D03*
X0180250Y0066750D03*
X0180250Y0054250D03*
X0167750Y0054250D03*
X0167750Y0041750D03*
X0167750Y0066750D03*
X0167750Y0079250D03*
X0167750Y0091750D03*
X0167750Y0104250D03*
X0155250Y0104250D03*
X0154850Y0133900D03*
X0155250Y0143750D03*
X0155250Y0156250D03*
X0142750Y0156250D03*
X0142750Y0143750D03*
X0142350Y0133400D03*
X0167350Y0133900D03*
X0174500Y0140150D03*
X0180250Y0143750D03*
X0179850Y0133900D03*
X0190350Y0133900D03*
X0192750Y0143750D03*
X0202850Y0133900D03*
X0205250Y0143750D03*
X0217750Y0143750D03*
X0215350Y0133900D03*
X0234750Y0143250D03*
X0235600Y0149500D03*
X0235654Y0152650D03*
X0235654Y0162000D03*
X0235654Y0165150D03*
X0235654Y0174500D03*
X0235654Y0177650D03*
X0235654Y0187000D03*
X0235654Y0190150D03*
X0235654Y0199500D03*
X0235654Y0202650D03*
X0244750Y0206250D03*
X0244750Y0193750D03*
X0244750Y0181250D03*
X0244750Y0168750D03*
X0257250Y0168750D03*
X0269750Y0168750D03*
X0269750Y0181250D03*
X0257250Y0181250D03*
X0257250Y0193750D03*
X0269750Y0193750D03*
X0269750Y0206250D03*
X0257250Y0206250D03*
X0257250Y0218750D03*
X0269750Y0218750D03*
X0282250Y0218750D03*
X0282250Y0206250D03*
X0282250Y0193750D03*
X0282250Y0181250D03*
X0282250Y0168750D03*
X0294750Y0168750D03*
X0294750Y0181250D03*
X0294750Y0193750D03*
X0294750Y0206250D03*
X0294750Y0218750D03*
X0307250Y0218750D03*
X0307250Y0206250D03*
X0307250Y0193750D03*
X0307250Y0181250D03*
X0307250Y0168750D03*
X0319750Y0168750D03*
X0330050Y0168300D03*
X0329846Y0165150D03*
X0329846Y0162000D03*
X0330050Y0155800D03*
X0329846Y0152650D03*
X0329846Y0149500D03*
X0330050Y0143300D03*
X0329850Y0140150D03*
X0329846Y0137000D03*
X0329850Y0133900D03*
X0330800Y0126800D03*
X0329750Y0116750D03*
X0329846Y0113150D03*
X0329846Y0110000D03*
X0330050Y0103800D03*
X0329846Y0100650D03*
X0329846Y0097500D03*
X0330050Y0091300D03*
X0329846Y0088150D03*
X0329846Y0085000D03*
X0330050Y0078800D03*
X0329846Y0075650D03*
X0329846Y0072500D03*
X0330050Y0066300D03*
X0329846Y0063150D03*
X0329846Y0060000D03*
X0330050Y0053800D03*
X0329846Y0050650D03*
X0329846Y0047500D03*
X0330050Y0041300D03*
X0329850Y0038150D03*
X0329846Y0035000D03*
X0329850Y0031900D03*
X0317350Y0031900D03*
X0319750Y0041750D03*
X0319750Y0054250D03*
X0319750Y0066750D03*
X0319750Y0079250D03*
X0319750Y0091750D03*
X0319750Y0104250D03*
X0307250Y0104250D03*
X0307250Y0091750D03*
X0307250Y0079250D03*
X0307250Y0066750D03*
X0307250Y0054250D03*
X0307250Y0041750D03*
X0304850Y0031900D03*
X0292350Y0031900D03*
X0294750Y0041750D03*
X0294750Y0054250D03*
X0294750Y0066750D03*
X0294750Y0079250D03*
X0294750Y0091750D03*
X0294750Y0104250D03*
X0282250Y0104250D03*
X0282250Y0091750D03*
X0282250Y0079250D03*
X0282250Y0066750D03*
X0282250Y0054250D03*
X0282250Y0041750D03*
X0276500Y0038150D03*
X0269750Y0041750D03*
X0257250Y0041750D03*
X0256850Y0031900D03*
X0244350Y0031400D03*
X0244750Y0041750D03*
X0235600Y0047500D03*
X0235654Y0050650D03*
X0227846Y0050650D03*
X0227846Y0047500D03*
X0228050Y0041300D03*
X0227850Y0038150D03*
X0227846Y0035000D03*
X0227850Y0031900D03*
X0234750Y0041250D03*
X0228050Y0053800D03*
X0227846Y0060000D03*
X0227846Y0063150D03*
X0228050Y0066300D03*
X0227846Y0072500D03*
X0227846Y0075650D03*
X0228050Y0078800D03*
X0227846Y0085000D03*
X0227846Y0088150D03*
X0228050Y0091300D03*
X0227846Y0097500D03*
X0227846Y0100650D03*
X0228050Y0103800D03*
X0235654Y0100650D03*
X0235654Y0097500D03*
X0244750Y0091750D03*
X0235654Y0088150D03*
X0235654Y0085000D03*
X0244750Y0079250D03*
X0235654Y0075650D03*
X0235654Y0072500D03*
X0244750Y0066750D03*
X0235654Y0063150D03*
X0235654Y0060000D03*
X0244750Y0054250D03*
X0257250Y0054250D03*
X0269750Y0054250D03*
X0269750Y0066750D03*
X0257250Y0066750D03*
X0257250Y0079250D03*
X0269750Y0079250D03*
X0269750Y0091750D03*
X0257250Y0091750D03*
X0257250Y0104250D03*
X0269750Y0104250D03*
X0269750Y0116750D03*
X0257250Y0116750D03*
X0244750Y0116750D03*
X0244750Y0104250D03*
X0217750Y0104250D03*
X0205250Y0104250D03*
X0205250Y0091750D03*
X0217750Y0091750D03*
X0217750Y0079250D03*
X0205250Y0079250D03*
X0205250Y0066750D03*
X0217750Y0066750D03*
X0217750Y0054250D03*
X0205250Y0054250D03*
X0205250Y0041750D03*
X0217750Y0041750D03*
X0215350Y0031900D03*
X0202850Y0031900D03*
X0142350Y0031400D03*
X0142750Y0041750D03*
X0142750Y0054250D03*
X0103250Y0091750D03*
X0103250Y0104250D03*
X0103250Y0116750D03*
X0090750Y0116750D03*
X0078250Y0116750D03*
X0065750Y0116750D03*
X0053250Y0116750D03*
X0040750Y0116750D03*
X0090750Y0168750D03*
X0090750Y0181250D03*
X0090750Y0193750D03*
X0090750Y0206250D03*
X0090750Y0218750D03*
X0103250Y0218750D03*
X0103250Y0206250D03*
X0103250Y0193750D03*
X0103250Y0181250D03*
X0103250Y0168750D03*
X0115750Y0168750D03*
X0115750Y0181250D03*
X0115750Y0193750D03*
X0115750Y0206250D03*
X0115750Y0218750D03*
X0116250Y0222650D03*
X0155250Y0218750D03*
X0155250Y0206250D03*
X0155250Y0193750D03*
X0155250Y0181250D03*
X0155250Y0168750D03*
X0167750Y0168750D03*
X0167750Y0181250D03*
X0167750Y0193750D03*
X0167750Y0206250D03*
X0167750Y0218750D03*
X0180250Y0218750D03*
X0180250Y0206250D03*
X0180250Y0193750D03*
X0180250Y0181250D03*
X0180250Y0168750D03*
X0192750Y0168750D03*
X0192750Y0181250D03*
X0192750Y0193750D03*
X0192750Y0206250D03*
X0192750Y0218750D03*
X0202850Y0235900D03*
X0205250Y0245750D03*
X0217750Y0245750D03*
X0215350Y0235900D03*
X0234750Y0245250D03*
X0235600Y0251500D03*
X0235654Y0254650D03*
X0235654Y0264000D03*
X0235654Y0267150D03*
X0235654Y0276500D03*
X0235654Y0279650D03*
X0244750Y0283250D03*
X0235654Y0289000D03*
X0235654Y0292150D03*
X0244750Y0295750D03*
X0235654Y0301500D03*
X0235654Y0304650D03*
X0244750Y0308250D03*
X0235654Y0314000D03*
X0235654Y0317150D03*
X0235654Y0326500D03*
X0235654Y0329650D03*
X0228800Y0330800D03*
X0244750Y0320750D03*
X0257250Y0320750D03*
X0269750Y0320750D03*
X0269750Y0308250D03*
X0257250Y0308250D03*
X0257250Y0295750D03*
X0269750Y0295750D03*
X0269750Y0283250D03*
X0257250Y0283250D03*
X0257250Y0270750D03*
X0269750Y0270750D03*
X0269750Y0258250D03*
X0257250Y0258250D03*
X0257250Y0245750D03*
X0269750Y0245750D03*
X0276500Y0242150D03*
X0282250Y0245750D03*
X0281850Y0235900D03*
X0292350Y0235900D03*
X0304850Y0235900D03*
X0307250Y0245750D03*
X0307250Y0258250D03*
X0307250Y0270750D03*
X0307250Y0283250D03*
X0307250Y0295750D03*
X0307250Y0308250D03*
X0307250Y0320750D03*
X0294750Y0320750D03*
X0294750Y0308250D03*
X0294750Y0295750D03*
X0294750Y0283250D03*
X0294750Y0270750D03*
X0294750Y0258250D03*
X0294750Y0245750D03*
X0282250Y0258250D03*
X0282250Y0270750D03*
X0282250Y0283250D03*
X0282250Y0295750D03*
X0282250Y0308250D03*
X0282250Y0320750D03*
X0319750Y0320750D03*
X0320250Y0324650D03*
X0329750Y0320750D03*
X0329846Y0317150D03*
X0329846Y0314000D03*
X0330050Y0307800D03*
X0329846Y0304650D03*
X0329846Y0301500D03*
X0330050Y0295300D03*
X0329846Y0292150D03*
X0329846Y0289000D03*
X0330050Y0282800D03*
X0329846Y0279650D03*
X0329846Y0276500D03*
X0330050Y0270300D03*
X0329846Y0267150D03*
X0329846Y0264000D03*
X0330050Y0257800D03*
X0329846Y0254650D03*
X0329846Y0251500D03*
X0330050Y0245300D03*
X0329850Y0242150D03*
X0329846Y0239000D03*
X0329850Y0235900D03*
X0330800Y0228800D03*
X0320250Y0222650D03*
X0319750Y0218750D03*
X0329750Y0218750D03*
X0329846Y0215150D03*
X0329846Y0212000D03*
X0330050Y0205800D03*
X0329846Y0202650D03*
X0329846Y0199500D03*
X0330050Y0193300D03*
X0329846Y0190150D03*
X0329846Y0187000D03*
X0330050Y0180800D03*
X0329846Y0177650D03*
X0329846Y0174500D03*
X0319750Y0181250D03*
X0319750Y0193750D03*
X0319750Y0206250D03*
X0317350Y0235900D03*
X0319750Y0245750D03*
X0319750Y0258250D03*
X0319750Y0270750D03*
X0319750Y0283250D03*
X0319750Y0295750D03*
X0319750Y0308250D03*
X0330800Y0330800D03*
X0244750Y0270750D03*
X0244750Y0258250D03*
X0244750Y0245750D03*
X0244350Y0235400D03*
X0256850Y0235900D03*
X0269350Y0235900D03*
X0244750Y0218750D03*
X0217750Y0193750D03*
X0205250Y0193750D03*
X0205250Y0181250D03*
X0217750Y0181250D03*
X0217750Y0168750D03*
X0205250Y0168750D03*
X0205250Y0156250D03*
X0217750Y0156250D03*
X0192750Y0156250D03*
X0180250Y0156250D03*
X0167750Y0156250D03*
X0167750Y0143750D03*
X0244750Y0143750D03*
X0244350Y0133400D03*
X0256850Y0133900D03*
X0257250Y0143750D03*
X0269750Y0143750D03*
X0276500Y0140150D03*
X0282250Y0143750D03*
X0281850Y0133900D03*
X0292350Y0133900D03*
X0294750Y0143750D03*
X0304850Y0133900D03*
X0307250Y0143750D03*
X0317350Y0133900D03*
X0319750Y0143750D03*
X0319750Y0156250D03*
X0307250Y0156250D03*
X0294750Y0156250D03*
X0282250Y0156250D03*
X0269750Y0156250D03*
X0257250Y0156250D03*
X0244750Y0156250D03*
X0269350Y0133900D03*
X0282250Y0116750D03*
X0294750Y0116750D03*
X0307250Y0116750D03*
X0319750Y0116750D03*
X0320250Y0120650D03*
X0281850Y0031900D03*
X0269350Y0031900D03*
X0167350Y0235900D03*
X0205250Y0258250D03*
X0217750Y0258250D03*
X0217750Y0270750D03*
X0205250Y0270750D03*
X0205250Y0283250D03*
X0217750Y0283250D03*
X0217750Y0295750D03*
X0205250Y0295750D03*
X0205250Y0308250D03*
X0217750Y0308250D03*
X0040750Y0270750D03*
X0040750Y0258250D03*
D15*
X0031654Y0035000D03*
X0125846Y0122500D03*
X0133654Y0137000D03*
X0125846Y0224500D03*
X0133654Y0239000D03*
X0125846Y0326500D03*
X0031654Y0239000D03*
X0031654Y0137000D03*
X0133654Y0035000D03*
X0227846Y0122500D03*
X0235654Y0137000D03*
X0227846Y0224500D03*
X0235654Y0239000D03*
X0329846Y0224500D03*
X0329846Y0122500D03*
X0235654Y0035000D03*
X0227846Y0326500D03*
X0329846Y0326500D03*
M02*
