%
M48
M72
T01C0.0130
T02C0.0138
%
T01
X4035Y3140
X4075Y4175
X3075Y4125
X3160Y4750
X3165Y5065
X3165Y6000
X3165Y6315
X4075Y6675
X3165Y7250
X3165Y7565
X4075Y7925
X3165Y8500
X3165Y8815
X4075Y9175
X3165Y9750
X3165Y10065
X3165Y11000
X3165Y11315
X3165Y12250
X3165Y12565
X4035Y13340
X4075Y14375
X3075Y14325
X3160Y14950
X3165Y15265
X3165Y16200
X3165Y16515
X3165Y17450
X3165Y17765
X3165Y18700
X3165Y19015
X3165Y19950
X3165Y20265
X3165Y21200
X3165Y21515
X3165Y22450
X3165Y22765
X4035Y23540
X4075Y24575
X3075Y24525
X3160Y25150
X3165Y25465
X3165Y26400
X3165Y26715
X3165Y27650
X3165Y27965
X4075Y28325
X3165Y28900
X3165Y29215
X4075Y29575
X3165Y30150
X3165Y30465
X4075Y30825
X3165Y31400
X3165Y31715
X3165Y32650
X3165Y32965
X4075Y32075
X5325Y32075
X5325Y30825
X5325Y29575
X5325Y28325
X5325Y27075
X5325Y25825
X5325Y24575
X5285Y23590
X6535Y23590
X7250Y24215
X7825Y24575
X6575Y24575
X6575Y25825
X7825Y25825
X7825Y27075
X6575Y27075
X6575Y28325
X7825Y28325
X7825Y29575
X6575Y29575
X6575Y30825
X7825Y30825
X7825Y32075
X6575Y32075
X9075Y32075
X9075Y30825
X9075Y29575
X9075Y28325
X9075Y27075
X9075Y25825
X9075Y24575
X8835Y23590
X7785Y23590
X7825Y21875
X6575Y21875
X6575Y20625
X7825Y20625
X7825Y19375
X6575Y19375
X6575Y18125
X7825Y18125
X7825Y16875
X6575Y16875
X5325Y16875
X5325Y18125
X5325Y19375
X5325Y20625
X5325Y21875
X4075Y21875
X4075Y20625
X4075Y19375
X4075Y18125
X4075Y16875
X4075Y15625
X5325Y15625
X5325Y14375
X5285Y13390
X6535Y13390
X7250Y14015
X7825Y14375
X7785Y13390
X6575Y14375
X6575Y15625
X7825Y15625
X9075Y15625
X9075Y14375
X8835Y13390
X10085Y13390
X10325Y14375
X10325Y15625
X11575Y15625
X12605Y15580
X12585Y15265
X12585Y14950
X12605Y14330
X12585Y14015
X12585Y13700
X12585Y13390
X12680Y12680
X13365Y12565
X13365Y12250
X13365Y11315
X13365Y11000
X12585Y11000
X12585Y11315
X12575Y11675
X11575Y11675
X11625Y12065
X11335Y13390
X11575Y14375
X13275Y14325
X13360Y14950
X13365Y15265
X13365Y16200
X13365Y16515
X12585Y16515
X12585Y16200
X12605Y16830
X12585Y17450
X12585Y17765
X12605Y18080
X12585Y18700
X12585Y19015
X12605Y19330
X12585Y19950
X12585Y20265
X12605Y20580
X12585Y21200
X12585Y21515
X12575Y21875
X13365Y21515
X13365Y21200
X13365Y20265
X13365Y19950
X13365Y19015
X13365Y18700
X13365Y17765
X13365Y17450
X14275Y16875
X14275Y18125
X14275Y19375
X14275Y20625
X14275Y21875
X13365Y22450
X13365Y22765
X12680Y22880
X12585Y23590
X12585Y23900
X12585Y24215
X12605Y24530
X12585Y25150
X12585Y25465
X12605Y25780
X12585Y26400
X12585Y26715
X12605Y27030
X12585Y27650
X12585Y27965
X12605Y28280
X12585Y28900
X12585Y29215
X12605Y29530
X12585Y30150
X12585Y30465
X12605Y30780
X12585Y31400
X12585Y31715
X12575Y32075
X13365Y31715
X13365Y31400
X14275Y30825
X13365Y30465
X13365Y30150
X14275Y29575
X13365Y29215
X13365Y28900
X14275Y28325
X13365Y27965
X13365Y27650
X13365Y26715
X13365Y26400
X13365Y25465
X13360Y25150
X13275Y24525
X14275Y24575
X14235Y23540
X15485Y23590
X15525Y24575
X15525Y25825
X15525Y27075
X15525Y28325
X15525Y29575
X15525Y30825
X15525Y32075
X14275Y32075
X13365Y32650
X13365Y32965
X12680Y33080
X11625Y32465
X11575Y32075
X11575Y30825
X11575Y29575
X11575Y28325
X11575Y27075
X11575Y25825
X11575Y24575
X11335Y23590
X10085Y23590
X10325Y24575
X10325Y25825
X10325Y27075
X10325Y28325
X10325Y29575
X10325Y30825
X10325Y32075
X14275Y27075
X14275Y25825
X16775Y25825
X16775Y24575
X17450Y24215
X18025Y24575
X17985Y23590
X19035Y23590
X19275Y24575
X19275Y25825
X19275Y27075
X19275Y28325
X19275Y29575
X19275Y30825
X19275Y32075
X18025Y32075
X18025Y30825
X18025Y29575
X18025Y28325
X18025Y27075
X18025Y25825
X16775Y27075
X16775Y28325
X16775Y29575
X16775Y30825
X16775Y32075
X20525Y32075
X21775Y32075
X21825Y32465
X22775Y32075
X22785Y31715
X22785Y31400
X22805Y30780
X22785Y30465
X22785Y30150
X22805Y29530
X22785Y29215
X22785Y28900
X22805Y28280
X22785Y27965
X22785Y27650
X22805Y27030
X22785Y26715
X22785Y26400
X22805Y25780
X22785Y25465
X22785Y25150
X22805Y24530
X22785Y24215
X22785Y23900
X22785Y23590
X22880Y22880
X23565Y22765
X23565Y22450
X23565Y21515
X23565Y21200
X22785Y21200
X22785Y21515
X22775Y21875
X21825Y22265
X21775Y21875
X20525Y21875
X20525Y20625
X21775Y20625
X22805Y20580
X22785Y20265
X22785Y19950
X22805Y19330
X22785Y19015
X22785Y18700
X22805Y18080
X22785Y17765
X22785Y17450
X22805Y16830
X22785Y16515
X22785Y16200
X22805Y15580
X22785Y15265
X22785Y14950
X22805Y14330
X22785Y14015
X22785Y13700
X22785Y13390
X22880Y12680
X23565Y12565
X23565Y12250
X23565Y11315
X23565Y11000
X22785Y11000
X22785Y11315
X22775Y11675
X21825Y12065
X21775Y11675
X20525Y11675
X19275Y11675
X18025Y11675
X16775Y11675
X15525Y11675
X14275Y11675
X14275Y10425
X13365Y10065
X13365Y9750
X12585Y9750
X12585Y10065
X12605Y10380
X11575Y10425
X11575Y9175
X12605Y9130
X12585Y8815
X12585Y8500
X12605Y7880
X12585Y7565
X12585Y7250
X12605Y6630
X12585Y6315
X12585Y6000
X12605Y5380
X12585Y5065
X12585Y4750
X12605Y4130
X12585Y3815
X12585Y3500
X12585Y3190
X11335Y3190
X11575Y4175
X11575Y5425
X11575Y6675
X11575Y7925
X10325Y7925
X10325Y6675
X10325Y5425
X10325Y4175
X10085Y3190
X8835Y3190
X9075Y4175
X9075Y5425
X9075Y6675
X9075Y7925
X9075Y9175
X9075Y10425
X7825Y10425
X6575Y10425
X6575Y9175
X7825Y9175
X7825Y7925
X6575Y7925
X6575Y6675
X7825Y6675
X7825Y5425
X6575Y5425
X6575Y4175
X7250Y3815
X7825Y4175
X7785Y3190
X6535Y3190
X5285Y3190
X5325Y4175
X5325Y5425
X5325Y6675
X5325Y7925
X5325Y9175
X5325Y10425
X4075Y10425
X4075Y11675
X5325Y11675
X6575Y11675
X7825Y11675
X9075Y11675
X10325Y11675
X10325Y10425
X10325Y9175
X13365Y8815
X13365Y8500
X14275Y7925
X13365Y7565
X13365Y7250
X14275Y6675
X13365Y6315
X13365Y6000
X13365Y5065
X13360Y4750
X13275Y4125
X14275Y4175
X14235Y3140
X15485Y3190
X15525Y4175
X15525Y5425
X15525Y6675
X15525Y7925
X15525Y9175
X15525Y10425
X16775Y10425
X16775Y9175
X16775Y7925
X16775Y6675
X16775Y5425
X16775Y4175
X17450Y3815
X18025Y4175
X17985Y3190
X19035Y3190
X19275Y4175
X19275Y5425
X19275Y6675
X19275Y7925
X19275Y9175
X19275Y10425
X18025Y10425
X18025Y9175
X18025Y7925
X18025Y6675
X18025Y5425
X20525Y5425
X21775Y5425
X22805Y5380
X22785Y5065
X22785Y4750
X22805Y4130
X22785Y3815
X22785Y3500
X22785Y3190
X23475Y4125
X23560Y4750
X23565Y5065
X23565Y6000
X23565Y6315
X22785Y6315
X22785Y6000
X22805Y6630
X22785Y7250
X22785Y7565
X22805Y7880
X22785Y8500
X22785Y8815
X22805Y9130
X22785Y9750
X22785Y10065
X22805Y10380
X23565Y10065
X23565Y9750
X24475Y9175
X23565Y8815
X23565Y8500
X24475Y7925
X23565Y7565
X23565Y7250
X24475Y6675
X24475Y5425
X24475Y4175
X24435Y3140
X25685Y3190
X25725Y4175
X26975Y4175
X27650Y3815
X28225Y4175
X28185Y3190
X29235Y3190
X30485Y3190
X30725Y4175
X30725Y5425
X30725Y6675
X30725Y7925
X30725Y9175
X30725Y10425
X29475Y10425
X29475Y9175
X29475Y7925
X29475Y6675
X29475Y5425
X29475Y4175
X28225Y5425
X28225Y6675
X28225Y7925
X28225Y9175
X28225Y10425
X26975Y10425
X25725Y10425
X25725Y9175
X26975Y9175
X26975Y7925
X25725Y7925
X25725Y6675
X26975Y6675
X26975Y5425
X25725Y5425
X26935Y3190
X31735Y3190
X31975Y4175
X33005Y4130
X32985Y3815
X32985Y3500
X32985Y3190
X32985Y4750
X32985Y5065
X33005Y5380
X32985Y6000
X32985Y6315
X33005Y6630
X32985Y7250
X32985Y7565
X33005Y7880
X32985Y8500
X32985Y8815
X33005Y9130
X32985Y9750
X32985Y10065
X33005Y10380
X32985Y11000
X32985Y11315
X32975Y11675
X31975Y11675
X32025Y12065
X33080Y12680
X32985Y13390
X32985Y13700
X32985Y14015
X33005Y14330
X32985Y14950
X32985Y15265
X33005Y15580
X32985Y16200
X32985Y16515
X33005Y16830
X32985Y17450
X32985Y17765
X33005Y18080
X32985Y18700
X32985Y19015
X33005Y19330
X32985Y19950
X32985Y20265
X33005Y20580
X32985Y21200
X32985Y21515
X32975Y21875
X31975Y21875
X32025Y22265
X33080Y22880
X32985Y23590
X32985Y23900
X32985Y24215
X33005Y24530
X32985Y25150
X32985Y25465
X33005Y25780
X32985Y26400
X32985Y26715
X33005Y27030
X32985Y27650
X32985Y27965
X33005Y28280
X32985Y28900
X32985Y29215
X33005Y29530
X32985Y30150
X32985Y30465
X33005Y30780
X32985Y31400
X32985Y31715
X32975Y32075
X31975Y32075
X32025Y32465
X33080Y33080
X30725Y32075
X30725Y30825
X30725Y29575
X30725Y28325
X30725Y27075
X30725Y25825
X30725Y24575
X30485Y23590
X29235Y23590
X29475Y24575
X29475Y25825
X29475Y27075
X29475Y28325
X29475Y29575
X29475Y30825
X29475Y32075
X28225Y32075
X28225Y30825
X28225Y29575
X28225Y28325
X28225Y27075
X28225Y25825
X28225Y24575
X27650Y24215
X26975Y24575
X25725Y24575
X25685Y23590
X24435Y23540
X24475Y24575
X23560Y25150
X23565Y25465
X23565Y26400
X23565Y26715
X23565Y27650
X23565Y27965
X24475Y28325
X23565Y28900
X23565Y29215
X24475Y29575
X23565Y30150
X23565Y30465
X24475Y30825
X23565Y31400
X23565Y31715
X23565Y32650
X23565Y32965
X22880Y33080
X24475Y32075
X25725Y32075
X26975Y32075
X26975Y30825
X25725Y30825
X25725Y29575
X26975Y29575
X26975Y28325
X25725Y28325
X25725Y27075
X26975Y27075
X26975Y25825
X25725Y25825
X24475Y25825
X24475Y27075
X23475Y24525
X21775Y24575
X20525Y24575
X20285Y23590
X21535Y23590
X19275Y21875
X19275Y20625
X19275Y19375
X19275Y18125
X19275Y16875
X18025Y16875
X18025Y18125
X18025Y19375
X18025Y20625
X18025Y21875
X16775Y21875
X16775Y20625
X16775Y19375
X16775Y18125
X16775Y16875
X15525Y16875
X15525Y18125
X15525Y19375
X15525Y20625
X15525Y21875
X16735Y23590
X20525Y25825
X21775Y25825
X21775Y27075
X20525Y27075
X20525Y28325
X21775Y28325
X21775Y29575
X20525Y29575
X20525Y30825
X21775Y30825
X26935Y23590
X28185Y23590
X28225Y21875
X28225Y20625
X28225Y19375
X28225Y18125
X28225Y16875
X26975Y16875
X25725Y16875
X25725Y18125
X26975Y18125
X26975Y19375
X25725Y19375
X25725Y20625
X26975Y20625
X26975Y21875
X25725Y21875
X24475Y21875
X24475Y20625
X23565Y20265
X23565Y19950
X23565Y19015
X23565Y18700
X23565Y17765
X23565Y17450
X23565Y16515
X23565Y16200
X23565Y15265
X23560Y14950
X23475Y14325
X24475Y14375
X24435Y13340
X25685Y13390
X25725Y14375
X26975Y14375
X27650Y14015
X28225Y14375
X28185Y13390
X29235Y13390
X29475Y14375
X30485Y13390
X30725Y14375
X31735Y13390
X31975Y14375
X31975Y15625
X30725Y15625
X29475Y15625
X28225Y15625
X26975Y15625
X25725Y15625
X24475Y15625
X24475Y16875
X24475Y18125
X24475Y19375
X21775Y19375
X20525Y19375
X20525Y18125
X21775Y18125
X21775Y16875
X20525Y16875
X20525Y15625
X21775Y15625
X21775Y14375
X21535Y13390
X20525Y14375
X20285Y13390
X19275Y14375
X19035Y13390
X17985Y13390
X17450Y14015
X18025Y14375
X18025Y15625
X16775Y15625
X16775Y14375
X16735Y13390
X15485Y13390
X15525Y14375
X15525Y15625
X14275Y15625
X14275Y14375
X14235Y13340
X11575Y16875
X11575Y18125
X11575Y19375
X11575Y20625
X11575Y21875
X11625Y22265
X10325Y21875
X10325Y20625
X10325Y19375
X10325Y18125
X10325Y16875
X9075Y16875
X9075Y18125
X9075Y19375
X9075Y20625
X9075Y21875
X4075Y25825
X4075Y27075
X19275Y15625
X24475Y11675
X25725Y11675
X26975Y11675
X28225Y11675
X29475Y11675
X30725Y11675
X31975Y10425
X31975Y9175
X31975Y7925
X31975Y6675
X31975Y5425
X24475Y10425
X21775Y10425
X20525Y10425
X20525Y9175
X21775Y9175
X21775Y7925
X20525Y7925
X20525Y6675
X21775Y6675
X21775Y4175
X20525Y4175
X20285Y3190
X21535Y3190
X16735Y3190
X14275Y5425
X14275Y9175
X4075Y5425
X26935Y13390
X29475Y16875
X29475Y18125
X29475Y19375
X29475Y20625
X29475Y21875
X30725Y21875
X30725Y20625
X30725Y19375
X30725Y18125
X30725Y16875
X31975Y16875
X31975Y18125
X31975Y19375
X31975Y20625
X31735Y23590
X31975Y24575
X31975Y25825
X31975Y27075
X31975Y28325
X31975Y29575
X31975Y30825
T02
X3165Y3500
X12585Y12250
X13365Y13700
X12585Y22450
X13365Y23900
X12585Y32650
X3165Y23900
X3165Y13700
X13365Y3500
X22785Y12250
X23565Y13700
X22785Y22450
X23565Y23900
X32985Y22450
X32985Y12250
X23565Y3500
X22785Y32650
X32985Y32650
M30
