G75*
%MOIN*%
%OFA0B0*%
%FSLAX25Y25*%
%IPPOS*%
%LPD*%
%AMOC8*
5,1,8,0,0,1.08239X$1,22.5*
%
%ADD10R,0.02756X0.01575*%
%ADD11R,0.01575X0.02756*%
%ADD12R,0.01575X0.04724*%
D10*
X0031654Y0031850D03*
X0031654Y0035000D03*
X0031654Y0038150D03*
X0038346Y0038150D03*
X0038346Y0035000D03*
X0038346Y0031850D03*
X0044154Y0031850D03*
X0044154Y0035000D03*
X0044154Y0038150D03*
X0050846Y0038150D03*
X0050846Y0035000D03*
X0050846Y0031850D03*
X0056654Y0031850D03*
X0056654Y0035000D03*
X0056654Y0038150D03*
X0056654Y0044350D03*
X0056654Y0047500D03*
X0056654Y0050650D03*
X0050846Y0050650D03*
X0050846Y0047500D03*
X0050846Y0044350D03*
X0044154Y0044350D03*
X0044154Y0047500D03*
X0044154Y0050650D03*
X0038346Y0050650D03*
X0038346Y0047500D03*
X0038346Y0044350D03*
X0031654Y0044350D03*
X0031654Y0047500D03*
X0031654Y0050650D03*
X0031654Y0056850D03*
X0031654Y0060000D03*
X0031654Y0063150D03*
X0038346Y0063150D03*
X0038346Y0060000D03*
X0038346Y0056850D03*
X0044154Y0056850D03*
X0044154Y0060000D03*
X0044154Y0063150D03*
X0050846Y0063150D03*
X0050846Y0060000D03*
X0050846Y0056850D03*
X0056654Y0056850D03*
X0056654Y0060000D03*
X0056654Y0063150D03*
X0056654Y0069350D03*
X0056654Y0072500D03*
X0056654Y0075650D03*
X0050846Y0075650D03*
X0050846Y0072500D03*
X0050846Y0069350D03*
X0044154Y0069350D03*
X0044154Y0072500D03*
X0044154Y0075650D03*
X0038346Y0075650D03*
X0038346Y0072500D03*
X0038346Y0069350D03*
X0031654Y0069350D03*
X0031654Y0072500D03*
X0031654Y0075650D03*
X0031654Y0081850D03*
X0031654Y0085000D03*
X0031654Y0088150D03*
X0038346Y0088150D03*
X0038346Y0085000D03*
X0038346Y0081850D03*
X0044154Y0081850D03*
X0044154Y0085000D03*
X0044154Y0088150D03*
X0050846Y0088150D03*
X0050846Y0085000D03*
X0050846Y0081850D03*
X0056654Y0081850D03*
X0056654Y0085000D03*
X0056654Y0088150D03*
X0056654Y0094350D03*
X0056654Y0097500D03*
X0056654Y0100650D03*
X0050846Y0100650D03*
X0050846Y0097500D03*
X0050846Y0094350D03*
X0044154Y0094350D03*
X0044154Y0097500D03*
X0044154Y0100650D03*
X0044154Y0106850D03*
X0044154Y0110000D03*
X0044154Y0113150D03*
X0044154Y0119350D03*
X0044154Y0122500D03*
X0044154Y0125650D03*
X0050846Y0125650D03*
X0050846Y0122500D03*
X0050846Y0119350D03*
X0056654Y0119350D03*
X0056654Y0122500D03*
X0056654Y0125650D03*
X0063346Y0125650D03*
X0063346Y0122500D03*
X0063346Y0119350D03*
X0069154Y0119350D03*
X0069154Y0122500D03*
X0069154Y0125650D03*
X0075846Y0125650D03*
X0075846Y0122500D03*
X0075846Y0119350D03*
X0081654Y0119350D03*
X0081654Y0122500D03*
X0081654Y0125650D03*
X0088346Y0125650D03*
X0088346Y0122500D03*
X0088346Y0119350D03*
X0094154Y0119350D03*
X0094154Y0122500D03*
X0094154Y0125650D03*
X0100846Y0125650D03*
X0100846Y0122500D03*
X0100846Y0119350D03*
X0106654Y0119350D03*
X0106654Y0122500D03*
X0106654Y0125650D03*
X0113346Y0125650D03*
X0113346Y0122500D03*
X0113346Y0119350D03*
X0119154Y0119350D03*
X0119154Y0122500D03*
X0119154Y0125650D03*
X0125846Y0125650D03*
X0125846Y0122500D03*
X0125846Y0119350D03*
X0125846Y0113150D03*
X0125846Y0110000D03*
X0125846Y0106850D03*
X0125846Y0100650D03*
X0125846Y0097500D03*
X0125846Y0094350D03*
X0119154Y0094350D03*
X0119154Y0097500D03*
X0119154Y0100650D03*
X0113346Y0100650D03*
X0113346Y0097500D03*
X0113346Y0094350D03*
X0113346Y0088150D03*
X0113346Y0085000D03*
X0113346Y0081850D03*
X0119154Y0081850D03*
X0119154Y0085000D03*
X0119154Y0088150D03*
X0125846Y0088150D03*
X0125846Y0085000D03*
X0125846Y0081850D03*
X0125846Y0075650D03*
X0125846Y0072500D03*
X0125846Y0069350D03*
X0119154Y0069350D03*
X0119154Y0072500D03*
X0119154Y0075650D03*
X0113346Y0075650D03*
X0113346Y0072500D03*
X0113346Y0069350D03*
X0113346Y0063150D03*
X0113346Y0060000D03*
X0113346Y0056850D03*
X0119154Y0056850D03*
X0119154Y0060000D03*
X0119154Y0063150D03*
X0125846Y0063150D03*
X0125846Y0060000D03*
X0125846Y0056850D03*
X0125846Y0050650D03*
X0125846Y0047500D03*
X0125846Y0044350D03*
X0119154Y0044350D03*
X0119154Y0047500D03*
X0119154Y0050650D03*
X0113346Y0050650D03*
X0113346Y0047500D03*
X0113346Y0044350D03*
X0113346Y0038150D03*
X0113346Y0035000D03*
X0113346Y0031850D03*
X0119154Y0031850D03*
X0119154Y0035000D03*
X0119154Y0038150D03*
X0125846Y0038150D03*
X0125846Y0035000D03*
X0125846Y0031850D03*
X0133654Y0031850D03*
X0133654Y0035000D03*
X0133654Y0038150D03*
X0133654Y0044350D03*
X0133654Y0047500D03*
X0133654Y0050650D03*
X0133654Y0056850D03*
X0133654Y0060000D03*
X0133654Y0063150D03*
X0133654Y0069350D03*
X0133654Y0072500D03*
X0133654Y0075650D03*
X0133654Y0081850D03*
X0133654Y0085000D03*
X0133654Y0088150D03*
X0133654Y0094350D03*
X0133654Y0097500D03*
X0133654Y0100650D03*
X0133654Y0106850D03*
X0133654Y0110000D03*
X0133654Y0113150D03*
X0133654Y0119350D03*
X0133654Y0122500D03*
X0133654Y0125650D03*
X0140346Y0125650D03*
X0140346Y0122500D03*
X0140346Y0119350D03*
X0146154Y0119350D03*
X0146154Y0122500D03*
X0146154Y0125650D03*
X0152846Y0125650D03*
X0152846Y0122500D03*
X0152846Y0119350D03*
X0158654Y0119350D03*
X0158654Y0122500D03*
X0158654Y0125650D03*
X0165346Y0125650D03*
X0165346Y0122500D03*
X0165346Y0119350D03*
X0165346Y0113150D03*
X0165346Y0110000D03*
X0165346Y0106850D03*
X0165346Y0100650D03*
X0165346Y0097500D03*
X0165346Y0094350D03*
X0158654Y0094350D03*
X0158654Y0097500D03*
X0158654Y0100650D03*
X0152846Y0100650D03*
X0152846Y0097500D03*
X0152846Y0094350D03*
X0152846Y0088150D03*
X0152846Y0085000D03*
X0152846Y0081850D03*
X0158654Y0081850D03*
X0158654Y0085000D03*
X0158654Y0088150D03*
X0165346Y0088150D03*
X0165346Y0085000D03*
X0165346Y0081850D03*
X0171154Y0081850D03*
X0171154Y0085000D03*
X0171154Y0088150D03*
X0177846Y0088150D03*
X0177846Y0085000D03*
X0177846Y0081850D03*
X0183654Y0081850D03*
X0183654Y0085000D03*
X0183654Y0088150D03*
X0190346Y0088150D03*
X0190346Y0085000D03*
X0190346Y0081850D03*
X0196154Y0081850D03*
X0196154Y0085000D03*
X0196154Y0088150D03*
X0202846Y0088150D03*
X0202846Y0085000D03*
X0202846Y0081850D03*
X0208654Y0081850D03*
X0208654Y0085000D03*
X0208654Y0088150D03*
X0208654Y0094350D03*
X0208654Y0097500D03*
X0208654Y0100650D03*
X0202846Y0100650D03*
X0202846Y0097500D03*
X0202846Y0094350D03*
X0196154Y0094350D03*
X0196154Y0097500D03*
X0196154Y0100650D03*
X0196154Y0106850D03*
X0196154Y0110000D03*
X0196154Y0113150D03*
X0196154Y0119350D03*
X0196154Y0122500D03*
X0196154Y0125650D03*
X0202846Y0125650D03*
X0202846Y0122500D03*
X0202846Y0119350D03*
X0208654Y0119350D03*
X0208654Y0122500D03*
X0208654Y0125650D03*
X0215346Y0125650D03*
X0215346Y0122500D03*
X0215346Y0119350D03*
X0221154Y0119350D03*
X0221154Y0122500D03*
X0221154Y0125650D03*
X0227846Y0125650D03*
X0227846Y0122500D03*
X0227846Y0119350D03*
X0227846Y0113150D03*
X0227846Y0110000D03*
X0227846Y0106850D03*
X0227846Y0100650D03*
X0227846Y0097500D03*
X0227846Y0094350D03*
X0227846Y0088150D03*
X0227846Y0085000D03*
X0227846Y0081850D03*
X0227846Y0075650D03*
X0227846Y0072500D03*
X0227846Y0069350D03*
X0227846Y0063150D03*
X0227846Y0060000D03*
X0227846Y0056850D03*
X0227846Y0050650D03*
X0227846Y0047500D03*
X0227846Y0044350D03*
X0227846Y0038150D03*
X0227846Y0035000D03*
X0227846Y0031850D03*
X0221154Y0031850D03*
X0221154Y0035000D03*
X0221154Y0038150D03*
X0215346Y0038150D03*
X0215346Y0035000D03*
X0215346Y0031850D03*
X0208654Y0031850D03*
X0208654Y0035000D03*
X0208654Y0038150D03*
X0202846Y0038150D03*
X0202846Y0035000D03*
X0202846Y0031850D03*
X0196154Y0031850D03*
X0196154Y0035000D03*
X0196154Y0038150D03*
X0190346Y0038150D03*
X0190346Y0035000D03*
X0190346Y0031850D03*
X0183654Y0031850D03*
X0183654Y0035000D03*
X0183654Y0038150D03*
X0177846Y0038150D03*
X0177846Y0035000D03*
X0177846Y0031850D03*
X0171154Y0031850D03*
X0171154Y0035000D03*
X0171154Y0038150D03*
X0165346Y0038150D03*
X0165346Y0035000D03*
X0165346Y0031850D03*
X0158654Y0031850D03*
X0158654Y0035000D03*
X0158654Y0038150D03*
X0152846Y0038150D03*
X0152846Y0035000D03*
X0152846Y0031850D03*
X0146154Y0031850D03*
X0146154Y0035000D03*
X0146154Y0038150D03*
X0140346Y0038150D03*
X0140346Y0035000D03*
X0140346Y0031850D03*
X0140346Y0044350D03*
X0140346Y0047500D03*
X0140346Y0050650D03*
X0146154Y0050650D03*
X0146154Y0047500D03*
X0146154Y0044350D03*
X0152846Y0044350D03*
X0152846Y0047500D03*
X0152846Y0050650D03*
X0158654Y0050650D03*
X0158654Y0047500D03*
X0158654Y0044350D03*
X0165346Y0044350D03*
X0165346Y0047500D03*
X0165346Y0050650D03*
X0171154Y0050650D03*
X0171154Y0047500D03*
X0171154Y0044350D03*
X0177846Y0044350D03*
X0177846Y0047500D03*
X0177846Y0050650D03*
X0183654Y0050650D03*
X0183654Y0047500D03*
X0183654Y0044350D03*
X0190346Y0044350D03*
X0190346Y0047500D03*
X0190346Y0050650D03*
X0196154Y0050650D03*
X0196154Y0047500D03*
X0196154Y0044350D03*
X0202846Y0044350D03*
X0202846Y0047500D03*
X0202846Y0050650D03*
X0208654Y0050650D03*
X0208654Y0047500D03*
X0208654Y0044350D03*
X0215346Y0044350D03*
X0215346Y0047500D03*
X0215346Y0050650D03*
X0221154Y0050650D03*
X0221154Y0047500D03*
X0221154Y0044350D03*
X0221154Y0056850D03*
X0221154Y0060000D03*
X0221154Y0063150D03*
X0215346Y0063150D03*
X0215346Y0060000D03*
X0215346Y0056850D03*
X0208654Y0056850D03*
X0208654Y0060000D03*
X0208654Y0063150D03*
X0202846Y0063150D03*
X0202846Y0060000D03*
X0202846Y0056850D03*
X0196154Y0056850D03*
X0196154Y0060000D03*
X0196154Y0063150D03*
X0190346Y0063150D03*
X0190346Y0060000D03*
X0190346Y0056850D03*
X0183654Y0056850D03*
X0183654Y0060000D03*
X0183654Y0063150D03*
X0177846Y0063150D03*
X0177846Y0060000D03*
X0177846Y0056850D03*
X0171154Y0056850D03*
X0171154Y0060000D03*
X0171154Y0063150D03*
X0165346Y0063150D03*
X0165346Y0060000D03*
X0165346Y0056850D03*
X0158654Y0056850D03*
X0158654Y0060000D03*
X0158654Y0063150D03*
X0152846Y0063150D03*
X0152846Y0060000D03*
X0152846Y0056850D03*
X0146154Y0056850D03*
X0146154Y0060000D03*
X0146154Y0063150D03*
X0140346Y0063150D03*
X0140346Y0060000D03*
X0140346Y0056850D03*
X0140346Y0069350D03*
X0140346Y0072500D03*
X0140346Y0075650D03*
X0146154Y0075650D03*
X0146154Y0072500D03*
X0146154Y0069350D03*
X0152846Y0069350D03*
X0152846Y0072500D03*
X0152846Y0075650D03*
X0158654Y0075650D03*
X0158654Y0072500D03*
X0158654Y0069350D03*
X0165346Y0069350D03*
X0165346Y0072500D03*
X0165346Y0075650D03*
X0171154Y0075650D03*
X0171154Y0072500D03*
X0171154Y0069350D03*
X0177846Y0069350D03*
X0177846Y0072500D03*
X0177846Y0075650D03*
X0183654Y0075650D03*
X0183654Y0072500D03*
X0183654Y0069350D03*
X0190346Y0069350D03*
X0190346Y0072500D03*
X0190346Y0075650D03*
X0196154Y0075650D03*
X0196154Y0072500D03*
X0196154Y0069350D03*
X0202846Y0069350D03*
X0202846Y0072500D03*
X0202846Y0075650D03*
X0208654Y0075650D03*
X0208654Y0072500D03*
X0208654Y0069350D03*
X0215346Y0069350D03*
X0215346Y0072500D03*
X0215346Y0075650D03*
X0221154Y0075650D03*
X0221154Y0072500D03*
X0221154Y0069350D03*
X0221154Y0081850D03*
X0221154Y0085000D03*
X0221154Y0088150D03*
X0215346Y0088150D03*
X0215346Y0085000D03*
X0215346Y0081850D03*
X0215346Y0094350D03*
X0215346Y0097500D03*
X0215346Y0100650D03*
X0221154Y0100650D03*
X0221154Y0097500D03*
X0221154Y0094350D03*
X0221154Y0106850D03*
X0221154Y0110000D03*
X0221154Y0113150D03*
X0215346Y0113150D03*
X0215346Y0110000D03*
X0215346Y0106850D03*
X0208654Y0106850D03*
X0208654Y0110000D03*
X0208654Y0113150D03*
X0202846Y0113150D03*
X0202846Y0110000D03*
X0202846Y0106850D03*
X0190346Y0106850D03*
X0190346Y0110000D03*
X0190346Y0113150D03*
X0190346Y0119350D03*
X0190346Y0122500D03*
X0190346Y0125650D03*
X0183654Y0125650D03*
X0183654Y0122500D03*
X0183654Y0119350D03*
X0183654Y0113150D03*
X0183654Y0110000D03*
X0183654Y0106850D03*
X0183654Y0100650D03*
X0183654Y0097500D03*
X0183654Y0094350D03*
X0190346Y0094350D03*
X0190346Y0097500D03*
X0190346Y0100650D03*
X0177846Y0100650D03*
X0177846Y0097500D03*
X0177846Y0094350D03*
X0171154Y0094350D03*
X0171154Y0097500D03*
X0171154Y0100650D03*
X0171154Y0106850D03*
X0171154Y0110000D03*
X0171154Y0113150D03*
X0171154Y0119350D03*
X0171154Y0122500D03*
X0171154Y0125650D03*
X0177846Y0125650D03*
X0177846Y0122500D03*
X0177846Y0119350D03*
X0177846Y0113150D03*
X0177846Y0110000D03*
X0177846Y0106850D03*
X0158654Y0106850D03*
X0158654Y0110000D03*
X0158654Y0113150D03*
X0152846Y0113150D03*
X0152846Y0110000D03*
X0152846Y0106850D03*
X0146154Y0106850D03*
X0146154Y0110000D03*
X0146154Y0113150D03*
X0140346Y0113150D03*
X0140346Y0110000D03*
X0140346Y0106850D03*
X0140346Y0100650D03*
X0140346Y0097500D03*
X0140346Y0094350D03*
X0146154Y0094350D03*
X0146154Y0097500D03*
X0146154Y0100650D03*
X0146154Y0088150D03*
X0146154Y0085000D03*
X0146154Y0081850D03*
X0140346Y0081850D03*
X0140346Y0085000D03*
X0140346Y0088150D03*
X0119154Y0106850D03*
X0119154Y0110000D03*
X0119154Y0113150D03*
X0113346Y0113150D03*
X0113346Y0110000D03*
X0113346Y0106850D03*
X0106654Y0106850D03*
X0106654Y0110000D03*
X0106654Y0113150D03*
X0100846Y0113150D03*
X0100846Y0110000D03*
X0100846Y0106850D03*
X0100846Y0100650D03*
X0100846Y0097500D03*
X0100846Y0094350D03*
X0106654Y0094350D03*
X0106654Y0097500D03*
X0106654Y0100650D03*
X0094154Y0100650D03*
X0094154Y0097500D03*
X0094154Y0094350D03*
X0088346Y0094350D03*
X0088346Y0097500D03*
X0088346Y0100650D03*
X0088346Y0106850D03*
X0088346Y0110000D03*
X0088346Y0113150D03*
X0094154Y0113150D03*
X0094154Y0110000D03*
X0094154Y0106850D03*
X0081654Y0106850D03*
X0081654Y0110000D03*
X0081654Y0113150D03*
X0075846Y0113150D03*
X0075846Y0110000D03*
X0075846Y0106850D03*
X0075846Y0100650D03*
X0075846Y0097500D03*
X0075846Y0094350D03*
X0081654Y0094350D03*
X0081654Y0097500D03*
X0081654Y0100650D03*
X0069154Y0100650D03*
X0069154Y0097500D03*
X0069154Y0094350D03*
X0063346Y0094350D03*
X0063346Y0097500D03*
X0063346Y0100650D03*
X0063346Y0106850D03*
X0063346Y0110000D03*
X0063346Y0113150D03*
X0069154Y0113150D03*
X0069154Y0110000D03*
X0069154Y0106850D03*
X0056654Y0106850D03*
X0056654Y0110000D03*
X0056654Y0113150D03*
X0050846Y0113150D03*
X0050846Y0110000D03*
X0050846Y0106850D03*
X0038346Y0106850D03*
X0038346Y0110000D03*
X0038346Y0113150D03*
X0038346Y0119350D03*
X0038346Y0122500D03*
X0038346Y0125650D03*
X0031654Y0125650D03*
X0031654Y0122500D03*
X0031654Y0119350D03*
X0031654Y0113150D03*
X0031654Y0110000D03*
X0031654Y0106850D03*
X0031654Y0100650D03*
X0031654Y0097500D03*
X0031654Y0094350D03*
X0038346Y0094350D03*
X0038346Y0097500D03*
X0038346Y0100650D03*
X0063346Y0088150D03*
X0063346Y0085000D03*
X0063346Y0081850D03*
X0069154Y0081850D03*
X0069154Y0085000D03*
X0069154Y0088150D03*
X0075846Y0088150D03*
X0075846Y0085000D03*
X0075846Y0081850D03*
X0081654Y0081850D03*
X0081654Y0085000D03*
X0081654Y0088150D03*
X0088346Y0088150D03*
X0088346Y0085000D03*
X0088346Y0081850D03*
X0094154Y0081850D03*
X0094154Y0085000D03*
X0094154Y0088150D03*
X0100846Y0088150D03*
X0100846Y0085000D03*
X0100846Y0081850D03*
X0106654Y0081850D03*
X0106654Y0085000D03*
X0106654Y0088150D03*
X0106654Y0075650D03*
X0106654Y0072500D03*
X0106654Y0069350D03*
X0100846Y0069350D03*
X0100846Y0072500D03*
X0100846Y0075650D03*
X0094154Y0075650D03*
X0094154Y0072500D03*
X0094154Y0069350D03*
X0088346Y0069350D03*
X0088346Y0072500D03*
X0088346Y0075650D03*
X0081654Y0075650D03*
X0081654Y0072500D03*
X0081654Y0069350D03*
X0075846Y0069350D03*
X0075846Y0072500D03*
X0075846Y0075650D03*
X0069154Y0075650D03*
X0069154Y0072500D03*
X0069154Y0069350D03*
X0063346Y0069350D03*
X0063346Y0072500D03*
X0063346Y0075650D03*
X0063346Y0063150D03*
X0063346Y0060000D03*
X0063346Y0056850D03*
X0069154Y0056850D03*
X0069154Y0060000D03*
X0069154Y0063150D03*
X0075846Y0063150D03*
X0075846Y0060000D03*
X0075846Y0056850D03*
X0081654Y0056850D03*
X0081654Y0060000D03*
X0081654Y0063150D03*
X0088346Y0063150D03*
X0088346Y0060000D03*
X0088346Y0056850D03*
X0094154Y0056850D03*
X0094154Y0060000D03*
X0094154Y0063150D03*
X0100846Y0063150D03*
X0100846Y0060000D03*
X0100846Y0056850D03*
X0106654Y0056850D03*
X0106654Y0060000D03*
X0106654Y0063150D03*
X0106654Y0050650D03*
X0106654Y0047500D03*
X0106654Y0044350D03*
X0100846Y0044350D03*
X0100846Y0047500D03*
X0100846Y0050650D03*
X0094154Y0050650D03*
X0094154Y0047500D03*
X0094154Y0044350D03*
X0088346Y0044350D03*
X0088346Y0047500D03*
X0088346Y0050650D03*
X0081654Y0050650D03*
X0081654Y0047500D03*
X0081654Y0044350D03*
X0075846Y0044350D03*
X0075846Y0047500D03*
X0075846Y0050650D03*
X0069154Y0050650D03*
X0069154Y0047500D03*
X0069154Y0044350D03*
X0063346Y0044350D03*
X0063346Y0047500D03*
X0063346Y0050650D03*
X0063346Y0038150D03*
X0063346Y0035000D03*
X0063346Y0031850D03*
X0069154Y0031850D03*
X0069154Y0035000D03*
X0069154Y0038150D03*
X0075846Y0038150D03*
X0075846Y0035000D03*
X0075846Y0031850D03*
X0081654Y0031850D03*
X0081654Y0035000D03*
X0081654Y0038150D03*
X0088346Y0038150D03*
X0088346Y0035000D03*
X0088346Y0031850D03*
X0094154Y0031850D03*
X0094154Y0035000D03*
X0094154Y0038150D03*
X0100846Y0038150D03*
X0100846Y0035000D03*
X0100846Y0031850D03*
X0106654Y0031850D03*
X0106654Y0035000D03*
X0106654Y0038150D03*
X0106654Y0133850D03*
X0106654Y0137000D03*
X0106654Y0140150D03*
X0100846Y0140150D03*
X0100846Y0137000D03*
X0100846Y0133850D03*
X0094154Y0133850D03*
X0094154Y0137000D03*
X0094154Y0140150D03*
X0088346Y0140150D03*
X0088346Y0137000D03*
X0088346Y0133850D03*
X0081654Y0133850D03*
X0081654Y0137000D03*
X0081654Y0140150D03*
X0075846Y0140150D03*
X0075846Y0137000D03*
X0075846Y0133850D03*
X0069154Y0133850D03*
X0069154Y0137000D03*
X0069154Y0140150D03*
X0063346Y0140150D03*
X0063346Y0137000D03*
X0063346Y0133850D03*
X0056654Y0133850D03*
X0056654Y0137000D03*
X0056654Y0140150D03*
X0050846Y0140150D03*
X0050846Y0137000D03*
X0050846Y0133850D03*
X0044154Y0133850D03*
X0044154Y0137000D03*
X0044154Y0140150D03*
X0038346Y0140150D03*
X0038346Y0137000D03*
X0038346Y0133850D03*
X0031654Y0133850D03*
X0031654Y0137000D03*
X0031654Y0140150D03*
X0031654Y0146350D03*
X0031654Y0149500D03*
X0031654Y0152650D03*
X0031654Y0158850D03*
X0031654Y0162000D03*
X0031654Y0165150D03*
X0031654Y0171350D03*
X0031654Y0174500D03*
X0031654Y0177650D03*
X0031654Y0183850D03*
X0031654Y0187000D03*
X0031654Y0190150D03*
X0031654Y0196350D03*
X0031654Y0199500D03*
X0031654Y0202650D03*
X0038346Y0202650D03*
X0038346Y0199500D03*
X0038346Y0196350D03*
X0038346Y0190150D03*
X0038346Y0187000D03*
X0038346Y0183850D03*
X0038346Y0177650D03*
X0038346Y0174500D03*
X0038346Y0171350D03*
X0038346Y0165150D03*
X0038346Y0162000D03*
X0038346Y0158850D03*
X0038346Y0152650D03*
X0038346Y0149500D03*
X0038346Y0146350D03*
X0044154Y0146350D03*
X0044154Y0149500D03*
X0044154Y0152650D03*
X0044154Y0158850D03*
X0044154Y0162000D03*
X0044154Y0165150D03*
X0044154Y0171350D03*
X0044154Y0174500D03*
X0044154Y0177650D03*
X0044154Y0183850D03*
X0044154Y0187000D03*
X0044154Y0190150D03*
X0044154Y0196350D03*
X0044154Y0199500D03*
X0044154Y0202650D03*
X0050846Y0202650D03*
X0050846Y0199500D03*
X0050846Y0196350D03*
X0056654Y0196350D03*
X0056654Y0199500D03*
X0056654Y0202650D03*
X0056654Y0208850D03*
X0056654Y0212000D03*
X0056654Y0215150D03*
X0050846Y0215150D03*
X0050846Y0212000D03*
X0050846Y0208850D03*
X0044154Y0208850D03*
X0044154Y0212000D03*
X0044154Y0215150D03*
X0038346Y0215150D03*
X0038346Y0212000D03*
X0038346Y0208850D03*
X0031654Y0208850D03*
X0031654Y0212000D03*
X0031654Y0215150D03*
X0031654Y0221350D03*
X0031654Y0224500D03*
X0031654Y0227650D03*
X0038346Y0227650D03*
X0038346Y0224500D03*
X0038346Y0221350D03*
X0044154Y0221350D03*
X0044154Y0224500D03*
X0044154Y0227650D03*
X0050846Y0227650D03*
X0050846Y0224500D03*
X0050846Y0221350D03*
X0056654Y0221350D03*
X0056654Y0224500D03*
X0056654Y0227650D03*
X0063346Y0227650D03*
X0063346Y0224500D03*
X0063346Y0221350D03*
X0069154Y0221350D03*
X0069154Y0224500D03*
X0069154Y0227650D03*
X0075846Y0227650D03*
X0075846Y0224500D03*
X0075846Y0221350D03*
X0081654Y0221350D03*
X0081654Y0224500D03*
X0081654Y0227650D03*
X0088346Y0227650D03*
X0088346Y0224500D03*
X0088346Y0221350D03*
X0094154Y0221350D03*
X0094154Y0224500D03*
X0094154Y0227650D03*
X0100846Y0227650D03*
X0100846Y0224500D03*
X0100846Y0221350D03*
X0106654Y0221350D03*
X0106654Y0224500D03*
X0106654Y0227650D03*
X0113346Y0227650D03*
X0113346Y0224500D03*
X0113346Y0221350D03*
X0119154Y0221350D03*
X0119154Y0224500D03*
X0119154Y0227650D03*
X0125846Y0227650D03*
X0125846Y0224500D03*
X0125846Y0221350D03*
X0125846Y0215150D03*
X0125846Y0212000D03*
X0125846Y0208850D03*
X0119154Y0208850D03*
X0119154Y0212000D03*
X0119154Y0215150D03*
X0113346Y0215150D03*
X0113346Y0212000D03*
X0113346Y0208850D03*
X0113346Y0202650D03*
X0113346Y0199500D03*
X0113346Y0196350D03*
X0119154Y0196350D03*
X0119154Y0199500D03*
X0119154Y0202650D03*
X0125846Y0202650D03*
X0125846Y0199500D03*
X0125846Y0196350D03*
X0125846Y0190150D03*
X0125846Y0187000D03*
X0125846Y0183850D03*
X0125846Y0177650D03*
X0125846Y0174500D03*
X0125846Y0171350D03*
X0125846Y0165150D03*
X0125846Y0162000D03*
X0125846Y0158850D03*
X0125846Y0152650D03*
X0125846Y0149500D03*
X0125846Y0146350D03*
X0119154Y0146350D03*
X0119154Y0149500D03*
X0119154Y0152650D03*
X0113346Y0152650D03*
X0113346Y0149500D03*
X0113346Y0146350D03*
X0113346Y0140150D03*
X0113346Y0137000D03*
X0113346Y0133850D03*
X0119154Y0133850D03*
X0119154Y0137000D03*
X0119154Y0140150D03*
X0125846Y0140150D03*
X0125846Y0137000D03*
X0125846Y0133850D03*
X0133654Y0133850D03*
X0133654Y0137000D03*
X0133654Y0140150D03*
X0133654Y0146350D03*
X0133654Y0149500D03*
X0133654Y0152650D03*
X0133654Y0158850D03*
X0133654Y0162000D03*
X0133654Y0165150D03*
X0133654Y0171350D03*
X0133654Y0174500D03*
X0133654Y0177650D03*
X0133654Y0183850D03*
X0133654Y0187000D03*
X0133654Y0190150D03*
X0133654Y0196350D03*
X0133654Y0199500D03*
X0133654Y0202650D03*
X0133654Y0208850D03*
X0133654Y0212000D03*
X0133654Y0215150D03*
X0133654Y0221350D03*
X0133654Y0224500D03*
X0133654Y0227650D03*
X0140346Y0227650D03*
X0140346Y0224500D03*
X0140346Y0221350D03*
X0146154Y0221350D03*
X0146154Y0224500D03*
X0146154Y0227650D03*
X0152846Y0227650D03*
X0152846Y0224500D03*
X0152846Y0221350D03*
X0158654Y0221350D03*
X0158654Y0224500D03*
X0158654Y0227650D03*
X0165346Y0227650D03*
X0165346Y0224500D03*
X0165346Y0221350D03*
X0171154Y0221350D03*
X0171154Y0224500D03*
X0171154Y0227650D03*
X0177846Y0227650D03*
X0177846Y0224500D03*
X0177846Y0221350D03*
X0183654Y0221350D03*
X0183654Y0224500D03*
X0183654Y0227650D03*
X0190346Y0227650D03*
X0190346Y0224500D03*
X0190346Y0221350D03*
X0196154Y0221350D03*
X0196154Y0224500D03*
X0196154Y0227650D03*
X0202846Y0227650D03*
X0202846Y0224500D03*
X0202846Y0221350D03*
X0208654Y0221350D03*
X0208654Y0224500D03*
X0208654Y0227650D03*
X0215346Y0227650D03*
X0215346Y0224500D03*
X0215346Y0221350D03*
X0221154Y0221350D03*
X0221154Y0224500D03*
X0221154Y0227650D03*
X0227846Y0227650D03*
X0227846Y0224500D03*
X0227846Y0221350D03*
X0227846Y0215150D03*
X0227846Y0212000D03*
X0227846Y0208850D03*
X0227846Y0202650D03*
X0227846Y0199500D03*
X0227846Y0196350D03*
X0227846Y0190150D03*
X0227846Y0187000D03*
X0227846Y0183850D03*
X0227846Y0177650D03*
X0227846Y0174500D03*
X0227846Y0171350D03*
X0227846Y0165150D03*
X0227846Y0162000D03*
X0227846Y0158850D03*
X0227846Y0152650D03*
X0227846Y0149500D03*
X0227846Y0146350D03*
X0227846Y0140150D03*
X0227846Y0137000D03*
X0227846Y0133850D03*
X0221154Y0133850D03*
X0221154Y0137000D03*
X0221154Y0140150D03*
X0215346Y0140150D03*
X0215346Y0137000D03*
X0215346Y0133850D03*
X0208654Y0133850D03*
X0208654Y0137000D03*
X0208654Y0140150D03*
X0202846Y0140150D03*
X0202846Y0137000D03*
X0202846Y0133850D03*
X0196154Y0133850D03*
X0196154Y0137000D03*
X0196154Y0140150D03*
X0190346Y0140150D03*
X0190346Y0137000D03*
X0190346Y0133850D03*
X0183654Y0133850D03*
X0183654Y0137000D03*
X0183654Y0140150D03*
X0177846Y0140150D03*
X0177846Y0137000D03*
X0177846Y0133850D03*
X0171154Y0133850D03*
X0171154Y0137000D03*
X0171154Y0140150D03*
X0165346Y0140150D03*
X0165346Y0137000D03*
X0165346Y0133850D03*
X0158654Y0133850D03*
X0158654Y0137000D03*
X0158654Y0140150D03*
X0152846Y0140150D03*
X0152846Y0137000D03*
X0152846Y0133850D03*
X0146154Y0133850D03*
X0146154Y0137000D03*
X0146154Y0140150D03*
X0140346Y0140150D03*
X0140346Y0137000D03*
X0140346Y0133850D03*
X0140346Y0146350D03*
X0140346Y0149500D03*
X0140346Y0152650D03*
X0146154Y0152650D03*
X0146154Y0149500D03*
X0146154Y0146350D03*
X0152846Y0146350D03*
X0152846Y0149500D03*
X0152846Y0152650D03*
X0158654Y0152650D03*
X0158654Y0149500D03*
X0158654Y0146350D03*
X0165346Y0146350D03*
X0165346Y0149500D03*
X0165346Y0152650D03*
X0165346Y0158850D03*
X0165346Y0162000D03*
X0165346Y0165150D03*
X0165346Y0171350D03*
X0165346Y0174500D03*
X0165346Y0177650D03*
X0165346Y0183850D03*
X0165346Y0187000D03*
X0165346Y0190150D03*
X0165346Y0196350D03*
X0165346Y0199500D03*
X0165346Y0202650D03*
X0158654Y0202650D03*
X0158654Y0199500D03*
X0158654Y0196350D03*
X0152846Y0196350D03*
X0152846Y0199500D03*
X0152846Y0202650D03*
X0152846Y0208850D03*
X0152846Y0212000D03*
X0152846Y0215150D03*
X0158654Y0215150D03*
X0158654Y0212000D03*
X0158654Y0208850D03*
X0165346Y0208850D03*
X0165346Y0212000D03*
X0165346Y0215150D03*
X0171154Y0215150D03*
X0171154Y0212000D03*
X0171154Y0208850D03*
X0177846Y0208850D03*
X0177846Y0212000D03*
X0177846Y0215150D03*
X0183654Y0215150D03*
X0183654Y0212000D03*
X0183654Y0208850D03*
X0190346Y0208850D03*
X0190346Y0212000D03*
X0190346Y0215150D03*
X0196154Y0215150D03*
X0196154Y0212000D03*
X0196154Y0208850D03*
X0202846Y0208850D03*
X0202846Y0212000D03*
X0202846Y0215150D03*
X0208654Y0215150D03*
X0208654Y0212000D03*
X0208654Y0208850D03*
X0208654Y0202650D03*
X0208654Y0199500D03*
X0208654Y0196350D03*
X0202846Y0196350D03*
X0202846Y0199500D03*
X0202846Y0202650D03*
X0196154Y0202650D03*
X0196154Y0199500D03*
X0196154Y0196350D03*
X0196154Y0190150D03*
X0196154Y0187000D03*
X0196154Y0183850D03*
X0196154Y0177650D03*
X0196154Y0174500D03*
X0196154Y0171350D03*
X0196154Y0165150D03*
X0196154Y0162000D03*
X0196154Y0158850D03*
X0196154Y0152650D03*
X0196154Y0149500D03*
X0196154Y0146350D03*
X0202846Y0146350D03*
X0202846Y0149500D03*
X0202846Y0152650D03*
X0208654Y0152650D03*
X0208654Y0149500D03*
X0208654Y0146350D03*
X0215346Y0146350D03*
X0215346Y0149500D03*
X0215346Y0152650D03*
X0221154Y0152650D03*
X0221154Y0149500D03*
X0221154Y0146350D03*
X0221154Y0158850D03*
X0221154Y0162000D03*
X0221154Y0165150D03*
X0215346Y0165150D03*
X0215346Y0162000D03*
X0215346Y0158850D03*
X0208654Y0158850D03*
X0208654Y0162000D03*
X0208654Y0165150D03*
X0202846Y0165150D03*
X0202846Y0162000D03*
X0202846Y0158850D03*
X0190346Y0158850D03*
X0190346Y0162000D03*
X0190346Y0165150D03*
X0190346Y0171350D03*
X0190346Y0174500D03*
X0190346Y0177650D03*
X0190346Y0183850D03*
X0190346Y0187000D03*
X0190346Y0190150D03*
X0190346Y0196350D03*
X0190346Y0199500D03*
X0190346Y0202650D03*
X0183654Y0202650D03*
X0183654Y0199500D03*
X0183654Y0196350D03*
X0183654Y0190150D03*
X0183654Y0187000D03*
X0183654Y0183850D03*
X0183654Y0177650D03*
X0183654Y0174500D03*
X0183654Y0171350D03*
X0183654Y0165150D03*
X0183654Y0162000D03*
X0183654Y0158850D03*
X0183654Y0152650D03*
X0183654Y0149500D03*
X0183654Y0146350D03*
X0190346Y0146350D03*
X0190346Y0149500D03*
X0190346Y0152650D03*
X0177846Y0152650D03*
X0177846Y0149500D03*
X0177846Y0146350D03*
X0171154Y0146350D03*
X0171154Y0149500D03*
X0171154Y0152650D03*
X0171154Y0158850D03*
X0171154Y0162000D03*
X0171154Y0165150D03*
X0171154Y0171350D03*
X0171154Y0174500D03*
X0171154Y0177650D03*
X0171154Y0183850D03*
X0171154Y0187000D03*
X0171154Y0190150D03*
X0171154Y0196350D03*
X0171154Y0199500D03*
X0171154Y0202650D03*
X0177846Y0202650D03*
X0177846Y0199500D03*
X0177846Y0196350D03*
X0177846Y0190150D03*
X0177846Y0187000D03*
X0177846Y0183850D03*
X0177846Y0177650D03*
X0177846Y0174500D03*
X0177846Y0171350D03*
X0177846Y0165150D03*
X0177846Y0162000D03*
X0177846Y0158850D03*
X0158654Y0158850D03*
X0158654Y0162000D03*
X0158654Y0165150D03*
X0152846Y0165150D03*
X0152846Y0162000D03*
X0152846Y0158850D03*
X0146154Y0158850D03*
X0146154Y0162000D03*
X0146154Y0165150D03*
X0140346Y0165150D03*
X0140346Y0162000D03*
X0140346Y0158850D03*
X0140346Y0171350D03*
X0140346Y0174500D03*
X0140346Y0177650D03*
X0146154Y0177650D03*
X0146154Y0174500D03*
X0146154Y0171350D03*
X0152846Y0171350D03*
X0152846Y0174500D03*
X0152846Y0177650D03*
X0158654Y0177650D03*
X0158654Y0174500D03*
X0158654Y0171350D03*
X0158654Y0183850D03*
X0158654Y0187000D03*
X0158654Y0190150D03*
X0152846Y0190150D03*
X0152846Y0187000D03*
X0152846Y0183850D03*
X0146154Y0183850D03*
X0146154Y0187000D03*
X0146154Y0190150D03*
X0140346Y0190150D03*
X0140346Y0187000D03*
X0140346Y0183850D03*
X0140346Y0196350D03*
X0140346Y0199500D03*
X0140346Y0202650D03*
X0146154Y0202650D03*
X0146154Y0199500D03*
X0146154Y0196350D03*
X0146154Y0208850D03*
X0146154Y0212000D03*
X0146154Y0215150D03*
X0140346Y0215150D03*
X0140346Y0212000D03*
X0140346Y0208850D03*
X0119154Y0190150D03*
X0119154Y0187000D03*
X0119154Y0183850D03*
X0113346Y0183850D03*
X0113346Y0187000D03*
X0113346Y0190150D03*
X0106654Y0190150D03*
X0106654Y0187000D03*
X0106654Y0183850D03*
X0100846Y0183850D03*
X0100846Y0187000D03*
X0100846Y0190150D03*
X0100846Y0196350D03*
X0100846Y0199500D03*
X0100846Y0202650D03*
X0106654Y0202650D03*
X0106654Y0199500D03*
X0106654Y0196350D03*
X0094154Y0196350D03*
X0094154Y0199500D03*
X0094154Y0202650D03*
X0088346Y0202650D03*
X0088346Y0199500D03*
X0088346Y0196350D03*
X0088346Y0190150D03*
X0088346Y0187000D03*
X0088346Y0183850D03*
X0094154Y0183850D03*
X0094154Y0187000D03*
X0094154Y0190150D03*
X0094154Y0177650D03*
X0094154Y0174500D03*
X0094154Y0171350D03*
X0088346Y0171350D03*
X0088346Y0174500D03*
X0088346Y0177650D03*
X0081654Y0177650D03*
X0081654Y0174500D03*
X0081654Y0171350D03*
X0075846Y0171350D03*
X0075846Y0174500D03*
X0075846Y0177650D03*
X0075846Y0183850D03*
X0075846Y0187000D03*
X0075846Y0190150D03*
X0081654Y0190150D03*
X0081654Y0187000D03*
X0081654Y0183850D03*
X0081654Y0196350D03*
X0081654Y0199500D03*
X0081654Y0202650D03*
X0075846Y0202650D03*
X0075846Y0199500D03*
X0075846Y0196350D03*
X0069154Y0196350D03*
X0069154Y0199500D03*
X0069154Y0202650D03*
X0063346Y0202650D03*
X0063346Y0199500D03*
X0063346Y0196350D03*
X0063346Y0190150D03*
X0063346Y0187000D03*
X0063346Y0183850D03*
X0069154Y0183850D03*
X0069154Y0187000D03*
X0069154Y0190150D03*
X0069154Y0177650D03*
X0069154Y0174500D03*
X0069154Y0171350D03*
X0063346Y0171350D03*
X0063346Y0174500D03*
X0063346Y0177650D03*
X0056654Y0177650D03*
X0056654Y0174500D03*
X0056654Y0171350D03*
X0050846Y0171350D03*
X0050846Y0174500D03*
X0050846Y0177650D03*
X0050846Y0183850D03*
X0050846Y0187000D03*
X0050846Y0190150D03*
X0056654Y0190150D03*
X0056654Y0187000D03*
X0056654Y0183850D03*
X0056654Y0165150D03*
X0056654Y0162000D03*
X0056654Y0158850D03*
X0050846Y0158850D03*
X0050846Y0162000D03*
X0050846Y0165150D03*
X0050846Y0152650D03*
X0050846Y0149500D03*
X0050846Y0146350D03*
X0056654Y0146350D03*
X0056654Y0149500D03*
X0056654Y0152650D03*
X0063346Y0152650D03*
X0063346Y0149500D03*
X0063346Y0146350D03*
X0069154Y0146350D03*
X0069154Y0149500D03*
X0069154Y0152650D03*
X0069154Y0158850D03*
X0069154Y0162000D03*
X0069154Y0165150D03*
X0063346Y0165150D03*
X0063346Y0162000D03*
X0063346Y0158850D03*
X0075846Y0158850D03*
X0075846Y0162000D03*
X0075846Y0165150D03*
X0081654Y0165150D03*
X0081654Y0162000D03*
X0081654Y0158850D03*
X0081654Y0152650D03*
X0081654Y0149500D03*
X0081654Y0146350D03*
X0075846Y0146350D03*
X0075846Y0149500D03*
X0075846Y0152650D03*
X0088346Y0152650D03*
X0088346Y0149500D03*
X0088346Y0146350D03*
X0094154Y0146350D03*
X0094154Y0149500D03*
X0094154Y0152650D03*
X0094154Y0158850D03*
X0094154Y0162000D03*
X0094154Y0165150D03*
X0088346Y0165150D03*
X0088346Y0162000D03*
X0088346Y0158850D03*
X0100846Y0158850D03*
X0100846Y0162000D03*
X0100846Y0165150D03*
X0106654Y0165150D03*
X0106654Y0162000D03*
X0106654Y0158850D03*
X0106654Y0152650D03*
X0106654Y0149500D03*
X0106654Y0146350D03*
X0100846Y0146350D03*
X0100846Y0149500D03*
X0100846Y0152650D03*
X0113346Y0158850D03*
X0113346Y0162000D03*
X0113346Y0165150D03*
X0119154Y0165150D03*
X0119154Y0162000D03*
X0119154Y0158850D03*
X0119154Y0171350D03*
X0119154Y0174500D03*
X0119154Y0177650D03*
X0113346Y0177650D03*
X0113346Y0174500D03*
X0113346Y0171350D03*
X0106654Y0171350D03*
X0106654Y0174500D03*
X0106654Y0177650D03*
X0100846Y0177650D03*
X0100846Y0174500D03*
X0100846Y0171350D03*
X0100846Y0208850D03*
X0100846Y0212000D03*
X0100846Y0215150D03*
X0106654Y0215150D03*
X0106654Y0212000D03*
X0106654Y0208850D03*
X0094154Y0208850D03*
X0094154Y0212000D03*
X0094154Y0215150D03*
X0088346Y0215150D03*
X0088346Y0212000D03*
X0088346Y0208850D03*
X0081654Y0208850D03*
X0081654Y0212000D03*
X0081654Y0215150D03*
X0075846Y0215150D03*
X0075846Y0212000D03*
X0075846Y0208850D03*
X0069154Y0208850D03*
X0069154Y0212000D03*
X0069154Y0215150D03*
X0063346Y0215150D03*
X0063346Y0212000D03*
X0063346Y0208850D03*
X0063346Y0235850D03*
X0063346Y0239000D03*
X0063346Y0242150D03*
X0069154Y0242150D03*
X0069154Y0239000D03*
X0069154Y0235850D03*
X0075846Y0235850D03*
X0075846Y0239000D03*
X0075846Y0242150D03*
X0081654Y0242150D03*
X0081654Y0239000D03*
X0081654Y0235850D03*
X0088346Y0235850D03*
X0088346Y0239000D03*
X0088346Y0242150D03*
X0094154Y0242150D03*
X0094154Y0239000D03*
X0094154Y0235850D03*
X0100846Y0235850D03*
X0100846Y0239000D03*
X0100846Y0242150D03*
X0106654Y0242150D03*
X0106654Y0239000D03*
X0106654Y0235850D03*
X0113346Y0235850D03*
X0113346Y0239000D03*
X0113346Y0242150D03*
X0119154Y0242150D03*
X0119154Y0239000D03*
X0119154Y0235850D03*
X0125846Y0235850D03*
X0125846Y0239000D03*
X0125846Y0242150D03*
X0125846Y0248350D03*
X0125846Y0251500D03*
X0125846Y0254650D03*
X0125846Y0260850D03*
X0125846Y0264000D03*
X0125846Y0267150D03*
X0119154Y0267150D03*
X0119154Y0264000D03*
X0119154Y0260850D03*
X0113346Y0260850D03*
X0113346Y0264000D03*
X0113346Y0267150D03*
X0113346Y0273350D03*
X0113346Y0276500D03*
X0113346Y0279650D03*
X0119154Y0279650D03*
X0119154Y0276500D03*
X0119154Y0273350D03*
X0125846Y0273350D03*
X0125846Y0276500D03*
X0125846Y0279650D03*
X0125846Y0285850D03*
X0125846Y0289000D03*
X0125846Y0292150D03*
X0119154Y0292150D03*
X0119154Y0289000D03*
X0119154Y0285850D03*
X0113346Y0285850D03*
X0113346Y0289000D03*
X0113346Y0292150D03*
X0113346Y0298350D03*
X0113346Y0301500D03*
X0113346Y0304650D03*
X0119154Y0304650D03*
X0119154Y0301500D03*
X0119154Y0298350D03*
X0125846Y0298350D03*
X0125846Y0301500D03*
X0125846Y0304650D03*
X0125846Y0310850D03*
X0125846Y0314000D03*
X0125846Y0317150D03*
X0125846Y0323350D03*
X0125846Y0326500D03*
X0125846Y0329650D03*
X0119154Y0329650D03*
X0119154Y0326500D03*
X0119154Y0323350D03*
X0113346Y0323350D03*
X0113346Y0326500D03*
X0113346Y0329650D03*
X0106654Y0329650D03*
X0106654Y0326500D03*
X0106654Y0323350D03*
X0100846Y0323350D03*
X0100846Y0326500D03*
X0100846Y0329650D03*
X0094154Y0329650D03*
X0094154Y0326500D03*
X0094154Y0323350D03*
X0088346Y0323350D03*
X0088346Y0326500D03*
X0088346Y0329650D03*
X0081654Y0329650D03*
X0081654Y0326500D03*
X0081654Y0323350D03*
X0075846Y0323350D03*
X0075846Y0326500D03*
X0075846Y0329650D03*
X0069154Y0329650D03*
X0069154Y0326500D03*
X0069154Y0323350D03*
X0063346Y0323350D03*
X0063346Y0326500D03*
X0063346Y0329650D03*
X0056654Y0329650D03*
X0056654Y0326500D03*
X0056654Y0323350D03*
X0050846Y0323350D03*
X0050846Y0326500D03*
X0050846Y0329650D03*
X0044154Y0329650D03*
X0044154Y0326500D03*
X0044154Y0323350D03*
X0044154Y0317150D03*
X0044154Y0314000D03*
X0044154Y0310850D03*
X0050846Y0310850D03*
X0050846Y0314000D03*
X0050846Y0317150D03*
X0056654Y0317150D03*
X0056654Y0314000D03*
X0056654Y0310850D03*
X0056654Y0304650D03*
X0056654Y0301500D03*
X0056654Y0298350D03*
X0050846Y0298350D03*
X0050846Y0301500D03*
X0050846Y0304650D03*
X0044154Y0304650D03*
X0044154Y0301500D03*
X0044154Y0298350D03*
X0038346Y0298350D03*
X0038346Y0301500D03*
X0038346Y0304650D03*
X0031654Y0304650D03*
X0031654Y0301500D03*
X0031654Y0298350D03*
X0031654Y0292150D03*
X0031654Y0289000D03*
X0031654Y0285850D03*
X0038346Y0285850D03*
X0038346Y0289000D03*
X0038346Y0292150D03*
X0044154Y0292150D03*
X0044154Y0289000D03*
X0044154Y0285850D03*
X0050846Y0285850D03*
X0050846Y0289000D03*
X0050846Y0292150D03*
X0056654Y0292150D03*
X0056654Y0289000D03*
X0056654Y0285850D03*
X0056654Y0279650D03*
X0056654Y0276500D03*
X0056654Y0273350D03*
X0050846Y0273350D03*
X0050846Y0276500D03*
X0050846Y0279650D03*
X0044154Y0279650D03*
X0044154Y0276500D03*
X0044154Y0273350D03*
X0038346Y0273350D03*
X0038346Y0276500D03*
X0038346Y0279650D03*
X0031654Y0279650D03*
X0031654Y0276500D03*
X0031654Y0273350D03*
X0031654Y0267150D03*
X0031654Y0264000D03*
X0031654Y0260850D03*
X0031654Y0254650D03*
X0031654Y0251500D03*
X0031654Y0248350D03*
X0031654Y0242150D03*
X0031654Y0239000D03*
X0031654Y0235850D03*
X0038346Y0235850D03*
X0038346Y0239000D03*
X0038346Y0242150D03*
X0038346Y0248350D03*
X0038346Y0251500D03*
X0038346Y0254650D03*
X0038346Y0260850D03*
X0038346Y0264000D03*
X0038346Y0267150D03*
X0044154Y0267150D03*
X0044154Y0264000D03*
X0044154Y0260850D03*
X0044154Y0254650D03*
X0044154Y0251500D03*
X0044154Y0248350D03*
X0044154Y0242150D03*
X0044154Y0239000D03*
X0044154Y0235850D03*
X0050846Y0235850D03*
X0050846Y0239000D03*
X0050846Y0242150D03*
X0056654Y0242150D03*
X0056654Y0239000D03*
X0056654Y0235850D03*
X0056654Y0248350D03*
X0056654Y0251500D03*
X0056654Y0254650D03*
X0050846Y0254650D03*
X0050846Y0251500D03*
X0050846Y0248350D03*
X0050846Y0260850D03*
X0050846Y0264000D03*
X0050846Y0267150D03*
X0056654Y0267150D03*
X0056654Y0264000D03*
X0056654Y0260850D03*
X0063346Y0260850D03*
X0063346Y0264000D03*
X0063346Y0267150D03*
X0069154Y0267150D03*
X0069154Y0264000D03*
X0069154Y0260850D03*
X0069154Y0254650D03*
X0069154Y0251500D03*
X0069154Y0248350D03*
X0063346Y0248350D03*
X0063346Y0251500D03*
X0063346Y0254650D03*
X0075846Y0254650D03*
X0075846Y0251500D03*
X0075846Y0248350D03*
X0081654Y0248350D03*
X0081654Y0251500D03*
X0081654Y0254650D03*
X0081654Y0260850D03*
X0081654Y0264000D03*
X0081654Y0267150D03*
X0075846Y0267150D03*
X0075846Y0264000D03*
X0075846Y0260850D03*
X0088346Y0260850D03*
X0088346Y0264000D03*
X0088346Y0267150D03*
X0094154Y0267150D03*
X0094154Y0264000D03*
X0094154Y0260850D03*
X0094154Y0254650D03*
X0094154Y0251500D03*
X0094154Y0248350D03*
X0088346Y0248350D03*
X0088346Y0251500D03*
X0088346Y0254650D03*
X0100846Y0254650D03*
X0100846Y0251500D03*
X0100846Y0248350D03*
X0106654Y0248350D03*
X0106654Y0251500D03*
X0106654Y0254650D03*
X0106654Y0260850D03*
X0106654Y0264000D03*
X0106654Y0267150D03*
X0100846Y0267150D03*
X0100846Y0264000D03*
X0100846Y0260850D03*
X0113346Y0254650D03*
X0113346Y0251500D03*
X0113346Y0248350D03*
X0119154Y0248350D03*
X0119154Y0251500D03*
X0119154Y0254650D03*
X0133654Y0254650D03*
X0133654Y0251500D03*
X0133654Y0248350D03*
X0133654Y0242150D03*
X0133654Y0239000D03*
X0133654Y0235850D03*
X0140346Y0235850D03*
X0140346Y0239000D03*
X0140346Y0242150D03*
X0146154Y0242150D03*
X0146154Y0239000D03*
X0146154Y0235850D03*
X0152846Y0235850D03*
X0152846Y0239000D03*
X0152846Y0242150D03*
X0158654Y0242150D03*
X0158654Y0239000D03*
X0158654Y0235850D03*
X0165346Y0235850D03*
X0165346Y0239000D03*
X0165346Y0242150D03*
X0165346Y0248350D03*
X0165346Y0251500D03*
X0165346Y0254650D03*
X0165346Y0260850D03*
X0165346Y0264000D03*
X0165346Y0267150D03*
X0158654Y0267150D03*
X0158654Y0264000D03*
X0158654Y0260850D03*
X0152846Y0260850D03*
X0152846Y0264000D03*
X0152846Y0267150D03*
X0152846Y0273350D03*
X0152846Y0276500D03*
X0152846Y0279650D03*
X0158654Y0279650D03*
X0158654Y0276500D03*
X0158654Y0273350D03*
X0165346Y0273350D03*
X0165346Y0276500D03*
X0165346Y0279650D03*
X0171154Y0279650D03*
X0171154Y0276500D03*
X0171154Y0273350D03*
X0177846Y0273350D03*
X0177846Y0276500D03*
X0177846Y0279650D03*
X0183654Y0279650D03*
X0183654Y0276500D03*
X0183654Y0273350D03*
X0190346Y0273350D03*
X0190346Y0276500D03*
X0190346Y0279650D03*
X0196154Y0279650D03*
X0196154Y0276500D03*
X0196154Y0273350D03*
X0202846Y0273350D03*
X0202846Y0276500D03*
X0202846Y0279650D03*
X0208654Y0279650D03*
X0208654Y0276500D03*
X0208654Y0273350D03*
X0208654Y0267150D03*
X0208654Y0264000D03*
X0208654Y0260850D03*
X0202846Y0260850D03*
X0202846Y0264000D03*
X0202846Y0267150D03*
X0196154Y0267150D03*
X0196154Y0264000D03*
X0196154Y0260850D03*
X0196154Y0254650D03*
X0196154Y0251500D03*
X0196154Y0248350D03*
X0196154Y0242150D03*
X0196154Y0239000D03*
X0196154Y0235850D03*
X0202846Y0235850D03*
X0202846Y0239000D03*
X0202846Y0242150D03*
X0208654Y0242150D03*
X0208654Y0239000D03*
X0208654Y0235850D03*
X0215346Y0235850D03*
X0215346Y0239000D03*
X0215346Y0242150D03*
X0221154Y0242150D03*
X0221154Y0239000D03*
X0221154Y0235850D03*
X0227846Y0235850D03*
X0227846Y0239000D03*
X0227846Y0242150D03*
X0227846Y0248350D03*
X0227846Y0251500D03*
X0227846Y0254650D03*
X0227846Y0260850D03*
X0227846Y0264000D03*
X0227846Y0267150D03*
X0227846Y0273350D03*
X0227846Y0276500D03*
X0227846Y0279650D03*
X0227846Y0285850D03*
X0227846Y0289000D03*
X0227846Y0292150D03*
X0227846Y0298350D03*
X0227846Y0301500D03*
X0227846Y0304650D03*
X0227846Y0310850D03*
X0227846Y0314000D03*
X0227846Y0317150D03*
X0227846Y0323350D03*
X0227846Y0326500D03*
X0227846Y0329650D03*
X0221154Y0329650D03*
X0221154Y0326500D03*
X0221154Y0323350D03*
X0215346Y0323350D03*
X0215346Y0326500D03*
X0215346Y0329650D03*
X0208654Y0329650D03*
X0208654Y0326500D03*
X0208654Y0323350D03*
X0202846Y0323350D03*
X0202846Y0326500D03*
X0202846Y0329650D03*
X0196154Y0329650D03*
X0196154Y0326500D03*
X0196154Y0323350D03*
X0196154Y0317150D03*
X0196154Y0314000D03*
X0196154Y0310850D03*
X0202846Y0310850D03*
X0202846Y0314000D03*
X0202846Y0317150D03*
X0208654Y0317150D03*
X0208654Y0314000D03*
X0208654Y0310850D03*
X0208654Y0304650D03*
X0208654Y0301500D03*
X0208654Y0298350D03*
X0202846Y0298350D03*
X0202846Y0301500D03*
X0202846Y0304650D03*
X0196154Y0304650D03*
X0196154Y0301500D03*
X0196154Y0298350D03*
X0190346Y0298350D03*
X0190346Y0301500D03*
X0190346Y0304650D03*
X0183654Y0304650D03*
X0183654Y0301500D03*
X0183654Y0298350D03*
X0177846Y0298350D03*
X0177846Y0301500D03*
X0177846Y0304650D03*
X0171154Y0304650D03*
X0171154Y0301500D03*
X0171154Y0298350D03*
X0165346Y0298350D03*
X0165346Y0301500D03*
X0165346Y0304650D03*
X0158654Y0304650D03*
X0158654Y0301500D03*
X0158654Y0298350D03*
X0152846Y0298350D03*
X0152846Y0301500D03*
X0152846Y0304650D03*
X0152846Y0310850D03*
X0152846Y0314000D03*
X0152846Y0317150D03*
X0158654Y0317150D03*
X0158654Y0314000D03*
X0158654Y0310850D03*
X0165346Y0310850D03*
X0165346Y0314000D03*
X0165346Y0317150D03*
X0165346Y0323350D03*
X0165346Y0326500D03*
X0165346Y0329650D03*
X0158654Y0329650D03*
X0158654Y0326500D03*
X0158654Y0323350D03*
X0152846Y0323350D03*
X0152846Y0326500D03*
X0152846Y0329650D03*
X0146154Y0329650D03*
X0146154Y0326500D03*
X0146154Y0323350D03*
X0140346Y0323350D03*
X0140346Y0326500D03*
X0140346Y0329650D03*
X0133654Y0329650D03*
X0133654Y0326500D03*
X0133654Y0323350D03*
X0133654Y0317150D03*
X0133654Y0314000D03*
X0133654Y0310850D03*
X0133654Y0304650D03*
X0133654Y0301500D03*
X0133654Y0298350D03*
X0133654Y0292150D03*
X0133654Y0289000D03*
X0133654Y0285850D03*
X0133654Y0279650D03*
X0133654Y0276500D03*
X0133654Y0273350D03*
X0133654Y0267150D03*
X0133654Y0264000D03*
X0133654Y0260850D03*
X0140346Y0260850D03*
X0140346Y0264000D03*
X0140346Y0267150D03*
X0146154Y0267150D03*
X0146154Y0264000D03*
X0146154Y0260850D03*
X0146154Y0254650D03*
X0146154Y0251500D03*
X0146154Y0248350D03*
X0140346Y0248350D03*
X0140346Y0251500D03*
X0140346Y0254650D03*
X0152846Y0254650D03*
X0152846Y0251500D03*
X0152846Y0248350D03*
X0158654Y0248350D03*
X0158654Y0251500D03*
X0158654Y0254650D03*
X0171154Y0254650D03*
X0171154Y0251500D03*
X0171154Y0248350D03*
X0171154Y0242150D03*
X0171154Y0239000D03*
X0171154Y0235850D03*
X0177846Y0235850D03*
X0177846Y0239000D03*
X0177846Y0242150D03*
X0177846Y0248350D03*
X0177846Y0251500D03*
X0177846Y0254650D03*
X0177846Y0260850D03*
X0177846Y0264000D03*
X0177846Y0267150D03*
X0171154Y0267150D03*
X0171154Y0264000D03*
X0171154Y0260850D03*
X0183654Y0260850D03*
X0183654Y0264000D03*
X0183654Y0267150D03*
X0190346Y0267150D03*
X0190346Y0264000D03*
X0190346Y0260850D03*
X0190346Y0254650D03*
X0190346Y0251500D03*
X0190346Y0248350D03*
X0190346Y0242150D03*
X0190346Y0239000D03*
X0190346Y0235850D03*
X0183654Y0235850D03*
X0183654Y0239000D03*
X0183654Y0242150D03*
X0183654Y0248350D03*
X0183654Y0251500D03*
X0183654Y0254650D03*
X0202846Y0254650D03*
X0202846Y0251500D03*
X0202846Y0248350D03*
X0208654Y0248350D03*
X0208654Y0251500D03*
X0208654Y0254650D03*
X0215346Y0254650D03*
X0215346Y0251500D03*
X0215346Y0248350D03*
X0221154Y0248350D03*
X0221154Y0251500D03*
X0221154Y0254650D03*
X0221154Y0260850D03*
X0221154Y0264000D03*
X0221154Y0267150D03*
X0215346Y0267150D03*
X0215346Y0264000D03*
X0215346Y0260850D03*
X0215346Y0273350D03*
X0215346Y0276500D03*
X0215346Y0279650D03*
X0221154Y0279650D03*
X0221154Y0276500D03*
X0221154Y0273350D03*
X0221154Y0285850D03*
X0221154Y0289000D03*
X0221154Y0292150D03*
X0215346Y0292150D03*
X0215346Y0289000D03*
X0215346Y0285850D03*
X0208654Y0285850D03*
X0208654Y0289000D03*
X0208654Y0292150D03*
X0202846Y0292150D03*
X0202846Y0289000D03*
X0202846Y0285850D03*
X0196154Y0285850D03*
X0196154Y0289000D03*
X0196154Y0292150D03*
X0190346Y0292150D03*
X0190346Y0289000D03*
X0190346Y0285850D03*
X0183654Y0285850D03*
X0183654Y0289000D03*
X0183654Y0292150D03*
X0177846Y0292150D03*
X0177846Y0289000D03*
X0177846Y0285850D03*
X0171154Y0285850D03*
X0171154Y0289000D03*
X0171154Y0292150D03*
X0165346Y0292150D03*
X0165346Y0289000D03*
X0165346Y0285850D03*
X0158654Y0285850D03*
X0158654Y0289000D03*
X0158654Y0292150D03*
X0152846Y0292150D03*
X0152846Y0289000D03*
X0152846Y0285850D03*
X0146154Y0285850D03*
X0146154Y0289000D03*
X0146154Y0292150D03*
X0140346Y0292150D03*
X0140346Y0289000D03*
X0140346Y0285850D03*
X0140346Y0279650D03*
X0140346Y0276500D03*
X0140346Y0273350D03*
X0146154Y0273350D03*
X0146154Y0276500D03*
X0146154Y0279650D03*
X0146154Y0298350D03*
X0146154Y0301500D03*
X0146154Y0304650D03*
X0140346Y0304650D03*
X0140346Y0301500D03*
X0140346Y0298350D03*
X0140346Y0310850D03*
X0140346Y0314000D03*
X0140346Y0317150D03*
X0146154Y0317150D03*
X0146154Y0314000D03*
X0146154Y0310850D03*
X0171154Y0310850D03*
X0171154Y0314000D03*
X0171154Y0317150D03*
X0171154Y0323350D03*
X0171154Y0326500D03*
X0171154Y0329650D03*
X0177846Y0329650D03*
X0177846Y0326500D03*
X0177846Y0323350D03*
X0177846Y0317150D03*
X0177846Y0314000D03*
X0177846Y0310850D03*
X0183654Y0310850D03*
X0183654Y0314000D03*
X0183654Y0317150D03*
X0183654Y0323350D03*
X0183654Y0326500D03*
X0183654Y0329650D03*
X0190346Y0329650D03*
X0190346Y0326500D03*
X0190346Y0323350D03*
X0190346Y0317150D03*
X0190346Y0314000D03*
X0190346Y0310850D03*
X0215346Y0310850D03*
X0215346Y0314000D03*
X0215346Y0317150D03*
X0221154Y0317150D03*
X0221154Y0314000D03*
X0221154Y0310850D03*
X0221154Y0304650D03*
X0221154Y0301500D03*
X0221154Y0298350D03*
X0215346Y0298350D03*
X0215346Y0301500D03*
X0215346Y0304650D03*
X0235654Y0304650D03*
X0235654Y0301500D03*
X0235654Y0298350D03*
X0242346Y0298350D03*
X0242346Y0301500D03*
X0242346Y0304650D03*
X0248154Y0304650D03*
X0248154Y0301500D03*
X0248154Y0298350D03*
X0248154Y0292150D03*
X0248154Y0289000D03*
X0248154Y0285850D03*
X0242346Y0285850D03*
X0242346Y0289000D03*
X0242346Y0292150D03*
X0235654Y0292150D03*
X0235654Y0289000D03*
X0235654Y0285850D03*
X0235654Y0279650D03*
X0235654Y0276500D03*
X0235654Y0273350D03*
X0242346Y0273350D03*
X0242346Y0276500D03*
X0242346Y0279650D03*
X0248154Y0279650D03*
X0248154Y0276500D03*
X0248154Y0273350D03*
X0248154Y0267150D03*
X0248154Y0264000D03*
X0248154Y0260850D03*
X0242346Y0260850D03*
X0242346Y0264000D03*
X0242346Y0267150D03*
X0235654Y0267150D03*
X0235654Y0264000D03*
X0235654Y0260850D03*
X0235654Y0254650D03*
X0235654Y0251500D03*
X0235654Y0248350D03*
X0235654Y0242150D03*
X0235654Y0239000D03*
X0235654Y0235850D03*
X0242346Y0235850D03*
X0242346Y0239000D03*
X0242346Y0242150D03*
X0248154Y0242150D03*
X0248154Y0239000D03*
X0248154Y0235850D03*
X0254846Y0235850D03*
X0254846Y0239000D03*
X0254846Y0242150D03*
X0260654Y0242150D03*
X0260654Y0239000D03*
X0260654Y0235850D03*
X0267346Y0235850D03*
X0267346Y0239000D03*
X0267346Y0242150D03*
X0273154Y0242150D03*
X0273154Y0239000D03*
X0273154Y0235850D03*
X0279846Y0235850D03*
X0279846Y0239000D03*
X0279846Y0242150D03*
X0285654Y0242150D03*
X0285654Y0239000D03*
X0285654Y0235850D03*
X0292346Y0235850D03*
X0292346Y0239000D03*
X0292346Y0242150D03*
X0298154Y0242150D03*
X0298154Y0239000D03*
X0298154Y0235850D03*
X0304846Y0235850D03*
X0304846Y0239000D03*
X0304846Y0242150D03*
X0304846Y0248350D03*
X0304846Y0251500D03*
X0304846Y0254650D03*
X0304846Y0260850D03*
X0304846Y0264000D03*
X0304846Y0267150D03*
X0298154Y0267150D03*
X0298154Y0264000D03*
X0298154Y0260850D03*
X0292346Y0260850D03*
X0292346Y0264000D03*
X0292346Y0267150D03*
X0292346Y0273350D03*
X0292346Y0276500D03*
X0292346Y0279650D03*
X0298154Y0279650D03*
X0298154Y0276500D03*
X0298154Y0273350D03*
X0304846Y0273350D03*
X0304846Y0276500D03*
X0304846Y0279650D03*
X0310654Y0279650D03*
X0310654Y0276500D03*
X0310654Y0273350D03*
X0317346Y0273350D03*
X0317346Y0276500D03*
X0317346Y0279650D03*
X0323154Y0279650D03*
X0323154Y0276500D03*
X0323154Y0273350D03*
X0329846Y0273350D03*
X0329846Y0276500D03*
X0329846Y0279650D03*
X0329846Y0285850D03*
X0329846Y0289000D03*
X0329846Y0292150D03*
X0323154Y0292150D03*
X0323154Y0289000D03*
X0323154Y0285850D03*
X0317346Y0285850D03*
X0317346Y0289000D03*
X0317346Y0292150D03*
X0310654Y0292150D03*
X0310654Y0289000D03*
X0310654Y0285850D03*
X0304846Y0285850D03*
X0304846Y0289000D03*
X0304846Y0292150D03*
X0298154Y0292150D03*
X0298154Y0289000D03*
X0298154Y0285850D03*
X0292346Y0285850D03*
X0292346Y0289000D03*
X0292346Y0292150D03*
X0292346Y0298350D03*
X0292346Y0301500D03*
X0292346Y0304650D03*
X0298154Y0304650D03*
X0298154Y0301500D03*
X0298154Y0298350D03*
X0304846Y0298350D03*
X0304846Y0301500D03*
X0304846Y0304650D03*
X0310654Y0304650D03*
X0310654Y0301500D03*
X0310654Y0298350D03*
X0317346Y0298350D03*
X0317346Y0301500D03*
X0317346Y0304650D03*
X0323154Y0304650D03*
X0323154Y0301500D03*
X0323154Y0298350D03*
X0329846Y0298350D03*
X0329846Y0301500D03*
X0329846Y0304650D03*
X0329846Y0310850D03*
X0329846Y0314000D03*
X0329846Y0317150D03*
X0329846Y0323350D03*
X0329846Y0326500D03*
X0329846Y0329650D03*
X0323154Y0329650D03*
X0323154Y0326500D03*
X0323154Y0323350D03*
X0323154Y0317150D03*
X0323154Y0314000D03*
X0323154Y0310850D03*
X0317346Y0310850D03*
X0317346Y0314000D03*
X0317346Y0317150D03*
X0317346Y0323350D03*
X0317346Y0326500D03*
X0317346Y0329650D03*
X0310654Y0329650D03*
X0310654Y0326500D03*
X0310654Y0323350D03*
X0310654Y0317150D03*
X0310654Y0314000D03*
X0310654Y0310850D03*
X0304846Y0310850D03*
X0304846Y0314000D03*
X0304846Y0317150D03*
X0304846Y0323350D03*
X0304846Y0326500D03*
X0304846Y0329650D03*
X0298154Y0329650D03*
X0298154Y0326500D03*
X0298154Y0323350D03*
X0292346Y0323350D03*
X0292346Y0326500D03*
X0292346Y0329650D03*
X0285654Y0329650D03*
X0285654Y0326500D03*
X0285654Y0323350D03*
X0279846Y0323350D03*
X0279846Y0326500D03*
X0279846Y0329650D03*
X0273154Y0329650D03*
X0273154Y0326500D03*
X0273154Y0323350D03*
X0267346Y0323350D03*
X0267346Y0326500D03*
X0267346Y0329650D03*
X0260654Y0329650D03*
X0260654Y0326500D03*
X0260654Y0323350D03*
X0254846Y0323350D03*
X0254846Y0326500D03*
X0254846Y0329650D03*
X0248154Y0329650D03*
X0248154Y0326500D03*
X0248154Y0323350D03*
X0242346Y0323350D03*
X0242346Y0326500D03*
X0242346Y0329650D03*
X0235654Y0329650D03*
X0235654Y0326500D03*
X0235654Y0323350D03*
X0235654Y0317150D03*
X0235654Y0314000D03*
X0235654Y0310850D03*
X0242346Y0310850D03*
X0242346Y0314000D03*
X0242346Y0317150D03*
X0248154Y0317150D03*
X0248154Y0314000D03*
X0248154Y0310850D03*
X0254846Y0310850D03*
X0254846Y0314000D03*
X0254846Y0317150D03*
X0260654Y0317150D03*
X0260654Y0314000D03*
X0260654Y0310850D03*
X0260654Y0304650D03*
X0260654Y0301500D03*
X0260654Y0298350D03*
X0254846Y0298350D03*
X0254846Y0301500D03*
X0254846Y0304650D03*
X0254846Y0292150D03*
X0254846Y0289000D03*
X0254846Y0285850D03*
X0260654Y0285850D03*
X0260654Y0289000D03*
X0260654Y0292150D03*
X0267346Y0292150D03*
X0267346Y0289000D03*
X0267346Y0285850D03*
X0273154Y0285850D03*
X0273154Y0289000D03*
X0273154Y0292150D03*
X0273154Y0298350D03*
X0273154Y0301500D03*
X0273154Y0304650D03*
X0267346Y0304650D03*
X0267346Y0301500D03*
X0267346Y0298350D03*
X0267346Y0310850D03*
X0267346Y0314000D03*
X0267346Y0317150D03*
X0273154Y0317150D03*
X0273154Y0314000D03*
X0273154Y0310850D03*
X0279846Y0310850D03*
X0279846Y0314000D03*
X0279846Y0317150D03*
X0285654Y0317150D03*
X0285654Y0314000D03*
X0285654Y0310850D03*
X0285654Y0304650D03*
X0285654Y0301500D03*
X0285654Y0298350D03*
X0279846Y0298350D03*
X0279846Y0301500D03*
X0279846Y0304650D03*
X0279846Y0292150D03*
X0279846Y0289000D03*
X0279846Y0285850D03*
X0285654Y0285850D03*
X0285654Y0289000D03*
X0285654Y0292150D03*
X0285654Y0279650D03*
X0285654Y0276500D03*
X0285654Y0273350D03*
X0279846Y0273350D03*
X0279846Y0276500D03*
X0279846Y0279650D03*
X0273154Y0279650D03*
X0273154Y0276500D03*
X0273154Y0273350D03*
X0267346Y0273350D03*
X0267346Y0276500D03*
X0267346Y0279650D03*
X0260654Y0279650D03*
X0260654Y0276500D03*
X0260654Y0273350D03*
X0254846Y0273350D03*
X0254846Y0276500D03*
X0254846Y0279650D03*
X0254846Y0267150D03*
X0254846Y0264000D03*
X0254846Y0260850D03*
X0260654Y0260850D03*
X0260654Y0264000D03*
X0260654Y0267150D03*
X0267346Y0267150D03*
X0267346Y0264000D03*
X0267346Y0260850D03*
X0273154Y0260850D03*
X0273154Y0264000D03*
X0273154Y0267150D03*
X0279846Y0267150D03*
X0279846Y0264000D03*
X0279846Y0260850D03*
X0285654Y0260850D03*
X0285654Y0264000D03*
X0285654Y0267150D03*
X0285654Y0254650D03*
X0285654Y0251500D03*
X0285654Y0248350D03*
X0279846Y0248350D03*
X0279846Y0251500D03*
X0279846Y0254650D03*
X0273154Y0254650D03*
X0273154Y0251500D03*
X0273154Y0248350D03*
X0267346Y0248350D03*
X0267346Y0251500D03*
X0267346Y0254650D03*
X0260654Y0254650D03*
X0260654Y0251500D03*
X0260654Y0248350D03*
X0254846Y0248350D03*
X0254846Y0251500D03*
X0254846Y0254650D03*
X0248154Y0254650D03*
X0248154Y0251500D03*
X0248154Y0248350D03*
X0242346Y0248350D03*
X0242346Y0251500D03*
X0242346Y0254650D03*
X0242346Y0227650D03*
X0242346Y0224500D03*
X0242346Y0221350D03*
X0248154Y0221350D03*
X0248154Y0224500D03*
X0248154Y0227650D03*
X0254846Y0227650D03*
X0254846Y0224500D03*
X0254846Y0221350D03*
X0260654Y0221350D03*
X0260654Y0224500D03*
X0260654Y0227650D03*
X0267346Y0227650D03*
X0267346Y0224500D03*
X0267346Y0221350D03*
X0273154Y0221350D03*
X0273154Y0224500D03*
X0273154Y0227650D03*
X0279846Y0227650D03*
X0279846Y0224500D03*
X0279846Y0221350D03*
X0285654Y0221350D03*
X0285654Y0224500D03*
X0285654Y0227650D03*
X0292346Y0227650D03*
X0292346Y0224500D03*
X0292346Y0221350D03*
X0298154Y0221350D03*
X0298154Y0224500D03*
X0298154Y0227650D03*
X0304846Y0227650D03*
X0304846Y0224500D03*
X0304846Y0221350D03*
X0310654Y0221350D03*
X0310654Y0224500D03*
X0310654Y0227650D03*
X0317346Y0227650D03*
X0317346Y0224500D03*
X0317346Y0221350D03*
X0323154Y0221350D03*
X0323154Y0224500D03*
X0323154Y0227650D03*
X0329846Y0227650D03*
X0329846Y0224500D03*
X0329846Y0221350D03*
X0329846Y0215150D03*
X0329846Y0212000D03*
X0329846Y0208850D03*
X0323154Y0208850D03*
X0323154Y0212000D03*
X0323154Y0215150D03*
X0317346Y0215150D03*
X0317346Y0212000D03*
X0317346Y0208850D03*
X0310654Y0208850D03*
X0310654Y0212000D03*
X0310654Y0215150D03*
X0304846Y0215150D03*
X0304846Y0212000D03*
X0304846Y0208850D03*
X0298154Y0208850D03*
X0298154Y0212000D03*
X0298154Y0215150D03*
X0292346Y0215150D03*
X0292346Y0212000D03*
X0292346Y0208850D03*
X0292346Y0202650D03*
X0292346Y0199500D03*
X0292346Y0196350D03*
X0298154Y0196350D03*
X0298154Y0199500D03*
X0298154Y0202650D03*
X0304846Y0202650D03*
X0304846Y0199500D03*
X0304846Y0196350D03*
X0304846Y0190150D03*
X0304846Y0187000D03*
X0304846Y0183850D03*
X0304846Y0177650D03*
X0304846Y0174500D03*
X0304846Y0171350D03*
X0304846Y0165150D03*
X0304846Y0162000D03*
X0304846Y0158850D03*
X0304846Y0152650D03*
X0304846Y0149500D03*
X0304846Y0146350D03*
X0298154Y0146350D03*
X0298154Y0149500D03*
X0298154Y0152650D03*
X0292346Y0152650D03*
X0292346Y0149500D03*
X0292346Y0146350D03*
X0292346Y0140150D03*
X0292346Y0137000D03*
X0292346Y0133850D03*
X0298154Y0133850D03*
X0298154Y0137000D03*
X0298154Y0140150D03*
X0304846Y0140150D03*
X0304846Y0137000D03*
X0304846Y0133850D03*
X0310654Y0133850D03*
X0310654Y0137000D03*
X0310654Y0140150D03*
X0317346Y0140150D03*
X0317346Y0137000D03*
X0317346Y0133850D03*
X0323154Y0133850D03*
X0323154Y0137000D03*
X0323154Y0140150D03*
X0329846Y0140150D03*
X0329846Y0137000D03*
X0329846Y0133850D03*
X0329846Y0125650D03*
X0329846Y0122500D03*
X0329846Y0119350D03*
X0329846Y0113150D03*
X0329846Y0110000D03*
X0329846Y0106850D03*
X0329846Y0100650D03*
X0329846Y0097500D03*
X0329846Y0094350D03*
X0323154Y0094350D03*
X0323154Y0097500D03*
X0323154Y0100650D03*
X0323154Y0106850D03*
X0323154Y0110000D03*
X0323154Y0113150D03*
X0323154Y0119350D03*
X0323154Y0122500D03*
X0323154Y0125650D03*
X0317346Y0125650D03*
X0317346Y0122500D03*
X0317346Y0119350D03*
X0317346Y0113150D03*
X0317346Y0110000D03*
X0317346Y0106850D03*
X0317346Y0100650D03*
X0317346Y0097500D03*
X0317346Y0094350D03*
X0310654Y0094350D03*
X0310654Y0097500D03*
X0310654Y0100650D03*
X0310654Y0106850D03*
X0310654Y0110000D03*
X0310654Y0113150D03*
X0310654Y0119350D03*
X0310654Y0122500D03*
X0310654Y0125650D03*
X0304846Y0125650D03*
X0304846Y0122500D03*
X0304846Y0119350D03*
X0304846Y0113150D03*
X0304846Y0110000D03*
X0304846Y0106850D03*
X0304846Y0100650D03*
X0304846Y0097500D03*
X0304846Y0094350D03*
X0298154Y0094350D03*
X0298154Y0097500D03*
X0298154Y0100650D03*
X0292346Y0100650D03*
X0292346Y0097500D03*
X0292346Y0094350D03*
X0292346Y0088150D03*
X0292346Y0085000D03*
X0292346Y0081850D03*
X0298154Y0081850D03*
X0298154Y0085000D03*
X0298154Y0088150D03*
X0304846Y0088150D03*
X0304846Y0085000D03*
X0304846Y0081850D03*
X0310654Y0081850D03*
X0310654Y0085000D03*
X0310654Y0088150D03*
X0317346Y0088150D03*
X0317346Y0085000D03*
X0317346Y0081850D03*
X0323154Y0081850D03*
X0323154Y0085000D03*
X0323154Y0088150D03*
X0329846Y0088150D03*
X0329846Y0085000D03*
X0329846Y0081850D03*
X0329846Y0075650D03*
X0329846Y0072500D03*
X0329846Y0069350D03*
X0323154Y0069350D03*
X0323154Y0072500D03*
X0323154Y0075650D03*
X0317346Y0075650D03*
X0317346Y0072500D03*
X0317346Y0069350D03*
X0310654Y0069350D03*
X0310654Y0072500D03*
X0310654Y0075650D03*
X0304846Y0075650D03*
X0304846Y0072500D03*
X0304846Y0069350D03*
X0298154Y0069350D03*
X0298154Y0072500D03*
X0298154Y0075650D03*
X0292346Y0075650D03*
X0292346Y0072500D03*
X0292346Y0069350D03*
X0292346Y0063150D03*
X0292346Y0060000D03*
X0292346Y0056850D03*
X0298154Y0056850D03*
X0298154Y0060000D03*
X0298154Y0063150D03*
X0304846Y0063150D03*
X0304846Y0060000D03*
X0304846Y0056850D03*
X0310654Y0056850D03*
X0310654Y0060000D03*
X0310654Y0063150D03*
X0317346Y0063150D03*
X0317346Y0060000D03*
X0317346Y0056850D03*
X0323154Y0056850D03*
X0323154Y0060000D03*
X0323154Y0063150D03*
X0329846Y0063150D03*
X0329846Y0060000D03*
X0329846Y0056850D03*
X0329846Y0050650D03*
X0329846Y0047500D03*
X0329846Y0044350D03*
X0323154Y0044350D03*
X0323154Y0047500D03*
X0323154Y0050650D03*
X0317346Y0050650D03*
X0317346Y0047500D03*
X0317346Y0044350D03*
X0310654Y0044350D03*
X0310654Y0047500D03*
X0310654Y0050650D03*
X0304846Y0050650D03*
X0304846Y0047500D03*
X0304846Y0044350D03*
X0298154Y0044350D03*
X0298154Y0047500D03*
X0298154Y0050650D03*
X0292346Y0050650D03*
X0292346Y0047500D03*
X0292346Y0044350D03*
X0292346Y0038150D03*
X0292346Y0035000D03*
X0292346Y0031850D03*
X0298154Y0031850D03*
X0298154Y0035000D03*
X0298154Y0038150D03*
X0304846Y0038150D03*
X0304846Y0035000D03*
X0304846Y0031850D03*
X0310654Y0031850D03*
X0310654Y0035000D03*
X0310654Y0038150D03*
X0317346Y0038150D03*
X0317346Y0035000D03*
X0317346Y0031850D03*
X0323154Y0031850D03*
X0323154Y0035000D03*
X0323154Y0038150D03*
X0329846Y0038150D03*
X0329846Y0035000D03*
X0329846Y0031850D03*
X0285654Y0031850D03*
X0285654Y0035000D03*
X0285654Y0038150D03*
X0279846Y0038150D03*
X0279846Y0035000D03*
X0279846Y0031850D03*
X0273154Y0031850D03*
X0273154Y0035000D03*
X0273154Y0038150D03*
X0267346Y0038150D03*
X0267346Y0035000D03*
X0267346Y0031850D03*
X0260654Y0031850D03*
X0260654Y0035000D03*
X0260654Y0038150D03*
X0254846Y0038150D03*
X0254846Y0035000D03*
X0254846Y0031850D03*
X0248154Y0031850D03*
X0248154Y0035000D03*
X0248154Y0038150D03*
X0242346Y0038150D03*
X0242346Y0035000D03*
X0242346Y0031850D03*
X0235654Y0031850D03*
X0235654Y0035000D03*
X0235654Y0038150D03*
X0235654Y0044350D03*
X0235654Y0047500D03*
X0235654Y0050650D03*
X0242346Y0050650D03*
X0242346Y0047500D03*
X0242346Y0044350D03*
X0248154Y0044350D03*
X0248154Y0047500D03*
X0248154Y0050650D03*
X0248154Y0056850D03*
X0248154Y0060000D03*
X0248154Y0063150D03*
X0242346Y0063150D03*
X0242346Y0060000D03*
X0242346Y0056850D03*
X0235654Y0056850D03*
X0235654Y0060000D03*
X0235654Y0063150D03*
X0235654Y0069350D03*
X0235654Y0072500D03*
X0235654Y0075650D03*
X0242346Y0075650D03*
X0242346Y0072500D03*
X0242346Y0069350D03*
X0248154Y0069350D03*
X0248154Y0072500D03*
X0248154Y0075650D03*
X0248154Y0081850D03*
X0248154Y0085000D03*
X0248154Y0088150D03*
X0242346Y0088150D03*
X0242346Y0085000D03*
X0242346Y0081850D03*
X0235654Y0081850D03*
X0235654Y0085000D03*
X0235654Y0088150D03*
X0235654Y0094350D03*
X0235654Y0097500D03*
X0235654Y0100650D03*
X0235654Y0106850D03*
X0235654Y0110000D03*
X0235654Y0113150D03*
X0235654Y0119350D03*
X0235654Y0122500D03*
X0235654Y0125650D03*
X0242346Y0125650D03*
X0242346Y0122500D03*
X0242346Y0119350D03*
X0248154Y0119350D03*
X0248154Y0122500D03*
X0248154Y0125650D03*
X0254846Y0125650D03*
X0254846Y0122500D03*
X0254846Y0119350D03*
X0260654Y0119350D03*
X0260654Y0122500D03*
X0260654Y0125650D03*
X0267346Y0125650D03*
X0267346Y0122500D03*
X0267346Y0119350D03*
X0273154Y0119350D03*
X0273154Y0122500D03*
X0273154Y0125650D03*
X0279846Y0125650D03*
X0279846Y0122500D03*
X0279846Y0119350D03*
X0285654Y0119350D03*
X0285654Y0122500D03*
X0285654Y0125650D03*
X0292346Y0125650D03*
X0292346Y0122500D03*
X0292346Y0119350D03*
X0298154Y0119350D03*
X0298154Y0122500D03*
X0298154Y0125650D03*
X0298154Y0113150D03*
X0298154Y0110000D03*
X0298154Y0106850D03*
X0292346Y0106850D03*
X0292346Y0110000D03*
X0292346Y0113150D03*
X0285654Y0113150D03*
X0285654Y0110000D03*
X0285654Y0106850D03*
X0279846Y0106850D03*
X0279846Y0110000D03*
X0279846Y0113150D03*
X0273154Y0113150D03*
X0273154Y0110000D03*
X0273154Y0106850D03*
X0267346Y0106850D03*
X0267346Y0110000D03*
X0267346Y0113150D03*
X0260654Y0113150D03*
X0260654Y0110000D03*
X0260654Y0106850D03*
X0254846Y0106850D03*
X0254846Y0110000D03*
X0254846Y0113150D03*
X0248154Y0113150D03*
X0248154Y0110000D03*
X0248154Y0106850D03*
X0242346Y0106850D03*
X0242346Y0110000D03*
X0242346Y0113150D03*
X0242346Y0100650D03*
X0242346Y0097500D03*
X0242346Y0094350D03*
X0248154Y0094350D03*
X0248154Y0097500D03*
X0248154Y0100650D03*
X0254846Y0100650D03*
X0254846Y0097500D03*
X0254846Y0094350D03*
X0260654Y0094350D03*
X0260654Y0097500D03*
X0260654Y0100650D03*
X0267346Y0100650D03*
X0267346Y0097500D03*
X0267346Y0094350D03*
X0273154Y0094350D03*
X0273154Y0097500D03*
X0273154Y0100650D03*
X0279846Y0100650D03*
X0279846Y0097500D03*
X0279846Y0094350D03*
X0285654Y0094350D03*
X0285654Y0097500D03*
X0285654Y0100650D03*
X0285654Y0088150D03*
X0285654Y0085000D03*
X0285654Y0081850D03*
X0279846Y0081850D03*
X0279846Y0085000D03*
X0279846Y0088150D03*
X0273154Y0088150D03*
X0273154Y0085000D03*
X0273154Y0081850D03*
X0267346Y0081850D03*
X0267346Y0085000D03*
X0267346Y0088150D03*
X0260654Y0088150D03*
X0260654Y0085000D03*
X0260654Y0081850D03*
X0254846Y0081850D03*
X0254846Y0085000D03*
X0254846Y0088150D03*
X0254846Y0075650D03*
X0254846Y0072500D03*
X0254846Y0069350D03*
X0260654Y0069350D03*
X0260654Y0072500D03*
X0260654Y0075650D03*
X0267346Y0075650D03*
X0267346Y0072500D03*
X0267346Y0069350D03*
X0273154Y0069350D03*
X0273154Y0072500D03*
X0273154Y0075650D03*
X0279846Y0075650D03*
X0279846Y0072500D03*
X0279846Y0069350D03*
X0285654Y0069350D03*
X0285654Y0072500D03*
X0285654Y0075650D03*
X0285654Y0063150D03*
X0285654Y0060000D03*
X0285654Y0056850D03*
X0279846Y0056850D03*
X0279846Y0060000D03*
X0279846Y0063150D03*
X0273154Y0063150D03*
X0273154Y0060000D03*
X0273154Y0056850D03*
X0267346Y0056850D03*
X0267346Y0060000D03*
X0267346Y0063150D03*
X0260654Y0063150D03*
X0260654Y0060000D03*
X0260654Y0056850D03*
X0254846Y0056850D03*
X0254846Y0060000D03*
X0254846Y0063150D03*
X0254846Y0050650D03*
X0254846Y0047500D03*
X0254846Y0044350D03*
X0260654Y0044350D03*
X0260654Y0047500D03*
X0260654Y0050650D03*
X0267346Y0050650D03*
X0267346Y0047500D03*
X0267346Y0044350D03*
X0273154Y0044350D03*
X0273154Y0047500D03*
X0273154Y0050650D03*
X0279846Y0050650D03*
X0279846Y0047500D03*
X0279846Y0044350D03*
X0285654Y0044350D03*
X0285654Y0047500D03*
X0285654Y0050650D03*
X0285654Y0133850D03*
X0285654Y0137000D03*
X0285654Y0140150D03*
X0279846Y0140150D03*
X0279846Y0137000D03*
X0279846Y0133850D03*
X0273154Y0133850D03*
X0273154Y0137000D03*
X0273154Y0140150D03*
X0267346Y0140150D03*
X0267346Y0137000D03*
X0267346Y0133850D03*
X0260654Y0133850D03*
X0260654Y0137000D03*
X0260654Y0140150D03*
X0254846Y0140150D03*
X0254846Y0137000D03*
X0254846Y0133850D03*
X0248154Y0133850D03*
X0248154Y0137000D03*
X0248154Y0140150D03*
X0242346Y0140150D03*
X0242346Y0137000D03*
X0242346Y0133850D03*
X0235654Y0133850D03*
X0235654Y0137000D03*
X0235654Y0140150D03*
X0235654Y0146350D03*
X0235654Y0149500D03*
X0235654Y0152650D03*
X0235654Y0158850D03*
X0235654Y0162000D03*
X0235654Y0165150D03*
X0235654Y0171350D03*
X0235654Y0174500D03*
X0235654Y0177650D03*
X0235654Y0183850D03*
X0235654Y0187000D03*
X0235654Y0190150D03*
X0235654Y0196350D03*
X0235654Y0199500D03*
X0235654Y0202650D03*
X0242346Y0202650D03*
X0242346Y0199500D03*
X0242346Y0196350D03*
X0248154Y0196350D03*
X0248154Y0199500D03*
X0248154Y0202650D03*
X0248154Y0208850D03*
X0248154Y0212000D03*
X0248154Y0215150D03*
X0242346Y0215150D03*
X0242346Y0212000D03*
X0242346Y0208850D03*
X0235654Y0208850D03*
X0235654Y0212000D03*
X0235654Y0215150D03*
X0235654Y0221350D03*
X0235654Y0224500D03*
X0235654Y0227650D03*
X0221154Y0215150D03*
X0221154Y0212000D03*
X0221154Y0208850D03*
X0215346Y0208850D03*
X0215346Y0212000D03*
X0215346Y0215150D03*
X0215346Y0202650D03*
X0215346Y0199500D03*
X0215346Y0196350D03*
X0221154Y0196350D03*
X0221154Y0199500D03*
X0221154Y0202650D03*
X0221154Y0190150D03*
X0221154Y0187000D03*
X0221154Y0183850D03*
X0215346Y0183850D03*
X0215346Y0187000D03*
X0215346Y0190150D03*
X0208654Y0190150D03*
X0208654Y0187000D03*
X0208654Y0183850D03*
X0202846Y0183850D03*
X0202846Y0187000D03*
X0202846Y0190150D03*
X0202846Y0177650D03*
X0202846Y0174500D03*
X0202846Y0171350D03*
X0208654Y0171350D03*
X0208654Y0174500D03*
X0208654Y0177650D03*
X0215346Y0177650D03*
X0215346Y0174500D03*
X0215346Y0171350D03*
X0221154Y0171350D03*
X0221154Y0174500D03*
X0221154Y0177650D03*
X0242346Y0177650D03*
X0242346Y0174500D03*
X0242346Y0171350D03*
X0248154Y0171350D03*
X0248154Y0174500D03*
X0248154Y0177650D03*
X0248154Y0183850D03*
X0248154Y0187000D03*
X0248154Y0190150D03*
X0242346Y0190150D03*
X0242346Y0187000D03*
X0242346Y0183850D03*
X0254846Y0183850D03*
X0254846Y0187000D03*
X0254846Y0190150D03*
X0260654Y0190150D03*
X0260654Y0187000D03*
X0260654Y0183850D03*
X0260654Y0177650D03*
X0260654Y0174500D03*
X0260654Y0171350D03*
X0254846Y0171350D03*
X0254846Y0174500D03*
X0254846Y0177650D03*
X0254846Y0165150D03*
X0254846Y0162000D03*
X0254846Y0158850D03*
X0260654Y0158850D03*
X0260654Y0162000D03*
X0260654Y0165150D03*
X0267346Y0165150D03*
X0267346Y0162000D03*
X0267346Y0158850D03*
X0273154Y0158850D03*
X0273154Y0162000D03*
X0273154Y0165150D03*
X0273154Y0171350D03*
X0273154Y0174500D03*
X0273154Y0177650D03*
X0267346Y0177650D03*
X0267346Y0174500D03*
X0267346Y0171350D03*
X0267346Y0183850D03*
X0267346Y0187000D03*
X0267346Y0190150D03*
X0273154Y0190150D03*
X0273154Y0187000D03*
X0273154Y0183850D03*
X0279846Y0183850D03*
X0279846Y0187000D03*
X0279846Y0190150D03*
X0285654Y0190150D03*
X0285654Y0187000D03*
X0285654Y0183850D03*
X0285654Y0177650D03*
X0285654Y0174500D03*
X0285654Y0171350D03*
X0279846Y0171350D03*
X0279846Y0174500D03*
X0279846Y0177650D03*
X0279846Y0165150D03*
X0279846Y0162000D03*
X0279846Y0158850D03*
X0285654Y0158850D03*
X0285654Y0162000D03*
X0285654Y0165150D03*
X0292346Y0165150D03*
X0292346Y0162000D03*
X0292346Y0158850D03*
X0298154Y0158850D03*
X0298154Y0162000D03*
X0298154Y0165150D03*
X0298154Y0171350D03*
X0298154Y0174500D03*
X0298154Y0177650D03*
X0292346Y0177650D03*
X0292346Y0174500D03*
X0292346Y0171350D03*
X0292346Y0183850D03*
X0292346Y0187000D03*
X0292346Y0190150D03*
X0298154Y0190150D03*
X0298154Y0187000D03*
X0298154Y0183850D03*
X0310654Y0183850D03*
X0310654Y0187000D03*
X0310654Y0190150D03*
X0310654Y0196350D03*
X0310654Y0199500D03*
X0310654Y0202650D03*
X0317346Y0202650D03*
X0317346Y0199500D03*
X0317346Y0196350D03*
X0317346Y0190150D03*
X0317346Y0187000D03*
X0317346Y0183850D03*
X0317346Y0177650D03*
X0317346Y0174500D03*
X0317346Y0171350D03*
X0317346Y0165150D03*
X0317346Y0162000D03*
X0317346Y0158850D03*
X0317346Y0152650D03*
X0317346Y0149500D03*
X0317346Y0146350D03*
X0310654Y0146350D03*
X0310654Y0149500D03*
X0310654Y0152650D03*
X0310654Y0158850D03*
X0310654Y0162000D03*
X0310654Y0165150D03*
X0310654Y0171350D03*
X0310654Y0174500D03*
X0310654Y0177650D03*
X0323154Y0177650D03*
X0323154Y0174500D03*
X0323154Y0171350D03*
X0323154Y0165150D03*
X0323154Y0162000D03*
X0323154Y0158850D03*
X0323154Y0152650D03*
X0323154Y0149500D03*
X0323154Y0146350D03*
X0329846Y0146350D03*
X0329846Y0149500D03*
X0329846Y0152650D03*
X0329846Y0158850D03*
X0329846Y0162000D03*
X0329846Y0165150D03*
X0329846Y0171350D03*
X0329846Y0174500D03*
X0329846Y0177650D03*
X0329846Y0183850D03*
X0329846Y0187000D03*
X0329846Y0190150D03*
X0329846Y0196350D03*
X0329846Y0199500D03*
X0329846Y0202650D03*
X0323154Y0202650D03*
X0323154Y0199500D03*
X0323154Y0196350D03*
X0323154Y0190150D03*
X0323154Y0187000D03*
X0323154Y0183850D03*
X0285654Y0196350D03*
X0285654Y0199500D03*
X0285654Y0202650D03*
X0279846Y0202650D03*
X0279846Y0199500D03*
X0279846Y0196350D03*
X0273154Y0196350D03*
X0273154Y0199500D03*
X0273154Y0202650D03*
X0267346Y0202650D03*
X0267346Y0199500D03*
X0267346Y0196350D03*
X0260654Y0196350D03*
X0260654Y0199500D03*
X0260654Y0202650D03*
X0254846Y0202650D03*
X0254846Y0199500D03*
X0254846Y0196350D03*
X0254846Y0208850D03*
X0254846Y0212000D03*
X0254846Y0215150D03*
X0260654Y0215150D03*
X0260654Y0212000D03*
X0260654Y0208850D03*
X0267346Y0208850D03*
X0267346Y0212000D03*
X0267346Y0215150D03*
X0273154Y0215150D03*
X0273154Y0212000D03*
X0273154Y0208850D03*
X0279846Y0208850D03*
X0279846Y0212000D03*
X0279846Y0215150D03*
X0285654Y0215150D03*
X0285654Y0212000D03*
X0285654Y0208850D03*
X0310654Y0235850D03*
X0310654Y0239000D03*
X0310654Y0242150D03*
X0310654Y0248350D03*
X0310654Y0251500D03*
X0310654Y0254650D03*
X0310654Y0260850D03*
X0310654Y0264000D03*
X0310654Y0267150D03*
X0317346Y0267150D03*
X0317346Y0264000D03*
X0317346Y0260850D03*
X0317346Y0254650D03*
X0317346Y0251500D03*
X0317346Y0248350D03*
X0317346Y0242150D03*
X0317346Y0239000D03*
X0317346Y0235850D03*
X0323154Y0235850D03*
X0323154Y0239000D03*
X0323154Y0242150D03*
X0323154Y0248350D03*
X0323154Y0251500D03*
X0323154Y0254650D03*
X0323154Y0260850D03*
X0323154Y0264000D03*
X0323154Y0267150D03*
X0329846Y0267150D03*
X0329846Y0264000D03*
X0329846Y0260850D03*
X0329846Y0254650D03*
X0329846Y0251500D03*
X0329846Y0248350D03*
X0329846Y0242150D03*
X0329846Y0239000D03*
X0329846Y0235850D03*
X0298154Y0248350D03*
X0298154Y0251500D03*
X0298154Y0254650D03*
X0292346Y0254650D03*
X0292346Y0251500D03*
X0292346Y0248350D03*
X0292346Y0310850D03*
X0292346Y0314000D03*
X0292346Y0317150D03*
X0298154Y0317150D03*
X0298154Y0314000D03*
X0298154Y0310850D03*
X0248154Y0165150D03*
X0248154Y0162000D03*
X0248154Y0158850D03*
X0242346Y0158850D03*
X0242346Y0162000D03*
X0242346Y0165150D03*
X0242346Y0152650D03*
X0242346Y0149500D03*
X0242346Y0146350D03*
X0248154Y0146350D03*
X0248154Y0149500D03*
X0248154Y0152650D03*
X0254846Y0152650D03*
X0254846Y0149500D03*
X0254846Y0146350D03*
X0260654Y0146350D03*
X0260654Y0149500D03*
X0260654Y0152650D03*
X0267346Y0152650D03*
X0267346Y0149500D03*
X0267346Y0146350D03*
X0273154Y0146350D03*
X0273154Y0149500D03*
X0273154Y0152650D03*
X0279846Y0152650D03*
X0279846Y0149500D03*
X0279846Y0146350D03*
X0285654Y0146350D03*
X0285654Y0149500D03*
X0285654Y0152650D03*
X0119154Y0310850D03*
X0119154Y0314000D03*
X0119154Y0317150D03*
X0113346Y0317150D03*
X0113346Y0314000D03*
X0113346Y0310850D03*
X0106654Y0310850D03*
X0106654Y0314000D03*
X0106654Y0317150D03*
X0100846Y0317150D03*
X0100846Y0314000D03*
X0100846Y0310850D03*
X0100846Y0304650D03*
X0100846Y0301500D03*
X0100846Y0298350D03*
X0106654Y0298350D03*
X0106654Y0301500D03*
X0106654Y0304650D03*
X0106654Y0292150D03*
X0106654Y0289000D03*
X0106654Y0285850D03*
X0100846Y0285850D03*
X0100846Y0289000D03*
X0100846Y0292150D03*
X0094154Y0292150D03*
X0094154Y0289000D03*
X0094154Y0285850D03*
X0088346Y0285850D03*
X0088346Y0289000D03*
X0088346Y0292150D03*
X0088346Y0298350D03*
X0088346Y0301500D03*
X0088346Y0304650D03*
X0094154Y0304650D03*
X0094154Y0301500D03*
X0094154Y0298350D03*
X0094154Y0310850D03*
X0094154Y0314000D03*
X0094154Y0317150D03*
X0088346Y0317150D03*
X0088346Y0314000D03*
X0088346Y0310850D03*
X0081654Y0310850D03*
X0081654Y0314000D03*
X0081654Y0317150D03*
X0075846Y0317150D03*
X0075846Y0314000D03*
X0075846Y0310850D03*
X0075846Y0304650D03*
X0075846Y0301500D03*
X0075846Y0298350D03*
X0081654Y0298350D03*
X0081654Y0301500D03*
X0081654Y0304650D03*
X0081654Y0292150D03*
X0081654Y0289000D03*
X0081654Y0285850D03*
X0075846Y0285850D03*
X0075846Y0289000D03*
X0075846Y0292150D03*
X0069154Y0292150D03*
X0069154Y0289000D03*
X0069154Y0285850D03*
X0063346Y0285850D03*
X0063346Y0289000D03*
X0063346Y0292150D03*
X0063346Y0298350D03*
X0063346Y0301500D03*
X0063346Y0304650D03*
X0069154Y0304650D03*
X0069154Y0301500D03*
X0069154Y0298350D03*
X0069154Y0310850D03*
X0069154Y0314000D03*
X0069154Y0317150D03*
X0063346Y0317150D03*
X0063346Y0314000D03*
X0063346Y0310850D03*
X0038346Y0310850D03*
X0038346Y0314000D03*
X0038346Y0317150D03*
X0038346Y0323350D03*
X0038346Y0326500D03*
X0038346Y0329650D03*
X0031654Y0329650D03*
X0031654Y0326500D03*
X0031654Y0323350D03*
X0031654Y0317150D03*
X0031654Y0314000D03*
X0031654Y0310850D03*
X0063346Y0279650D03*
X0063346Y0276500D03*
X0063346Y0273350D03*
X0069154Y0273350D03*
X0069154Y0276500D03*
X0069154Y0279650D03*
X0075846Y0279650D03*
X0075846Y0276500D03*
X0075846Y0273350D03*
X0081654Y0273350D03*
X0081654Y0276500D03*
X0081654Y0279650D03*
X0088346Y0279650D03*
X0088346Y0276500D03*
X0088346Y0273350D03*
X0094154Y0273350D03*
X0094154Y0276500D03*
X0094154Y0279650D03*
X0100846Y0279650D03*
X0100846Y0276500D03*
X0100846Y0273350D03*
X0106654Y0273350D03*
X0106654Y0276500D03*
X0106654Y0279650D03*
D11*
X0110000Y0273154D03*
X0110000Y0285654D03*
X0110000Y0298154D03*
X0110000Y0310654D03*
X0110000Y0323154D03*
X0097500Y0323154D03*
X0085000Y0323154D03*
X0072500Y0323154D03*
X0060000Y0323154D03*
X0047500Y0323154D03*
X0035000Y0323154D03*
X0035000Y0310654D03*
X0047500Y0310654D03*
X0060000Y0310654D03*
X0072500Y0310654D03*
X0085000Y0310654D03*
X0097500Y0310654D03*
X0097500Y0298154D03*
X0085000Y0298154D03*
X0072500Y0298154D03*
X0060000Y0298154D03*
X0047500Y0298154D03*
X0035000Y0298154D03*
X0035000Y0285654D03*
X0047500Y0285654D03*
X0060000Y0285654D03*
X0072500Y0285654D03*
X0085000Y0285654D03*
X0097500Y0285654D03*
X0097500Y0273154D03*
X0085000Y0273154D03*
X0072500Y0273154D03*
X0060000Y0273154D03*
X0047500Y0273154D03*
X0035000Y0273154D03*
X0035000Y0260654D03*
X0047500Y0260654D03*
X0060000Y0260654D03*
X0072500Y0260654D03*
X0085000Y0260654D03*
X0097500Y0260654D03*
X0110000Y0260654D03*
X0122500Y0260654D03*
X0122500Y0248154D03*
X0110000Y0248154D03*
X0097500Y0248154D03*
X0085000Y0248154D03*
X0072500Y0248154D03*
X0060000Y0248154D03*
X0047500Y0248154D03*
X0035000Y0248154D03*
X0035000Y0235654D03*
X0047500Y0235654D03*
X0060000Y0235654D03*
X0072500Y0235654D03*
X0085000Y0235654D03*
X0097500Y0235654D03*
X0110000Y0235654D03*
X0122500Y0235654D03*
X0137000Y0235654D03*
X0137000Y0248154D03*
X0137000Y0260654D03*
X0149500Y0260654D03*
X0162000Y0260654D03*
X0174500Y0260654D03*
X0187000Y0260654D03*
X0199500Y0260654D03*
X0212000Y0260654D03*
X0224500Y0260654D03*
X0224500Y0248154D03*
X0212000Y0248154D03*
X0199500Y0248154D03*
X0187000Y0248154D03*
X0174500Y0248154D03*
X0162000Y0248154D03*
X0149500Y0248154D03*
X0149500Y0235654D03*
X0162000Y0235654D03*
X0174500Y0235654D03*
X0187000Y0235654D03*
X0199500Y0235654D03*
X0212000Y0235654D03*
X0224500Y0235654D03*
X0239000Y0235654D03*
X0239000Y0248154D03*
X0239000Y0260654D03*
X0251500Y0260654D03*
X0264000Y0260654D03*
X0276500Y0260654D03*
X0289000Y0260654D03*
X0301500Y0260654D03*
X0314000Y0260654D03*
X0326500Y0260654D03*
X0326500Y0248154D03*
X0314000Y0248154D03*
X0301500Y0248154D03*
X0289000Y0248154D03*
X0276500Y0248154D03*
X0264000Y0248154D03*
X0251500Y0248154D03*
X0251500Y0235654D03*
X0264000Y0235654D03*
X0276500Y0235654D03*
X0289000Y0235654D03*
X0301500Y0235654D03*
X0314000Y0235654D03*
X0326500Y0235654D03*
X0326500Y0221154D03*
X0314000Y0221154D03*
X0301500Y0221154D03*
X0289000Y0221154D03*
X0276500Y0221154D03*
X0264000Y0221154D03*
X0251500Y0221154D03*
X0239000Y0221154D03*
X0224500Y0221154D03*
X0212000Y0221154D03*
X0199500Y0221154D03*
X0187000Y0221154D03*
X0174500Y0221154D03*
X0162000Y0221154D03*
X0149500Y0221154D03*
X0137000Y0221154D03*
X0122500Y0221154D03*
X0110000Y0221154D03*
X0097500Y0221154D03*
X0085000Y0221154D03*
X0072500Y0221154D03*
X0060000Y0221154D03*
X0047500Y0221154D03*
X0035000Y0221154D03*
X0035000Y0208654D03*
X0047500Y0208654D03*
X0060000Y0208654D03*
X0072500Y0208654D03*
X0085000Y0208654D03*
X0097500Y0208654D03*
X0110000Y0208654D03*
X0122500Y0208654D03*
X0122500Y0196154D03*
X0110000Y0196154D03*
X0097500Y0196154D03*
X0085000Y0196154D03*
X0072500Y0196154D03*
X0060000Y0196154D03*
X0047500Y0196154D03*
X0035000Y0196154D03*
X0035000Y0183654D03*
X0047500Y0183654D03*
X0060000Y0183654D03*
X0072500Y0183654D03*
X0085000Y0183654D03*
X0097500Y0183654D03*
X0110000Y0183654D03*
X0122500Y0183654D03*
X0122500Y0171154D03*
X0110000Y0171154D03*
X0097500Y0171154D03*
X0085000Y0171154D03*
X0072500Y0171154D03*
X0060000Y0171154D03*
X0047500Y0171154D03*
X0035000Y0171154D03*
X0035000Y0158654D03*
X0047500Y0158654D03*
X0060000Y0158654D03*
X0072500Y0158654D03*
X0085000Y0158654D03*
X0097500Y0158654D03*
X0110000Y0158654D03*
X0122500Y0158654D03*
X0122500Y0146154D03*
X0110000Y0146154D03*
X0097500Y0146154D03*
X0085000Y0146154D03*
X0072500Y0146154D03*
X0060000Y0146154D03*
X0047500Y0146154D03*
X0035000Y0146154D03*
X0035000Y0133654D03*
X0047500Y0133654D03*
X0060000Y0133654D03*
X0072500Y0133654D03*
X0085000Y0133654D03*
X0097500Y0133654D03*
X0110000Y0133654D03*
X0122500Y0133654D03*
X0137000Y0133654D03*
X0137000Y0146154D03*
X0137000Y0158654D03*
X0137000Y0171154D03*
X0137000Y0183654D03*
X0137000Y0196154D03*
X0137000Y0208654D03*
X0149500Y0208654D03*
X0162000Y0208654D03*
X0174500Y0208654D03*
X0187000Y0208654D03*
X0199500Y0208654D03*
X0212000Y0208654D03*
X0224500Y0208654D03*
X0224500Y0196154D03*
X0212000Y0196154D03*
X0199500Y0196154D03*
X0187000Y0196154D03*
X0174500Y0196154D03*
X0162000Y0196154D03*
X0149500Y0196154D03*
X0149500Y0183654D03*
X0162000Y0183654D03*
X0174500Y0183654D03*
X0187000Y0183654D03*
X0199500Y0183654D03*
X0212000Y0183654D03*
X0224500Y0183654D03*
X0224500Y0171154D03*
X0212000Y0171154D03*
X0199500Y0171154D03*
X0187000Y0171154D03*
X0174500Y0171154D03*
X0162000Y0171154D03*
X0149500Y0171154D03*
X0149500Y0158654D03*
X0162000Y0158654D03*
X0174500Y0158654D03*
X0187000Y0158654D03*
X0199500Y0158654D03*
X0212000Y0158654D03*
X0224500Y0158654D03*
X0224500Y0146154D03*
X0212000Y0146154D03*
X0199500Y0146154D03*
X0187000Y0146154D03*
X0174500Y0146154D03*
X0162000Y0146154D03*
X0149500Y0146154D03*
X0149500Y0133654D03*
X0162000Y0133654D03*
X0174500Y0133654D03*
X0187000Y0133654D03*
X0199500Y0133654D03*
X0212000Y0133654D03*
X0224500Y0133654D03*
X0239000Y0133654D03*
X0239000Y0146154D03*
X0239000Y0158654D03*
X0239000Y0171154D03*
X0239000Y0183654D03*
X0239000Y0196154D03*
X0239000Y0208654D03*
X0251500Y0208654D03*
X0264000Y0208654D03*
X0276500Y0208654D03*
X0289000Y0208654D03*
X0301500Y0208654D03*
X0314000Y0208654D03*
X0326500Y0208654D03*
X0326500Y0196154D03*
X0314000Y0196154D03*
X0301500Y0196154D03*
X0289000Y0196154D03*
X0276500Y0196154D03*
X0264000Y0196154D03*
X0251500Y0196154D03*
X0251500Y0183654D03*
X0264000Y0183654D03*
X0276500Y0183654D03*
X0289000Y0183654D03*
X0301500Y0183654D03*
X0314000Y0183654D03*
X0326500Y0183654D03*
X0326500Y0171154D03*
X0314000Y0171154D03*
X0301500Y0171154D03*
X0289000Y0171154D03*
X0276500Y0171154D03*
X0264000Y0171154D03*
X0251500Y0171154D03*
X0251500Y0158654D03*
X0264000Y0158654D03*
X0276500Y0158654D03*
X0289000Y0158654D03*
X0301500Y0158654D03*
X0314000Y0158654D03*
X0326500Y0158654D03*
X0326500Y0146154D03*
X0314000Y0146154D03*
X0301500Y0146154D03*
X0289000Y0146154D03*
X0276500Y0146154D03*
X0264000Y0146154D03*
X0251500Y0146154D03*
X0251500Y0133654D03*
X0264000Y0133654D03*
X0276500Y0133654D03*
X0289000Y0133654D03*
X0301500Y0133654D03*
X0314000Y0133654D03*
X0326500Y0133654D03*
X0326500Y0119154D03*
X0314000Y0119154D03*
X0301500Y0119154D03*
X0289000Y0119154D03*
X0276500Y0119154D03*
X0264000Y0119154D03*
X0251500Y0119154D03*
X0239000Y0119154D03*
X0239000Y0106654D03*
X0251500Y0106654D03*
X0264000Y0106654D03*
X0276500Y0106654D03*
X0289000Y0106654D03*
X0301500Y0106654D03*
X0314000Y0106654D03*
X0326500Y0106654D03*
X0326500Y0094154D03*
X0314000Y0094154D03*
X0301500Y0094154D03*
X0289000Y0094154D03*
X0276500Y0094154D03*
X0264000Y0094154D03*
X0251500Y0094154D03*
X0239000Y0094154D03*
X0239000Y0081654D03*
X0251500Y0081654D03*
X0264000Y0081654D03*
X0276500Y0081654D03*
X0289000Y0081654D03*
X0301500Y0081654D03*
X0314000Y0081654D03*
X0326500Y0081654D03*
X0326500Y0069154D03*
X0314000Y0069154D03*
X0301500Y0069154D03*
X0289000Y0069154D03*
X0276500Y0069154D03*
X0264000Y0069154D03*
X0251500Y0069154D03*
X0239000Y0069154D03*
X0239000Y0056654D03*
X0251500Y0056654D03*
X0264000Y0056654D03*
X0276500Y0056654D03*
X0289000Y0056654D03*
X0301500Y0056654D03*
X0314000Y0056654D03*
X0326500Y0056654D03*
X0326500Y0044154D03*
X0314000Y0044154D03*
X0301500Y0044154D03*
X0289000Y0044154D03*
X0276500Y0044154D03*
X0264000Y0044154D03*
X0251500Y0044154D03*
X0239000Y0044154D03*
X0224500Y0044154D03*
X0224500Y0056654D03*
X0224500Y0069154D03*
X0224500Y0081654D03*
X0224500Y0094154D03*
X0224500Y0106654D03*
X0224500Y0119154D03*
X0212000Y0119154D03*
X0199500Y0119154D03*
X0187000Y0119154D03*
X0174500Y0119154D03*
X0162000Y0119154D03*
X0149500Y0119154D03*
X0137000Y0119154D03*
X0137000Y0106654D03*
X0149500Y0106654D03*
X0162000Y0106654D03*
X0174500Y0106654D03*
X0187000Y0106654D03*
X0199500Y0106654D03*
X0212000Y0106654D03*
X0212000Y0094154D03*
X0199500Y0094154D03*
X0187000Y0094154D03*
X0174500Y0094154D03*
X0162000Y0094154D03*
X0149500Y0094154D03*
X0137000Y0094154D03*
X0137000Y0081654D03*
X0149500Y0081654D03*
X0162000Y0081654D03*
X0174500Y0081654D03*
X0187000Y0081654D03*
X0199500Y0081654D03*
X0212000Y0081654D03*
X0212000Y0069154D03*
X0199500Y0069154D03*
X0187000Y0069154D03*
X0174500Y0069154D03*
X0162000Y0069154D03*
X0149500Y0069154D03*
X0137000Y0069154D03*
X0137000Y0056654D03*
X0149500Y0056654D03*
X0162000Y0056654D03*
X0174500Y0056654D03*
X0187000Y0056654D03*
X0199500Y0056654D03*
X0212000Y0056654D03*
X0212000Y0044154D03*
X0199500Y0044154D03*
X0187000Y0044154D03*
X0174500Y0044154D03*
X0162000Y0044154D03*
X0149500Y0044154D03*
X0137000Y0044154D03*
X0122500Y0044154D03*
X0122500Y0056654D03*
X0122500Y0069154D03*
X0122500Y0081654D03*
X0122500Y0094154D03*
X0122500Y0106654D03*
X0122500Y0119154D03*
X0110000Y0119154D03*
X0097500Y0119154D03*
X0085000Y0119154D03*
X0072500Y0119154D03*
X0060000Y0119154D03*
X0047500Y0119154D03*
X0035000Y0119154D03*
X0035000Y0106654D03*
X0047500Y0106654D03*
X0060000Y0106654D03*
X0072500Y0106654D03*
X0085000Y0106654D03*
X0097500Y0106654D03*
X0110000Y0106654D03*
X0110000Y0094154D03*
X0097500Y0094154D03*
X0085000Y0094154D03*
X0072500Y0094154D03*
X0060000Y0094154D03*
X0047500Y0094154D03*
X0035000Y0094154D03*
X0035000Y0081654D03*
X0047500Y0081654D03*
X0060000Y0081654D03*
X0072500Y0081654D03*
X0085000Y0081654D03*
X0097500Y0081654D03*
X0110000Y0081654D03*
X0110000Y0069154D03*
X0097500Y0069154D03*
X0085000Y0069154D03*
X0072500Y0069154D03*
X0060000Y0069154D03*
X0047500Y0069154D03*
X0035000Y0069154D03*
X0035000Y0056654D03*
X0047500Y0056654D03*
X0060000Y0056654D03*
X0072500Y0056654D03*
X0085000Y0056654D03*
X0097500Y0056654D03*
X0110000Y0056654D03*
X0110000Y0044154D03*
X0097500Y0044154D03*
X0085000Y0044154D03*
X0072500Y0044154D03*
X0060000Y0044154D03*
X0047500Y0044154D03*
X0035000Y0044154D03*
X0035000Y0031654D03*
X0047500Y0031654D03*
X0060000Y0031654D03*
X0072500Y0031654D03*
X0085000Y0031654D03*
X0097500Y0031654D03*
X0110000Y0031654D03*
X0122500Y0031654D03*
X0137000Y0031654D03*
X0149500Y0031654D03*
X0162000Y0031654D03*
X0174500Y0031654D03*
X0187000Y0031654D03*
X0199500Y0031654D03*
X0212000Y0031654D03*
X0224500Y0031654D03*
X0239000Y0031654D03*
X0251500Y0031654D03*
X0264000Y0031654D03*
X0276500Y0031654D03*
X0289000Y0031654D03*
X0301500Y0031654D03*
X0314000Y0031654D03*
X0326500Y0031654D03*
X0326500Y0273154D03*
X0314000Y0273154D03*
X0314000Y0285654D03*
X0326500Y0285654D03*
X0326500Y0298154D03*
X0314000Y0298154D03*
X0314000Y0310654D03*
X0326500Y0310654D03*
X0326500Y0323154D03*
X0314000Y0323154D03*
X0301500Y0323154D03*
X0289000Y0323154D03*
X0276500Y0323154D03*
X0264000Y0323154D03*
X0251500Y0323154D03*
X0239000Y0323154D03*
X0239000Y0310654D03*
X0251500Y0310654D03*
X0264000Y0310654D03*
X0276500Y0310654D03*
X0289000Y0310654D03*
X0301500Y0310654D03*
X0301500Y0298154D03*
X0289000Y0298154D03*
X0276500Y0298154D03*
X0264000Y0298154D03*
X0251500Y0298154D03*
X0239000Y0298154D03*
X0239000Y0285654D03*
X0251500Y0285654D03*
X0264000Y0285654D03*
X0276500Y0285654D03*
X0289000Y0285654D03*
X0301500Y0285654D03*
X0301500Y0273154D03*
X0289000Y0273154D03*
X0276500Y0273154D03*
X0264000Y0273154D03*
X0251500Y0273154D03*
X0239000Y0273154D03*
X0224500Y0273154D03*
X0224500Y0285654D03*
X0224500Y0298154D03*
X0224500Y0310654D03*
X0224500Y0323154D03*
X0212000Y0323154D03*
X0199500Y0323154D03*
X0187000Y0323154D03*
X0174500Y0323154D03*
X0162000Y0323154D03*
X0149500Y0323154D03*
X0137000Y0323154D03*
X0137000Y0310654D03*
X0149500Y0310654D03*
X0162000Y0310654D03*
X0174500Y0310654D03*
X0187000Y0310654D03*
X0199500Y0310654D03*
X0212000Y0310654D03*
X0212000Y0298154D03*
X0199500Y0298154D03*
X0187000Y0298154D03*
X0174500Y0298154D03*
X0162000Y0298154D03*
X0149500Y0298154D03*
X0137000Y0298154D03*
X0137000Y0285654D03*
X0149500Y0285654D03*
X0162000Y0285654D03*
X0174500Y0285654D03*
X0187000Y0285654D03*
X0199500Y0285654D03*
X0212000Y0285654D03*
X0212000Y0273154D03*
X0199500Y0273154D03*
X0187000Y0273154D03*
X0174500Y0273154D03*
X0162000Y0273154D03*
X0149500Y0273154D03*
X0137000Y0273154D03*
X0122500Y0273154D03*
X0122500Y0285654D03*
X0122500Y0298154D03*
X0122500Y0310654D03*
X0122500Y0323154D03*
D12*
X0122500Y0328665D03*
X0122500Y0316165D03*
X0122500Y0303665D03*
X0122500Y0291165D03*
X0122500Y0278665D03*
X0122500Y0266165D03*
X0122500Y0253665D03*
X0122500Y0241165D03*
X0110000Y0241165D03*
X0097500Y0241165D03*
X0085000Y0241165D03*
X0072500Y0241165D03*
X0060000Y0241165D03*
X0047500Y0241165D03*
X0035000Y0241165D03*
X0035000Y0253665D03*
X0047500Y0253665D03*
X0060000Y0253665D03*
X0072500Y0253665D03*
X0085000Y0253665D03*
X0097500Y0253665D03*
X0110000Y0253665D03*
X0110000Y0266165D03*
X0097500Y0266165D03*
X0085000Y0266165D03*
X0072500Y0266165D03*
X0060000Y0266165D03*
X0047500Y0266165D03*
X0035000Y0266165D03*
X0035000Y0278665D03*
X0047500Y0278665D03*
X0060000Y0278665D03*
X0072500Y0278665D03*
X0085000Y0278665D03*
X0097500Y0278665D03*
X0110000Y0278665D03*
X0110000Y0291165D03*
X0097500Y0291165D03*
X0085000Y0291165D03*
X0072500Y0291165D03*
X0060000Y0291165D03*
X0047500Y0291165D03*
X0035000Y0291165D03*
X0035000Y0303665D03*
X0047500Y0303665D03*
X0060000Y0303665D03*
X0072500Y0303665D03*
X0085000Y0303665D03*
X0097500Y0303665D03*
X0110000Y0303665D03*
X0110000Y0316165D03*
X0097500Y0316165D03*
X0085000Y0316165D03*
X0072500Y0316165D03*
X0060000Y0316165D03*
X0047500Y0316165D03*
X0035000Y0316165D03*
X0035000Y0328665D03*
X0047500Y0328665D03*
X0060000Y0328665D03*
X0072500Y0328665D03*
X0085000Y0328665D03*
X0097500Y0328665D03*
X0110000Y0328665D03*
X0137000Y0328665D03*
X0137000Y0316165D03*
X0137000Y0303665D03*
X0137000Y0291165D03*
X0137000Y0278665D03*
X0137000Y0266165D03*
X0137000Y0253665D03*
X0137000Y0241165D03*
X0149500Y0241165D03*
X0162000Y0241165D03*
X0174500Y0241165D03*
X0187000Y0241165D03*
X0199500Y0241165D03*
X0212000Y0241165D03*
X0224500Y0241165D03*
X0224500Y0253665D03*
X0212000Y0253665D03*
X0199500Y0253665D03*
X0187000Y0253665D03*
X0174500Y0253665D03*
X0162000Y0253665D03*
X0149500Y0253665D03*
X0149500Y0266165D03*
X0162000Y0266165D03*
X0174500Y0266165D03*
X0187000Y0266165D03*
X0199500Y0266165D03*
X0212000Y0266165D03*
X0224500Y0266165D03*
X0224500Y0278665D03*
X0212000Y0278665D03*
X0199500Y0278665D03*
X0187000Y0278665D03*
X0174500Y0278665D03*
X0162000Y0278665D03*
X0149500Y0278665D03*
X0149500Y0291165D03*
X0162000Y0291165D03*
X0174500Y0291165D03*
X0187000Y0291165D03*
X0199500Y0291165D03*
X0212000Y0291165D03*
X0224500Y0291165D03*
X0224500Y0303665D03*
X0212000Y0303665D03*
X0199500Y0303665D03*
X0187000Y0303665D03*
X0174500Y0303665D03*
X0162000Y0303665D03*
X0149500Y0303665D03*
X0149500Y0316165D03*
X0162000Y0316165D03*
X0174500Y0316165D03*
X0187000Y0316165D03*
X0199500Y0316165D03*
X0212000Y0316165D03*
X0224500Y0316165D03*
X0224500Y0328665D03*
X0212000Y0328665D03*
X0199500Y0328665D03*
X0187000Y0328665D03*
X0174500Y0328665D03*
X0162000Y0328665D03*
X0149500Y0328665D03*
X0239000Y0328665D03*
X0239000Y0316165D03*
X0239000Y0303665D03*
X0239000Y0291165D03*
X0239000Y0278665D03*
X0239000Y0266165D03*
X0239000Y0253665D03*
X0239000Y0241165D03*
X0251500Y0241165D03*
X0264000Y0241165D03*
X0276500Y0241165D03*
X0289000Y0241165D03*
X0301500Y0241165D03*
X0314000Y0241165D03*
X0326500Y0241165D03*
X0326500Y0253665D03*
X0314000Y0253665D03*
X0301500Y0253665D03*
X0289000Y0253665D03*
X0276500Y0253665D03*
X0264000Y0253665D03*
X0251500Y0253665D03*
X0251500Y0266165D03*
X0264000Y0266165D03*
X0276500Y0266165D03*
X0289000Y0266165D03*
X0301500Y0266165D03*
X0314000Y0266165D03*
X0326500Y0266165D03*
X0326500Y0278665D03*
X0314000Y0278665D03*
X0301500Y0278665D03*
X0289000Y0278665D03*
X0276500Y0278665D03*
X0264000Y0278665D03*
X0251500Y0278665D03*
X0251500Y0291165D03*
X0264000Y0291165D03*
X0276500Y0291165D03*
X0289000Y0291165D03*
X0301500Y0291165D03*
X0314000Y0291165D03*
X0326500Y0291165D03*
X0326500Y0303665D03*
X0314000Y0303665D03*
X0301500Y0303665D03*
X0289000Y0303665D03*
X0276500Y0303665D03*
X0264000Y0303665D03*
X0251500Y0303665D03*
X0251500Y0316165D03*
X0264000Y0316165D03*
X0276500Y0316165D03*
X0289000Y0316165D03*
X0301500Y0316165D03*
X0314000Y0316165D03*
X0326500Y0316165D03*
X0326500Y0328665D03*
X0314000Y0328665D03*
X0301500Y0328665D03*
X0289000Y0328665D03*
X0276500Y0328665D03*
X0264000Y0328665D03*
X0251500Y0328665D03*
X0251500Y0226665D03*
X0251500Y0214165D03*
X0251500Y0201665D03*
X0251500Y0189165D03*
X0251500Y0176665D03*
X0239000Y0176665D03*
X0239000Y0189165D03*
X0239000Y0201665D03*
X0239000Y0214165D03*
X0239000Y0226665D03*
X0224500Y0226665D03*
X0224500Y0214165D03*
X0224500Y0201665D03*
X0224500Y0189165D03*
X0224500Y0176665D03*
X0212000Y0176665D03*
X0199500Y0176665D03*
X0187000Y0176665D03*
X0174500Y0176665D03*
X0162000Y0176665D03*
X0149500Y0176665D03*
X0137000Y0176665D03*
X0137000Y0189165D03*
X0149500Y0189165D03*
X0162000Y0189165D03*
X0174500Y0189165D03*
X0187000Y0189165D03*
X0199500Y0189165D03*
X0212000Y0189165D03*
X0212000Y0201665D03*
X0199500Y0201665D03*
X0187000Y0201665D03*
X0174500Y0201665D03*
X0162000Y0201665D03*
X0149500Y0201665D03*
X0137000Y0201665D03*
X0137000Y0214165D03*
X0149500Y0214165D03*
X0162000Y0214165D03*
X0174500Y0214165D03*
X0187000Y0214165D03*
X0199500Y0214165D03*
X0212000Y0214165D03*
X0212000Y0226665D03*
X0199500Y0226665D03*
X0187000Y0226665D03*
X0174500Y0226665D03*
X0162000Y0226665D03*
X0149500Y0226665D03*
X0137000Y0226665D03*
X0122500Y0226665D03*
X0122500Y0214165D03*
X0122500Y0201665D03*
X0122500Y0189165D03*
X0122500Y0176665D03*
X0110000Y0176665D03*
X0097500Y0176665D03*
X0085000Y0176665D03*
X0072500Y0176665D03*
X0060000Y0176665D03*
X0047500Y0176665D03*
X0035000Y0176665D03*
X0035000Y0189165D03*
X0047500Y0189165D03*
X0060000Y0189165D03*
X0072500Y0189165D03*
X0085000Y0189165D03*
X0097500Y0189165D03*
X0110000Y0189165D03*
X0110000Y0201665D03*
X0097500Y0201665D03*
X0085000Y0201665D03*
X0072500Y0201665D03*
X0060000Y0201665D03*
X0047500Y0201665D03*
X0035000Y0201665D03*
X0035000Y0214165D03*
X0047500Y0214165D03*
X0060000Y0214165D03*
X0072500Y0214165D03*
X0085000Y0214165D03*
X0097500Y0214165D03*
X0110000Y0214165D03*
X0110000Y0226665D03*
X0097500Y0226665D03*
X0085000Y0226665D03*
X0072500Y0226665D03*
X0060000Y0226665D03*
X0047500Y0226665D03*
X0035000Y0226665D03*
X0035000Y0164165D03*
X0047500Y0164165D03*
X0047500Y0151665D03*
X0035000Y0151665D03*
X0035000Y0139165D03*
X0047500Y0139165D03*
X0060000Y0139165D03*
X0072500Y0139165D03*
X0085000Y0139165D03*
X0097500Y0139165D03*
X0110000Y0139165D03*
X0122500Y0139165D03*
X0122500Y0151665D03*
X0110000Y0151665D03*
X0097500Y0151665D03*
X0085000Y0151665D03*
X0072500Y0151665D03*
X0060000Y0151665D03*
X0060000Y0164165D03*
X0072500Y0164165D03*
X0085000Y0164165D03*
X0097500Y0164165D03*
X0110000Y0164165D03*
X0122500Y0164165D03*
X0137000Y0164165D03*
X0137000Y0151665D03*
X0137000Y0139165D03*
X0149500Y0139165D03*
X0162000Y0139165D03*
X0174500Y0139165D03*
X0187000Y0139165D03*
X0199500Y0139165D03*
X0212000Y0139165D03*
X0224500Y0139165D03*
X0224500Y0151665D03*
X0212000Y0151665D03*
X0199500Y0151665D03*
X0187000Y0151665D03*
X0174500Y0151665D03*
X0162000Y0151665D03*
X0149500Y0151665D03*
X0149500Y0164165D03*
X0162000Y0164165D03*
X0174500Y0164165D03*
X0187000Y0164165D03*
X0199500Y0164165D03*
X0212000Y0164165D03*
X0224500Y0164165D03*
X0239000Y0164165D03*
X0239000Y0151665D03*
X0239000Y0139165D03*
X0251500Y0139165D03*
X0264000Y0139165D03*
X0276500Y0139165D03*
X0289000Y0139165D03*
X0301500Y0139165D03*
X0314000Y0139165D03*
X0326500Y0139165D03*
X0326500Y0151665D03*
X0314000Y0151665D03*
X0301500Y0151665D03*
X0289000Y0151665D03*
X0276500Y0151665D03*
X0264000Y0151665D03*
X0251500Y0151665D03*
X0251500Y0164165D03*
X0264000Y0164165D03*
X0276500Y0164165D03*
X0289000Y0164165D03*
X0301500Y0164165D03*
X0314000Y0164165D03*
X0326500Y0164165D03*
X0326500Y0176665D03*
X0314000Y0176665D03*
X0301500Y0176665D03*
X0289000Y0176665D03*
X0276500Y0176665D03*
X0264000Y0176665D03*
X0264000Y0189165D03*
X0276500Y0189165D03*
X0289000Y0189165D03*
X0301500Y0189165D03*
X0314000Y0189165D03*
X0326500Y0189165D03*
X0326500Y0201665D03*
X0314000Y0201665D03*
X0301500Y0201665D03*
X0289000Y0201665D03*
X0276500Y0201665D03*
X0264000Y0201665D03*
X0264000Y0214165D03*
X0276500Y0214165D03*
X0289000Y0214165D03*
X0301500Y0214165D03*
X0314000Y0214165D03*
X0326500Y0214165D03*
X0326500Y0226665D03*
X0314000Y0226665D03*
X0301500Y0226665D03*
X0289000Y0226665D03*
X0276500Y0226665D03*
X0264000Y0226665D03*
X0264000Y0124665D03*
X0251500Y0124665D03*
X0239000Y0124665D03*
X0224500Y0124665D03*
X0212000Y0124665D03*
X0199500Y0124665D03*
X0187000Y0124665D03*
X0174500Y0124665D03*
X0162000Y0124665D03*
X0149500Y0124665D03*
X0137000Y0124665D03*
X0122500Y0124665D03*
X0110000Y0124665D03*
X0097500Y0124665D03*
X0085000Y0124665D03*
X0072500Y0124665D03*
X0060000Y0124665D03*
X0047500Y0124665D03*
X0035000Y0124665D03*
X0035000Y0112165D03*
X0047500Y0112165D03*
X0047500Y0099665D03*
X0035000Y0099665D03*
X0035000Y0087165D03*
X0047500Y0087165D03*
X0047500Y0074665D03*
X0035000Y0074665D03*
X0035000Y0062165D03*
X0047500Y0062165D03*
X0047500Y0049665D03*
X0035000Y0049665D03*
X0035000Y0037165D03*
X0047500Y0037165D03*
X0060000Y0037165D03*
X0072500Y0037165D03*
X0085000Y0037165D03*
X0097500Y0037165D03*
X0110000Y0037165D03*
X0122500Y0037165D03*
X0122500Y0049665D03*
X0110000Y0049665D03*
X0097500Y0049665D03*
X0085000Y0049665D03*
X0072500Y0049665D03*
X0060000Y0049665D03*
X0060000Y0062165D03*
X0072500Y0062165D03*
X0085000Y0062165D03*
X0097500Y0062165D03*
X0110000Y0062165D03*
X0122500Y0062165D03*
X0122500Y0074665D03*
X0110000Y0074665D03*
X0097500Y0074665D03*
X0085000Y0074665D03*
X0072500Y0074665D03*
X0060000Y0074665D03*
X0060000Y0087165D03*
X0072500Y0087165D03*
X0085000Y0087165D03*
X0097500Y0087165D03*
X0110000Y0087165D03*
X0122500Y0087165D03*
X0122500Y0099665D03*
X0110000Y0099665D03*
X0097500Y0099665D03*
X0085000Y0099665D03*
X0072500Y0099665D03*
X0060000Y0099665D03*
X0060000Y0112165D03*
X0072500Y0112165D03*
X0085000Y0112165D03*
X0097500Y0112165D03*
X0110000Y0112165D03*
X0122500Y0112165D03*
X0137000Y0112165D03*
X0137000Y0099665D03*
X0137000Y0087165D03*
X0137000Y0074665D03*
X0137000Y0062165D03*
X0137000Y0049665D03*
X0137000Y0037165D03*
X0149500Y0037165D03*
X0162000Y0037165D03*
X0174500Y0037165D03*
X0187000Y0037165D03*
X0199500Y0037165D03*
X0212000Y0037165D03*
X0224500Y0037165D03*
X0224500Y0049665D03*
X0212000Y0049665D03*
X0199500Y0049665D03*
X0187000Y0049665D03*
X0174500Y0049665D03*
X0162000Y0049665D03*
X0149500Y0049665D03*
X0149500Y0062165D03*
X0162000Y0062165D03*
X0174500Y0062165D03*
X0187000Y0062165D03*
X0199500Y0062165D03*
X0212000Y0062165D03*
X0224500Y0062165D03*
X0224500Y0074665D03*
X0212000Y0074665D03*
X0199500Y0074665D03*
X0187000Y0074665D03*
X0174500Y0074665D03*
X0162000Y0074665D03*
X0149500Y0074665D03*
X0149500Y0087165D03*
X0162000Y0087165D03*
X0174500Y0087165D03*
X0187000Y0087165D03*
X0199500Y0087165D03*
X0212000Y0087165D03*
X0224500Y0087165D03*
X0224500Y0099665D03*
X0212000Y0099665D03*
X0199500Y0099665D03*
X0187000Y0099665D03*
X0174500Y0099665D03*
X0162000Y0099665D03*
X0149500Y0099665D03*
X0149500Y0112165D03*
X0162000Y0112165D03*
X0174500Y0112165D03*
X0187000Y0112165D03*
X0199500Y0112165D03*
X0212000Y0112165D03*
X0224500Y0112165D03*
X0239000Y0112165D03*
X0239000Y0099665D03*
X0239000Y0087165D03*
X0239000Y0074665D03*
X0239000Y0062165D03*
X0239000Y0049665D03*
X0239000Y0037165D03*
X0251500Y0037165D03*
X0264000Y0037165D03*
X0276500Y0037165D03*
X0289000Y0037165D03*
X0301500Y0037165D03*
X0314000Y0037165D03*
X0326500Y0037165D03*
X0326500Y0049665D03*
X0314000Y0049665D03*
X0301500Y0049665D03*
X0289000Y0049665D03*
X0276500Y0049665D03*
X0264000Y0049665D03*
X0251500Y0049665D03*
X0251500Y0062165D03*
X0264000Y0062165D03*
X0276500Y0062165D03*
X0289000Y0062165D03*
X0301500Y0062165D03*
X0314000Y0062165D03*
X0326500Y0062165D03*
X0326500Y0074665D03*
X0314000Y0074665D03*
X0301500Y0074665D03*
X0289000Y0074665D03*
X0276500Y0074665D03*
X0264000Y0074665D03*
X0251500Y0074665D03*
X0251500Y0087165D03*
X0264000Y0087165D03*
X0276500Y0087165D03*
X0289000Y0087165D03*
X0301500Y0087165D03*
X0314000Y0087165D03*
X0326500Y0087165D03*
X0326500Y0099665D03*
X0314000Y0099665D03*
X0301500Y0099665D03*
X0289000Y0099665D03*
X0276500Y0099665D03*
X0264000Y0099665D03*
X0251500Y0099665D03*
X0251500Y0112165D03*
X0264000Y0112165D03*
X0276500Y0112165D03*
X0289000Y0112165D03*
X0301500Y0112165D03*
X0314000Y0112165D03*
X0326500Y0112165D03*
X0326500Y0124665D03*
X0314000Y0124665D03*
X0301500Y0124665D03*
X0289000Y0124665D03*
X0276500Y0124665D03*
M02*
