G75*
%MOIN*%
%OFA0B0*%
%FSLAX25Y25*%
%IPPOS*%
%LPD*%
%AMOC8*
5,1,8,0,0,1.08239X$1,22.5*
%
%ADD10C,0.00800*%
%ADD11C,0.01500*%
%ADD12C,0.01100*%
%ADD13C,0.01000*%
D10*
X0028750Y0028750D02*
X0028750Y0128750D01*
X0128750Y0128750D01*
X0128750Y0028750D01*
X0028750Y0028750D01*
X0130750Y0028750D02*
X0130750Y0128750D01*
X0230750Y0128750D01*
X0230750Y0028750D01*
X0130750Y0028750D01*
X0232750Y0028750D02*
X0232750Y0128750D01*
X0332750Y0128750D01*
X0332750Y0028750D01*
X0232750Y0028750D01*
X0232750Y0130750D02*
X0232750Y0230750D01*
X0332750Y0230750D01*
X0332750Y0130750D01*
X0232750Y0130750D01*
X0230750Y0130750D02*
X0230750Y0230750D01*
X0130750Y0230750D01*
X0130750Y0130750D01*
X0230750Y0130750D01*
X0128750Y0130750D02*
X0128750Y0230750D01*
X0028750Y0230750D01*
X0028750Y0130750D01*
X0128750Y0130750D01*
X0128750Y0232750D02*
X0028750Y0232750D01*
X0028750Y0332750D01*
X0128750Y0332750D01*
X0128750Y0232750D01*
X0130750Y0232750D02*
X0130750Y0332750D01*
X0230750Y0332750D01*
X0230750Y0232750D01*
X0130750Y0232750D01*
X0232750Y0232750D02*
X0232750Y0332750D01*
X0332750Y0332750D01*
X0332750Y0232750D01*
X0232750Y0232750D01*
D11*
X0384750Y0231750D02*
X0001750Y0231750D01*
X0001750Y0129750D02*
X0384750Y0129750D01*
X0384750Y0027750D02*
X0001750Y0027750D01*
X0027750Y0001750D02*
X0027750Y0384750D01*
X0001750Y0333750D02*
X0384750Y0333750D01*
X0333750Y0384750D02*
X0333750Y0001750D01*
X0231750Y0001750D02*
X0231750Y0384750D01*
X0129750Y0384750D02*
X0129750Y0001750D01*
D12*
X0397541Y0028733D02*
X0398852Y0024800D01*
X0400163Y0028733D01*
X0402834Y0027094D02*
X0406768Y0027094D01*
X0410136Y0027094D02*
X0411774Y0026439D01*
X0411775Y0026439D02*
X0411827Y0026416D01*
X0411878Y0026389D01*
X0411927Y0026359D01*
X0411974Y0026326D01*
X0412019Y0026290D01*
X0412061Y0026250D01*
X0412100Y0026208D01*
X0412136Y0026164D01*
X0412169Y0026117D01*
X0412199Y0026067D01*
X0412226Y0026016D01*
X0412249Y0025964D01*
X0412268Y0025910D01*
X0412284Y0025854D01*
X0412296Y0025798D01*
X0412304Y0025741D01*
X0412308Y0025684D01*
X0412309Y0025626D01*
X0412305Y0025569D01*
X0412298Y0025512D01*
X0412286Y0025455D01*
X0412271Y0025400D01*
X0412253Y0025345D01*
X0412230Y0025292D01*
X0412204Y0025241D01*
X0412175Y0025192D01*
X0412142Y0025144D01*
X0412106Y0025099D01*
X0412068Y0025057D01*
X0412026Y0025017D01*
X0411982Y0024980D01*
X0411935Y0024946D01*
X0411887Y0024915D01*
X0411836Y0024888D01*
X0411784Y0024864D01*
X0411730Y0024844D01*
X0411675Y0024828D01*
X0411619Y0024815D01*
X0411562Y0024806D01*
X0411504Y0024801D01*
X0411447Y0024800D01*
X0411938Y0028405D02*
X0411831Y0028451D01*
X0411722Y0028494D01*
X0411612Y0028534D01*
X0411500Y0028570D01*
X0411388Y0028602D01*
X0411274Y0028631D01*
X0411160Y0028657D01*
X0411045Y0028678D01*
X0410930Y0028697D01*
X0410813Y0028711D01*
X0410697Y0028722D01*
X0410580Y0028729D01*
X0410463Y0028733D01*
X0410463Y0028734D02*
X0410406Y0028733D01*
X0410348Y0028728D01*
X0410291Y0028719D01*
X0410235Y0028706D01*
X0410180Y0028690D01*
X0410126Y0028670D01*
X0410074Y0028646D01*
X0410023Y0028619D01*
X0409975Y0028588D01*
X0409928Y0028554D01*
X0409884Y0028517D01*
X0409842Y0028477D01*
X0409804Y0028435D01*
X0409768Y0028390D01*
X0409735Y0028342D01*
X0409706Y0028293D01*
X0409680Y0028242D01*
X0409657Y0028189D01*
X0409639Y0028134D01*
X0409624Y0028079D01*
X0409612Y0028022D01*
X0409605Y0027965D01*
X0409601Y0027908D01*
X0409602Y0027850D01*
X0409606Y0027793D01*
X0409614Y0027736D01*
X0409626Y0027680D01*
X0409642Y0027624D01*
X0409661Y0027570D01*
X0409684Y0027518D01*
X0409711Y0027467D01*
X0409741Y0027417D01*
X0409774Y0027370D01*
X0409810Y0027326D01*
X0409849Y0027284D01*
X0409891Y0027244D01*
X0409936Y0027208D01*
X0409983Y0027175D01*
X0410032Y0027145D01*
X0410083Y0027118D01*
X0410135Y0027095D01*
X0409644Y0025128D02*
X0409778Y0025082D01*
X0409913Y0025039D01*
X0410049Y0025000D01*
X0410186Y0024964D01*
X0410323Y0024932D01*
X0410462Y0024903D01*
X0410601Y0024877D01*
X0410741Y0024856D01*
X0410882Y0024837D01*
X0411022Y0024823D01*
X0411164Y0024812D01*
X0411305Y0024804D01*
X0411447Y0024801D01*
X0414988Y0025783D02*
X0414988Y0027750D01*
X0414990Y0027812D01*
X0414996Y0027873D01*
X0415005Y0027934D01*
X0415019Y0027994D01*
X0415036Y0028054D01*
X0415057Y0028112D01*
X0415082Y0028169D01*
X0415110Y0028224D01*
X0415141Y0028277D01*
X0415176Y0028328D01*
X0415214Y0028377D01*
X0415254Y0028423D01*
X0415298Y0028467D01*
X0415344Y0028507D01*
X0415393Y0028545D01*
X0415444Y0028580D01*
X0415497Y0028611D01*
X0415552Y0028639D01*
X0415609Y0028664D01*
X0415667Y0028685D01*
X0415727Y0028702D01*
X0415787Y0028716D01*
X0415848Y0028725D01*
X0415909Y0028731D01*
X0415971Y0028733D01*
X0417282Y0028733D01*
X0419695Y0027422D02*
X0419695Y0026111D01*
X0419696Y0026111D02*
X0419698Y0026040D01*
X0419704Y0025969D01*
X0419713Y0025899D01*
X0419727Y0025829D01*
X0419744Y0025760D01*
X0419765Y0025692D01*
X0419789Y0025626D01*
X0419817Y0025561D01*
X0419849Y0025497D01*
X0419884Y0025435D01*
X0419922Y0025375D01*
X0419963Y0025318D01*
X0420008Y0025262D01*
X0420055Y0025209D01*
X0420105Y0025159D01*
X0420158Y0025112D01*
X0420214Y0025067D01*
X0420271Y0025026D01*
X0420331Y0024988D01*
X0420393Y0024953D01*
X0420457Y0024921D01*
X0420522Y0024893D01*
X0420588Y0024869D01*
X0420656Y0024848D01*
X0420725Y0024831D01*
X0420795Y0024817D01*
X0420865Y0024808D01*
X0420936Y0024802D01*
X0421007Y0024800D01*
X0421078Y0024802D01*
X0421149Y0024808D01*
X0421219Y0024817D01*
X0421289Y0024831D01*
X0421358Y0024848D01*
X0421426Y0024869D01*
X0421492Y0024893D01*
X0421557Y0024921D01*
X0421621Y0024953D01*
X0421683Y0024988D01*
X0421743Y0025026D01*
X0421800Y0025067D01*
X0421856Y0025112D01*
X0421909Y0025159D01*
X0421959Y0025209D01*
X0422006Y0025262D01*
X0422051Y0025318D01*
X0422092Y0025375D01*
X0422130Y0025435D01*
X0422165Y0025497D01*
X0422197Y0025561D01*
X0422225Y0025626D01*
X0422249Y0025692D01*
X0422270Y0025760D01*
X0422287Y0025829D01*
X0422301Y0025899D01*
X0422310Y0025969D01*
X0422316Y0026040D01*
X0422318Y0026111D01*
X0422318Y0027422D01*
X0422316Y0027493D01*
X0422310Y0027564D01*
X0422301Y0027634D01*
X0422287Y0027704D01*
X0422270Y0027773D01*
X0422249Y0027841D01*
X0422225Y0027907D01*
X0422197Y0027972D01*
X0422165Y0028036D01*
X0422130Y0028098D01*
X0422092Y0028158D01*
X0422051Y0028215D01*
X0422006Y0028271D01*
X0421959Y0028324D01*
X0421909Y0028374D01*
X0421856Y0028421D01*
X0421800Y0028466D01*
X0421743Y0028507D01*
X0421683Y0028545D01*
X0421621Y0028580D01*
X0421557Y0028612D01*
X0421492Y0028640D01*
X0421426Y0028664D01*
X0421358Y0028685D01*
X0421289Y0028702D01*
X0421219Y0028716D01*
X0421149Y0028725D01*
X0421078Y0028731D01*
X0421007Y0028733D01*
X0420936Y0028731D01*
X0420865Y0028725D01*
X0420795Y0028716D01*
X0420725Y0028702D01*
X0420656Y0028685D01*
X0420588Y0028664D01*
X0420522Y0028640D01*
X0420457Y0028612D01*
X0420393Y0028580D01*
X0420331Y0028545D01*
X0420271Y0028507D01*
X0420214Y0028466D01*
X0420158Y0028421D01*
X0420105Y0028374D01*
X0420055Y0028324D01*
X0420008Y0028271D01*
X0419963Y0028215D01*
X0419922Y0028158D01*
X0419884Y0028098D01*
X0419849Y0028036D01*
X0419817Y0027972D01*
X0419789Y0027907D01*
X0419765Y0027841D01*
X0419744Y0027773D01*
X0419727Y0027704D01*
X0419713Y0027634D01*
X0419704Y0027564D01*
X0419698Y0027493D01*
X0419696Y0027422D01*
X0417282Y0024800D02*
X0415971Y0024800D01*
X0415909Y0024802D01*
X0415848Y0024808D01*
X0415787Y0024817D01*
X0415727Y0024831D01*
X0415667Y0024848D01*
X0415609Y0024869D01*
X0415552Y0024894D01*
X0415497Y0024922D01*
X0415444Y0024953D01*
X0415393Y0024988D01*
X0415344Y0025026D01*
X0415298Y0025066D01*
X0415254Y0025110D01*
X0415214Y0025156D01*
X0415176Y0025205D01*
X0415141Y0025256D01*
X0415110Y0025309D01*
X0415082Y0025364D01*
X0415057Y0025421D01*
X0415036Y0025479D01*
X0415019Y0025539D01*
X0415005Y0025599D01*
X0414996Y0025660D01*
X0414990Y0025721D01*
X0414988Y0025783D01*
X0425284Y0024800D02*
X0425284Y0028733D01*
X0427251Y0028733D01*
X0427251Y0028078D01*
X0429337Y0027422D02*
X0429337Y0025783D01*
X0429339Y0025721D01*
X0429345Y0025660D01*
X0429354Y0025599D01*
X0429368Y0025539D01*
X0429385Y0025479D01*
X0429406Y0025421D01*
X0429431Y0025364D01*
X0429459Y0025309D01*
X0429490Y0025256D01*
X0429525Y0025205D01*
X0429563Y0025156D01*
X0429603Y0025110D01*
X0429647Y0025066D01*
X0429693Y0025026D01*
X0429742Y0024988D01*
X0429793Y0024953D01*
X0429846Y0024922D01*
X0429901Y0024894D01*
X0429958Y0024869D01*
X0430016Y0024848D01*
X0430076Y0024831D01*
X0430136Y0024817D01*
X0430197Y0024808D01*
X0430258Y0024802D01*
X0430320Y0024800D01*
X0431959Y0024800D01*
X0431959Y0026767D02*
X0429337Y0026767D01*
X0429337Y0027422D02*
X0429339Y0027493D01*
X0429345Y0027564D01*
X0429354Y0027634D01*
X0429368Y0027704D01*
X0429385Y0027773D01*
X0429406Y0027841D01*
X0429430Y0027907D01*
X0429458Y0027972D01*
X0429490Y0028036D01*
X0429525Y0028098D01*
X0429563Y0028158D01*
X0429604Y0028215D01*
X0429649Y0028271D01*
X0429696Y0028324D01*
X0429746Y0028374D01*
X0429799Y0028421D01*
X0429855Y0028466D01*
X0429912Y0028507D01*
X0429972Y0028545D01*
X0430034Y0028580D01*
X0430098Y0028612D01*
X0430163Y0028640D01*
X0430229Y0028664D01*
X0430297Y0028685D01*
X0430366Y0028702D01*
X0430436Y0028716D01*
X0430506Y0028725D01*
X0430577Y0028731D01*
X0430648Y0028733D01*
X0430719Y0028731D01*
X0430790Y0028725D01*
X0430860Y0028716D01*
X0430930Y0028702D01*
X0430999Y0028685D01*
X0431067Y0028664D01*
X0431133Y0028640D01*
X0431198Y0028612D01*
X0431262Y0028580D01*
X0431324Y0028545D01*
X0431384Y0028507D01*
X0431441Y0028466D01*
X0431497Y0028421D01*
X0431550Y0028374D01*
X0431600Y0028324D01*
X0431647Y0028271D01*
X0431692Y0028215D01*
X0431733Y0028158D01*
X0431771Y0028098D01*
X0431806Y0028036D01*
X0431838Y0027972D01*
X0431866Y0027907D01*
X0431890Y0027841D01*
X0431911Y0027773D01*
X0431928Y0027704D01*
X0431942Y0027634D01*
X0431951Y0027564D01*
X0431957Y0027493D01*
X0431959Y0027422D01*
X0431959Y0026767D01*
X0431959Y0126800D02*
X0430320Y0126800D01*
X0430258Y0126802D01*
X0430197Y0126808D01*
X0430136Y0126817D01*
X0430076Y0126831D01*
X0430016Y0126848D01*
X0429958Y0126869D01*
X0429901Y0126894D01*
X0429846Y0126922D01*
X0429793Y0126953D01*
X0429742Y0126988D01*
X0429693Y0127026D01*
X0429647Y0127066D01*
X0429603Y0127110D01*
X0429563Y0127156D01*
X0429525Y0127205D01*
X0429490Y0127256D01*
X0429459Y0127309D01*
X0429431Y0127364D01*
X0429406Y0127421D01*
X0429385Y0127479D01*
X0429368Y0127539D01*
X0429354Y0127599D01*
X0429345Y0127660D01*
X0429339Y0127721D01*
X0429337Y0127783D01*
X0429337Y0129422D01*
X0429337Y0128767D02*
X0431959Y0128767D01*
X0431959Y0129422D01*
X0431957Y0129493D01*
X0431951Y0129564D01*
X0431942Y0129634D01*
X0431928Y0129704D01*
X0431911Y0129773D01*
X0431890Y0129841D01*
X0431866Y0129907D01*
X0431838Y0129972D01*
X0431806Y0130036D01*
X0431771Y0130098D01*
X0431733Y0130158D01*
X0431692Y0130215D01*
X0431647Y0130271D01*
X0431600Y0130324D01*
X0431550Y0130374D01*
X0431497Y0130421D01*
X0431441Y0130466D01*
X0431384Y0130507D01*
X0431324Y0130545D01*
X0431262Y0130580D01*
X0431198Y0130612D01*
X0431133Y0130640D01*
X0431067Y0130664D01*
X0430999Y0130685D01*
X0430930Y0130702D01*
X0430860Y0130716D01*
X0430790Y0130725D01*
X0430719Y0130731D01*
X0430648Y0130733D01*
X0430577Y0130731D01*
X0430506Y0130725D01*
X0430436Y0130716D01*
X0430366Y0130702D01*
X0430297Y0130685D01*
X0430229Y0130664D01*
X0430163Y0130640D01*
X0430098Y0130612D01*
X0430034Y0130580D01*
X0429972Y0130545D01*
X0429912Y0130507D01*
X0429855Y0130466D01*
X0429799Y0130421D01*
X0429746Y0130374D01*
X0429696Y0130324D01*
X0429649Y0130271D01*
X0429604Y0130215D01*
X0429563Y0130158D01*
X0429525Y0130098D01*
X0429490Y0130036D01*
X0429458Y0129972D01*
X0429430Y0129907D01*
X0429406Y0129841D01*
X0429385Y0129773D01*
X0429368Y0129704D01*
X0429354Y0129634D01*
X0429345Y0129564D01*
X0429339Y0129493D01*
X0429337Y0129422D01*
X0427251Y0130078D02*
X0427251Y0130733D01*
X0425284Y0130733D01*
X0425284Y0126800D01*
X0422318Y0128111D02*
X0422318Y0129422D01*
X0422316Y0129493D01*
X0422310Y0129564D01*
X0422301Y0129634D01*
X0422287Y0129704D01*
X0422270Y0129773D01*
X0422249Y0129841D01*
X0422225Y0129907D01*
X0422197Y0129972D01*
X0422165Y0130036D01*
X0422130Y0130098D01*
X0422092Y0130158D01*
X0422051Y0130215D01*
X0422006Y0130271D01*
X0421959Y0130324D01*
X0421909Y0130374D01*
X0421856Y0130421D01*
X0421800Y0130466D01*
X0421743Y0130507D01*
X0421683Y0130545D01*
X0421621Y0130580D01*
X0421557Y0130612D01*
X0421492Y0130640D01*
X0421426Y0130664D01*
X0421358Y0130685D01*
X0421289Y0130702D01*
X0421219Y0130716D01*
X0421149Y0130725D01*
X0421078Y0130731D01*
X0421007Y0130733D01*
X0420936Y0130731D01*
X0420865Y0130725D01*
X0420795Y0130716D01*
X0420725Y0130702D01*
X0420656Y0130685D01*
X0420588Y0130664D01*
X0420522Y0130640D01*
X0420457Y0130612D01*
X0420393Y0130580D01*
X0420331Y0130545D01*
X0420271Y0130507D01*
X0420214Y0130466D01*
X0420158Y0130421D01*
X0420105Y0130374D01*
X0420055Y0130324D01*
X0420008Y0130271D01*
X0419963Y0130215D01*
X0419922Y0130158D01*
X0419884Y0130098D01*
X0419849Y0130036D01*
X0419817Y0129972D01*
X0419789Y0129907D01*
X0419765Y0129841D01*
X0419744Y0129773D01*
X0419727Y0129704D01*
X0419713Y0129634D01*
X0419704Y0129564D01*
X0419698Y0129493D01*
X0419696Y0129422D01*
X0419695Y0129422D02*
X0419695Y0128111D01*
X0419696Y0128111D02*
X0419698Y0128040D01*
X0419704Y0127969D01*
X0419713Y0127899D01*
X0419727Y0127829D01*
X0419744Y0127760D01*
X0419765Y0127692D01*
X0419789Y0127626D01*
X0419817Y0127561D01*
X0419849Y0127497D01*
X0419884Y0127435D01*
X0419922Y0127375D01*
X0419963Y0127318D01*
X0420008Y0127262D01*
X0420055Y0127209D01*
X0420105Y0127159D01*
X0420158Y0127112D01*
X0420214Y0127067D01*
X0420271Y0127026D01*
X0420331Y0126988D01*
X0420393Y0126953D01*
X0420457Y0126921D01*
X0420522Y0126893D01*
X0420588Y0126869D01*
X0420656Y0126848D01*
X0420725Y0126831D01*
X0420795Y0126817D01*
X0420865Y0126808D01*
X0420936Y0126802D01*
X0421007Y0126800D01*
X0421078Y0126802D01*
X0421149Y0126808D01*
X0421219Y0126817D01*
X0421289Y0126831D01*
X0421358Y0126848D01*
X0421426Y0126869D01*
X0421492Y0126893D01*
X0421557Y0126921D01*
X0421621Y0126953D01*
X0421683Y0126988D01*
X0421743Y0127026D01*
X0421800Y0127067D01*
X0421856Y0127112D01*
X0421909Y0127159D01*
X0421959Y0127209D01*
X0422006Y0127262D01*
X0422051Y0127318D01*
X0422092Y0127375D01*
X0422130Y0127435D01*
X0422165Y0127497D01*
X0422197Y0127561D01*
X0422225Y0127626D01*
X0422249Y0127692D01*
X0422270Y0127760D01*
X0422287Y0127829D01*
X0422301Y0127899D01*
X0422310Y0127969D01*
X0422316Y0128040D01*
X0422318Y0128111D01*
X0417282Y0126800D02*
X0415971Y0126800D01*
X0415909Y0126802D01*
X0415848Y0126808D01*
X0415787Y0126817D01*
X0415727Y0126831D01*
X0415667Y0126848D01*
X0415609Y0126869D01*
X0415552Y0126894D01*
X0415497Y0126922D01*
X0415444Y0126953D01*
X0415393Y0126988D01*
X0415344Y0127026D01*
X0415298Y0127066D01*
X0415254Y0127110D01*
X0415214Y0127156D01*
X0415176Y0127205D01*
X0415141Y0127256D01*
X0415110Y0127309D01*
X0415082Y0127364D01*
X0415057Y0127421D01*
X0415036Y0127479D01*
X0415019Y0127539D01*
X0415005Y0127599D01*
X0414996Y0127660D01*
X0414990Y0127721D01*
X0414988Y0127783D01*
X0414988Y0129750D01*
X0414990Y0129812D01*
X0414996Y0129873D01*
X0415005Y0129934D01*
X0415019Y0129994D01*
X0415036Y0130054D01*
X0415057Y0130112D01*
X0415082Y0130169D01*
X0415110Y0130224D01*
X0415141Y0130277D01*
X0415176Y0130328D01*
X0415214Y0130377D01*
X0415254Y0130423D01*
X0415298Y0130467D01*
X0415344Y0130507D01*
X0415393Y0130545D01*
X0415444Y0130580D01*
X0415497Y0130611D01*
X0415552Y0130639D01*
X0415609Y0130664D01*
X0415667Y0130685D01*
X0415727Y0130702D01*
X0415787Y0130716D01*
X0415848Y0130725D01*
X0415909Y0130731D01*
X0415971Y0130733D01*
X0417282Y0130733D01*
X0411774Y0128439D02*
X0410136Y0129094D01*
X0410135Y0129095D02*
X0410083Y0129118D01*
X0410032Y0129145D01*
X0409983Y0129175D01*
X0409936Y0129208D01*
X0409891Y0129244D01*
X0409849Y0129284D01*
X0409810Y0129326D01*
X0409774Y0129370D01*
X0409741Y0129417D01*
X0409711Y0129467D01*
X0409684Y0129518D01*
X0409661Y0129570D01*
X0409642Y0129624D01*
X0409626Y0129680D01*
X0409614Y0129736D01*
X0409606Y0129793D01*
X0409602Y0129850D01*
X0409601Y0129908D01*
X0409605Y0129965D01*
X0409612Y0130022D01*
X0409624Y0130079D01*
X0409639Y0130134D01*
X0409657Y0130189D01*
X0409680Y0130242D01*
X0409706Y0130293D01*
X0409735Y0130342D01*
X0409768Y0130390D01*
X0409804Y0130435D01*
X0409842Y0130477D01*
X0409884Y0130517D01*
X0409928Y0130554D01*
X0409975Y0130588D01*
X0410023Y0130619D01*
X0410074Y0130646D01*
X0410126Y0130670D01*
X0410180Y0130690D01*
X0410235Y0130706D01*
X0410291Y0130719D01*
X0410348Y0130728D01*
X0410406Y0130733D01*
X0410463Y0130734D01*
X0409644Y0127128D02*
X0409778Y0127082D01*
X0409913Y0127039D01*
X0410049Y0127000D01*
X0410186Y0126964D01*
X0410323Y0126932D01*
X0410462Y0126903D01*
X0410601Y0126877D01*
X0410741Y0126856D01*
X0410882Y0126837D01*
X0411022Y0126823D01*
X0411164Y0126812D01*
X0411305Y0126804D01*
X0411447Y0126801D01*
X0411447Y0126800D02*
X0411504Y0126801D01*
X0411562Y0126806D01*
X0411619Y0126815D01*
X0411675Y0126828D01*
X0411730Y0126844D01*
X0411784Y0126864D01*
X0411836Y0126888D01*
X0411887Y0126915D01*
X0411935Y0126946D01*
X0411982Y0126980D01*
X0412026Y0127017D01*
X0412068Y0127057D01*
X0412106Y0127099D01*
X0412142Y0127144D01*
X0412175Y0127192D01*
X0412204Y0127241D01*
X0412230Y0127292D01*
X0412253Y0127345D01*
X0412271Y0127400D01*
X0412286Y0127455D01*
X0412298Y0127512D01*
X0412305Y0127569D01*
X0412309Y0127626D01*
X0412308Y0127684D01*
X0412304Y0127741D01*
X0412296Y0127798D01*
X0412284Y0127854D01*
X0412268Y0127910D01*
X0412249Y0127964D01*
X0412226Y0128016D01*
X0412199Y0128067D01*
X0412169Y0128117D01*
X0412136Y0128164D01*
X0412100Y0128208D01*
X0412061Y0128250D01*
X0412019Y0128290D01*
X0411974Y0128326D01*
X0411927Y0128359D01*
X0411878Y0128389D01*
X0411827Y0128416D01*
X0411775Y0128439D01*
X0411938Y0130405D02*
X0411831Y0130451D01*
X0411722Y0130494D01*
X0411612Y0130534D01*
X0411500Y0130570D01*
X0411388Y0130602D01*
X0411274Y0130631D01*
X0411160Y0130657D01*
X0411045Y0130678D01*
X0410930Y0130697D01*
X0410813Y0130711D01*
X0410697Y0130722D01*
X0410580Y0130729D01*
X0410463Y0130733D01*
X0406768Y0129094D02*
X0402834Y0129094D01*
X0400163Y0130733D02*
X0398852Y0126800D01*
X0397541Y0130733D01*
X0398852Y0228800D02*
X0400163Y0232733D01*
X0397541Y0232733D02*
X0398852Y0228800D01*
X0402834Y0231094D02*
X0406768Y0231094D01*
X0410136Y0231094D02*
X0411774Y0230439D01*
X0411775Y0230439D02*
X0411827Y0230416D01*
X0411878Y0230389D01*
X0411927Y0230359D01*
X0411974Y0230326D01*
X0412019Y0230290D01*
X0412061Y0230250D01*
X0412100Y0230208D01*
X0412136Y0230164D01*
X0412169Y0230117D01*
X0412199Y0230067D01*
X0412226Y0230016D01*
X0412249Y0229964D01*
X0412268Y0229910D01*
X0412284Y0229854D01*
X0412296Y0229798D01*
X0412304Y0229741D01*
X0412308Y0229684D01*
X0412309Y0229626D01*
X0412305Y0229569D01*
X0412298Y0229512D01*
X0412286Y0229455D01*
X0412271Y0229400D01*
X0412253Y0229345D01*
X0412230Y0229292D01*
X0412204Y0229241D01*
X0412175Y0229192D01*
X0412142Y0229144D01*
X0412106Y0229099D01*
X0412068Y0229057D01*
X0412026Y0229017D01*
X0411982Y0228980D01*
X0411935Y0228946D01*
X0411887Y0228915D01*
X0411836Y0228888D01*
X0411784Y0228864D01*
X0411730Y0228844D01*
X0411675Y0228828D01*
X0411619Y0228815D01*
X0411562Y0228806D01*
X0411504Y0228801D01*
X0411447Y0228800D01*
X0411938Y0232405D02*
X0411831Y0232451D01*
X0411722Y0232494D01*
X0411612Y0232534D01*
X0411500Y0232570D01*
X0411388Y0232602D01*
X0411274Y0232631D01*
X0411160Y0232657D01*
X0411045Y0232678D01*
X0410930Y0232697D01*
X0410813Y0232711D01*
X0410697Y0232722D01*
X0410580Y0232729D01*
X0410463Y0232733D01*
X0410463Y0232734D02*
X0410406Y0232733D01*
X0410348Y0232728D01*
X0410291Y0232719D01*
X0410235Y0232706D01*
X0410180Y0232690D01*
X0410126Y0232670D01*
X0410074Y0232646D01*
X0410023Y0232619D01*
X0409975Y0232588D01*
X0409928Y0232554D01*
X0409884Y0232517D01*
X0409842Y0232477D01*
X0409804Y0232435D01*
X0409768Y0232390D01*
X0409735Y0232342D01*
X0409706Y0232293D01*
X0409680Y0232242D01*
X0409657Y0232189D01*
X0409639Y0232134D01*
X0409624Y0232079D01*
X0409612Y0232022D01*
X0409605Y0231965D01*
X0409601Y0231908D01*
X0409602Y0231850D01*
X0409606Y0231793D01*
X0409614Y0231736D01*
X0409626Y0231680D01*
X0409642Y0231624D01*
X0409661Y0231570D01*
X0409684Y0231518D01*
X0409711Y0231467D01*
X0409741Y0231417D01*
X0409774Y0231370D01*
X0409810Y0231326D01*
X0409849Y0231284D01*
X0409891Y0231244D01*
X0409936Y0231208D01*
X0409983Y0231175D01*
X0410032Y0231145D01*
X0410083Y0231118D01*
X0410135Y0231095D01*
X0409644Y0229128D02*
X0409778Y0229082D01*
X0409913Y0229039D01*
X0410049Y0229000D01*
X0410186Y0228964D01*
X0410323Y0228932D01*
X0410462Y0228903D01*
X0410601Y0228877D01*
X0410741Y0228856D01*
X0410882Y0228837D01*
X0411022Y0228823D01*
X0411164Y0228812D01*
X0411305Y0228804D01*
X0411447Y0228801D01*
X0414988Y0229783D02*
X0414988Y0231750D01*
X0414990Y0231812D01*
X0414996Y0231873D01*
X0415005Y0231934D01*
X0415019Y0231994D01*
X0415036Y0232054D01*
X0415057Y0232112D01*
X0415082Y0232169D01*
X0415110Y0232224D01*
X0415141Y0232277D01*
X0415176Y0232328D01*
X0415214Y0232377D01*
X0415254Y0232423D01*
X0415298Y0232467D01*
X0415344Y0232507D01*
X0415393Y0232545D01*
X0415444Y0232580D01*
X0415497Y0232611D01*
X0415552Y0232639D01*
X0415609Y0232664D01*
X0415667Y0232685D01*
X0415727Y0232702D01*
X0415787Y0232716D01*
X0415848Y0232725D01*
X0415909Y0232731D01*
X0415971Y0232733D01*
X0417282Y0232733D01*
X0419695Y0231422D02*
X0419695Y0230111D01*
X0419696Y0230111D02*
X0419698Y0230040D01*
X0419704Y0229969D01*
X0419713Y0229899D01*
X0419727Y0229829D01*
X0419744Y0229760D01*
X0419765Y0229692D01*
X0419789Y0229626D01*
X0419817Y0229561D01*
X0419849Y0229497D01*
X0419884Y0229435D01*
X0419922Y0229375D01*
X0419963Y0229318D01*
X0420008Y0229262D01*
X0420055Y0229209D01*
X0420105Y0229159D01*
X0420158Y0229112D01*
X0420214Y0229067D01*
X0420271Y0229026D01*
X0420331Y0228988D01*
X0420393Y0228953D01*
X0420457Y0228921D01*
X0420522Y0228893D01*
X0420588Y0228869D01*
X0420656Y0228848D01*
X0420725Y0228831D01*
X0420795Y0228817D01*
X0420865Y0228808D01*
X0420936Y0228802D01*
X0421007Y0228800D01*
X0421078Y0228802D01*
X0421149Y0228808D01*
X0421219Y0228817D01*
X0421289Y0228831D01*
X0421358Y0228848D01*
X0421426Y0228869D01*
X0421492Y0228893D01*
X0421557Y0228921D01*
X0421621Y0228953D01*
X0421683Y0228988D01*
X0421743Y0229026D01*
X0421800Y0229067D01*
X0421856Y0229112D01*
X0421909Y0229159D01*
X0421959Y0229209D01*
X0422006Y0229262D01*
X0422051Y0229318D01*
X0422092Y0229375D01*
X0422130Y0229435D01*
X0422165Y0229497D01*
X0422197Y0229561D01*
X0422225Y0229626D01*
X0422249Y0229692D01*
X0422270Y0229760D01*
X0422287Y0229829D01*
X0422301Y0229899D01*
X0422310Y0229969D01*
X0422316Y0230040D01*
X0422318Y0230111D01*
X0422318Y0231422D01*
X0422316Y0231493D01*
X0422310Y0231564D01*
X0422301Y0231634D01*
X0422287Y0231704D01*
X0422270Y0231773D01*
X0422249Y0231841D01*
X0422225Y0231907D01*
X0422197Y0231972D01*
X0422165Y0232036D01*
X0422130Y0232098D01*
X0422092Y0232158D01*
X0422051Y0232215D01*
X0422006Y0232271D01*
X0421959Y0232324D01*
X0421909Y0232374D01*
X0421856Y0232421D01*
X0421800Y0232466D01*
X0421743Y0232507D01*
X0421683Y0232545D01*
X0421621Y0232580D01*
X0421557Y0232612D01*
X0421492Y0232640D01*
X0421426Y0232664D01*
X0421358Y0232685D01*
X0421289Y0232702D01*
X0421219Y0232716D01*
X0421149Y0232725D01*
X0421078Y0232731D01*
X0421007Y0232733D01*
X0420936Y0232731D01*
X0420865Y0232725D01*
X0420795Y0232716D01*
X0420725Y0232702D01*
X0420656Y0232685D01*
X0420588Y0232664D01*
X0420522Y0232640D01*
X0420457Y0232612D01*
X0420393Y0232580D01*
X0420331Y0232545D01*
X0420271Y0232507D01*
X0420214Y0232466D01*
X0420158Y0232421D01*
X0420105Y0232374D01*
X0420055Y0232324D01*
X0420008Y0232271D01*
X0419963Y0232215D01*
X0419922Y0232158D01*
X0419884Y0232098D01*
X0419849Y0232036D01*
X0419817Y0231972D01*
X0419789Y0231907D01*
X0419765Y0231841D01*
X0419744Y0231773D01*
X0419727Y0231704D01*
X0419713Y0231634D01*
X0419704Y0231564D01*
X0419698Y0231493D01*
X0419696Y0231422D01*
X0417282Y0228800D02*
X0415971Y0228800D01*
X0415909Y0228802D01*
X0415848Y0228808D01*
X0415787Y0228817D01*
X0415727Y0228831D01*
X0415667Y0228848D01*
X0415609Y0228869D01*
X0415552Y0228894D01*
X0415497Y0228922D01*
X0415444Y0228953D01*
X0415393Y0228988D01*
X0415344Y0229026D01*
X0415298Y0229066D01*
X0415254Y0229110D01*
X0415214Y0229156D01*
X0415176Y0229205D01*
X0415141Y0229256D01*
X0415110Y0229309D01*
X0415082Y0229364D01*
X0415057Y0229421D01*
X0415036Y0229479D01*
X0415019Y0229539D01*
X0415005Y0229599D01*
X0414996Y0229660D01*
X0414990Y0229721D01*
X0414988Y0229783D01*
X0425284Y0228800D02*
X0425284Y0232733D01*
X0427251Y0232733D01*
X0427251Y0232078D01*
X0429337Y0231422D02*
X0429337Y0229783D01*
X0429339Y0229721D01*
X0429345Y0229660D01*
X0429354Y0229599D01*
X0429368Y0229539D01*
X0429385Y0229479D01*
X0429406Y0229421D01*
X0429431Y0229364D01*
X0429459Y0229309D01*
X0429490Y0229256D01*
X0429525Y0229205D01*
X0429563Y0229156D01*
X0429603Y0229110D01*
X0429647Y0229066D01*
X0429693Y0229026D01*
X0429742Y0228988D01*
X0429793Y0228953D01*
X0429846Y0228922D01*
X0429901Y0228894D01*
X0429958Y0228869D01*
X0430016Y0228848D01*
X0430076Y0228831D01*
X0430136Y0228817D01*
X0430197Y0228808D01*
X0430258Y0228802D01*
X0430320Y0228800D01*
X0431959Y0228800D01*
X0431959Y0230767D02*
X0429337Y0230767D01*
X0429337Y0231422D02*
X0429339Y0231493D01*
X0429345Y0231564D01*
X0429354Y0231634D01*
X0429368Y0231704D01*
X0429385Y0231773D01*
X0429406Y0231841D01*
X0429430Y0231907D01*
X0429458Y0231972D01*
X0429490Y0232036D01*
X0429525Y0232098D01*
X0429563Y0232158D01*
X0429604Y0232215D01*
X0429649Y0232271D01*
X0429696Y0232324D01*
X0429746Y0232374D01*
X0429799Y0232421D01*
X0429855Y0232466D01*
X0429912Y0232507D01*
X0429972Y0232545D01*
X0430034Y0232580D01*
X0430098Y0232612D01*
X0430163Y0232640D01*
X0430229Y0232664D01*
X0430297Y0232685D01*
X0430366Y0232702D01*
X0430436Y0232716D01*
X0430506Y0232725D01*
X0430577Y0232731D01*
X0430648Y0232733D01*
X0430719Y0232731D01*
X0430790Y0232725D01*
X0430860Y0232716D01*
X0430930Y0232702D01*
X0430999Y0232685D01*
X0431067Y0232664D01*
X0431133Y0232640D01*
X0431198Y0232612D01*
X0431262Y0232580D01*
X0431324Y0232545D01*
X0431384Y0232507D01*
X0431441Y0232466D01*
X0431497Y0232421D01*
X0431550Y0232374D01*
X0431600Y0232324D01*
X0431647Y0232271D01*
X0431692Y0232215D01*
X0431733Y0232158D01*
X0431771Y0232098D01*
X0431806Y0232036D01*
X0431838Y0231972D01*
X0431866Y0231907D01*
X0431890Y0231841D01*
X0431911Y0231773D01*
X0431928Y0231704D01*
X0431942Y0231634D01*
X0431951Y0231564D01*
X0431957Y0231493D01*
X0431959Y0231422D01*
X0431959Y0230767D01*
X0431959Y0330800D02*
X0430320Y0330800D01*
X0430258Y0330802D01*
X0430197Y0330808D01*
X0430136Y0330817D01*
X0430076Y0330831D01*
X0430016Y0330848D01*
X0429958Y0330869D01*
X0429901Y0330894D01*
X0429846Y0330922D01*
X0429793Y0330953D01*
X0429742Y0330988D01*
X0429693Y0331026D01*
X0429647Y0331066D01*
X0429603Y0331110D01*
X0429563Y0331156D01*
X0429525Y0331205D01*
X0429490Y0331256D01*
X0429459Y0331309D01*
X0429431Y0331364D01*
X0429406Y0331421D01*
X0429385Y0331479D01*
X0429368Y0331539D01*
X0429354Y0331599D01*
X0429345Y0331660D01*
X0429339Y0331721D01*
X0429337Y0331783D01*
X0429337Y0333422D01*
X0429337Y0332767D02*
X0431959Y0332767D01*
X0431959Y0333422D01*
X0431957Y0333493D01*
X0431951Y0333564D01*
X0431942Y0333634D01*
X0431928Y0333704D01*
X0431911Y0333773D01*
X0431890Y0333841D01*
X0431866Y0333907D01*
X0431838Y0333972D01*
X0431806Y0334036D01*
X0431771Y0334098D01*
X0431733Y0334158D01*
X0431692Y0334215D01*
X0431647Y0334271D01*
X0431600Y0334324D01*
X0431550Y0334374D01*
X0431497Y0334421D01*
X0431441Y0334466D01*
X0431384Y0334507D01*
X0431324Y0334545D01*
X0431262Y0334580D01*
X0431198Y0334612D01*
X0431133Y0334640D01*
X0431067Y0334664D01*
X0430999Y0334685D01*
X0430930Y0334702D01*
X0430860Y0334716D01*
X0430790Y0334725D01*
X0430719Y0334731D01*
X0430648Y0334733D01*
X0430577Y0334731D01*
X0430506Y0334725D01*
X0430436Y0334716D01*
X0430366Y0334702D01*
X0430297Y0334685D01*
X0430229Y0334664D01*
X0430163Y0334640D01*
X0430098Y0334612D01*
X0430034Y0334580D01*
X0429972Y0334545D01*
X0429912Y0334507D01*
X0429855Y0334466D01*
X0429799Y0334421D01*
X0429746Y0334374D01*
X0429696Y0334324D01*
X0429649Y0334271D01*
X0429604Y0334215D01*
X0429563Y0334158D01*
X0429525Y0334098D01*
X0429490Y0334036D01*
X0429458Y0333972D01*
X0429430Y0333907D01*
X0429406Y0333841D01*
X0429385Y0333773D01*
X0429368Y0333704D01*
X0429354Y0333634D01*
X0429345Y0333564D01*
X0429339Y0333493D01*
X0429337Y0333422D01*
X0427251Y0334078D02*
X0427251Y0334733D01*
X0425284Y0334733D01*
X0425284Y0330800D01*
X0422318Y0332111D02*
X0422318Y0333422D01*
X0422316Y0333493D01*
X0422310Y0333564D01*
X0422301Y0333634D01*
X0422287Y0333704D01*
X0422270Y0333773D01*
X0422249Y0333841D01*
X0422225Y0333907D01*
X0422197Y0333972D01*
X0422165Y0334036D01*
X0422130Y0334098D01*
X0422092Y0334158D01*
X0422051Y0334215D01*
X0422006Y0334271D01*
X0421959Y0334324D01*
X0421909Y0334374D01*
X0421856Y0334421D01*
X0421800Y0334466D01*
X0421743Y0334507D01*
X0421683Y0334545D01*
X0421621Y0334580D01*
X0421557Y0334612D01*
X0421492Y0334640D01*
X0421426Y0334664D01*
X0421358Y0334685D01*
X0421289Y0334702D01*
X0421219Y0334716D01*
X0421149Y0334725D01*
X0421078Y0334731D01*
X0421007Y0334733D01*
X0420936Y0334731D01*
X0420865Y0334725D01*
X0420795Y0334716D01*
X0420725Y0334702D01*
X0420656Y0334685D01*
X0420588Y0334664D01*
X0420522Y0334640D01*
X0420457Y0334612D01*
X0420393Y0334580D01*
X0420331Y0334545D01*
X0420271Y0334507D01*
X0420214Y0334466D01*
X0420158Y0334421D01*
X0420105Y0334374D01*
X0420055Y0334324D01*
X0420008Y0334271D01*
X0419963Y0334215D01*
X0419922Y0334158D01*
X0419884Y0334098D01*
X0419849Y0334036D01*
X0419817Y0333972D01*
X0419789Y0333907D01*
X0419765Y0333841D01*
X0419744Y0333773D01*
X0419727Y0333704D01*
X0419713Y0333634D01*
X0419704Y0333564D01*
X0419698Y0333493D01*
X0419696Y0333422D01*
X0419695Y0333422D02*
X0419695Y0332111D01*
X0419696Y0332111D02*
X0419698Y0332040D01*
X0419704Y0331969D01*
X0419713Y0331899D01*
X0419727Y0331829D01*
X0419744Y0331760D01*
X0419765Y0331692D01*
X0419789Y0331626D01*
X0419817Y0331561D01*
X0419849Y0331497D01*
X0419884Y0331435D01*
X0419922Y0331375D01*
X0419963Y0331318D01*
X0420008Y0331262D01*
X0420055Y0331209D01*
X0420105Y0331159D01*
X0420158Y0331112D01*
X0420214Y0331067D01*
X0420271Y0331026D01*
X0420331Y0330988D01*
X0420393Y0330953D01*
X0420457Y0330921D01*
X0420522Y0330893D01*
X0420588Y0330869D01*
X0420656Y0330848D01*
X0420725Y0330831D01*
X0420795Y0330817D01*
X0420865Y0330808D01*
X0420936Y0330802D01*
X0421007Y0330800D01*
X0421078Y0330802D01*
X0421149Y0330808D01*
X0421219Y0330817D01*
X0421289Y0330831D01*
X0421358Y0330848D01*
X0421426Y0330869D01*
X0421492Y0330893D01*
X0421557Y0330921D01*
X0421621Y0330953D01*
X0421683Y0330988D01*
X0421743Y0331026D01*
X0421800Y0331067D01*
X0421856Y0331112D01*
X0421909Y0331159D01*
X0421959Y0331209D01*
X0422006Y0331262D01*
X0422051Y0331318D01*
X0422092Y0331375D01*
X0422130Y0331435D01*
X0422165Y0331497D01*
X0422197Y0331561D01*
X0422225Y0331626D01*
X0422249Y0331692D01*
X0422270Y0331760D01*
X0422287Y0331829D01*
X0422301Y0331899D01*
X0422310Y0331969D01*
X0422316Y0332040D01*
X0422318Y0332111D01*
X0417282Y0330800D02*
X0415971Y0330800D01*
X0415909Y0330802D01*
X0415848Y0330808D01*
X0415787Y0330817D01*
X0415727Y0330831D01*
X0415667Y0330848D01*
X0415609Y0330869D01*
X0415552Y0330894D01*
X0415497Y0330922D01*
X0415444Y0330953D01*
X0415393Y0330988D01*
X0415344Y0331026D01*
X0415298Y0331066D01*
X0415254Y0331110D01*
X0415214Y0331156D01*
X0415176Y0331205D01*
X0415141Y0331256D01*
X0415110Y0331309D01*
X0415082Y0331364D01*
X0415057Y0331421D01*
X0415036Y0331479D01*
X0415019Y0331539D01*
X0415005Y0331599D01*
X0414996Y0331660D01*
X0414990Y0331721D01*
X0414988Y0331783D01*
X0414988Y0333750D01*
X0414990Y0333812D01*
X0414996Y0333873D01*
X0415005Y0333934D01*
X0415019Y0333994D01*
X0415036Y0334054D01*
X0415057Y0334112D01*
X0415082Y0334169D01*
X0415110Y0334224D01*
X0415141Y0334277D01*
X0415176Y0334328D01*
X0415214Y0334377D01*
X0415254Y0334423D01*
X0415298Y0334467D01*
X0415344Y0334507D01*
X0415393Y0334545D01*
X0415444Y0334580D01*
X0415497Y0334611D01*
X0415552Y0334639D01*
X0415609Y0334664D01*
X0415667Y0334685D01*
X0415727Y0334702D01*
X0415787Y0334716D01*
X0415848Y0334725D01*
X0415909Y0334731D01*
X0415971Y0334733D01*
X0417282Y0334733D01*
X0411774Y0332439D02*
X0410136Y0333094D01*
X0410135Y0333095D02*
X0410083Y0333118D01*
X0410032Y0333145D01*
X0409983Y0333175D01*
X0409936Y0333208D01*
X0409891Y0333244D01*
X0409849Y0333284D01*
X0409810Y0333326D01*
X0409774Y0333370D01*
X0409741Y0333417D01*
X0409711Y0333467D01*
X0409684Y0333518D01*
X0409661Y0333570D01*
X0409642Y0333624D01*
X0409626Y0333680D01*
X0409614Y0333736D01*
X0409606Y0333793D01*
X0409602Y0333850D01*
X0409601Y0333908D01*
X0409605Y0333965D01*
X0409612Y0334022D01*
X0409624Y0334079D01*
X0409639Y0334134D01*
X0409657Y0334189D01*
X0409680Y0334242D01*
X0409706Y0334293D01*
X0409735Y0334342D01*
X0409768Y0334390D01*
X0409804Y0334435D01*
X0409842Y0334477D01*
X0409884Y0334517D01*
X0409928Y0334554D01*
X0409975Y0334588D01*
X0410023Y0334619D01*
X0410074Y0334646D01*
X0410126Y0334670D01*
X0410180Y0334690D01*
X0410235Y0334706D01*
X0410291Y0334719D01*
X0410348Y0334728D01*
X0410406Y0334733D01*
X0410463Y0334734D01*
X0409644Y0331128D02*
X0409778Y0331082D01*
X0409913Y0331039D01*
X0410049Y0331000D01*
X0410186Y0330964D01*
X0410323Y0330932D01*
X0410462Y0330903D01*
X0410601Y0330877D01*
X0410741Y0330856D01*
X0410882Y0330837D01*
X0411022Y0330823D01*
X0411164Y0330812D01*
X0411305Y0330804D01*
X0411447Y0330801D01*
X0411447Y0330800D02*
X0411504Y0330801D01*
X0411562Y0330806D01*
X0411619Y0330815D01*
X0411675Y0330828D01*
X0411730Y0330844D01*
X0411784Y0330864D01*
X0411836Y0330888D01*
X0411887Y0330915D01*
X0411935Y0330946D01*
X0411982Y0330980D01*
X0412026Y0331017D01*
X0412068Y0331057D01*
X0412106Y0331099D01*
X0412142Y0331144D01*
X0412175Y0331192D01*
X0412204Y0331241D01*
X0412230Y0331292D01*
X0412253Y0331345D01*
X0412271Y0331400D01*
X0412286Y0331455D01*
X0412298Y0331512D01*
X0412305Y0331569D01*
X0412309Y0331626D01*
X0412308Y0331684D01*
X0412304Y0331741D01*
X0412296Y0331798D01*
X0412284Y0331854D01*
X0412268Y0331910D01*
X0412249Y0331964D01*
X0412226Y0332016D01*
X0412199Y0332067D01*
X0412169Y0332117D01*
X0412136Y0332164D01*
X0412100Y0332208D01*
X0412061Y0332250D01*
X0412019Y0332290D01*
X0411974Y0332326D01*
X0411927Y0332359D01*
X0411878Y0332389D01*
X0411827Y0332416D01*
X0411775Y0332439D01*
X0411938Y0334405D02*
X0411831Y0334451D01*
X0411722Y0334494D01*
X0411612Y0334534D01*
X0411500Y0334570D01*
X0411388Y0334602D01*
X0411274Y0334631D01*
X0411160Y0334657D01*
X0411045Y0334678D01*
X0410930Y0334697D01*
X0410813Y0334711D01*
X0410697Y0334722D01*
X0410580Y0334729D01*
X0410463Y0334733D01*
X0406768Y0333094D02*
X0402834Y0333094D01*
X0400163Y0334733D02*
X0398852Y0330800D01*
X0397541Y0334733D01*
X0350959Y0390800D02*
X0349320Y0390800D01*
X0349258Y0390802D01*
X0349197Y0390808D01*
X0349136Y0390817D01*
X0349076Y0390831D01*
X0349016Y0390848D01*
X0348958Y0390869D01*
X0348901Y0390894D01*
X0348846Y0390922D01*
X0348793Y0390953D01*
X0348742Y0390988D01*
X0348693Y0391026D01*
X0348647Y0391066D01*
X0348603Y0391110D01*
X0348563Y0391156D01*
X0348525Y0391205D01*
X0348490Y0391256D01*
X0348459Y0391309D01*
X0348431Y0391364D01*
X0348406Y0391421D01*
X0348385Y0391479D01*
X0348368Y0391539D01*
X0348354Y0391599D01*
X0348345Y0391660D01*
X0348339Y0391721D01*
X0348337Y0391783D01*
X0348337Y0393422D01*
X0348337Y0392767D02*
X0350959Y0392767D01*
X0350959Y0393422D01*
X0350957Y0393493D01*
X0350951Y0393564D01*
X0350942Y0393634D01*
X0350928Y0393704D01*
X0350911Y0393773D01*
X0350890Y0393841D01*
X0350866Y0393907D01*
X0350838Y0393972D01*
X0350806Y0394036D01*
X0350771Y0394098D01*
X0350733Y0394158D01*
X0350692Y0394215D01*
X0350647Y0394271D01*
X0350600Y0394324D01*
X0350550Y0394374D01*
X0350497Y0394421D01*
X0350441Y0394466D01*
X0350384Y0394507D01*
X0350324Y0394545D01*
X0350262Y0394580D01*
X0350198Y0394612D01*
X0350133Y0394640D01*
X0350067Y0394664D01*
X0349999Y0394685D01*
X0349930Y0394702D01*
X0349860Y0394716D01*
X0349790Y0394725D01*
X0349719Y0394731D01*
X0349648Y0394733D01*
X0349577Y0394731D01*
X0349506Y0394725D01*
X0349436Y0394716D01*
X0349366Y0394702D01*
X0349297Y0394685D01*
X0349229Y0394664D01*
X0349163Y0394640D01*
X0349098Y0394612D01*
X0349034Y0394580D01*
X0348972Y0394545D01*
X0348912Y0394507D01*
X0348855Y0394466D01*
X0348799Y0394421D01*
X0348746Y0394374D01*
X0348696Y0394324D01*
X0348649Y0394271D01*
X0348604Y0394215D01*
X0348563Y0394158D01*
X0348525Y0394098D01*
X0348490Y0394036D01*
X0348458Y0393972D01*
X0348430Y0393907D01*
X0348406Y0393841D01*
X0348385Y0393773D01*
X0348368Y0393704D01*
X0348354Y0393634D01*
X0348345Y0393564D01*
X0348339Y0393493D01*
X0348337Y0393422D01*
X0346251Y0394078D02*
X0346251Y0394733D01*
X0344284Y0394733D01*
X0344284Y0390800D01*
X0341318Y0392111D02*
X0341318Y0393422D01*
X0341316Y0393493D01*
X0341310Y0393564D01*
X0341301Y0393634D01*
X0341287Y0393704D01*
X0341270Y0393773D01*
X0341249Y0393841D01*
X0341225Y0393907D01*
X0341197Y0393972D01*
X0341165Y0394036D01*
X0341130Y0394098D01*
X0341092Y0394158D01*
X0341051Y0394215D01*
X0341006Y0394271D01*
X0340959Y0394324D01*
X0340909Y0394374D01*
X0340856Y0394421D01*
X0340800Y0394466D01*
X0340743Y0394507D01*
X0340683Y0394545D01*
X0340621Y0394580D01*
X0340557Y0394612D01*
X0340492Y0394640D01*
X0340426Y0394664D01*
X0340358Y0394685D01*
X0340289Y0394702D01*
X0340219Y0394716D01*
X0340149Y0394725D01*
X0340078Y0394731D01*
X0340007Y0394733D01*
X0339936Y0394731D01*
X0339865Y0394725D01*
X0339795Y0394716D01*
X0339725Y0394702D01*
X0339656Y0394685D01*
X0339588Y0394664D01*
X0339522Y0394640D01*
X0339457Y0394612D01*
X0339393Y0394580D01*
X0339331Y0394545D01*
X0339271Y0394507D01*
X0339214Y0394466D01*
X0339158Y0394421D01*
X0339105Y0394374D01*
X0339055Y0394324D01*
X0339008Y0394271D01*
X0338963Y0394215D01*
X0338922Y0394158D01*
X0338884Y0394098D01*
X0338849Y0394036D01*
X0338817Y0393972D01*
X0338789Y0393907D01*
X0338765Y0393841D01*
X0338744Y0393773D01*
X0338727Y0393704D01*
X0338713Y0393634D01*
X0338704Y0393564D01*
X0338698Y0393493D01*
X0338696Y0393422D01*
X0338695Y0393422D02*
X0338695Y0392111D01*
X0338696Y0392111D02*
X0338698Y0392040D01*
X0338704Y0391969D01*
X0338713Y0391899D01*
X0338727Y0391829D01*
X0338744Y0391760D01*
X0338765Y0391692D01*
X0338789Y0391626D01*
X0338817Y0391561D01*
X0338849Y0391497D01*
X0338884Y0391435D01*
X0338922Y0391375D01*
X0338963Y0391318D01*
X0339008Y0391262D01*
X0339055Y0391209D01*
X0339105Y0391159D01*
X0339158Y0391112D01*
X0339214Y0391067D01*
X0339271Y0391026D01*
X0339331Y0390988D01*
X0339393Y0390953D01*
X0339457Y0390921D01*
X0339522Y0390893D01*
X0339588Y0390869D01*
X0339656Y0390848D01*
X0339725Y0390831D01*
X0339795Y0390817D01*
X0339865Y0390808D01*
X0339936Y0390802D01*
X0340007Y0390800D01*
X0340078Y0390802D01*
X0340149Y0390808D01*
X0340219Y0390817D01*
X0340289Y0390831D01*
X0340358Y0390848D01*
X0340426Y0390869D01*
X0340492Y0390893D01*
X0340557Y0390921D01*
X0340621Y0390953D01*
X0340683Y0390988D01*
X0340743Y0391026D01*
X0340800Y0391067D01*
X0340856Y0391112D01*
X0340909Y0391159D01*
X0340959Y0391209D01*
X0341006Y0391262D01*
X0341051Y0391318D01*
X0341092Y0391375D01*
X0341130Y0391435D01*
X0341165Y0391497D01*
X0341197Y0391561D01*
X0341225Y0391626D01*
X0341249Y0391692D01*
X0341270Y0391760D01*
X0341287Y0391829D01*
X0341301Y0391899D01*
X0341310Y0391969D01*
X0341316Y0392040D01*
X0341318Y0392111D01*
X0336282Y0390800D02*
X0334971Y0390800D01*
X0334909Y0390802D01*
X0334848Y0390808D01*
X0334787Y0390817D01*
X0334727Y0390831D01*
X0334667Y0390848D01*
X0334609Y0390869D01*
X0334552Y0390894D01*
X0334497Y0390922D01*
X0334444Y0390953D01*
X0334393Y0390988D01*
X0334344Y0391026D01*
X0334298Y0391066D01*
X0334254Y0391110D01*
X0334214Y0391156D01*
X0334176Y0391205D01*
X0334141Y0391256D01*
X0334110Y0391309D01*
X0334082Y0391364D01*
X0334057Y0391421D01*
X0334036Y0391479D01*
X0334019Y0391539D01*
X0334005Y0391599D01*
X0333996Y0391660D01*
X0333990Y0391721D01*
X0333988Y0391783D01*
X0333988Y0393750D01*
X0333990Y0393812D01*
X0333996Y0393873D01*
X0334005Y0393934D01*
X0334019Y0393994D01*
X0334036Y0394054D01*
X0334057Y0394112D01*
X0334082Y0394169D01*
X0334110Y0394224D01*
X0334141Y0394277D01*
X0334176Y0394328D01*
X0334214Y0394377D01*
X0334254Y0394423D01*
X0334298Y0394467D01*
X0334344Y0394507D01*
X0334393Y0394545D01*
X0334444Y0394580D01*
X0334497Y0394611D01*
X0334552Y0394639D01*
X0334609Y0394664D01*
X0334667Y0394685D01*
X0334727Y0394702D01*
X0334787Y0394716D01*
X0334848Y0394725D01*
X0334909Y0394731D01*
X0334971Y0394733D01*
X0336282Y0394733D01*
X0330774Y0392439D02*
X0329136Y0393094D01*
X0329135Y0393095D02*
X0329083Y0393118D01*
X0329032Y0393145D01*
X0328983Y0393175D01*
X0328936Y0393208D01*
X0328891Y0393244D01*
X0328849Y0393284D01*
X0328810Y0393326D01*
X0328774Y0393370D01*
X0328741Y0393417D01*
X0328711Y0393467D01*
X0328684Y0393518D01*
X0328661Y0393570D01*
X0328642Y0393624D01*
X0328626Y0393680D01*
X0328614Y0393736D01*
X0328606Y0393793D01*
X0328602Y0393850D01*
X0328601Y0393908D01*
X0328605Y0393965D01*
X0328612Y0394022D01*
X0328624Y0394079D01*
X0328639Y0394134D01*
X0328657Y0394189D01*
X0328680Y0394242D01*
X0328706Y0394293D01*
X0328735Y0394342D01*
X0328768Y0394390D01*
X0328804Y0394435D01*
X0328842Y0394477D01*
X0328884Y0394517D01*
X0328928Y0394554D01*
X0328975Y0394588D01*
X0329023Y0394619D01*
X0329074Y0394646D01*
X0329126Y0394670D01*
X0329180Y0394690D01*
X0329235Y0394706D01*
X0329291Y0394719D01*
X0329348Y0394728D01*
X0329406Y0394733D01*
X0329463Y0394734D01*
X0328644Y0391128D02*
X0328778Y0391082D01*
X0328913Y0391039D01*
X0329049Y0391000D01*
X0329186Y0390964D01*
X0329323Y0390932D01*
X0329462Y0390903D01*
X0329601Y0390877D01*
X0329741Y0390856D01*
X0329882Y0390837D01*
X0330022Y0390823D01*
X0330164Y0390812D01*
X0330305Y0390804D01*
X0330447Y0390801D01*
X0330447Y0390800D02*
X0330504Y0390801D01*
X0330562Y0390806D01*
X0330619Y0390815D01*
X0330675Y0390828D01*
X0330730Y0390844D01*
X0330784Y0390864D01*
X0330836Y0390888D01*
X0330887Y0390915D01*
X0330935Y0390946D01*
X0330982Y0390980D01*
X0331026Y0391017D01*
X0331068Y0391057D01*
X0331106Y0391099D01*
X0331142Y0391144D01*
X0331175Y0391192D01*
X0331204Y0391241D01*
X0331230Y0391292D01*
X0331253Y0391345D01*
X0331271Y0391400D01*
X0331286Y0391455D01*
X0331298Y0391512D01*
X0331305Y0391569D01*
X0331309Y0391626D01*
X0331308Y0391684D01*
X0331304Y0391741D01*
X0331296Y0391798D01*
X0331284Y0391854D01*
X0331268Y0391910D01*
X0331249Y0391964D01*
X0331226Y0392016D01*
X0331199Y0392067D01*
X0331169Y0392117D01*
X0331136Y0392164D01*
X0331100Y0392208D01*
X0331061Y0392250D01*
X0331019Y0392290D01*
X0330974Y0392326D01*
X0330927Y0392359D01*
X0330878Y0392389D01*
X0330827Y0392416D01*
X0330775Y0392439D01*
X0330938Y0394405D02*
X0330831Y0394451D01*
X0330722Y0394494D01*
X0330612Y0394534D01*
X0330500Y0394570D01*
X0330388Y0394602D01*
X0330274Y0394631D01*
X0330160Y0394657D01*
X0330045Y0394678D01*
X0329930Y0394697D01*
X0329813Y0394711D01*
X0329697Y0394722D01*
X0329580Y0394729D01*
X0329463Y0394733D01*
X0325768Y0393094D02*
X0321834Y0393094D01*
X0319163Y0394733D02*
X0317852Y0390800D01*
X0316541Y0394733D01*
X0248959Y0393422D02*
X0248959Y0392767D01*
X0246337Y0392767D01*
X0246337Y0393422D02*
X0246337Y0391783D01*
X0246339Y0391721D01*
X0246345Y0391660D01*
X0246354Y0391599D01*
X0246368Y0391539D01*
X0246385Y0391479D01*
X0246406Y0391421D01*
X0246431Y0391364D01*
X0246459Y0391309D01*
X0246490Y0391256D01*
X0246525Y0391205D01*
X0246563Y0391156D01*
X0246603Y0391110D01*
X0246647Y0391066D01*
X0246693Y0391026D01*
X0246742Y0390988D01*
X0246793Y0390953D01*
X0246846Y0390922D01*
X0246901Y0390894D01*
X0246958Y0390869D01*
X0247016Y0390848D01*
X0247076Y0390831D01*
X0247136Y0390817D01*
X0247197Y0390808D01*
X0247258Y0390802D01*
X0247320Y0390800D01*
X0248959Y0390800D01*
X0248959Y0393422D02*
X0248957Y0393493D01*
X0248951Y0393564D01*
X0248942Y0393634D01*
X0248928Y0393704D01*
X0248911Y0393773D01*
X0248890Y0393841D01*
X0248866Y0393907D01*
X0248838Y0393972D01*
X0248806Y0394036D01*
X0248771Y0394098D01*
X0248733Y0394158D01*
X0248692Y0394215D01*
X0248647Y0394271D01*
X0248600Y0394324D01*
X0248550Y0394374D01*
X0248497Y0394421D01*
X0248441Y0394466D01*
X0248384Y0394507D01*
X0248324Y0394545D01*
X0248262Y0394580D01*
X0248198Y0394612D01*
X0248133Y0394640D01*
X0248067Y0394664D01*
X0247999Y0394685D01*
X0247930Y0394702D01*
X0247860Y0394716D01*
X0247790Y0394725D01*
X0247719Y0394731D01*
X0247648Y0394733D01*
X0247577Y0394731D01*
X0247506Y0394725D01*
X0247436Y0394716D01*
X0247366Y0394702D01*
X0247297Y0394685D01*
X0247229Y0394664D01*
X0247163Y0394640D01*
X0247098Y0394612D01*
X0247034Y0394580D01*
X0246972Y0394545D01*
X0246912Y0394507D01*
X0246855Y0394466D01*
X0246799Y0394421D01*
X0246746Y0394374D01*
X0246696Y0394324D01*
X0246649Y0394271D01*
X0246604Y0394215D01*
X0246563Y0394158D01*
X0246525Y0394098D01*
X0246490Y0394036D01*
X0246458Y0393972D01*
X0246430Y0393907D01*
X0246406Y0393841D01*
X0246385Y0393773D01*
X0246368Y0393704D01*
X0246354Y0393634D01*
X0246345Y0393564D01*
X0246339Y0393493D01*
X0246337Y0393422D01*
X0244251Y0394078D02*
X0244251Y0394733D01*
X0242284Y0394733D01*
X0242284Y0390800D01*
X0239318Y0392111D02*
X0239318Y0393422D01*
X0239316Y0393493D01*
X0239310Y0393564D01*
X0239301Y0393634D01*
X0239287Y0393704D01*
X0239270Y0393773D01*
X0239249Y0393841D01*
X0239225Y0393907D01*
X0239197Y0393972D01*
X0239165Y0394036D01*
X0239130Y0394098D01*
X0239092Y0394158D01*
X0239051Y0394215D01*
X0239006Y0394271D01*
X0238959Y0394324D01*
X0238909Y0394374D01*
X0238856Y0394421D01*
X0238800Y0394466D01*
X0238743Y0394507D01*
X0238683Y0394545D01*
X0238621Y0394580D01*
X0238557Y0394612D01*
X0238492Y0394640D01*
X0238426Y0394664D01*
X0238358Y0394685D01*
X0238289Y0394702D01*
X0238219Y0394716D01*
X0238149Y0394725D01*
X0238078Y0394731D01*
X0238007Y0394733D01*
X0237936Y0394731D01*
X0237865Y0394725D01*
X0237795Y0394716D01*
X0237725Y0394702D01*
X0237656Y0394685D01*
X0237588Y0394664D01*
X0237522Y0394640D01*
X0237457Y0394612D01*
X0237393Y0394580D01*
X0237331Y0394545D01*
X0237271Y0394507D01*
X0237214Y0394466D01*
X0237158Y0394421D01*
X0237105Y0394374D01*
X0237055Y0394324D01*
X0237008Y0394271D01*
X0236963Y0394215D01*
X0236922Y0394158D01*
X0236884Y0394098D01*
X0236849Y0394036D01*
X0236817Y0393972D01*
X0236789Y0393907D01*
X0236765Y0393841D01*
X0236744Y0393773D01*
X0236727Y0393704D01*
X0236713Y0393634D01*
X0236704Y0393564D01*
X0236698Y0393493D01*
X0236696Y0393422D01*
X0236695Y0393422D02*
X0236695Y0392111D01*
X0236696Y0392111D02*
X0236698Y0392040D01*
X0236704Y0391969D01*
X0236713Y0391899D01*
X0236727Y0391829D01*
X0236744Y0391760D01*
X0236765Y0391692D01*
X0236789Y0391626D01*
X0236817Y0391561D01*
X0236849Y0391497D01*
X0236884Y0391435D01*
X0236922Y0391375D01*
X0236963Y0391318D01*
X0237008Y0391262D01*
X0237055Y0391209D01*
X0237105Y0391159D01*
X0237158Y0391112D01*
X0237214Y0391067D01*
X0237271Y0391026D01*
X0237331Y0390988D01*
X0237393Y0390953D01*
X0237457Y0390921D01*
X0237522Y0390893D01*
X0237588Y0390869D01*
X0237656Y0390848D01*
X0237725Y0390831D01*
X0237795Y0390817D01*
X0237865Y0390808D01*
X0237936Y0390802D01*
X0238007Y0390800D01*
X0238078Y0390802D01*
X0238149Y0390808D01*
X0238219Y0390817D01*
X0238289Y0390831D01*
X0238358Y0390848D01*
X0238426Y0390869D01*
X0238492Y0390893D01*
X0238557Y0390921D01*
X0238621Y0390953D01*
X0238683Y0390988D01*
X0238743Y0391026D01*
X0238800Y0391067D01*
X0238856Y0391112D01*
X0238909Y0391159D01*
X0238959Y0391209D01*
X0239006Y0391262D01*
X0239051Y0391318D01*
X0239092Y0391375D01*
X0239130Y0391435D01*
X0239165Y0391497D01*
X0239197Y0391561D01*
X0239225Y0391626D01*
X0239249Y0391692D01*
X0239270Y0391760D01*
X0239287Y0391829D01*
X0239301Y0391899D01*
X0239310Y0391969D01*
X0239316Y0392040D01*
X0239318Y0392111D01*
X0234282Y0390800D02*
X0232971Y0390800D01*
X0232909Y0390802D01*
X0232848Y0390808D01*
X0232787Y0390817D01*
X0232727Y0390831D01*
X0232667Y0390848D01*
X0232609Y0390869D01*
X0232552Y0390894D01*
X0232497Y0390922D01*
X0232444Y0390953D01*
X0232393Y0390988D01*
X0232344Y0391026D01*
X0232298Y0391066D01*
X0232254Y0391110D01*
X0232214Y0391156D01*
X0232176Y0391205D01*
X0232141Y0391256D01*
X0232110Y0391309D01*
X0232082Y0391364D01*
X0232057Y0391421D01*
X0232036Y0391479D01*
X0232019Y0391539D01*
X0232005Y0391599D01*
X0231996Y0391660D01*
X0231990Y0391721D01*
X0231988Y0391783D01*
X0231988Y0393750D01*
X0231990Y0393812D01*
X0231996Y0393873D01*
X0232005Y0393934D01*
X0232019Y0393994D01*
X0232036Y0394054D01*
X0232057Y0394112D01*
X0232082Y0394169D01*
X0232110Y0394224D01*
X0232141Y0394277D01*
X0232176Y0394328D01*
X0232214Y0394377D01*
X0232254Y0394423D01*
X0232298Y0394467D01*
X0232344Y0394507D01*
X0232393Y0394545D01*
X0232444Y0394580D01*
X0232497Y0394611D01*
X0232552Y0394639D01*
X0232609Y0394664D01*
X0232667Y0394685D01*
X0232727Y0394702D01*
X0232787Y0394716D01*
X0232848Y0394725D01*
X0232909Y0394731D01*
X0232971Y0394733D01*
X0234282Y0394733D01*
X0228774Y0392439D02*
X0227136Y0393094D01*
X0227135Y0393095D02*
X0227083Y0393118D01*
X0227032Y0393145D01*
X0226983Y0393175D01*
X0226936Y0393208D01*
X0226891Y0393244D01*
X0226849Y0393284D01*
X0226810Y0393326D01*
X0226774Y0393370D01*
X0226741Y0393417D01*
X0226711Y0393467D01*
X0226684Y0393518D01*
X0226661Y0393570D01*
X0226642Y0393624D01*
X0226626Y0393680D01*
X0226614Y0393736D01*
X0226606Y0393793D01*
X0226602Y0393850D01*
X0226601Y0393908D01*
X0226605Y0393965D01*
X0226612Y0394022D01*
X0226624Y0394079D01*
X0226639Y0394134D01*
X0226657Y0394189D01*
X0226680Y0394242D01*
X0226706Y0394293D01*
X0226735Y0394342D01*
X0226768Y0394390D01*
X0226804Y0394435D01*
X0226842Y0394477D01*
X0226884Y0394517D01*
X0226928Y0394554D01*
X0226975Y0394588D01*
X0227023Y0394619D01*
X0227074Y0394646D01*
X0227126Y0394670D01*
X0227180Y0394690D01*
X0227235Y0394706D01*
X0227291Y0394719D01*
X0227348Y0394728D01*
X0227406Y0394733D01*
X0227463Y0394734D01*
X0226644Y0391128D02*
X0226778Y0391082D01*
X0226913Y0391039D01*
X0227049Y0391000D01*
X0227186Y0390964D01*
X0227323Y0390932D01*
X0227462Y0390903D01*
X0227601Y0390877D01*
X0227741Y0390856D01*
X0227882Y0390837D01*
X0228022Y0390823D01*
X0228164Y0390812D01*
X0228305Y0390804D01*
X0228447Y0390801D01*
X0228447Y0390800D02*
X0228504Y0390801D01*
X0228562Y0390806D01*
X0228619Y0390815D01*
X0228675Y0390828D01*
X0228730Y0390844D01*
X0228784Y0390864D01*
X0228836Y0390888D01*
X0228887Y0390915D01*
X0228935Y0390946D01*
X0228982Y0390980D01*
X0229026Y0391017D01*
X0229068Y0391057D01*
X0229106Y0391099D01*
X0229142Y0391144D01*
X0229175Y0391192D01*
X0229204Y0391241D01*
X0229230Y0391292D01*
X0229253Y0391345D01*
X0229271Y0391400D01*
X0229286Y0391455D01*
X0229298Y0391512D01*
X0229305Y0391569D01*
X0229309Y0391626D01*
X0229308Y0391684D01*
X0229304Y0391741D01*
X0229296Y0391798D01*
X0229284Y0391854D01*
X0229268Y0391910D01*
X0229249Y0391964D01*
X0229226Y0392016D01*
X0229199Y0392067D01*
X0229169Y0392117D01*
X0229136Y0392164D01*
X0229100Y0392208D01*
X0229061Y0392250D01*
X0229019Y0392290D01*
X0228974Y0392326D01*
X0228927Y0392359D01*
X0228878Y0392389D01*
X0228827Y0392416D01*
X0228775Y0392439D01*
X0228938Y0394405D02*
X0228831Y0394451D01*
X0228722Y0394494D01*
X0228612Y0394534D01*
X0228500Y0394570D01*
X0228388Y0394602D01*
X0228274Y0394631D01*
X0228160Y0394657D01*
X0228045Y0394678D01*
X0227930Y0394697D01*
X0227813Y0394711D01*
X0227697Y0394722D01*
X0227580Y0394729D01*
X0227463Y0394733D01*
X0223768Y0393094D02*
X0219834Y0393094D01*
X0217163Y0394733D02*
X0215852Y0390800D01*
X0214541Y0394733D01*
X0146959Y0393422D02*
X0146959Y0392767D01*
X0144337Y0392767D01*
X0144337Y0393422D02*
X0144337Y0391783D01*
X0144339Y0391721D01*
X0144345Y0391660D01*
X0144354Y0391599D01*
X0144368Y0391539D01*
X0144385Y0391479D01*
X0144406Y0391421D01*
X0144431Y0391364D01*
X0144459Y0391309D01*
X0144490Y0391256D01*
X0144525Y0391205D01*
X0144563Y0391156D01*
X0144603Y0391110D01*
X0144647Y0391066D01*
X0144693Y0391026D01*
X0144742Y0390988D01*
X0144793Y0390953D01*
X0144846Y0390922D01*
X0144901Y0390894D01*
X0144958Y0390869D01*
X0145016Y0390848D01*
X0145076Y0390831D01*
X0145136Y0390817D01*
X0145197Y0390808D01*
X0145258Y0390802D01*
X0145320Y0390800D01*
X0146959Y0390800D01*
X0146959Y0393422D02*
X0146957Y0393493D01*
X0146951Y0393564D01*
X0146942Y0393634D01*
X0146928Y0393704D01*
X0146911Y0393773D01*
X0146890Y0393841D01*
X0146866Y0393907D01*
X0146838Y0393972D01*
X0146806Y0394036D01*
X0146771Y0394098D01*
X0146733Y0394158D01*
X0146692Y0394215D01*
X0146647Y0394271D01*
X0146600Y0394324D01*
X0146550Y0394374D01*
X0146497Y0394421D01*
X0146441Y0394466D01*
X0146384Y0394507D01*
X0146324Y0394545D01*
X0146262Y0394580D01*
X0146198Y0394612D01*
X0146133Y0394640D01*
X0146067Y0394664D01*
X0145999Y0394685D01*
X0145930Y0394702D01*
X0145860Y0394716D01*
X0145790Y0394725D01*
X0145719Y0394731D01*
X0145648Y0394733D01*
X0145577Y0394731D01*
X0145506Y0394725D01*
X0145436Y0394716D01*
X0145366Y0394702D01*
X0145297Y0394685D01*
X0145229Y0394664D01*
X0145163Y0394640D01*
X0145098Y0394612D01*
X0145034Y0394580D01*
X0144972Y0394545D01*
X0144912Y0394507D01*
X0144855Y0394466D01*
X0144799Y0394421D01*
X0144746Y0394374D01*
X0144696Y0394324D01*
X0144649Y0394271D01*
X0144604Y0394215D01*
X0144563Y0394158D01*
X0144525Y0394098D01*
X0144490Y0394036D01*
X0144458Y0393972D01*
X0144430Y0393907D01*
X0144406Y0393841D01*
X0144385Y0393773D01*
X0144368Y0393704D01*
X0144354Y0393634D01*
X0144345Y0393564D01*
X0144339Y0393493D01*
X0144337Y0393422D01*
X0142251Y0394078D02*
X0142251Y0394733D01*
X0140284Y0394733D01*
X0140284Y0390800D01*
X0137318Y0392111D02*
X0137318Y0393422D01*
X0137316Y0393493D01*
X0137310Y0393564D01*
X0137301Y0393634D01*
X0137287Y0393704D01*
X0137270Y0393773D01*
X0137249Y0393841D01*
X0137225Y0393907D01*
X0137197Y0393972D01*
X0137165Y0394036D01*
X0137130Y0394098D01*
X0137092Y0394158D01*
X0137051Y0394215D01*
X0137006Y0394271D01*
X0136959Y0394324D01*
X0136909Y0394374D01*
X0136856Y0394421D01*
X0136800Y0394466D01*
X0136743Y0394507D01*
X0136683Y0394545D01*
X0136621Y0394580D01*
X0136557Y0394612D01*
X0136492Y0394640D01*
X0136426Y0394664D01*
X0136358Y0394685D01*
X0136289Y0394702D01*
X0136219Y0394716D01*
X0136149Y0394725D01*
X0136078Y0394731D01*
X0136007Y0394733D01*
X0135936Y0394731D01*
X0135865Y0394725D01*
X0135795Y0394716D01*
X0135725Y0394702D01*
X0135656Y0394685D01*
X0135588Y0394664D01*
X0135522Y0394640D01*
X0135457Y0394612D01*
X0135393Y0394580D01*
X0135331Y0394545D01*
X0135271Y0394507D01*
X0135214Y0394466D01*
X0135158Y0394421D01*
X0135105Y0394374D01*
X0135055Y0394324D01*
X0135008Y0394271D01*
X0134963Y0394215D01*
X0134922Y0394158D01*
X0134884Y0394098D01*
X0134849Y0394036D01*
X0134817Y0393972D01*
X0134789Y0393907D01*
X0134765Y0393841D01*
X0134744Y0393773D01*
X0134727Y0393704D01*
X0134713Y0393634D01*
X0134704Y0393564D01*
X0134698Y0393493D01*
X0134696Y0393422D01*
X0134695Y0393422D02*
X0134695Y0392111D01*
X0134696Y0392111D02*
X0134698Y0392040D01*
X0134704Y0391969D01*
X0134713Y0391899D01*
X0134727Y0391829D01*
X0134744Y0391760D01*
X0134765Y0391692D01*
X0134789Y0391626D01*
X0134817Y0391561D01*
X0134849Y0391497D01*
X0134884Y0391435D01*
X0134922Y0391375D01*
X0134963Y0391318D01*
X0135008Y0391262D01*
X0135055Y0391209D01*
X0135105Y0391159D01*
X0135158Y0391112D01*
X0135214Y0391067D01*
X0135271Y0391026D01*
X0135331Y0390988D01*
X0135393Y0390953D01*
X0135457Y0390921D01*
X0135522Y0390893D01*
X0135588Y0390869D01*
X0135656Y0390848D01*
X0135725Y0390831D01*
X0135795Y0390817D01*
X0135865Y0390808D01*
X0135936Y0390802D01*
X0136007Y0390800D01*
X0136078Y0390802D01*
X0136149Y0390808D01*
X0136219Y0390817D01*
X0136289Y0390831D01*
X0136358Y0390848D01*
X0136426Y0390869D01*
X0136492Y0390893D01*
X0136557Y0390921D01*
X0136621Y0390953D01*
X0136683Y0390988D01*
X0136743Y0391026D01*
X0136800Y0391067D01*
X0136856Y0391112D01*
X0136909Y0391159D01*
X0136959Y0391209D01*
X0137006Y0391262D01*
X0137051Y0391318D01*
X0137092Y0391375D01*
X0137130Y0391435D01*
X0137165Y0391497D01*
X0137197Y0391561D01*
X0137225Y0391626D01*
X0137249Y0391692D01*
X0137270Y0391760D01*
X0137287Y0391829D01*
X0137301Y0391899D01*
X0137310Y0391969D01*
X0137316Y0392040D01*
X0137318Y0392111D01*
X0132282Y0390800D02*
X0130971Y0390800D01*
X0130909Y0390802D01*
X0130848Y0390808D01*
X0130787Y0390817D01*
X0130727Y0390831D01*
X0130667Y0390848D01*
X0130609Y0390869D01*
X0130552Y0390894D01*
X0130497Y0390922D01*
X0130444Y0390953D01*
X0130393Y0390988D01*
X0130344Y0391026D01*
X0130298Y0391066D01*
X0130254Y0391110D01*
X0130214Y0391156D01*
X0130176Y0391205D01*
X0130141Y0391256D01*
X0130110Y0391309D01*
X0130082Y0391364D01*
X0130057Y0391421D01*
X0130036Y0391479D01*
X0130019Y0391539D01*
X0130005Y0391599D01*
X0129996Y0391660D01*
X0129990Y0391721D01*
X0129988Y0391783D01*
X0129988Y0393750D01*
X0129990Y0393812D01*
X0129996Y0393873D01*
X0130005Y0393934D01*
X0130019Y0393994D01*
X0130036Y0394054D01*
X0130057Y0394112D01*
X0130082Y0394169D01*
X0130110Y0394224D01*
X0130141Y0394277D01*
X0130176Y0394328D01*
X0130214Y0394377D01*
X0130254Y0394423D01*
X0130298Y0394467D01*
X0130344Y0394507D01*
X0130393Y0394545D01*
X0130444Y0394580D01*
X0130497Y0394611D01*
X0130552Y0394639D01*
X0130609Y0394664D01*
X0130667Y0394685D01*
X0130727Y0394702D01*
X0130787Y0394716D01*
X0130848Y0394725D01*
X0130909Y0394731D01*
X0130971Y0394733D01*
X0132282Y0394733D01*
X0126774Y0392439D02*
X0125136Y0393094D01*
X0125135Y0393095D02*
X0125083Y0393118D01*
X0125032Y0393145D01*
X0124983Y0393175D01*
X0124936Y0393208D01*
X0124891Y0393244D01*
X0124849Y0393284D01*
X0124810Y0393326D01*
X0124774Y0393370D01*
X0124741Y0393417D01*
X0124711Y0393467D01*
X0124684Y0393518D01*
X0124661Y0393570D01*
X0124642Y0393624D01*
X0124626Y0393680D01*
X0124614Y0393736D01*
X0124606Y0393793D01*
X0124602Y0393850D01*
X0124601Y0393908D01*
X0124605Y0393965D01*
X0124612Y0394022D01*
X0124624Y0394079D01*
X0124639Y0394134D01*
X0124657Y0394189D01*
X0124680Y0394242D01*
X0124706Y0394293D01*
X0124735Y0394342D01*
X0124768Y0394390D01*
X0124804Y0394435D01*
X0124842Y0394477D01*
X0124884Y0394517D01*
X0124928Y0394554D01*
X0124975Y0394588D01*
X0125023Y0394619D01*
X0125074Y0394646D01*
X0125126Y0394670D01*
X0125180Y0394690D01*
X0125235Y0394706D01*
X0125291Y0394719D01*
X0125348Y0394728D01*
X0125406Y0394733D01*
X0125463Y0394734D01*
X0124644Y0391128D02*
X0124778Y0391082D01*
X0124913Y0391039D01*
X0125049Y0391000D01*
X0125186Y0390964D01*
X0125323Y0390932D01*
X0125462Y0390903D01*
X0125601Y0390877D01*
X0125741Y0390856D01*
X0125882Y0390837D01*
X0126022Y0390823D01*
X0126164Y0390812D01*
X0126305Y0390804D01*
X0126447Y0390801D01*
X0126447Y0390800D02*
X0126504Y0390801D01*
X0126562Y0390806D01*
X0126619Y0390815D01*
X0126675Y0390828D01*
X0126730Y0390844D01*
X0126784Y0390864D01*
X0126836Y0390888D01*
X0126887Y0390915D01*
X0126935Y0390946D01*
X0126982Y0390980D01*
X0127026Y0391017D01*
X0127068Y0391057D01*
X0127106Y0391099D01*
X0127142Y0391144D01*
X0127175Y0391192D01*
X0127204Y0391241D01*
X0127230Y0391292D01*
X0127253Y0391345D01*
X0127271Y0391400D01*
X0127286Y0391455D01*
X0127298Y0391512D01*
X0127305Y0391569D01*
X0127309Y0391626D01*
X0127308Y0391684D01*
X0127304Y0391741D01*
X0127296Y0391798D01*
X0127284Y0391854D01*
X0127268Y0391910D01*
X0127249Y0391964D01*
X0127226Y0392016D01*
X0127199Y0392067D01*
X0127169Y0392117D01*
X0127136Y0392164D01*
X0127100Y0392208D01*
X0127061Y0392250D01*
X0127019Y0392290D01*
X0126974Y0392326D01*
X0126927Y0392359D01*
X0126878Y0392389D01*
X0126827Y0392416D01*
X0126775Y0392439D01*
X0126938Y0394405D02*
X0126831Y0394451D01*
X0126722Y0394494D01*
X0126612Y0394534D01*
X0126500Y0394570D01*
X0126388Y0394602D01*
X0126274Y0394631D01*
X0126160Y0394657D01*
X0126045Y0394678D01*
X0125930Y0394697D01*
X0125813Y0394711D01*
X0125697Y0394722D01*
X0125580Y0394729D01*
X0125463Y0394733D01*
X0121768Y0393094D02*
X0117834Y0393094D01*
X0115163Y0394733D02*
X0113852Y0390800D01*
X0112541Y0394733D01*
X0044959Y0393422D02*
X0044959Y0392767D01*
X0042337Y0392767D01*
X0042337Y0393422D02*
X0042337Y0391783D01*
X0042339Y0391721D01*
X0042345Y0391660D01*
X0042354Y0391599D01*
X0042368Y0391539D01*
X0042385Y0391479D01*
X0042406Y0391421D01*
X0042431Y0391364D01*
X0042459Y0391309D01*
X0042490Y0391256D01*
X0042525Y0391205D01*
X0042563Y0391156D01*
X0042603Y0391110D01*
X0042647Y0391066D01*
X0042693Y0391026D01*
X0042742Y0390988D01*
X0042793Y0390953D01*
X0042846Y0390922D01*
X0042901Y0390894D01*
X0042958Y0390869D01*
X0043016Y0390848D01*
X0043076Y0390831D01*
X0043136Y0390817D01*
X0043197Y0390808D01*
X0043258Y0390802D01*
X0043320Y0390800D01*
X0044959Y0390800D01*
X0044959Y0393422D02*
X0044957Y0393493D01*
X0044951Y0393564D01*
X0044942Y0393634D01*
X0044928Y0393704D01*
X0044911Y0393773D01*
X0044890Y0393841D01*
X0044866Y0393907D01*
X0044838Y0393972D01*
X0044806Y0394036D01*
X0044771Y0394098D01*
X0044733Y0394158D01*
X0044692Y0394215D01*
X0044647Y0394271D01*
X0044600Y0394324D01*
X0044550Y0394374D01*
X0044497Y0394421D01*
X0044441Y0394466D01*
X0044384Y0394507D01*
X0044324Y0394545D01*
X0044262Y0394580D01*
X0044198Y0394612D01*
X0044133Y0394640D01*
X0044067Y0394664D01*
X0043999Y0394685D01*
X0043930Y0394702D01*
X0043860Y0394716D01*
X0043790Y0394725D01*
X0043719Y0394731D01*
X0043648Y0394733D01*
X0043577Y0394731D01*
X0043506Y0394725D01*
X0043436Y0394716D01*
X0043366Y0394702D01*
X0043297Y0394685D01*
X0043229Y0394664D01*
X0043163Y0394640D01*
X0043098Y0394612D01*
X0043034Y0394580D01*
X0042972Y0394545D01*
X0042912Y0394507D01*
X0042855Y0394466D01*
X0042799Y0394421D01*
X0042746Y0394374D01*
X0042696Y0394324D01*
X0042649Y0394271D01*
X0042604Y0394215D01*
X0042563Y0394158D01*
X0042525Y0394098D01*
X0042490Y0394036D01*
X0042458Y0393972D01*
X0042430Y0393907D01*
X0042406Y0393841D01*
X0042385Y0393773D01*
X0042368Y0393704D01*
X0042354Y0393634D01*
X0042345Y0393564D01*
X0042339Y0393493D01*
X0042337Y0393422D01*
X0040251Y0394078D02*
X0040251Y0394733D01*
X0038284Y0394733D01*
X0038284Y0390800D01*
X0035318Y0392111D02*
X0035318Y0393422D01*
X0035316Y0393493D01*
X0035310Y0393564D01*
X0035301Y0393634D01*
X0035287Y0393704D01*
X0035270Y0393773D01*
X0035249Y0393841D01*
X0035225Y0393907D01*
X0035197Y0393972D01*
X0035165Y0394036D01*
X0035130Y0394098D01*
X0035092Y0394158D01*
X0035051Y0394215D01*
X0035006Y0394271D01*
X0034959Y0394324D01*
X0034909Y0394374D01*
X0034856Y0394421D01*
X0034800Y0394466D01*
X0034743Y0394507D01*
X0034683Y0394545D01*
X0034621Y0394580D01*
X0034557Y0394612D01*
X0034492Y0394640D01*
X0034426Y0394664D01*
X0034358Y0394685D01*
X0034289Y0394702D01*
X0034219Y0394716D01*
X0034149Y0394725D01*
X0034078Y0394731D01*
X0034007Y0394733D01*
X0033936Y0394731D01*
X0033865Y0394725D01*
X0033795Y0394716D01*
X0033725Y0394702D01*
X0033656Y0394685D01*
X0033588Y0394664D01*
X0033522Y0394640D01*
X0033457Y0394612D01*
X0033393Y0394580D01*
X0033331Y0394545D01*
X0033271Y0394507D01*
X0033214Y0394466D01*
X0033158Y0394421D01*
X0033105Y0394374D01*
X0033055Y0394324D01*
X0033008Y0394271D01*
X0032963Y0394215D01*
X0032922Y0394158D01*
X0032884Y0394098D01*
X0032849Y0394036D01*
X0032817Y0393972D01*
X0032789Y0393907D01*
X0032765Y0393841D01*
X0032744Y0393773D01*
X0032727Y0393704D01*
X0032713Y0393634D01*
X0032704Y0393564D01*
X0032698Y0393493D01*
X0032696Y0393422D01*
X0032695Y0393422D02*
X0032695Y0392111D01*
X0032696Y0392111D02*
X0032698Y0392040D01*
X0032704Y0391969D01*
X0032713Y0391899D01*
X0032727Y0391829D01*
X0032744Y0391760D01*
X0032765Y0391692D01*
X0032789Y0391626D01*
X0032817Y0391561D01*
X0032849Y0391497D01*
X0032884Y0391435D01*
X0032922Y0391375D01*
X0032963Y0391318D01*
X0033008Y0391262D01*
X0033055Y0391209D01*
X0033105Y0391159D01*
X0033158Y0391112D01*
X0033214Y0391067D01*
X0033271Y0391026D01*
X0033331Y0390988D01*
X0033393Y0390953D01*
X0033457Y0390921D01*
X0033522Y0390893D01*
X0033588Y0390869D01*
X0033656Y0390848D01*
X0033725Y0390831D01*
X0033795Y0390817D01*
X0033865Y0390808D01*
X0033936Y0390802D01*
X0034007Y0390800D01*
X0034078Y0390802D01*
X0034149Y0390808D01*
X0034219Y0390817D01*
X0034289Y0390831D01*
X0034358Y0390848D01*
X0034426Y0390869D01*
X0034492Y0390893D01*
X0034557Y0390921D01*
X0034621Y0390953D01*
X0034683Y0390988D01*
X0034743Y0391026D01*
X0034800Y0391067D01*
X0034856Y0391112D01*
X0034909Y0391159D01*
X0034959Y0391209D01*
X0035006Y0391262D01*
X0035051Y0391318D01*
X0035092Y0391375D01*
X0035130Y0391435D01*
X0035165Y0391497D01*
X0035197Y0391561D01*
X0035225Y0391626D01*
X0035249Y0391692D01*
X0035270Y0391760D01*
X0035287Y0391829D01*
X0035301Y0391899D01*
X0035310Y0391969D01*
X0035316Y0392040D01*
X0035318Y0392111D01*
X0030282Y0390800D02*
X0028971Y0390800D01*
X0028909Y0390802D01*
X0028848Y0390808D01*
X0028787Y0390817D01*
X0028727Y0390831D01*
X0028667Y0390848D01*
X0028609Y0390869D01*
X0028552Y0390894D01*
X0028497Y0390922D01*
X0028444Y0390953D01*
X0028393Y0390988D01*
X0028344Y0391026D01*
X0028298Y0391066D01*
X0028254Y0391110D01*
X0028214Y0391156D01*
X0028176Y0391205D01*
X0028141Y0391256D01*
X0028110Y0391309D01*
X0028082Y0391364D01*
X0028057Y0391421D01*
X0028036Y0391479D01*
X0028019Y0391539D01*
X0028005Y0391599D01*
X0027996Y0391660D01*
X0027990Y0391721D01*
X0027988Y0391783D01*
X0027988Y0393750D01*
X0027990Y0393812D01*
X0027996Y0393873D01*
X0028005Y0393934D01*
X0028019Y0393994D01*
X0028036Y0394054D01*
X0028057Y0394112D01*
X0028082Y0394169D01*
X0028110Y0394224D01*
X0028141Y0394277D01*
X0028176Y0394328D01*
X0028214Y0394377D01*
X0028254Y0394423D01*
X0028298Y0394467D01*
X0028344Y0394507D01*
X0028393Y0394545D01*
X0028444Y0394580D01*
X0028497Y0394611D01*
X0028552Y0394639D01*
X0028609Y0394664D01*
X0028667Y0394685D01*
X0028727Y0394702D01*
X0028787Y0394716D01*
X0028848Y0394725D01*
X0028909Y0394731D01*
X0028971Y0394733D01*
X0030282Y0394733D01*
X0024774Y0392439D02*
X0023136Y0393094D01*
X0023135Y0393095D02*
X0023083Y0393118D01*
X0023032Y0393145D01*
X0022983Y0393175D01*
X0022936Y0393208D01*
X0022891Y0393244D01*
X0022849Y0393284D01*
X0022810Y0393326D01*
X0022774Y0393370D01*
X0022741Y0393417D01*
X0022711Y0393467D01*
X0022684Y0393518D01*
X0022661Y0393570D01*
X0022642Y0393624D01*
X0022626Y0393680D01*
X0022614Y0393736D01*
X0022606Y0393793D01*
X0022602Y0393850D01*
X0022601Y0393908D01*
X0022605Y0393965D01*
X0022612Y0394022D01*
X0022624Y0394079D01*
X0022639Y0394134D01*
X0022657Y0394189D01*
X0022680Y0394242D01*
X0022706Y0394293D01*
X0022735Y0394342D01*
X0022768Y0394390D01*
X0022804Y0394435D01*
X0022842Y0394477D01*
X0022884Y0394517D01*
X0022928Y0394554D01*
X0022975Y0394588D01*
X0023023Y0394619D01*
X0023074Y0394646D01*
X0023126Y0394670D01*
X0023180Y0394690D01*
X0023235Y0394706D01*
X0023291Y0394719D01*
X0023348Y0394728D01*
X0023406Y0394733D01*
X0023463Y0394734D01*
X0022644Y0391128D02*
X0022778Y0391082D01*
X0022913Y0391039D01*
X0023049Y0391000D01*
X0023186Y0390964D01*
X0023323Y0390932D01*
X0023462Y0390903D01*
X0023601Y0390877D01*
X0023741Y0390856D01*
X0023882Y0390837D01*
X0024022Y0390823D01*
X0024164Y0390812D01*
X0024305Y0390804D01*
X0024447Y0390801D01*
X0024447Y0390800D02*
X0024504Y0390801D01*
X0024562Y0390806D01*
X0024619Y0390815D01*
X0024675Y0390828D01*
X0024730Y0390844D01*
X0024784Y0390864D01*
X0024836Y0390888D01*
X0024887Y0390915D01*
X0024935Y0390946D01*
X0024982Y0390980D01*
X0025026Y0391017D01*
X0025068Y0391057D01*
X0025106Y0391099D01*
X0025142Y0391144D01*
X0025175Y0391192D01*
X0025204Y0391241D01*
X0025230Y0391292D01*
X0025253Y0391345D01*
X0025271Y0391400D01*
X0025286Y0391455D01*
X0025298Y0391512D01*
X0025305Y0391569D01*
X0025309Y0391626D01*
X0025308Y0391684D01*
X0025304Y0391741D01*
X0025296Y0391798D01*
X0025284Y0391854D01*
X0025268Y0391910D01*
X0025249Y0391964D01*
X0025226Y0392016D01*
X0025199Y0392067D01*
X0025169Y0392117D01*
X0025136Y0392164D01*
X0025100Y0392208D01*
X0025061Y0392250D01*
X0025019Y0392290D01*
X0024974Y0392326D01*
X0024927Y0392359D01*
X0024878Y0392389D01*
X0024827Y0392416D01*
X0024775Y0392439D01*
X0024938Y0394405D02*
X0024831Y0394451D01*
X0024722Y0394494D01*
X0024612Y0394534D01*
X0024500Y0394570D01*
X0024388Y0394602D01*
X0024274Y0394631D01*
X0024160Y0394657D01*
X0024045Y0394678D01*
X0023930Y0394697D01*
X0023813Y0394711D01*
X0023697Y0394722D01*
X0023580Y0394729D01*
X0023463Y0394733D01*
X0019768Y0393094D02*
X0015834Y0393094D01*
X0013163Y0394733D02*
X0011852Y0390800D01*
X0010541Y0394733D01*
D13*
X0001750Y0026750D02*
X0001750Y0001750D01*
X0359750Y0001750D01*
X0359750Y0026750D01*
X0001750Y0026750D01*
X0001750Y0028750D02*
X0001750Y0332750D01*
X0026750Y0332750D01*
X0026750Y0028750D01*
X0001750Y0028750D01*
X0001750Y0334750D02*
X0001750Y0359750D01*
X0359750Y0359750D01*
X0359750Y0334750D01*
X0001750Y0334750D01*
X0334750Y0332750D02*
X0334750Y0028750D01*
X0359750Y0028750D01*
X0359750Y0332750D01*
X0334750Y0332750D01*
M02*
